<svg xmlns="http://www.w3.org/2000/svg" fill="none" viewBox="0 0 64 64"><path fill="#000" d="M58.58 28.34H54.2a25.142 25.142 0 0 0-2.16-5.22L55.16 20a1.92 1.92 0 0 0 0-2.76l-5.94-5.94a1.92 1.92 0 0 0-2.76 0l-3.12 3.12a25.142 25.142 0 0 0-5.22-2.16V7.94a1.9 1.9 0 0 0-1.92-1.92h-8.4a1.9 1.9 0 0 0-1.92 1.92v4.38a25.14 25.14 0 0 0-5.22 2.16l-3.11-3.12a1.93 1.93 0 0 0-2.77 0L8.85 17.3a1.9 1.9 0 0 0 0 2.76l3.11 3.12A25.695 25.695 0 0 0 9.8 28.4H5.42a1.9 1.9 0 0 0-1.92 1.92v8.4a1.9 1.9 0 0 0 1.92 1.92H9.8a25.137 25.137 0 0 0 2.16 5.22l-3.11 3.12a1.9 1.9 0 0 0 0 2.76l5.93 5.94a1.93 1.93 0 0 0 2.77 0l3.11-3.12a25.366 25.366 0 0 0 5.22 2.16c.42.12.9.12 1.32.24V45.44a12.409 12.409 0 0 1-2-21.54 1.27 1.27 0 0 1 2 1.08v6.08a4.86 4.86 0 1 0 9.72 0V25a1.27 1.27 0 0 1 2-1.08 12.41 12.41 0 0 1-2 21.54v11.46c.445-.05.886-.131 1.32-.24h.06a22.258 22.258 0 0 0 5.22-2.16l3.12 3.12a1.919 1.919 0 0 0 2.76 0l5.94-5.94a1.92 1.92 0 0 0 0-2.76l-3.12-3.12a25.142 25.142 0 0 0 2.16-5.22h4.38a1.888 1.888 0 0 0 1.92-1.92v-8.4a2 2 0 0 0-2.1-1.94Z"/></svg>