<svg xmlns="http://www.w3.org/2000/svg" fill="none" viewBox="0 0 88 64"><path fill="#000" d="M24.98 23.74a3.3 3.3 0 1 0-6.6 0 3.3 3.3 0 0 0 6.6 0ZM35.35 27.05a3.3 3.3 0 1 0 0-6.6 3.3 3.3 0 0 0 0 6.6ZM36.792 33.119a1.861 1.861 0 0 1-.352.691h.01a9.78 9.78 0 0 1-15.72 0 1.86 1.86 0 1 1 3.12-2 5.47 5.47 0 0 0 4.74 2.28 5.619 5.619 0 0 0 4.74-2.28 1.86 1.86 0 0 1 3.462 1.309ZM44.546 42.335a2.26 2.26 0 0 1-1.566-.565 2.26 2.26 0 0 1 3.19-3.19 2.26 2.26 0 0 1-1.624 3.755ZM48.93 41.75a2.25 2.25 0 1 0 3.18-3.18 2.251 2.251 0 0 0-3.701 2.45c.123.276.3.524.521.73ZM56.469 37.898a2.252 2.252 0 1 1-.007 4.504 2.252 2.252 0 0 1 .007-4.504ZM48.92 35.81a2.25 2.25 0 1 0 3.293-3.068 2.25 2.25 0 0 0-3.293 3.068ZM49.67 48.221a2.25 2.25 0 1 1 1.832-4.11 2.25 2.25 0 0 1-1.832 4.11Z"/><path fill="#000" fill-rule="evenodd" d="M70.76 19.96a12.14 12.14 0 0 0-13.7-2.42V6.76A5.76 5.76 0 0 0 51.3 1H5.76A5.76 5.76 0 0 0 0 6.76v34.8a5.76 5.76 0 0 0 5.76 5.76h21.82a12.282 12.282 0 0 0-.83 4.44 12.16 12.16 0 0 0 20.75 8.6l23.26-23.23a12.15 12.15 0 0 0 0-17.17ZM38.66 6.22h8.94a1.5 1.5 0 1 1 0 3h-8.94a1.5 1.5 0 1 1 0-3Zm-18.06-.6a2 2 0 1 1-2 2 2.06 2.06 0 0 1 2-2Zm-6.06 0a2 2 0 1 1-2 2 2.1 2.1 0 0 1 2-2Zm-6 0a2 2 0 1 1-2 2 2.06 2.06 0 0 1 2-2Zm-2.78 38.1a2.15 2.15 0 0 1-2.16-2.16V14.44h49.86v5.61L30.3 43.21c-.17.17-.32.34-.469.509l-.001.001H5.76ZM45.1 57.96a8.76 8.76 0 0 1-12.34-12.39l3-3.06 12.4 12.41-3.06 3.04Zm5.4-5.45L38.17 40.13l12.35-12.4 12.4 12.4L50.5 52.51Zm17.8-17.75-3 3.05-12.4-12.4 3-3a8.81 8.81 0 0 1 12.4 0 8.721 8.721 0 0 1 .02 12.35h-.02Z" clip-rule="evenodd"/></svg>