<svg xmlns="http://www.w3.org/2000/svg" fill="none" viewBox="0 0 64 64"><path fill="#000" d="M62 5.87v20.07h-9.51a7.19 7.19 0 0 1 1 2.64c0 4.05-6.28 4.05-6.28 0 .178-.906.45-1.79.81-2.64H37.88v-5.88a5.3 5.3 0 1 0 0-10.54V4.25h22.3A1.78 1.78 0 0 1 62 5.87ZM14.17 30.2a5.261 5.261 0 0 1 5.27 5.87h6.69v-9.12c.33.136.661.315.992.494.67.363 1.339.726 2.008.726 4.05 0 4.05-6.29 0-6.29a8.881 8.881 0 0 0-3 1v-8.52H3.63a1.75 1.75 0 0 0-1.62 1.63v20.07H8.9a5.25 5.25 0 0 1 5.27-5.86Z"/><path fill="#000" d="M20.871 46.934a5.221 5.221 0 0 0-.421 2.126 5.381 5.381 0 0 0 5.68 5.47V60H3.63A1.74 1.74 0 0 1 2 58.38V38.32h10.13a6.811 6.811 0 0 1-1-2.84c0-4.06 6.08-4.06 6.08 0 0 .745-.441 1.49-.837 2.16-.14.237-.276.465-.383.68h10.14v5.47a5.22 5.22 0 0 0-5.259 3.144Z"/><path fill="#000" d="M38.72 43.744a5.42 5.42 0 0 0 2.2.436 5.391 5.391 0 0 0 5.27-5.87h6.29v20.11a1.74 1.74 0 0 1-1.63 1.62h-22.5v-8.71a6.67 6.67 0 0 1-2.63.81c-3.85 0-3.85-6.08 0-6.08.9.162 1.782.416 2.63.76v-8.51h7.1a5.42 5.42 0 0 0 3.27 5.434Z"/></svg>