<svg xmlns="http://www.w3.org/2000/svg" focusable="false" role="img" viewBox="0 0 200 100" fill="currentColor">
  <g clip-path="url(#clip0_102:65)">
    <path fill-rule="evenodd" d="M0 24.2833L195.456 10.54C196.08 19.3259 196.703 28.0877 197.327 36.8496C198.218 49.3665 199.109 61.8834 200 74.4701L4.49359 88.2134C3.79259 78.0223 3.06844 67.8451 2.34331 57.654L2.3433 57.6539C1.55383 46.5587 0.763197 35.4471 0 24.2833ZM31.4753 44.5297H35.2519V40.5511H32.0509L33.1819 31.8467H28.9104C28.6034 34.0185 28.3074 36.1292 28.0102 38.2489L28.0096 38.2533L28.0092 38.2566L27.6987 40.4703H23.4575L24.639 31.8265H20.3575C20.2625 32.4964 20.1632 33.1648 20.0641 33.8324L20.0641 33.8326L20.0641 33.8326C19.794 35.6505 19.5249 37.4619 19.3477 39.2788C19.2467 40.2886 18.863 40.7228 17.8633 40.642C17.2026 40.5886 16.5992 40.6058 15.9744 40.6236L15.9742 40.6236C15.6538 40.6327 15.3277 40.642 14.9854 40.642V44.6812H18.5802C18.5283 45.0732 18.4802 45.4552 18.4331 45.8291L18.4331 45.8295L18.4331 45.8296C18.2789 47.0545 18.1357 48.1921 17.9037 49.306C17.8093 49.5066 17.6685 49.6818 17.4929 49.817C17.3172 49.9522 17.1119 50.0436 16.8939 50.0836C15.8378 50.1442 14.7792 50.1442 13.7231 50.0836V54.1228H17.2271C17.016 55.6747 16.8076 57.1826 16.6005 58.6808L16.6003 58.6824C16.4113 60.0497 16.2234 61.409 16.0355 62.7868H20.3171C20.7409 59.8908 21.1546 57.0451 21.5683 54.1996L21.5684 54.1994L21.5689 54.1959L21.5692 54.1934H25.77C25.5176 56.0635 25.2777 57.8879 25.0396 59.6986L25.0391 59.7023L25.0389 59.7039L25.0388 59.7045L25.0387 59.7052C24.9055 60.718 24.7729 61.7265 24.639 62.7363H28.9306C29.0585 61.8123 29.1854 60.8984 29.3116 59.9895L29.3129 59.9803L29.3131 59.9785C29.5849 58.0206 29.8536 56.0858 30.1222 54.1228H33.8685V50.0028H30.7079C30.9704 48.0943 31.2128 46.3776 31.4753 44.5297ZM52.8527 62.0295C53.0748 62.3728 53.4586 62.8272 53.7817 62.8272C54.9475 62.8466 56.0967 62.837 57.2186 62.8276L57.2197 62.8275C57.8466 62.8223 58.465 62.8171 59.073 62.8171C59.0295 62.1081 58.9773 61.4144 58.926 60.7316L58.926 60.7315L58.926 60.7314L58.9259 60.7311C58.8106 59.1969 58.6994 57.7177 58.6994 56.2433C58.659 53.9116 58.6725 51.5438 58.686 49.1881V49.1876V49.1867V49.1857V49.1847C58.6927 48.0118 58.6994 46.8419 58.6994 45.6809C58.7806 44.62 58.5245 43.5606 57.9678 42.6539C57.4111 41.7472 56.5821 41.0395 55.5993 40.6319C53.3295 39.5807 50.8441 39.0787 48.3442 39.1664C45.8444 39.2541 43.4003 39.9291 41.2097 41.1368C40.1774 41.7043 39.3235 42.5481 38.7438 43.5737C38.1642 44.5992 37.8816 45.766 37.9279 46.9431H43.7746C44.2058 45.9841 44.7889 45.101 45.5014 44.3278C46.3002 43.8091 47.2203 43.5075 48.1712 43.4526C49.122 43.3977 50.0708 43.5914 50.924 44.0147C51.4507 44.2606 51.8779 44.6787 52.1349 45.2001C52.3919 45.7215 52.4635 46.315 52.3377 46.8825C52.2468 48.0034 51.4491 48.4477 50.5503 48.7406C49.9265 48.9169 49.2925 49.0551 48.6519 49.1546C46.2199 49.4788 43.8065 49.9305 41.4218 50.5077C38.3924 51.3862 37.0898 53.5371 37.1504 56.7078C37.2109 59.8786 38.7357 62.0699 41.6944 62.908C43.5337 63.4896 45.4879 63.6097 47.3846 63.2575C49.2813 62.9052 51.0621 62.0916 52.5699 60.8884C52.6087 61.2804 52.704 61.6647 52.8527 62.0295ZM69.9687 62.8272H76.1789V31.8467C75.6777 31.8467 75.1856 31.8409 74.7 31.8352H74.7H74.6999C73.7476 31.8241 72.8203 31.8132 71.8974 31.8467C71.7125 31.9026 71.5428 31.9998 71.4011 32.131C71.2594 32.2622 71.1494 32.424 71.0795 32.604C70.1808 35.7243 67.9895 37.2794 64.8995 37.7439C64.3622 37.8224 63.8213 37.8792 63.2811 37.9359L63.281 37.936L63.2809 37.936L63.2808 37.936L63.2807 37.936C62.9175 37.9741 62.5546 38.0123 62.1933 38.0569V42.7626H69.9687V62.8272ZM89.8011 62.7767H96.0618L96.0214 31.8467H93.406H92.063C91.8851 31.8362 91.7068 31.8602 91.5379 31.9174C91.134 32.0183 90.932 32.291 90.821 32.7858C90.5775 33.8165 90.0805 34.77 89.3751 35.56C88.6698 36.35 87.7784 36.9514 86.7818 37.3097C86.4966 37.4024 86.2067 37.48 85.9134 37.5419C85.0814 37.7551 84.2261 37.8652 83.3538 37.9776L83.3537 37.9776L83.3536 37.9776C82.9448 38.0302 82.5322 38.0834 82.1165 38.1478V42.7727H89.8011V62.7767ZM119.129 52.7918L119.137 52.7721C119.779 51.0341 120.421 49.2962 121.064 47.5591L121.328 46.8412L121.328 46.8404C122.161 44.5681 123.008 42.2603 123.912 39.8948H117.399L112.35 55.5365C112.252 55.2772 112.168 55.0605 112.095 54.8707L112.093 54.8665L112.093 54.8663L112.093 54.866C111.956 54.5112 111.856 54.2506 111.764 53.9814C111.494 53.1592 111.224 52.3366 110.954 51.5138L110.953 51.5095C109.801 47.9989 108.648 44.4855 107.462 40.9853C107.311 40.541 106.826 39.8847 106.453 39.8847C105.158 39.8513 103.86 39.862 102.513 39.8731H102.513H102.513C101.821 39.8788 101.117 39.8847 100.394 39.8847L101.05 41.7427C101.758 43.6433 102.469 45.5431 103.179 47.4427L103.181 47.4493L103.182 47.4517C104.9 52.0488 106.618 56.6453 108.311 61.2519C109.32 64.0591 107.947 65.8869 104.978 65.6748L102.535 65.4729V69.6938C102.535 70.5319 102.868 70.7743 103.615 70.7743C104.12 70.7743 104.66 70.7894 105.2 70.8046C105.741 70.8197 106.281 70.8349 106.786 70.8349C111.027 70.7541 112.935 69.4313 114.42 65.4628C116.007 61.2458 117.568 57.0187 119.129 52.7922L119.129 52.7918ZM145.259 36.9562H154.65V31.2004H128.9V37.0269H138.261V62.7666H145.259V36.9562ZM179.632 61.3731C179.956 61.1711 180.269 60.9591 180.572 60.747C185.126 57.4551 186.731 52.6081 186.903 46.4685C186.735 44.9182 186.486 43.3778 186.156 41.8538C185.476 38.8025 183.832 36.0509 181.469 34.0053C179.105 31.9597 176.146 30.7285 173.028 30.4936C172.249 30.3864 171.462 30.3392 170.676 30.3522C167.978 30.3968 165.344 31.1715 163.052 32.5939C160.76 34.0164 158.896 36.0334 157.659 38.4305C156.074 41.7404 155.428 45.4219 155.791 49.0738C155.905 51.1406 156.434 53.1634 157.346 55.0215V55.0922C157.589 55.5668 157.922 56.1525 158.124 56.4857C158.275 56.7356 158.444 56.9685 158.612 57.2014L158.702 57.3258C158.728 57.3621 158.754 57.3984 158.78 57.4349C158.792 57.4495 158.804 57.4647 158.815 57.4804C158.826 57.4949 158.836 57.5098 158.846 57.5249C158.853 57.5357 158.861 57.5467 158.868 57.5577C158.885 57.5837 158.903 57.6103 158.922 57.6368C159.194 57.9802 159.487 58.3235 159.78 58.6466L159.881 58.7678L160.011 58.8907L160.196 59.066C160.431 59.2902 160.659 59.5061 160.891 59.717L160.992 59.818C161.315 60.1108 161.658 60.3734 162.001 60.6359L162.173 60.7672C162.516 60.9995 162.85 61.2115 163.183 61.4236L163.486 61.6154C163.779 61.7871 164.082 61.9386 164.385 62.09L164.859 62.3324C165.122 62.4536 165.384 62.5546 165.647 62.6555L166.293 62.908C166.442 62.9597 166.594 63.0031 166.746 63.0462C166.831 63.0705 166.916 63.0946 167 63.12L167.757 63.3321C167.78 63.3381 167.803 63.3443 167.826 63.3505C167.846 63.3558 167.865 63.3612 167.885 63.3666L167.885 63.3667C168.078 63.4195 168.274 63.4735 168.464 63.4735L169.242 63.6148C169.524 63.6956 169.807 63.6956 170.09 63.6956H170.736H171.918H172.281H172.594C172.732 63.687 172.874 63.6655 173.017 63.6437C173.21 63.6144 173.407 63.5845 173.604 63.5845L173.998 63.524C174.412 63.4533 174.826 63.3624 175.23 63.2614L175.523 63.1806C175.906 63.0695 176.28 62.9585 176.643 62.8171L176.866 62.7464C177.31 62.5747 177.744 62.3829 178.168 62.1809L178.31 62.1102C178.764 61.878 179.309 61.5751 179.632 61.3731ZM164.415 39.8746C163.214 42.1195 162.524 44.6023 162.395 47.1451C162.747 49.1238 163.254 51.0719 163.91 52.9716C164.461 54.4275 165.463 55.6696 166.768 56.5177C168.074 57.3657 169.616 57.7754 171.17 57.6873C174.583 57.7075 177.249 56.314 178.623 53.0827C179.536 51.0504 179.979 48.8384 179.92 46.6111C179.86 44.3838 179.3 42.1986 178.279 40.2179C177.661 38.9624 176.687 37.9166 175.479 37.211C174.27 36.5053 172.881 36.1708 171.483 36.2494C170.084 36.1339 168.681 36.4123 167.432 37.0529C166.182 37.6935 165.137 38.6709 164.415 39.8746ZM26.3758 50.0028H22.1347L22.8819 44.661H27.0928L26.3758 50.0028ZM52.2771 55.6072C52.3578 54.417 52.3578 53.2227 52.2771 52.0325C51.7803 52.1214 51.2835 52.2066 50.787 52.2918C49.6486 52.487 48.5116 52.682 47.3796 52.9211C46.4798 53.084 45.6132 53.3945 44.8147 53.84C44.5921 53.9737 44.3912 54.1406 44.2189 54.3348C43.963 54.61 43.764 54.933 43.6336 55.2854C43.5031 55.6378 43.4436 56.0126 43.4587 56.388C43.4737 56.7635 43.5629 57.1323 43.7211 57.4732C43.8793 57.814 44.1034 58.1202 44.3805 58.374C45.9558 59.5857 47.7835 59.3838 49.5405 58.8789C50.2753 58.6766 50.9309 58.2551 51.4199 57.6705C51.9088 57.0859 52.2079 56.3661 52.2771 55.6072Z" clip-rule="evenodd"/>
  </g>
  <defs>
    <clipPath id="clip0_102:65">
      <rect width="200" height="100"/>
    </clipPath>
  </defs>
</svg>
