<svg xmlns="http://www.w3.org/2000/svg" focusable="false" role="img" viewBox="0 0 200 100" fill="currentColor">
  <path d="M32.1698 68.4544C31.9514 68.5105 31.7224 68.5105 31.504 68.4544C30.6279 68.069 29.6888 67.5713 28.8057 67.1298C26.0022 65.7281 23.1356 64.3824 20.3252 63.0017C20.1736 62.9189 20.0037 62.8755 19.831 62.8755C19.6584 62.8755 19.4885 62.9189 19.3369 63.0017C15.7555 64.7679 12.174 66.506 8.53654 68.2932C8.47508 68.3475 8.39994 68.3838 8.31927 68.3984H7.65344C7.66357 68.1933 7.70129 67.9906 7.76558 67.7956C11.6204 60.03 15.5312 52.3134 19.386 44.6039C19.5235 44.3977 19.6913 44.2135 19.8836 44.0572C20.0443 44.2281 20.1919 44.4108 20.3252 44.6039L31.8895 67.7325C31.9519 67.9841 32.0461 68.2267 32.1698 68.4544Z"/>
  <path d="M9.63695 60.4715L0 52.5938L1.92739 51.7668C2.62826 51.4373 2.75442 51.2131 2.58621 50.4982C2.0956 48.5708 1.59798 46.7555 1.10036 44.8912L0.988225 44.5057L4.40847 45.2066C5.01121 45.3117 5.5649 45.4239 6.16765 45.536C6.30895 45.5692 6.45543 45.5741 6.59864 45.5505C6.74186 45.5268 6.87898 45.4751 7.00211 45.3982C7.12523 45.3213 7.23193 45.2209 7.31606 45.1026C7.40019 44.9843 7.46008 44.8505 7.49229 44.709C7.75496 43.9604 8.06154 43.2278 8.41043 42.5153C8.84497 43.0059 9.18139 43.3914 9.51079 43.8329L12.6156 47.3022C12.6717 47.3583 12.7208 47.4704 12.7768 47.4704C13.0572 47.5826 13.3305 47.6877 13.6599 47.7998C13.8177 47.5128 13.8929 47.1878 13.8772 46.8607C13.6039 45.3188 13.2745 43.8329 13.0011 42.291L11.8447 36.5088V35.9551L14.7183 37.7774C15.8256 38.4362 16.2111 38.3241 16.7578 37.1676L19.5122 31.6588C19.6359 31.4465 19.746 31.2264 19.8416 31C20.5074 32.3246 21.1662 33.5371 21.769 34.7426L23.2058 37.5461C23.5913 38.3171 23.9066 38.4292 24.6916 37.9877L28.1048 36.0042C27.8876 37.1046 27.6633 38.0437 27.446 38.9829C26.8923 41.5691 26.2896 44.0992 25.7359 46.6925V46.9448C25.7456 47.2791 25.7831 47.612 25.8481 47.94C26.1775 47.7718 26.619 47.7157 26.8363 47.4985L30.9714 42.8727L31.413 42.3751C31.6863 43.2021 31.9596 43.9731 32.24 44.688C32.5203 45.4029 32.8427 45.7883 33.7258 45.5711C35.2677 45.2907 36.8096 44.8702 38.3516 44.5758L38.737 44.5198L37.8469 47.7438C37.5736 48.739 37.3493 49.6712 37.076 50.6103C36.9954 50.8008 36.9903 51.0148 37.062 51.2088C37.1336 51.4028 37.2764 51.5622 37.4615 51.6546H37.5175L39.6552 52.5517C39.5041 52.7122 39.34 52.8599 39.1646 52.9933L30.8382 59.7006C30.1794 60.2473 30.0673 60.1912 29.6818 59.4763C26.5419 53.4208 23.374 47.3022 20.3182 41.1906C20.1828 40.9808 20.0148 40.7939 19.8206 40.6369C19.6599 40.7903 19.5122 40.9568 19.379 41.1346L12.7768 54.1357L9.63695 60.4715Z"/>
  <path d="M137.812 43.8329V57.3317H134.174C134.013 57.3317 133.845 57.0513 133.74 56.8901L129.002 49.2296C128.879 48.9948 128.731 48.774 128.56 48.5708V57.2756H125.456V43.8329H128.96C129.121 43.8329 129.289 44.1063 129.458 44.2745C130.999 46.7555 132.541 49.2857 134.083 51.8228L134.525 52.5237V43.8329H137.812Z"/>
  <path d="M62.9591 53.1405C62.9031 52.4854 62.6451 51.8639 62.2208 51.3617C61.7964 50.8595 61.2267 50.5015 60.5901 50.337L60.3168 50.2248C60.8326 50.0583 61.2938 49.7555 61.6516 49.3483C62.0094 48.9412 62.2504 48.4449 62.3493 47.912C62.5467 47.0796 62.409 46.2031 61.9658 45.4714C61.5226 44.7397 60.8095 44.2117 59.9804 44.0011C59.7518 43.937 59.5167 43.8994 59.2795 43.889C57.0227 43.6717 54.7098 43.889 52.397 43.889V57.2055H58.6207C59.423 57.1489 60.2076 56.9421 60.9336 56.5957C61.6215 56.3469 62.2006 55.8652 62.5706 55.234C62.9405 54.6029 63.078 53.8623 62.9591 53.1405ZM55.5789 46.314C56.4248 46.3153 57.2698 46.3691 58.1091 46.4752C58.4054 46.4979 58.6826 46.6305 58.8862 46.8471C59.0897 47.0636 59.205 47.3485 59.2094 47.6456C59.2353 47.8159 59.2273 47.9896 59.186 48.1569C59.1447 48.3241 59.0709 48.4815 58.9687 48.6201C58.8665 48.7588 58.7379 48.8759 58.5904 48.9649C58.443 49.0538 58.2794 49.1128 58.1091 49.1385C57.2527 49.2675 56.3887 49.34 55.5228 49.3558L55.5789 46.314ZM58.3824 54.5212C57.4529 54.6474 56.5168 54.72 55.5789 54.7384V51.5985C56.5358 51.6153 57.4907 51.6902 58.4385 51.8228C58.7639 51.8372 59.0713 51.9762 59.297 52.2111C59.5228 52.446 59.6495 52.7586 59.651 53.0844V53.1405C59.6475 53.4855 59.5169 53.8172 59.2841 54.072C59.0513 54.3267 58.7328 54.4867 58.3894 54.5212H58.3824Z"/>
  <path d="M191.52 57.3317H188.211V43.8329H191.463V48.8441H196.692V43.8329H200V57.2756H196.748V51.7668H191.52V57.3317Z"/>
  <path d="M122.112 43.8329L116.274 50.0566L122.449 57.3316H118.244C118.082 57.3316 117.914 57.1074 117.802 56.9462C116.4 55.236 114.999 53.4418 113.597 51.7667L113.099 51.157V57.2756H109.854V43.8329H113.099V49.2296L113.541 48.8441C114.943 47.3022 116.295 45.7603 117.62 44.2184C117.728 44.0763 117.872 43.9657 118.037 43.8979C118.202 43.8302 118.382 43.8077 118.559 43.8329H122.112Z"/>
  <path d="M106.364 45.3188L104.324 47.5826C103.919 47.1214 103.402 46.7727 102.822 46.5701C102.243 46.3676 101.621 46.3179 101.016 46.4261C100.537 46.4742 100.073 46.6241 99.6558 46.8658C99.2388 47.1075 98.8783 47.4355 98.5982 47.8279C97.9309 48.6982 97.6022 49.7811 97.6731 50.8755C97.744 51.9699 98.2097 53.0013 98.9837 53.7782C99.3623 54.1022 99.8014 54.348 100.276 54.5013C100.75 54.6546 101.25 54.7124 101.746 54.6713C102.243 54.6302 102.726 54.4911 103.169 54.2621C103.611 54.033 104.004 53.7185 104.324 53.3367L106.581 55.4814C105.264 57.4648 102.011 58.3479 99.0328 57.584C97.6495 57.1957 96.42 56.3893 95.5129 55.2751C94.6057 54.1609 94.0653 52.7935 93.9655 51.3602C93.8043 47.8559 95.3672 45.1926 98.2618 44.0922C101.156 42.9919 104.871 43.5035 106.364 45.3188Z"/>
  <path d="M180.887 57.3317H177.579V46.6434H173.816V43.889H184.665V46.6434H180.922V57.3317H180.887Z"/>
  <path d="M75.5747 54.5212V57.3246H67.0311V43.8329H70.2832V54.4651H75.5747V54.5212Z"/>
  <path d="M156.21 47.968C155.271 45.1015 152.628 43.3914 149.201 43.3914C144.134 43.3914 141.05 47.0849 141.933 51.984C142.536 55.4043 145.402 57.6611 149.313 57.591C154.892 57.7171 157.752 52.755 156.21 47.968ZM147.617 54.409C146.785 54.0088 146.11 53.3414 145.701 52.5132C145.292 51.685 145.172 50.7437 145.36 49.8394C145.451 48.8306 145.935 47.8979 146.707 47.2424C147.479 46.5869 148.478 46.2611 149.488 46.335C149.726 46.3454 149.961 46.383 150.189 46.4471C151.07 46.6798 151.84 47.2158 152.365 47.9606C152.889 48.7055 153.134 49.6116 153.056 50.5192C153 53.6591 150.301 55.6425 147.603 54.43L147.617 54.409Z"/>
  <path d="M168.328 51.5986C168.657 51.4374 168.931 51.3252 169.211 51.157C169.634 50.9468 170.01 50.6506 170.313 50.2874C170.615 49.9242 170.839 49.5019 170.97 49.0474C171.139 48.5699 171.212 48.0636 171.184 47.5577C171.157 47.0519 171.029 46.5565 170.809 46.1003C170.588 45.6441 170.28 45.2361 169.901 44.8999C169.522 44.5636 169.08 44.3058 168.601 44.1413C168.26 44.0399 167.91 43.9672 167.557 43.924C165.356 43.6998 163.092 43.8119 160.835 43.7558C160.815 43.7577 160.795 43.7637 160.777 43.7733C160.759 43.7829 160.743 43.796 160.73 43.8119V57.1284H164.003V51.984C165.055 51.8228 165.055 51.8228 165.405 52.6849C166.176 54.0866 166.947 55.4884 167.718 56.8901C167.764 56.9879 167.833 57.0736 167.918 57.1405C168.003 57.2073 168.103 57.2536 168.209 57.2756H171.846C170.641 55.4043 169.484 53.5259 168.328 51.5986ZM166.842 49.3978C165.903 49.559 164.915 49.6712 163.975 49.7833V46.4752C164.879 46.4916 165.78 46.5665 166.674 46.6995C166.992 46.7244 167.288 46.8694 167.503 47.105C167.718 47.3407 167.835 47.6492 167.83 47.9681C167.865 48.2855 167.785 48.605 167.603 48.8677C167.422 49.1304 167.151 49.3187 166.842 49.3978Z"/>
  <path d="M90.7205 54.409C89.3187 51.0519 87.917 47.6877 86.5153 44.3305C86.4676 44.2163 86.3918 44.116 86.295 44.0388C86.1982 43.9616 86.0836 43.9101 85.9616 43.889C85.0224 43.8329 84.0342 43.889 83.095 43.889L77.425 57.3316H80.7261C80.8188 57.3074 80.9033 57.2589 80.9711 57.1912C81.0388 57.1234 81.0873 57.0389 81.1116 56.9462C81.3919 56.3364 81.6092 55.6776 81.8124 55.0678C81.8642 54.9631 81.9413 54.873 82.0368 54.8057C82.1323 54.7384 82.2431 54.696 82.3591 54.6824H86.7676C86.8811 54.7033 86.9888 54.7486 87.0832 54.8151C87.1776 54.8817 87.2564 54.9679 87.3143 55.0678C87.5946 55.6776 87.8119 56.3364 88.0922 56.9462C88.1413 57.1074 88.3095 57.3316 88.4216 57.3316H91.926C91.4914 56.2803 91.113 55.3552 90.7205 54.409ZM82.9548 51.9279L84.658 47.3583L86.312 51.9279H82.9548Z"/>
</svg>
