<svg xmlns="http://www.w3.org/2000/svg" focusable="false" role="img" viewBox="0 0 200 100" fill="currentColor">
  <path fill-rule="evenodd" d="M31.6 36.74C37.7 38.06 37.7 38.06 40.93 32.67C42.0695 33.7656 43.0795 34.988 44.082 36.2011C45.8245 38.3098 47.544 40.3906 49.88 41.73L50.6 41.37C50.1263 38.9656 49.6539 36.5458 49.1763 34.0994L49.1762 34.099L49.1762 34.0988C48.323 29.7283 47.4532 25.2731 46.53 20.67C46.9106 20.8779 47.2464 21.0572 47.5476 21.2181C48.1013 21.5137 48.5379 21.7469 48.92 21.98C51.5237 23.5224 52.8361 24.2998 53.833 24.0062C54.8464 23.7078 55.5338 22.3028 56.92 19.47C58.17 16.96 59.37 14.57 60.92 11.57C63.2 15.76 65.11 19.35 66.79 22.94C67.63 24.66 68.7 24.78 70.14 23.94C70.6689 23.6423 71.1987 23.3386 71.7518 23.0216L71.7532 23.0208C72.9463 22.337 74.2475 21.5911 75.88 20.71C75.4932 22.5507 75.1303 24.235 74.7802 25.8601C74.379 27.7224 73.9945 29.507 73.61 31.36C73.3987 32.3786 73.1873 33.3868 72.9762 34.3938L72.9759 34.3954L72.9745 34.4019L72.9744 34.4022C72.467 36.823 71.961 39.2367 71.46 41.77C73.49 41.29 89.53 15 90.73 10.53H0C5.18402 19.4396 10.3406 28.3092 15.4882 37.1634L15.4902 37.1669L15.4946 37.1744L15.4999 37.1834C25.5608 54.4889 35.5879 71.736 45.72 89.11C47.8425 85.5301 49.8483 82.0208 51.8701 78.4834C53.4966 75.6375 55.1336 72.7736 56.85 69.84C53.5426 70.5039 50.5034 71.0583 47.4283 71.6192L47.428 71.6193L47.4279 71.6193L47.4278 71.6193C45.501 71.9708 43.56 72.3248 41.53 72.71C41.9101 71.3428 42.3914 70.0058 42.97 68.71C44.05 66.44 43.65 64.88 41.65 63.21C39.7888 61.563 37.9395 59.9159 36.0902 58.2689C33.4484 55.9159 30.8065 53.563 28.13 51.21L26.21 49.29C30.88 48.21 30.88 48.21 29.68 43.91C28.97 41.41 28.25 38.78 27.53 35.91C28.8432 36.1931 29.8657 36.3958 30.8262 36.5862L30.8268 36.5863L30.8269 36.5863C31.0876 36.638 31.3438 36.6888 31.6 36.74ZM131.66 54.58C133.69 51.94 136.45 51.74 140.88 53.74C141.299 53.103 141.763 52.4696 142.245 51.8108L142.247 51.8087L142.247 51.8084C142.582 51.351 142.926 50.8814 143.27 50.39C139.08 46.32 131.78 46.68 127.47 51.11C122.8 56.01 122.8 65.11 127.59 69.78C129.746 71.8506 132.625 72.997 135.614 72.9745C138.603 72.9521 141.465 71.7627 143.59 69.66C143.03 68.58 142.31 67.5 141.59 66.43C136.69 68.82 133.93 68.7 131.78 66.07C130.593 64.3945 129.946 62.3968 129.925 60.3438C129.903 58.2907 130.509 56.2799 131.66 54.58ZM161.82 66.55L164 69.78C161.885 71.857 159.052 73.0406 156.088 73.0853C153.124 73.1299 150.257 72.0323 148.08 70.02C143.29 65.47 143.17 56.13 147.72 51.35C149.743 49.1664 152.537 47.8572 155.51 47.7003C158.482 47.5435 161.399 48.5514 163.64 50.51C163.22 51.05 162.83 51.5875 162.44 52.125C162.05 52.6625 161.66 53.2 161.24 53.74C156.58 51.83 153.82 52.18 151.91 54.82C150.805 56.5206 150.237 58.5143 150.28 60.5419C150.323 62.5696 150.974 64.5375 152.15 66.19C154.16 68.7 156.92 68.94 161.82 66.55ZM86.5153 50.696L86.66 50.51L86.3 50.24C85.1715 49.3038 83.8696 48.5992 82.4687 48.1664C81.0678 47.7335 79.5953 47.581 78.1354 47.7175C76.6755 47.8541 75.2568 48.2769 73.9604 48.962C72.664 49.647 71.5153 50.5808 70.58 51.71C66.19 56.61 66.67 66.19 71.58 70.5C75.88 74.33 83.31 73.97 87.02 69.78C86.3555 68.894 85.6909 67.9057 85.0264 66.9174L85.0263 66.9173L84.86 66.67C80.43 69.06 77.44 68.94 75.29 66.43C72.89 63.67 72.65 58.17 74.81 55.06C76.72 52.18 79.26 51.83 84.26 53.74C84.9386 52.722 85.7239 51.713 86.5152 50.696L86.5153 50.696ZM114.31 37.7H119.57V65.23C119.57 65.3156 119.57 65.4004 119.569 65.4842C119.563 66.8099 119.557 67.9028 121.25 68.58C121.868 68.889 122.037 70.347 122.179 71.5824L122.18 71.584C122.203 71.7874 122.226 71.9848 122.25 72.17C122.25 72.41 120.82 72.89 119.98 73.01C116.39 73.25 114.24 71.69 114.24 68.1C114.06 60.6525 114.082 53.1993 114.105 45.749V45.7483V45.7473C114.112 43.2645 114.12 40.7819 114.12 38.3C114.008 38.0756 114.062 38.0085 114.265 37.7554L114.31 37.7ZM103.53 68.7C107.96 68.82 110.47 70.38 111.07 73.25C111.79 76.6 109.64 80.07 105.8 81.59C102.125 83.1103 98.0707 83.4595 94.19 82.59C91.67 82.11 89.4 81.15 88.56 78.4C87.73 75.4 89.05 73.25 91.56 71.57C88.81 67.86 88.93 66.43 91.68 63.08C91.3948 62.3954 91.0761 61.7333 90.7634 61.0835C90.0347 59.5692 89.338 58.1214 89.17 56.61C88.45 51.94 92.4 47.88 97.55 47.76C100.509 47.76 103.415 47.9697 106.335 48.1805C107.787 48.2853 109.242 48.3903 110.71 48.47V52.18C110.555 52.1943 110.401 52.2085 110.249 52.2225C109.122 52.3268 108.115 52.42 107.48 52.42C107.48 53.1106 107.513 53.804 107.546 54.4906C107.621 56.071 107.695 57.6158 107.36 59.01C106.41 63.2 101.98 65.35 97.07 64.51C95.51 64.27 94.44 64.28 94.2 66.07C93.96 67.86 95.15 68.46 96.59 68.58C97.725 68.64 98.8925 68.64 100.06 68.64C101.228 68.64 102.395 68.64 103.53 68.7ZM102.63 56.49C102.69 53.5 101.14 51.71 98.63 51.59C96.11 51.47 94.44 53.26 94.25 56.28C94.13 59.01 96.05 61.28 98.44 61.28C100.83 61.28 102.57 59.48 102.63 56.49ZM93.75 77.8C95.9 80.43 103 79.95 105 77.2C106.29 75.52 105.81 74 103.51 73.36L95.51 73C94.5154 73.336 93.6767 74.0219 93.15 74.93C93.0317 75.423 93.0242 75.9361 93.1279 76.4324C93.2317 76.9286 93.4441 77.3957 93.75 77.8Z" clip-rule="evenodd"/>
</svg>
