<svg xmlns="http://www.w3.org/2000/svg" focusable="false" role="img" viewBox="0 0 200 100" fill="currentColor">
  <g clip-path="url(#clip0_102:123)">
    <path d="M35.7 16C43 16.1 49.8 17.8 55.9 22C62.3 26.2 66.9 32.7 68.6 40.1C72.3 54.6 66.6 69.9 54.3 78.4C44.5 85.3 33.8 86.5 22.6 82.4C15 79.7 8.70001 74.4 4.50001 67.6C0.600007 61.4 -0.899993 54.1 0.300007 46.9C1.10001 41 3.30001 35.4 6.70001 30.5C11.6 23.4 19.1 18.5 27.7 16.9C30.3 16.4 32.7 16.4 35.3 16.1L35.7 16ZM35.1 44.5C36 44.4 36.7 44.4 37.5 44.3C44.4 43.5 50.7 37.7 51 29.9C51 29.6 51.1 29.4 51.3 29.2C52.7 27.7 55 27.6 56.5 28.9C56.9 29.2 57.2 29.7 57.2 30.2C57.2 44.8 57.2 59.3 57.2 73.9V74.8C57.3 74.8 57.4 74.8 57.4 74.7C57.6 74.6 57.7 74.5 57.8 74.3C66.4 65.7 70 55.4 68.2 43.3C66.3 30.8 57.2 21.5 45.2 18.4C40.4 17.1 35.3 16.9 30.3 17.6C24 18.4 18 21.1 13.2 25.2C6.90001 30.6 3.30001 37.5 1.80001 45.6C1.00001 49.2 1.00001 52.9 1.60001 56.5C2.80001 63.3 6.20001 69.4 11.3 74.1C11.5 74.3 11.6 74.4 11.9 74.6V60C11.9 54 11.9 48 11.9 42C11.9 41.5 12.1 41.1 12.5 40.9C13.6 40 15.2 40 16.3 40.9C16.7 41.1 16.9 41.6 16.9 42C16.9 43.3 17.3 44.6 18 45.7C20.1 49.3 23.5 51 27.4 51.8C28.5 52 29.7 52 30.9 52.2V75.8L35.1 75.4V44.5ZM36.1 45.5V48.1C36.1 57 36.1 65.8 36.1 74.7C36.1 75.3 36.2 75.5 36.9 75.6C37.7 75.7 38.5 76 39.3 76.2C42 77.2 44.5 78.7 46.6 80.7C46.8 81 47.3 81.1 47.6 80.9C48.6 80.4 49.6 79.9 50.5 79.5C50.8 79.4 51 79 51 78.7V36.1C51 35.9 51 35.8 50.9 35.6C47.9 41.9 43 45.1 36.1 45.5ZM16.9 46.2C16.9 46.3 16.8 46.4 16.8 46.6C16.8 57.1 16.8 67.5 16.8 78C16.8 78.3 17 78.6 17.3 78.7C18.6 79.4 19.9 80 21.1 80.7C21.4 80.9 21.9 80.9 22.2 80.5C24.2 78.7 26.5 77.2 29 76.3C29.5 76.2 29.8 75.7 29.7 75.2C29.7 68.1 29.7 60.9 29.7 53.8C29.7 53.6 29.7 53.3 29.7 53.1C22.4 51.9 20.4 50.9 16.9 46.2ZM52 78.8C53.2 77.9 54.2 77.1 55.3 76.4C55.8 76.1 56 75.5 56 75C56 60.3 56 45.6 56 30.9C56.1 30 55.5 29.1 54.5 29C54.4 29 54.4 29 54.3 29C52.8 28.8 52 29.5 52 31V77.7V78.8ZM45.7 81.8C42.2 78.6 38.4 76.6 33.7 76.7C29.6 76.8 26.1 78.6 23 81.5C30.3 84.3 38.4 84.4 45.7 81.8ZM15.7 77.7C15.7 77.4 15.7 77.3 15.7 77.1C15.7 65.5 15.7 53.9 15.7 42.4C15.7 41.7 15.2 41.3 14.4 41.3C13.6 41.3 13 41.7 13 42.4C13 45 13 47.7 13 50.4C13 58.6 13 66.8 13 75C13 75.3 13.1 75.7 13.3 75.9C14.1 76.5 14.8 77 15.7 77.7Z"/>
  </g>
  <defs>
    <clipPath id="clip0_102:123">
      <rect width="200" height="100"/>
    </clipPath>
  </defs>
</svg>
