<svg xmlns="http://www.w3.org/2000/svg" focusable="false" role="img" viewBox="0 0 200 100" fill="currentColor">
  <path fill-rule="evenodd" d="M40.8252 18.4695C40.8765 18.4695 40.9526 18.4942 41.0316 18.5198C41.1169 18.5475 41.2056 18.5763 41.2703 18.5763H41.3772C41.8297 18.5763 42.2721 18.4421 42.6484 18.1907C43.0247 17.9393 43.318 17.5819 43.4912 17.1638C43.6643 16.7457 43.7097 16.2856 43.6214 15.8418C43.5331 15.3979 43.3152 14.9902 42.9951 14.6702C42.6751 14.3502 42.2674 14.1323 41.8236 14.044C41.3797 13.9557 40.9196 14.001 40.5015 14.1742C40.0834 14.3474 39.7261 14.6406 39.4746 15.0169C39.2232 15.3932 39.089 15.8356 39.089 16.2882C39.1132 16.7879 39.2938 17.2673 39.6054 17.6588C39.9169 18.0502 40.3436 18.3338 40.8252 18.4695ZM45.811 21.8172C45.3837 20.8467 44.9563 19.8673 44.6269 18.8969C44.5074 18.5894 44.4949 18.2507 44.5913 17.9353C44.6907 18.0348 44.767 18.1381 44.8436 18.2417C44.9314 18.3606 45.0195 18.4799 45.1433 18.5942C45.522 19.0767 45.8645 19.5804 46.213 20.0929L46.2131 20.0931L46.2137 20.0939L46.2139 20.0943L46.2144 20.095L46.2146 20.0953C46.4636 20.4615 46.7157 20.8322 46.9863 21.2029C47.288 21.6806 47.5738 22.1453 47.8577 22.6069L47.8577 22.607L47.8578 22.6071L47.8578 22.6071L47.858 22.6073L47.8581 22.6075L47.8582 22.6077C48.2778 23.29 48.6932 23.9655 49.1498 24.6663C49.9155 25.8415 50.5654 27.0346 51.2154 28.2276L52.1859 30.0706C52.4332 30.4524 52.6534 30.851 52.8447 31.2637C53.164 31.0106 53.5301 30.8231 53.922 30.7117C54.2601 30.602 54.5654 30.4619 54.8716 30.3213L54.8716 30.3213L54.8717 30.3213L54.8717 30.3213L54.8717 30.3213L54.8718 30.3213L54.8718 30.3213L54.8718 30.3212L54.8719 30.3212L54.8719 30.3212L54.8719 30.3212L54.872 30.3212L54.872 30.3212L54.8721 30.3212L54.8721 30.3212L54.8721 30.3211L54.8722 30.3211L54.8722 30.3211L54.8722 30.3211C55.1624 30.1879 55.4534 30.0543 55.7739 29.946L55.9515 29.8771L55.9516 29.8771C57.1906 29.3965 58.3259 28.9561 59.5668 28.5482C58.8934 29.0835 58.1824 29.5368 57.4804 29.9843L57.4803 29.9844L57.4803 29.9844C57.0499 30.2587 56.623 30.5309 56.2102 30.8185C55.6434 31.2227 55.0483 31.5858 54.4295 31.9047C54.1553 32.0684 53.8568 32.2299 53.5604 32.3902L53.5601 32.3904L53.56 32.3905L53.5599 32.3905C53.2599 32.5528 52.962 32.714 52.6934 32.8752L52.0345 33.2135L51.6071 32.5547C51.1651 32.0339 50.7856 31.4632 50.4764 30.8541L49.4881 29.0734L47.5383 25.5121C47.3188 25.0219 47.0798 24.5332 46.8367 24.0362L46.8366 24.036C46.488 23.3233 46.131 22.5934 45.811 21.8172ZM76.412 55.1337C77.5071 51.5723 78.5933 47.8596 79.5638 44.4496L80.4541 41.4046L78.718 41.9477C75.8956 42.7134 72.9664 43.5771 70.144 44.4496C69.2989 44.6783 68.4992 44.9071 67.6768 45.1423L67.676 45.1425L67.6729 45.1434C67.3442 45.2374 67.0119 45.3325 66.6717 45.429L64.3835 38.3775L63.3062 39.9C62.2004 41.3795 61.126 42.8991 60.0474 44.4247L60.0473 44.4248L60.0473 44.4249L60.0472 44.425L60.0471 44.4251L60.0471 44.4252L60.047 44.4253L60.0469 44.4254L60.0469 44.4255L60.0468 44.4256L60.0467 44.4257L60.0467 44.4257L60.0455 44.4273L60.0444 44.4289C59.2222 45.5918 58.3976 46.7583 57.5546 47.913L57.6554 47.1298L57.6555 47.1291C57.9466 44.864 58.258 42.4415 58.6408 40.1047C58.6939 39.5692 58.7757 39.0315 58.8575 38.4927C58.9404 37.9476 59.0234 37.4013 59.0771 36.855C59.2001 35.8985 59.3231 34.9093 59.447 33.9119L59.4471 33.9113L59.4472 33.9109L59.4473 33.9099L59.4475 33.9086L59.4476 33.9074C59.6466 32.3067 59.8482 30.6852 60.0565 29.1447C60.0565 29.1447 58.6408 34.2552 58.2135 36.7393C58.1842 36.8892 58.1546 37.0389 58.1251 37.1885L58.1248 37.1899C57.9386 38.1326 57.7536 39.0685 57.6615 39.9979C57.0204 43.6928 56.3616 47.3788 55.7116 50.9669L55.1685 54.0831L57.1184 51.412C59.3887 48.376 61.6769 45.3399 63.8404 42.5087L65.6211 47.9397L66.6005 47.7082C67.3038 47.4946 68.0094 47.3054 68.715 47.1162L68.7152 47.1161C69.4207 46.9269 70.1263 46.7378 70.8296 46.5241C71.9692 46.1947 73.1356 45.8697 74.3019 45.5447C75.4682 45.2197 76.6346 44.8948 77.7742 44.5653V44.779C77.2808 46.5899 76.7574 48.4675 76.2333 50.3475C75.7268 52.1648 75.2196 53.9844 74.7382 55.748L74.5156 56.6383L80.0535 58.419L70.3488 65.8801L64.9622 70.216C63.0124 71.8453 59.7449 74.8903 59.7449 74.8903C61.5968 73.6972 63.4398 72.3884 65.5054 70.866L71.1946 66.9128C74.5779 64.5 78.3173 61.829 82.5108 58.7752L83.9087 57.8047L76.412 55.1337ZM174.937 36.3653V37.8878H178.409V39.4014H174.937V49.5958H173.21V39.4014H171.687V37.9946H173.21V36.6858C173.177 36.1929 173.242 35.6984 173.401 35.2306C173.559 34.7628 173.809 34.3309 174.135 33.9596C174.46 33.5882 174.856 33.2848 175.299 33.0667C175.743 32.8485 176.225 32.7199 176.718 32.6882C176.815 32.6793 176.914 32.6793 177.011 32.6882C177.945 32.7157 178.849 33.0262 179.602 33.5786L178.854 34.9942C178.331 34.5755 177.682 34.3464 177.011 34.3443C176.764 34.3184 176.514 34.3417 176.276 34.4128C176.037 34.484 175.815 34.6015 175.622 34.7587C175.43 34.9159 175.27 35.1097 175.152 35.3289C175.035 35.5481 174.961 35.7883 174.937 36.0359C174.93 36.1456 174.93 36.2556 174.937 36.3653ZM110.815 38.7603L112.88 36.1516C111.218 34.5429 109.005 33.629 106.692 33.5964C106.189 33.5475 105.682 33.5475 105.179 33.5964C104.12 33.6887 103.089 33.9888 102.145 34.4796C101.202 34.9703 100.365 35.642 99.681 36.4563C98.9973 37.2707 98.4806 38.2117 98.1606 39.2258C97.8405 40.2398 97.7234 41.3069 97.8157 42.3662C97.9081 43.4255 98.2082 44.4562 98.6989 45.3996C99.1896 46.3429 99.8614 47.1803 100.676 47.864C101.49 48.5478 102.431 49.0644 103.445 49.3844C104.459 49.7045 105.526 49.8217 106.586 49.7293C109.003 49.6479 111.296 48.6369 112.987 46.9069L110.815 44.6277C109.721 45.7389 108.25 46.3997 106.692 46.4796C105.394 46.4796 104.148 45.9636 103.23 45.0453C102.311 44.127 101.796 42.8814 101.796 41.5827C101.796 40.284 102.311 39.0384 103.23 38.1201C104.148 37.2018 105.394 36.6858 106.692 36.6858C107.487 36.72 108.266 36.9226 108.976 37.2803C109.687 37.6379 110.314 38.1424 110.815 38.7603ZM130.887 44.7161C131.31 43.7219 131.533 42.6541 131.542 41.5738C131.542 37.0242 127.874 33.5607 122.977 33.5607C118.08 33.5607 114.394 36.8995 114.394 41.5738C114.394 46.2481 118.08 49.7115 122.977 49.7115H123.235C124.315 49.7244 125.387 49.524 126.39 49.1217C127.393 48.7194 128.306 48.1232 129.078 47.3671C129.849 46.6111 130.464 45.7102 130.887 44.7161ZM119.61 45.0765C118.693 44.1416 118.182 42.8831 118.187 41.5738C118.177 40.2616 118.688 38.9991 119.608 38.0629C120.527 37.1267 121.78 36.5931 123.092 36.579C123.733 36.594 124.364 36.7352 124.95 36.9945C125.535 37.2538 126.064 37.6261 126.506 38.09C126.948 38.554 127.293 39.1005 127.523 39.6983C127.754 40.2961 127.863 40.9335 127.847 41.5738C127.851 41.6539 127.851 41.7341 127.847 41.8142C127.845 43.076 127.342 44.2852 126.449 45.1766C125.556 46.068 124.345 46.5686 123.084 46.5686C121.774 46.5475 120.526 46.0114 119.61 45.0765ZM140.766 33.6498C145.752 33.6498 149.099 36.9084 149.099 41.5738C149.099 46.2392 145.627 49.4889 140.632 49.4889H134.008V33.6498H140.766ZM137.525 46.5686H140.766C141.365 46.584 141.962 46.481 142.521 46.2654C143.081 46.0499 143.592 45.7261 144.027 45.3126C144.461 44.8991 144.809 44.4039 145.052 43.8556C145.294 43.3072 145.426 42.7164 145.44 42.1169C145.449 41.9716 145.449 41.8259 145.44 41.6806C145.503 40.4199 145.063 39.1857 144.217 38.2491C143.37 37.3126 142.187 36.7503 140.926 36.6858H137.525V46.5686ZM155.082 40.0513V36.579H163.656V33.6498H151.503V49.4711H163.879V46.5419H155.082V42.9805H162.784V40.0513H155.082ZM189.086 47.7025C190.247 46.617 190.937 45.1202 191.007 43.5325C191.016 43.3545 191.016 43.1319 191.007 42.9894C190.937 41.4018 190.247 39.905 189.086 38.8194C187.925 37.7339 186.386 37.146 184.797 37.1815C183.208 37.217 181.696 37.8731 180.585 39.0094C179.474 40.1456 178.852 41.6717 178.852 43.261C178.852 44.8503 179.474 46.3764 180.585 47.5126C181.696 48.6489 183.208 49.305 184.797 49.3405C186.386 49.376 187.925 48.788 189.086 47.7025ZM181.375 45.9175C180.884 45.217 180.612 44.3874 180.59 43.5325C180.582 43.4348 180.582 43.3365 180.59 43.2387C180.601 42.6806 180.721 42.1301 180.945 41.6187C181.169 41.1073 181.492 40.6452 181.895 40.2588C182.297 39.8725 182.773 39.5695 183.293 39.3674C183.813 39.1652 184.368 39.0679 184.926 39.0809C185.782 39.0794 186.618 39.3302 187.331 39.802C188.044 40.2738 188.603 40.9456 188.936 41.7331C189.269 42.5207 189.362 43.389 189.204 44.2293C189.046 45.0697 188.643 45.8447 188.047 46.4572C187.45 47.0698 186.686 47.4927 185.85 47.6729C185.014 47.8532 184.143 47.7828 183.347 47.4705C182.551 47.1582 181.865 46.618 181.375 45.9175ZM195.459 40.265C195.82 39.4357 196.425 38.7359 197.193 38.2587C197.961 37.7816 198.856 37.5497 199.76 37.594V39.437C199.228 39.4007 198.695 39.4696 198.19 39.6398C197.685 39.81 197.218 40.0781 196.817 40.4287C196.416 40.7794 196.088 41.2057 195.852 41.6833C195.616 42.1609 195.476 42.6804 195.441 43.212C195.437 43.2594 195.437 43.3071 195.441 43.3545V49.7471H193.705V37.5584H195.441L195.459 40.265ZM110.815 62.3009L112.88 59.6922C111.214 58.0933 109.002 57.1891 106.692 57.1636H106.078C105.008 57.1856 103.953 57.4196 102.974 57.852C101.995 58.2844 101.112 58.9067 100.375 59.6828C99.6383 60.4589 99.0627 61.3735 98.6817 62.3735C98.3006 63.3735 98.1217 64.4392 98.1553 65.5089C98.1888 66.5785 98.4342 67.6309 98.8771 68.6051C99.3201 69.5793 99.9519 70.4559 100.736 71.1843C101.52 71.9127 102.441 72.4784 103.445 72.8486C104.449 73.2188 105.516 73.3862 106.586 73.3411C109.003 73.2667 111.298 72.2582 112.987 70.5276L110.815 68.1415C109.723 69.262 108.254 69.9377 106.692 70.0379C105.394 70.0379 104.148 69.522 103.23 68.6037C102.312 67.6853 101.796 66.4398 101.796 65.1411C101.796 63.8424 102.312 62.5968 103.23 61.6785C104.148 60.7601 105.394 60.2442 106.692 60.2442C107.486 60.2762 108.264 60.4761 108.974 60.8306C109.685 61.1851 110.312 61.6862 110.815 62.3009ZM117.973 70.0023L116.682 73.1541H112.987L119.923 57.1903H123.591L130.438 73.1541H126.636L125.327 70.0023H117.973ZM121.668 60.8853L119.166 67.1176H124.161L121.668 60.8853ZM135.557 62.9508L143.259 73.1541H146.41V57.1903H143.036V67.3936L135.344 57.1903H132.076V73.1541H135.557V62.9508ZM153.239 70.0023L151.939 73.1541H148.253L155.189 57.1903H158.884L165.722 73.1541H161.813L160.487 70.0023H153.239ZM156.925 60.8853L154.432 67.1176H159.427L156.925 60.8853ZM182.407 65.1233C182.407 60.4579 179.068 57.1903 174.082 57.1903H167.351V73.0473H173.94C178.935 73.0473 182.407 69.7886 182.407 65.1233ZM174.171 70.1092H170.913V60.2353H174.314C174.939 60.265 175.552 60.4175 176.118 60.6842C176.684 60.9508 177.192 61.3264 177.613 61.7894C178.033 62.2524 178.359 62.7938 178.57 63.3827C178.782 63.9715 178.875 64.5962 178.846 65.2212V65.6575C178.815 66.8674 178.306 68.0158 177.429 68.8505C176.553 69.6851 175.381 70.1379 174.171 70.1092ZM187.526 70.0023L186.235 73.1541H182.54L189.485 57.1903H193.171L200 73.1541H196.189L194.898 70.0023H187.526ZM191.328 60.8853L188.826 67.1176H193.812L191.328 60.8853ZM60.8983 79.9817C61.0172 80.2465 61.1339 80.5062 61.2317 80.7487C61.3434 81.028 61.4868 81.339 61.6313 81.6523L61.6313 81.6525L61.6314 81.6526C61.7632 81.9385 61.8959 82.2262 62.0063 82.4938L62.4426 83.58L61.2495 83.4731C60.4925 83.3486 59.733 83.2601 58.9736 83.1717C58.3218 83.0957 57.6702 83.0198 57.0204 82.9211L54.848 82.6006C54.5993 82.5603 54.338 82.52 54.0735 82.4792L54.0731 82.4791L54.0723 82.479L54.0721 82.4789C53.6363 82.4117 53.1922 82.3432 52.7824 82.2712C51.5396 82.0602 50.3106 81.7805 49.0712 81.4985L48.7559 81.4268L48.5533 81.3808C47.4194 81.1441 46.2989 80.8468 45.1967 80.4905C44.8881 80.4695 44.5861 80.3909 44.3064 80.259H45.0721C46.2473 80.259 47.4404 80.259 48.6334 80.3659C49.5418 80.3659 50.4576 80.4636 51.3736 80.5614L51.3738 80.5614C51.8674 80.6141 52.3611 80.6668 52.8536 80.7042C53.5791 80.7215 54.3023 80.793 55.0172 80.9179L57.1985 81.2651C57.7676 81.3817 58.3049 81.4666 58.8437 81.5517L58.8443 81.5518L58.8444 81.5518C59.3338 81.6291 59.8245 81.7065 60.3414 81.8082C60.2874 81.7003 60.2607 81.5923 60.2337 81.4832C60.2073 81.3763 60.1806 81.2684 60.1277 81.1583C59.878 80.5563 59.6929 79.9296 59.5757 79.2886L59.5611 79.234L59.5611 79.2338C59.2195 77.9551 58.9048 76.7772 58.6853 75.4868C59.35 76.6095 59.9446 77.7721 60.466 78.968C60.5908 79.2975 60.7464 79.6438 60.8983 79.9817ZM29.4661 29.5274C29.4923 29.4205 29.519 29.3114 29.5713 29.1981C30.0153 29.2533 30.4533 29.3486 30.8801 29.483C31.4938 29.5069 32.1083 29.4681 32.7142 29.3672C33.3532 29.289 33.9754 29.1087 34.5572 28.833C35.195 28.5057 35.7925 28.1053 36.3379 27.64C36.8992 27.1506 37.3773 26.5733 37.7535 25.9305C38.1817 25.3545 38.5459 24.7335 38.8397 24.0786C38.8982 23.9031 38.9888 23.7249 39.0792 23.5469L39.0793 23.5468C39.1539 23.3999 39.2285 23.2531 39.2849 23.1082L39.6054 22.1288C39.7113 21.8596 39.791 21.5619 39.8704 21.2651C39.9513 20.9631 40.0319 20.662 40.1396 20.3926C40.2554 20.4995 40.2554 20.4995 40.3622 20.4995C40.4893 20.5799 40.6401 20.6145 40.7896 20.5974C40.6915 21.2212 40.5487 21.8371 40.3622 22.4404L40.0328 23.4198L39.7479 24.4348C39.4695 25.1263 39.1453 25.7985 38.7774 26.4469C38.3419 27.1254 37.8694 27.7793 37.3618 28.4057C36.7909 29.043 36.1312 29.5948 35.403 30.0439C34.7277 30.5046 33.9582 30.8088 33.1504 30.9342C32.0281 31.1402 30.8723 31.0669 29.785 30.7206C29.6344 30.4827 29.455 30.2644 29.2508 30.0706C29.2508 30.0325 29.2508 30.0216 29.2556 30.0136C29.2576 30.0104 29.2603 30.0077 29.2641 30.0038C29.2775 29.9905 29.3042 29.9638 29.3576 29.8569C29.4121 29.7479 29.4388 29.6388 29.4661 29.5274ZM22.9294 44.503C23.7244 45.9919 24.5951 47.4391 25.5381 48.8389L27.1852 51.1449C27.5061 51.5135 27.7974 51.8842 28.088 52.254L28.088 52.2541C28.394 52.6434 28.6992 53.0317 29.0371 53.4153C29.1965 53.5962 29.3553 53.7787 29.5138 53.9607L29.5139 53.9608L29.514 53.961L29.514 53.961L29.514 53.961L29.5141 53.961L29.5141 53.961L29.5141 53.9611L29.5141 53.9611L29.5141 53.9611L29.5141 53.9611L29.5142 53.9612L29.5142 53.9612L29.5142 53.9612L29.5142 53.9612C30.0107 54.5315 30.5033 55.0973 30.9958 55.5966C31.6123 56.3362 32.2882 57.0241 33.0169 57.6533L33.9963 58.6238C34.1614 58.7935 34.3266 58.9349 34.4941 59.0783L34.4942 59.0784L34.4942 59.0784L34.4943 59.0785L34.4943 59.0785L34.4944 59.0786L34.4944 59.0786L34.4947 59.0788C34.6522 59.2136 34.8118 59.3503 34.9757 59.5141C35.5676 60.0586 36.2221 60.5308 36.9255 60.9208C37.111 61.108 37.332 61.2563 37.5754 61.3571C37.6313 61.2453 37.7165 61.1311 37.8016 61.0169L37.8016 61.0169L37.8016 61.0169L37.8016 61.0168L37.8017 61.0168L37.8017 61.0168L37.8017 61.0167L37.8017 61.0167L37.8018 61.0166L37.8018 61.0166L37.8018 61.0166L37.8018 61.0165L37.8018 61.0165L37.8019 61.0165L37.8019 61.0164L37.8019 61.0164C37.8793 60.9126 37.9566 60.8089 38.0117 60.7072L37.4686 60.173C37.094 59.8659 36.7151 59.4614 36.3408 59.0617L36.3407 59.0617L36.3407 59.0616L36.3406 59.0616L36.3406 59.0615L36.3405 59.0615L36.3405 59.0614L36.3404 59.0613L36.3403 59.0613L36.3403 59.0612L36.3402 59.0612L36.3395 59.0604L36.3385 59.0593C36.1709 58.8804 36.0043 58.7025 35.8393 58.5347L33.9963 56.6917L33.0169 55.7213C32.8581 55.5582 32.7013 55.3744 32.5457 55.1918L32.5456 55.1918C32.3784 54.9957 32.2124 54.801 32.0464 54.6351C31.3834 53.9476 30.7789 53.206 30.239 52.4181C29.6013 51.7345 29.0066 51.0119 28.4584 50.2546C28.4584 50.2546 27.2742 48.7321 26.6154 47.9842C26.2443 47.5631 25.9496 47.1673 25.6642 46.7843C25.4429 46.4871 25.2272 46.1976 24.986 45.9097C24.5615 45.403 24.2106 44.9067 23.893 44.4575C23.7977 44.3227 23.7053 44.1921 23.6149 44.0667C23.431 43.882 23.2831 43.6646 23.1787 43.4257C22.963 43.6297 22.6998 43.7767 22.413 43.8531C22.4989 43.9467 22.5676 44.0456 22.6358 44.1435C22.7231 44.269 22.8094 44.393 22.9294 44.503ZM28.2447 34.2018C28.4259 34.3869 28.5709 34.6043 28.672 34.8428C28.8878 35.2561 29.1443 35.6468 29.4377 36.0092L30.0966 37.1666L30.4171 38.7603C30.4727 39.094 30.4994 39.459 30.5272 39.8404L30.5272 39.8404V39.8405C30.5529 40.1917 30.5796 40.5567 30.6308 40.9238V43.0963C30.613 43.7834 30.5415 44.4681 30.4171 45.1441C30.1961 46.7634 29.5579 48.2974 28.5652 49.5957C29.1172 47.1117 29.4377 43.3189 28.7878 36.8016C28.6998 36.1022 28.5539 35.4113 28.3515 34.736C28.3515 34.6292 28.3248 34.549 28.2981 34.4689C28.2714 34.3888 28.2447 34.3086 28.2447 34.2018ZM6.43136 47.1117C6.38639 46.9327 6.35073 46.7514 6.32452 46.5686C6.2711 46.5686 6.21768 46.5953 6.16426 46.622C6.11084 46.6487 6.05742 46.6754 6.004 46.6754C5.94454 46.6654 5.88353 46.6698 5.82617 46.6884C5.76881 46.707 5.7168 46.7392 5.67457 46.7823C5.65558 46.9359 5.6936 47.0911 5.78141 47.2186C5.98461 48.6548 6.02344 50.1095 5.89716 51.5545C5.80902 52.962 5.43648 54.3371 4.80204 55.5966L4.6952 55.7035L5.02463 56.024L5.45199 56.4603C5.56551 56.3385 5.64262 56.1874 5.67457 56.024C6.34967 54.6349 6.71713 53.1164 6.75188 51.5723C6.85642 50.0778 6.74851 48.576 6.43136 47.1117ZM9.08457 44.7167L8.87089 44.503C8.89287 44.4654 8.90709 44.4133 8.92216 44.3582L8.92216 44.3582L8.92216 44.3581C8.94982 44.2569 8.98031 44.1453 9.06677 44.0935C9.72941 44.2253 10.3812 44.4069 11.0166 44.6366C11.2959 44.6906 11.5706 44.772 11.8443 44.8531L11.8443 44.8531L11.8444 44.8531L11.8444 44.8531C12.1115 44.9323 12.3777 45.0112 12.6459 45.0639C13.211 45.2381 13.793 45.3515 14.3821 45.4023C14.9777 45.4224 15.5739 45.3866 16.1628 45.2954C16.6912 45.2607 17.2052 45.1087 17.6674 44.8502C18.1147 44.6265 18.5187 44.325 18.8605 43.9599L19.0831 43.7462C19.1647 43.787 19.2307 43.8278 19.2871 43.8627C19.3784 43.9191 19.4444 43.9599 19.5104 43.9599C19.5539 44.0012 19.606 44.0323 19.663 44.0508C19.72 44.0693 19.7805 44.0747 19.8399 44.0667C19.7894 44.1172 19.7389 44.1936 19.6875 44.2713L19.6875 44.2713C19.6301 44.3581 19.5715 44.4467 19.5104 44.503L18.8605 45.1619C18.7537 45.2687 18.6201 45.3488 18.4866 45.429L18.4866 45.429C18.353 45.5091 18.2194 45.5892 18.1126 45.6961C17.5835 46.0515 16.9957 46.3107 16.3764 46.4618C15.7291 46.5774 15.0747 46.6488 14.4177 46.6754C13.2529 46.6756 12.0905 46.5683 10.9454 46.3549L10.2954 45.6961C9.97612 45.5087 9.67766 45.2878 9.4051 45.0372L9.08457 44.7167ZM37.1268 67.9675L37.1267 67.9677C36.5778 68.5884 35.9835 69.2606 35.4297 70.0023C35.2098 70.3368 34.9569 70.6736 34.7049 71.0091C34.4672 71.3256 34.2304 71.641 34.023 71.9522C33.5518 72.6297 33.0436 73.2806 32.5005 73.902C32.3831 74.0879 32.2656 74.2362 32.1452 74.3882C32.0466 74.5128 31.9459 74.6399 31.8416 74.7923L27.3009 72.0768L25.5202 71.0974C25.6572 71.7009 25.7465 72.3141 25.7873 72.9315L26.4373 73.3678L30.7554 76.0744C30.2508 76.6388 29.781 77.2335 29.3487 77.8551C29.1709 78.0616 28.995 78.2588 28.8236 78.4509L28.8235 78.451L28.8233 78.4512C28.4626 78.8556 28.1219 79.2375 27.8262 79.6358C27.39 80.2234 26.9359 80.6686 26.4195 81.1494C26.4195 81.1634 26.4167 81.1773 26.4113 81.1902C26.406 81.2032 26.3981 81.215 26.3882 81.2249C26.3783 81.2348 26.3665 81.2427 26.3535 81.2481C26.3406 81.2534 26.3267 81.2562 26.3126 81.2562C26.357 81.2943 26.3992 81.347 26.4447 81.404C26.527 81.5069 26.6203 81.6237 26.7578 81.6925L26.8647 81.5856C27.9706 80.6326 29.02 79.6159 30.0075 78.5407C30.1985 78.3529 30.3905 78.1497 30.5891 77.9396C30.9553 77.552 31.3437 77.141 31.7882 76.76C32.2725 77.0646 32.7557 77.3765 33.2387 77.6882L33.239 77.6884L33.2393 77.6886L33.2397 77.6888L33.24 77.689L33.2404 77.6893L33.2407 77.6895L33.2411 77.6897L33.2414 77.6899L33.2417 77.6901L33.2421 77.6903L33.2424 77.6906C34.1699 78.2892 35.0961 78.887 36.0262 79.431L36.1331 79.5468C34.7691 79.6311 33.4206 79.8823 32.1177 80.2946C30.575 80.7291 29.0827 81.326 27.666 82.0753C27.6098 82.1045 27.5609 82.1332 27.5158 82.1597C27.382 82.2382 27.2803 82.2979 27.1139 82.2979C27.1693 82.4132 27.227 82.4974 27.2846 82.5815C27.3383 82.6598 27.3919 82.738 27.4434 82.841C27.5523 82.7887 27.6336 82.762 27.7132 82.7358C27.7962 82.7085 27.8774 82.6819 27.9865 82.6273C29.4398 82.093 30.9269 81.6557 32.4382 81.3185C33.1687 81.0952 33.9269 80.9754 34.6907 80.9624C35.45 80.8733 36.2146 80.8376 36.9789 80.8556H37.1926C37.3727 80.0991 37.7366 79.3988 38.2521 78.8167C38.0605 78.672 37.8655 78.5497 37.6724 78.4286L37.672 78.4284L37.6714 78.428L37.6713 78.428L37.6713 78.4279L37.6712 78.4279L37.6712 78.4278L37.6711 78.4278L37.6711 78.4277C37.4248 78.2733 37.1815 78.1208 36.9522 77.9263C36.2181 77.4236 35.4614 76.9691 34.6995 76.5115L34.6995 76.5115L34.6995 76.5115L34.6994 76.5115L34.6994 76.5114L34.6994 76.5114L34.6993 76.5114L34.6993 76.5114L34.6993 76.5113L34.6992 76.5113L34.6992 76.5113L34.6992 76.5113C34.112 76.1586 33.5219 75.8042 32.9368 75.4245C33.153 75.2364 33.3365 75.0138 33.4799 74.7656C34.023 74.1246 34.664 73.4746 35.2605 72.9226C35.5858 72.6216 35.8766 72.2651 36.1634 71.9135L36.1634 71.9135L36.1635 71.9134C36.4026 71.6203 36.6389 71.3306 36.8899 71.0796C37.3762 70.4991 37.8309 69.8928 38.2521 69.2633C38.447 68.9513 38.6642 68.6538 38.902 68.373C39.0133 68.2061 39.0956 68.0682 39.1815 67.9241L39.1816 67.924C39.2608 67.7913 39.3431 67.6533 39.454 67.4827L39.5609 67.3669C39.1565 67.1816 38.7886 66.9253 38.4747 66.6101C38.3375 66.5662 38.2849 66.5494 38.2647 66.5679C38.2521 66.5795 38.2521 66.6047 38.2521 66.6457C37.9272 67.0624 37.5399 67.5004 37.1268 67.9675ZM21.3534 68.7558C21.3801 68.836 21.4068 68.9161 21.4068 69.0229C21.4241 69.2647 21.4538 69.5054 21.4959 69.7441C21.4959 69.7975 21.5226 69.8777 21.5493 69.9578C21.576 70.0379 21.6027 70.1181 21.6027 70.1715L21.4968 70.1021L21.4966 70.102C20.0297 69.1414 18.4305 68.0942 16.8483 67.2423C16.0092 66.7905 15.1678 66.2885 14.3252 65.7859C13.5405 65.3179 12.7549 64.8492 11.9692 64.4199L7.09019 61.7489L5.67455 61.0811C5.79875 60.8354 5.90874 60.5827 6.00398 60.3243L7.41071 60.9387L12.4055 63.6097C13.6869 64.224 14.9145 64.9069 16.1281 65.582C16.5503 65.8169 16.9709 66.0509 17.3914 66.2807C18.7333 66.9454 20.0381 67.6825 21.3 68.4887C21.3 68.5956 21.3267 68.6757 21.3534 68.7558ZM20.5788 42.2237C20.3944 42.2366 20.2099 42.1997 20.0446 42.1169C19.6265 41.9589 19.2685 41.6737 19.021 41.3016C18.7734 40.9295 18.6488 40.4891 18.6646 40.0424C18.6618 39.4294 18.8968 38.8391 19.3202 38.3958C19.7436 37.9524 20.3224 37.6905 20.935 37.6652H21.0151C21.3086 37.671 21.5981 37.7345 21.867 37.8522C22.1359 37.9699 22.379 38.1394 22.5824 38.3511C22.7858 38.5628 22.9455 38.8124 23.0524 39.0858C23.1593 39.3592 23.2112 39.651 23.2053 39.9445C23.1954 40.3067 23.1028 40.6619 22.9346 40.9828C22.7664 41.3038 22.5271 41.5821 22.2349 41.7964C22.1688 41.8624 22.1028 41.8876 22.0115 41.9225C21.9551 41.944 21.8891 41.9692 21.8075 42.01C21.5238 42.1278 21.2234 42.1999 20.9172 42.2237H20.5788ZM3.71583 57.315C3.50447 57.0986 3.25058 56.9284 2.97016 56.815C2.68974 56.7016 2.38887 56.6475 2.08651 56.6561C1.51679 56.7065 0.986597 56.9685 0.600398 57.3904C0.2142 57.8122 0 58.3635 0 58.9354C0 59.5074 0.2142 60.0586 0.600398 60.4804C0.986597 60.9023 1.51679 61.1643 2.08651 61.2147C2.43568 61.238 2.78476 61.1678 3.09776 61.0113C3.41077 60.8548 3.67637 60.6177 3.86719 60.3243C4.08168 60.0655 4.23397 59.7609 4.31236 59.434C4.31236 59.3282 4.33853 59.2487 4.36496 59.1683C4.39194 59.0862 4.4192 59.0033 4.4192 58.8909C4.39358 58.5561 4.32166 58.2265 4.20552 57.9115C4.0771 57.6865 3.91154 57.4848 3.71583 57.315ZM39.9615 79.6625C40.3157 79.4396 40.7273 79.3251 41.1457 79.3331C41.6002 79.3316 42.0448 79.466 42.4223 79.7191C42.7999 79.9722 43.0931 80.3324 43.2644 80.7534C43.4357 81.1744 43.4772 81.6371 43.3836 82.0818C43.2899 82.5266 43.0655 82.9333 42.739 83.2495C42.4125 83.5657 41.9989 83.7771 41.5514 83.8565C41.1038 83.936 40.6428 83.8797 40.2274 83.6951C39.8121 83.5105 39.4614 83.2059 39.2205 82.8205C38.9795 82.4351 38.8593 81.9865 38.8753 81.5322V81.2028C38.935 80.883 39.0629 80.5799 39.2503 80.3141C39.4378 80.0483 39.6804 79.826 39.9615 79.6625ZM23.4635 75.4245C23.5244 75.7147 23.5533 76.0296 23.5825 76.3484L23.5825 76.3484L23.5825 76.3485L23.5825 76.3485L23.5825 76.3485L23.5825 76.3486C23.6088 76.636 23.6355 76.9266 23.6861 77.2052C23.7748 77.7465 23.8106 78.2951 23.793 78.8434V80.1344H23.8998C24.2346 80.16 24.5642 80.2319 24.8792 80.3481C24.8967 79.8755 24.9684 79.4065 25.0929 78.9502C25.0749 78.402 25.1107 77.8533 25.1997 77.312C25.2709 76.0826 25.2352 74.8492 25.0929 73.626C24.9778 72.2413 24.7636 70.8667 24.4518 69.5126C24.3311 69.1552 24.2444 68.7664 24.1548 68.3647C24.0793 68.0257 24.0017 67.6776 23.8998 67.3313C23.792 66.9647 23.6611 66.6231 23.5306 66.2823C23.3917 65.9197 23.2532 65.5579 23.143 65.1678C22.9227 64.4487 22.6242 63.7561 22.2527 63.1022C22.0995 62.7915 21.9443 62.4545 21.7889 62.1172L21.7889 62.117L21.7888 62.117C21.6192 61.7486 21.4495 61.3801 21.2822 61.0455C20.6038 59.8859 19.9324 58.6844 19.2618 57.4844L19.2616 57.4839L19.2615 57.4837L19.2613 57.4835L19.2612 57.4833L19.2611 57.483L19.0029 57.0212C18.228 55.7698 17.3589 54.5792 16.4032 53.4598C15.5128 52.3825 14.5512 51.2874 13.6876 50.308C13.1427 49.6901 12.5517 49.143 11.9818 48.6154L11.9817 48.6154L11.9816 48.6153L11.9815 48.6152L11.9813 48.6151L11.9812 48.6149L11.9811 48.6148C11.6479 48.3064 11.322 48.0047 11.0166 47.6993C10.8022 47.4849 10.5787 47.2951 10.3711 47.1187L10.371 47.1186C10.1649 46.9435 9.97434 46.7817 9.82355 46.622C9.45144 46.2691 9.05581 45.9419 8.6394 45.6426L8.51475 45.5447L8.40791 45.6515L8.30107 45.7584C8.27341 45.7604 8.24742 45.7724 8.22781 45.792C8.2082 45.8116 8.19628 45.8376 8.19423 45.8652L8.30107 45.9721C8.47378 46.1544 8.68268 46.3315 8.88877 46.5063C9.06515 46.6558 9.23947 46.8036 9.38728 46.9514C9.77681 47.3232 10.1398 47.7219 10.4735 48.1445C10.8191 48.5511 11.1889 48.9243 11.5709 49.3098L11.5709 49.3099L11.571 49.31L11.5711 49.3101C12.0255 49.7687 12.4973 50.2448 12.9664 50.8155C13.439 51.3904 13.8823 51.9546 14.3297 52.5242L14.3299 52.5244L14.3301 52.5247L14.3302 52.5248L14.3304 52.525L14.3304 52.5251C14.7005 52.9962 15.0735 53.4709 15.4683 53.9584C15.9491 54.5521 16.3597 55.2161 16.7759 55.8893C17.115 56.4377 17.4578 56.9922 17.8455 57.5198C18.6414 58.7645 19.3351 60.0716 19.92 61.4283C20.062 61.7163 20.183 62.0269 20.3047 62.3394C20.4578 62.7323 20.612 63.128 20.8103 63.485L21.2377 64.4644L21.2623 64.5402C21.361 64.8437 21.4596 65.1472 21.5582 65.5417C21.684 65.9139 21.8069 66.3173 21.9285 66.7167L21.9286 66.7171C22.0223 67.0246 22.1152 67.3297 22.2082 67.6162C22.405 68.2904 22.5538 68.9777 22.6533 69.6729C22.9915 70.9572 23.2414 72.2631 23.4012 73.5815C23.3693 74.1965 23.3901 74.813 23.4635 75.4245ZM3.47467 41.0107C3.93217 40.615 4.52813 40.4172 5.13145 40.4609C5.73831 40.4609 6.32032 40.702 6.74943 41.1311C7.17855 41.5602 7.41962 42.1422 7.41962 42.7491C7.41962 42.8538 7.39397 42.9328 7.3678 43.0134C7.34057 43.0974 7.31278 43.183 7.31278 43.3011C7.29329 43.5794 7.18034 43.8429 6.99226 44.049L6.78748 44.2893C6.53415 44.5274 6.22954 44.704 5.89714 44.8057C5.89714 44.9126 5.7814 44.9126 5.67456 44.9126C5.50698 44.9976 5.31817 45.0316 5.13145 45.0105H4.80202C4.19871 44.9668 3.63745 44.6853 3.24173 44.2278C2.84601 43.7703 2.64824 43.1743 2.69192 42.571C2.73561 41.9677 3.01717 41.4064 3.47467 41.0107ZM25.3065 82.8054L24.986 82.4849C24.7776 82.2721 24.5164 82.1185 24.2292 82.0397C24.0222 81.9597 23.801 81.9233 23.5793 81.9329H23.4635C23.0126 81.9399 22.5737 82.08 22.2021 82.3357C21.8306 82.5913 21.5428 82.9511 21.3751 83.3698C21.2074 83.7885 21.1671 84.2474 21.2594 84.6889C21.3516 85.1304 21.5723 85.5347 21.8937 85.8512C22.2151 86.1676 22.6228 86.3821 23.0657 86.4675C23.5085 86.5529 23.9668 86.5056 24.3828 86.3314C24.7989 86.1572 25.1541 85.864 25.404 85.4885C25.6539 85.113 25.7873 84.6721 25.7873 84.221C25.7873 84.0386 25.7545 83.8916 25.7253 83.7605C25.7017 83.6549 25.6805 83.5596 25.6805 83.4642C25.6787 83.3791 25.6587 83.2953 25.6219 83.2185C25.585 83.1417 25.5321 83.0737 25.4668 83.0191C25.3956 82.9657 25.3867 82.9122 25.38 82.8722C25.3733 82.8321 25.3689 82.8054 25.3065 82.8054ZM39.9591 58.4906C39.8798 58.1699 39.8007 57.8504 39.7478 57.5287C39.6938 57.1295 39.5475 56.7485 39.3205 56.4157C39.2628 56.1646 39.1862 55.9382 39.1098 55.7128C39.0211 55.4507 38.9327 55.19 38.8753 54.8933C38.7754 54.5574 38.6815 54.2214 38.5875 53.885L38.5874 53.8846C38.3799 53.1422 38.1716 52.3971 37.8959 51.6435C37.7866 51.3446 37.6818 51.039 37.5762 50.7306C37.2947 49.9092 37.0063 49.0677 36.6049 48.278C36.3248 47.7269 36.0768 47.1459 35.8295 46.5665C35.5894 46.0041 35.35 45.4432 35.0825 44.9126C34.8896 44.3553 34.6545 43.8136 34.3791 43.2922C34.1967 43.0069 34.0512 42.7192 33.9064 42.4329L33.9063 42.4328L33.9063 42.4328C33.7754 42.174 33.6451 41.9164 33.4888 41.6628C32.9011 40.5766 32.3491 39.5972 31.7081 38.511C31.5128 38.1801 31.3266 37.8615 31.1464 37.5534C30.7353 36.8501 30.3558 36.2009 29.9719 35.5818C29.516 34.6849 29.0107 33.814 28.4583 32.9731C28.2929 32.7332 28.1582 32.5048 28.0292 32.2862C27.8806 32.0342 27.7396 31.7952 27.568 31.5664H27.6749C27.7774 31.5151 27.8554 31.4638 27.9333 31.4125C28.0178 31.357 28.1022 31.3014 28.218 31.2459L28.5385 30.9164C28.8685 31.3783 29.2315 31.8158 29.6247 32.2252C30.2945 33.0106 30.9103 33.8405 31.4677 34.7093C32.1486 35.644 32.7673 36.6225 33.3196 37.6385C33.5187 38.0399 33.7165 38.4257 33.9145 38.8117C34.2567 39.479 34.5992 40.147 34.9489 40.8971C35.0673 41.2029 35.2184 41.536 35.3676 41.8647C35.4877 42.1293 35.6064 42.391 35.7057 42.6333C36.0097 43.2024 36.2601 43.7985 36.4536 44.414C36.8721 45.4913 37.3261 46.6932 37.7624 47.8774C38.1532 48.9383 38.4583 50.0063 38.7417 50.9983L38.8397 51.3408C39.2435 52.3949 39.5417 53.4865 39.73 54.5995L39.7547 54.7228L39.7547 54.7229C39.8533 55.2166 39.9519 55.7103 40.0506 56.113C40.1005 56.3168 40.127 56.5418 40.1539 56.7692V56.7693C40.1846 57.0288 40.2156 57.2914 40.282 57.5287L40.6115 59.4785H40.1752C40.1213 59.1458 40.0401 58.8176 39.9591 58.4906ZM27.8084 27.9071C27.8119 27.4542 27.6809 27.0104 27.4321 26.632C27.1832 26.2536 26.8276 25.9575 26.4103 25.7813C25.993 25.6052 25.5329 25.5568 25.0881 25.6423C24.6433 25.7279 24.2339 25.9435 23.9118 26.2619C23.5897 26.5803 23.3693 26.9871 23.2785 27.4309C23.1878 27.8746 23.2308 28.3353 23.402 28.7546C23.5733 29.1739 23.8652 29.533 24.2407 29.7862C24.6162 30.0395 25.0584 30.1757 25.5113 30.1775C25.8948 30.1836 26.2709 30.0718 26.5886 29.8569C26.617 29.8569 26.6441 29.8457 26.6642 29.8257C26.6842 29.8056 26.6955 29.7784 26.6955 29.7501C26.7363 29.7093 26.7771 29.6841 26.8119 29.6625C26.8683 29.6277 26.9091 29.6025 26.9091 29.5364C26.9091 29.4296 27.016 29.4296 27.1228 29.4296L27.2475 29.3049C27.4518 29.0964 27.5989 28.8389 27.6748 28.557C27.7726 28.3548 27.8185 28.1315 27.8084 27.9071ZM40.7183 61.2147H41.1457C41.445 61.2135 41.7416 61.2713 42.0186 61.3848C42.2956 61.4982 42.5475 61.6651 42.76 61.8759C42.9724 62.0868 43.1413 62.3374 43.2569 62.6135C43.3726 62.8895 43.4327 63.1857 43.4338 63.485V63.6097C43.4175 64.1938 43.1722 64.7481 42.7507 65.1528C42.3293 65.5576 41.7656 65.7804 41.1813 65.7732C40.8704 65.776 40.5639 65.6994 40.2909 65.5506C40.0001 65.4347 39.7408 65.2517 39.5341 65.0164C39.3265 64.819 39.161 64.5814 39.0478 64.3182C38.9346 64.055 38.8759 63.7716 38.8753 63.485C38.8691 63.1015 38.981 62.7254 39.1958 62.4077C39.2648 62.3486 39.3284 62.2566 39.3895 62.1682C39.4388 62.097 39.4865 62.028 39.5341 61.9804C39.8236 61.5906 40.2441 61.3187 40.7183 61.2147Z" clip-rule="evenodd"/>
</svg>
