<svg xmlns="http://www.w3.org/2000/svg" focusable="false" role="img" viewBox="0 0 200 100" fill="currentColor">
  <path fill-rule="evenodd" d="M82.13 63.45V64.55L98.3 64.6L98.73 59.92H97.38L97.32 60.28C97.2442 61.1369 96.9211 61.9533 96.39 62.63C96.118 62.8681 95.8005 63.0485 95.4567 63.1602C95.1129 63.2719 94.75 63.3127 94.39 63.28H93.76C92.2746 63.3671 90.786 63.1772 89.37 62.72C88.9859 62.5541 88.6635 62.2718 88.4483 61.913C88.233 61.5543 88.1357 61.137 88.17 60.72V52.49H91.54C93.73 52.49 94.42 52.72 94.61 52.91C95.0093 53.4087 95.1961 54.0446 95.13 54.68V55H96.53V48.9H95.15V49.24C95.15 50.16 94.95 50.76 94.54 51.01C93.5793 51.3525 92.5564 51.4855 91.54 51.4H88.17V42.4H91.31C92.7865 42.2913 94.2708 42.4333 95.7 42.82C96.23 43.07 96.59 43.84 96.78 45.07V45.46H98.17L97.69 41.09H82.08V42.19H82.46C82.8105 42.1357 83.1684 42.153 83.5121 42.2406C83.8558 42.3283 84.1783 42.4845 84.46 42.7C84.8543 43.4054 85.0153 44.2175 84.92 45.02V60.62C85.0031 61.4128 84.8315 62.2114 84.43 62.9C84.1637 63.1167 83.8563 63.2771 83.5263 63.3716C83.1963 63.4662 82.8506 63.4928 82.51 63.45H82.13ZM122.29 64.55H123.4L129.25 45.18C129.46 44.3435 129.797 43.5442 130.25 42.81C130.381 42.6159 130.559 42.4576 130.767 42.3494C130.974 42.2411 131.206 42.1863 131.44 42.19H131.78V41.09H125.88V42.16H126.25C127.36 42.24 127.92 42.58 127.92 43.16C127.899 43.8391 127.784 44.512 127.58 45.16L123.39 59.09L116.78 41.09H115.78L110.17 59.01L105.93 45.17C105.753 44.6097 105.656 44.0274 105.64 43.44C105.615 43.26 105.63 43.0766 105.686 42.9035C105.741 42.7304 105.835 42.5719 105.96 42.44C106.383 42.2275 106.859 42.1408 107.33 42.19H107.72V41.09H100.14V42.19H100.45C100.695 42.1919 100.936 42.2518 101.153 42.3648C101.37 42.4778 101.558 42.6406 101.7 42.84C102.162 43.5439 102.501 44.3218 102.7 45.14L108.64 64.55H109.78L115.52 46.36L122.29 64.55ZM132.28 64.19C134.202 64.8111 136.21 65.1249 138.23 65.12L138.19 65.15C140.349 65.2581 142.481 64.6422 144.25 63.4C144.981 62.8543 145.569 62.1402 145.964 61.3184C146.359 60.4966 146.55 59.5914 146.52 58.68C146.558 57.531 146.205 56.4031 145.52 55.48C144.325 54.1593 142.952 53.0116 141.44 52.07L138.15 49.81C136.09 48.42 135.09 46.98 135.09 45.54C135.077 45.0081 135.179 44.4797 135.389 43.9911C135.6 43.5026 135.914 43.0655 136.31 42.71C137.158 41.9543 138.264 41.5533 139.4 41.59C140.64 41.51 141.866 41.8825 142.852 42.6384C143.838 43.3943 144.516 44.4821 144.76 45.7L144.86 46H146.2L145.68 41.47C143.857 40.8289 141.942 40.4911 140.01 40.47C137.953 40.3747 135.923 40.958 134.23 42.13C133.534 42.6276 132.97 43.2875 132.586 44.0525C132.203 44.8175 132.012 45.6645 132.03 46.52C132.004 47.6587 132.379 48.7703 133.09 49.66C134.395 51.03 135.863 52.2356 137.46 53.25L139.75 54.82C142.11 56.45 143.32 58.05 143.32 59.58C143.324 60.1711 143.204 60.7565 142.966 61.2977C142.728 61.8389 142.379 62.3236 141.94 62.72C141.054 63.5714 139.868 64.0386 138.64 64.02C137.353 64.0633 136.096 63.6206 135.12 62.78C134.135 61.8322 133.495 60.5829 133.3 59.23L133.24 58.91H131.89L132.22 64.19H132.28ZM59.32 59.72C59.1912 60.761 59.4091 61.8154 59.94 62.72C60.6954 63.2875 61.6435 63.5353 62.58 63.41H62.94V64.58H53.49V63.45H53.73C54.6694 63.5726 55.6197 63.3252 56.38 62.76C56.906 61.8535 57.1236 60.8008 57 59.76V39.1L56.49 38.47C55.36 37.09 54.36 36.41 53.36 36.41H53V35.27H58.78L76.62 57.49V40.1C76.7465 39.0579 76.5251 38.0032 75.99 37.1C75.2116 36.5327 74.2452 36.2857 73.29 36.41H73V35.27H82.36V36.41H82C81.0794 36.2883 80.1481 36.5364 79.41 37.1C78.8749 38.0032 78.6534 39.0579 78.78 40.1V64.58H78.02L59.32 41.58V59.72ZM62.3291 79.3751C62.9962 79.6096 63.7054 79.6998 64.41 79.64L64.46 79.63C64.9096 79.6353 65.3585 79.5951 65.8 79.51C66.1425 79.4391 66.4774 79.3352 66.8 79.2C67.0828 79.0806 67.3512 78.9297 67.6 78.75C67.8194 78.5888 68.0267 78.4117 68.22 78.22L68.37 78.08L67.13 76.88L66.99 77.03C66.8525 77.1607 66.7054 77.2811 66.55 77.39C66.3899 77.506 66.2191 77.6064 66.04 77.69C65.8266 77.7862 65.6012 77.8535 65.37 77.89C65.0739 77.95 64.772 77.9768 64.47 77.97C63.9999 78.0131 63.526 77.9561 63.0796 77.8027C62.6331 77.6493 62.2243 77.403 61.88 77.08C61.2861 76.3146 60.9974 75.3561 61.07 74.39C61.07 71.99 62.18 70.82 64.46 70.82C64.9231 70.8071 65.3846 70.8817 65.82 71.04C66.2204 71.1906 66.5873 71.4182 66.9 71.71L67.04 71.84L68.29 70.59L68.14 70.45C67.6737 70.0149 67.1267 69.6751 66.53 69.45C65.8653 69.216 65.1646 69.1009 64.46 69.11C63.7275 69.1007 62.9983 69.2087 62.3 69.43C61.6846 69.6348 61.1238 69.9767 60.66 70.43C60.2037 70.8954 59.8614 71.4602 59.66 72.08C59.4181 72.8255 59.3032 73.6064 59.32 74.39C59.2254 75.7937 59.6608 77.1817 60.54 78.28C61.0522 78.7674 61.662 79.1407 62.3291 79.3751ZM78.86 79.49H80.59L80.62 69.3H78.89V73.3H73.78V69.3H72.01V79.49H73.78V75.07H78.86V79.49ZM89.1 71.6L90.78 75.82H87.42L89.1 71.6ZM92.22 79.51H94.03L89.95 69.26H88.31L84.23 79.51H85.97L86.78 77.45H91.42L92.22 79.51ZM104.78 79.49H106.3L106.31 69.3H104.62V76.43L99.44 69.3H97.68V79.49H99.38V72.08L104.78 79.49ZM118.25 79.49H119.78V69.3H118.02V76.43L112.84 69.3H111.08V79.49H112.78V72.08L118.25 79.49ZM124.57 79.49H131.72V77.82H126.31V75.07H131.54V73.4H126.31V70.99H131.67V69.3H124.57V79.49ZM136.48 79.49H143.32V77.82H138.22V69.3H136.48V79.49ZM104.363 35.3243C102.985 36.2428 101.366 36.732 99.71 36.73C98.6113 36.73 97.5234 36.5134 96.5085 36.0927C95.4935 35.6719 94.5715 35.0552 93.795 34.2779C93.0186 33.5005 92.403 32.5777 91.9835 31.5623C91.5639 30.5469 91.3487 29.4587 91.35 28.36C91.35 26.7041 91.8411 25.0855 92.7613 23.7088C93.6814 22.3322 94.9893 21.2594 96.5192 20.6262C98.0492 19.993 99.7327 19.8278 101.357 20.1516C102.98 20.4753 104.472 21.2735 105.642 22.4451C106.812 23.6166 107.609 25.109 107.93 26.7332C108.252 28.3575 108.085 30.0408 107.45 31.57C106.815 33.0992 105.741 34.4058 104.363 35.3243ZM124.03 20.63H108.7V36.39H124.03V20.63ZM143.11 20.63H124.41L133.78 36.57L143.11 20.63ZM102.369 32.8826C103.428 32.2361 104.22 31.2309 104.6 30.05H103.12C102.812 30.7016 102.325 31.2523 101.716 31.6382C101.107 32.0241 100.401 32.2293 99.68 32.23C99.1744 32.2274 98.6743 32.1252 98.2082 31.9293C97.7421 31.7334 97.3191 31.4476 96.9635 31.0882C96.6078 30.7289 96.3264 30.303 96.1354 29.8349C95.9443 29.3667 95.8473 28.8656 95.85 28.36C95.8406 27.8644 95.9306 27.3719 96.1148 26.9117C96.2989 26.4515 96.5734 26.0329 96.922 25.6805C97.2707 25.3281 97.6864 25.0492 98.1446 24.8602C98.6028 24.6712 99.0943 24.5759 99.59 24.58C100.359 24.576 101.113 24.7973 101.758 25.2167C102.403 25.6361 102.911 26.2352 103.22 26.94H104.65C104.306 25.8643 103.625 24.9274 102.709 24.2668C101.793 23.6063 100.689 23.2569 99.56 23.27C98.8873 23.2604 98.2196 23.3866 97.5968 23.6412C96.974 23.8957 96.4091 24.2733 95.9357 24.7513C95.4623 25.2294 95.0903 25.7981 94.8419 26.4233C94.5934 27.0485 94.4738 27.7174 94.49 28.39C94.4728 29.6305 94.9014 30.8361 95.6979 31.7873C96.4945 32.7385 97.6059 33.3723 98.8302 33.5733C100.054 33.7743 101.31 33.5292 102.369 32.8826ZM111.39 23.82V25.21L115.73 25.23V33.23H117.15V25.23H121.39V23.82H111.39ZM128.19 23.53H129.84L133.78 30.05L137.69 23.53H139.34L133.78 32.94L128.19 23.53Z" clip-rule="evenodd"/>
</svg>
