<svg xmlns="http://www.w3.org/2000/svg" focusable="false" role="img" viewBox="0 0 200 100" fill="currentColor">
  <g clip-path="url(#clip0_102:163)">
    <path d="M0 78.38V21.87C1.53 16.97 5 15.44 9.91 15.56C18.06 15.76 26.22 15.56 34.36 15.63C36.1461 15.638 37.9298 15.7616 39.7 16C47.6111 17.1396 54.8848 20.9799 60.2878 26.8698C65.6908 32.7598 68.8908 40.337 69.3452 48.3169C69.7995 56.2967 67.4804 64.1882 62.7809 70.6534C58.0813 77.1186 51.2906 81.7598 43.56 83.79C41.49 84.33 39.36 84.67 37.25 85.04H6.31C4.73736 84.6376 3.31051 83.7988 2.19404 82.6204C1.07758 81.4421 0.316984 79.972 0 78.38H0ZM19.17 50.28C17 52.46 14.94 54.42 13 56.44C12.021 57.3703 11.287 58.528 10.8631 59.8102C10.4391 61.0924 10.3385 62.4595 10.57 63.79C10.8032 65.3771 11.4697 66.8691 12.4961 68.1019C13.5225 69.3347 14.8691 70.2604 16.3877 70.7773C17.9062 71.2942 19.538 71.3822 21.1033 71.0315C22.6687 70.6809 24.107 69.9053 25.26 68.79C27.26 66.79 29.2 64.71 31.26 62.57C33.41 64.74 35.32 66.68 37.26 68.57C38.8833 70.0928 41.028 70.9363 43.2537 70.9275C45.4794 70.9186 47.6173 70.058 49.2285 68.5224C50.8396 66.9868 51.8017 64.8926 51.9173 62.6699C52.0329 60.4471 51.2932 58.2645 49.85 56.57L49.48 56.21C47.6 54.31 45.7 52.43 43.37 50.12C43.9349 49.8457 44.4681 49.5104 44.96 49.12C46.72 47.36 48.59 45.6 50.24 43.72C51.4068 42.3478 52.1104 40.6421 52.2505 38.8464C52.3905 37.0506 51.9599 35.2565 51.02 33.72C50.1325 32.1192 48.739 30.8581 47.0578 30.1342C45.3766 29.4103 43.5028 29.2647 41.73 29.72C40.1049 30.2222 38.605 31.0641 37.33 32.19C35.22 33.95 33.33 36.04 31.33 38.1C29.19 35.91 27.24 33.84 25.21 31.86C24.2696 30.8915 23.1012 30.1744 21.8119 29.7743C20.5226 29.3742 19.1535 29.304 17.83 29.57C16.2307 29.7892 14.729 30.4667 13.5063 31.5208C12.2837 32.5749 11.3923 33.9604 10.94 35.51C10.3887 37.0588 10.3121 38.737 10.72 40.3296C11.128 41.9223 12.0019 43.3569 13.23 44.45C15.09 46.4 17.07 48.27 19.17 50.28Z"/>
  </g>
  <defs>
    <clipPath id="clip0_102:163">
      <rect width="200" height="100"/>
    </clipPath>
  </defs>
</svg>
