<svg xmlns="http://www.w3.org/2000/svg" focusable="false" role="img" viewBox="0 0 200 100" fill="currentColor">
  <path fill-rule="evenodd" d="M92.36 38.58L93.41 39.84L91.9 42.76C92.9973 44.2374 93.5422 46.0525 93.44 47.89C93.5061 49.0446 93.2978 50.1985 92.8319 51.2571C92.3661 52.3157 91.656 53.2488 90.76 53.98C88.9667 55.4 86.36 56.11 82.94 56.11C81.9101 56.1101 80.8813 56.0433 79.86 55.91L79.12 55.8L78.52 57.7C78.564 57.9777 78.6694 58.2421 78.8286 58.474C78.9878 58.7058 79.1966 58.8992 79.44 59.04C79.9658 59.4137 80.5861 59.632 81.23 59.67H87.06C92.76 59.67 95.6133 61.86 95.62 66.24C95.6612 67.9197 95.1364 69.5645 94.13 70.91C92.9849 72.3015 91.4701 73.3414 89.76 73.91C87.4572 74.714 85.0285 75.0967 82.59 75.04C79.8821 75.1762 77.1799 74.6761 74.7 73.58C72.84 72.58 71.9 71.28 71.9 69.58C71.9278 68.7707 72.2557 68.0008 72.82 67.42C73.8624 66.3926 75.0521 65.5264 76.35 64.85C75.3337 64.4466 74.4601 63.7506 73.84 62.85C73.2671 62.0956 72.9203 61.1939 72.84 60.25V59.86L77.01 55.13C74.05 53.89 72.57 51.46 72.57 47.84C72.5074 46.6949 72.722 45.5516 73.1955 44.507C73.669 43.4625 74.3875 42.5476 75.29 41.84C77.1033 40.44 79.7 39.74 83.08 39.74C83.9991 39.753 84.917 39.8131 85.83 39.92C86.5915 39.9923 87.3468 40.1193 88.09 40.3L88.29 40.36L92.4 38.52L92.36 38.58ZM86.98 65.58H79.07C78.4345 65.9542 77.9012 66.4794 77.5174 67.1092C77.1336 67.7389 76.9112 68.4537 76.87 69.19C76.8604 69.6963 77.0017 70.1939 77.276 70.6196C77.5503 71.0452 77.945 71.3795 78.41 71.58C79.7277 72.1728 81.1666 72.4469 82.61 72.38C84.553 72.4974 86.4923 72.0971 88.23 71.22C88.8345 70.9175 89.3422 70.4518 89.6957 69.8757C90.0491 69.2995 90.2342 68.6359 90.23 67.96C90.15 66.38 89.09 65.59 86.98 65.59V65.58ZM117.23 35.12V40.35H122.14V42.96H117.23V57.89C117.234 58.3076 117.32 58.7204 117.484 59.1047C117.647 59.489 117.884 59.8374 118.183 60.1299C118.481 60.4224 118.833 60.6533 119.221 60.8095C119.608 60.9656 120.022 61.044 120.44 61.04C120.89 61.0518 121.34 61.0082 121.78 60.91C121.995 61.5835 122.334 62.211 122.78 62.76L122.57 62.87C121.884 63.2259 121.159 63.501 120.41 63.69C119.339 63.9876 118.231 64.1323 117.12 64.12C115.273 64.2353 113.444 63.7011 111.95 62.61C111.332 62.0721 110.846 61.3989 110.531 60.6427C110.215 59.8865 110.078 59.0677 110.13 58.25V42.96H107.02V41.27L110.64 40.35L113.52 35.12H117.23ZM57.17 29.04V61.45L59.37 61.95V63.64H50.56L50.06 62.34C49.4086 62.8361 48.6918 63.2399 47.93 63.54C47.4026 63.7296 46.8609 63.8768 46.31 63.98C45.6229 64.0966 44.9269 64.1535 44.23 64.15C40.79 64.15 38.2233 63.15 36.53 61.15C34.85 59.15 34 56.15 34 52.06C34 47.97 34.91 44.97 36.72 42.88C38.53 40.79 41.15 39.73 44.6 39.73C46.1693 39.7331 47.7342 39.8973 49.27 40.22L50.05 40.4V31.2L47.85 30.69V29.04H57.17ZM162.9 57.04C163.366 57.0285 163.829 57.1111 164.262 57.2829C164.695 57.4547 165.089 57.7123 165.42 58.04C165.75 58.3697 166.008 58.7633 166.18 59.1967C166.352 59.63 166.434 60.094 166.42 60.56C166.416 61.2636 166.204 61.9502 165.811 62.5342C165.419 63.1181 164.863 63.5735 164.214 63.8434C163.564 64.1134 162.849 64.1858 162.158 64.0518C161.468 63.9178 160.832 63.5833 160.33 63.09C159.999 62.7591 159.74 62.3639 159.568 61.9287C159.396 61.4935 159.315 61.0277 159.33 60.56C159.331 60.0939 159.425 59.6327 159.605 59.2029C159.786 58.7732 160.05 58.3834 160.382 58.0562C160.713 57.7289 161.107 57.4706 161.539 57.2962C161.971 57.1218 162.434 57.0347 162.9 57.04ZM134.82 39.86C140.48 39.86 143.397 41.86 143.57 45.86V61.45L145.77 61.95V63.64H137.31L136.77 61.86C135.696 62.6249 134.517 63.2311 133.27 63.66C132.249 63.9743 131.188 64.136 130.12 64.14C125.307 64.14 122.9 61.83 122.9 57.21C122.823 55.734 123.196 54.2694 123.97 53.01C124.723 51.9321 125.797 51.12 127.04 50.69C128.881 50.1284 130.795 49.8452 132.72 49.85H133.37L136.45 49.78V46.37C136.45 43.56 135.24 42.16 132.95 42.16C131.441 42.1973 129.955 42.5374 128.58 43.16L128.07 43.41L127.39 46.3H125.7V40.73C128.2 40.35 130.037 40.11 131.21 40.01C132.383 39.91 133.587 39.86 134.82 39.86ZM69.7 40.38V61.45L71.9 61.95V63.64H60.39V61.95L62.59 61.45V42.58L60.39 42.04V40.38H69.7ZM105.34 40.38V61.45L107.54 61.95V63.64H96.03V61.95L98.23 61.45V42.58L96.03 42.04V40.38H105.34ZM156.11 29.04V61.45L158.31 61.95V63.64H146.8V61.95L149 61.45V31.2L146.8 30.69V29.04H156.11ZM45.98 42.3C45.2264 42.3175 44.4948 42.5575 43.8773 42.9899C43.2598 43.4223 42.7841 44.0278 42.51 44.73C41.552 46.9941 41.1145 49.4443 41.23 51.9C41.1087 54.31 41.5078 56.7179 42.4 58.96C42.6427 59.66 43.0937 60.2689 43.6926 60.7051C44.2914 61.1412 45.0093 61.3837 45.75 61.4C47.0347 61.3794 48.3025 61.1041 49.48 60.59L50.01 60.34V42.81C48.693 42.4736 47.3393 42.3022 45.98 42.3ZM136.46 51.96L134.32 52.04C133.705 51.9973 133.089 52.0877 132.512 52.3052C131.936 52.5226 131.413 52.862 130.98 53.3C130.263 54.4161 129.936 55.7383 130.05 57.06C129.966 58.1434 130.229 59.2254 130.8 60.15C131.014 60.4629 131.303 60.7179 131.639 60.8924C131.976 61.0669 132.351 61.1554 132.73 61.15C133.834 61.126 134.925 60.9024 135.95 60.49L136.46 60.29V51.96ZM82.89 42.31C82.3858 42.2759 81.8823 42.3856 81.438 42.6264C80.9937 42.8671 80.6268 43.229 80.38 43.67C79.765 44.9875 79.4932 46.4392 79.59 47.89C79.5029 49.3618 79.7704 50.8331 80.37 52.18C80.6039 52.6389 80.9673 53.0191 81.4153 53.2733C81.8633 53.5275 82.3761 53.6446 82.89 53.61C83.4246 53.6479 83.9591 53.5337 84.4315 53.2807C84.904 53.0276 85.2952 52.646 85.56 52.18C86.1903 50.8419 86.4724 49.3662 86.38 47.89C86.4768 46.4371 86.1978 44.9838 85.57 43.67C85.2926 43.2178 84.8953 42.8513 84.4222 42.6112C83.9492 42.3711 83.4188 42.2668 82.89 42.31ZM101.78 30.24C102.247 30.2294 102.712 30.3124 103.146 30.4841C103.581 30.6559 103.976 30.9129 104.31 31.24C104.915 31.8184 105.301 32.5892 105.4 33.4204C105.5 34.2516 105.307 35.0916 104.856 35.7966C104.404 36.5016 103.722 37.0278 102.925 37.2851C102.129 37.5424 101.267 37.5148 100.489 37.2071C99.7103 36.8994 99.0629 36.3306 98.6574 35.5982C98.252 34.8657 98.1137 34.0152 98.2663 33.192C98.4188 32.3689 98.8527 31.6243 99.4937 31.0858C100.135 30.5473 100.943 30.2483 101.78 30.24ZM66.14 30.24C66.6071 30.2294 67.0716 30.3124 67.5061 30.4841C67.9406 30.6559 68.3364 30.9129 68.67 31.24C69.2756 31.8187 69.661 32.5899 69.7604 33.4216C69.8598 34.2533 69.6669 35.0936 69.2147 35.7987C68.7625 36.5038 68.0793 37.0297 67.282 37.2863C66.4847 37.5429 65.6229 37.5143 64.8444 37.2054C64.0658 36.8964 63.419 36.3264 63.0146 35.5929C62.6101 34.8594 62.4734 34.0081 62.6277 33.1848C62.782 32.3616 63.2178 31.6176 63.8604 31.0803C64.503 30.5431 65.3124 30.246 66.15 30.24H66.14Z" clip-rule="evenodd"/>
</svg>
