<svg xmlns="http://www.w3.org/2000/svg" focusable="false" role="img" viewBox="0 0 200 100" fill="currentColor">
  <path d="M15 40.42H24V55.9H15V40.42Z"/>
  <path d="M134.07 40.44C136.79 40.44 139.27 40.33 141.73 40.44C142.643 40.4782 143.517 40.8195 144.214 41.4098C144.911 42.0002 145.392 42.806 145.58 43.7C145.9 45.44 145.01 47.03 143.11 48.07L142.28 48.52C143.52 50.78 144.15 53.38 146.82 54.52C146.927 54.5956 147.016 54.694 147.08 54.8082C147.144 54.9224 147.181 55.0494 147.19 55.18C147.19 55.3 146.91 55.52 146.72 55.58C145.987 55.8432 145.184 55.8402 144.453 55.5715C143.722 55.3027 143.108 54.7854 142.72 54.11C141.847 52.748 141.042 51.3429 140.31 49.9C139.85 48.9 139.31 48.36 138.01 48.81C138.01 50.49 138.01 52.27 138.01 54.05C138.014 54.1886 138.063 54.3222 138.15 54.43C138.42 54.74 138.72 55.03 139.01 55.32C138.498 55.4869 137.973 55.6107 137.44 55.69C136.567 55.745 135.692 55.745 134.82 55.69C134.62 55.69 134.38 55.41 134.28 55.2C134.18 54.99 134.49 54.87 134.6 54.69C134.84 54.31 135.27 53.93 135.28 53.55C135.333 49.8967 135.333 46.23 135.28 42.55C135.28 42.16 134.83 41.78 134.59 41.39C134.35 41 134.32 40.9 134.07 40.44ZM138.07 41.44V47.44C139.71 47.44 141.38 47.99 142.41 46.16C142.76 45.6323 142.947 45.0132 142.947 44.38C142.947 43.7468 142.76 43.1277 142.41 42.6C141.33 40.96 139.71 41.47 138.1 41.48L138.07 41.44Z"/>
  <path d="M26.1801 40.45C28.8001 40.45 31.1801 40.29 33.5401 40.45C34.5587 40.4999 35.5324 40.8847 36.31 41.5447C37.0875 42.2047 37.6254 43.103 37.8401 44.1C38.5993 46.7828 38.561 49.6286 37.7301 52.29C37.4873 53.1951 36.9632 53.9995 36.2335 54.5873C35.5037 55.1751 34.606 55.5157 33.6701 55.56C31.4901 55.74 29.3001 55.65 27.1101 55.65C26.8701 55.65 26.6401 55.43 26.4001 55.32L26.8401 54.56C27.0401 54.19 27.4201 53.83 27.4201 53.46C27.4701 49.82 27.4701 46.17 27.4201 42.53C27.4201 42.14 26.9501 41.77 26.7101 41.38C26.5401 41.14 26.4101 40.9 26.1801 40.45ZM30.1801 54.45C33.3801 55.01 35.0601 54.01 35.4401 51C35.705 48.9887 35.705 46.9513 35.4401 44.94C35.0501 41.94 33.2701 40.94 30.1801 41.61V54.45Z"/>
  <path d="M120.2 45.9C120.378 47.0077 120.411 48.1337 120.3 49.25C120.244 49.9424 120.144 50.6305 120 51.31C119.27 54.53 117.34 56.02 114.22 55.94C113.544 55.9777 112.866 55.8802 112.228 55.6533C111.59 55.4264 111.003 55.0746 110.502 54.6184C110.001 54.1623 109.596 53.6109 109.311 52.9965C109.026 52.3821 108.866 51.717 108.84 51.04C108.573 48.6862 108.667 46.3053 109.12 43.98C109.64 41.34 111.65 40.13 114.41 40.13C115.621 40.0178 116.833 40.3406 117.828 41.0406C118.823 41.7406 119.536 42.772 119.84 43.95C120.004 44.591 120.125 45.2425 120.2 45.9ZM117.52 50.19C117.74 48.8322 117.74 47.4478 117.52 46.09C117.38 45.19 117.22 44.29 117 43.41C116.891 42.8031 116.574 42.2531 116.104 41.854C115.634 41.4549 115.04 41.2315 114.423 41.222C113.806 41.2126 113.206 41.4176 112.724 41.8022C112.241 42.1867 111.908 42.7268 111.78 43.33C110.81 46.4121 110.81 49.7179 111.78 52.8C111.913 53.3746 112.238 53.8864 112.702 54.2503C113.166 54.6142 113.74 54.8082 114.33 54.8C114.947 54.8287 115.554 54.6313 116.036 54.2447C116.519 53.8581 116.844 53.3089 116.95 52.7C117.187 51.8713 117.377 51.03 117.52 50.18V50.19Z"/>
  <path d="M150.39 44.22C150.39 47.41 150.39 50.61 150.39 53.8C150.39 54.06 150.81 54.31 151 54.58C151.19 54.85 151.4 55.07 151.35 55.25C151.3 55.43 150.95 55.61 150.72 55.65C150.285 55.71 149.845 55.71 149.41 55.65C148.978 55.5524 148.554 55.4254 148.14 55.27C148.412 55.0247 148.66 54.7534 148.88 54.46C149.049 54.1859 149.142 53.8719 149.15 53.55C149.15 49.85 149.15 46.15 149.15 42.45C149.15 42.09 148.75 41.74 148.53 41.39C148.31 41.04 148.21 40.92 147.84 40.39C148.862 40.3219 149.888 40.3219 150.91 40.39C151.391 40.5319 151.802 40.8495 152.06 41.28C153.57 43.78 155.06 46.28 156.49 48.84C156.749 49.3373 157.127 49.7631 157.59 50.08C157.59 47.38 157.65 44.69 157.59 41.99C157.59 41.56 156.86 41.15 156.23 40.47H159.84C159.84 40.68 159.84 41.01 159.84 41.03C158.41 41.57 158.84 42.78 158.84 43.81C158.84 47.69 158.84 51.58 158.84 55.41C157.7 55.92 157.23 55.41 156.77 54.56C154.77 51.06 152.77 47.56 150.77 44.08L150.39 44.22Z"/>
  <path d="M55 44.4C54.66 44.12 54.11 43.9 54 43.54C53.8412 42.8367 53.4344 42.2142 52.8541 41.7863C52.2738 41.3584 51.5588 41.1538 50.84 41.21C50.1654 41.1857 49.5023 41.3896 48.9579 41.7888C48.4135 42.1881 48.0196 42.7592 47.84 43.41C46.7503 46.4074 46.7503 49.6926 47.84 52.69C47.9816 53.2381 48.2805 53.7328 48.6999 54.1131C49.1192 54.4934 49.6407 54.7426 50.2 54.83C52.03 55.12 53.05 54.27 53.06 52.45V50.08C52.8499 50.0326 52.6429 49.9724 52.44 49.9C52.13 49.7 51.84 49.49 51.53 49.28C51.84 49.13 52.14 48.85 52.45 48.84C53.5655 48.7651 54.6846 48.7651 55.8 48.84C56.02 48.84 56.2 49.41 56.39 49.72C55.27 49.99 55.64 50.91 55.63 51.61C55.7193 52.5791 55.4392 53.5461 54.8458 54.3175C54.2525 55.0889 53.3896 55.6077 52.43 55.77C48.34 56.88 44.97 54.77 44.56 50.54C44.3299 48.5113 44.4244 46.4589 44.84 44.46C45.77 40.39 51.13 38.61 54.4 41.25C55.08 41.79 55.16 43.07 55.51 44L55 44.4Z"/>
  <path d="M120.84 40.49H125.51C125.51 40.72 125.59 40.97 125.51 41C124.08 41.76 124.51 43.1 124.51 44.26C124.51 46.69 124.51 49.13 124.6 51.56C124.69 53.65 125.6 54.64 127.29 54.75C127.682 54.8145 128.083 54.7922 128.465 54.6846C128.847 54.5769 129.201 54.3866 129.501 54.1272C129.802 53.8677 130.042 53.5454 130.204 53.183C130.366 52.8206 130.447 52.427 130.44 52.03C130.74 48.7 130.67 45.33 130.74 41.98C130.702 41.8001 130.616 41.634 130.49 41.5C130.27 41.21 130.02 40.95 129.78 40.67C130.18 40.58 130.58 40.47 130.98 40.41C131.272 40.3651 131.568 40.3651 131.86 40.41C132.29 40.49 132.72 40.63 133.15 40.74C132.851 40.9574 132.585 41.2167 132.36 41.51C132.186 41.8399 132.093 42.2069 132.09 42.58C132.09 44.82 132.09 47.06 132.09 49.3C132.093 50.0766 132.037 50.8522 131.92 51.62C131.47 54.48 129.76 55.93 126.92 55.88C124.08 55.83 122.27 54.34 122.02 51.51C121.77 48.68 121.84 45.97 121.84 43.2C121.84 42.42 122.08 41.52 120.95 41.2C120.84 41.19 120.84 40.79 120.84 40.49Z"/>
  <path d="M80.84 55.66C80.81 55.6593 80.7808 55.6506 80.7552 55.6349C80.7297 55.6192 80.7087 55.5971 80.6945 55.5707C80.6803 55.5443 80.6733 55.5146 80.6743 55.4846C80.6752 55.4546 80.6841 55.4254 80.7 55.4C81.9 53.52 80.93 51.98 80.08 50.84C79.65 50.26 78.26 50.33 77.18 50.69C76.68 50.86 75.92 52.35 75.77 53.19C75.692 53.8143 75.692 54.4458 75.77 55.07C75.7786 55.144 75.7712 55.219 75.7484 55.2899C75.7255 55.3608 75.6876 55.426 75.6374 55.481C75.5871 55.536 75.5256 55.5795 75.4571 55.6087C75.3885 55.6379 75.3145 55.6519 75.24 55.65C74.64 55.65 73.97 55.65 73.3 55.65C73.1974 55.6213 73.104 55.5667 73.0287 55.4914C72.9533 55.416 72.8987 55.3226 72.87 55.22C72.87 55.06 73.08 54.86 73.21 54.7C73.58 54.26 74.13 53.9 74.29 53.4C75.6 49.4 76.81 45.4 78.11 41.45C78.24 41.05 78.73 40.77 79.11 40.45C79.39 40.77 79.82 41.05 79.94 41.45C81.23 45.33 82.46 49.23 83.74 53.11C83.96 53.79 83.92 54.74 85.04 54.78C85.15 54.78 85.36 55.16 85.33 55.33C85.288 55.4302 85.2208 55.5179 85.135 55.5845C85.0491 55.6511 84.9475 55.6943 84.84 55.71C83.62 55.67 82.37 55.66 80.84 55.66ZM79.84 49.23L78.7 45.78H78.1L77 49.22C76.994 49.2446 76.9936 49.2702 76.9988 49.295C77.004 49.3197 77.0147 49.343 77.03 49.3631C77.0453 49.3832 77.0649 49.3997 77.0874 49.4113C77.1099 49.4228 77.1347 49.4292 77.16 49.43H79.68C79.7042 49.429 79.728 49.4228 79.7496 49.4118C79.7712 49.4008 79.7903 49.3853 79.8054 49.3664C79.8206 49.3474 79.8315 49.3255 79.8375 49.3019C79.8434 49.2784 79.8443 49.2539 79.84 49.23Z"/>
  <path d="M168.14 55.66C168.65 54.29 168.25 50.89 167.58 50.78C166.41 50.59 164.58 50.28 164.12 50.86C163.24 52.05 162.27 53.69 163.72 55.67C162.72 55.67 162.09 55.67 161.45 55.67C161.059 55.5915 160.677 55.4742 160.31 55.32C160.604 55.1041 160.878 54.8632 161.13 54.6C161.39 54.2678 161.596 53.8965 161.74 53.5C163.01 49.5 164.24 45.5 165.53 41.5C165.67 41.08 166.11 40.75 166.4 40.38C166.75 40.76 167.27 41.08 167.4 41.53C168.71 45.45 169.93 49.4 171.24 53.32C171.41 53.82 171.96 54.2 172.32 54.64C172.496 54.82 172.626 55.0395 172.7 55.28C172.7 55.35 172.37 55.61 172.19 55.62C170.91 55.68 169.6 55.66 168.14 55.66ZM167.32 49.46L165.9 45.26L165.61 45.33L164.34 49.46H167.32Z"/>
  <path d="M73.9601 40.5L74.3501 43.16C73.8501 42.99 73.2801 42.95 73.2101 42.75C72.6001 40.75 71.12 41.54 69.73 41.51C69.73 45.69 69.73 49.76 69.73 53.83C69.73 54.08 70.17 54.31 70.37 54.58C70.57 54.85 70.7601 55.07 70.7101 55.25C70.6442 55.3618 70.5527 55.4563 70.4432 55.5258C70.3337 55.5954 70.2092 55.6379 70.08 55.65C68.97 55.65 67.85 55.65 66.73 55.65C66.51 55.65 66.15 55.43 66.11 55.25C66.07 55.07 66.29 54.78 66.44 54.57C66.59 54.36 67.05 54.05 67.05 53.79C67.05 49.73 67.05 45.66 67.05 41.52C65.58 41.45 64.13 40.89 63.55 42.82C63.55 42.99 63.02 43.04 62.55 43.22L62.84 40.5H73.9601Z"/>
  <path d="M86.16 40.49H90.96C90.96 40.68 91.07 41 91.02 41.02C89.79 41.63 90.11 42.75 90.1 43.75C90.1 47.29 90.1 50.83 90.1 54.54C91.4311 54.3977 92.7747 54.4212 94.1 54.61C95.83 55.07 95.9 52.95 97.4 52.86L97 55.67C93.64 55.67 90.34 55.67 87 55.67C86.8714 55.6606 86.7469 55.6202 86.6372 55.5523C86.5275 55.4844 86.4358 55.391 86.37 55.28C86.37 55.09 86.57 54.82 86.7 54.6C86.92 54.2 87.33 53.81 87.34 53.41C87.3867 49.81 87.3867 46.2067 87.34 42.6C87.34 42.2 86.92 41.81 86.69 41.41C86.6 41.15 86.44 40.9 86.16 40.49Z"/>
  <path d="M173.62 40.41C175.12 40.41 176.47 40.41 177.82 40.41C177.925 40.4246 178.025 40.4639 178.112 40.5248C178.199 40.5856 178.27 40.6662 178.32 40.76C178.37 40.93 178.19 41.16 178.09 41.35C177.88 41.72 177.47 42.08 177.47 42.45C177.47 46.24 177.47 50.04 177.47 53.84C177.493 54.0726 177.533 54.3033 177.59 54.53C180 54.22 182.71 55.73 184.46 52.38L184.59 53.02C184.59 53.11 184.71 53.19 184.7 53.27C184.4 55.66 184.39 55.66 181.93 55.66C179.47 55.66 177.15 55.66 174.77 55.66C174.422 55.5958 174.085 55.4812 173.77 55.32C173.978 55.063 174.168 54.7924 174.34 54.51C174.55 54.176 174.687 53.801 174.74 53.41C174.74 49.81 174.74 46.21 174.74 42.6C174.74 42.18 174.22 41.77 173.98 41.33C173.831 41.0355 173.711 40.7274 173.62 40.41Z"/>
  <path d="M101.99 59.11C102.611 58.8079 103.122 58.3203 103.454 57.7148C103.785 57.1092 103.92 56.4157 103.84 55.73C103.9 51.26 103.9 46.79 103.84 42.32C103.84 42.02 103.44 41.71 103.22 41.41L102.74 40.81C102.96 40.68 103.17 40.43 103.39 40.42C104.79 40.42 106.18 40.42 107.67 40.42C107.61 40.8 107.6 41.22 107.53 41.23C106.17 41.45 106.53 42.48 106.53 43.34C106.53 47.23 106.53 51.12 106.53 55C106.53 57.75 105.3 59.44 103.18 59.79C102.78 59.7871 102.384 59.7126 102.01 59.57L101.99 59.11Z"/>
  <path d="M39.72 54.32C39.8042 54.2507 39.8721 54.1637 39.9188 54.0652C39.9654 53.9667 39.9898 53.859 39.99 53.75C39.99 50.05 39.99 46.24 39.99 42.42C39.99 42.08 39.47 41.74 39.19 41.42C38.91 41.1 38.82 41.01 38.63 40.8L38.77 40.43C40.29 40.43 41.77 40.43 43.34 40.43C43.51 40.43 43.69 40.66 43.86 40.79C43.71 41 43.55 41.19 43.41 41.41C43.27 41.63 42.77 42.1 42.77 42.41C42.77 46.1 42.77 49.8 42.77 53.49C42.77 53.84 43.18 54.18 43.41 54.49L43.86 55.12C43.61 55.28 43.36 55.56 43.1 55.58C42.0809 55.6401 41.0591 55.6401 40.04 55.58C39.5884 55.4805 39.1538 55.3154 38.75 55.09L39.72 54.32Z"/>
  <path d="M56.84 40.49H61.84C61.84 40.7 61.93 41.04 61.84 41.05C60.42 41.56 60.77 42.76 60.77 43.79C60.77 46.96 60.77 50.12 60.77 53.28C60.77 53.72 61.22 54.14 61.46 54.57C61.6128 54.7783 61.7279 55.0119 61.8 55.26C61.8 55.38 61.48 55.63 61.3 55.64C59.99 55.64 58.68 55.64 57.36 55.64C57.16 55.64 56.97 55.33 56.78 55.17L57.97 54.17V41.8L56.63 40.8L56.84 40.49Z"/>
</svg>
