<svg xmlns="http://www.w3.org/2000/svg" focusable="false" role="img" viewBox="0 0 200 100" fill="currentColor">
  <path d="M142.5 52.9V52.3V41.7C142.5 40.7 142.8 40.4 143.7 40.4H145.1C146 40.4 146.3 40.7 146.3 41.6V55.8V58.5C146.3 59.3 146 59.6 145.2 59.6C142.7 59.7 142.7 59.7 141.3 57.7C138.8 54.3 136.3 50.9 133.9 47.5C133.8 47.3 133.7 47.2 133.4 46.9V47.6V58.3C133.4 59.3 133.1 59.6 132.1 59.6H130.6C130 59.6 129.6 59.2 129.6 58.6V41.4C129.6 40.7 130 40.4 130.6 40.4H132.4C133 40.4 133.3 40.6 133.6 41C136.4 44.8 139.1 48.5 141.9 52.3C142.1 52.5 142.2 52.7 142.4 52.9C142.5 53 142.5 52.9 142.5 52.9Z"/>
  <path d="M87.6 50C87.6 55.5 83.4 59.8 77.9 59.8C72.4 59.8 68.2 55.6 68.2 50C68.2 44.5 72.4 40.3 77.9 40.3C83.4 40.2 87.6 44.4 87.6 50ZM77.9 44C74.4 44 72 46.4 72 50C72 53.6 74.4 56 77.9 56C81.4 56 83.8 53.6 83.8 50C83.8 46.4 81.4 44 77.9 44Z"/>
  <path d="M123 52.2C124.3 54.1 125.5 56 126.7 57.9C126.9 58.3 127.2 58.6 126.9 59.1C126.6 59.5 126.2 59.6 125.8 59.6C122.7 59.5 123.6 60 122 57.5C121.1 56.1 120.2 54.7 119.4 53.3C119.2 53 119 52.9 118.7 52.9H114.6V54.9V58.4C114.6 59.2 114.3 59.5 113.5 59.5H111.8C111.1 59.5 110.8 59.2 110.8 58.4V50.2C110.8 49.4 111.1 49.1 111.9 49.1H119.4C120 49.1 120.6 49 121.1 48.9C122.2 48.6 122.8 48 122.9 46.9C123 45.8 122.6 44.8 121.6 44.3C121 44 120.3 43.9 119.7 43.9H112C111 43.9 110.7 43.6 110.7 42.6V41.2C110.7 40.5 111 40.2 111.7 40.2C114.6 40.2 117.5 40.1 120.4 40.2C125.6 40.5 127.3 44.7 126.3 48.4C125.9 49.9 125 51 123.6 51.6C123.5 51.7 123.4 51.7 123.3 51.7C123.2 52.1 123.1 52.2 123 52.2Z"/>
  <path d="M158.1 40.4C160 40.4 159.8 40.2 160.6 42.1C162.9 47.4 165.1 52.8 167.4 58.1C167.8 59 167.4 59.5 166.5 59.6H164.6C164.1 59.6 163.8 59.4 163.6 58.9C163.1 57.6 162.5 56.3 162 55C161.9 54.6 161.7 54.5 161.3 54.5H154.9C154.5 54.5 154.3 54.6 154.2 55C153.7 56.3 153.1 57.5 152.6 58.8C152.4 59.3 152 59.6 151.4 59.6H149.6C148.7 59.6 148.4 59 148.7 58.2L155.9 41.1C156.1 40.6 156.5 40.4 157 40.4H158.1ZM155.9 50.9H160.2C159.5 49.2 158.8 47.5 158.1 45.8C157.3 47.5 156.6 49.2 155.9 50.9Z"/>
  <path d="M106.4 52.7C105.9 57.2 101.8 60.3 97.3 59.7C93 59.1 90.1 55.9 90.1 51.6V41.5C90.1 40.7 90.4 40.4 91.2 40.4H92.8C93.6 40.4 93.9 40.7 93.9 41.5V51C93.9 51.8 94 52.6 94.3 53.3C95 55.2 96.9 56.2 99.1 55.9C101.5 55.6 102.8 53.9 102.9 51.4V41.7C102.9 40.7 103.2 40.4 104.2 40.4H105.6C106.4 40.4 106.7 40.7 106.7 41.5V46.6"/>
  <path d="M22.4 59.5H18.6C17.9 59.5 17.6 59.2 17.6 58.5V57C17.6 56.2 17.9 55.9 18.7 55.9C20.9 55.9 23.1 55.8 25.3 55.9C28.4 56 30.6 53.8 30.8 50.6C30.9 49.1 30.7 47.7 29.8 46.4C28.8 44.9 27.4 44.1 25.5 44.1H18.6C17.7 44.1 17.5 43.8 17.5 43V41.4C17.5 40.9 17.9 40.6 18.3 40.6C21 40.6 23.8 40.5 26.5 40.7C30.5 41.1 33.3 43.8 34.1 47.8C34.8 51.1 34.2 54.1 31.9 56.7C30.2 58.6 28.1 59.6 25.5 59.6C24.6 59.5 23.5 59.5 22.4 59.5Z"/>
  <path d="M43.6 52.7C43.4 53 43.3 53.1 43.1 53.3C41.7 55.2 40.2 57.1 38.8 59C38.5 59.3 38.2 59.5 37.8 59.5H35.6C35.2 59.5 34.9 59.4 34.7 59C34.5 58.6 34.6 58.2 34.9 57.9C37.1 55.1 39.2 52.3 41.3 49.5C43.4 46.7 45.6 43.9 47.7 41.1C48.1 40.6 48.6 40.4 49.2 40.4H50.8C51.3 40.4 51.7 40.5 51.9 40.9C52.1 41.4 51.9 41.7 51.6 42C49.8 44.4 48 46.8 46.1 49.1C45.8 49.5 45.8 49.7 46.1 50.1C48.1 52.6 50 55.1 51.9 57.6C52 57.8 52.2 57.9 52.2 58.1C52.5 58.7 52.2 59.3 51.5 59.4C50.6 59.4 49.8 59.5 48.9 59.4C48.6 59.4 48.3 59.1 48.1 58.9C46.6 57 45.2 55.1 43.8 53.2C43.9 53.1 43.8 53 43.6 52.7Z"/>
  <path d="M173.1 55.9H181.3C182.3 55.9 182.6 56.2 182.6 57.2V58.5C182.6 59.3 182.3 59.6 181.5 59.6H177.6H170.8C169.7 59.6 169.5 59.3 169.5 58.3V41.7C169.5 40.7 169.8 40.4 170.8 40.4H172.2C173 40.4 173.3 40.7 173.3 41.5V53.1C173.1 54.1 173.1 54.9 173.1 55.9Z"/>
  <path d="M65.7 47.5V53C65.7 53.9 65.6 54.8 65.3 55.6C64.4 58.5 61.6 60.2 58.3 59.7C56.4 59.4 54.8 58.7 53.6 57.2C52.9 56.3 52.6 55.4 52.5 54.3C52.4 53.5 52.8 53.2 53.6 53.2H55.4C55.9 53.2 56.3 53.4 56.4 53.9C56.8 56 59.3 56.4 60.7 55.8C61.7 55.4 61.9 54.6 62 53.7V52.5V41.8C62 40.7 62.3 40.4 63.4 40.4H64.6C65.5 40.4 65.8 40.7 65.8 41.6C65.8 43.6 65.7 45.6 65.7 47.5Z"/>
  <path d="M36.9 40.4H37.6C38.7 40.3 39.4 40.9 40 41.8C40.8 43.1 41.8 44.2 42.7 45.4C43 45.7 43.2 46.1 42.9 46.5C42.7 46.9 42.3 46.9 41.8 47C39.9 47.3 38.7 46.5 37.7 45C37 44 36.2 43 35.4 42C35.1 41.7 34.9 41.3 35.2 40.9C35.4 40.6 35.8 40.5 36.2 40.4H36.9Z"/>
</svg>
