<svg xmlns="http://www.w3.org/2000/svg" viewBox="0 0 200 100" fill="currentColor" focusable="false" role="img">
  <path d="M100 14C92.8799 14 85.9197 16.1114 79.9995 20.0671C74.0793 24.0228 69.4651 29.6453 66.7404 36.2234C64.0156 42.8015 63.3027 50.0399 64.6917 57.0232C66.0808 64.0066 69.5095 70.4211 74.5442 75.4558C79.5789 80.4905 85.9934 83.9192 92.9768 85.3083C99.9601 86.6973 107.198 85.9844 113.777 83.2597C120.355 80.5349 125.977 75.9207 129.933 70.0005C133.889 64.0803 136 57.1201 136 50C136 40.4522 132.207 31.2955 125.456 24.5442C118.705 17.7928 109.548 14 100 14V14ZM110.298 52.2605C110.687 49.6041 112.015 47.1749 114.04 45.4121C113.276 45.8408 112.535 46.3103 111.821 46.8186C111.347 47.178 110.787 47.4087 110.197 47.4884H107.3L105.333 60.5488C105.277 60.8552 105.118 61.1331 104.882 61.3358C104.645 61.5386 104.347 61.6539 104.035 61.6623H100.988C100.845 61.671 100.702 61.647 100.569 61.5922C100.437 61.5373 100.318 61.4531 100.223 61.3459C100.128 61.2386 100.058 61.1111 100.02 60.973C99.9811 60.835 99.9744 60.6899 100 60.5488L101.993 47.4884H99.707C99.5659 47.4954 99.4251 47.4698 99.2955 47.4138C99.1659 47.3577 99.0509 47.2725 98.9594 47.1649C98.868 47.0572 98.8025 46.93 98.7681 46.793C98.7337 46.656 98.7312 46.513 98.7609 46.3749L99.2047 43.6539C99.2638 43.3462 99.4264 43.068 99.6655 42.8654C99.9046 42.6629 100.206 42.5482 100.519 42.5405H102.746L103.667 36.4121C103.721 36.1042 103.879 35.8244 104.116 35.62C104.352 35.4155 104.652 35.2991 104.965 35.2902H108.02C108.162 35.2852 108.304 35.3122 108.434 35.3692C108.564 35.4263 108.679 35.5118 108.772 35.6196C108.864 35.7273 108.931 35.8545 108.968 35.9917C109.004 36.1289 109.01 36.2726 108.983 36.4121L108.054 42.5405H124.949C125.089 42.5351 125.229 42.5618 125.358 42.6184C125.487 42.675 125.601 42.7602 125.692 42.8674C125.783 42.9746 125.849 43.1011 125.884 43.2374C125.919 43.3736 125.923 43.5161 125.895 43.6539L125.451 46.3749C125.391 46.6819 125.228 46.9593 124.989 47.1616C124.75 47.3639 124.45 47.4791 124.137 47.4884H120.478C119.201 47.578 117.993 48.0992 117.051 48.9663C116.109 49.8335 115.49 50.9951 115.296 52.2605C115.194 52.8502 115.224 53.4552 115.385 54.0318C115.545 54.6084 115.831 55.1422 116.223 55.5947C116.615 56.0473 117.102 56.4072 117.65 56.6486C118.197 56.89 118.792 57.0068 119.39 56.9907C122.68 56.9907 124.17 53.9935 124.22 53.9265C124.333 53.7606 124.484 53.624 124.66 53.5279C124.836 53.4318 125.033 53.379 125.233 53.3739H128.222C128.357 53.36 128.493 53.3789 128.619 53.4291C128.745 53.4793 128.857 53.5593 128.945 53.6623C129.033 53.7652 129.095 53.8879 129.125 54.02C129.155 54.1521 129.153 54.2895 129.118 54.4205C128.934 55.7181 125.669 61.9553 118.72 61.9553C117.493 61.9883 116.275 61.7494 115.151 61.2557C114.028 60.7619 113.028 60.0257 112.223 59.0997C111.418 58.1738 110.828 57.0811 110.495 55.9C110.162 54.719 110.095 53.4789 110.298 52.2688V52.2605ZM71.1414 57.2167C70.8571 55.9742 70.8571 54.6835 71.1414 53.4409V53.4409C71.1988 53.152 71.3511 52.8904 71.574 52.6978C71.797 52.5052 72.0779 52.3925 72.3721 52.3777H75.1851C75.3255 52.372 75.4653 52.3985 75.5939 52.4552C75.7224 52.5118 75.8363 52.5972 75.9268 52.7046C76.0173 52.8121 76.082 52.9389 76.116 53.0752C76.15 53.2115 76.1523 53.3538 76.1228 53.4912C75.7042 55.1656 75.8382 57.0074 77.9479 57.0074C78.6378 57.0292 79.3121 56.8004 79.8462 56.3632C80.3804 55.9261 80.738 55.3103 80.853 54.6298C80.9451 54.1107 81.9498 47.4967 81.9498 47.4967H77.5126C77.3713 47.5034 77.2303 47.4777 77.1005 47.4217C76.9706 47.3656 76.8553 47.2806 76.7632 47.1733C76.6712 47.0659 76.6049 46.9389 76.5693 46.802C76.5338 46.6651 76.53 46.5219 76.5582 46.3833L77.0019 43.6623C77.0642 43.3546 77.2288 43.077 77.469 42.8748C77.7092 42.6726 78.0108 42.5577 78.3247 42.5488H82.7284L83.3312 38.4549C83.7665 35.6 86.2447 30.5767 92.3479 30.5767C93.8284 30.5442 95.2788 30.9972 96.4776 31.8665C97.6764 32.7357 98.5577 33.9735 98.987 35.3907C99.1717 36.6299 99.1292 37.8923 98.8614 39.1163C98.8072 39.4255 98.6474 39.7064 98.4092 39.911C98.171 40.1156 97.8693 40.2312 97.5554 40.2381H94.3237C94.1818 40.2431 94.0406 40.2161 93.9106 40.1591C93.7805 40.1021 93.665 40.0166 93.5725 39.9088C93.48 39.801 93.413 39.6738 93.3764 39.5367C93.3397 39.3995 93.3345 39.2558 93.3609 39.1163L93.52 38.0865C93.52 37.6595 93.7712 35.5749 91.4772 35.5749C89.1833 35.5749 88.7144 37.9609 88.7144 37.9609L88.0195 42.5237H95.5042C96.1703 42.5237 96.8092 42.7883 97.2802 43.2594C97.7512 43.7304 98.0158 44.3692 98.0158 45.0353C98.0158 45.5042 95.6633 60.6242 95.6633 60.6242C95.6113 60.9127 95.4612 61.1745 95.2385 61.3652C95.0158 61.5558 94.7341 61.6638 94.4409 61.6707H91.2595C91.1269 61.6754 90.995 61.6502 90.8733 61.5971C90.7517 61.5441 90.6436 61.4644 90.5568 61.364C90.4701 61.2636 90.4069 61.145 90.3721 61.017C90.3372 60.8889 90.3315 60.7547 90.3554 60.6242L92.3228 47.4884H87.2995L86.1944 54.6632C85.7586 56.681 84.6673 58.4978 83.0909 59.8305C81.5144 61.1632 79.5412 61.9368 77.4791 62.0307C76.0331 62.0668 74.6179 61.6099 73.4661 60.735C72.3143 59.8601 71.4945 58.6194 71.1414 57.2167V57.2167Z"/>
</svg>
