<svg xmlns="http://www.w3.org/2000/svg" focusable="false" role="img" viewBox="0 0 200 100" fill="currentColor">
  <path d="M70.7719 14.0314H1.32619C0.99759 14.0286 0.681195 14.1558 0.445912 14.3852C0.210629 14.6146 0.0755181 14.9277 0.0700073 15.2562V84.7438C0.0700073 85.077 0.202354 85.3965 0.437933 85.6321C0.673513 85.8677 0.993026 86 1.32619 86H70.7719C71.106 86 71.4266 85.868 71.6639 85.6327C71.9011 85.3974 72.0358 85.0779 72.0386 84.7438V15.2562C72.0386 15.0904 72.0057 14.9262 71.9419 14.7731C71.8782 14.62 71.7847 14.481 71.6669 14.3642C71.5492 14.2475 71.4095 14.1552 71.2558 14.0926C71.1022 14.0301 70.9378 13.9987 70.7719 14V14.0314ZM70.573 84.5031H1.53555V15.497H70.6254L70.573 84.5031ZM22.2939 71.1666H23.1942C23.2798 71.164 23.3615 71.1305 23.4245 71.0724C23.4545 71.0421 23.4783 71.0062 23.4945 70.9667C23.5107 70.9271 23.5189 70.8848 23.5187 70.8421V65.294H32.94C33.0276 65.2949 33.1127 65.2653 33.1808 65.2103C33.2329 65.1446 33.2623 65.0638 33.2645 64.9799V64.0692C33.2639 63.9851 33.2343 63.9038 33.1808 63.8389C33.1141 63.7801 33.0289 63.7467 32.94 63.7447H23.5187V59.4318H33.5681L37.7554 70.9468C37.7839 70.9807 37.819 71.0084 37.8586 71.0282C37.8982 71.048 37.9414 71.0595 37.9857 71.0619H38.8964C38.9851 71.0547 39.0676 71.0134 39.1267 70.9468L42.9685 60.3949L46.9464 70.9468C46.9751 70.9839 47.0114 71.0143 47.053 71.036C47.0946 71.0577 47.1403 71.0701 47.1872 71.0724H48.1502C48.1956 71.07 48.2398 71.0575 48.2797 71.0358C48.3195 71.014 48.354 70.9836 48.3805 70.9468L52.5678 59.4318V70.8421C52.5685 70.9262 52.598 71.0075 52.6515 71.0724C52.7182 71.1312 52.8035 71.1646 52.8923 71.1666H63.9362C63.9788 71.1666 64.021 71.1582 64.0604 71.1419C64.0998 71.1256 64.1355 71.1017 64.1657 71.0716C64.1958 71.0415 64.2197 71.0057 64.236 70.9663C64.2523 70.9269 64.2607 70.8847 64.2607 70.8421V69.9419C64.2612 69.8494 64.2277 69.76 64.1665 69.6906C64.1362 69.6605 64.1003 69.6367 64.0607 69.6206C64.0212 69.6044 63.9789 69.5962 63.9362 69.5964H54.2113V65.294H63.6326C63.7174 65.2973 63.8001 65.2672 63.8629 65.2103C63.9218 65.1479 63.9554 65.0658 63.9571 64.9799V64.0692C63.9574 64.0265 63.9492 63.9842 63.933 63.9447C63.9168 63.9052 63.893 63.8692 63.8629 63.8389C63.8 63.7808 63.7182 63.7474 63.6326 63.7447H54.2113V59.4318H63.9362C63.9789 59.432 64.0212 59.4238 64.0607 59.4077C64.1003 59.3915 64.1362 59.3677 64.1665 59.3376C64.2246 59.2747 64.258 59.1929 64.2607 59.1073V58.1756C64.2563 58.0904 64.2231 58.0092 64.1665 57.9453C64.1362 57.9153 64.1003 57.8915 64.0607 57.8753C64.0212 57.8591 63.9789 57.8509 63.9362 57.8511H51.856C51.7897 57.8496 51.7247 57.869 51.6702 57.9066C51.6157 57.9442 51.5744 57.998 51.5524 58.0605L47.7106 68.6438L43.8688 58.0919C43.8403 58.058 43.8051 58.0303 43.7655 58.0105C43.7259 57.9907 43.6827 57.9792 43.6385 57.9768H42.7382C42.646 57.9825 42.5597 58.0237 42.4974 58.0919L38.5091 68.6438L34.6777 58.0919C34.6809 58.0641 34.6809 58.036 34.6777 58.0082C34.6777 58.0082 34.6777 58.0082 34.6149 58.0082H34.4998H22.2939C22.2342 58.0093 22.1761 58.0275 22.1264 58.0605H22.0636C22.0275 58.0922 21.9989 58.1315 21.9799 58.1756V70.8421C21.9796 70.8848 21.9878 70.9271 22.004 70.9667C22.0202 71.0062 22.044 71.0421 22.0741 71.0724C22.138 71.129 22.2191 71.1622 22.3044 71.1666"/>
</svg>
