<svg xmlns="http://www.w3.org/2000/svg" focusable="false" role="img" viewBox="0 0 200 100" fill="currentColor">
  <path fill-rule="evenodd" d="M17.41 26.4C15.5599 23.47 12.75 22.31 8.74995 22.15C7.55561 22.3636 6.38385 22.6883 5.24995 23.12C-0.200049 25.52 -1.34005 32 2.90995 35.91C4.86139 37.6102 7.40155 38.4776 9.9853 38.3262C12.569 38.1747 14.9905 37.0165 16.7299 35.1C17.7651 33.9165 18.3905 32.4304 18.513 30.8628C18.6356 29.2952 18.2487 27.73 17.41 26.4ZM68.87 27.92V29.38V66.21C68.87 70.21 69.61 73.91 72.87 76.87H54L53.39 72.28C53.2633 72.394 53.1599 72.4812 53.072 72.5553C52.9518 72.6566 52.8609 72.7333 52.78 72.82C48.86 76.92 43.98 78.09 38.52 77.45C34.841 77.1352 31.3489 75.693 28.52 73.32C25.14 70.3102 23.0011 66.1502 22.52 61.65C21.6184 56.5473 22.5726 51.2904 25.21 46.83C27.3402 43.2687 30.7221 40.63 34.6945 39.4298C38.6669 38.2296 42.9441 38.5541 46.69 40.34C47.3086 40.6527 47.8856 41.0439 48.5089 41.4666L48.509 41.4667L48.5097 41.4672L48.5101 41.4674C48.8034 41.6663 49.107 41.8721 49.43 42.08V27.92H68.87ZM41.7304 59.4753L41.7304 59.4755L41.7304 59.4756L41.7304 59.4758L41.7305 59.4759C41.7494 59.7276 41.7684 59.9796 41.78 60.23C41.7114 62.0661 42.1582 63.8848 43.07 65.48C43.3258 65.9046 43.683 66.2591 44.1094 66.512C44.5358 66.7648 45.0182 66.908 45.5135 66.9288C46.0088 66.9496 46.5016 66.8474 46.9477 66.6312C47.3938 66.415 47.7794 66.0916 48.07 65.69C48.6218 64.9438 49.0071 64.0878 49.2 63.18C49.805 60.0725 49.805 56.8775 49.2 53.77C49.0439 52.8904 48.7287 52.0466 48.27 51.28C48.0155 50.7962 47.6336 50.3912 47.1657 50.1087C46.6978 49.8261 46.1616 49.6768 45.615 49.6768C45.0684 49.6768 44.5321 49.8261 44.0642 50.1087C43.5963 50.3912 43.2145 50.7962 42.96 51.28C42.5016 52.0087 42.1923 52.821 42.05 53.67C41.9422 54.5859 41.8775 55.5089 41.8128 56.4306C41.7695 57.0486 41.7262 57.6659 41.67 58.28C41.67 58.6732 41.7002 59.074 41.7304 59.4753ZM131.59 77.85C126.18 77.55 120.98 76.73 116.28 73.68C113.956 72.1487 112.022 70.0952 110.633 67.6835C109.244 65.2717 108.438 62.5686 108.28 59.79C107.87 53.51 109.63 48.05 114.55 43.93C117.864 41.2596 121.878 39.6001 126.11 39.15C130.237 38.5186 134.441 38.5998 138.54 39.39C150.13 41.8 157.62 53.54 153.83 64.76C151.83 70.76 147.03 74.96 139.96 76.62C138.096 77.0501 136.19 77.2798 134.284 77.5096L134.283 77.5096L134.283 77.5096L134.283 77.5097C133.397 77.6164 132.512 77.7231 131.63 77.85H131.59ZM135.59 58.93C135.66 58.4056 135.66 57.8744 135.59 57.35C135.437 55.7468 135.19 54.154 134.85 52.58C134.32 50.38 133.12 49.36 131.61 49.39C130.1 49.42 128.88 50.59 128.31 52.71C127.64 55.3212 127.47 58.0357 127.81 60.71C127.972 62.1233 128.287 63.5148 128.75 64.86C128.932 65.4479 129.29 65.9656 129.776 66.343C130.262 66.7205 130.852 66.9393 131.467 66.9699C132.082 67.0004 132.691 66.8412 133.212 66.5139C133.733 66.1866 134.141 65.7069 134.38 65.14C134.731 64.3803 134.977 63.5762 135.11 62.75C135.264 61.554 135.409 60.3487 135.563 59.0713L135.564 59.0608L135.565 59.0576L135.58 58.93H135.59ZM98.34 38V29.58C98.1393 29.5861 97.939 29.6028 97.74 29.63C95.8775 29.8992 94.014 30.1705 92.1498 30.4418L92.1496 30.4419L92.1495 30.4419C88.1285 31.0272 84.1043 31.6129 80.08 32.18C79.48 32.27 79.31 32.56 79.31 33.11V38.06C79.3051 38.7434 79.3026 39.0884 79.1289 39.2625C78.9518 39.44 78.5968 39.44 77.88 39.44H72.49C71.74 39.44 71.42 39.59 71.42 40.44V50.44C71.4384 50.7486 71.4751 51.0558 71.53 51.36C72.228 51.36 72.91 51.3691 73.5842 51.3781C74.9095 51.3958 76.2044 51.413 77.53 51.36C78.6 51.32 78.93 51.59 78.93 52.72C78.8767 58.18 78.8767 63.6333 78.93 69.08C78.863 71.5632 79.5612 74.007 80.93 76.08C81.1116 76.3816 81.3731 76.6271 81.6854 76.7894C81.9977 76.9518 82.3489 77.0247 82.7 77C88.84 77 95 77 101.03 76.97C101.201 76.97 101.37 76.9522 101.538 76.9346C101.702 76.9172 101.866 76.9 102.03 76.9V76.7C101.955 76.5816 101.868 76.471 101.77 76.37C100.654 75.295 99.7703 74.0034 99.1719 72.5744C98.5734 71.1454 98.2734 69.6092 98.29 68.06V52.23C98.29 51.49 98.63 51.32 99.29 51.32H104.46H107.32V39.44H99.82C99.0733 39.44 98.7033 39.44 98.52 39.255C98.34 39.0734 98.34 38.7134 98.34 38ZM19.27 39.63V76.88H0V39.63H19.27Z" clip-rule="evenodd"/>
</svg>
