<svg xmlns="http://www.w3.org/2000/svg" focusable="false" role="img" viewBox="0 0 200 100" fill="currentColor">
  <path fill-rule="evenodd" d="M0.199951 85.11V16.18H69.12V85.11H0.199951ZM18.29 71.42H24.08L24.12 42.62H9.11995V48.07H18.29V71.42ZM16.08 36.91H24.08V29.68H16.08V36.91ZM60.1899 59.78V59.57V54.5C60.1688 51.2818 58.8749 48.2028 56.5908 45.9356C54.3067 43.6684 51.2182 42.3973 48 42.4H45.4799C43.8785 42.3506 42.2829 42.6172 40.7845 43.1846C39.286 43.7519 37.914 44.6088 36.7467 45.7064C35.5795 46.804 34.6399 48.1208 33.9815 49.5816C33.3232 51.0424 32.9591 52.6185 32.91 54.22V59.6C32.9334 61.1995 33.2717 62.7788 33.9056 64.2476C34.5395 65.7164 35.4565 67.0459 36.6043 68.1602C37.7521 69.2746 39.1081 70.1519 40.595 70.7421C42.0818 71.3323 43.6704 71.6238 45.27 71.6H47.6699C50.8973 71.6915 54.0289 70.4979 56.3765 68.2815C58.7242 66.0651 60.0958 63.0072 60.1899 59.78ZM45.05 48.07H47.73L47.76 48.06C49.4492 47.9868 51.0984 48.587 52.3453 49.7289C53.5921 50.8708 54.3348 52.4609 54.41 54.15C54.42 54.2531 54.42 54.3569 54.41 54.46V59.61C54.4154 61.296 53.7521 62.9153 52.5655 64.1131C51.379 65.3109 49.766 65.9894 48.08 66H45.4501C43.7727 66.0818 42.131 65.4968 40.8833 64.3728C39.6356 63.2487 38.8831 61.6768 38.7901 60V54.46C38.7871 52.7868 39.4417 51.1794 40.6126 49.9841C41.7835 48.7889 43.3771 48.1015 45.05 48.07Z" clip-rule="evenodd"/>
</svg>
