<svg xmlns="http://www.w3.org/2000/svg" focusable="false" role="img" viewBox="0 0 200 100" fill="currentColor">
  <path fill-rule="evenodd" d="M0 81.7247V18H200V81.7247H0ZM85.2345 53.8775L94.9302 70.2157L106.633 70.3638L95.7073 52.9801C98.492 52.203 103.849 48.8632 103.849 41.3972C103.849 33.9312 98.6123 29.694 88.9166 29.694H71.0519V70.2157H81.2286V53.8775H85.2345ZM128.578 71.2149C140.725 71.2149 145.962 64.0912 145.962 64.0912L145.971 46.1617H127.81V54.0995H136.053V60.7514C136.053 60.7514 133.944 62.981 128.92 62.981C123.897 62.981 119.669 59.5302 119.669 49.9456C119.669 40.361 124.008 36.9102 129.022 36.9102C130.611 36.8468 132.183 37.2617 133.534 38.1012C134.885 38.9407 135.952 40.1662 136.599 41.6192L145.185 37.604C144.74 36.3828 140.716 28.8058 128.911 28.8058C117.106 28.8058 109.085 36.7159 109.085 49.8623C109.085 63.0088 116.431 71.2149 128.578 71.2149ZM153.65 70.2157H169.47C182.172 70.2157 189.749 62.6757 189.749 49.9734C189.749 37.271 182.172 29.694 169.47 29.694H153.65V70.2157ZM87.6862 37.382H81.2101V46.3005H87.6862C90.9242 46.3005 93.2371 44.959 93.2371 41.8412C93.2556 38.5014 90.9242 37.382 87.6862 37.382ZM167.805 37.8353H163.678V62.1206H167.805C175.826 62.1206 179.166 57.9944 179.166 49.9734C179.166 41.9523 175.826 37.8353 167.805 37.8353Z" clip-rule="evenodd"/>
</svg>
