<svg xmlns="http://www.w3.org/2000/svg" focusable="false" role="img" viewBox="0 0 200 100" fill="currentColor">
  <g clip-path="url(#clip0_102:85)">
    <path fill-rule="evenodd" d="M115.124 57.3712C119.216 61.4696 124.767 63.7757 130.559 63.7826L130.55 63.8261C133.42 63.8368 136.263 63.2754 138.914 62.1746C141.565 61.0738 143.969 59.4557 145.987 57.415L149.879 53.5145C150.071 53.3167 150.179 53.0518 150.179 52.776C150.179 52.5003 150.071 52.2354 149.879 52.0376L144.241 46.3736C144.046 46.1826 143.784 46.0756 143.511 46.0756C143.238 46.0756 142.976 46.1826 142.782 46.3736L138.907 50.2307C137.255 51.875 135.153 52.9931 132.866 53.4438C130.579 53.8945 128.21 53.6577 126.058 52.7632C123.905 51.8687 122.066 50.3566 120.772 48.4177C119.478 46.4789 118.788 44.2003 118.788 41.8694C118.788 39.5385 119.478 37.2598 120.772 35.321C122.066 33.3822 123.905 31.8701 126.058 30.9756C128.21 30.081 130.579 29.8442 132.866 30.2949C135.153 30.7456 137.255 31.8637 138.907 33.508L162.684 57.415L162.753 57.4758C166.845 61.5509 172.389 63.8337 178.164 63.8223C183.939 63.8109 189.473 61.5062 193.549 57.415C197.664 53.322 199.984 47.762 200 41.9581C200.015 36.1543 197.725 30.582 193.632 26.4671C189.539 22.3522 183.979 20.0318 178.175 20.0163C172.371 20.0008 166.799 22.2916 162.684 26.3846L158.792 30.3025C158.603 30.4984 158.497 30.76 158.497 31.0322C158.497 31.3044 158.603 31.566 158.792 31.7619L164.43 37.4346C164.625 37.6256 164.887 37.7326 165.16 37.7326C165.432 37.7326 165.694 37.6256 165.889 37.4346L169.746 33.5428C171.964 31.3344 174.968 30.0974 178.098 30.1039C179.647 30.1072 181.181 30.4156 182.611 31.0116C184.042 31.6076 185.341 32.4795 186.434 33.5775C188.643 35.7951 189.88 38.7991 189.873 41.9287C189.867 45.0583 188.617 48.0571 186.4 50.2655C184.192 52.4723 181.199 53.712 178.077 53.712C174.956 53.712 171.963 52.4723 169.755 50.2655L145.987 26.4019C142.931 23.3408 139.034 21.2574 134.791 20.4163C130.548 19.5753 126.151 20.0146 122.159 21.6785C118.166 23.3424 114.758 26.1557 112.368 29.7609C109.979 33.3661 108.714 37.6005 108.737 41.9258C108.734 47.7173 111.032 53.2727 115.124 57.3712ZM2.91887 52.055L0.312737 56.6939C-0.0755693 57.5043 0.0692994 57.6831 0.516193 58.2346L0.555976 58.2837C1.89379 59.5346 6.40241 62.5491 13.6562 62.5491C21.8655 62.5491 27.3644 56.7461 27.3644 50.9952C27.3644 43.394 20.0238 40.0494 15.6108 38.2599C11.1977 36.4703 8.98249 34.9066 8.98249 32.8391C8.98249 31.3362 11.0326 29.9897 13.0481 29.9897C16.0781 29.9897 20.076 32.437 21.2614 33.1626C21.4048 33.2504 21.5071 33.3129 21.5614 33.343C22.2825 33.7252 22.7863 33.5775 23.4552 32.6132L26.3046 28.3131C26.3558 28.2551 26.3996 28.1909 26.4349 28.122C26.584 27.85 26.6193 27.53 26.533 27.232C26.4467 26.9341 26.2459 26.6825 25.9745 26.5322C22.2974 23.9367 17.9378 22.4805 13.439 22.3451C4.83873 22.3451 0 27.9309 0 33.4646C0 40.1537 6.54141 43.8978 11.2933 45.7916C15.0895 47.3118 17.5741 49.0927 17.5741 51.4382C17.5741 53.3928 15.4631 54.7915 13.2305 54.7915C9.93323 54.7915 5.93983 52.4176 4.97687 51.8452C4.86411 51.7782 4.79291 51.7358 4.76923 51.7249C4.47935 51.5256 4.12263 51.4485 3.77631 51.5103C3.43 51.5721 3.12195 51.7678 2.91887 52.055ZM93.8991 23.9695V43.7849L72.5288 23.2746C72.3103 22.9967 72.0302 22.7736 71.7105 22.6228C71.3909 22.472 71.0405 22.3977 70.6871 22.4059H70.218C69.9449 22.4078 69.683 22.5141 69.4859 22.7032C69.2888 22.8922 69.1715 23.1495 69.1582 23.4223L69.219 60.9506C69.2317 61.2276 69.3475 61.4899 69.5435 61.686C69.7396 61.882 70.0018 61.9978 70.2788 62.0105H76.9766C77.2577 62.0105 77.5273 61.8988 77.726 61.7001C77.9248 61.5013 78.0364 61.2317 78.0364 60.9506V40.1015L99.6848 61.9236C100.025 62.298 100.5 62.5228 101.005 62.5491H101.648C101.92 62.5538 102.183 62.452 102.381 62.2653C102.579 62.0787 102.697 61.822 102.708 61.5501V23.9695C102.699 23.6895 102.586 23.423 102.389 23.2232C102.193 23.0235 101.928 22.9054 101.648 22.8923H94.9416C94.6612 22.8992 94.3948 23.016 94.1998 23.2175C94.0047 23.419 93.8968 23.6891 93.8991 23.9695ZM31.3431 23.9695C31.3406 23.6935 31.445 23.4271 31.6344 23.2263C31.8239 23.0255 32.0838 22.9058 32.3595 22.8923H45.9549C48.5217 22.7857 51.0844 23.1856 53.4967 24.0694C55.9089 24.9531 58.1235 26.3033 60.0139 28.0429C61.9044 29.7825 63.4336 31.8774 64.5145 34.208C65.5953 36.5386 66.2065 39.0593 66.3132 41.6261C66.4198 44.1929 66.0199 46.7556 65.1361 49.1679C64.2524 51.5801 62.9022 53.7947 61.1626 55.6852C59.423 57.5756 57.3281 59.1049 54.9975 60.1857C52.6669 61.2665 50.1462 61.8777 47.5794 61.9844H46.9105H32.3595C32.2203 61.9811 32.0832 61.9499 31.9563 61.8928C31.8293 61.8356 31.7151 61.7536 31.6204 61.6516C31.5256 61.5496 31.4523 61.4296 31.4047 61.2988C31.3571 61.1679 31.3361 61.0289 31.3431 60.8898V23.9695ZM45.4684 53.7229C51.7753 53.7229 56.3794 48.7278 56.3794 42.3949C56.4923 39.5156 55.4579 36.7091 53.5034 34.5917C51.5489 32.4744 48.834 31.2191 45.9549 31.1017H40.1345V53.6882L45.4684 53.7229ZM3.25767 80.8702C2.4648 80.8777 1.68156 80.6961 0.972954 80.3403L1.13801 79.1328C1.77203 79.5661 2.51622 79.8102 3.28373 79.8364C4.15244 79.8364 4.74317 79.3847 4.74317 78.5855C4.74317 77.7863 4.39568 77.543 3.17948 76.9784C1.65055 76.3529 1.05982 75.8664 1.05982 74.6937C1.06323 74.405 1.12345 74.1199 1.23706 73.8545C1.35066 73.5892 1.51543 73.3488 1.72194 73.1471C1.92845 72.9455 2.17267 72.7865 2.44064 72.6792C2.70862 72.5719 2.9951 72.5184 3.28373 72.5219H3.54434C4.19991 72.5315 4.84127 72.7143 5.40339 73.0518L5.22096 74.1637C4.72226 73.7795 4.11299 73.5663 3.48353 73.5557C2.55401 73.5557 2.13703 74.0508 2.13703 74.6502C2.13703 75.2496 2.44976 75.5797 3.69202 76.1444C5.27308 76.8654 5.82037 77.3954 5.82037 78.6463C5.80668 79.2684 5.54813 79.8601 5.10084 80.2927C4.65356 80.7254 4.05366 80.9641 3.43141 80.9571L3.25767 80.8702ZM9.86857 72.6435V80.8094L14.3859 80.8007V79.7843H10.9805V77.0305H13.7517L13.5867 76.0228H10.9805V73.6686H14.2729V72.6435H9.86857ZM23.8288 80.6443L22.6473 80.8702L20.1541 77.3954H19.2854V80.8702H18.1995V72.6435H20.4234C22.1 72.6435 23.1338 73.5122 23.1338 74.9977C23.1522 75.5253 22.9822 76.0423 22.6544 76.4561C22.3265 76.8699 21.8621 77.1536 21.3443 77.2564L23.8288 80.6443ZM20.4234 73.5904H19.3549V76.3877H20.3105C21.379 76.3877 22.0479 75.9012 22.0479 74.989C22.0479 74.0769 21.4833 73.6338 20.3974 73.6338L20.4234 73.5904ZM29.7534 80.8702H30.7437L33.9927 72.6609H32.82L30.3181 79.376L27.7814 72.6001L26.6 72.852L29.7534 80.8702ZM37.7369 80.8094V72.6435H38.9096V80.8094H37.7369ZM43.0534 76.7438C43.0534 79.2283 44.4694 80.9658 46.8236 80.9658C47.7093 80.9637 48.5732 80.6909 49.2994 80.1839L49.1344 79.1328C48.4817 79.6705 47.6689 79.9761 46.8236 80.0015C45.1904 80.0015 44.2175 78.7506 44.2175 76.7786C44.2175 74.8066 45.1644 73.5643 46.8236 73.5643C47.6285 73.5643 48.4084 73.8438 49.0301 74.3549L49.1952 73.1734C48.5028 72.7023 47.6779 72.4648 46.841 72.4958C44.5476 72.4958 43.0534 74.2593 43.0534 76.7438ZM53.3389 80.8094V72.6435H57.7346V73.6686H54.4509V76.0228H57.0049L57.17 77.0305H54.4509V79.7843H57.8649V80.8007L53.3389 80.8094ZM66.943 80.8094H69.2885C72.0944 80.8094 73.6321 79.1067 73.6321 76.7178C73.6321 74.3288 72.1292 72.6435 69.2885 72.6435H66.943V80.8094ZM68.081 73.6599H69.4101L69.3406 73.6773C69.4679 73.6686 69.5956 73.6686 69.7229 73.6773H69.9835C70.7849 73.777 71.5152 74.187 72.0176 74.8194C72.5199 75.4517 72.7541 76.2559 72.6699 77.0591C72.5858 77.8623 72.1899 78.6004 71.5673 79.1149C70.9448 79.6293 70.1453 79.879 69.3406 79.8104H68.081V73.6599ZM77.7411 80.8094V72.6435H82.1455V73.6686H78.9138V76.0228H81.4678L81.6329 77.0305H78.9138V79.7843H82.3279V80.8007L77.7411 80.8094ZM85.9765 80.3403C86.6661 80.6886 87.4278 80.8701 88.2004 80.8702H88.4523C89.0692 80.868 89.6606 80.6237 90.0992 80.19C90.5379 79.7562 90.7887 79.1676 90.7978 78.5508C90.7978 77.3259 90.2418 76.7699 88.6695 76.0489C87.4185 75.4842 87.1145 75.1541 87.1145 74.5547C87.1145 73.9553 87.5228 73.4601 88.4523 73.4601C89.0818 73.4707 89.691 73.684 90.1897 74.0682L90.3635 72.9562C89.8051 72.6318 89.1674 72.4693 88.5218 72.4871H88.2872C87.9986 72.4837 87.7121 72.5371 87.4442 72.6444C87.1762 72.7517 86.932 72.9107 86.7255 73.1124C86.5189 73.3141 86.3542 73.5544 86.2406 73.8198C86.127 74.0852 86.0667 74.3703 86.0633 74.6589C86.0633 75.8317 86.6454 76.3182 88.1743 77.0131C89.4166 77.5778 89.7467 77.821 89.7467 78.6203C89.7467 79.4195 89.156 79.8712 88.2872 79.8712C87.5197 79.8449 86.7756 79.6009 86.1415 79.1675L85.9765 80.3403ZM94.8721 80.8094V72.6435H95.9754V80.8094H94.8721ZM100.18 76.7438C100.18 79.2283 101.552 80.9658 104.159 80.9658C105.119 80.9634 106.06 80.6959 106.878 80.1926V76.3703H103.742L103.863 77.3954H105.748V79.6019C105.244 79.889 104.669 80.0275 104.089 80.0015C102.213 80.0015 101.301 78.7506 101.301 76.7786C101.301 74.8066 102.23 73.5643 104.02 73.5643C104.871 73.5572 105.699 73.8424 106.365 74.3722L106.548 73.1995C105.813 72.7112 104.944 72.4651 104.063 72.4958C101.631 72.4958 100.18 74.2593 100.18 76.7438ZM116.772 80.8094L112.29 74.4591V80.8094H111.256V72.6435H112.255L116.599 78.7245V72.6435H117.624V80.8094H116.772ZM128.335 74.4591L132.774 80.8094H133.695V72.6435H132.644V78.7245L128.3 72.6435H127.31V80.8094H128.335V74.4591ZM138.125 80.8094V72.6435H142.53V73.6686H139.237V76.0228H141.843L142.008 77.0305H139.281V79.7843H142.686V80.8007L138.125 80.8094ZM149.836 80.8094V73.6686H152.52L152.337 72.6435H146.126V73.6686H148.732V80.8094H149.836ZM164.673 80.8094H163.744L161.494 74.1985L159.287 80.8094H158.366L155.943 72.8259L157.037 72.574L158.887 79.0546L160.972 72.6435H162.076L164.161 79.0546L165.95 72.6435H167.123L164.673 80.8094ZM170.355 76.7438C170.355 79.2283 171.805 80.9658 174.099 80.9658C176.401 80.9658 177.878 79.2023 177.878 76.7178C177.878 74.2333 176.418 72.4958 174.125 72.4958C171.831 72.4958 170.355 74.2593 170.355 76.7438ZM171.493 76.7265C171.493 74.7632 172.483 73.5122 174.099 73.5122C175.714 73.5122 176.705 74.7632 176.705 76.7265C176.705 78.6898 175.706 79.9494 174.099 79.9494C172.492 79.9494 171.493 78.6898 171.493 76.7265ZM187.598 80.6443L186.417 80.8963L183.924 77.4214H183.055V80.8963H181.952V72.6435H184.176C185.844 72.6435 186.886 73.5122 186.886 74.9977C186.904 75.5253 186.735 76.0423 186.407 76.4561C186.079 76.8699 185.614 77.1536 185.097 77.2564L187.598 80.6443ZM184.202 73.5904H183.133V76.3877H184.08C185.149 76.3877 185.818 75.9012 185.818 74.989C185.818 74.0769 185.253 73.6338 184.167 73.6338L184.202 73.5904ZM192.394 76.6396L196.242 80.8702L197.441 80.6704L193.636 76.4658L197.206 72.6783H195.869L192.394 76.3529V72.6174H191.212V80.7833H192.394V76.6396Z" clip-rule="evenodd"/>
  </g>
  <defs>
    <clipPath id="clip0_102:85">
      <rect width="200" height="100"/>
    </clipPath>
  </defs>
</svg>
