<svg xmlns="http://www.w3.org/2000/svg" focusable="false" role="img" viewBox="0 0 200 100" fill="currentColor">
  <path d="M100.17 33.7776C100.118 33.8994 100.081 34.027 100.06 34.1576L106.06 66.1576C106.12 66.4976 106.48 67.0376 106.72 67.0376C109.66 67.0976 112.61 67.0376 115.58 67.0376C116.58 60.0376 117.58 53.3276 118.58 46.5876H119C120 53.3776 121 60.1576 122 66.9876H131.37C133.46 55.9276 135.53 44.9276 137.62 33.8076H129.75L126.3 54.6476H126C125 47.6476 123.92 40.7276 122.88 33.8276H115.2C114.2 40.7076 113.2 47.4776 112.14 54.2576H111.76L108.37 33.7776H100.17ZM174.89 40.6476L167.89 33.7576L150.39 51.1776V33.7776H141.82V66.9576H175.11V58.2976H157.11L174.89 40.6476ZM75.44 55.3076C74.9563 57.7678 75.405 60.32 76.6988 62.4677C77.9926 64.6154 80.039 66.2051 82.44 66.9276C85.5937 67.936 88.9704 68.0193 92.17 67.1676C94.2051 66.7248 96.04 65.6296 97.3956 64.0484C98.7512 62.4671 99.5533 60.4865 99.68 58.4076C100.08 53.5276 98.23 50.2876 93.79 48.3076C92.22 47.6076 90.56 47.1376 88.94 46.5576C87.67 46.0976 86.37 45.6976 85.14 45.1376C84.5609 44.879 84.0918 44.4241 83.8155 43.8532C83.5392 43.2823 83.4735 42.6322 83.63 42.0176C83.7173 41.3922 84.0195 40.8167 84.4848 40.3897C84.9501 39.9628 85.5494 39.711 86.18 39.6776C89.18 39.2076 91.26 40.7776 91.6 43.8276C91.67 44.4276 91.73 45.0376 91.8 45.5976H99.22C99.2484 44.5949 99.1949 43.5916 99.06 42.5976C98.5 38.3876 96.37 35.3076 92.25 33.8876C89.0125 32.7574 85.4875 32.7574 82.25 33.8876C80.3594 34.5057 78.7045 35.6901 77.5096 37.2803C76.3147 38.8706 75.6376 40.7896 75.57 42.7776C75.36 47.7776 77.19 50.9376 81.45 52.7776C82.78 53.3476 84.21 53.7076 85.59 54.1776C86.97 54.6476 88.47 55.0776 89.86 55.6676C90.4258 55.8908 90.8976 56.3018 91.1962 56.8317C91.4948 57.3615 91.6021 57.978 91.5 58.5776C91.4546 59.1819 91.2101 59.7541 90.8047 60.2047C90.3994 60.6552 89.8562 60.9587 89.26 61.0676C88.5575 61.3223 87.8054 61.4098 87.0632 61.3232C86.321 61.2367 85.6092 60.9784 84.9842 60.5688C84.3592 60.1593 83.8382 59.6097 83.4626 58.9638C83.0869 58.3179 82.8669 57.5933 82.82 56.8476C82.76 56.3476 82.72 55.8476 82.67 55.3276L75.44 55.3076ZM24.94 55.3076C24.48 60.9976 26.83 65.1476 31.54 66.7676C35.2991 68.1576 39.4378 68.1185 43.17 66.6576C44.9008 66.0385 46.4052 64.9129 47.4878 63.4273C48.5703 61.9417 49.1808 60.1648 49.24 58.3276C49.6 54.2476 48.24 50.9476 44.48 48.9376C43.2281 48.3051 41.9352 47.7572 40.61 47.2976C38.71 46.5976 36.74 46.0476 34.86 45.2976C34.2615 45.0351 33.7687 44.5787 33.4612 44.0019C33.1536 43.4252 33.0492 42.7618 33.1647 42.1185C33.2802 41.4752 33.6089 40.8895 34.0978 40.4557C34.5868 40.022 35.2075 39.7655 35.86 39.7276C36.9845 39.4705 38.1651 39.6705 39.1421 40.2837C40.1192 40.897 40.8126 41.8731 41.07 42.9976C41.1506 43.3246 41.1876 43.6609 41.18 43.9976C41.18 44.5476 41.24 45.0976 41.28 45.7376H47.82C48.0616 45.7483 48.3035 45.7282 48.54 45.6776C49.44 39.8576 46.25 34.8976 40.65 33.6776C38.7127 33.2863 36.73 33.1685 34.76 33.3276C32.3932 33.4005 30.1305 34.3176 28.3809 35.9131C26.6313 37.5087 25.5101 39.6775 25.22 42.0276C24.49 47.6276 26.87 51.4176 32.31 53.3176C33.09 53.5876 33.89 53.8276 34.68 54.0876C36.22 54.5876 37.78 55.0176 39.27 55.6076C39.8422 55.8331 40.3274 56.2353 40.6553 56.7556C40.9832 57.2759 41.1365 57.8872 41.093 58.5007C41.0495 59.1141 40.8114 59.6977 40.4134 60.1666C40.0154 60.6354 39.4782 60.9651 38.88 61.1076C37.6852 61.5544 36.3618 61.5084 35.201 60.9795C34.0402 60.4507 33.1369 59.4824 32.69 58.2876C32.5116 57.7996 32.4104 57.2868 32.39 56.7676C32.39 56.3176 32.32 55.8676 32.28 55.3676L24.94 55.3076ZM62.18 42.9876C60.68 40.1076 59.33 37.4876 57.94 34.8876C57.71 34.4576 57.32 33.8076 56.94 33.7976C54.11 33.7076 51.27 33.7976 48.23 33.7976C51.16 38.9876 53.92 43.9276 56.75 48.7976C57.0137 49.1648 57.1556 49.6055 57.1556 50.0576C57.1556 50.5097 57.0137 50.9504 56.75 51.3176C54.9 54.3776 53.12 57.4876 51.32 60.5876L47.59 67.0776C49.97 67.0776 52.05 66.9476 54.11 67.0776C54.8121 67.1933 55.5324 67.0557 56.1424 66.6893C56.7524 66.323 57.2123 65.7517 57.44 65.0776C58.71 62.3976 60.22 59.8176 61.76 56.9476C63.51 60.1276 65.08 63.0376 66.71 65.9476C66.96 66.3876 67.45 67.0076 67.84 67.0176C70.59 67.1176 73.33 67.0176 76.28 67.0176C75.97 66.3976 75.79 66.0176 75.57 65.6076C72.87 60.8676 70.21 56.1176 67.42 51.4276C67.0642 50.9435 66.8723 50.3584 66.8723 49.7576C66.8723 49.1568 67.0642 48.5717 67.42 48.0876C70.01 43.8276 72.42 39.4776 74.93 35.1576C75.17 34.7476 75.35 34.2976 75.66 33.6676H68.25C67.8722 33.6286 67.4921 33.7166 67.1698 33.9176C66.8475 34.1186 66.6013 34.4212 66.47 34.7776C65.12 37.4776 63.71 40.0676 62.18 42.9876Z"/>
  <path d="M100.17 33.7776H108.37L111.75 54.2376H112.13C113.13 47.4576 114.13 40.6876 115.19 33.8076H122.91C123.91 40.7076 124.99 47.6676 126.03 54.6276H126.28L129.73 33.7776H137.6C135.51 44.8976 133.44 55.8976 131.35 66.9576H122C121 60.1276 120 53.3476 119 46.5576H118.64C117.64 53.2976 116.64 60.0376 115.64 67.0076H106.78C106.54 67.0076 106.18 66.4676 106.12 66.1276L100.12 34.1276C100.118 34.009 100.135 33.8909 100.17 33.7776ZM174.89 40.6676L157.11 58.2976H175.11V66.9576H141.81V33.7776H150.38V51.1976L167.88 33.7776L174.89 40.6676ZM75.44 55.3076H82.69C82.7102 55.8168 82.7603 56.3243 82.84 56.8276C83.26 60.1976 85.99 61.9576 89.28 61.0476C89.8762 60.9387 90.4194 60.6352 90.8247 60.1847C91.2301 59.7341 91.4746 59.1619 91.52 58.5576C91.6221 57.958 91.5148 57.3415 91.2162 56.8117C90.9176 56.2818 90.4458 55.8708 89.88 55.6476C88.49 55.0576 87.04 54.6476 85.61 54.1576C84.18 53.6676 82.8 53.3276 81.47 52.7576C77.21 50.9376 75.38 47.7576 75.59 42.7576C75.6536 40.7662 76.3288 38.8426 77.524 37.2485C78.7192 35.6543 80.3763 34.4669 82.27 33.8476C85.5075 32.7173 89.0325 32.7173 92.27 33.8476C96.39 35.2676 98.52 38.3476 99.08 42.5576C99.21 43.5576 99.19 44.4976 99.24 45.5576H91.8C91.73 44.9976 91.67 44.3876 91.6 43.7876C91.26 40.7876 89.21 39.1676 86.18 39.6376C85.5494 39.671 84.9501 39.9227 84.4848 40.3497C84.0196 40.7767 83.7173 41.3522 83.63 41.9776C83.4735 42.5922 83.5392 43.2423 83.8155 43.8132C84.0918 44.3841 84.5609 44.839 85.14 45.0976C86.3804 45.6386 87.6488 46.1126 88.94 46.5176C90.5856 47.0173 92.2044 47.6014 93.79 48.2676C98.23 50.2676 100.08 53.4876 99.68 58.3676C99.5476 60.4398 98.744 62.4126 97.3909 63.9877C96.0378 65.5627 94.2086 66.6544 92.18 67.0976C88.9804 67.9493 85.6037 67.866 82.45 66.8576C80.0602 66.1399 78.0211 64.5622 76.7265 62.4291C75.4318 60.296 74.9735 57.7588 75.44 55.3076ZM25 55.2976H32.33C32.3428 55.7658 32.3795 56.2331 32.44 56.6976C32.4619 57.3311 32.6088 57.9541 32.8723 58.5306C33.1357 59.1072 33.5106 59.626 33.9752 60.0572C34.4399 60.4884 34.9852 60.8235 35.5798 61.0432C36.1744 61.263 36.8066 61.363 37.44 61.3376C37.9567 61.3239 38.4673 61.2224 38.95 61.0376C39.5483 60.8951 40.0854 60.5654 40.4834 60.0966C40.8814 59.6277 41.1195 59.0441 41.163 58.4307C41.2065 57.8172 41.0532 57.2059 40.7253 56.6856C40.3974 56.1653 39.9122 55.7631 39.34 55.5376C37.85 54.9476 36.29 54.5376 34.75 54.0176C33.96 53.7576 33.16 53.5176 32.38 53.2476C26.94 51.3476 24.56 47.5576 25.29 41.9576C25.5801 39.6075 26.7013 37.4387 28.4509 35.8431C30.2005 34.2475 32.4632 33.3305 34.83 33.2576C36.8 33.0985 38.7827 33.2163 40.72 33.6076C46.32 34.8776 49.51 39.8376 48.61 45.6076C48.38 45.6076 48.14 45.6676 47.89 45.6676H41.27C41.27 45.0276 41.21 44.4776 41.17 43.9276C41.1766 43.356 41.0702 42.7887 40.8569 42.2583C40.6437 41.7279 40.3277 41.2449 39.9272 40.837C39.5267 40.4291 39.0496 40.1043 38.5232 39.8813C37.9969 39.6583 37.4316 39.5415 36.86 39.5376C36.5238 39.5397 36.1887 39.5766 35.86 39.6476C35.2075 39.6855 34.5868 39.942 34.0979 40.3757C33.6089 40.8095 33.2802 41.3952 33.1647 42.0385C33.0492 42.6818 33.1537 43.3452 33.4612 43.9219C33.7687 44.4987 34.2615 44.955 34.86 45.2176C36.74 45.9876 38.71 46.5376 40.61 47.2176C41.9352 47.6772 43.2281 48.2251 44.48 48.8576C48.24 50.8576 49.6 54.1676 49.24 58.2476C49.1808 60.0848 48.5703 61.8617 47.4878 63.3473C46.4052 64.8329 44.9008 65.9585 43.17 66.5776C39.4378 68.0384 35.2991 68.0776 31.54 66.6876C26.83 65.1376 24.48 60.9876 25 55.2976Z"/>
  <path d="M62.18 42.9876C63.71 40.0676 65.12 37.4776 66.43 34.8276C66.5578 34.4674 66.8025 34.1604 67.1251 33.9556C67.4478 33.7508 67.8297 33.66 68.21 33.6976C70.6 33.7576 72.99 33.6976 75.62 33.6976C75.31 34.3276 75.13 34.7776 74.89 35.1876C72.4 39.5076 70 43.8576 67.38 48.1176C67.0242 48.6017 66.8323 49.1868 66.8323 49.7876C66.8323 50.3884 67.0242 50.9735 67.38 51.4576C70.17 56.1476 72.83 60.8976 75.53 65.6376C75.75 66.0176 75.93 66.4276 76.24 67.0476H67.8C67.41 67.0476 66.92 66.4176 66.67 65.9776C65.04 63.0976 63.47 60.1876 61.67 56.9776C60.13 59.8476 58.67 62.4276 57.35 65.1076C57.1223 65.7817 56.6624 66.3529 56.0524 66.7193C55.4424 67.0857 54.7221 67.2233 54.02 67.1076C51.96 66.9376 49.88 67.1076 47.5 67.1076L51.24 60.5976C53.04 57.4976 54.82 54.3876 56.67 51.3276C56.9337 50.9604 57.0756 50.5197 57.0756 50.0676C57.0756 49.6155 56.9337 49.1748 56.67 48.8076C53.84 43.9076 51.08 38.9676 48.15 33.8076H56.86C57.2 33.8076 57.59 34.4676 57.86 34.8976C59.33 37.4876 60.68 40.1076 62.18 42.9876Z"/>
  <path d="M136.021 64.2875C136.33 64.2875 136.632 64.3673 136.926 64.5268C137.221 64.6846 137.45 64.9117 137.615 65.2079C137.779 65.5025 137.861 65.8101 137.861 66.1308C137.861 66.4482 137.78 66.7533 137.617 67.0463C137.456 67.3393 137.229 67.5671 136.936 67.7299C136.645 67.891 136.34 67.9716 136.021 67.9716C135.702 67.9716 135.396 67.891 135.103 67.7299C134.811 67.5671 134.584 67.3393 134.421 67.0463C134.259 66.7533 134.177 66.4482 134.177 66.1308C134.177 65.8101 134.26 65.5025 134.424 65.2079C134.59 64.9117 134.82 64.6846 135.115 64.5268C135.409 64.3673 135.711 64.2875 136.021 64.2875ZM136.021 64.5927C135.762 64.5927 135.51 64.6594 135.264 64.7929C135.02 64.9247 134.828 65.1143 134.69 65.3617C134.552 65.6075 134.482 65.8638 134.482 66.1308C134.482 66.3961 134.55 66.6508 134.685 66.8949C134.822 67.1374 135.012 67.3271 135.256 67.4638C135.501 67.5989 135.755 67.6664 136.021 67.6664C136.286 67.6664 136.541 67.5989 136.785 67.4638C137.029 67.3271 137.218 67.1374 137.354 66.8949C137.489 66.6508 137.556 66.3961 137.556 66.1308C137.556 65.8638 137.487 65.6075 137.349 65.3617C137.212 65.1143 137.021 64.9247 136.775 64.7929C136.529 64.6594 136.278 64.5927 136.021 64.5927ZM135.212 67.1488V65.1664H135.894C136.126 65.1664 136.295 65.1851 136.399 65.2226C136.503 65.2584 136.586 65.3218 136.648 65.413C136.71 65.5041 136.741 65.601 136.741 65.7035C136.741 65.8484 136.689 65.9745 136.585 66.0819C136.482 66.1894 136.345 66.2496 136.174 66.2626C136.244 66.2919 136.301 66.3269 136.343 66.3676C136.423 66.4457 136.52 66.5767 136.636 66.7607L136.878 67.1488H136.487L136.311 66.8363C136.173 66.5906 136.061 66.4368 135.977 66.3749C135.918 66.3293 135.833 66.3065 135.72 66.3065H135.532V67.1488H135.212ZM135.532 66.0331H135.92C136.106 66.0331 136.232 66.0054 136.299 65.9501C136.367 65.8948 136.401 65.8215 136.401 65.7304C136.401 65.6718 136.385 65.6197 136.353 65.5741C136.32 65.5269 136.274 65.4919 136.216 65.4691C136.159 65.4464 136.052 65.435 135.896 65.435H135.532V66.0331Z"/>
</svg>
