<svg xmlns="http://www.w3.org/2000/svg" focusable="false" role="img" viewBox="0 0 200 100" fill="currentColor">
  <path fill-rule="evenodd" d="M81.1 46.7542L75.8 47.5542V38.7542L81.1 37.9532C83.1 37.7542 84.8 38.8542 84.8 41.9532C84.8 44.9532 83.2 46.4532 81.1 46.7542ZM62 56.4532L58.5 51.5542L62 45.5542V56.4532ZM39.1 59.5542L39.084 59.5802L39.06 59.5742L39.1 59.5072V59.3072V49.1532L42.4 53.8542L39.1 59.5542ZM135 44.4532L125.7 45.7542C124.6 45.9532 123.6 46.7542 123.1 47.8542C121.3 51.6532 118 54.2542 114.5 54.7542C109 55.5542 104.5 51.2542 104.5 45.0542C104.5 38.8542 108.9 33.2542 114.4 32.4532C117.9 31.9532 121.2 33.6532 123.1 36.9532C123.6 37.8542 124.5 38.4532 125.7 38.2542L135 36.9532C136.6 36.7542 137.9 35.2542 137.9 33.6532C134.6 23.7542 125.5 17.6532 114.4 19.2542C107.022 20.2502 100.738 24.3292 96.34 30.0022L96.3 29.9532C91.1 23.4532 80.9 24.7542 80.9 24.7542L59 27.8542C57.9 28.0542 57 28.9532 56.4 30.0542L50.5 40.2542L44.5 31.7542C43.8 30.8542 43 30.1532 41.9 30.3542L28.1 32.3072C26.4 32.5072 25.1 34.1072 25.2 35.8072V61.5072C25.2 61.5072 24.8 67.5072 19.5 68.2062C14.2 68.9062 13.7 63.1072 13.7 63.1072V37.4062C13.6 35.7062 12.4 34.5072 10.7 34.7062L3 35.9062C1.3 36.1072 0 37.7062 0 39.4062V64.8072C0 84.5072 19.5 81.4062 19.5 81.4062C19.5 81.4062 24.6 80.7072 29.699 77.4072C29.721 77.4412 29.744 77.4762 29.768 77.5102L29.7 77.5542C30.2 78.4532 31.1 78.9532 32.2 78.8542L41.9 77.4532C43 77.2542 43.9 76.3542 44.5 75.2542L50.4 65.1532L56.3 73.5542C56.9 74.4532 57.8 75.1532 58.9 74.9532L73 72.9532C74.7 72.7542 75.9 71.1532 75.9 69.4532V60.7542L77.2 60.5542L85.7 69.8542C86.2 70.5542 87.2 70.9532 88.2 70.7542L98.1 69.3542C99.781 69.1562 100.973 67.5902 101 65.9112C104.84 67.8992 109.435 68.7352 114.6 68.0542C125.7 66.4532 134.8 57.7542 138 46.9532C137.9 45.3542 136.6 44.2542 135 44.4532Z" clip-rule="evenodd"/>
</svg>
