<svg xmlns="http://www.w3.org/2000/svg" focusable="false" role="img" viewBox="0 0 200 100" fill="currentColor">
  <path d="M36.05 40.08V60.08H63.16V40.08H36.05ZM48.32 52.08C48.3227 52.7941 48.1789 53.5012 47.8974 54.1575C47.6159 54.8138 47.2027 55.4054 46.6834 55.8956C46.1641 56.3858 45.5498 56.7643 44.8784 57.0076C44.207 57.2509 43.4928 57.3538 42.78 57.31C42.0694 57.3526 41.3577 57.2485 40.6891 57.0043C40.0204 56.76 39.4092 56.3809 38.8933 55.8903C38.3775 55.3998 37.9681 54.8084 37.6905 54.1529C37.413 53.4974 37.2732 52.7918 37.28 52.08V42.66H40.86V52C40.8216 52.2703 40.8431 52.5457 40.9231 52.8067C41.0031 53.0677 41.1396 53.3079 41.3229 53.5103C41.5061 53.7126 41.7317 53.8721 41.9835 53.9775C42.2353 54.0829 42.5072 54.1315 42.78 54.12C43.0579 54.1384 43.3363 54.0951 43.5955 53.9933C43.8547 53.8915 44.0882 53.7336 44.2793 53.5311C44.4704 53.3285 44.6144 53.0862 44.7009 52.8216C44.7875 52.5569 44.8145 52.2763 44.78 52V42.66H48.36L48.32 52.08ZM58.43 57.19L56.04 52.74L53.64 57.22H49.54L54.08 49.75L49.84 42.66H53.91L56.04 46.77L58.16 42.66H62.24L57.98 49.75L62.54 57.22L58.43 57.19Z"/>
  <path d="M81.26 57.22V46.15L77.26 54.93H75.94L71.89 46.15V57.22H70.34V42.66H71.89L76.64 53L81.26 42.67H82.82V57.22H81.26Z"/>
  <path d="M95.54 57.22L94.38 53.93H87.99L86.83 57.22H85.17L90.54 42.66H91.84L97.18 57.22H95.54ZM91.2 44.89L88.46 52.58H93.91L91.2 44.89Z"/>
  <path d="M107.76 55.67C107.272 56.1843 106.687 56.5968 106.039 56.8835C105.391 57.1702 104.692 57.3255 103.983 57.3404C103.275 57.3553 102.57 57.2295 101.91 56.9702C101.251 56.7109 100.649 56.3234 100.14 55.83C98.77 54.46 98.77 53.03 98.77 49.94C98.77 46.85 98.77 45.42 100.14 44.05C100.628 43.5595 101.21 43.1722 101.851 42.911C102.491 42.6499 103.178 42.5203 103.87 42.53C105.108 42.4976 106.313 42.9255 107.254 43.731C108.194 44.5364 108.802 45.662 108.96 46.89H107.41C107.294 46.2461 107.003 45.6463 106.57 45.1559C106.137 44.6654 105.578 44.3031 104.953 44.1083C104.328 43.9135 103.662 43.8936 103.027 44.0508C102.392 44.208 101.812 44.5363 101.35 45C100.43 45.94 100.35 46.92 100.35 50C100.35 53.08 100.45 54.05 101.35 55C101.682 55.3259 102.077 55.5822 102.509 55.7539C102.942 55.9256 103.405 56.0093 103.87 56C104.393 56.0087 104.911 55.9021 105.388 55.6878C105.865 55.4735 106.289 55.1567 106.63 54.76C107.221 54.0119 107.513 53.0712 107.45 52.12V51H103.87V49.59H109V51.9C109.062 52.5798 108.983 53.2649 108.77 53.9133C108.557 54.5617 108.213 55.1595 107.76 55.67Z"/>
  <path d="M120.91 57.22L119.74 53.93H113.38L112.22 57.22H110.54L115.9 42.66H117.21L122.54 57.22H120.91ZM116.59 44.89L113.85 52.58H119.29L116.59 44.89Z"/>
  <path d="M123.98 57.22V55.75L131.26 44.05H124.26V42.66H133.01V44L125.67 55.87H133.01V57.26L123.98 57.22Z"/>
  <path d="M136.29 57.22V42.66H137.85V57.22H136.29Z"/>
  <path d="M151.35 57.22L143.62 45.54V57.22H142.06V42.66H143.54L151.27 54.3V42.66H152.82V57.22H151.35Z"/>
  <path d="M157.04 57.22V42.66H166.04V44.05H158.55V49.18H164.94V50.57H158.55V55.83H166.04V57.22H157.04Z"/>
  <path d="M38 38C36.6739 38 35.4021 38.5268 34.4645 39.4645C33.5268 40.4021 33 41.6739 33 43V57C33 58.3261 33.5268 59.5979 34.4645 60.5355C35.4021 61.4732 36.6739 62 38 62H60.73C62.0561 62 63.3279 61.4732 64.2655 60.5355C65.2032 59.5979 65.73 58.3261 65.73 57V43C65.73 41.6739 65.2032 40.4021 64.2655 39.4645C63.3279 38.5268 62.0561 38 60.73 38H38ZM63.16 55.08C63.16 56.4061 62.6332 57.6779 61.6955 58.6155C60.7579 59.5532 59.4861 60.08 58.16 60.08H41.05C39.7239 60.08 38.4521 59.5532 37.5145 58.6155C36.5768 57.6779 36.05 56.4061 36.05 55.08V45.45C36.05 44.1239 36.5768 42.8521 37.5145 41.9145C38.4521 40.9768 39.7239 40.45 41.05 40.45H58.16C59.4861 40.45 60.7579 40.9768 61.6955 41.9145C62.6332 42.8521 63.16 44.1239 63.16 45.45V55.08Z"/>
</svg>
