<svg xmlns="http://www.w3.org/2000/svg" focusable="false" role="img" viewBox="0 0 200 100" fill="currentColor">
  <g clip-path="url(#clip0_102:121)">
    <path fill-rule="evenodd" d="M45.7204 55.9299C46.2795 55.0615 46.772 54.1521 47.194 53.2095C47.194 52.6427 47.0894 52.0673 47.0022 51.4656C46.2801 47.0043 43.9434 42.9639 40.4366 40.1131C41.491 42.1814 42.2007 44.408 42.5379 46.7049H42.6425C42.8234 47.8587 42.9138 49.0248 42.9128 50.1926C42.9269 54.3866 41.7146 58.4933 39.4251 62.0072C39.7652 61.8067 40.0965 61.5887 40.4278 61.362C42.5345 59.9198 44.3335 58.0733 45.7204 55.9299ZM34.9173 37.0439C38.0488 40.1377 39.9692 44.2504 40.3306 48.6376C40.6921 53.0248 39.4708 57.3964 36.8878 60.9609C36.0192 62.1619 35.0059 63.2513 33.8709 64.2045H33.8099C30.2242 64.9606 26.4935 64.6111 23.1106 63.2022C19.7278 61.7934 16.8519 59.3914 14.8629 56.3135C13.449 54.1187 12.4857 51.6646 12.0292 49.094C12.6099 47.1463 13.5084 45.3079 14.6885 43.6532C16.0538 41.719 17.7911 40.0766 19.7988 38.822C21.8065 37.5674 24.0442 36.7258 26.3811 36.3464C27.3159 36.2013 28.2601 36.1255 29.2061 36.1197C31.1474 36.1151 33.0765 36.4273 34.9173 37.0439ZM45.5025 62.1729C44.4802 63.2205 43.3589 64.1666 42.1543 64.9979C39.3132 66.95 36.0448 68.191 32.6241 68.6165C30.2432 70.0652 27.6005 71.0311 24.8465 71.4589C24.3931 71.5287 23.9746 71.5897 23.4863 71.6333C24.0356 71.8164 24.5849 71.9821 25.1517 72.1216C28.5861 72.9524 32.1903 72.7399 35.5033 71.5113C38.8163 70.2827 41.6876 68.0939 43.7499 65.2247V65.1723C44.4252 64.2287 45.0119 63.2246 45.5025 62.1729ZM16.8248 67.4917C18.598 68.0781 20.4504 68.3898 22.3179 68.4159C23.2404 68.409 24.1611 68.3362 25.0732 68.1979C22.3081 67.5373 19.7032 66.3298 17.412 64.6466C15.1209 62.9634 13.1898 60.8386 11.7327 58.3975C12.5148 61.855 14.2837 65.0112 16.8248 67.4829V67.4917ZM33.8622 26.6157C37.9811 27.4432 41.7014 29.6334 44.4237 32.8333C47.1459 36.0332 48.7115 40.0565 48.8681 44.2548C48.685 43.9147 48.4845 43.5747 48.2839 43.2434C46.8116 40.8224 44.8698 38.7205 42.5728 37.0614C40.4272 35.4952 38.004 34.3501 35.4317 33.687C34.9957 33.3034 34.5598 32.9372 34.0715 32.5971C30.5663 30.007 26.3519 28.5526 21.9953 28.4293C24.5976 27.045 27.4967 26.312 30.4443 26.2931C31.591 26.2963 32.7351 26.4043 33.8622 26.6157ZM28.8138 33.0592C26.7041 32.2061 24.4539 31.7537 22.1784 31.7252C20.3189 31.7294 18.4715 32.0236 16.7027 32.5971C14.3661 35.2099 12.7733 38.4016 12.0902 41.8395C11.9594 42.4935 11.8722 43.1387 11.8025 43.7927C12.1822 43.1269 12.5954 42.4809 13.0406 41.857C14.6521 39.591 16.6972 37.6674 19.0576 36.1976C21.4179 34.7279 24.0464 33.7411 26.7909 33.2947C27.471 33.1813 28.1424 33.1028 28.8138 33.0592ZM9.13436 52.1893C8.69867 56.5801 9.61111 60.9993 11.7501 64.8584C7.81235 61.9846 5.17133 57.6696 4.40355 52.8555C3.63577 48.0413 4.80358 43.1189 7.65208 39.1627C8.70241 37.732 9.95678 36.4629 11.3752 35.396C10.1725 37.5525 9.33016 39.891 8.8815 42.3191C8.25088 45.5887 8.33715 48.9563 9.13436 52.1893ZM16.9817 71.1886C13.4647 70.4001 10.1991 68.7495 7.47855 66.3852C4.75805 64.021 2.66814 61.0174 1.39691 57.6447C0.125682 54.2721 -0.286956 50.6363 0.196135 47.0645C0.679226 43.4928 2.04288 40.0972 4.16437 37.1835C5.80663 34.9139 7.88078 32.9909 10.2679 31.5246C12.2744 30.2949 14.4732 29.4107 16.7724 28.9089C17.2694 28.5078 17.7752 28.1241 18.307 27.7666C20.6516 26.1517 23.2955 25.022 26.0832 24.4442C28.8708 23.8664 31.7459 23.8521 34.5392 24.4022C37.3325 24.9522 39.9875 26.0555 42.348 27.6471C44.7085 29.2386 46.7267 31.2863 48.2839 33.6696C51.5368 38.6566 52.7132 44.717 51.5624 50.5588C51.4664 51.0209 51.3618 51.4743 51.2485 51.9278C51.3511 52.796 51.4064 53.6693 51.4141 54.5435C51.4162 59.0739 49.9814 63.4882 47.3161 67.1516C45.6943 69.395 43.6457 71.2961 41.2876 72.746C38.9295 74.1959 36.3083 75.1659 33.5745 75.6006C32.4698 75.7747 31.3533 75.8621 30.235 75.8622C25.7925 75.8621 21.4653 74.4482 17.8798 71.8251L16.9817 71.1886ZM72.6892 44.4466C72.5569 43.5482 72.3764 42.6576 72.1486 41.7785L70.5181 35.9104H68.2423L66.6467 41.8134C66.4133 42.651 66.227 43.501 66.0887 44.3594C66.0729 43.5391 65.9825 42.7219 65.8184 41.918L64.3971 35.9104H62.1214L64.9552 46.7398H67.1263L69.0881 39.8341C69.2625 39.1962 69.3678 38.5414 69.402 37.881C69.4295 38.5434 69.5408 39.1997 69.7333 39.8341L71.608 46.7398H73.8837L76.7175 35.9104H74.4417L73.0292 41.7785C72.8202 42.6531 72.7062 43.5476 72.6892 44.4466ZM86.9539 41.3513C86.9538 40.5623 86.6801 39.7977 86.1793 39.188C85.6786 38.5782 84.9819 38.161 84.2079 38.0075C83.434 37.8541 82.6308 37.9737 81.9352 38.3462C81.2397 38.7187 80.6949 39.3209 80.3936 40.0501C80.0924 40.7794 80.0535 41.5905 80.2834 42.3453C80.5134 43.1 80.998 43.7517 81.6547 44.1891C82.3114 44.6265 83.0994 44.8226 83.8845 44.7439C84.6696 44.6653 85.4031 44.3168 85.9599 43.7578C86.5958 43.1182 86.9531 42.2532 86.9539 41.3513ZM87.7125 45.3621C86.684 46.3617 85.3256 46.9506 83.893 47.0181C82.4605 47.0855 81.0527 46.6268 79.9349 45.7283C78.999 44.9816 78.3253 43.9561 78.0118 42.8006C77.6982 41.645 77.761 40.4197 78.191 39.3022C78.4798 38.5609 78.9226 37.8892 79.4902 37.3317C80.5894 36.2684 82.0589 35.6739 83.5883 35.6739C85.1176 35.6739 86.5871 36.2684 87.6863 37.3317C88.236 37.8517 88.675 38.4775 88.9768 39.1714C89.2713 39.8604 89.4232 40.602 89.4232 41.3513C89.4232 42.1006 89.2713 42.8421 88.9768 43.5311C88.6817 44.2197 88.2518 44.8422 87.7125 45.3621ZM96.2399 39.154C96.2399 40.4009 95.368 40.5317 93.9642 40.5317H93.6154V37.6805H93.9642C95.4116 37.6805 96.2399 37.8984 96.2399 39.154ZM93.6242 41.6739L96.4666 46.7398H99.0824L96.1876 41.8134C96.8654 41.7208 97.4844 41.3794 97.9244 40.8556C98.3644 40.3319 98.5938 39.6632 98.568 38.9796C98.568 36.9306 97.2775 35.9104 94.6356 35.9104H91.3135V46.7398H93.5893L93.6242 41.6739ZM100.495 35.9104H102.814V44.7343H106.511V46.7398H100.495V35.9104ZM115.091 41.3687C115.091 43.7839 113.966 44.7867 111.603 44.7867L110.304 44.8651V37.9595H111.647C113.949 37.9595 115.082 38.9622 115.082 41.3687H115.091ZM110.949 35.9104H108.002V46.7398H111.202C112.712 46.894 114.231 46.5412 115.518 45.7371C116.179 45.225 116.708 44.5618 117.06 43.8033C117.412 43.0447 117.577 42.2129 117.541 41.3774C117.583 40.543 117.422 39.7108 117.073 38.9518C116.724 38.1928 116.196 37.5293 115.536 37.0178C114.176 36.1332 112.554 35.7423 110.941 35.9104H110.949ZM133.227 41.7785C133.462 42.6564 133.645 43.5473 133.776 44.4466C133.788 43.5466 133.905 42.6511 134.125 41.7785L135.503 35.9104H137.805L134.945 46.7398H132.669L130.725 39.8341C130.539 39.1984 130.431 38.5426 130.402 37.881C130.365 38.5417 130.257 39.1965 130.079 39.8341L128.126 46.7398H125.851L122.982 35.9104H125.258L126.679 41.918C126.85 42.7216 126.952 43.5384 126.984 44.3594C127.122 43.501 127.309 42.651 127.542 41.8134L129.138 35.9104H131.413L133.227 41.7785ZM139.331 35.9104H141.65V46.7398H139.331V35.9104ZM147.727 44.7867C150.099 44.7867 151.215 43.7839 151.215 41.3687C151.215 38.9535 150.073 37.9595 147.727 37.9595H146.446V44.8651L147.727 44.7867ZM144.126 35.9104H147.082C148.675 35.737 150.279 36.1089 151.634 36.9655C152.293 37.4814 152.82 38.1482 153.168 38.9099C153.509 39.6768 153.664 40.5132 153.621 41.3513C153.665 42.1878 153.504 43.0224 153.152 43.7823C152.799 44.5422 152.266 45.2043 151.599 45.7109C150.319 46.5188 148.805 46.872 147.3 46.7136H144.161L144.126 35.9104ZM161.914 35.9104H155.548V46.7398H161.914V44.7343H157.859V42.0575H161.914V40.087H157.859V37.8636H161.914V35.9104ZM177.983 41.7785C178.218 42.6564 178.401 43.5473 178.532 44.4466C178.544 43.5466 178.661 42.6511 178.881 41.7785L180.294 35.9104H182.569L179.71 46.7398H177.434L175.498 39.8341C175.307 39.1991 175.193 38.5433 175.158 37.881C175.125 38.5422 175.017 39.1974 174.836 39.8341L172.882 46.7398H170.764L167.93 35.9104H170.206L171.644 41.918C171.808 42.7225 171.908 43.539 171.941 44.3594C172.082 43.5008 172.271 42.6508 172.507 41.8134L174.086 35.9104H176.361L177.983 41.7785ZM190.46 35.9104H184.017V46.7398H190.399V44.7343H186.345V42.0575H190.399V40.087H186.345V37.8636H190.399L190.46 35.9104ZM195.971 44.9349C197.105 44.9349 197.715 44.4117 197.715 43.4439C197.715 42.4761 197.122 42.0314 195.971 42.0314H195.029V44.9349H195.971ZM195.57 40.2439C196.86 40.2439 197.497 39.9475 197.497 38.9447C197.497 37.942 196.93 37.6979 195.614 37.6979H195.064V40.2439H195.57ZM192.736 35.8843H194.776C195.987 35.7683 197.208 35.9478 198.334 36.4074C198.738 36.6324 199.075 36.9603 199.311 37.3578C199.546 37.7593 199.667 38.2178 199.659 38.6832C199.659 39.9823 198.892 40.7496 197.384 40.9589C199.127 41.2205 199.999 42.0924 199.999 43.5747C200.01 44.082 199.881 44.5825 199.626 45.021C199.37 45.4595 198.999 45.8189 198.552 46.0597C197.266 46.5954 195.867 46.8051 194.48 46.67H192.736V35.8843ZM70.0211 54.0989H64.6587V64.9369H65.644V59.3479H69.8554V58.4149H65.644V55.0231H70.0036L70.0211 54.0989ZM82.6204 59.5571C82.614 58.8561 82.4526 58.1653 82.1477 57.534C81.8429 56.9028 81.4021 56.3468 80.8571 55.9059C80.3121 55.4651 79.6763 55.1503 78.9952 54.9841C78.3142 54.8179 77.6049 54.8044 76.918 54.9446C75.9959 55.1267 75.1483 55.5777 74.482 56.2408C73.8158 56.9039 73.3607 57.7493 73.1742 58.6706C72.9878 59.5919 73.0782 60.5477 73.4341 61.4177C73.79 62.2877 74.3954 63.0329 75.1742 63.5593C75.9503 64.0736 76.8589 64.3522 77.7899 64.3614C79.0568 64.3531 80.2693 63.8455 81.1643 62.9489C81.6087 62.5031 81.9586 61.9723 82.1932 61.3882C82.4617 60.8143 82.6073 60.1906 82.6204 59.5571ZM82.0014 63.5593C81.1787 64.3436 80.1489 64.8761 79.0334 65.0939C77.9178 65.3118 76.7633 65.2059 75.706 64.7887C74.6615 64.3672 73.7657 63.6449 73.1324 62.7135C72.499 61.782 72.1566 60.6835 72.1486 59.5571C72.1483 58.8088 72.2965 58.0679 72.5845 57.3773C72.8716 56.6835 73.2957 56.0548 73.8314 55.5288C74.9343 54.4761 76.4004 53.8888 77.9251 53.8888C79.4498 53.8888 80.9159 54.4761 82.0188 55.5288C82.5517 56.0572 82.9753 56.6853 83.2657 57.3773C83.5686 58.0649 83.7317 58.8059 83.7452 59.5571C83.7448 60.3082 83.5966 61.0518 83.3092 61.7457C82.9926 62.4279 82.5487 63.0434 82.0014 63.5593ZM87.0847 61.1789V54.0989H86.1256V60.865C86.1256 63.786 87.4073 65.2247 90.058 65.2247C92.7086 65.2247 94.0078 63.7947 94.0078 60.865V54.0989H93.0138V61.1789C93.0138 63.2977 92.0721 64.344 90.058 64.344C88.0438 64.344 87.1021 63.2977 87.1021 61.1789H87.0847ZM96.9985 53.6455L104.671 62.7048V54.0989H105.604V65.2508L97.9402 56.174V64.9369H97.016L96.9985 53.6455ZM111.028 64.1086H110.444H109.572V54.9533H110.705C112.493 54.9533 113.766 54.9533 114.768 56.0956C115.551 57.0553 115.957 58.2673 115.911 59.5048C115.969 60.248 115.852 60.9945 115.571 61.6846C115.28 62.3595 114.835 62.9568 114.271 63.4285C113.291 63.9776 112.163 64.2063 111.045 64.0824L111.028 64.1086ZM110.261 54.125H108.595V64.9631H110.775C112.519 64.9631 113.923 64.9108 115.135 63.9604C115.769 63.423 116.269 62.7454 116.596 61.9811C116.923 61.2168 117.067 60.3869 117.018 59.5571C117.087 58.6402 116.912 57.7214 116.513 56.8933C116.113 56.0651 115.503 55.3569 114.742 54.84C113.591 54.0989 112.144 54.0989 110.278 54.0989L110.261 54.125ZM124.325 60.4291L122.468 55.6945L120.541 60.4291H124.325ZM122.529 53.6803L127.071 64.9456H126.008L124.63 61.301H120.201L118.762 64.9718H117.75L122.529 53.6803ZM126.731 55.0318H129.731V64.9369H130.707V55.0231H133.689V54.0989H126.714L126.731 55.0318ZM136.654 54.1076H135.669V64.9369H136.654V54.1076ZM148.861 56.9239C149.385 57.6966 149.67 58.6063 149.68 59.5397C149.688 60.1681 149.567 60.7915 149.323 61.3707C149.088 61.9501 148.742 62.4776 148.303 62.9228C147.861 63.3723 147.333 63.7281 146.751 63.9691C146.173 64.211 145.554 64.3383 144.928 64.344C143.755 64.3359 142.626 63.8947 141.758 63.1051C140.89 62.3155 140.344 61.2332 140.225 60.0658C140.106 58.8984 140.423 57.7282 141.114 56.7799C141.805 55.8315 142.822 55.1717 143.969 54.9272C144.889 54.7349 145.846 54.823 146.716 55.18C147.603 55.5347 148.363 56.1485 148.896 56.9413L148.861 56.9239ZM144.928 65.2247C146.459 65.2324 147.931 64.6372 149.026 63.568C149.565 63.0423 149.992 62.4137 150.282 61.7195C150.573 61.0296 150.723 60.2885 150.723 59.5397C150.723 58.7909 150.573 58.0497 150.282 57.3599C149.99 56.6695 149.563 56.0441 149.026 55.5201C147.922 54.4668 146.455 53.8792 144.928 53.8792C143.402 53.8792 141.935 54.4668 140.83 55.5201C140.297 56.0464 139.876 56.6752 139.592 57.3686C139.304 58.0592 139.156 58.8001 139.156 59.5484C139.156 60.2983 139.304 61.0409 139.591 61.7337C139.878 62.4264 140.3 63.0557 140.83 63.5854C141.384 64.1087 142.036 64.5176 142.749 64.7887C143.451 65.0785 144.204 65.2238 144.963 65.2159L144.928 65.2247ZM153.247 53.6542L160.911 62.7135V54.0989H161.835V65.2508L154.162 56.174V64.9369H153.247V53.6542Z" clip-rule="evenodd"/>
  </g>
  <defs>
    <clipPath id="clip0_102:121">
      <rect width="200" height="100"/>
    </clipPath>
  </defs>
</svg>
