<svg xmlns="http://www.w3.org/2000/svg" viewBox="0 0 100 100" fill="currentColor" focusable="false" role="img">
  <path fill-rule="evenodd" d="M50.3809 8.31201V91.719L95.1359 49.812L50.3809 8.31201ZM60.1619 73.653C57.4169 73.653 55.1909 71.428 55.1909 68.682C55.1909 65.937 57.4159 63.711 60.1619 63.711C62.9069 63.711 65.1329 65.936 65.1329 68.682C65.1329 71.428 62.9079 73.653 60.1619 73.653ZM60.1619 55.14C57.4169 55.14 55.1909 52.915 55.1909 50.169C55.1909 47.424 57.4159 45.198 60.1619 45.198C62.9069 45.198 65.1329 47.423 65.1329 50.169C65.1329 52.915 62.9079 55.14 60.1619 55.14ZM60.1619 36.829C57.4169 36.829 55.1909 34.604 55.1909 31.858C55.1909 29.113 57.4159 26.887 60.1619 26.887C62.9069 26.887 65.1329 29.112 65.1329 31.858C65.1329 34.604 62.9079 36.829 60.1619 36.829ZM76.2729 55.14C73.5279 55.14 71.3019 52.915 71.3019 50.169C71.3019 47.424 73.5269 45.198 76.2729 45.198C79.0179 45.198 81.2439 47.423 81.2439 50.169C81.2429 52.915 79.0179 55.14 76.2729 55.14ZM44.8849 31.613C44.8849 34.3584 42.6593 36.584 39.9139 36.584C37.1685 36.584 34.9429 34.3584 34.9429 31.613C34.9429 28.8676 37.1685 26.642 39.9139 26.642C42.6593 26.642 44.8849 28.8676 44.8849 31.613ZM39.9139 55.141C42.6593 55.141 44.8849 52.9154 44.8849 50.17C44.8849 47.4246 42.6593 45.199 39.9139 45.199C37.1685 45.199 34.9429 47.4246 34.9429 50.17C34.9429 52.9154 37.1685 55.141 39.9139 55.141ZM39.9139 73.654C42.6593 73.654 44.8849 71.4284 44.8849 68.683C44.8849 65.9376 42.6593 63.712 39.9139 63.712C37.1685 63.712 34.9429 65.9376 34.9429 68.683C34.9429 71.4284 37.1685 73.654 39.9139 73.654ZM28.4781 50.17C28.4781 52.9154 26.2525 55.141 23.5071 55.141C20.7617 55.141 18.5361 52.9154 18.5361 50.17C18.5361 47.4246 20.7617 45.199 23.5071 45.199C26.2525 45.199 28.4781 47.4246 28.4781 50.17Z" clip-rule="evenodd"/>
</svg>
