<svg xmlns="http://www.w3.org/2000/svg" viewBox="0 0 100 100" fill="currentColor" focusable="false" role="img">
  <path fill-rule="evenodd" d="M74.9813 18.2747H84.8293C85.5653 18.2747 86.1627 18.8711 86.1644 19.608V36.4676C86.1644 38.944 85.7218 41.3244 84.8507 43.5431C81.8658 51.168 76.2587 56.0782 70.0916 56.5644C65.9067 63.5831 59.9938 68.3467 53.5129 69.6871C53.5119 69.6875 53.5109 69.6879 53.51 69.6883C53.5068 69.6897 53.5039 69.6909 53.5004 69.6916C52.6516 69.8693 51.7867 69.9822 50.9164 70.0427V77.6436C51.7769 77.6898 52.6302 77.7636 53.4462 77.8996C60.7751 79.0791 65.9022 83.4836 65.9333 88.6196C65.9333 88.6356 65.9378 88.6498 65.9378 88.6658C65.9378 89.2178 65.6018 89.6916 65.1227 89.8942C64.9627 89.9627 64.7876 90 64.6027 90C64.6008 90 64.5991 89.9997 64.5976 89.9995C64.5963 89.9993 64.595 89.9991 64.5938 89.9991H34.5707C34.5688 89.9991 34.5671 89.9994 34.5656 89.9996C34.5643 89.9998 34.563 90 34.5618 90C34.3769 90 34.2009 89.9627 34.0418 89.8951C33.5627 89.6925 33.2267 89.2187 33.2267 88.6667C33.2267 88.6576 33.2278 88.6491 33.229 88.6405C33.2298 88.634 33.2307 88.6274 33.2311 88.6204C33.2622 83.4844 38.3893 79.08 45.7244 77.8996C46.5378 77.7644 47.3884 77.6907 48.248 77.6444V70.0436C47.3787 69.9831 46.5129 69.8693 45.664 69.6924C45.6596 69.6907 45.656 69.6889 45.6516 69.688C39.1698 68.3476 33.2578 63.584 29.0729 56.5653C22.9067 56.08 17.2987 51.1689 14.3138 43.5422C13.4418 41.3253 13 38.9449 13 36.4684V19.608C13 18.872 13.5973 18.2747 14.3333 18.2747H24.1813V11.3333C24.1813 10.5973 24.7787 10 25.5147 10H73.648C74.384 10 74.9813 10.5973 74.9813 11.3333V18.2747ZM15.6658 36.4684C15.6658 38.6098 16.0462 40.6613 16.7956 42.568C19.0933 48.4373 23.0533 52.4542 27.4764 53.6036C27 52.6231 26.5467 51.616 26.136 50.5671C24.8382 47.2533 24.1804 43.7084 24.1804 40.0302V20.9413H15.6658V36.4684ZM36.08 87.3324H63.0827C62.2062 84.1236 58.2427 81.3724 53.0151 80.5307C50.8133 80.1662 48.344 80.1671 46.1547 80.5298C40.9209 81.3724 36.9573 84.1236 36.08 87.3324ZM52.9538 67.0809C52.9564 67.08 52.9582 67.08 52.96 67.08C60.2693 65.5733 66.8427 59.0373 70.5431 49.5947C71.7182 46.5911 72.3147 43.3733 72.3147 40.0293V12.6667H26.848V40.0293C26.848 43.3733 27.4444 46.5911 28.6196 49.5947C32.3191 59.0373 38.8933 65.5733 46.2027 67.08C46.2044 67.0809 46.2071 67.0809 46.2089 67.0809C48.416 67.5431 50.7476 67.5431 52.9538 67.0809ZM82.3662 42.5689C83.1156 40.6613 83.496 38.6089 83.496 36.4676H83.4951V20.9413H74.9804V40.0293C74.9804 43.7067 74.3227 47.2516 73.0249 50.5662C72.6142 51.6151 72.1609 52.6213 71.6844 53.6027C76.1084 52.4542 80.0685 48.4364 82.3662 42.5689ZM54.7624 30.7636L62.1784 31.8409C62.9686 31.9565 63.6121 32.4996 63.8584 33.2578C64.1046 34.016 63.9028 34.8329 63.3313 35.3894L57.9659 40.6196L59.2326 48.0054C59.3366 48.6116 59.1695 49.2285 58.7757 49.696C58.3775 50.1689 57.7962 50.44 57.1828 50.44H57.1819C56.8486 50.44 56.5135 50.3574 56.2139 50.1991L49.581 46.7129L42.9481 50.1991C42.0993 50.6445 41.0015 50.4267 40.3864 49.696C39.9917 49.2285 39.8255 48.6125 39.9295 48.0054L41.1962 40.6205L35.8299 35.3894C35.2584 34.832 35.0575 34.016 35.3037 33.2569C35.5508 32.4987 36.1935 31.9565 36.9828 31.8409L44.3997 30.7636L47.7153 24.0427C48.069 23.3271 48.7837 22.8836 49.581 22.8836C50.3784 22.8836 51.0939 23.3271 51.4468 24.0418L54.7624 30.7636ZM55.285 40.7671C55.1686 40.0925 55.3926 39.4045 55.8842 38.9254L60.6193 34.3085L54.0753 33.3582C53.3979 33.2596 52.813 32.8347 52.509 32.2231L49.581 26.2889L46.6539 32.2214C46.349 32.8356 45.765 33.2605 45.0895 33.3591L38.5419 34.3094L43.2779 38.9254C43.7695 39.4045 43.9935 40.0925 43.877 40.7671L42.7588 47.2854L48.6121 44.208C48.9099 44.0516 49.245 43.9689 49.581 43.9689C49.917 43.9689 50.2522 44.0516 50.5499 44.2089L56.4033 47.2854L55.285 40.7671Z" clip-rule="evenodd"/>
</svg>
