<svg xmlns="http://www.w3.org/2000/svg" focusable="false" role="img" viewBox="0 0 100 100" fill="currentColor">
  <path fill-rule="evenodd" d="M72.333 20.2292C72.0851 20.2624 71.8451 20.34 71.6247 20.4583L70.458 21.0417C70.3418 20.7195 70.2026 20.4062 70.0413 20.1042C69.984 19.9553 69.8938 19.8214 69.7776 19.7122C69.6614 19.6029 69.522 19.5213 69.37 19.4733C69.2179 19.4252 69.0569 19.4121 68.8991 19.4347C68.7412 19.4574 68.5905 19.5153 68.458 19.6042C67.8861 20.0251 67.4044 20.5564 67.0414 21.1667C66.208 22.7916 65.4789 24.4791 64.7914 26.1458C64.3797 27.1272 64.0386 28.1367 63.7705 29.1666C63.5414 29.9791 63.7705 30.2083 64.5205 30.6666C65.0314 30.9789 65.5037 30.9237 65.9636 30.87C66.1788 30.8449 66.3914 30.82 66.6039 30.8333C66.8811 30.8416 67.1551 30.7717 67.3945 30.6318C67.634 30.4918 67.8292 30.2873 67.958 30.0416L70.3122 26.4583C70.4173 26.2721 70.559 26.1091 70.7289 25.9791C72.0777 25.0086 73.119 23.6707 73.7288 22.125C73.781 22.0159 73.8484 21.9067 73.9163 21.7966C74.1466 21.4232 74.3839 21.0385 74.0622 20.6042C73.7124 20.132 73.1426 20.1736 72.6235 20.2114C72.5242 20.2187 72.4267 20.2258 72.333 20.2292ZM43.068 36.2015C42.9361 36.2977 42.7848 36.364 42.6246 36.3959C41.9166 36.7024 41.1756 36.9261 40.4163 37.0625C39.708 37.125 39.3955 36.5 39.1455 35.9792C38.4035 34.5415 37.4716 33.2101 36.3746 32.0209C36.1048 31.7505 35.8671 31.4499 35.6663 31.125C35.6024 31.0042 35.5311 30.8871 35.4611 30.7719L35.461 30.7718C35.1205 30.2116 34.8085 29.6983 35.4996 29.0417C35.625 28.9302 35.5827 28.6417 35.5409 28.3569V28.3569C35.5202 28.2158 35.4996 28.0757 35.4996 27.9584C35.2705 26.9584 35.3538 26.1875 36.4371 25.875C36.4163 24.25 36.7288 23.8542 38.083 23.6667C39.0205 23.5625 39.3538 23.7292 39.7288 24.6459C40.2248 25.9874 40.7818 27.3228 41.3405 28.662L41.3405 28.662L41.3405 28.6621L41.3405 28.6621L41.3405 28.6622L41.3406 28.6622L41.3406 28.6623L41.3406 28.6623L41.3406 28.6624L41.3407 28.6624L41.3407 28.6624C41.8143 29.798 42.2891 30.9363 42.7288 32.0834C43.0545 32.9975 43.2985 33.9387 43.458 34.8959C43.5155 35.0487 43.5392 35.2121 43.5272 35.375C43.5152 35.5378 43.4679 35.6961 43.3886 35.8388C43.3093 35.9815 43.1999 36.1053 43.068 36.2015ZM68.7914 51.5833C68.9132 51.9818 68.9764 52.3958 68.9789 52.8125C68.6523 56.2785 68.6803 59.7688 69.0622 63.2292L69.0622 63.2294C69.3122 67.1668 69.5622 71.1042 69.4372 75.0417C69.4335 75.1513 69.4324 75.2668 69.4313 75.3848C69.4261 75.939 69.4203 76.5486 69.1455 76.875C68.4336 77.6496 67.5953 78.2977 66.6664 78.7917C65.6527 79.3343 64.4875 79.5249 63.3538 79.3333C63.2118 79.0745 63.0042 78.8574 62.752 78.7039C62.4997 78.5503 62.2116 78.4656 61.9163 78.4583C61.4477 78.3958 60.979 78.2982 60.5104 78.2006L60.51 78.2005C60.3538 78.168 60.1976 78.1354 60.0413 78.1042C59.5222 77.9591 58.9683 78.0034 58.4788 78.2292C57.7371 78.3866 56.9706 78.3866 56.2288 78.2292C56.0622 78.2083 55.7705 77.7292 55.7705 77.4583V71.3542V68.8125C55.8434 67.6048 55.9267 66.4024 56.01 65.1999L56.01 65.1998L56.01 65.1996L56.01 65.1994L56.01 65.1992L56.01 65.199L56.01 65.1988L56.01 65.1987L56.0101 65.1985L56.0101 65.1983L56.0101 65.1981L56.0101 65.1979L56.0101 65.1977C56.0934 63.9947 56.1768 62.7916 56.2497 61.5833C56.8739 55.3671 57.1729 49.1224 57.1455 42.875C57.1974 41.3486 56.9497 39.8269 56.4163 38.3958C56.3052 38.1827 56.2822 37.9344 56.3524 37.7045C56.4225 37.4746 56.5802 37.2814 56.7913 37.1666C57.1748 36.9158 57.5876 36.7129 58.0205 36.5625C58.5717 36.4385 59.1229 36.3509 59.7103 36.2576L59.7104 36.2576C60.011 36.2098 60.3211 36.1606 60.6455 36.1041C60.6509 35.929 60.6907 35.7567 60.7628 35.597C60.8348 35.4372 60.9376 35.2933 61.0653 35.1733C61.193 35.0534 61.3431 34.9598 61.507 34.8978C61.6709 34.8359 61.8454 34.8069 62.0205 34.8125C62.3432 34.7793 62.6659 34.7428 62.9888 34.7063L62.9892 34.7063L62.9896 34.7062L62.99 34.7062L62.9904 34.7061L62.9908 34.7061L62.9911 34.706L62.9915 34.706L62.9919 34.7059L62.9923 34.7059L62.9927 34.7059L62.9931 34.7058L62.9932 34.7058C64.0865 34.5822 65.1828 34.4583 66.2914 34.4583C67.208 34.3958 68.1455 34.4375 68.3747 35.7083C68.3955 35.7916 68.6455 35.9583 68.6455 35.9583C68.7725 36.039 68.8788 36.1484 68.9557 36.2777C69.0325 36.407 69.0779 36.5527 69.088 36.7028C69.0982 36.8529 69.0728 37.0033 69.0141 37.1418C68.9553 37.2803 68.8647 37.403 68.7497 37.5C68.53 37.7211 68.3662 37.9914 68.272 38.2885C68.1778 38.5857 68.1558 38.901 68.208 39.2083L68.208 39.2103C68.2705 42.8555 68.333 46.5006 68.4372 50.1458C68.5157 50.6339 68.6342 51.1146 68.7914 51.5833ZM50.7294 59.6666C50.8752 64.1249 51.1668 68.5624 51.4793 73.0207C51.6372 74.4378 51.916 75.8387 52.3127 77.2082C52.7085 78.7499 52.0835 79.7499 50.521 79.5624C48.8718 79.4389 47.2166 79.7029 45.6877 80.3332C44.6668 80.7082 44.5835 80.6457 43.9168 79.8124C43.8189 79.6808 43.6937 79.5717 43.55 79.4927C43.4062 79.4136 43.2471 79.3663 43.0835 79.3541C42.2085 79.4166 42.0627 78.8749 42.0627 78.2499C42.0403 77.9927 42.0135 77.7281 41.9861 77.4588C41.9116 76.7244 41.8335 75.9551 41.8335 75.2082C41.7259 73.3548 41.625 71.5046 41.524 69.6551L41.5239 69.6527L41.5238 69.6508L41.5237 69.6487L41.5235 69.6467C41.3705 66.8423 41.2175 64.0395 41.0418 61.2291C40.8918 58.8624 40.6885 56.4958 40.4852 54.1292C40.4343 53.5375 40.3835 52.9458 40.3335 52.3541C40.2502 51.1666 40.1668 49.9791 40.0418 48.7916C39.9585 48.0624 40.146 47.5416 40.8543 47.3957C41.14 46.6946 40.8188 46.3091 40.4958 45.9214C40.3006 45.687 40.1046 45.4519 40.0418 45.1457L41.1877 43.8749C40.4168 42.9166 40.4377 42.3124 41.5418 41.7916C42.8777 41.0409 44.339 40.5397 45.8543 40.3124C46.7991 40.2374 47.7331 40.1085 48.664 39.9799C49.0264 39.9299 49.3883 39.8799 49.7502 39.8332H50.271C51.5418 39.8124 52.0627 40.3541 51.896 41.6457C51.7293 42.9374 51.5627 44.2499 51.4169 45.5624C50.8549 50.2416 50.6252 54.9548 50.7294 59.6666ZM34.9584 54.4374C34.4533 54.0711 33.9081 53.7636 33.3334 53.5208C32.9702 53.3468 32.5645 53.2817 32.1652 53.3335C31.7659 53.3852 31.3901 53.5516 31.0834 53.8124C30.8797 54.0891 30.6985 54.3817 30.5417 54.6874C30.2995 54.5051 30.0204 54.3778 29.7239 54.3144C29.4274 54.2511 29.1207 54.2532 28.8251 54.3206C28.5295 54.3881 28.2522 54.5192 28.0125 54.7049C27.7729 54.8906 27.5766 55.1264 27.4375 55.3958C27.3872 55.4672 27.3135 55.5187 27.2292 55.5416C26.4167 55.8333 26.3959 56.4374 26.4584 57.1874C26.5084 58.0416 26.5609 58.8958 26.6134 59.7499C26.8234 63.1666 27.0334 66.5833 27.0834 69.9999C27.0284 72.7819 27.1397 75.5646 27.4167 78.3333C27.5834 79.4166 27.7917 79.6458 28.8334 79.5833C29.0511 79.5833 29.2688 79.521 29.4808 79.4604L29.4809 79.4604C29.5934 79.4283 29.7042 79.3966 29.8125 79.3749C31.5403 78.7877 33.3852 78.6304 35.1875 78.9166C35.4705 78.9736 35.7629 78.9637 36.0414 78.8878C36.3199 78.8118 36.5768 78.6719 36.7917 78.4791V75.2291C36.7917 74.3662 36.7445 73.4986 36.6972 72.6308L36.6972 72.6306C36.6453 71.6756 36.5933 70.7203 36.6042 69.7708C36.6042 67.9151 36.6415 66.0595 36.6788 64.2072L36.6788 64.2069C36.7097 62.6697 36.7406 61.1347 36.75 59.6041C36.7263 58.6907 36.6498 57.7795 36.5209 56.8749C36.7222 56.7446 36.9573 56.6581 37.1892 56.5728L37.1892 56.5727C37.7729 56.3579 38.3364 56.1505 38.2917 55.2708C37.8142 54.9137 37.2163 54.7567 36.625 54.8333C36.0393 54.9195 35.4428 54.7779 34.9584 54.4374ZM80.8956 39.8333C80.1431 40.0599 79.4375 40.4197 78.8122 40.8958C78.3974 41.2924 77.8682 41.5482 77.2997 41.6267C76.7312 41.7052 76.1524 41.6026 75.6456 41.3333C75.4446 40.7658 75.7401 40.4331 76.0333 40.103C76.2567 39.8515 76.4789 39.6014 76.4789 39.25C76.3784 39.2667 76.278 39.2935 76.1802 39.3196C76.0347 39.3585 75.8952 39.3958 75.7706 39.3958C75.3353 39.3255 74.9299 39.1301 74.6039 38.8333C74.2914 38.3958 74.6247 37.9791 75.0206 37.6458C77.1009 35.9241 79.4247 34.52 81.9164 33.4791C82.5935 33.2445 83.2546 32.9661 83.8956 32.6458C84.4361 32.3923 85.0494 32.3405 85.6247 32.5C86.5831 32.7083 86.7497 33.2291 86.2081 34.0625L85.7706 34.625L86.4581 34.9791C86.5951 35.0566 86.7119 35.1653 86.799 35.2964C86.886 35.4275 86.941 35.5773 86.9592 35.7336C86.9775 35.8899 86.9586 36.0483 86.9041 36.196C86.8496 36.3436 86.761 36.4763 86.6456 36.5833C85.5714 37.7232 84.254 38.6062 82.7914 39.1666C82.4738 39.32 82.1331 39.4215 81.7936 39.5226L81.7935 39.5227C81.4873 39.6139 81.1821 39.7049 80.8956 39.8333ZM51.2906 20.2917C50.9506 20.3301 50.635 20.4867 50.3989 20.7343C50.1628 20.9818 50.0212 21.3045 49.9989 21.6459C49.9625 21.8038 49.9331 21.9642 49.9038 22.1243C49.7823 22.7876 49.6615 23.4468 49.0406 23.9167C48.9768 24.0024 48.931 24.1 48.9059 24.2039C48.8808 24.3077 48.877 24.4155 48.8947 24.5209C48.8947 26.4898 48.9802 28.4587 49.0669 30.4583C49.1014 31.2514 49.136 32.0495 49.1656 32.8542C49.7057 33.171 50.3206 33.338 50.9468 33.338C51.573 33.338 52.1879 33.171 52.7281 32.8542C53.6138 32.4467 53.641 31.6929 53.6677 30.9511V30.951C53.6724 30.8205 53.6771 30.6903 53.6864 30.5625C53.8739 28.625 54.0614 26.6667 54.1447 24.7292C54.2557 24.1046 54.2411 23.4641 54.1015 22.8453C53.962 22.2264 53.7005 21.6416 53.3322 21.125C53.104 20.809 52.7916 20.5634 52.4307 20.4161C52.0698 20.2688 51.6748 20.2257 51.2906 20.2917ZM30 41.6666C29.5118 41.6554 29.0274 41.7551 28.5833 41.9582C28.1831 42.1939 27.7157 42.2891 27.2552 42.2287C26.7947 42.1684 26.3675 41.9558 26.0417 41.6249C25.8684 41.4586 25.709 41.3038 25.5496 41.149L25.5486 41.1481C25.2292 40.8379 24.9097 40.5277 24.4792 40.1249C23.8333 39.5207 23.0417 39.2291 22.3958 39.5207C21.75 39.8124 20.3125 38.6457 20.3125 37.9166C20.332 37.6637 20.4432 37.4267 20.625 37.2499C20.9158 37.0394 21.2223 36.8513 21.5417 36.6874C21.0208 34.8332 21.8125 33.9374 23.625 34.1874C24.1729 34.2657 24.7022 34.4421 25.1875 34.7082C27.1413 35.7393 28.8974 37.1076 30.375 38.7499C30.896 39.229 31.469 39.6483 32.0833 39.9999C31.8333 41.2499 30.9167 41.5207 30 41.6666ZM87.8538 73.8125C87.1684 73.6317 86.4727 73.4926 85.7705 73.3958L79.8955 72.375V72.5417C79.4307 72.5105 78.9644 72.5105 78.4997 72.5417C77.6872 72.6667 76.8747 73.3542 77.0622 73.8958C77.3689 74.797 76.9346 75.2923 76.4575 75.8364L76.4563 75.8378C76.4154 75.8844 76.3741 75.9315 76.333 75.9792C76.0757 76.3398 75.8657 76.7319 75.708 77.1459L77.0205 77.75H77.3955C78.958 77.75 80.5413 77.75 82.083 78C82.6519 78.1277 83.2409 78.1382 83.814 78.0307C84.3871 77.9233 84.9323 77.7002 85.4163 77.375C85.599 77.2562 85.805 77.1781 86.0205 77.1459C86.5809 77.0546 87.1058 76.8125 87.5389 76.4455C87.972 76.0784 88.297 75.6003 88.4788 75.0625C88.6872 74.3125 88.6247 74.0208 87.8538 73.8125ZM20.2496 51.1666C20.782 51.3685 21.3036 51.598 21.8121 51.8541C22.4371 52.2291 22.4371 52.7083 21.9371 53.0833C21.5979 53.352 21.1927 53.5247 20.7639 53.5833C20.3352 53.642 19.8985 53.5844 19.4996 53.4166C17.3121 52.6666 15.0204 51.875 12.9371 51.0416C11.9371 50.6875 11.8954 50.4375 12.4371 49.2291C12.2288 48.9166 11.9996 48.5625 11.7913 48.1875C11.2913 47.3958 11.3954 47.0208 12.2288 46.5833C12.8781 46.2681 13.5904 46.1044 14.3121 46.1044C15.0338 46.1044 15.7462 46.2681 16.3954 46.5833C17.8185 47.2073 19.2091 47.9026 20.5621 48.6666C21.5204 49.2083 21.5829 49.9583 20.8538 50.75C20.6663 50.9081 20.464 51.0476 20.2496 51.1666ZM88.7705 60.5208C88.1901 60.3812 87.5964 60.3043 86.9997 60.2916H80.3955C79.9307 60.2604 79.4644 60.2604 78.9997 60.2916C78.6231 60.3318 78.2565 60.4376 77.9163 60.6041C77.8069 60.6471 77.7108 60.7183 77.6377 60.8104C77.5647 60.9025 77.5173 61.0123 77.5004 61.1286C77.4835 61.245 77.4976 61.3637 77.5414 61.4728C77.5852 61.582 77.657 61.6775 77.7497 61.7499C77.9004 61.9069 78.0681 62.0467 78.2497 62.1666C77.8942 62.5782 77.5892 62.9561 77.2139 63.4212L77.083 63.5833L78.208 64.1874C78.2614 64.2208 78.3275 64.252 78.3935 64.2831C78.5337 64.3492 78.673 64.415 78.6872 64.4999C78.8955 65.4374 79.6247 65.3958 80.2913 65.3541C82.621 65.3409 84.9264 64.8812 87.083 63.9999C88.0791 63.6059 88.9 62.8663 89.3955 61.9166C89.7705 61.1249 89.583 60.7083 88.7705 60.5208ZM76.3279 51.7442C76.0827 50.4977 76.0499 50.331 77.229 50C78.7381 49.614 80.2537 49.2411 81.7758 48.8666L81.7784 48.8659C82.9663 48.5737 84.1582 48.2804 85.354 47.9792C86.3083 47.7907 87.2773 47.6861 88.2498 47.6667C88.729 47.6458 89.229 47.7083 89.3749 48.2708C89.4613 48.5174 89.461 48.786 89.3738 49.0323C89.2867 49.2786 89.118 49.4877 88.8957 49.625C87.0254 51.1516 84.7815 52.1513 82.3957 52.5208C81.3536 52.5486 80.3208 52.7062 79.2478 52.8698L79.2477 52.8698L79.2477 52.8698C78.7119 52.9515 78.166 53.0348 77.604 53.1042C77.5339 53.0808 77.4639 53.0607 77.3892 53.0393C77.1975 52.9844 76.9755 52.9208 76.6457 52.7708C76.2754 52.6025 76.2994 52.2846 76.3224 51.9819C76.3278 51.91 76.3332 51.8389 76.3332 51.7708L76.3279 51.7442ZM11.1243 64.875C11.3207 64.9638 11.5225 65.0404 11.7284 65.1041C12.0122 65.1987 12.2979 65.2923 12.5845 65.3862L12.5866 65.3869L12.5869 65.387C13.6252 65.7272 14.6751 66.0712 15.6868 66.4791C16.0951 66.6468 16.5398 66.7061 16.9778 66.6514C17.4158 66.5966 17.8323 66.4296 18.1868 66.1666C18.6504 65.888 19.1305 65.6376 19.6243 65.4166C20.1451 65.1875 20.4159 64.875 20.1451 64.3333C20.0216 64.1406 19.9426 63.9229 19.9138 63.6958C19.885 63.4688 19.9071 63.2382 19.9784 63.0208C20.0186 62.9017 20.0282 62.7744 20.0064 62.6507C19.9845 62.5269 19.9319 62.4106 19.8534 62.3125C19.1279 61.5289 18.1441 61.0333 17.0826 60.9166C15.3118 60.9166 13.5618 60.9166 11.7909 61.1458C11.5464 61.162 11.3078 61.2275 11.0894 61.3385C10.8709 61.4495 10.6773 61.6037 10.5201 61.7916C10.2254 62.2239 10.6348 62.582 10.9794 62.8835L11.0409 62.9375C11.0942 63.0108 11.1429 63.0873 11.1868 63.1666C11.1868 63.243 11.1012 63.3194 11.0156 63.3958C10.9611 63.4444 10.9067 63.493 10.8743 63.5416C10.4159 64.1666 10.4159 64.5833 11.1243 64.875ZM16.0417 72.3958C17.3075 72.0602 18.6077 71.8714 19.9167 71.8333C21.0417 71.7499 21.3125 72.4583 20.7917 73.8958C21.7292 75.4583 21.6459 75.6874 20.125 76.6249C19.5573 76.9922 18.8809 77.154 18.2084 77.0832L12.6667 76.3124C12.1592 76.2662 11.661 76.1469 11.1875 75.9582C10.5625 75.7082 10.5 75.1249 10.9792 74.6458C11.1477 74.4591 11.3535 74.3101 11.5834 74.2082C13.0364 73.5257 14.5246 72.9207 16.0417 72.3958Z" clip-rule="evenodd"/>
</svg>
