<svg xmlns="http://www.w3.org/2000/svg" viewBox="0 0 100 100" fill="currentColor" focusable="false" role="img">
  <path d="M98.4378 31.2499C98.4378 28.664 96.3362 26.5624 93.7503 26.5624C93.2113 26.5624 92.7034 26.6718 92.223 26.8398L85.223 18.0898C85.6684 17.371 85.9379 16.5312 85.9379 15.625C85.9379 13.0391 83.8363 10.9375 81.2504 10.9375C79.9379 10.9375 78.7504 11.4844 77.8988 12.3555L65.5828 6.67188C65.5945 6.53126 65.6257 6.39454 65.6257 6.25C65.6257 3.6641 63.5242 1.5625 60.9383 1.5625C58.9031 1.5625 57.1844 2.875 56.5399 4.6875H38.7739C38.1293 2.875 36.4106 1.5625 34.3755 1.5625C31.7895 1.5625 29.6879 3.6641 29.6879 6.25C29.6879 6.44531 29.7231 6.62891 29.7465 6.82031L21.9965 10.6953C21.1528 9.88281 20.0121 9.37501 18.7504 9.37501C16.1645 9.37501 14.0629 11.4766 14.0629 14.0625C14.0629 14.9688 14.3325 15.8086 14.7817 16.5234L7.78169 25.2734C7.29731 25.1094 6.7895 25 6.25049 25C3.66459 25 1.56299 27.1016 1.56299 29.6875C1.56299 31.7227 2.87549 33.4414 4.68799 34.0859V44.039C2.87549 44.6835 1.56299 46.4023 1.56299 48.4374C1.56299 51.0233 3.66459 53.1249 6.25049 53.1249C7.98489 53.1249 9.48489 52.1639 10.2974 50.7616L18.8286 52.3124C19.188 54.539 21.1098 56.2499 23.438 56.2499C23.5005 56.2499 23.5591 56.2342 23.6216 56.2303L26.6021 63.6834C25.6294 64.5467 25.0005 65.7889 25.0005 67.1873C25.0005 69.7732 27.1021 71.8748 29.688 71.8748C31.2583 71.8748 32.645 71.0897 33.4966 69.9021L46.9066 73.7341C47.0277 75.6364 48.2777 77.2224 50.0004 77.8396V89.3556C48.1879 90.0041 46.8754 91.7228 46.8754 93.754C46.8754 96.3399 48.977 98.4415 51.5629 98.4415C54.1488 98.4415 56.2504 96.3399 56.2504 93.754C56.2504 91.7188 54.9379 90.0001 53.1254 89.3556V77.8396C54.9379 77.1912 56.2504 75.4724 56.2504 73.4412C56.2504 71.9451 55.5316 70.6248 54.4379 69.7654L56.3051 64.1677L70.3251 68.8396C70.3641 70.8357 71.6532 72.5154 73.4423 73.1521V89.3551C71.6298 90.0036 70.3173 91.7223 70.3173 93.7535C70.3173 96.3394 72.4189 98.441 75.0048 98.441C77.5907 98.441 79.6923 96.3394 79.6923 93.7535C79.6923 91.7183 78.3798 89.9996 76.5673 89.3551L76.5634 73.1481C78.3759 72.4997 79.6884 70.7809 79.6884 68.7497C79.6884 68.1794 79.5712 67.6403 79.3837 67.1325L91.3717 57.1403C92.0709 57.5583 92.8795 57.8122 93.7506 57.8122C96.3365 57.8122 98.4381 55.7106 98.4381 53.1247C98.4381 51.0895 97.1256 49.3708 95.3131 48.7263V35.6483C97.1256 35.0038 98.4381 33.285 98.4381 31.2499L98.4378 31.2499ZM28.1178 51.4769C28.1139 51.2894 28.0866 51.1097 28.0632 50.9262L40.8792 44.2817L44.8401 57.0517L28.1178 51.4769ZM24.6295 47.0472L22.4654 30.4422L33.1724 29.9071C33.8521 31.5555 35.4458 32.7196 37.3169 32.7938L39.9419 41.2469L26.6329 48.1492C26.0704 47.6257 25.3868 47.2507 24.629 47.0476L24.6295 47.0472ZM10.5825 27.9062C10.4849 27.668 10.356 27.4453 10.2232 27.2266L17.2232 18.4766C17.4028 18.5391 17.5825 18.6055 17.77 18.6484L18.9223 27.4922L10.5825 27.9062ZM20.8675 18.2187C22.387 17.4453 23.4378 15.8828 23.4378 14.0625C23.4378 13.8672 23.4027 13.6836 23.3792 13.4961L31.1292 9.62113C31.973 10.4297 33.1136 10.9375 34.3753 10.9375C35.3363 10.9375 36.2269 10.6446 36.9691 10.1485L46.6722 17.4258L39.6488 23.9805C39.0004 23.6445 38.2777 23.4375 37.5004 23.4375C35.3832 23.4375 33.6137 24.8555 33.0316 26.7813L22.0546 27.3282L20.8675 18.2187ZM56.6445 8.11674L48.9922 15.2573L39.0625 7.81204H56.5395C56.5747 7.9136 56.602 8.01907 56.645 8.11673L56.6445 8.11674ZM61 30.3237L48.426 36.8432L41.719 30.1323C42.012 29.523 42.1878 28.8471 42.1878 28.1245C42.1878 27.4605 42.0433 26.8276 41.7933 26.2534L49.2113 19.3276L61.1723 28.2964C61.0316 28.7418 60.9379 29.2027 60.9379 29.687C60.9379 29.9058 60.973 30.1128 61.0004 30.3238L61 30.3237ZM39.062 28.1245C39.062 28.9878 38.3589 29.687 37.4995 29.687C36.6402 29.687 35.937 28.9878 35.937 28.1245C35.937 27.2613 36.6402 26.562 37.4995 26.562C38.3589 26.562 39.062 27.2613 39.062 28.1245ZM45.519 38.3515L42.7534 39.7851L40.8628 33.6992L45.519 38.3515ZM43.6948 42.8203L47.8354 40.6719L55.1557 47.9922C54.8628 48.6016 54.687 49.2774 54.687 50C54.687 51.4961 55.4057 52.8203 56.5034 53.6758L54.3237 60.211L48.4878 58.2657L43.6948 42.8203ZM59.3748 51.5625C58.5155 51.5625 57.8123 50.8633 57.8123 50C57.8123 49.1368 58.5155 48.4375 59.3748 48.4375C60.2342 48.4375 60.9373 49.1368 60.9373 50C60.9373 50.8633 60.2342 51.5625 59.3748 51.5625ZM59.3748 45.3125C58.6522 45.3125 57.9764 45.4883 57.367 45.7813L50.7459 39.1602L62.4339 33.0977C63.2738 33.8868 64.3909 34.375 65.6253 34.375C66.4964 34.375 67.305 34.1211 68.0042 33.7031L75.1175 39.6328L62.4885 46.5234C61.6565 45.7773 60.5744 45.3125 59.3752 45.3125L59.3748 45.3125ZM79.0268 19.7265C79.6909 20.0898 80.4409 20.3125 81.2495 20.3125C81.7886 20.3125 82.2964 20.2031 82.7768 20.0351L89.7768 28.789C89.3315 29.5078 89.062 30.3437 89.062 31.2499C89.062 31.4999 89.0972 31.7421 89.1362 31.9843L78.0662 38.0234L70.0037 31.3046C70.1951 30.7968 70.3123 30.2577 70.3123 29.6874C70.3123 29.0546 70.1834 28.4452 69.9529 27.8944L79.0268 19.7265ZM67.1868 29.6874C67.1868 30.5507 66.4837 31.2499 65.6243 31.2499C64.765 31.2499 64.0618 30.5507 64.0618 29.6874C64.0618 28.8242 64.765 28.1249 65.6243 28.1249C66.4837 28.1249 67.1868 28.8242 67.1868 29.6874ZM77.6988 41.7854L88.8938 51.1135L64.6358 48.9104L77.6988 41.7854ZM91.3708 49.1096L80.6518 40.176L90.6362 34.7307C91.0855 35.1331 91.6089 35.4456 92.187 35.6526V48.7306C91.9019 48.8283 91.6285 48.9533 91.3706 49.1095L91.3708 49.1096ZM95.3122 31.2506C95.3122 32.1139 94.6091 32.8131 93.7497 32.8131C92.8904 32.8131 92.1872 32.1139 92.1872 31.2506C92.1872 30.3874 92.8904 29.6881 93.7497 29.6881C94.6091 29.6881 95.3122 30.3874 95.3122 31.2506ZM81.2502 14.0626C82.1096 14.0626 82.8127 14.7619 82.8127 15.6251C82.8127 16.4884 82.1096 17.1876 81.2502 17.1876C80.3909 17.1876 79.6877 16.4884 79.6877 15.6251C79.6877 14.7619 80.3909 14.0626 81.2502 14.0626ZM76.6057 15.2032C76.594 15.3439 76.5628 15.4806 76.5628 15.6251C76.5628 16.2618 76.6917 16.8673 76.9222 17.4181L67.848 25.5861C67.1839 25.2228 66.4339 25.0002 65.6253 25.0002C64.6643 25.0002 63.7737 25.2932 63.0315 25.7892L51.5355 17.1642L58.7933 10.3908C59.4378 10.7268 60.1605 10.9377 60.9378 10.9377C62.2503 10.9377 63.4378 10.3908 64.2894 9.51582L76.6057 15.2032ZM60.9377 4.68724C61.7971 4.68724 62.5002 5.38646 62.5002 6.24974C62.5002 7.11302 61.7971 7.81224 60.9377 7.81224C60.0784 7.81224 59.3752 7.11302 59.3752 6.24974C59.3752 5.38646 60.0784 4.68724 60.9377 4.68724ZM34.3757 4.68724C35.2351 4.68724 35.9382 5.38646 35.9382 6.24974C35.9382 7.11302 35.2351 7.81224 34.3757 7.81224C33.5164 7.81224 32.8132 7.11302 32.8132 6.24974C32.8132 5.38646 33.5164 4.68724 34.3757 4.68724ZM18.7507 12.4997C19.6101 12.4997 20.3132 13.199 20.3132 14.0622C20.3132 14.9255 19.6101 15.6247 18.7507 15.6247C17.8914 15.6247 17.1882 14.9255 17.1882 14.0622C17.1882 13.199 17.8914 12.4997 18.7507 12.4997ZM6.25074 28.1247C7.11012 28.1247 7.81324 28.824 7.81324 29.6872C7.81324 30.5505 7.11012 31.2497 6.25074 31.2497C5.39136 31.2497 4.68824 30.5505 4.68824 29.6872C4.68824 28.824 5.39136 28.1247 6.25074 28.1247ZM6.25074 49.9997C5.39136 49.9997 4.68824 49.3005 4.68824 48.4372C4.68824 47.574 5.39136 46.8747 6.25074 46.8747C7.11012 46.8747 7.81324 47.574 7.81324 48.4372C7.81324 49.3005 7.11012 49.9997 6.25074 49.9997ZM7.81324 44.0388V34.0857C9.20774 33.5857 10.2898 32.4529 10.7194 31.0271L19.3327 30.5975L21.5124 47.3004C20.614 47.7067 19.8835 48.3902 19.3952 49.2379L10.8679 47.6871C10.5867 45.9879 9.39914 44.6012 7.81324 44.0387V44.0388ZM21.8752 51.5622C21.8752 50.699 22.5784 49.9997 23.4377 49.9997C24.2971 49.9997 25.0002 50.699 25.0002 51.5622C25.0002 52.4255 24.2971 53.1247 23.4377 53.1247C22.5784 53.1247 21.8752 52.4255 21.8752 51.5622ZM26.5236 55.0622C26.7424 54.8708 26.9377 54.6599 27.1174 54.4333L45.9844 60.7224L48.7696 69.699C48.3829 69.9881 48.0391 70.3318 47.7579 70.7224L34.3479 66.8904C34.1877 64.4451 32.1721 62.4998 29.6877 62.4998C29.6252 62.4998 29.5666 62.5155 29.5041 62.5194L26.5236 55.0622ZM29.6877 68.7502C28.8284 68.7502 28.1252 68.051 28.1252 67.1877C28.1252 66.3245 28.8284 65.6252 29.6877 65.6252C30.5471 65.6252 31.2502 66.3245 31.2502 67.1877C31.2502 68.051 30.5471 68.7502 29.6877 68.7502ZM51.5627 95.3122C50.7034 95.3122 50.0002 94.613 50.0002 93.7497C50.0002 92.8865 50.7034 92.1872 51.5627 92.1872C52.4221 92.1872 53.1252 92.8865 53.1252 93.7497C53.1252 94.613 52.4221 95.3122 51.5627 95.3122ZM51.5627 75.0002C50.7034 75.0002 50.0002 74.301 50.0002 73.4377C50.0002 72.5745 50.7034 71.8752 51.5627 71.8752C52.4221 71.8752 53.1252 72.5745 53.1252 73.4377C53.1252 74.301 52.4221 75.0002 51.5627 75.0002ZM51.6174 68.3361L49.633 61.9377L53.34 63.1721L51.6174 68.3361ZM59.4612 54.6801C61.3089 54.645 62.887 53.5395 63.6174 51.9574L89.2194 54.2855C89.2585 54.4418 89.3054 54.5941 89.364 54.7465L77.376 64.7387C76.6807 64.3168 75.8721 64.0629 75.001 64.0629C73.5049 64.0629 72.1807 64.7816 71.3252 65.8793L57.2902 61.1996L59.4612 54.6801ZM75.0002 95.3131C74.1408 95.3131 73.4377 94.6139 73.4377 93.7506C73.4377 92.8874 74.1408 92.1881 75.0002 92.1881C75.8596 92.1881 76.5627 92.8874 76.5627 93.7506C76.5627 94.6139 75.8596 95.3131 75.0002 95.3131ZM75.0002 70.3131C74.1408 70.3131 73.4377 69.6139 73.4377 68.7506C73.4377 67.8874 74.1408 67.1881 75.0002 67.1881C75.8596 67.1881 76.5627 67.8874 76.5627 68.7506C76.5627 69.6139 75.8596 70.3131 75.0002 70.3131ZM93.7502 54.6881C92.8909 54.6881 92.1877 53.9889 92.1877 53.1256C92.1877 52.2624 92.8909 51.5631 93.7502 51.5631C94.6096 51.5631 95.3127 52.2624 95.3127 53.1256C95.3127 53.9889 94.6096 54.6881 93.7502 54.6881Z"/>
  <path d="M4.6875 1.5625H7.8125V4.6875H4.6875V1.5625Z"/>
  <path d="M4.6875 7.8125H7.8125V10.9375H4.6875V7.8125Z"/>
  <path d="M7.8125 4.6875H10.9375V7.8125H7.8125V4.6875Z"/>
  <path d="M1.5625 4.6875H4.6875V7.8125H1.5625V4.6875Z"/>
  <path d="M82.812 73.4379H85.937V76.5629H82.812V73.4379Z"/>
  <path d="M82.812 79.6879H85.937V82.8129H82.812V79.6879Z"/>
  <path d="M85.938 76.5621H89.063V79.6871H85.938V76.5621Z"/>
  <path d="M79.688 76.5621H82.813V79.6871H79.688V76.5621Z"/>
  <path d="M92.188 7.8125H95.313V10.9375H92.188V7.8125Z"/>
  <path d="M92.188 14.062H95.313V17.187H92.188V14.062Z"/>
  <path d="M95.312 10.938H98.437V14.063H95.312V10.938Z"/>
  <path d="M89.062 10.938H92.187V14.063H89.062V10.938Z"/>
  <path d="M20.312 76.5621H23.437V79.6871H20.312V76.5621Z"/>
  <path d="M20.312 82.8121H23.437V85.9371H20.312V82.8121Z"/>
  <path d="M23.438 79.6879H26.563V82.8129H23.438V79.6879Z"/>
  <path d="M17.188 79.6879H20.313V82.8129H17.188V79.6879Z"/>
  <path d="M10.938 59.375H14.063V62.5H10.938V59.375Z"/>
  <path d="M10.938 65.625H14.063V68.75H10.938V65.625Z"/>
  <path d="M14.062 62.5H17.187V65.625H14.062V62.5Z"/>
  <path d="M7.8125 62.5H10.9375V65.625H7.8125V62.5Z"/>
</svg>
