<svg xmlns="http://www.w3.org/2000/svg" focusable="false" role="img" viewBox="0 0 100 100" fill="currentColor">
  <path d="M87.5757 38.0303C86.8181 35.9091 86.0605 33.7879 84.9999 31.8182C82.8787 33.3333 80.4545 34.0909 77.8787 34.0909C68.0302 34.0909 62.2727 22.8788 68.1817 14.8485C66.212 13.7879 64.0908 12.8788 61.9696 12.2727C59.8484 25.9091 40.1514 25.9091 38.1817 12.2727C36.0605 13.0303 33.9393 13.7879 31.9696 14.8485C40.1514 25.9091 26.0605 39.8485 15.1514 31.6666C14.0908 33.6363 13.1817 35.7576 12.5757 37.8788C26.212 40 26.212 59.6969 12.5757 61.6666C13.3333 63.7879 14.0908 65.9091 15.1514 67.8788C17.2727 66.3636 19.6969 65.606 22.2727 65.606C32.1211 65.606 37.8787 76.8182 31.9696 84.8485C33.9393 85.9091 36.0605 86.8182 38.1817 87.4242C40.303 73.7879 59.9999 73.7879 61.9696 87.4242C64.0908 86.6666 66.212 85.9091 68.1817 84.8485C62.4242 76.9697 68.0302 65.606 77.8787 65.606C80.4545 65.606 82.8787 66.3636 84.9999 67.8788C86.0605 65.9091 86.9696 63.7879 87.5757 61.6666C73.9393 59.8485 73.9393 40.1515 87.5757 38.0303ZM49.9999 74.2424C36.6666 74.2424 25.7575 63.3333 25.7575 50C25.7575 36.6666 36.6666 25.7576 49.9999 25.7576C63.3333 25.7576 74.2424 36.6666 74.2424 50C74.2424 63.3333 63.3333 74.2424 49.9999 74.2424Z"/>
  <path d="M50.0001 19.697C55.0209 19.697 59.091 15.6268 59.091 10.606C59.091 5.58528 55.0209 1.51514 50.0001 1.51514C44.9793 1.51514 40.9092 5.58528 40.9092 10.606C40.9092 15.6268 44.9793 19.697 50.0001 19.697Z"/>
  <path d="M50.0001 98.4848C55.0209 98.4848 59.091 94.4147 59.091 89.3939C59.091 84.3731 55.0209 80.303 50.0001 80.303C44.9793 80.303 40.9092 84.3731 40.9092 89.3939C40.9092 94.4147 44.9793 98.4848 50.0001 98.4848Z"/>
  <path d="M77.879 31.2121C82.8998 31.2121 86.9699 27.142 86.9699 22.1212C86.9699 17.1004 82.8998 13.0303 77.879 13.0303C72.8582 13.0303 68.7881 17.1004 68.7881 22.1212C68.7881 27.142 72.8582 31.2121 77.879 31.2121Z"/>
  <path d="M22.1212 86.9697C27.142 86.9697 31.2121 82.8995 31.2121 77.8788C31.2121 72.858 27.142 68.7878 22.1212 68.7878C17.1004 68.7878 13.0303 72.858 13.0303 77.8788C13.0303 82.8995 17.1004 86.9697 22.1212 86.9697Z"/>
  <path d="M89.3941 59.0909C94.4149 59.0909 98.485 55.0207 98.485 50C98.485 44.9792 94.4149 40.9091 89.3941 40.9091C84.3734 40.9091 80.3032 44.9792 80.3032 50C80.3032 55.0207 84.3734 59.0909 89.3941 59.0909Z"/>
  <path d="M10.606 59.0909C15.6268 59.0909 19.697 55.0207 19.697 50C19.697 44.9792 15.6268 40.9091 10.606 40.9091C5.58528 40.9091 1.51514 44.9792 1.51514 50C1.51514 55.0207 5.58528 59.0909 10.606 59.0909Z"/>
  <path d="M77.879 86.9697C82.8998 86.9697 86.9699 82.8995 86.9699 77.8788C86.9699 72.858 82.8998 68.7878 77.879 68.7878C72.8582 68.7878 68.7881 72.858 68.7881 77.8788C68.7881 82.8995 72.8582 86.9697 77.879 86.9697Z"/>
  <path d="M22.1212 31.2121C27.142 31.2121 31.2121 27.142 31.2121 22.1212C31.2121 17.1004 27.142 13.0303 22.1212 13.0303C17.1004 13.0303 13.0303 17.1004 13.0303 22.1212C13.0303 27.142 17.1004 31.2121 22.1212 31.2121Z"/>
</svg>
