<svg xmlns="http://www.w3.org/2000/svg" viewBox="0 0 100 100" fill="currentColor" focusable="false" role="img">
  <path d="M87.5762 38.0303C86.8186 35.9091 86.061 33.7879 85.0004 31.8182C82.8792 33.3333 80.455 34.0909 77.8792 34.0909C68.0307 34.0909 62.2731 22.8788 68.1822 14.8485C66.2125 13.7879 64.0913 12.8788 61.9701 12.2727C59.8489 25.9091 40.1519 25.9091 38.1822 12.2727C36.061 13.0303 33.9398 13.7879 31.9701 14.8485C40.1519 25.9091 26.061 39.8485 15.1519 31.6666C14.0913 33.6363 13.1822 35.7576 12.5762 37.8788C26.2125 40 26.2125 59.6969 12.5762 61.6666C13.3337 63.7879 14.0913 65.9091 15.1519 67.8788C17.2731 66.3636 19.6974 65.606 22.2731 65.606C32.1216 65.606 37.8792 76.8182 31.9701 84.8485C33.9398 85.9091 36.061 86.8182 38.1822 87.4242C40.3034 73.7879 60.0004 73.7879 61.9701 87.4242C64.0913 86.6666 66.2125 85.9091 68.1822 84.8485C62.4247 76.9697 68.0307 65.606 77.8792 65.606C80.455 65.606 82.8792 66.3636 85.0004 67.8788C86.061 65.9091 86.9701 63.7879 87.5762 61.6666C73.9398 59.8485 73.9398 40.1515 87.5762 38.0303ZM50.0004 74.2424C36.6671 74.2424 25.758 63.3333 25.758 50C25.758 36.6666 36.6671 25.7576 50.0004 25.7576C63.3337 25.7576 74.2428 36.6666 74.2428 50C74.2428 63.3333 63.3337 74.2424 50.0004 74.2424Z"/>
  <path d="M50.0001 19.697C55.0209 19.697 59.091 15.6268 59.091 10.606C59.091 5.58528 55.0209 1.51514 50.0001 1.51514C44.9793 1.51514 40.9092 5.58528 40.9092 10.606C40.9092 15.6268 44.9793 19.697 50.0001 19.697Z"/>
  <path d="M50.0001 98.4848C55.0209 98.4848 59.091 94.4147 59.091 89.3939C59.091 84.3731 55.0209 80.303 50.0001 80.303C44.9793 80.303 40.9092 84.3731 40.9092 89.3939C40.9092 94.4147 44.9793 98.4848 50.0001 98.4848Z"/>
  <path d="M77.879 31.2121C82.8998 31.2121 86.9699 27.142 86.9699 22.1212C86.9699 17.1004 82.8998 13.0303 77.879 13.0303C72.8582 13.0303 68.7881 17.1004 68.7881 22.1212C68.7881 27.142 72.8582 31.2121 77.879 31.2121Z"/>
  <path d="M22.1222 86.9697C27.1429 86.9697 31.2131 82.8995 31.2131 77.8788C31.2131 72.858 27.1429 68.7878 22.1222 68.7878C17.1014 68.7878 13.0312 72.858 13.0312 77.8788C13.0312 82.8995 17.1014 86.9697 22.1222 86.9697Z"/>
  <path d="M89.3946 59.0909C94.4154 59.0909 98.4855 55.0207 98.4855 50C98.4855 44.9792 94.4154 40.9091 89.3946 40.9091C84.3738 40.9091 80.3037 44.9792 80.3037 50C80.3037 55.0207 84.3738 59.0909 89.3946 59.0909Z"/>
  <path d="M10.6065 59.0909C15.6273 59.0909 19.6974 55.0207 19.6974 50C19.6974 44.9792 15.6273 40.9091 10.6065 40.9091C5.58576 40.9091 1.51562 44.9792 1.51562 50C1.51562 55.0207 5.58576 59.0909 10.6065 59.0909Z"/>
  <path d="M77.879 86.9697C82.8998 86.9697 86.9699 82.8995 86.9699 77.8788C86.9699 72.858 82.8998 68.7878 77.879 68.7878C72.8582 68.7878 68.7881 72.858 68.7881 77.8788C68.7881 82.8995 72.8582 86.9697 77.879 86.9697Z"/>
  <path d="M22.1222 31.2121C27.1429 31.2121 31.2131 27.142 31.2131 22.1212C31.2131 17.1004 27.1429 13.0303 22.1222 13.0303C17.1014 13.0303 13.0312 17.1004 13.0312 22.1212C13.0312 27.142 17.1014 31.2121 22.1222 31.2121Z"/>
</svg>
