<svg xmlns="http://www.w3.org/2000/svg" viewBox="0 0 103 100" fill="currentColor" focusable="false" role="img">
  <path stroke="black" d="M100.898 10.7956C100.474 10.371 99.7754 10.0869 99.057 10.2288L84.5619 12.5901C83.4415 12.7377 82.5827 13.8432 82.853 15.0036C83.0113 16.1168 84.1154 16.9653 85.2718 16.6908L92.7432 15.4467L78.6172 29.5727C71.3539 17.0544 57.8225 8.5 42.3863 8.5C19.3219 8.5 0.5 27.3219 0.5 50.3863C0.5 66.8994 10.1533 81.2404 24.0459 88.0022C24.1442 88.0816 24.2514 88.1336 24.3639 88.1623C24.423 88.1774 24.4803 88.1847 24.529 88.1882C29.9476 90.7698 36.0095 92.168 42.386 92.168H44.3218H44.333L44.3442 92.1675C51.5979 91.8418 58.4257 89.6844 64.2844 86.0156C64.4104 85.9799 64.5056 85.9154 64.562 85.8729C64.6259 85.8246 64.6886 85.7655 64.733 85.7226C76.4588 78.3189 84.2718 65.1725 84.2718 50.2813C84.2718 44.3116 83.0197 38.5516 80.7168 33.4046L96.3674 17.754L94.998 26.3343L94.9967 26.3422L94.9957 26.3502C94.8596 27.4233 95.5258 28.5904 96.7204 28.736L96.7505 28.7397H96.7809H96.995C97.9631 28.7397 98.9533 28.0499 99.1023 26.9135L101.459 12.4438C101.547 12.1376 101.479 11.8122 101.386 11.5647C101.381 11.5512 101.376 11.5376 101.37 11.5241L101.591 11.4889L100.898 10.7956ZM75.5241 32.6654L62.7026 45.487L45.7513 28.4251L45.7502 28.424L45.7451 28.4189C45.6911 28.3648 45.586 28.2597 45.4581 28.1682C45.3566 28.0956 45.1936 27.9966 44.9909 27.9646C44.7039 27.8447 44.4384 27.8449 44.33 27.845L44.3216 27.845H44.3177C44.2615 27.845 44.1285 27.845 43.9897 27.8627C43.9185 27.8717 43.8312 27.8871 43.7435 27.9158C43.6823 27.9358 43.5953 27.9703 43.5102 28.0326C43.4202 28.0783 43.3192 28.1297 43.2285 28.1814C43.1266 28.2395 42.9971 28.3199 42.8931 28.424L7.29595 63.9131C5.58185 59.7586 4.72404 55.2204 4.72404 50.3865C4.72404 29.5911 21.59 12.7252 42.3854 12.7252H42.5663L42.5671 12.7245C56.7886 12.7925 69.2356 20.8993 75.5241 32.6654ZM46.3306 87.7841L46.3258 35.0403L61.1316 49.846V82.8905C56.6763 85.4813 51.6513 87.2021 46.3306 87.7841ZM65.3516 48.7672L77.3628 36.7561C79.0648 40.9697 79.9231 45.4677 79.9386 50.2544V50.3865C79.9386 62.4394 74.2363 73.1973 65.3516 80.1256V48.7672ZM23.075 82.6378C17.1672 79.1959 12.4008 74.0795 9.14032 68.0007L23.075 54.066V82.6378ZM42.1008 88.0478C36.8781 88.0211 31.8453 86.8096 27.2999 84.8842V51.4615C27.2999 51.0462 27.1564 50.6491 26.934 50.3128L42.1008 35.146V88.0478Z"/>
</svg>
