<svg xmlns="http://www.w3.org/2000/svg" viewBox="0 0 100 100" fill="currentColor" focusable="false" role="img">
  <path d="M92.8906 3.90625H7.10938C3.20313 3.90625 0 6.875 0 10.7813V69.375C0 73.2813 3.20313 76.5625 7.10938 76.5625H35.1562V83.5938H29.6875C29.2187 83.5938 28.9062 83.5938 28.9062 83.9844V87.0313C28.9062 87.5 29.2187 88.2031 29.6875 88.2031H62.5V90.8594C62.5 93.9063 65 96.7969 68.0469 96.7969L86.6406 96.5625C89.6875 96.5625 92.1875 93.9844 92.1875 90.9375V76.4844H92.8125C96.7188 76.4844 99.9219 73.125 99.9219 69.2187V10.8594C100 7.03125 96.7969 3.90625 92.8906 3.90625ZM49.9219 70.625C48.5938 70.625 47.5781 69.6094 47.5781 68.2813C47.5781 66.9531 48.5938 65.9375 49.9219 65.9375C51.25 65.9375 52.2656 66.9531 52.2656 68.2813C52.2656 69.6094 51.1719 70.625 49.9219 70.625ZM62.5 51.9531V60.9375H6.25V10.1562H89.8438H93.75V60.9375H92.2656V52.0312C92.2656 48.9844 89.7656 46.4063 86.7188 46.4063H68.0469C65 46.4844 62.5 48.9062 62.5 51.9531ZM80.625 50.7812C80.625 51.6406 79.9219 52.3438 79.0625 52.3438H75.7812C74.9219 52.3438 74.2188 51.6406 74.2188 50.7812C74.2188 49.9219 74.9219 49.2188 75.7812 49.2188H79.0625C79.9219 49.2188 80.625 49.9219 80.625 50.7812ZM72.7344 50.4687C72.7344 50.8594 72.5781 51.25 72.2656 51.5625C71.9531 51.875 71.5625 52.0312 71.1719 52.0312C70.7812 52.0312 70.3906 51.875 70.0781 51.5625C69.7656 51.25 69.6094 50.8594 69.6094 50.4687C69.6094 50.0781 69.7656 49.6094 70.0781 49.375C70.7031 48.8281 71.7188 48.8281 72.2656 49.375C72.5781 49.6875 72.7344 50.0781 72.7344 50.4687ZM77.4219 94.9219C76.0937 94.9219 75.0781 93.9063 75.0781 92.5781C75.0781 91.25 76.0937 90.2344 77.4219 90.2344C78.75 90.2344 79.7656 91.25 79.7656 92.5781C79.7656 93.9063 78.6719 94.9219 77.4219 94.9219ZM89.0625 88.2812C89.0625 88.75 88.75 89.0625 88.2812 89.0625H66.4062C65.9375 89.0625 65.625 88.75 65.625 88.2812V55.4688C65.625 55 65.9375 54.6875 66.4062 54.6875H88.2812C88.75 54.6875 89.0625 55 89.0625 55.4688V88.2812Z"/>
</svg>
