<svg xmlns="http://www.w3.org/2000/svg" focusable="false" role="img" viewBox="0 0 100 100" fill="currentColor">
  <path d="M84.3696 13H15.6919C12.5645 13 10 15.3768 10 18.5042V65.4152C10 68.5426 12.5645 71.1696 15.6919 71.1696H38.1466V76.7989H33.7682C33.3929 76.7989 33.1428 76.7989 33.1428 77.1117V79.5511C33.1428 79.9263 33.3929 80.4893 33.7682 80.4893H60.0384V82.6159C60.0384 85.0553 62.0399 87.3696 64.4793 87.3696L79.3657 87.1819C81.8051 87.1819 83.8066 85.1178 83.8066 82.6785V71.1071H84.307C87.4344 71.1071 89.9989 68.4175 89.9989 65.2901V18.5668C90.0614 15.5019 87.497 13 84.3696 13ZM49.9682 66.416C48.9048 66.416 48.0917 65.6029 48.0917 64.5395C48.0917 63.4762 48.9048 62.6631 49.9682 62.6631C51.0315 62.6631 51.8446 63.4762 51.8446 64.5395C51.8446 65.6029 50.9689 66.416 49.9682 66.416ZM60.0384 51.467V58.66H15.0038V18.0038H81.9302H85.0576V58.66H83.8692V51.5296C83.8692 49.0902 81.8676 47.0261 79.4283 47.0261H64.4793C62.0399 47.0887 60.0384 49.0276 60.0384 51.467ZM74.5495 50.5288C74.5495 51.2168 73.9866 51.7798 73.2986 51.7798H70.6715C69.9835 51.7798 69.4206 51.2168 69.4206 50.5288C69.4206 49.8408 69.9835 49.2778 70.6715 49.2778H73.2986C73.9866 49.2778 74.5495 49.8408 74.5495 50.5288ZM68.2322 50.2786C68.2322 50.5913 68.1071 50.9041 67.8569 51.1543C67.6067 51.4045 67.294 51.5296 66.9812 51.5296C66.6685 51.5296 66.3557 51.4045 66.1055 51.1543C65.8554 50.9041 65.7303 50.5913 65.7303 50.2786C65.7303 49.9659 65.8554 49.5906 66.1055 49.4029C66.6059 48.9651 67.4191 48.9651 67.8569 49.4029C68.1071 49.6531 68.2322 49.9659 68.2322 50.2786ZM71.9851 85.8684C70.9217 85.8684 70.1086 85.0553 70.1086 83.992C70.1086 82.9287 70.9217 82.1155 71.9851 82.1155C73.0484 82.1155 73.8615 82.9287 73.8615 83.992C73.8615 85.0553 72.9858 85.8684 71.9851 85.8684ZM81.3047 80.5518C81.3047 80.9271 81.0545 81.1773 80.6792 81.1773H63.1658C62.7905 81.1773 62.5403 80.9271 62.5403 80.5518V54.2817C62.5403 53.9064 62.7905 53.6562 63.1658 53.6562H80.6792C81.0545 53.6562 81.3047 53.9064 81.3047 54.2817V80.5518Z"/>
</svg>
