<svg xmlns="http://www.w3.org/2000/svg" focusable="false" role="img" viewBox="0 0 100 100" fill="currentColor">
  <path stroke="black" d="M90.4802 24.1478C89.456 22.5493 87.3302 22.0778 85.7317 23.1021C84.1332 24.1264 83.6617 26.2521 84.686 27.8506C91.1402 38.0421 92.7945 50.5515 89.216 62.0714C85.6332 73.5914 77.1771 82.9598 66.0861 87.6951C54.9908 92.4351 42.3781 92.0665 31.5779 86.6837C20.7822 81.3052 12.8881 71.4609 9.99058 59.7478C7.0892 48.0392 9.4763 35.6492 16.5134 25.8518C23.5548 16.0547 34.5394 9.84015 46.5607 8.85493V19.1406C37.6936 20.1306 29.6878 24.9091 24.6092 32.2459C19.5349 39.583 17.8806 48.7589 20.0749 57.4076C22.2735 66.0519 28.1063 73.3293 36.069 77.3492C44.0361 81.3735 53.3489 81.7506 61.6158 78.3864C69.8786 75.0264 76.2813 68.2507 79.1744 59.8074C82.0672 51.3689 81.163 42.0865 76.6973 34.3637C75.7116 32.8122 73.6802 32.3151 72.0902 33.2366C70.496 34.1538 69.913 36.1638 70.766 37.7923C74.2802 43.7323 75.0645 50.8976 72.9216 57.4596C70.7787 64.0215 65.9188 69.3394 59.576 72.0614C53.2333 74.7871 46.0242 74.6457 39.7936 71.6799C33.5621 68.7142 28.9079 63.2071 27.0218 56.569C25.1357 49.931 26.1989 42.8033 29.936 37.0049C33.6775 31.202 39.7331 27.2935 46.5598 26.2736V36.7649C39.8741 38.4921 35.5116 44.9206 36.3856 51.7738C37.2556 58.6223 43.0842 63.7567 49.9879 63.7567C56.8917 63.7567 62.7202 58.6225 63.5902 51.7738C64.4645 44.921 60.1017 38.4929 53.4161 36.7649V5.42851C53.4161 4.51995 53.0561 3.64566 52.4132 3.00285C51.7703 2.35999 50.8961 2 49.9875 2C35.6732 2.00429 22.1093 8.39423 12.9932 19.4346C3.87749 30.4707 0.162142 44.999 2.86176 59.0555C5.56137 73.1121 14.3949 85.2278 26.9516 92.1024C39.504 98.9766 54.4744 99.8896 67.7728 94.5881C81.0668 89.291 91.3053 78.3329 95.6895 64.7086C100.078 51.08 98.1537 36.2083 90.4438 24.1486L90.4802 24.1478ZM56.8464 49.9986C56.8464 52.7714 55.175 55.2743 52.6121 56.3328C50.0493 57.3956 47.1007 56.8085 45.1421 54.8456C43.1792 52.887 42.5922 49.9384 43.655 47.3756C44.7135 44.8128 47.2164 43.1413 49.9892 43.1413C51.8062 43.1413 53.5506 43.8656 54.8363 45.1513C56.1221 46.437 56.8463 48.1813 56.8463 49.9985L56.8464 49.9986Z"/>
</svg>
