<svg xmlns="http://www.w3.org/2000/svg" focusable="false" role="img" viewBox="0 0 100 100" fill="currentColor">
  <path fill-rule="evenodd" d="M52.791 10.4451C50.425 11.7001 48.873 13.8861 48.346 16.3141C47.925 18.2581 48.162 20.3581 49.166 22.2531C51.428 26.5161 56.713 28.1401 60.977 25.8781C63.342 24.6241 64.895 22.4381 65.421 20.0111C65.843 18.0651 65.608 15.9661 64.602 14.0691C62.341 9.80709 57.055 8.18509 52.791 10.4451ZM48.39 22.6651C47.329 20.6621 47.008 18.3391 47.488 16.1271C48.091 13.3531 49.874 10.9981 52.38 9.67009C57.064 7.18609 62.895 8.97609 65.378 13.6581C66.439 15.6621 66.758 17.9841 66.279 20.1971C65.677 22.9731 63.894 25.3261 61.386 26.6541C59.12 27.8581 56.517 28.1051 54.062 27.3521C51.609 26.5991 49.593 24.9341 48.39 22.6651ZM40.5509 24.521C40.0239 26.949 38.4719 29.136 36.1069 30.39C31.8449 32.649 26.5569 31.028 24.2969 26.765C23.2929 24.869 23.0549 22.769 23.4779 20.824C24.0039 18.397 25.5569 16.21 27.9219 14.956C32.1849 12.694 37.4719 14.318 39.7319 18.581C40.7359 20.477 40.9729 22.576 40.5509 24.521ZM41.4099 24.708C41.8899 22.495 41.5689 20.172 40.5079 18.169C39.3039 15.9 37.2899 14.236 34.8359 13.482C32.3799 12.728 29.7789 12.977 27.5109 14.179C25.0049 15.507 23.2209 17.862 22.6189 20.637C22.1389 22.85 22.4589 25.173 23.5219 27.177C26.0049 31.859 31.8339 33.649 36.5189 31.166C39.0239 29.836 40.8069 27.483 41.4099 24.708ZM81.7389 40.2941C84.1039 39.0401 85.6589 36.8521 86.1839 34.4251C86.6049 32.4801 86.3689 30.3811 85.3639 28.4841C83.1039 24.2221 77.8189 22.5981 73.5549 24.8591C71.1899 26.1141 69.6369 28.3011 69.1099 30.7281C68.6879 32.6731 68.9229 34.7731 69.9299 36.6691C72.1899 40.9321 77.4769 42.5531 81.7389 40.2941ZM86.1409 28.0731C87.2009 30.0761 87.5199 32.3981 87.0409 34.6121C86.4389 37.3871 84.6559 39.7401 82.1479 41.0691C77.4649 43.5521 71.6359 41.7631 69.1519 37.0791C68.0909 35.0761 67.7699 32.7531 68.2499 30.5401C68.8539 27.7661 70.6369 25.4111 73.1429 24.0831C75.4089 22.8791 78.0139 22.6321 80.4669 23.3851C82.9229 24.1391 84.9379 25.8031 86.1409 28.0731ZM75.738 24.8892C76.178 24.7792 76.625 24.7072 77.083 24.6752C77.396 24.6512 77.716 24.6502 78.033 24.6652L70.878 28.4612C71.045 28.1862 71.224 27.9232 71.42 27.6742C71.706 27.3152 72.017 26.9852 72.353 26.6822L75.738 24.8892ZM79.9556 24.9921L79.9468 24.9904C79.9413 24.9893 79.9357 24.988 79.9299 24.9862C79.7179 24.9222 79.5059 24.8712 79.2959 24.8252L70.3049 29.5932C70.2229 29.7932 70.1469 29.9962 70.0799 30.2092C70.0759 30.2232 70.0699 30.2362 70.0639 30.2492C70.0138 30.4122 69.977 30.5744 69.9398 30.7381L69.9289 30.7862L80.4909 25.1852C80.3199 25.1182 80.1499 25.0522 79.9749 24.9962C79.9683 24.9944 79.962 24.9933 79.9556 24.9921ZM81.338 25.5649C81.493 25.6459 81.641 25.7339 81.787 25.8239L81.7924 25.8273C81.9355 25.9151 82.0757 26.0011 82.21 26.0959L69.721 32.7159C69.7193 32.579 69.7245 32.4414 69.7297 32.3025V32.3025V32.3025V32.3024V32.3024V32.3024V32.3024V32.3023V32.3023V32.3023V32.3022V32.3022V32.3021V32.3021V32.302V32.302V32.3019V32.3019V32.3018V32.3018V32.3017V32.3016V32.3016V32.3015V32.3014V32.3013V32.3012V32.3011L69.733 32.2139C69.742 32.0419 69.7509 31.8719 69.77 31.6989L81.338 25.5649ZM83.1819 26.9068C83.0729 26.7988 82.9579 26.6928 82.8409 26.5908L69.7779 33.5168C69.7979 33.6718 69.8209 33.8248 69.8479 33.9768C69.8691 34.1001 69.897 34.2206 69.925 34.3418L69.9439 34.4238L83.4999 27.2378C83.3959 27.1248 83.2919 27.0128 83.1819 26.9068ZM84.0447 27.9069L84.0445 27.9066L84.023 27.8782C84.0066 27.8565 83.9902 27.8348 83.9739 27.813L70.1519 35.142L70.1519 35.142L70.1519 35.142L70.152 35.1421L70.152 35.1421L70.152 35.1421L70.152 35.1422L70.152 35.1422L70.152 35.1422L70.152 35.1422L70.152 35.1423L70.152 35.1423L70.1521 35.1423L70.1521 35.1424L70.1521 35.1424L70.1521 35.1424L70.1521 35.1424L70.1521 35.1425L70.1521 35.1425L70.1521 35.1425L70.1521 35.1426L70.1522 35.1426L70.1522 35.1426L70.1522 35.1426L70.1522 35.1427L70.1522 35.1427L70.1522 35.1427L70.1522 35.1428L70.1522 35.1428L70.1522 35.1428L70.1523 35.1428L70.1523 35.1429L70.1523 35.1429L70.1523 35.1429L70.1523 35.143L70.1523 35.143L70.1523 35.143L70.1523 35.143L70.1524 35.1431L70.1524 35.1431L70.1524 35.1431L70.1524 35.1432L70.1524 35.1432L70.1524 35.1432L70.1524 35.1432L70.1524 35.1433L70.1524 35.1433L70.1525 35.1433L70.1525 35.1434L70.1525 35.1434L70.1525 35.1434C70.1993 35.2829 70.2461 35.4225 70.3019 35.559C70.3548 35.6897 70.415 35.8148 70.4764 35.9424L70.4839 35.958L84.4629 28.545L84.4506 28.5239C84.3824 28.4073 84.3114 28.286 84.2359 28.17C84.1757 28.0797 84.1101 27.9932 84.0447 27.9069ZM85.212 34.9442C85.2136 34.9361 85.2167 34.9292 85.2198 34.9221L85.2198 34.922L85.2199 34.9219C85.2213 34.9186 85.2228 34.9153 85.2241 34.9119L85.2257 34.9076L85.227 34.9032C85.2764 34.7453 85.3118 34.5889 85.3476 34.4307L85.3477 34.4301L85.362 34.3672L74.8 39.9672C74.973 40.0342 75.145 40.1002 75.321 40.1562L75.3294 40.158L75.3365 40.1596L75.3368 40.1596L75.3456 40.1616C75.3511 40.1628 75.3569 40.164 75.364 40.1652C75.576 40.2292 75.785 40.2812 75.999 40.3262L84.989 35.5582C85.068 35.3592 85.145 35.1552 85.212 34.9442ZM84.4139 36.6929C84.2469 36.9659 84.0659 37.2289 83.8709 37.4779C83.5879 37.8369 83.2749 38.1669 82.9399 38.4689L79.5529 40.2639C79.1149 40.3749 78.6669 40.4459 78.2109 40.4789C77.8949 40.5009 77.5759 40.5049 77.2559 40.4879L84.4139 36.6929ZM85.5609 32.9381L85.5648 32.8353V32.8352V32.8351V32.835V32.8349V32.8348V32.8347V32.8346V32.8345V32.8344V32.8343V32.8342V32.8342C85.5701 32.7002 85.5753 32.5668 85.5729 32.4341L73.0829 39.0581C73.2189 39.1531 73.3619 39.2421 73.5079 39.3311C73.654 39.4201 73.8019 39.5091 73.9539 39.5901L85.5219 33.4551C85.54 33.3052 85.5485 33.1568 85.5569 33.0092V33.0091L85.5609 32.9381ZM85.3469 30.729C85.3839 30.876 85.4179 31.025 85.4449 31.173C85.4749 31.326 85.4979 31.48 85.5119 31.636L72.4499 38.562C72.3319 38.462 72.2189 38.355 72.1079 38.247C71.9997 38.1408 71.8975 38.0307 71.7943 37.9195L71.7919 37.917L85.3469 30.729ZM84.991 29.5928C84.9472 29.4866 84.8974 29.3834 84.8476 29.2804C84.8337 29.2515 84.8198 29.2227 84.806 29.1938L70.826 36.6058L70.871 36.6819C70.931 36.7838 70.9901 36.8841 71.055 36.9818C71.139 37.1048 71.229 37.2228 71.319 37.3398L85.141 30.0108L85.1358 29.9957C85.0896 29.8599 85.044 29.7259 84.991 29.5928ZM30.646 70.1562C30.12 72.5852 28.567 74.7712 26.202 76.0232C21.94 78.2832 16.652 76.6622 14.393 72.4002C13.388 70.5042 13.151 68.4042 13.573 66.4582C14.1 64.0332 15.653 61.8462 18.018 60.5912C22.281 58.3292 27.568 59.9532 29.827 64.2162C30.831 66.1112 31.069 68.2132 30.646 70.1562ZM31.504 70.3442C31.985 68.1312 31.664 65.8092 30.603 63.8072C29.399 61.5362 27.384 59.8722 24.93 59.1192C22.476 58.3642 19.873 58.6122 17.605 59.8172C15.1 61.1432 13.316 63.5002 12.714 66.2742C12.234 68.4872 12.554 70.8092 13.615 72.8132C16.099 77.4962 21.929 79.2852 26.613 76.8032C29.12 75.4732 30.903 73.1202 31.504 70.3442ZM28.6199 63.7228L28.5999 63.6948L14.6519 71.0918C14.6613 71.1167 14.6705 71.1419 14.6798 71.1672C14.6963 71.2124 14.713 71.258 14.7309 71.3028L14.7392 71.3221C14.7585 71.3669 14.7781 71.4124 14.7999 71.4578L28.8209 64.0248C28.8134 64.0132 28.806 64.0014 28.7987 63.9896L28.787 63.9706L28.7869 63.9705L28.7868 63.9703L28.7867 63.9702C28.7677 63.9393 28.7486 63.9083 28.7279 63.8788C28.6996 63.8329 28.6689 63.7904 28.6381 63.7479L28.6199 63.7228ZM27.459 62.4092C27.5227 62.4659 27.5834 62.525 27.6437 62.5837L27.67 62.6092C27.6764 62.615 27.6828 62.621 27.6891 62.6271C27.6988 62.6365 27.7083 62.6461 27.7179 62.6558C27.7311 62.6691 27.7443 62.6824 27.758 62.6952L14.297 69.8342C14.288 69.7952 14.28 69.7542 14.273 69.7132L14.2709 69.7014L14.2709 69.7014C14.2546 69.6094 14.2384 69.5182 14.226 69.4262L27.459 62.4092ZM26.2199 61.4893L26.2199 61.4893L26.2196 61.4891L26.2194 61.489L26.2193 61.4889L26.2192 61.4888C26.1268 61.4336 26.0334 61.3777 25.9379 61.3262L14.1839 67.5592C14.1729 67.6862 14.1649 67.8152 14.1599 67.9442L14.1587 67.9694C14.1578 67.9869 14.1569 68.0047 14.1569 68.0202L26.3349 61.5602L26.3169 61.5494C26.3007 61.5399 26.2853 61.5309 26.2699 61.5192L26.2199 61.4893ZM14.509 65.925C14.567 65.745 14.631 65.569 14.7 65.395L23.857 60.541C24.039 60.581 24.222 60.628 24.403 60.681L24.422 60.687L14.502 65.949L14.509 65.925ZM16.769 62.407C16.459 62.686 16.173 62.989 15.918 63.305L21.444 60.374C21.036 60.41 20.626 60.477 20.224 60.576L16.769 62.407ZM29.7169 70.6641C29.6499 70.8711 29.5849 71.0481 29.5179 71.2161L20.3609 76.0701C20.1769 76.0311 19.9969 75.9841 19.8139 75.9291L19.7939 75.9231L29.7169 70.6641ZM27.452 74.2032C27.759 73.9262 28.046 73.6232 28.302 73.3052L22.775 76.2362C23.182 76.2012 23.591 76.1332 23.995 76.0362L27.452 74.2032ZM30.0619 68.5898C30.0614 68.6025 30.0612 68.6153 30.0609 68.6283C30.0607 68.6411 30.0604 68.654 30.0599 68.6668L30.0566 68.7289C30.0509 68.837 30.0452 68.9446 30.0359 69.0528L18.2819 75.2838C18.1986 75.2381 18.1175 75.1892 18.0369 75.1405C18.0082 75.1232 17.9796 75.1059 17.9509 75.0888C17.9439 75.0843 17.9372 75.0801 17.9305 75.076L17.9088 75.063L17.9087 75.063L17.8849 75.0489L30.0619 68.5898ZM29.9311 66.828L29.9262 66.8029L29.9209 66.7749L16.4609 73.9109C16.4879 73.9409 16.5189 73.9729 16.5479 73.9989L16.5783 74.0284C16.6375 74.086 16.6975 74.1444 16.7589 74.1999L29.9909 67.1829C29.9779 67.0859 29.9619 66.9919 29.9439 66.8959C29.9401 66.8732 29.9356 66.8504 29.9311 66.828ZM29.44 65.1976L29.4401 65.1978C29.4562 65.2342 29.4723 65.2703 29.487 65.3079C29.5149 65.3749 29.5409 65.4469 29.5659 65.5169L15.6199 72.9149C15.5749 72.8549 15.5309 72.7919 15.4899 72.7299C15.4569 72.6829 15.4269 72.6339 15.3979 72.5839L29.4189 65.1499L29.4237 65.1608L29.44 65.1976ZM74.12 73.5115C74.1937 73.6085 74.2665 73.7042 74.3339 73.8052C74.3864 73.885 74.4347 73.9672 74.4829 74.0492C74.5091 74.0938 74.5352 74.1382 74.5619 74.1822L60.5829 81.5942L60.5456 81.5172C60.4938 81.4106 60.4423 81.3047 60.3979 81.1942C60.3518 81.0793 60.3127 80.9637 60.273 80.8462L60.2499 80.7782L74.0719 73.4482L74.12 73.5115ZM73.279 72.5401C73.169 72.4341 73.054 72.327 72.937 72.2271L59.874 79.1501C59.895 79.3041 59.917 79.4591 59.945 79.6111C59.9666 79.741 59.9965 79.8695 60.0263 79.9971L60.04 80.0561L73.596 72.8701C73.564 72.8366 73.5326 72.803 73.5011 72.7694L73.5008 72.7691L73.5008 72.769L73.5007 72.769L73.5007 72.7689L73.5007 72.7689L73.5006 72.7689L73.5006 72.7688C73.4287 72.692 73.3567 72.615 73.279 72.5401ZM71.436 71.1992C71.592 71.2792 71.739 71.3682 71.885 71.4582L71.9623 71.5065L71.9624 71.5066L71.9625 71.5067L71.9627 71.5068L71.9628 71.5069L71.963 71.5069L71.9631 71.507L71.9632 71.5071L71.9634 71.5072L71.9635 71.5073L71.9641 71.5077L71.9642 71.5077L71.9646 71.508C72.0807 71.5803 72.1975 71.6531 72.309 71.7312L59.821 78.3522C59.8173 78.1991 59.8238 78.0443 59.8303 77.8893L59.832 77.8502C59.84 77.6762 59.848 77.5062 59.868 77.3342L71.436 71.1992ZM70.0483 70.6244L70.0482 70.6244C70.0413 70.6229 70.0342 70.6214 70.0269 70.619C69.8139 70.557 69.6029 70.506 69.3899 70.459L60.4019 75.229C60.3199 75.428 60.2439 75.632 60.1769 75.842C60.1719 75.856 60.1659 75.869 60.1599 75.883C60.1196 76.0174 60.0888 76.1501 60.0578 76.2832L60.0403 76.3584L60.0259 76.419L70.5869 70.818C70.4179 70.752 70.2489 70.688 70.0699 70.63C70.0628 70.6274 70.0556 70.6259 70.0483 70.6244ZM65.8359 70.5239C66.2759 70.4129 66.7229 70.3409 67.1799 70.3089C67.4939 70.2849 67.8119 70.2829 68.1299 70.2989L60.9759 74.0939C61.1439 73.8209 61.3219 73.5589 61.5189 73.3089C61.8029 72.9509 62.1149 72.6199 62.4509 72.3169L65.8359 70.5239ZM75.311 80.577C75.3126 80.5716 75.3146 80.5666 75.3167 80.5614C75.3185 80.5569 75.3203 80.5522 75.322 80.5471L75.3234 80.5427L75.325 80.537C75.3759 80.3735 75.4118 80.2142 75.4488 80.0508L75.4488 80.0504L75.4488 80.0503L75.4489 80.0502L75.4489 80.0501L75.4489 80.05L75.4489 80.0499L75.449 80.0495L75.4491 80.0491L75.46 80.001L64.899 85.602L64.9798 85.6331L64.9799 85.6332C65.125 85.6892 65.2704 85.7454 65.418 85.791C65.433 85.794 65.446 85.797 65.461 85.801C65.674 85.863 65.884 85.917 66.097 85.96L75.088 81.193C75.167 80.993 75.242 80.79 75.311 80.577ZM74.5119 82.3271C74.3459 82.5992 74.1649 82.8631 73.9669 83.1111C73.686 83.4731 73.3739 83.8011 73.0389 84.1011L69.6509 85.8981C69.2119 86.0081 68.7659 86.0811 68.3089 86.1131C67.9939 86.1351 67.6739 86.1391 67.3539 86.1211L74.5119 82.3271ZM75.657 78.5699L75.6601 78.4857C75.6654 78.3458 75.6707 78.2058 75.669 78.0659L63.18 84.6909C63.317 84.7869 63.46 84.8749 63.604 84.9619C63.75 85.0529 63.899 85.1409 64.051 85.2229L75.619 79.0869C75.6385 78.9348 75.6462 78.7827 75.6539 78.6299L75.657 78.5699ZM75.4449 76.3638C75.4819 76.5118 75.5159 76.6608 75.5429 76.8088C75.5699 76.9608 75.5959 77.1148 75.6099 77.2688L62.5469 84.1968C62.4309 84.0958 62.3169 83.9878 62.2059 83.8818C62.1105 83.789 62.0197 83.6908 61.9301 83.594L61.8919 83.5528L75.4449 76.3638ZM75.088 75.2271C75.043 75.116 74.9908 75.0082 74.9388 74.901L74.904 74.8291L60.925 82.2401C60.9449 82.2734 60.9646 82.3069 60.9841 82.3402C61.039 82.4338 61.0935 82.5266 61.154 82.6151C61.2155 82.7073 61.282 82.7962 61.3486 82.8851L61.3711 82.9152L61.415 82.9741L75.236 75.6441L75.2189 75.5934C75.1777 75.4711 75.1363 75.3483 75.088 75.2271ZM71.8359 85.9279C74.2009 84.674 75.7539 82.4869 76.2809 80.059C76.7029 78.113 76.4669 76.016 75.4609 74.121C73.2009 69.858 67.9139 68.233 63.6499 70.495C61.2849 71.75 59.7319 73.934 59.2059 76.364C58.7839 78.307 59.0209 80.407 60.0249 82.303C62.2869 86.565 67.5739 88.188 71.8359 85.9279ZM76.2389 73.707C77.2989 75.71 77.6189 78.033 77.1389 80.246C76.5369 83.021 74.7539 85.3739 72.2479 86.7009C67.5639 89.1849 61.7319 87.396 59.2509 82.712C58.1899 80.7089 57.8689 78.386 58.3479 76.174C58.9509 73.4 60.7349 71.0439 63.2429 69.7149C65.5079 68.5129 68.1099 68.2649 70.5649 69.0189C73.0199 69.7729 75.0339 71.437 76.2389 73.707ZM38.5314 18.0978L38.504 18.0601L24.556 25.4571C24.581 25.5261 24.607 25.5971 24.635 25.6671C24.657 25.7191 24.68 25.7721 24.705 25.8231L38.726 18.3891C38.695 18.3401 38.664 18.2911 38.633 18.2451C38.6013 18.1935 38.5664 18.1458 38.5314 18.0978ZM37.3639 16.772C37.4238 16.8268 37.4816 16.8831 37.539 16.939L37.5739 16.973C37.6049 17.002 37.6339 17.0309 37.6629 17.0599L37.6629 17.06L24.2029 24.198C24.1939 24.157 24.1859 24.117 24.1799 24.076C24.1609 23.981 24.1459 23.885 24.1329 23.789L37.3639 16.772ZM36.1749 15.885C36.0639 15.817 35.9549 15.751 35.8429 15.689L24.0879 21.922C24.0779 22.049 24.0709 22.178 24.066 22.306C24.0639 22.332 24.062 22.358 24.062 22.383L36.24 15.924C36.217 15.911 36.1959 15.899 36.1749 15.885ZM24.4139 20.2888C24.4709 20.1088 24.5349 19.9328 24.6049 19.7578L33.7619 14.9028C33.9439 14.9428 34.1269 14.9888 34.3089 15.0438L34.3279 15.0498L24.4069 20.3098L24.4139 20.2888ZM26.674 16.7709C26.364 17.0489 26.079 17.3509 25.822 17.6679L31.348 14.7349C30.94 14.7719 30.531 14.8389 30.128 14.9389L26.674 16.7709ZM39.6219 25.0278C39.5549 25.2358 39.4909 25.4128 39.4239 25.5808L30.2649 30.4358C30.0829 30.3958 29.9019 30.3498 29.7189 30.2948L29.6989 30.2898L39.6219 25.0278ZM37.356 28.5669C37.663 28.2899 37.95 27.9869 38.207 27.6689L32.679 30.6009C33.087 30.5649 33.496 30.4969 33.899 30.4009L37.356 28.5669ZM39.9669 22.9551C39.9659 22.9811 39.9649 23.0051 39.9629 23.0321C39.9569 23.1611 39.9509 23.2891 39.9399 23.4171L28.1869 29.6491C28.075 29.5871 27.965 29.5201 27.855 29.4531L27.8549 29.4531C27.8419 29.4444 27.8286 29.4362 27.8151 29.4278L27.7899 29.4121L39.9669 22.9551ZM39.849 21.2612C39.842 21.2202 39.834 21.1802 39.825 21.1392L26.364 28.2772L26.364 28.2772C26.393 28.3062 26.423 28.3362 26.453 28.3642C26.521 28.4332 26.591 28.5002 26.663 28.5662L39.897 21.5492L39.8949 21.5363C39.8806 21.4445 39.8661 21.3519 39.849 21.2612ZM39.3229 19.5151L39.3353 19.5424L39.3353 19.5424C39.3551 19.5858 39.3746 19.6285 39.3919 19.6731C39.4199 19.7421 39.4459 19.8131 39.4709 19.8831L25.5239 27.2791C25.4807 27.2237 25.4402 27.1648 25.4006 27.1073L25.3929 27.0961C25.3609 27.0481 25.3309 27.0001 25.3019 26.9501L39.3229 19.5151ZM50.805 82.701C50.805 87.08 47.255 90.63 42.876 90.63C38.4969 90.63 34.947 87.08 34.947 82.701C34.947 78.3219 38.4969 74.772 42.876 74.772C47.255 74.772 50.805 78.3219 50.805 82.701ZM34.3379 80.854C34.8649 78.428 36.4169 76.241 38.7829 74.987C43.0469 72.727 48.3329 74.348 50.5929 78.61C51.5999 80.506 51.8349 82.606 51.4119 84.551C50.8869 86.979 49.3329 89.164 46.9669 90.419C42.7049 92.68 37.4189 91.057 35.1569 86.793C34.1529 84.896 33.9169 82.799 34.3379 80.854ZM33.4809 80.666C32.9999 82.88 33.3209 85.2 34.3819 87.205C35.5849 89.475 37.5999 91.139 40.0549 91.893C42.5099 92.647 45.1109 92.397 47.3779 91.194C49.8849 89.868 51.6669 87.512 52.2699 84.737C52.7489 82.524 52.4299 80.205 51.3699 78.198C48.8849 73.516 43.0559 71.727 38.3719 74.212C35.8659 75.538 34.0829 77.893 33.4809 80.666ZM49.88 70.0431C60.7086 70.0431 69.4869 61.2647 69.4869 50.4361C69.4869 39.6075 60.7086 30.8291 49.88 30.8291C39.0513 30.8291 30.2729 39.6075 30.2729 50.4361C30.2729 61.2647 39.0513 70.0431 49.88 70.0431ZM90.074 57.4412C90.074 61.8197 86.5245 65.3692 82.146 65.3692C77.7674 65.3692 74.218 61.8197 74.218 57.4412C74.218 53.0627 77.7674 49.5132 82.146 49.5132C86.5245 49.5132 90.074 53.0627 90.074 57.4412ZM80.2979 65.9801C77.8709 65.4531 75.6839 63.9001 74.4319 61.5361C72.1699 57.2711 73.7919 51.9841 78.0549 49.7251C79.9509 48.7191 82.0509 48.4821 83.9959 48.9051C86.4229 49.4321 88.6069 50.9851 89.8609 53.3521C92.1239 57.6141 90.5009 62.9011 86.2379 65.1631C84.3419 66.1651 82.2429 66.4021 80.2979 65.9801ZM80.1109 66.8381C82.3239 67.3181 84.6459 66.9971 86.6479 65.9381C88.9179 64.7351 90.5839 62.7191 91.3359 60.2641C92.0909 57.8091 91.8429 55.2071 90.6409 52.9401C89.3109 50.4341 86.9579 48.6501 84.1839 48.0481C81.9689 47.5681 79.6489 47.8881 77.6429 48.9511C72.9609 51.4331 71.1709 57.2631 73.6549 61.9471C74.9819 64.4521 77.3379 66.2361 80.1109 66.8381ZM9.88992 47.5279C11.1439 49.8939 13.3309 51.4459 15.7589 51.9729C17.7039 52.3949 19.8029 52.1579 21.6989 51.1529C25.9619 48.8919 27.5859 43.6049 25.3239 39.3419C24.0699 36.9769 21.8829 35.4229 19.4559 34.8969C17.5099 34.4739 15.4109 34.7119 13.5149 35.7169C9.25292 37.9789 7.63092 43.2639 9.88992 47.5279ZM22.1099 51.9299C20.1079 52.9899 17.7849 53.3099 15.5719 52.8309C12.7969 52.2289 10.4439 50.4449 9.11492 47.9389C6.63092 43.2549 8.42092 37.4259 13.1029 34.9419C15.1069 33.8799 17.4289 33.5599 19.6429 34.0399C22.4179 34.6429 24.7719 36.4259 26.0999 38.9319C27.3019 41.1989 27.5499 43.8009 26.7979 46.2559C26.0449 48.7109 24.3799 50.7269 22.1099 51.9299Z" clip-rule="evenodd"/>
</svg>
