<?xml version="1.0" encoding="UTF-8"?>
<svg width="1200pt" height="1200pt" version="1.1" viewBox="0 0 1200 1200" xmlns="http://www.w3.org/2000/svg">
 <g>
  <path d="m919.2 252h-638.4c-38.398 0-68.398 31.199-68.398 68.398v471.6c0 38.398 31.199 68.398 68.398 68.398h169.2l-26.398 58.801c-2.3984 6-2.3984 13.199 1.1992 18 3.6016 6 9.6016 8.3984 15.602 8.3984h318c6 0 12-3.6016 15.602-8.3984 3.6016-6 3.6016-12 1.1992-18l-26.398-58.801h169.2c38.398 0 68.398-31.199 68.398-68.398l-0.003906-470.4c2.4023-38.402-28.797-69.602-67.199-69.602zm31.199 541.2c0 16.801-13.199 31.199-31.199 31.199h-638.4c-16.801 0-31.199-13.199-31.199-31.199v-471.6c0-16.801 13.199-31.199 31.199-31.199h639.6c16.801 0 31.199 13.199 31.199 31.199v471.6zm-480 116.4 21.602-46.801h216l21.602 46.801z"/>
  <path d="m596.4 582c-2.3984 0-6 0-8.3984-1.1992l-72-33.602v60c0 7.1992 27.602 26.398 79.199 26.398 51.602 0 79.199-19.199 79.199-26.398v-60l-72 33.602c-1.1992 1.1992-3.5977 1.1992-6 1.1992z"/>
  <path d="m908.4 318h-616.8c-10.801 0-19.199 8.3984-19.199 19.199v399.6c0 10.801 8.3984 19.199 19.199 19.199h616.8c10.801 0 19.199-8.3984 19.199-19.199v-399.6c0-10.801-8.4023-19.199-19.203-19.199zm-194.4 211.2v78c0 37.199-49.199 64.801-117.6 64.801-68.398 0-117.6-27.602-117.6-64.801v-78l-51.602-24c-7.1992-3.6016-10.801-9.6016-10.801-16.801 0-7.1992 4.8008-14.398 10.801-16.801l160.8-76.797c4.8008-2.3984 10.801-2.3984 15.602 0l160.8 74.398c2.3984 1.1992 3.6016 1.1992 4.8008 3.6016l1.1992 1.1992s1.1992 1.1992 1.1992 1.1992 0 1.1992 1.1992 1.1992l1.1992 1.1992c0 1.1992 1.1992 1.1992 1.1992 2.3984v1.1992 2.3984 1.1992 3.6016 134.4c0 10.801-8.3984 19.199-19.199 19.199s-19.199-8.3984-19.199-19.199v-104.4z"/>
  <path d="m596.4 434.4-116.4 54 116.4 54 116.4-54z"/>
 </g>
</svg>
