<svg xmlns="http://www.w3.org/2000/svg" viewBox="0 0 100 100" fill="currentColor" focusable="false" role="img">
  <path fill-rule="evenodd" d="M86.4645 47.5L83.2324 44.2675C83.0003 44.0354 82.8162 43.7599 82.6906 43.4566C82.5649 43.1533 82.5003 42.8282 82.5003 42.5C82.5003 41.837 82.7636 41.2012 83.2324 40.7324C83.4645 40.5003 83.7401 40.3161 84.0434 40.1905C84.3467 40.0649 84.6717 40.0002 85 40.0002C85.3283 40.0002 85.6533 40.0649 85.9566 40.1905C86.2599 40.3161 86.5355 40.5003 86.7676 40.7324L94.2676 48.2324C94.4998 48.4645 94.684 48.74 94.8096 49.0433C94.9353 49.3466 95 49.6717 95 50C95 50.3283 94.9353 50.6533 94.8096 50.9566C94.684 51.2599 94.4998 51.5355 94.2676 51.7675L86.7676 59.2675C86.2988 59.7363 85.663 59.9997 85 59.9997C84.337 59.9997 83.7012 59.7363 83.2324 59.2675C82.7636 58.7988 82.5003 58.1629 82.5003 57.5C82.5003 56.837 82.7636 56.2012 83.2324 55.7324L86.4645 52.5H25C24.337 52.5 23.7011 52.2366 23.2322 51.7677C22.7634 51.2989 22.5 50.663 22.5 50C22.5 49.3369 22.7634 48.701 23.2322 48.2322C23.7011 47.7634 24.337 47.5 25 47.5H86.4645ZM71.4645 30L68.2324 26.7675C67.7636 26.2988 67.5003 25.6629 67.5003 25C67.5003 24.337 67.7636 23.7012 68.2324 23.2324C68.7012 22.7636 69.337 22.5002 70 22.5002C70.663 22.5002 71.2988 22.7636 71.7676 23.2324L79.2676 30.7324C79.4998 30.9645 79.684 31.24 79.8096 31.5433C79.9353 31.8466 80 32.1717 80 32.5C80 32.8283 79.9353 33.1533 79.8096 33.4566C79.684 33.7599 79.4998 34.0355 79.2676 34.2675L71.7676 41.7675C71.2988 42.2363 70.663 42.4997 70 42.4997C69.337 42.4997 68.7012 42.2363 68.2324 41.7675C67.7636 41.2988 67.5003 40.6629 67.5003 40C67.5003 39.337 67.7636 38.7012 68.2324 38.2324L71.4645 35H25C21.0218 35 17.2064 36.5803 14.3934 39.3934C11.5804 42.2064 10 46.0217 10 50C10 53.9782 11.5804 57.7935 14.3934 60.6066C17.2064 63.4196 21.0218 65 25 65H71.4645L68.2324 61.7675C67.7636 61.2988 67.5003 60.6629 67.5003 60C67.5003 59.337 67.7636 58.7012 68.2324 58.2324C68.7012 57.7636 69.337 57.5002 70 57.5002C70.663 57.5002 71.2988 57.7636 71.7676 58.2324L79.2676 65.7324C79.4998 65.9645 79.684 66.24 79.8096 66.5433C79.9353 66.8466 80 67.1717 80 67.5C80 67.8283 79.9353 68.1533 79.8096 68.4566C79.684 68.7599 79.4998 69.0355 79.2676 69.2675L71.7676 76.7675C71.5355 76.9997 71.2599 77.1838 70.9566 77.3094C70.6533 77.435 70.3283 77.4997 70 77.4997C69.6717 77.4997 69.3467 77.435 69.0434 77.3094C68.7401 77.1838 68.4645 76.9997 68.2324 76.7675C68.0003 76.5354 67.8162 76.2599 67.6906 75.9566C67.5649 75.6533 67.5003 75.3282 67.5003 75C67.5003 74.6717 67.5649 74.3466 67.6906 74.0434C67.8162 73.7401 68.0003 73.4645 68.2324 73.2324L71.4645 70H25C19.6957 70 14.6086 67.8928 10.8579 64.1421C7.10714 60.3914 5 55.3043 5 50C5 44.6956 7.10714 39.6086 10.8579 35.8578C14.6086 32.1071 19.6957 30 25 30L71.4645 30Z" clip-rule="evenodd"/>
</svg>
