<svg xmlns="http://www.w3.org/2000/svg" focusable="false" role="img" viewBox="0 0 100 100" fill="currentColor">
  <path fill-rule="evenodd" d="M86.464 47.5L83.2319 44.2675C82.9998 44.0354 82.8157 43.7599 82.6901 43.4566C82.5644 43.1533 82.4998 42.8282 82.4998 42.5C82.4998 41.837 82.7631 41.2012 83.2319 40.7324C83.4641 40.5003 83.7396 40.3161 84.0429 40.1905C84.3462 40.0649 84.6712 40.0002 84.9995 40.0002C85.3278 40.0002 85.6528 40.0649 85.9561 40.1905C86.2594 40.3161 86.535 40.5003 86.7671 40.7324L94.2671 48.2324C94.4993 48.4645 94.6835 48.74 94.8092 49.0433C94.9348 49.3466 94.9995 49.6717 94.9995 50C94.9995 50.3283 94.9348 50.6533 94.8092 50.9566C94.6835 51.2599 94.4993 51.5355 94.2671 51.7675L86.7671 59.2675C86.2983 59.7363 85.6625 59.9997 84.9995 59.9997C84.3365 59.9997 83.7007 59.7363 83.2319 59.2675C82.7631 58.7988 82.4998 58.1629 82.4998 57.5C82.4998 56.837 82.7631 56.2012 83.2319 55.7324L86.464 52.5H24.9995C24.3365 52.5 23.7006 52.2366 23.2317 51.7677C22.7629 51.2989 22.4995 50.663 22.4995 50C22.4995 49.3369 22.7629 48.701 23.2317 48.2322C23.7006 47.7634 24.3365 47.5 24.9995 47.5H86.464ZM71.464 30L68.2319 26.7675C67.7631 26.2988 67.4998 25.6629 67.4998 25C67.4998 24.337 67.7631 23.7012 68.2319 23.2324C68.7007 22.7636 69.3365 22.5002 69.9995 22.5002C70.6625 22.5002 71.2983 22.7636 71.7671 23.2324L79.2671 30.7324C79.4993 30.9645 79.6835 31.24 79.8092 31.5433C79.9348 31.8466 79.9995 32.1717 79.9995 32.5C79.9995 32.8283 79.9348 33.1533 79.8092 33.4566C79.6835 33.7599 79.4993 34.0355 79.2671 34.2675L71.7671 41.7675C71.2983 42.2363 70.6625 42.4997 69.9995 42.4997C69.3365 42.4997 68.7007 42.2363 68.2319 41.7675C67.7631 41.2988 67.4998 40.6629 67.4998 40C67.4998 39.337 67.7631 38.7012 68.2319 38.2324L71.464 35H24.9995C21.0213 35 17.206 36.5803 14.3929 39.3934C11.5799 42.2064 9.99951 46.0217 9.99951 50C9.99951 53.9782 11.5799 57.7935 14.3929 60.6066C17.206 63.4196 21.0213 65 24.9995 65H71.464L68.2319 61.7675C67.7631 61.2988 67.4998 60.6629 67.4998 60C67.4998 59.337 67.7631 58.7012 68.2319 58.2324C68.7007 57.7636 69.3365 57.5002 69.9995 57.5002C70.6625 57.5002 71.2983 57.7636 71.7671 58.2324L79.2671 65.7324C79.4993 65.9645 79.6835 66.24 79.8092 66.5433C79.9348 66.8466 79.9995 67.1717 79.9995 67.5C79.9995 67.8283 79.9348 68.1533 79.8092 68.4566C79.6835 68.7599 79.4993 69.0355 79.2671 69.2675L71.7671 76.7675C71.535 76.9997 71.2594 77.1838 70.9561 77.3094C70.6528 77.435 70.3278 77.4997 69.9995 77.4997C69.6712 77.4997 69.3462 77.435 69.0429 77.3094C68.7396 77.1838 68.4641 76.9997 68.2319 76.7675C67.9998 76.5354 67.8157 76.2599 67.6901 75.9566C67.5644 75.6533 67.4998 75.3282 67.4998 75C67.4998 74.6717 67.5644 74.3466 67.6901 74.0434C67.8157 73.7401 67.9998 73.4645 68.2319 73.2324L71.464 70H24.9995C19.6952 70 14.6081 67.8928 10.8574 64.1421C7.10665 60.3914 4.99951 55.3043 4.99951 50C4.99951 44.6956 7.10665 39.6086 10.8574 35.8578C14.6081 32.1071 19.6952 30 24.9995 30L71.464 30Z" clip-rule="evenodd"/>
</svg>
