<svg xmlns="http://www.w3.org/2000/svg" focusable="false" role="img" viewBox="0 0 100 100" fill="currentColor">
  <path d="M54.9 18.2L52.1 21V4.6C52.1 3.4 51.2 2.5 50 2.5C48.8 2.5 47.9 3.4 47.9 4.6V21L45.1 18.2C44.3 17.4 42.9 17.4 42.1 18.2C41.3 19 41.3 20.4 42.1 21.2L48.5 27.6C48.9 28 49.4 28.2 50 28.2C50.6 28.2 51.1 28 51.5 27.6L57.9 21.2C58.7 20.4 58.7 19 57.9 18.2C57.1 17.4 55.7 17.4 54.9 18.2Z"/>
  <path d="M33.0998 21.9C31.8998 21.9 30.9998 22.8 30.9998 24V28L19.3998 16.4C18.5998 15.6 17.1998 15.6 16.3998 16.4C15.5998 17.2 15.5998 18.6 16.3998 19.4L27.9998 31H23.9998C22.7998 31 21.8998 31.9 21.8998 33.1C21.8998 34.3 22.7998 35.2001 23.9998 35.2001H33.0998C34.2998 35.2001 35.1998 34.3 35.1998 33.1V24C35.1998 22.9 34.2998 21.9 33.0998 21.9Z"/>
  <path d="M18.2 54.9C17.4 55.7 17.4 57.1 18.2 57.9C18.6 58.3 19.2 58.5 19.7 58.5C20.2 58.5 20.8 58.3 21.2 57.9L27.6 51.5C28.4 50.7 28.4 49.3 27.6 48.5L21.2 42.1C20.4 41.3 19 41.3 18.2 42.1C17.4 42.9 17.4 44.3 18.2 45.1L21 47.9H4.6C3.4 47.9 2.5 48.8 2.5 50C2.5 51.2 3.4 52.1 4.6 52.1H21L18.2 54.9Z"/>
  <path d="M33.0998 64.8H23.9998C22.7998 64.8 21.8998 65.7 21.8998 66.9C21.8998 68.1 22.8998 69 23.9998 69H27.9998L16.3998 80.6C15.5998 81.4 15.5998 82.8 16.3998 83.6C16.7998 84 17.3998 84.2 17.8998 84.2C18.3998 84.2 18.9998 84 19.3998 83.6L30.9998 72V76C30.9998 77.2 31.8998 78.1 33.0998 78.1C34.2998 78.1 35.1998 77.2 35.1998 76V66.9C35.1998 65.7 34.2998 64.8 33.0998 64.8Z"/>
  <path d="M51.5 72.4C51.1 72 50.6 71.8 50 71.8C49.4 71.8 48.9 72 48.5 72.4L42.1 78.8C41.3 79.6 41.3 81 42.1 81.8C42.9 82.6 44.3 82.6 45.1 81.8L47.9 79V95.4C47.9 96.6 48.8 97.5 50 97.5C51.2 97.5 52.1 96.6 52.1 95.4V79L54.9 81.8C55.3 82.2 55.9 82.4 56.4 82.4C56.9 82.4 57.5 82.2 57.9 81.8C58.7 81 58.7 79.6 57.9 78.8L51.5 72.4Z"/>
  <path d="M71.9998 69H75.9998C77.1998 69 78.0998 68.1 78.0998 66.9C78.0998 65.7 77.1998 64.8 75.9998 64.8H66.8998C65.6998 64.8 64.7998 65.7 64.7998 66.9V76C64.7998 77.2 65.6998 78.1 66.8998 78.1C68.0998 78.1 68.9998 77.2 68.9998 76V72L80.5998 83.6C80.9998 84 81.5998 84.2 82.0998 84.2C82.5998 84.2 83.1998 84 83.5998 83.6C84.3998 82.8 84.3998 81.4 83.5998 80.6L71.9998 69Z"/>
  <path d="M95.3998 47.9H78.9998L81.7998 45.1C82.5998 44.3 82.5998 42.9 81.7998 42.1C80.9998 41.3 79.5998 41.3 78.7998 42.1L72.3998 48.5C71.5998 49.3 71.5998 50.7 72.3998 51.5L78.7998 57.9C79.1998 58.3 79.7998 58.5 80.2998 58.5C80.7998 58.5 81.3998 58.3 81.7998 57.9C82.5998 57.1 82.5998 55.7 81.7998 54.9L78.9998 52.1H95.3998C96.5998 52.1 97.4998 51.2 97.4998 50C97.4998 48.8 96.5998 47.9 95.3998 47.9Z"/>
  <path d="M66.8998 35.2001H75.9998C77.1998 35.2001 78.0998 34.3 78.0998 33.1C78.0998 31.9 77.1998 31 75.9998 31H71.9998L83.5998 19.4C84.3998 18.6 84.3998 17.2 83.5998 16.4C82.7998 15.6 81.3998 15.6 80.5998 16.4L68.9998 28V24C68.9998 22.8 68.0998 21.9 66.8998 21.9C65.6998 21.9 64.7998 22.8 64.7998 24V33.1C64.7998 34.3 65.6998 35.2001 66.8998 35.2001Z"/>
</svg>
