<svg xmlns="http://www.w3.org/2000/svg" viewBox="0 0 100 100" fill="currentColor" focusable="false" role="img">
  <g clip-path="url(#clip0_645:600)">
    <path d="M43.085 27.242C51.472 27.242 56.717 22.353 58.929 19.726L64.783 24.361C65.109 24.619 65.508 24.752 65.908 24.752C66.177 24.752 66.446 24.693 66.699 24.57C67.325 24.267 67.721 23.632 67.721 22.939V11.373C67.721 10.676 67.325 10.045 66.699 9.74004C66.073 9.43504 65.327 9.51704 64.783 9.94704L58.931 14.582C56.719 11.957 51.473 7.06604 43.084 7.06604C31.864 7.06604 26.262 15.818 26.03 16.193C25.662 16.781 25.662 17.527 26.03 18.113C26.264 18.488 31.865 27.242 43.085 27.242ZM64.095 15.121V19.189L61.525 17.152L64.095 15.121ZM43.085 10.693C50.319 10.693 54.725 15.131 56.354 17.15C54.722 19.156 50.279 23.615 43.085 23.615C35.843 23.615 31.434 19.17 29.811 17.152C31.44 15.135 35.846 10.693 43.085 10.693ZM17.54 49.143C25.926 49.143 31.171 44.252 33.384 41.625L39.238 46.258C39.564 46.516 39.961 46.649 40.363 46.649C40.632 46.649 40.901 46.59 41.151 46.467C41.777 46.164 42.177 45.529 42.177 44.836V33.27C42.177 32.573 41.777 31.942 41.151 31.637C40.525 31.334 39.782 31.414 39.238 31.848L33.385 36.479C31.173 33.854 25.927 28.963 17.54 28.963C6.31703 28.963 0.715031 37.719 0.483031 38.092C0.115031 38.678 0.115031 39.424 0.483031 40.014C0.715031 40.385 6.31703 49.143 17.54 49.143ZM38.549 37.018V41.086L35.976 39.053L38.549 37.018ZM17.54 32.59C24.779 32.59 29.185 37.035 30.811 39.053C29.185 41.071 24.779 45.516 17.54 45.516C10.3 45.516 5.89403 41.077 4.26803 39.059C5.90003 37.053 10.343 32.59 17.54 32.59ZM33.385 63.521L39.238 68.154C39.564 68.414 39.961 68.545 40.363 68.545C40.632 68.545 40.901 68.486 41.151 68.363C41.777 68.06 42.177 67.427 42.177 66.732V55.166C42.177 54.469 41.777 53.836 41.151 53.533C40.525 53.23 39.782 53.31 39.235 53.744L33.385 58.377C31.173 55.75 25.927 50.859 17.54 50.859C6.31703 50.859 0.715031 59.617 0.483031 59.988C0.115031 60.578 0.115031 61.322 0.483031 61.91C0.715031 62.283 6.31703 71.039 17.54 71.039C25.927 71.039 31.173 66.148 33.385 63.521ZM38.549 58.914V62.982L35.976 60.949L38.549 58.914ZM17.54 67.412C10.3 67.412 5.89403 62.973 4.26803 60.955C5.90003 58.949 10.343 54.486 17.54 54.486C24.779 54.486 29.185 58.931 30.811 60.949C29.185 62.969 24.779 67.412 17.54 67.412ZM66.699 75.434C66.073 75.127 65.327 75.209 64.783 75.641L58.931 80.276C56.719 77.649 51.473 72.756 43.085 72.756C31.865 72.756 26.263 81.514 26.031 81.885C25.663 82.475 25.663 83.219 26.031 83.805C26.263 84.18 31.865 92.936 43.085 92.936C51.473 92.936 56.718 88.043 58.931 85.416L64.784 90.051C65.11 90.311 65.509 90.442 65.909 90.442C66.178 90.442 66.447 90.383 66.7 90.26C67.326 89.957 67.722 89.324 67.722 88.629V77.064C67.722 76.367 67.325 75.736 66.699 75.434ZM43.085 89.309C35.843 89.309 31.434 84.864 29.811 82.846C31.437 80.828 35.843 76.383 43.085 76.383C50.319 76.383 54.725 80.822 56.354 82.842C54.722 84.846 50.28 89.309 43.085 89.309ZM64.095 84.879L61.525 82.846L64.095 80.815V84.879ZM99.986 49.232C99.756 48.867 94.259 40.273 83.237 40.273C74.673 40.273 69.459 45.449 67.446 47.935L61.315 43.078C60.876 42.736 60.284 42.67 59.782 42.912C59.281 43.152 58.963 43.66 58.963 44.217V55.783C58.963 56.342 59.28 56.849 59.782 57.09C59.983 57.186 60.199 57.235 60.414 57.235C60.734 57.235 61.052 57.13 61.315 56.922L67.446 52.068C69.459 54.552 74.673 59.726 83.237 59.726C94.259 59.726 99.756 51.136 99.986 50.771C100.28 50.301 100.28 49.703 99.986 49.232Z"/>
  </g>
  <defs>
    <clipPath id="clip0_645:600">
      <rect width="100" height="100"/>
    </clipPath>
  </defs>
</svg>
