<svg xmlns="http://www.w3.org/2000/svg" focusable="false" role="img" viewBox="0 0 100 100" fill="currentColor">
  <path d="M93.0452 5.63818L14.5319 44.8949L48.3486 8.26153L45.9019 5.99819L5.9019 49.3315C5.8919 49.3415 5.8886 49.3582 5.8786 49.3682C5.83194 49.4182 5.80192 49.4782 5.76192 49.5349C5.72859 49.5815 5.70858 49.6249 5.68192 49.6749C5.66858 49.7016 5.64856 49.7249 5.63523 49.7549C5.61523 49.7982 5.58191 49.8349 5.56524 49.8782C5.49524 50.0615 5.45858 50.2582 5.45858 50.4615C5.45858 50.6649 5.49857 50.8615 5.56524 51.0449C5.58191 51.0882 5.61523 51.1249 5.63523 51.1649C5.64856 51.1915 5.66525 51.2182 5.68192 51.2449C5.70858 51.2949 5.73192 51.3382 5.76192 51.3848C5.80192 51.4415 5.83194 51.5015 5.8786 51.5515C5.8886 51.5615 5.8919 51.5782 5.9019 51.5882L45.9019 94.9215L48.3486 92.6582L14.5319 56.0249L93.0452 95.2815L94.5353 92.2982L18.6252 54.3448L76.8086 65.4282L77.4353 62.1549L16.0319 50.4615L77.4386 38.7649L76.8119 35.4915L18.6286 46.5749L94.5386 8.62153L93.0452 5.63818Z"/>
</svg>
