<svg xmlns="http://www.w3.org/2000/svg" viewBox="0 0 100 100" fill="currentColor" focusable="false" role="img">
  <path d="M5.17676 7.41325L44.4335 85.9266L7.8001 52.1099L5.53676 54.5566L48.8701 94.5566C48.8801 94.5666 48.8968 94.5699 48.9068 94.5799C48.9568 94.6266 49.0168 94.6566 49.0734 94.6966C49.1201 94.7299 49.1635 94.7499 49.2135 94.7766C49.2401 94.7899 49.2634 94.8099 49.2934 94.8233C49.3368 94.8433 49.3734 94.8766 49.4168 94.8933C49.6001 94.9633 49.7968 94.9999 50.0001 94.9999C50.2034 94.9999 50.4001 94.9599 50.5835 94.8933C50.6268 94.8766 50.6634 94.8433 50.7034 94.8233C50.7301 94.8099 50.7568 94.7932 50.7834 94.7766C50.8334 94.7499 50.8768 94.7266 50.9234 94.6966C50.9801 94.6566 51.0401 94.6266 51.0901 94.5799C51.1001 94.5699 51.1168 94.5666 51.1268 94.5566L94.4601 54.5566L92.1968 52.1099L55.5635 85.9266L94.8201 7.41325L91.8368 5.92323L53.8834 81.8333L64.9668 23.6499L61.6934 23.0232L50.0001 84.4266L38.3034 23.0199L35.0301 23.6466L46.1134 81.8299L8.16011 5.91992L5.17676 7.41325Z"/>
</svg>
