<svg xmlns="http://www.w3.org/2000/svg" focusable="false" role="img" viewBox="0 0 100 100" fill="currentColor">
  <path d="M52.3535 63.0001C52.7826 62.773 53.1815 62.493 53.541 62.1668C53.829 61.9212 54.0208 61.5818 54.0827 61.2084C54.0898 60.96 54.0041 60.7177 53.8424 60.529C53.6806 60.3403 53.4543 60.2186 53.2077 60.1876C52.5202 60.1876 51.8327 60.1876 51.1244 60.1876C50.9933 60.0423 50.8932 59.8718 50.8304 59.6865C50.7675 59.5012 50.7431 59.3051 50.7587 59.11C50.7743 58.915 50.8296 58.7252 50.9211 58.5522C51.0126 58.3793 51.1385 58.2269 51.291 58.1043C51.6452 57.7918 51.916 57.3959 52.2494 57.0418C52.5827 56.6876 52.7702 56.0626 52.2494 55.5834C52.0489 55.3759 51.7943 55.2288 51.5144 55.1588C51.2345 55.0888 50.9405 55.0988 50.666 55.1876C50.2829 55.3116 49.9072 55.4576 49.541 55.6251C48.541 56.1043 48.541 56.1043 47.7702 55.0834C47.9785 54.6251 48.166 54.1251 48.416 53.6668C48.483 53.564 48.5282 53.4485 48.5488 53.3276C48.5694 53.2066 48.5648 53.0827 48.5355 52.9635C48.5062 52.8444 48.4528 52.7325 48.3785 52.6349C48.3041 52.5372 48.2106 52.4559 48.1035 52.3959C47.9165 52.2421 47.6999 52.1282 47.4671 52.0614C47.2343 51.9945 46.9902 51.9762 46.7501 52.0074C46.5099 52.0387 46.2787 52.1188 46.0707 52.243C45.8627 52.3672 45.6825 52.5327 45.541 52.7293C45.3327 53.0001 45.166 53.2918 44.9785 53.5626C44.7019 53.4663 44.4306 53.355 44.166 53.2293L43.541 52.8334V52.5001C43.541 52.1459 43.666 51.7918 43.7077 51.4584C43.7885 51.1108 43.7427 50.7456 43.5785 50.4287C43.4143 50.1118 43.1425 49.8638 42.8118 49.7293C42.356 49.5644 41.8569 49.5637 41.4006 49.7272C40.9443 49.8907 40.5593 50.2083 40.3119 50.6251C40.041 51.1668 39.8327 51.7084 39.541 52.3543L38.3744 51.4376C37.7777 50.9901 37.1588 50.5729 36.5202 50.1876C36.2704 50.001 35.9818 49.8728 35.6759 49.8126C35.3699 49.7524 35.0544 49.7616 34.7525 49.8396C34.4505 49.9175 34.17 50.0623 33.9315 50.2632C33.6929 50.464 33.5026 50.7159 33.3744 51.0001C33.0861 51.4006 32.9311 51.8816 32.9311 52.3751C32.9311 52.8686 33.0861 53.3495 33.3744 53.7501C32.9913 53.8585 32.6016 53.942 32.2077 54.0001C31.7291 53.968 31.2488 53.968 30.7702 54.0001C29.7077 54.2709 29.541 54.8126 30.1244 55.7084C30.2221 55.8495 30.3125 55.9955 30.3952 56.1459C29.8535 56.9793 29.4369 57.8543 28.3119 57.6043H28.0619C27.4994 57.7709 26.8952 57.9584 26.7702 58.6043C26.6452 59.2501 27.1244 59.6459 27.7077 59.8751C27.8822 59.9107 28.0467 59.9845 28.1894 60.0911C28.3321 60.1977 28.4494 60.3345 28.533 60.4918C28.6167 60.6491 28.6645 60.8229 28.673 61.0008C28.6816 61.1787 28.6508 61.3563 28.5827 61.5209C28.5513 61.8744 28.5513 62.23 28.5827 62.5834C28.5951 62.8464 28.5074 63.1044 28.3374 63.3053C28.1673 63.5063 27.9274 63.6355 27.666 63.6668C26.9781 63.8253 26.3272 64.1154 25.7494 64.5209C24.9994 65.0834 25.1452 65.8126 26.041 66.0626C26.9368 66.3126 27.3744 66.1876 28.0202 66.3334C28.3119 66.3334 28.8119 66.6251 28.8327 66.8126C28.8327 67.6459 29.291 68.5001 28.3744 69.2501C27.8535 69.6668 27.0619 70.0834 27.1452 71.0001C27.8119 72.1251 28.8535 71.8751 29.8744 71.7709C30.0567 71.7434 30.2429 71.7587 30.4183 71.8156C30.5937 71.8726 30.7535 71.9696 30.8849 72.0989C31.0163 72.2283 31.1158 72.3865 31.1754 72.561C31.235 72.7355 31.2532 72.9215 31.2285 73.1043C31.2285 73.4793 31.0827 73.8751 31.0618 74.2709C31.0618 75.1459 31.166 75.5001 31.9369 75.7918C32.3481 75.952 32.797 75.9901 33.2294 75.9014C33.6618 75.8127 34.0594 75.601 34.3744 75.2918C34.7702 74.9793 35.2077 74.7084 35.7702 74.3334C35.7702 74.9376 35.7702 75.2709 35.7702 75.6251C35.916 76.6251 36.3743 77.0626 37.291 77.1251C37.5062 77.1702 37.7284 77.1711 37.9439 77.1278C38.1595 77.0845 38.3641 76.9979 38.5452 76.8732C38.7264 76.7486 38.8803 76.5885 38.9978 76.4026C39.1152 76.2167 39.1937 76.0089 39.2285 75.7918C39.3744 75.1251 39.666 74.7709 40.3743 74.7501C40.6629 74.7167 40.9485 74.661 41.2285 74.5834C41.916 76.1251 42.3327 76.3751 43.6035 76.0209C45.4785 75.5209 45.5202 75.4376 45.3119 73.1251L46.8118 71.7918C47.0766 72.2266 47.3689 72.6442 47.6869 73.0418C48.1121 73.3366 48.6173 73.4945 49.1348 73.4945C49.6522 73.4945 50.1574 73.3366 50.5827 73.0418C50.6566 72.9372 50.7077 72.8182 50.7329 72.6926C50.758 72.567 50.7565 72.4376 50.7285 72.3126C50.6114 71.9359 50.428 71.5831 50.1869 71.2709C49.791 70.6459 49.3535 70.0209 48.9785 69.4793C49.2077 69.0834 49.3535 68.8126 49.5202 68.5626C49.6869 68.3126 49.8952 68.0834 50.1035 67.7918C50.2726 67.872 50.4466 67.9416 50.6244 68.0001C51.1917 68.1763 51.7805 68.2745 52.3744 68.2918C52.8405 68.19 53.2502 67.9143 53.5202 67.5209C53.8327 67.0626 53.5202 66.5834 53.1452 66.2293C52.7702 65.8751 52.6452 65.8751 52.3952 65.7084L51.1869 65.0209C51.2702 63.5418 51.2702 63.5626 52.3535 63.0001ZM48.1868 65.3543C47.5897 67.2558 46.522 68.9756 45.0827 70.3543C44.1243 69.7084 44.1035 69.7084 43.2702 70.3543C41.7277 71.4434 39.828 71.9032 37.9582 71.64C36.0884 71.3768 34.3895 70.4103 33.2077 68.9376C32.6215 68.1463 32.2421 67.2213 32.1039 66.2463C31.9656 65.2713 32.0729 64.2773 32.416 63.3543C32.9422 61.0531 34.2905 59.0232 36.2077 57.6459C37.1353 56.9599 38.199 56.4804 39.3274 56.2396C40.4557 55.9989 41.6225 56.0024 42.7494 56.2501C43.2739 56.3262 43.7579 56.5755 44.1244 56.9584C44.2907 57.2363 44.5362 57.4581 44.8294 57.5954C45.1227 57.7328 45.4503 57.7794 45.7702 57.7293C45.9894 57.7018 46.2118 57.7407 46.4086 57.841C46.6055 57.9413 46.7677 58.0983 46.8744 58.2918C47.6043 59.2973 48.0946 60.4564 48.3076 61.6805C48.5207 62.9047 48.4508 64.1613 48.1035 65.3543H48.1868ZM75.8327 66.8543C75.4598 66.7998 75.0843 66.7651 74.7077 66.7501C74.6425 66.6031 74.5936 66.4494 74.5619 66.2918C74.3119 65.0209 74.3119 65.0209 75.416 64.3334L75.6452 64.1876C76.1035 63.8751 76.4577 63.4793 76.2494 62.8543C76.1344 62.5892 75.9283 62.3742 75.6684 62.2481C75.4085 62.1219 75.112 62.0931 74.8327 62.1668L73.3327 62.5626L72.3744 61.1459L73.1869 60.1876C73.791 59.3543 73.4577 58.6251 72.4369 58.5418C71.917 58.4968 71.3941 58.5828 70.916 58.7918C70.7841 58.8918 70.6318 58.9615 70.4698 58.9959C70.3079 59.0303 70.1403 59.0286 69.9792 58.9908C69.818 58.953 69.6671 58.88 69.5374 58.7772C69.4076 58.6744 69.3022 58.5442 69.2285 58.3959C69.7702 57.0418 69.3535 56.1043 68.0618 55.9793C67.5764 55.9833 67.1037 56.1359 66.7077 56.4168C65.3327 57.2084 64.7702 57.2084 63.6244 56.2293C63.3324 55.9595 62.9693 55.7788 62.578 55.7087C62.1867 55.6386 61.7835 55.6818 61.416 55.8334C60.5202 56.1459 60.8119 56.8959 60.7077 57.5209L59.291 58.5209L58.8327 58.3334C58.4815 58.152 58.0762 58.1048 57.6927 58.2007C57.3092 58.2965 56.9738 58.5289 56.7494 58.8543C56.5576 59.1797 56.4763 59.5585 56.5176 59.934C56.5589 60.3095 56.7206 60.6616 56.9785 60.9376C57.1049 61.107 57.1899 61.3037 57.2267 61.5119C57.2635 61.7201 57.251 61.934 57.1902 62.1365C57.1295 62.339 57.0222 62.5245 56.8769 62.6781C56.7316 62.8316 56.5523 62.9491 56.3535 63.0209C55.939 63.1662 55.541 63.3547 55.166 63.5834C54.82 63.8338 54.5817 64.206 54.4994 64.6251C54.4994 65.1459 54.8952 65.4793 55.4369 65.6043L56.3535 65.7501V67.8334L55.4785 68.1459C54.9994 68.3126 54.5827 68.5418 54.6244 69.1668C54.666 69.7918 55.1035 70.0626 55.8535 70.1251L56.8952 70.2501C57.1035 70.6876 57.3119 71.0626 57.5202 71.4793C57.1211 71.7924 56.7386 72.1262 56.3744 72.4793C56.2526 72.5968 56.1658 72.7457 56.1235 72.9096C56.0812 73.0734 56.0851 73.2457 56.1347 73.4075C56.1843 73.5693 56.2777 73.7141 56.4046 73.8261C56.5314 73.938 56.6868 74.0127 56.8535 74.0418C57.1698 74.1486 57.5071 74.1779 57.837 74.1271C58.1669 74.0763 58.4798 73.947 58.7494 73.7501C59.0094 73.5426 59.3276 73.4211 59.6598 73.4024C59.992 73.3838 60.3218 73.4689 60.6035 73.6459L61.6244 74.0834C61.6244 74.5209 61.6244 74.9584 61.6244 75.3959C61.6027 75.594 61.6288 75.7944 61.7004 75.9804C61.7719 76.1663 61.8869 76.3325 62.0357 76.465C62.1846 76.5975 62.3629 76.6925 62.5559 76.7421C62.7489 76.7917 62.9509 76.7945 63.1452 76.7501C63.5637 76.7431 63.9704 76.6101 64.3123 76.3686C64.6542 76.127 64.9154 75.7881 65.0619 75.3959C65.0819 75.2627 65.1311 75.1355 65.2059 75.0234C65.2807 74.9113 65.3793 74.8171 65.4947 74.7475C65.6101 74.6778 65.7394 74.6345 65.8734 74.6206C66.0075 74.6066 66.1429 74.6224 66.2702 74.6668C66.568 74.698 66.8682 74.698 67.166 74.6668C68.2285 76.2501 68.2494 76.2293 69.8327 75.6876C70.9994 75.2918 70.1869 74.3126 70.4369 73.6043L71.9577 72.4168C73.6452 73.1876 73.791 73.1876 74.9577 72.6043C76.1244 72.0209 76.041 71.5626 75.2285 70.7918L73.6452 69.2501C74.2494 69.2501 74.541 69.2501 74.8327 69.1043C75.2272 69.06 75.6174 68.9834 75.9994 68.8751C76.8952 68.5418 77.2285 68.1668 77.1035 67.6251C76.9785 67.0834 76.3327 66.9376 75.7494 66.8543H75.8327ZM70.8327 68.5001C70.8009 68.8351 70.6742 69.1542 70.4676 69.4199C70.261 69.6855 69.9829 69.8868 69.666 70.0001C68.7545 70.5848 67.8084 71.1136 66.8327 71.5834C65.4963 72.1233 64.0025 72.1233 62.666 71.5834C62.0267 71.291 61.4717 70.8416 61.0528 70.277C60.6339 69.7124 60.3647 69.0509 60.2702 68.3543C60.2122 67.9399 60.1774 67.5225 60.166 67.1043C60.1317 66.1852 60.3006 65.2699 60.6607 64.4236C61.0208 63.5773 61.5633 62.8209 62.2494 62.2084C62.7648 61.7979 63.3638 61.5049 64.0044 61.3502C64.645 61.1954 65.3116 61.1826 65.9577 61.3126C66.7572 61.4492 67.5209 61.746 68.2029 62.1851C68.8849 62.6241 69.4711 63.1965 69.9264 63.8678C70.3817 64.539 70.6967 65.2954 70.8524 66.0914C71.0082 66.8874 71.0014 67.7067 70.8327 68.5001V68.5001ZM34.416 29.9793C34.3453 29.5589 34.4151 29.1269 34.6147 28.7503C34.8143 28.3736 35.1326 28.0734 35.5202 27.8959C36.1416 27.5676 36.6934 27.1218 37.1452 26.5834C37.4449 26.2548 37.8257 26.0105 38.2494 25.8751C38.4507 25.7538 38.6769 25.6795 38.9109 25.6578C39.145 25.636 39.3809 25.6674 39.6012 25.7495C39.8215 25.8316 40.0204 25.9623 40.1831 26.132C40.3458 26.3016 40.4682 26.5058 40.541 26.7293C41.0618 27.9584 41.541 29.1876 41.9785 30.4376C42.416 31.6876 43.0202 33.4584 43.4993 34.9584C43.7259 35.6371 43.8932 36.3342 43.9994 37.0418C44.0945 37.3976 44.0936 37.7724 43.9967 38.1278C43.8998 38.4831 43.7104 38.8065 43.4478 39.0648C43.1852 39.3232 42.8588 39.5073 42.5019 39.5984C42.145 39.6895 41.7703 39.6843 41.416 39.5834C40.8168 39.4798 40.2112 39.4171 39.6035 39.3959C39.3622 39.4174 39.1196 39.3748 38.9001 39.2723C38.6806 39.1699 38.492 39.0113 38.3535 38.8126C37.014 37.1158 35.9522 35.2172 35.2077 33.1876C34.7349 32.1808 34.4659 31.0904 34.416 29.9793V29.9793ZM27.7702 43.8543C25.3591 42.2868 23.3817 40.1373 22.0202 37.6043C21.7902 37.1717 21.6018 36.7183 21.4577 36.2501C21.2843 35.7491 21.3084 35.2008 21.5252 34.7169C21.7419 34.2331 22.135 33.85 22.6244 33.6459C23.1645 33.3895 23.758 33.2652 24.3557 33.2833C24.9534 33.3014 25.5382 33.4614 26.0619 33.7501C28.3053 34.9995 30.2581 36.7108 31.791 38.7709C32.416 39.5001 32.9994 40.2709 33.5827 41.0626C34.166 41.8543 34.1452 42.6876 33.1243 43.1459C32.1035 43.6043 31.041 44.6668 29.541 44.5001C28.8744 44.6043 28.3535 44.2084 27.7702 43.8543ZM24.6452 51.1043C24.6452 51.1043 24.6452 51.1043 24.6452 51.2293C23.6452 52.0209 22.6869 52.8543 21.6244 53.5834C21.2153 53.7407 20.7625 53.7407 20.3535 53.5834C18.9994 53.2084 17.666 52.7709 16.1868 52.2918C15.7691 52.5309 15.2813 52.6181 14.8066 52.5383C14.3318 52.4585 13.8994 52.2168 13.5827 51.8543C12.6243 50.7918 11.7285 49.6668 10.7077 48.4793C10.9696 47.9642 11.3496 47.5182 11.8167 47.1779C12.2837 46.8376 12.8246 46.6125 13.3952 46.5209C15.0895 46.1916 16.8215 46.1004 18.541 46.2501C18.9352 46.3027 19.3206 46.4078 19.6868 46.5626C21.2493 47.4376 22.8327 48.3334 24.3744 49.2709C24.5311 49.3579 24.6657 49.4797 24.7677 49.6271C24.8698 49.7745 24.9365 49.9434 24.9626 50.1207C24.9888 50.298 24.9738 50.479 24.9188 50.6496C24.8637 50.8201 24.7701 50.9757 24.6452 51.1043V51.1043ZM63.8327 37.9168C63.7343 37.812 63.6608 37.6864 63.6175 37.5494C63.5742 37.4124 63.5623 37.2673 63.5827 37.1251C63.6777 36.6454 63.8244 36.1774 64.0202 35.7293C64.3974 34.7358 64.6085 33.6871 64.6452 32.6251C64.7525 31.3867 65.2731 30.2204 66.1233 29.3135C66.9734 28.4067 68.1038 27.812 69.3327 27.6251C69.8098 27.5484 70.2606 27.3552 70.6452 27.0626C71.1098 26.7376 71.6358 26.5109 72.191 26.3962C72.7463 26.2816 73.3191 26.2815 73.8744 26.3959C74.059 27.392 73.8972 28.4212 73.416 29.3126C71.9365 32.4519 69.8719 35.2802 67.3327 37.6459C66.8207 37.9856 66.2305 38.1889 65.6179 38.2363C65.0053 38.2837 64.3908 38.1737 63.8327 37.9168V37.9168ZM83.2077 41.3334C81.5032 43.0096 79.6404 44.5166 77.6452 45.8334C76.8183 46.345 75.8306 46.5306 74.8744 46.3543L73.916 46.2084C73.3952 45.4584 72.916 44.6876 72.4577 43.8751C72.7732 43.5779 73.019 43.2145 73.1774 42.8111C73.3359 42.4077 73.4032 41.9742 73.3744 41.5418C73.362 41.3336 73.362 41.1249 73.3744 40.9168C73.8952 40.7084 74.2494 40.5626 74.5827 40.3959C75.9994 39.6876 77.3744 38.8959 78.7494 38.3126C79.4241 38.0925 80.1242 37.9594 80.8327 37.9168C81.041 37.9168 81.291 37.9168 81.4785 37.9168C82.7077 37.4168 83.4369 37.9168 84.0827 38.9793C84.7285 40.0418 84.6869 39.9376 83.9577 40.6459L83.2077 41.3334ZM94.5202 65.9376C94.0619 67.2084 94.3744 68.8126 92.8119 69.3959C91.555 69.8134 90.2659 70.127 88.9577 70.3334C87.0753 70.4447 85.1863 70.3258 83.3327 69.9793C83.3327 69.9793 83.1244 69.9793 83.0619 69.9793C82.1719 69.2349 81.101 68.739 79.9577 68.5418C80.2285 68.0418 80.3327 67.6459 80.5827 67.4584C82.2285 66.2918 83.6244 64.6876 85.9369 64.6876C88.2773 64.6196 90.6165 64.8577 92.8952 65.3959C93.3952 65.5001 93.8952 65.7084 94.5202 65.9376ZM50.9577 28.6043C50.8212 27.3913 50.9419 26.1633 51.3118 25.0001C51.497 24.4567 51.8283 23.9748 52.2693 23.6073C52.7103 23.2398 53.244 23.0009 53.8119 22.9168C54.2038 22.8167 54.6191 22.8685 54.9745 23.0617C55.3299 23.2548 55.5992 23.5751 55.7285 23.9584C56.0128 24.7863 56.1879 25.6477 56.2494 26.5209C56.2494 28.6043 56.2494 30.9168 56.2494 33.1251C56.2706 33.3885 56.2706 33.6533 56.2494 33.9168C56.2535 34.1781 56.1997 34.4371 56.0918 34.6752C55.984 34.9133 55.8248 35.1246 55.6256 35.2939C55.4265 35.4631 55.1923 35.5862 54.9399 35.6543C54.6876 35.7224 54.4233 35.7337 54.166 35.6876H53.1869C51.5603 33.7011 50.7619 31.1642 50.9577 28.6043V28.6043ZM81.3952 57.7709L79.7285 58.1459C78.0202 58.0209 77.6452 57.5626 78.6035 56.0626C79.1095 55.1223 79.8764 54.3482 80.8119 53.8334C81.8119 53.2709 82.8952 52.7293 83.8327 52.2084C84.1839 51.9452 84.5839 51.7544 85.0095 51.6471C85.4351 51.5398 85.8778 51.5182 86.3119 51.5834C86.8327 51.7084 87.4994 51.2709 88.1035 51.2084C89.3952 51.1043 90.1869 52.0834 89.3327 53.1459C88.7813 54.2526 87.9704 55.2096 86.9692 55.9351C85.9679 56.6606 84.8061 57.1332 83.5827 57.3126C82.8446 57.3995 82.1136 57.5387 81.3952 57.7293V57.7709ZM48.0619 47.3543C48.3448 47.4871 48.6373 47.5985 48.9369 47.6876L49.6035 48.0834C49.4785 48.2501 49.416 48.3751 49.3327 48.4584L48.9994 48.6668C48.3952 49.2293 48.416 49.6876 48.9994 50.1668C49.2625 50.3219 49.542 50.4477 49.8327 50.5418L50.9577 51.0001L50.4368 51.7709C49.8743 52.7293 50.1869 53.2293 51.291 53.3334C51.6919 53.3971 52.1025 53.3423 52.4726 53.1757C52.8428 53.0092 53.1562 52.7381 53.3744 52.3959L54.5619 52.9584C54.1869 55.0418 55.041 55.8959 56.791 55.3126C57.2696 55.1052 57.6603 54.7366 57.8952 54.2709C58.0025 53.9638 58.2122 53.7029 58.4892 53.5322C58.7661 53.3615 59.0934 53.2913 59.416 53.3334C60.2494 54.7709 60.6452 54.9376 61.916 54.3334C62.1869 54.2084 62.6035 53.9584 62.5827 53.7918C62.4984 53.0355 62.3732 52.2844 62.2077 51.5418L63.1452 50.5626C64.6244 51.4376 65.0202 51.3959 66.2285 50.2293C66.0977 49.8521 66.0138 49.4603 65.9785 49.0626C65.9785 48.2501 65.4577 47.8959 64.9369 47.5001C64.9369 47.5001 64.666 47.5001 64.5619 47.3959C63.7285 46.9793 63.666 46.6043 64.3327 45.9584C64.5619 45.7293 64.8535 45.5418 64.9577 45.2709C65.1479 44.8985 65.2067 44.4726 65.1244 44.0626C64.9577 43.7501 64.4369 43.5834 64.041 43.4793C63.7825 43.4604 63.5236 43.5107 63.291 43.6251C63.0899 43.721 62.863 43.7485 62.6448 43.7033C62.4266 43.6582 62.2292 43.5429 62.0827 43.3751C61.8168 43.1483 61.5309 42.9461 61.2285 42.7709C61.6452 42.2501 61.916 41.9584 62.1452 41.6459C62.6452 40.9584 62.5619 40.3751 61.8119 40.0418C61.4094 39.8879 60.9643 39.8879 60.5619 40.0418C59.8363 40.3314 59.1389 40.687 58.4785 41.1043C58.3188 40.918 58.1792 40.7155 58.0619 40.5001C57.9369 40.2084 57.8952 39.8959 57.791 39.6043C57.7305 39.2734 57.5508 38.9761 57.2859 38.7688C57.021 38.5615 56.6893 38.4585 56.3535 38.4793C55.5827 38.4793 55.2077 38.9168 55.041 39.8751C55.0126 40.1133 54.9709 40.3498 54.916 40.5834L50.7494 41.2918C50.041 42.1043 49.9785 42.1043 50.1452 42.7501C50.2322 43.1549 50.2288 43.574 50.1352 43.9773C50.0415 44.3807 49.86 44.7584 49.6035 45.0834C49.2906 44.9819 48.9702 44.9053 48.6452 44.8543C48.3381 44.8278 48.0301 44.8954 47.7623 45.0479C47.4944 45.2005 47.2792 45.4308 47.1452 45.7084C47.1496 46.0285 47.2386 46.3416 47.4033 46.6161C47.568 46.8905 47.8024 47.1165 48.0827 47.2709L48.0619 47.3543ZM53.6452 48.3126C53.739 47.8126 53.9309 47.336 54.2098 46.9105C54.4887 46.485 54.8491 46.119 55.2702 45.8334C56.2702 45.0834 57.3535 44.4376 58.3952 43.7501L60.6869 45.8334C60.8812 46.2547 60.9818 46.7132 60.9818 47.1772C60.9818 47.6412 60.8812 48.0996 60.6869 48.5209C59.8327 48.8959 59.166 49.1459 58.6035 49.5001C57.9717 49.8515 57.2684 50.0547 56.5466 50.0944C55.8247 50.1341 55.1033 50.0092 54.4369 49.7293C54.1552 49.6064 53.9246 49.3899 53.7842 49.1166C53.6437 48.8433 53.602 48.5298 53.666 48.2293L53.6452 48.3126ZM21.4577 59.9168C21.6035 60.7501 21.041 61.1251 20.3952 61.5418C19.3204 62.0185 18.3664 62.7305 17.6035 63.6251C17.3613 63.9446 17.0452 64.2006 16.6824 64.3711C16.3195 64.5417 15.9207 64.6217 15.5202 64.6043C12.8237 64.724 10.1237 64.4645 7.49935 63.8334C7.03476 63.7591 6.59783 63.5642 6.23223 63.268C5.86663 62.9719 5.58518 62.585 5.41602 62.1459C5.71908 61.5888 6.13499 61.1009 6.63718 60.7135C7.13938 60.3261 7.71683 60.0476 8.33268 59.8959C9.7262 59.3549 11.1711 58.957 12.6452 58.7084C15.0807 58.243 17.5874 58.2998 19.9994 58.8751C20.5619 59.0418 21.3327 59.0834 21.4577 59.9168Z"/>
</svg>
