<svg xmlns="http://www.w3.org/2000/svg" focusable="false" role="img" viewBox="0 0 100 100" fill="currentColor">
  <path fill-rule="evenodd" d="M49.9337 35.6371H44.7931C22.8521 27.1332 7.30909 33.9769 7.30909 33.9769C7.30909 33.9769 0.000488281 33.5394 0.000488281 38.0902C0.000488281 42.7621 3.67629 40.9222 5.26219 45.8793C6.84419 50.8402 5.26219 67.0703 25.9422 67.0703C44.1722 67.0703 46.2662 44.0433 48.3952 44.0433H51.4733C53.6022 44.0433 55.6999 67.0703 73.9263 67.0703C94.6063 67.0703 93.0243 50.8403 94.6063 45.8793C96.1922 40.9223 99.868 42.7621 99.868 38.0902C99.868 33.5394 92.5594 33.9769 92.5594 33.9769C92.5594 33.9769 77.0164 27.1331 55.0754 35.6371H49.9337ZM24.7307 63.4531C42.1647 63.4531 43.5157 45.0081 43.5157 41.4301C43.5157 37.852 35.6837 34.9535 26.0277 34.9535C16.3675 34.9535 8.53569 37.8519 8.53569 41.4301C8.53569 45.0082 7.34429 63.4531 24.7307 63.4531ZM75.2387 63.4531C57.8047 63.4531 56.4537 45.0081 56.4537 41.4301C56.4537 37.852 64.2857 34.9535 73.9457 34.9535C83.6019 34.9535 91.4337 37.8519 91.4337 41.4301C91.4337 45.0082 92.6251 63.4531 75.2387 63.4531Z" clip-rule="evenodd"/>
</svg>
