<svg xmlns="http://www.w3.org/2000/svg" focusable="false" role="img" viewBox="0 0 100 100" fill="currentColor">
  <path fill-rule="evenodd" d="M50 15.4545C56.8325 15.4545 63.5115 17.4806 69.1924 21.2765C74.8734 25.0724 79.3012 30.4677 81.9158 36.78C84.5305 43.0924 85.2146 50.0383 83.8817 56.7395C82.5487 63.4406 79.2586 69.5961 74.4273 74.4273C69.5961 79.2586 63.4406 82.5487 56.7395 83.8817C50.0383 85.2146 43.0924 84.5305 36.78 81.9158C30.4677 79.3012 25.0724 74.8734 21.2765 69.1924C17.4806 63.5114 15.4546 56.8324 15.4546 50C15.4546 40.838 19.0942 32.0512 25.5727 25.5727C32.0512 19.0941 40.838 15.4545 50 15.4545ZM50 10C42.0888 10 34.3552 12.346 27.7772 16.7412C21.1992 21.1365 16.0723 27.3836 13.0448 34.6927C10.0173 42.0017 9.2252 50.0444 10.7686 57.8036C12.312 65.5629 16.1216 72.6902 21.7157 78.2843C27.3098 83.8784 34.4371 87.688 42.1964 89.2314C49.9556 90.7748 57.9983 89.9827 65.3073 86.9552C72.6164 83.9277 78.8635 78.8008 83.2588 72.2228C87.654 65.6448 90 57.9112 90 50C90 39.3913 85.7857 29.2172 78.2843 21.7157C70.7828 14.2143 60.6087 10 50 10ZM30.9092 48.1818C33.4196 48.1818 35.4546 46.1468 35.4546 43.6364C35.4546 41.126 33.4196 39.0909 30.9092 39.0909C28.3988 39.0909 26.3637 41.126 26.3637 43.6364C26.3637 46.1468 28.3988 48.1818 30.9092 48.1818ZM73.636 43.6364C73.636 46.1468 71.6009 48.1818 69.0905 48.1818C66.5802 48.1818 64.5451 46.1468 64.5451 43.6364C64.5451 41.126 66.5802 39.0909 69.0905 39.0909C71.6009 39.0909 73.636 41.126 73.636 43.6364ZM68.7365 53.6363C67.9777 57.5226 66.0292 61.0767 63.1609 63.8066C60.2926 66.5364 56.6465 68.3068 52.7275 68.8726V74.3908C58.1012 73.7819 63.1243 71.4186 67.0192 67.6667C70.9141 63.9147 73.4636 58.9835 74.2729 53.6363H68.7365ZM25.7274 53.6363H31.2637C32.0226 57.5226 33.9711 61.0767 36.8394 63.8066C39.7076 66.5364 43.3538 68.3068 47.2728 68.8726V74.3908C41.8991 73.7819 36.876 71.4186 32.981 67.6667C29.0861 63.9147 26.5367 58.9835 25.7274 53.6363Z" clip-rule="evenodd"/>
</svg>
