<svg xmlns="http://www.w3.org/2000/svg" viewBox="0 0 100 100" fill="currentColor" focusable="false" role="img">
  <path d="M6 61.9654V66.2328C6 67.2811 6.84829 68.1294 7.89662 68.1294C8.94128 68.1294 9.79324 67.2811 9.79324 66.2328V61.9654C9.80806 57.409 11.9899 53.1306 15.672 50.4453C19.3504 47.7597 24.0919 46.9855 28.4334 48.3635C32.7786 49.7378 36.2088 53.0976 37.672 57.4132C34.0307 60.8323 31.9711 65.6035 31.9822 70.5966V74.864C31.9822 75.9124 32.8305 76.7606 33.8788 76.7606C34.9271 76.7606 35.7754 75.9123 35.7754 74.864V70.5966C35.4494 66.6108 36.8089 62.6693 39.5168 59.728C42.2284 56.7868 46.0475 55.1124 50.0477 55.1124C54.048 55.1124 57.8639 56.7868 60.5759 59.728C63.2875 62.6693 64.6433 66.6107 64.3209 70.5966V74.864C64.3209 75.9124 65.1692 76.7606 66.2176 76.7606C67.2622 76.7606 68.1142 75.9123 68.1142 74.864V70.5966C68.1253 65.6032 66.0619 60.8319 62.4243 57.4132C63.9468 53.1866 67.3696 49.9231 71.6629 48.5932C75.9562 47.2671 80.62 48.0301 84.265 50.6602C87.9101 53.2865 90.1105 57.4725 90.2068 61.966V66.2333C90.2068 67.2817 91.0588 68.13 92.1034 68.13C93.1517 68.13 94 67.2817 94 66.2333V61.966C93.9815 58.4172 92.9184 54.9537 90.9476 52.0011C88.9732 49.0524 86.1764 46.7446 82.9054 45.3703C87.0135 42.3254 88.7027 36.9875 87.0951 32.131C85.4911 27.2783 80.9533 24 75.8415 24C70.7297 24 66.1915 27.2783 64.5879 32.131C62.9802 36.9874 64.6694 42.3253 68.7775 45.3703C64.4435 47.2188 61.0021 50.6898 59.1977 55.0422L57.0158 53.9049C61.1239 50.86 62.8131 45.5221 61.2092 40.6656C59.6015 35.8129 55.0673 32.5346 49.9518 32.5346C44.8398 32.5346 40.3018 35.8129 38.6982 40.6656C37.0942 45.522 38.7834 50.8599 42.8878 53.9049L40.7059 55.0422C38.902 50.6896 35.4644 47.2186 31.1299 45.3703C35.2343 42.3254 36.9235 36.9875 35.3195 32.131C33.7119 27.2783 29.1777 24 24.0622 24C18.9502 24 14.4122 27.2783 12.8086 32.131C11.2046 36.9874 12.8938 42.3253 16.9982 45.3703C13.7458 46.7594 10.9675 49.0709 9.01534 52.0233C7.05945 54.972 6.0111 58.4281 6 61.9654V61.9654ZM67.8288 35.8869C67.8288 32.6271 69.7921 29.6895 72.8038 28.4411C75.8154 27.1928 79.2826 27.8818 81.5867 30.1896C83.8945 32.4937 84.5836 35.9609 83.3352 38.9726C82.0869 41.9842 79.1493 43.9475 75.8895 43.9475C71.4369 43.9475 67.8288 40.3395 67.8288 35.8869ZM41.939 44.518C41.902 41.2471 43.8394 38.2799 46.8473 37.0019C49.8589 35.7239 53.341 36.3907 55.6636 38.6873C57.9899 40.9877 58.6975 44.4623 57.4565 47.4851C56.2119 50.5078 53.2669 52.4822 49.9997 52.4822C45.5841 52.4822 41.9909 48.9334 41.939 44.5179V44.518ZM16.0492 35.8869C16.0492 32.6271 18.0125 29.6895 21.0242 28.4411C24.0395 27.1928 27.5067 27.8818 29.8108 30.1896C32.1149 32.4937 32.8039 35.9609 31.5593 38.9726C30.311 41.9842 27.3697 43.9475 24.1099 43.9475C19.6573 43.9475 16.0492 40.3395 16.0492 35.8869V35.8869Z"/>
</svg>
