<svg xmlns="http://www.w3.org/2000/svg" focusable="false" role="img" viewBox="0 0 100 100" fill="currentColor">
  <path fill-rule="evenodd" d="M62.7761 31.7367C63.0503 31.5183 63.3905 31.3993 63.7411 31.3993C64.0917 31.3993 64.4319 31.5183 64.7061 31.7367C64.7918 31.7367 64.8907 31.8679 64.9827 31.9898C65.011 32.0274 65.0387 32.0641 65.0651 32.0958L65.2222 32.2978C65.3324 32.4465 65.43 32.6041 65.5139 32.769L65.6262 32.9935L65.7608 33.3525C65.9923 33.6119 66.1201 33.9474 66.1199 34.2951V34.4297C66.1677 34.5689 66.2052 34.7114 66.2321 34.8561C66.2212 34.983 66.2212 35.1107 66.2321 35.2376V35.7089V36.1352C66.2529 36.3292 66.2529 36.5248 66.2321 36.7187C66.2427 36.8681 66.2427 37.0181 66.2321 37.1675V37.5715V37.9979C66.2439 38.1473 66.2439 38.2973 66.2321 38.4467V38.8058V39.2097C66.2432 39.3666 66.2432 39.5241 66.2321 39.681C66.2427 39.8379 66.2427 39.9953 66.2321 40.1522C66.1933 40.3063 66.1407 40.4565 66.075 40.6011L65.9403 40.9377C65.8654 41.1284 65.7674 41.3093 65.6486 41.4763L65.4466 41.7456L65.0202 42.172L64.6612 42.4413L64.3021 42.6657C64.2386 42.7102 64.1729 42.7513 64.1052 42.7889L64.1245 42.8003L64.349 42.9574L64.6856 43.2042L64.8876 43.3838L65.2242 43.6755L65.5384 44.0346L65.7403 44.3039L65.9647 44.618C66.0314 44.7426 66.1064 44.8626 66.1891 44.9771L66.3911 45.3586L66.5931 45.785L66.7277 46.1665L66.8848 46.5704C66.8848 46.7051 66.8848 46.8397 67.0419 46.9968L67.1766 47.4681C67.2394 47.6596 67.2918 47.8544 67.3337 48.0516C67.3228 48.1785 67.3228 48.3061 67.3337 48.4331L67.4683 49.0614V49.5776C67.4683 49.7571 67.4683 49.9142 67.5805 50.0937C67.6549 50.2127 67.6307 50.3613 67.6059 50.5134C67.5933 50.5907 67.5805 50.6689 67.5805 50.7445C67.5913 50.9239 67.5913 51.1038 67.5805 51.2831V51.9115C67.5694 52.0908 67.5694 52.2707 67.5805 52.4501V53.0336V53.617V54.1781C67.5693 54.3275 67.5693 54.4775 67.5805 54.6269V55.0982C67.5703 55.2551 67.5703 55.4125 67.5805 55.5694C67.5682 55.7263 67.5682 55.8838 67.5805 56.0407V58.9581C67.5917 59.115 67.5917 59.2724 67.5805 59.4293V59.7435C67.5698 59.8405 67.5698 59.9383 67.5805 60.0353V60.2821V60.5738C67.5907 60.6858 67.5907 60.7985 67.5805 60.9105V61.1349C67.5805 61.1349 67.5805 61.3144 67.4683 61.4266C67.3702 61.6336 67.2498 61.8293 67.1092 62.0101C66.9511 62.2049 66.7615 62.3717 66.5482 62.5038L66.2116 62.7282L65.8974 62.8629H65.6954L65.2915 62.9975H64.9998H64.6856H64.3714H63.9226H63.5186H61.8131L61.6336 62.9526H61.3867L60.9379 62.8404H60.6686H60.3544L60.1524 62.4589H59.9505L59.6587 62.3467H59.4792L59.1875 62.2345C58.9172 62.3329 58.6238 62.3491 58.3443 62.2813C58.0648 62.2134 57.8116 62.0644 57.6166 61.853C57.3356 61.6484 57.1304 61.3564 57.0331 61.0227C56.9443 60.7781 56.8987 60.5199 56.8984 60.2597C56.8867 60.1028 56.8867 59.9453 56.8984 59.7884V59.3844V58.9581V58.6214C56.8887 58.4945 56.8887 58.3669 56.8984 58.2399C56.8874 58.083 56.8874 57.9256 56.8984 57.7687V57.3647C56.8884 57.2003 56.8884 57.0354 56.8984 56.871V56.4222V55.8836V55.345V54.7167V53.9985C56.9104 53.7892 56.9104 53.5795 56.8984 53.3702V52.6969V51.9564V51.2382V50.4752V49.7796C56.9093 49.5702 56.9093 49.3605 56.8984 49.1512C56.8984 48.9268 56.8984 48.7248 57.0106 48.5004C57.0352 48.2889 57.0727 48.079 57.1228 47.872C57.1494 47.6756 57.1869 47.4808 57.2351 47.2886C57.2266 47.1391 57.2266 46.9892 57.2351 46.8397C57.2594 46.6577 57.2969 46.4777 57.3473 46.3011V45.8972C57.3395 45.7776 57.3395 45.6577 57.3473 45.5381L57.4819 45.1118C57.5189 44.9966 57.5639 44.8841 57.6166 44.7751V44.5507C57.6628 44.4176 57.723 44.2897 57.7961 44.1692C57.7961 44.1692 57.7961 44.0121 57.9307 43.9224L58.1552 43.5857L58.2674 43.4287L58.3796 43.2716C58.4795 43.141 58.5923 43.0207 58.7162 42.9125C58.7731 42.8464 58.8344 42.7843 58.8996 42.7266C58.7231 42.6414 58.5557 42.5382 58.4 42.4188L57.9737 42.0822L57.9063 41.7007L57.5697 41.2519C57.425 41.0578 57.3044 40.8468 57.2107 40.6235C57.1196 40.4086 57.0591 40.182 57.0311 39.9503C57.0079 39.7565 57.0079 39.5606 57.0311 39.3668V38.9853C57.02 38.8059 57.02 38.6261 57.0311 38.4467C57.0202 38.2748 57.0202 38.1024 57.0311 37.9305C57.0227 37.7811 57.0227 37.6312 57.0311 37.4817C57.0747 37.2654 57.1424 37.0546 57.2331 36.8534C57.2822 36.6891 57.35 36.531 57.4351 36.3821C57.5691 36.1768 57.7273 35.9885 57.9063 35.8211C57.9954 35.6591 58.0928 35.5018 58.1981 35.3498L58.602 34.8561L59.0733 34.3624L59.4997 34.0258C59.6773 33.8786 59.8648 33.7436 60.0607 33.6218L60.5769 33.3525L61.0032 33.173L61.4521 33.0159C61.6358 32.9297 61.8333 32.8765 62.0355 32.8588H62.2375C62.239 32.6436 62.288 32.4314 62.3811 32.2374C62.4742 32.0435 62.6091 31.8725 62.7761 31.7367ZM62.0113 63.047L60.9379 62.9975H61.4765H61.8131L62.0113 63.047ZM62.0113 63.047L62.3966 63.0648H62.0824L62.0113 63.047ZM63.2923 35.8211H62.5068H62.3946L62.1029 35.9333L61.7887 36.0679L61.5418 36.2026L61.295 36.3597L61.0032 36.629L60.8013 36.8085C60.7195 36.9002 60.6445 36.9977 60.5769 37.1002C60.5093 37.1846 60.4492 37.2747 60.3973 37.3695L60.2627 37.6388C60.2627 37.7155 60.2103 37.7922 60.1628 37.8617L60.1628 37.8617C60.1407 37.8939 60.1198 37.9246 60.1056 37.953C60.0876 37.9889 60.084 37.9961 60.0862 38.0004C60.0867 38.0015 60.0876 38.0024 60.0888 38.0035C60.0944 38.0091 60.1056 38.0203 60.1056 38.0876C60.0844 38.1988 60.0844 38.3131 60.1056 38.4243C60.0969 38.5063 60.0969 38.5891 60.1056 38.6711V39.3892C60.0982 39.4413 60.0982 39.4942 60.1056 39.5463H60.2402L60.4422 39.7259H60.5993H60.8013L61.1155 39.8381H62.7537L63.0678 39.7034L63.2923 39.5463L63.4493 39.4341V39.2995C63.4413 39.2399 63.4413 39.1795 63.4493 39.1199C63.4472 39.0826 63.4472 39.0451 63.4493 39.0077C63.4522 38.9554 63.4522 38.903 63.4493 38.8506V38.6262C63.4614 38.5219 63.4614 38.4164 63.4493 38.3121V37.9081V36.4943C63.4581 36.4123 63.4581 36.3295 63.4493 36.2475V35.8211C63.4676 35.7247 63.4676 35.6257 63.4493 35.5293V35.8211H63.2923ZM90.8517 31.49C91.0372 31.4558 91.2273 31.4558 91.4128 31.49C91.5941 31.5414 91.7677 31.6169 91.9289 31.7144L92.288 32.0061L92.4226 32.1408L92.6695 32.4101L92.8715 32.7243L93.051 33.016L93.2305 33.375C93.2895 33.4652 93.3348 33.5635 93.3652 33.6668C93.3652 33.7439 93.4182 33.8316 93.4732 33.9226C93.4982 33.9641 93.5237 34.0062 93.5447 34.0483C93.5815 34.1563 93.6265 34.2613 93.6794 34.3625C93.6794 34.4436 93.7201 34.5328 93.7622 34.6253C93.7901 34.6864 93.8186 34.7488 93.8364 34.8113L93.9711 35.1928C94.0395 35.4042 94.0847 35.6224 94.1057 35.8436C94.1164 35.993 94.1164 36.143 94.1057 36.2924V36.629C94.1207 36.8981 94.1207 37.1678 94.1057 37.4369C94.1184 37.6087 94.1184 37.7813 94.1057 37.9531V38.3121C94.1057 38.4692 94.1057 38.6039 93.9487 38.761L93.6794 39.2322C93.5871 39.3692 93.4819 39.4969 93.3652 39.6137C93.3393 39.641 93.3129 39.6677 93.2861 39.6938L93.3422 39.7259L93.6564 39.9279L94.0379 40.2421L94.3072 40.4665C94.4062 40.5767 94.5111 40.6816 94.6214 40.7807L94.9131 41.1173L95.2048 41.4763L95.4966 41.9252L95.6985 42.2842L96.0576 42.5535L96.2371 42.9799C96.3104 43.116 96.3705 43.2588 96.4167 43.4063C96.486 43.5443 96.5459 43.6867 96.5962 43.8327C96.5962 43.9324 96.6504 44.032 96.7015 44.126C96.7309 44.1801 96.7593 44.2323 96.7757 44.2815C96.7911 44.3275 96.7959 44.3761 96.801 44.4274C96.8109 44.5261 96.8217 44.6346 96.9104 44.7528C96.9179 44.8948 96.9179 45.0371 96.9104 45.1792C96.9581 45.3107 96.9956 45.4458 97.0226 45.5831V45.987C97.0142 46.1291 97.0142 46.2714 97.0226 46.4134V46.8847V47.2438V47.6702C97.0107 47.782 97.0107 47.8949 97.0226 48.0068C97.0114 48.1412 97.0114 48.2763 97.0226 48.4107V49.5777C97.0009 49.8419 96.9325 50.1003 96.8206 50.3407L96.6411 50.6773C96.564 50.8485 96.474 51.0135 96.3718 51.171C96.355 51.1945 96.3387 51.2179 96.3227 51.2414C96.3031 51.2703 96.2838 51.2992 96.2646 51.3281C96.1947 51.4328 96.1249 51.5375 96.0352 51.6423C95.9129 51.8166 95.7779 51.9816 95.6312 52.136L95.2497 52.5175C95.0888 52.6658 94.9162 52.8009 94.7336 52.9214C94.5908 53.0288 94.4408 53.1263 94.2847 53.2132C94.1074 53.3279 93.9195 53.4256 93.7237 53.5049L93.8135 53.7742L93.2973 53.9537L92.7138 54.1108H92.3099H91.7937H91.2103H88.9661C88.7723 54.1331 88.5765 54.1331 88.3827 54.1108H87.9338H87.5074L87.0811 54.021H86.7669L86.4303 53.7742L86.0712 53.6171L85.8243 53.5049L85.5102 53.3254L85.2409 53.1458L85.0838 53.0336C84.9482 52.9396 84.8273 52.8262 84.7247 52.697L84.6125 52.5848C84.4901 52.4403 84.3846 52.2822 84.2983 52.1135C84.2077 51.922 84.1472 51.7176 84.1188 51.5076C84.0606 51.0607 84.1816 50.6089 84.4554 50.2509C84.5225 50.1168 84.5394 50.0202 84.5531 49.9426C84.5577 49.9162 84.562 49.8921 84.5676 49.8694L84.6574 49.847V49.3981C84.6671 49.3011 84.6671 49.2034 84.6574 49.1064V48.7024V48.2985C84.6574 48.1639 84.6574 48.0068 84.7696 47.8721C84.7593 47.7227 84.7593 47.5727 84.7696 47.4233C84.7619 47.2738 84.7619 47.124 84.7696 46.9745L84.9042 46.4583C84.9042 46.3237 84.9491 46.1666 85.0389 45.987C85.0809 45.8046 85.1333 45.6248 85.196 45.4485C85.238 45.2734 85.2904 45.101 85.3531 44.9323L85.4877 44.4386L85.6673 43.9224C85.6673 43.7878 85.6673 43.6307 85.8243 43.4736C85.9351 43.3629 85.9455 43.2856 85.9577 43.1946C85.9628 43.1565 85.9682 43.116 85.9814 43.0697C86.0231 42.9165 86.0756 42.7666 86.1385 42.6208C86.1811 42.4826 86.2336 42.3476 86.2956 42.2169L86.4303 41.9027L86.5649 41.5437C86.5649 41.409 86.5649 41.2968 86.7444 41.1846V41.0275C86.8065 40.8933 86.8817 40.7655 86.9689 40.646C86.9624 40.6014 86.9624 40.556 86.9689 40.5114C87.0306 40.3979 87.106 40.2924 87.1933 40.1972L87.4401 39.9279C87.5262 39.8268 87.6242 39.7364 87.7319 39.6586L87.9338 39.5239L88.1582 39.3893L88.2261 39.3576L88.0915 39.2547L87.71 38.8956C87.6166 38.8023 87.534 38.6981 87.4548 38.5981C87.4197 38.5539 87.3853 38.5105 87.3509 38.4692L87.0816 38.0653C86.9761 37.9057 86.8787 37.741 86.7899 37.5716C86.7027 37.3845 86.635 37.189 86.5879 36.9881C86.554 36.765 86.554 36.538 86.5879 36.3149V35.9558C86.5779 35.8213 86.5779 35.6863 86.5879 35.5519C86.5767 35.4025 86.5767 35.2524 86.5879 35.103C86.5771 34.9162 86.5771 34.7289 86.5879 34.542L86.7225 34.1381C86.7725 33.9774 86.8325 33.82 86.9021 33.6668L87.104 33.3077C87.1904 33.153 87.296 33.0097 87.4182 32.8813L87.6651 32.612C87.7676 32.4828 87.8886 32.3694 88.0241 32.2754L88.2934 32.0959L88.7423 31.849C88.9617 31.7518 89.198 31.6984 89.4379 31.6919H90.0887C90.3197 31.5558 90.5837 31.4859 90.8517 31.49ZM89.3257 34.6318C89.3184 34.6839 89.3184 34.7367 89.3257 34.7889V34.9235V35.1928C89.3171 35.2297 89.3171 35.2681 89.3257 35.305C89.3146 35.4019 89.3146 35.4998 89.3257 35.5967V36.2251C89.3298 36.2849 89.3298 36.3449 89.3257 36.4046L89.5277 36.6739L89.7072 36.8759C89.7537 36.9339 89.8064 36.9866 89.8643 37.033L90.0887 37.2125L90.3356 37.3696H90.4927H90.7171H90.8742H91.5474C91.5575 37.3102 91.5575 37.2495 91.5474 37.1901V36.9657V36.6964V36.1129V35.8885V35.507V35.2377L91.4128 34.9235V34.8113C91.174 34.9008 90.9109 34.9008 90.6722 34.8113C90.4807 34.7763 90.2999 34.6973 90.1441 34.5804C89.9883 34.4636 89.8618 34.3121 89.7746 34.1381L89.3257 34.6318ZM27.5765 35.2985C27.3603 35.1827 27.0651 35.2145 26.0174 35.3273C25.2544 36.1801 25.0973 36.3596 25.03 36.6738H24.2894C23.9915 36.6985 23.7016 36.7824 23.4366 36.9207C23.2655 36.9832 23.1061 37.0743 22.9654 37.19C22.77 37.3109 22.5893 37.454 22.4268 37.6164C22.2734 37.7548 22.1308 37.9049 22.0004 38.0652C21.846 38.2583 21.7036 38.4606 21.574 38.6711C21.456 38.8504 21.351 39.0379 21.2598 39.2321L20.9681 39.8381L20.6988 40.5113C20.6753 40.5895 20.6628 40.6759 20.6497 40.7657L20.6497 40.7657C20.6253 40.9336 20.5991 41.1135 20.4968 41.2743C20.3397 41.5212 20.3397 41.768 20.3397 42.0149C20.282 42.2592 20.2371 42.5064 20.2051 42.7554V43.6531V44.461V45.1118V45.8972C20.2282 46.2246 20.2884 46.5484 20.3846 46.8622C20.4619 47.1383 20.5594 47.4083 20.6763 47.6701L20.6764 47.6702C20.811 47.9394 20.9457 48.2087 21.0803 48.4106C21.2149 48.6126 21.372 48.8146 21.5516 49.039C21.7239 49.2818 21.9276 49.5006 22.1575 49.6898C22.3385 49.8629 22.5337 50.0205 22.741 50.1611L23.3693 50.565C23.4434 50.6071 23.5187 50.6471 23.595 50.685L23.4604 50.9241L23.3258 51.1261L23.1238 51.53C23.0509 51.6559 22.9684 51.776 22.877 51.8891L22.7423 52.2257L22.5628 52.6746C22.5128 52.8352 22.4528 52.9926 22.3832 53.1458L22.2486 53.5947C22.2326 53.6505 22.2082 53.7064 22.1833 53.7632C22.1381 53.8663 22.0915 53.9727 22.0915 54.0884C22.0288 54.2723 21.9763 54.4596 21.9344 54.6494C21.912 54.7391 21.8839 54.8289 21.8559 54.9186L21.8559 54.9187L21.8558 54.9188C21.8278 55.0085 21.7998 55.0983 21.7773 55.188C21.7632 55.2445 21.758 55.3032 21.7525 55.3641C21.7407 55.4968 21.7279 55.6401 21.6202 55.7939C21.5417 55.9061 21.5417 56.0127 21.5417 56.1193C21.5417 56.2259 21.5417 56.3325 21.4632 56.4447C21.3061 56.6691 21.3061 56.8935 21.3061 57.0731C21.2586 57.2932 21.1987 57.5105 21.1265 57.7239L20.947 58.3971C20.9227 58.5063 20.8919 58.6156 20.858 58.7354L20.858 58.7356L20.858 58.7357L20.858 58.7357L20.8579 58.7358L20.8579 58.7358C20.8292 58.8375 20.7983 58.9468 20.7675 59.0703C20.7416 59.1737 20.7058 59.2705 20.6716 59.3632C20.6166 59.512 20.5655 59.6502 20.5655 59.7885C20.4925 60.0244 20.4326 60.2641 20.386 60.5066C20.2584 60.6819 20.2441 60.8347 20.2305 60.9808C20.2249 61.0404 20.2194 61.0989 20.2064 61.1574C20.1914 61.225 20.1688 61.2951 20.1455 61.3678C20.099 61.5121 20.0493 61.6664 20.0493 61.8306C19.9867 62.0739 19.9417 62.3214 19.9147 62.5712C19.9023 62.7804 19.9023 62.9903 19.9147 63.1995C19.893 63.4384 19.893 63.6788 19.9147 63.9177V64.6807V65.0622V65.2641C19.9352 65.5186 20.0148 65.7647 20.1473 65.9829C20.2798 66.2011 20.4614 66.3853 20.6777 66.5209C20.9955 66.7291 21.3804 66.8092 21.7549 66.7453H22.0242L22.3832 66.4086H25.525H26.1085H26.5798H27.1184L27.6345 66.2964L28.1507 66.1394L28.5771 65.9598L29.0483 65.713L29.3849 65.511L29.8113 65.1744L30.1479 64.8602L30.4172 64.546C30.5268 64.4287 30.6245 64.3009 30.709 64.1645L30.9334 63.8055C31.0097 63.6755 31.0772 63.5405 31.1354 63.4015C31.2048 63.2559 31.2648 63.106 31.3149 62.9527C31.472 62.7732 31.472 62.5936 31.472 62.459V61.9877C31.4951 61.7789 31.4951 61.5682 31.472 61.3593V60.5739V60.1026V59.6089V59.1377C31.482 58.9882 31.482 58.8383 31.472 58.6888V58.1278C31.4804 57.9783 31.4804 57.8285 31.472 57.679C31.4826 57.4771 31.4826 57.2749 31.472 57.0731L31.3373 56.512L31.2027 55.9734C31.137 55.7904 31.0845 55.6029 31.0456 55.4124C30.9829 55.2285 30.9304 55.0411 30.8885 54.8514C30.709 54.6718 30.709 54.4923 30.709 54.3128L30.507 53.6844C30.4817 53.6168 30.4468 53.5492 30.4131 53.484C30.3574 53.3761 30.305 53.2747 30.305 53.1907L30.1031 52.6521C30.0799 52.5981 30.0461 52.544 30.0117 52.489C29.9462 52.3843 29.8787 52.2762 29.8787 52.1584L29.5869 51.5974L29.3625 51.2159L29.1156 50.8119L29.01 50.6686C29.0529 50.6426 29.0951 50.6155 29.1367 50.5874L29.6304 50.2284C29.8115 50.0811 29.9769 49.9157 30.1242 49.7347C30.2273 49.6338 30.3177 49.5208 30.3934 49.3981C30.5436 49.2277 30.6717 49.0392 30.775 48.837C30.8012 48.7845 30.8309 48.732 30.8613 48.6782C30.9089 48.594 30.9583 48.5065 30.9994 48.4106C31.0191 48.3646 31.0465 48.3148 31.0754 48.2622C31.1452 48.1352 31.2238 47.9924 31.2238 47.8496C31.2938 47.666 31.3537 47.4787 31.4033 47.2886C31.418 47.0869 31.418 46.8844 31.4033 46.6827V46.1665C31.4153 45.9722 31.4153 45.7773 31.4033 45.583C31.4146 45.4112 31.4146 45.2388 31.4033 45.0669V44.5732C31.4153 44.3414 31.4153 44.1092 31.4033 43.8775C31.2462 43.6306 31.2462 43.3838 31.2462 43.1369C31.1966 42.9468 31.1367 42.7595 31.0667 42.5759L30.8872 42.0373L30.6852 41.4538C30.6201 41.2631 30.5452 41.0758 30.4608 40.8928C30.4304 40.8245 30.3923 40.7587 30.3552 40.6946C30.2827 40.5694 30.2139 40.4506 30.2139 40.3318L29.9671 39.8156L29.7427 39.3668C29.7159 39.2956 29.6751 39.2279 29.6356 39.1623C29.5754 39.0626 29.5182 38.9678 29.5182 38.8731L29.2714 38.4242L29.0694 38.0203C29.0424 37.9572 29.0009 37.8977 28.9608 37.8404C28.9012 37.7551 28.845 37.6745 28.845 37.5939L28.7103 37.3246C28.6418 37.2173 28.5818 37.1047 28.5308 36.988V36.8309L28.3962 36.5392V36.4853L28.4859 36.5392C28.4561 36.4464 28.4186 36.3564 28.3737 36.2699C28.379 36.3117 28.381 36.3538 28.3797 36.3958L28.1942 36.0455V35.8884L27.8351 35.5069C27.734 35.412 27.6613 35.3439 27.5765 35.2985ZM28.3797 36.3958C28.3789 36.4212 28.3769 36.4466 28.3737 36.4719L28.3962 36.4853V36.427L28.3797 36.3958ZM26.354 40.4889C26.4631 40.532 26.5682 40.5846 26.6682 40.6459L26.7355 40.7357V40.8479C26.758 40.8873 26.7848 40.9281 26.8122 40.97L26.8122 40.97C26.8942 41.0951 26.9824 41.2296 26.9824 41.3641L27.2068 41.8129C27.2801 41.949 27.3402 42.0917 27.3863 42.2393L27.5658 42.6881C27.6353 42.849 27.6952 43.0139 27.7454 43.1818C27.7675 43.2408 27.7945 43.2998 27.8207 43.3572C27.8743 43.4745 27.9249 43.5851 27.9249 43.6755V44.0795C27.9336 44.1615 27.9336 44.2443 27.9249 44.3263C27.936 44.4232 27.936 44.5211 27.9249 44.6181V45.0893C27.9375 45.2162 27.9375 45.344 27.9249 45.4708V45.7626V46.1889V46.4358C27.9382 46.5025 27.9382 46.5711 27.9249 46.6378V46.8846C27.881 46.9791 27.8284 47.0692 27.7678 47.1539L27.5434 47.4008C27.5053 47.4549 27.4499 47.4945 27.3863 47.513L27.2068 47.6252H25.9949H25.6134L25.2768 47.513H25.0524L24.7382 47.311L24.4241 47.0642L24.2221 46.8397L23.9528 46.4807C23.8835 46.3738 23.8234 46.2612 23.7733 46.1441C23.7641 46.047 23.7641 45.9494 23.7733 45.8523C23.7662 45.7552 23.7662 45.6577 23.7733 45.5606C23.7639 45.3887 23.7639 45.2164 23.7733 45.0444V44.3936C23.7612 44.1918 23.7612 43.9895 23.7733 43.7877C23.7621 43.6084 23.7621 43.4285 23.7733 43.2491V42.6881C23.863 42.5086 23.9079 42.3066 23.9079 42.0822C23.9618 41.9278 24.0068 41.7705 24.0425 41.6109C24.0573 41.5741 24.0792 41.5349 24.1021 41.4941C24.149 41.4104 24.1996 41.3199 24.1996 41.2294C24.2541 41.0743 24.3217 40.9242 24.4016 40.7806L24.5587 40.5113L24.6709 40.3542L24.828 40.1747H25.389H25.5461H25.6808L25.9052 40.2869L26.354 40.4889ZM48.0567 49.2636L48.2586 49.084L48.3035 48.9494C48.5243 49.0395 48.7607 49.0852 48.9992 49.084L49.2909 49.4655L49.448 49.7124L49.6724 50.049C49.6892 50.091 49.7186 50.1329 49.7487 50.1761C49.7992 50.2483 49.852 50.3238 49.852 50.4081L49.9866 50.7671L50.1886 51.3057C50.2443 51.4442 50.2893 51.5868 50.3232 51.7321V52.0463C50.3334 52.2032 50.3334 52.3606 50.3232 52.5176V53.505C50.3333 53.6694 50.3333 53.8343 50.3232 53.9987C50.3367 54.133 50.3367 54.2683 50.3232 54.4026V54.8066C50.211 54.9188 50.211 55.031 50.211 55.1656C50.1682 55.2893 50.1157 55.4093 50.0539 55.5247C50.0199 55.6446 49.9669 55.7582 49.8969 55.8613L49.7398 56.1082L49.5827 56.3102L49.3358 56.5346L49.1339 56.6917L48.9319 56.8263H48.0118H47.8323H47.6976L47.5181 56.6917C47.4474 56.6437 47.3865 56.5828 47.3386 56.5121C47.2453 56.4331 47.1624 56.3426 47.0917 56.2428L46.9346 55.996L46.7102 55.5247C46.6536 55.4175 46.6085 55.3047 46.5755 55.1881C46.566 55.0536 46.566 54.9186 46.5755 54.7841C46.5631 54.6873 46.5631 54.5893 46.5755 54.4924V53.303V52.742V52.2707V51.8443C46.594 51.7338 46.632 51.6274 46.6877 51.5302L46.957 50.9467L47.1366 50.5427C47.1573 50.5168 47.1816 50.4897 47.2068 50.4617C47.2905 50.3683 47.3834 50.2648 47.3834 50.1612L47.6078 49.8022L47.8547 49.488L48.0567 49.2636ZM52.7469 48.3659L52.4776 47.9171L52.5674 47.6029C52.5771 47.5059 52.5771 47.4082 52.5674 47.3112C52.6533 46.8533 52.5555 46.3799 52.2951 45.9936C52.0347 45.6072 51.6327 45.3389 51.176 45.2466H50.7272H50.3232H49.8744H48.5953C48.313 45.2641 48.0341 45.3169 47.7649 45.4037C47.5779 45.4591 47.3974 45.5343 47.2263 45.6281L46.6877 45.9198L46.194 46.234L45.6779 46.6828L45.2291 47.1765L44.87 47.6702C44.74 47.8427 44.6202 48.0225 44.5109 48.2088C44.3868 48.3962 44.2744 48.5911 44.1743 48.7923C44.0398 49.0127 43.927 49.2457 43.8377 49.488C43.7517 49.6627 43.6768 49.8425 43.6133 50.0266C43.5795 50.111 43.5553 50.205 43.5298 50.3037C43.4876 50.4673 43.442 50.644 43.344 50.812C43.1869 51.0813 43.1869 51.3506 43.1869 51.575C43.173 51.7992 43.173 52.0241 43.1869 52.2483V53.0113V53.7743V54.4026C43.1538 54.7459 43.1538 55.0916 43.1869 55.4349C43.2409 55.6779 43.3083 55.9176 43.3889 56.1531C43.4567 56.4105 43.5546 56.6591 43.6806 56.8936C43.8974 57.3699 44.1526 57.8277 44.4436 58.2626C44.5869 58.4749 44.7444 58.6773 44.9149 58.8685C45.0849 59.0649 45.2727 59.2452 45.4759 59.4071L46.0818 59.811L46.6877 60.1252L46.9387 60.303L46.8435 60.4616C46.783 60.5464 46.7304 60.6365 46.6864 60.7309C46.5952 60.8909 46.5128 61.0557 46.4396 61.2247C46.3615 61.3769 46.294 61.5344 46.2376 61.6959L46.0581 62.0999C46.0244 62.2009 45.9851 62.2906 45.9459 62.3804C45.9066 62.4702 45.8673 62.5599 45.8337 62.6609C45.813 62.723 45.8007 62.7852 45.7885 62.8473C45.761 62.9872 45.7336 63.127 45.6093 63.2668C45.4297 63.4688 45.4297 63.6708 45.4297 63.8503C45.2951 64.0298 45.2278 64.2318 45.2278 64.4562L45.0258 65.1743C44.9891 65.2843 44.9591 65.4076 44.9285 65.5334L44.9285 65.5336C44.9029 65.6387 44.8769 65.7454 44.8463 65.8476C44.8078 65.9758 44.7693 66.1334 44.7308 66.2909C44.702 66.4091 44.6731 66.5272 44.6443 66.633C44.5994 66.7976 44.5545 66.982 44.5097 67.1665C44.4872 67.2588 44.4648 67.3511 44.4423 67.4409C44.4199 67.5307 44.3974 67.6254 44.375 67.7201C44.3301 67.9096 44.2852 68.0992 44.2403 68.2488C44.2129 68.3402 44.1929 68.4317 44.1713 68.5307C44.1398 68.6748 44.1048 68.8348 44.0384 69.0342C44.0107 69.1171 43.9818 69.1973 43.9538 69.2747C43.868 69.5118 43.7915 69.7234 43.7915 69.9095L43.5671 70.7398C43.5245 70.8997 43.4767 71.0596 43.4312 71.2123C43.3808 71.3811 43.3331 71.541 43.2978 71.6823C43.2754 71.7718 43.2432 71.8662 43.21 71.9631L43.21 71.9633C43.1434 72.158 43.0734 72.3628 43.0734 72.5575L42.849 73.3879C42.7817 73.6347 42.7143 73.904 42.647 74.2406C42.6233 74.3593 42.6079 74.4752 42.593 74.5873C42.5657 74.7932 42.5401 74.9864 42.4675 75.1607C42.3553 75.43 42.3553 75.6993 42.3553 75.9686C42.3334 76.2749 42.3334 76.5824 42.3553 76.8887V77.7415V78.2128C42.3663 78.3022 42.3663 78.3926 42.3553 78.482C42.3957 78.7973 42.5026 79.1004 42.669 79.3712C42.8353 79.642 43.0573 79.8744 43.3202 80.0529C43.7363 80.3082 44.228 80.4114 44.7116 80.3447H45.0258L45.2198 80.1876H45.34H45.5644L45.8112 80.0305C45.8478 80.0088 45.8839 79.9863 45.9195 79.9632H49.8058H50.5464H51.1523H51.8255L52.4763 79.8285L53.1271 79.6266L53.6657 79.3797L54.2716 79.088L54.698 78.8187C54.888 78.6986 55.0681 78.5635 55.2366 78.4147L55.663 78.0108L56.022 77.6742C56.1542 77.519 56.2743 77.354 56.3811 77.1805L56.6728 76.7316C56.6953 76.6923 56.722 76.6515 56.7495 76.6097L56.7496 76.6095C56.8315 76.4844 56.9197 76.35 56.9197 76.2155C57.0042 76.0249 57.0791 75.8301 57.1441 75.632C57.1591 75.5983 57.1747 75.5647 57.1902 75.531C57.2682 75.3627 57.3461 75.1944 57.3461 75.0261C57.3587 74.8318 57.3587 74.6369 57.3461 74.4426C57.3683 74.1738 57.3683 73.9036 57.3461 73.6347V73.141V72.6473V72.0638V71.413V70.8071C57.3461 70.7577 57.3572 70.7083 57.3689 70.6561C57.3945 70.5423 57.423 70.4153 57.3461 70.2461C57.29 70.1227 57.29 69.9824 57.29 69.8534C57.29 69.7243 57.29 69.6065 57.2339 69.528C57.1608 69.4256 57.1544 69.3233 57.1463 69.1962C57.1421 69.1282 57.1373 69.053 57.1217 68.9669C57.1078 68.8905 57.1025 68.8119 57.0971 68.7325C57.0852 68.5554 57.073 68.3743 56.9646 68.2039C56.8667 68.0501 56.8559 67.9049 56.8455 67.7631C56.8391 67.6773 56.8329 67.5928 56.8075 67.5082C56.7898 67.4493 56.7691 67.3889 56.7481 67.3278C56.689 67.1558 56.628 66.9781 56.628 66.8125L56.426 66.1169L56.224 65.4212L56.022 64.7255C55.9811 64.6027 55.9309 64.4706 55.8819 64.3419C55.8235 64.1884 55.7669 64.0397 55.7303 63.9176C55.7041 63.8301 55.6642 63.746 55.6252 63.664C55.5644 63.5357 55.5059 63.4125 55.5059 63.2893L55.2366 62.6385C55.2158 62.5916 55.1949 62.5435 55.1738 62.4948C55.104 62.3335 55.031 62.1652 54.9449 62.0101C54.8461 61.772 54.7337 61.5397 54.6082 61.3144L54.3165 60.7983L53.9799 60.3046L53.5984 59.766L53.2618 59.362L52.8803 58.9805L52.409 58.6215L52.3955 58.6125L52.6123 58.3523L53.0387 57.7015L53.3304 57.0956C53.4261 56.884 53.5086 56.6667 53.5772 56.4448C53.665 56.227 53.7326 56.0017 53.7792 55.7716C53.8433 55.559 53.8883 55.3413 53.9139 55.1208C53.9262 54.889 53.9262 54.6568 53.9139 54.4251V53.8192V53.1459V52.5849V51.8219C53.8951 51.5415 53.85 51.2635 53.7792 50.9916C53.7475 50.8332 53.6823 50.6301 53.6231 50.4455L53.623 50.4452C53.5983 50.3683 53.5746 50.2945 53.5548 50.2286C53.5278 50.1385 53.4899 50.052 53.4542 49.9706L53.4542 49.9705C53.401 49.8492 53.3528 49.7391 53.3528 49.6451L53.0835 48.9943L52.7469 48.3659ZM49.716 76.4623H47.1519C47.4667 76.0895 47.629 75.6106 47.6048 75.1218C47.5796 74.6131 47.3543 74.1351 46.9782 73.7918V73.4103C47.0455 73.1186 47.1128 72.8493 47.2026 72.5575C47.2423 72.4285 47.2732 72.2994 47.3051 72.1664C47.3452 71.9989 47.3869 71.8251 47.4494 71.6374C47.4801 71.5455 47.5124 71.4585 47.5432 71.3757C47.6252 71.1554 47.6963 70.9641 47.6963 70.7847L47.9207 69.9319C48.0329 69.5953 48.1227 69.2362 48.1676 69.0118L48.1824 68.937C48.2229 68.7326 48.2672 68.5085 48.3471 68.2488C48.4034 68.0659 48.4508 67.8743 48.495 67.6959L48.4952 67.6951C48.5214 67.5891 48.5465 67.4879 48.5715 67.396C48.6005 67.2898 48.6253 67.1878 48.6495 67.0882L48.6496 67.0877L48.6496 67.0876C48.6817 66.9558 48.7127 66.8281 48.751 66.7003C48.7713 66.6328 48.7957 66.5652 48.8198 66.4982L48.8198 66.4982C48.8758 66.3428 48.9306 66.1907 48.9306 66.0495C48.9801 65.8447 49.04 65.6424 49.1101 65.4436C49.1397 65.3104 49.1791 65.187 49.2153 65.0733C49.234 65.0146 49.2519 64.9585 49.2672 64.905C49.2843 64.8452 49.3144 64.7854 49.3451 64.7243C49.3951 64.625 49.4467 64.5225 49.4467 64.4113C49.4929 64.2348 49.553 64.0622 49.6263 63.8952L49.8058 63.4463L49.9629 63.0424L50.12 62.7058L50.2322 62.4814C50.3007 62.374 50.3607 62.2615 50.4117 62.1447L50.5688 61.9203L50.7708 62.1447L50.9503 62.3916L51.1747 62.7507L51.4216 63.1546C51.4368 63.1927 51.465 63.2334 51.4955 63.2775C51.555 63.3634 51.6235 63.4624 51.6235 63.581C51.715 63.7562 51.7974 63.9359 51.8704 64.1196L52.0724 64.6133C52.0958 64.6836 52.1301 64.7539 52.1649 64.8251L52.1649 64.8252C52.23 64.9586 52.2968 65.0954 52.2968 65.2417C52.3874 65.4195 52.4552 65.6079 52.4988 65.8027C52.6334 66.0421 52.7007 66.2665 52.7007 66.4759L52.9027 67.1267C52.9492 67.3471 53.0091 67.5645 53.0822 67.7775C53.0991 67.8533 53.1254 67.929 53.1517 68.0048C53.1955 68.131 53.2393 68.2572 53.2393 68.3834L53.374 69.0118C53.5086 69.2362 53.5086 69.3933 53.5086 69.6177V70.2236V70.6949V71.2784C53.5221 71.4202 53.5221 71.563 53.5086 71.7048C53.5197 71.8617 53.5197 72.0191 53.5086 72.176V72.7819C53.5198 72.9463 53.5198 73.1113 53.5086 73.2757V73.904V74.1509C53.5154 74.248 53.5154 74.3455 53.5086 74.4426C53.485 74.5446 53.4472 74.6428 53.3964 74.7343V74.9139L53.2618 75.1383L53.1271 75.2954C53.0806 75.3735 53.0197 75.442 52.9476 75.4974L52.768 75.6769L52.4539 75.8564L52.2295 75.9686C52.1259 76.0326 52.012 76.0782 51.8928 76.1033L51.6011 76.2155H51.1747L50.7034 76.4623H50.1649H49.716ZM26.0861 63.6708H23.6624C23.8761 63.3494 23.958 62.9581 23.8912 62.5779C23.8244 62.1978 23.6139 61.8579 23.3033 61.6286V61.3145C23.3482 61.0901 23.4155 60.8657 23.4829 60.6413L23.4829 60.6412C23.5035 60.5725 23.5304 60.5039 23.5578 60.4339L23.5579 60.4337L23.5579 60.4336L23.5579 60.4336L23.5579 60.4336L23.558 60.4335L23.558 60.4335C23.6201 60.275 23.6848 60.1098 23.6848 59.9231L23.8644 59.2499C23.8807 59.1765 23.9088 59.1002 23.938 59.021C23.9893 58.882 24.0439 58.7338 24.0439 58.5766C24.1786 58.3073 24.2459 58.0605 24.2459 57.8361L24.3805 57.2301C24.4047 57.1497 24.4173 57.0692 24.4297 56.9898C24.452 56.8477 24.4737 56.7089 24.5601 56.5793C24.6947 56.3774 24.6947 56.1754 24.6947 56.0183L25.2333 55.39L25.3679 54.9187C25.4237 54.7802 25.4687 54.6377 25.5026 54.4923L25.6372 54.0884C25.6992 53.9577 25.7517 53.8227 25.7943 53.6844L25.929 53.3254L26.0636 53.0112L26.1983 52.7419C26.1912 52.6822 26.1912 52.622 26.1983 52.5623C26.2589 52.4776 26.3114 52.3875 26.3554 52.2931L26.49 52.1135V52.2931L26.8042 52.5623L26.9613 52.8541L27.1632 53.1907L27.3428 53.5273C27.4121 53.6653 27.4721 53.8077 27.5223 53.9537C27.5843 54.0844 27.6368 54.2194 27.6794 54.3577L27.8814 54.8289C27.9236 54.9892 27.976 55.1466 28.0385 55.3002C28.0774 55.4761 28.1299 55.6486 28.1956 55.8163L28.3302 56.3325C28.4873 56.512 28.4873 56.6916 28.4873 56.8486C28.5329 57.0112 28.5704 57.176 28.5995 57.3424C28.7341 57.477 28.7341 57.679 28.7341 57.8361V58.3073V58.7786C28.7492 58.9053 28.7492 59.0334 28.7341 59.1601V59.6314V59.9455V60.327V61.0901C28.7453 61.2245 28.7453 61.3596 28.7341 61.494V61.696C28.7431 61.7705 28.7431 61.8458 28.7341 61.9204C28.7468 62.0022 28.7468 62.0854 28.7341 62.1672V62.3019C28.7151 62.5526 28.6124 62.7897 28.4424 62.9751V63.1322L28.3078 63.2893L28.1507 63.4239L27.9038 63.5586L27.7018 63.6708H27.455H27.2081H26.894H26.5125H26.0861ZM10.7801 48.8595C11.1175 48.859 11.4495 48.9439 11.7451 49.1064L11.9695 49.241C12.1248 49.3355 12.268 49.4486 12.3959 49.5776L12.553 49.7347L12.7101 49.8918C12.7101 49.9569 12.7781 50.0145 12.8528 50.0776C12.9067 50.1233 12.9642 50.1719 13.0018 50.2284L13.2038 50.4528L13.4731 50.767C13.5953 50.9245 13.7077 51.0894 13.8097 51.2607C13.8872 51.3586 13.9548 51.4638 14.0117 51.5749C14.1218 51.7157 14.2194 51.8659 14.3034 52.0237C14.4106 52.1744 14.5081 52.3318 14.5952 52.495L14.8645 52.9887L15.1338 53.5273C15.1338 53.6571 15.2172 53.787 15.3007 53.9168C15.3471 53.989 15.3934 54.0611 15.4255 54.1332C15.4718 54.3024 15.5318 54.4675 15.605 54.6269L15.807 55.188C15.8947 55.398 15.9623 55.6159 16.009 55.8388C16.0794 56.1177 16.117 56.4039 16.1212 56.6915V57.7014C16.1305 57.8808 16.1305 58.0606 16.1212 58.24V58.7113C16.0746 58.9611 16.0146 59.2083 15.9417 59.4518C15.9417 59.6089 15.9417 59.7436 15.7621 59.8782C15.6954 60.0559 15.6084 60.2253 15.5029 60.3829C15.6235 60.4633 15.7403 60.5495 15.8526 60.6413C16.0282 60.7864 16.1932 60.9439 16.3464 61.1125C16.448 61.2141 16.5402 61.3251 16.6351 61.4394L16.6352 61.4395C16.687 61.5019 16.7397 61.5653 16.7952 61.6287L17.2889 62.3019C17.4675 62.5659 17.6251 62.8436 17.7602 63.1323C17.8531 63.2872 17.9461 63.4635 18.0465 63.6539L18.0465 63.654L18.0468 63.6545C18.0917 63.7397 18.138 63.8276 18.1865 63.9177L18.5905 64.8154L18.9944 65.7803C19.1291 66.1394 19.2637 66.476 19.3984 66.7902C19.533 67.1268 19.6677 67.4859 19.7799 67.8674C19.8479 68.0986 19.9242 68.3052 19.9987 68.5069L19.9987 68.507C20.0471 68.6381 20.0948 68.7671 20.1389 68.8997C20.1831 69.0322 20.2308 69.1683 20.2792 69.3064L20.2792 69.3066L20.2795 69.3072C20.3539 69.5196 20.4301 69.737 20.498 69.9544C20.5269 70.047 20.5574 70.1427 20.5882 70.2393C20.6767 70.5174 20.768 70.8043 20.8346 71.054L21.1264 72.019C21.1264 72.2317 21.198 72.4443 21.2678 72.6513C21.3084 72.772 21.3484 72.8907 21.3732 73.0064C21.4223 73.2353 21.4832 73.4404 21.5474 73.6563C21.5713 73.7368 21.5957 73.8188 21.6201 73.9041L21.8445 74.8915L21.9791 75.6096V76.44V77.2254V77.8313V78.4821C21.9669 78.6615 21.9669 78.8414 21.9791 79.0207V79.7613C21.9562 80.056 21.9112 80.3485 21.8445 80.6365L21.6425 81.3322C21.5527 81.5716 21.463 81.796 21.3732 82.0054C21.3732 82.1636 21.2841 82.3106 21.1921 82.4621C21.1536 82.5256 21.1146 82.59 21.0815 82.6562L20.7897 83.2173L20.3409 83.8905L20.0267 84.3169L19.5779 84.8555L19.1066 85.3043L18.6129 85.7082L18.0519 86.0673L17.5357 86.3142L16.9523 86.5386H16.5708L15.92 86.6732H15.3589H13.7353L13.7432 86.6957H13.707C13.7408 86.7891 13.7457 86.8908 13.7207 86.9874C13.7425 87.3594 13.6814 87.7316 13.5416 88.077C13.4019 88.4224 13.1871 88.7325 12.9128 88.9847C12.6192 89.2403 12.2751 89.4314 11.903 89.5457C11.6427 89.6341 11.3699 89.6796 11.0951 89.6804C10.6112 89.7089 10.1312 89.5801 9.72663 89.3131C9.32211 89.0461 9.0149 88.6553 8.85095 88.1992C8.78264 88.0017 8.73011 87.7991 8.69386 87.5933V87.1894V86.7405C8.70373 86.5986 8.70373 86.4561 8.69386 86.3142V85.6409V84.9452V84.1822V83.307V77.4947V76.4175V75.3628V74.3305V72.3332V71.3682V70.3808V69.3934C8.70648 69.1617 8.70648 68.9294 8.69386 68.6977V67.8225V67.037V66.3862V65.7579C8.68147 65.5336 8.68147 65.3089 8.69386 65.0846V64.5236V64.0972C8.69386 63.985 8.69386 63.7606 8.80607 63.5811C8.81309 63.454 8.81309 63.3266 8.80607 63.1996C8.97498 63.0377 9.15495 62.8877 9.34466 62.7507C9.35062 62.6686 9.35062 62.5861 9.34466 62.5039L9.49758 62.198C9.43061 62.1751 9.36438 62.1498 9.29902 62.1223L8.69311 61.8082C8.48718 61.6994 8.29185 61.5717 8.10963 61.4267L7.6608 61.0452C7.46634 60.8812 7.28616 60.701 7.12221 60.5066C6.97716 60.3195 6.84231 60.1247 6.71827 59.9231C6.71827 59.799 6.63352 59.6833 6.54736 59.5658C6.49331 59.492 6.43869 59.4175 6.40409 59.3396C6.30217 59.1356 6.21225 58.9258 6.13479 58.7113C6.03025 58.4956 5.94755 58.2701 5.88794 58.038C5.81498 57.7869 5.75506 57.5323 5.70841 57.275C5.68704 56.9986 5.68704 56.721 5.70841 56.4447V55.9285C5.6963 55.7342 5.6963 55.5394 5.70841 55.3451V54.6718L5.84306 53.9986L6.04503 53.4151C6.11116 53.1924 6.19367 52.9748 6.29188 52.7643C6.37589 52.6065 6.47351 52.4563 6.58362 52.3155L6.96512 51.8442L7.36907 51.53L7.72813 51.2607L7.9301 51.1261C8.07674 51.0129 8.23466 50.9151 8.40137 50.8343L8.76043 50.6772C8.89406 50.6089 9.03818 50.5634 9.18681 50.5426C9.1862 50.1113 9.35115 49.6963 9.64763 49.3831C9.94412 49.0699 10.3495 48.8825 10.7801 48.8595ZM10.8793 85.1921H10.6463C10.4093 85.2816 10.1893 85.4106 9.99546 85.5736C9.71365 85.839 9.51817 86.1831 9.43442 86.561C9.4139 86.6798 9.4139 86.8013 9.43442 86.9201C9.54414 86.4452 9.80546 86.019 10.1789 85.7058C10.4028 85.518 10.6598 85.377 10.9346 85.2887C10.9156 85.2568 10.8971 85.2246 10.8793 85.1921ZM12.7557 86.5875V86.6508L12.8418 86.6149L12.7557 86.5875ZM12.351 50.565V50.6772C12.3771 50.6453 12.3928 50.6061 12.3959 50.565H12.351ZM11.229 53.6619H9.90494H9.79273L9.52343 53.8415L9.38879 53.9537V54.0659L9.25414 54.2679V54.4025V54.6269V54.9187V55.188V56.1529V56.4896V56.8262C9.28939 56.9565 9.3344 57.0841 9.38879 57.2077C9.44283 57.3557 9.51044 57.4985 9.59076 57.6341L9.77029 57.9707L9.94982 58.24L10.0845 58.3746L10.3762 58.6215L10.5782 58.7561L10.8026 58.8683H10.9821H11.2963H11.6554C11.7598 58.8797 11.8651 58.8797 11.9695 58.8683H12.3286L12.553 58.7561L12.7999 58.599L12.9121 58.4195V58.1278C12.9143 58.0904 12.9143 58.0529 12.9121 58.0156C12.9217 57.8961 12.9217 57.776 12.9121 57.6565C12.9216 57.567 12.9216 57.4767 12.9121 57.3872C12.9256 57.2679 12.9256 57.1475 12.9121 57.0282C12.9014 56.8712 12.9014 56.7138 12.9121 56.5569V56.4447V56.1081C12.9121 55.9958 12.9121 55.8163 12.755 55.6817L12.553 55.188L12.3735 54.784C12.3735 54.6812 12.2949 54.5652 12.2278 54.4662L12.2278 54.4661C12.207 54.4355 12.1874 54.4065 12.1715 54.3801C12.1053 54.2408 12.0304 54.1059 11.9471 53.9761L11.6554 53.7742V53.6395L11.229 53.6619ZM14.9326 82.3869C14.7786 81.8444 14.4261 81.3797 13.9451 81.0853H13.8554C13.7163 80.9374 13.5577 80.8091 13.3841 80.7038V77.5396V76.4624V75.4077V74.3754V73.4104V72.4678V70.493V69.7973V68.9221V68.204V67.5981V66.9697V66.3638C13.3719 66.2144 13.3719 66.0643 13.3841 65.915C13.3926 65.7655 13.3926 65.6156 13.3841 65.4661V65.0846V64.8154V64.4787V64.3665L13.6085 64.7031C13.7149 64.8502 13.8052 65.0081 13.8778 65.1744C13.961 65.3076 14.0442 65.4777 14.1366 65.6666C14.1688 65.7324 14.2021 65.8005 14.2369 65.8701C14.3715 66.1095 14.4837 66.3339 14.5735 66.5433L14.9101 67.3737C14.9862 67.5766 15.0695 67.7796 15.1478 67.9704C15.208 68.1172 15.2653 68.2567 15.3141 68.3835C15.3491 68.4746 15.3951 68.5658 15.4418 68.6582C15.5445 68.8619 15.6507 69.0721 15.6507 69.3036L15.9873 70.291C16.0621 70.5005 16.1369 70.7299 16.2117 70.9593L16.2123 70.9612C16.2495 71.0752 16.2867 71.1893 16.3239 71.3009C16.4361 71.6375 16.5483 71.9741 16.6381 72.2883C16.6755 72.4193 16.7091 72.5542 16.7419 72.6865C16.7879 72.8715 16.8326 73.0514 16.8849 73.2084C16.9747 73.4777 17.042 73.6797 17.1094 73.9939C17.1277 74.0795 17.1427 74.1702 17.1581 74.2626C17.1989 74.5094 17.242 74.7691 17.3562 74.9813C17.5133 75.273 17.5133 75.4974 17.5133 75.677L17.648 76.3502V76.9112C17.6573 77.0981 17.6573 77.2854 17.648 77.4723V78.0109V79.3349C17.6593 79.4318 17.6593 79.5297 17.648 79.6266C17.6585 79.6936 17.6585 79.7617 17.648 79.8286C17.6557 79.9482 17.6557 80.0681 17.648 80.1877L17.5133 80.5243C17.4705 80.6479 17.4179 80.768 17.3562 80.8834L17.1318 81.2873C16.9972 81.3546 16.9972 81.5117 16.9972 81.5117L16.7279 81.8708L16.5932 82.0279L16.3912 82.2298L16.1893 82.3869H16.0097H15.718H15.4487H15.0448H14.9326ZM75.5029 50.2284C75.4906 50.0236 75.5204 49.8184 75.5905 49.6254C75.6605 49.4325 75.7693 49.256 75.9102 49.1067C76.0511 48.9575 76.221 48.8386 76.4095 48.7575C76.5981 48.6764 76.8012 48.6347 77.0064 48.6351C77.2368 48.6141 77.4686 48.6527 77.6797 48.7473L78.0163 48.8595L78.2856 48.9942L78.5324 49.1064L78.7344 49.2186C78.8687 49.2806 78.9965 49.3558 79.1159 49.443C79.2294 49.5048 79.3349 49.5801 79.4301 49.6674L79.7443 49.8918L80.1258 50.2284L80.4175 50.5426L80.799 50.969L81.0683 51.3056L81.36 51.7096C81.4496 51.8568 81.547 51.9992 81.6518 52.136L81.966 52.6745C82.0238 52.8065 82.0914 52.934 82.1679 53.056C82.2523 53.2315 82.3272 53.4112 82.3923 53.5946C82.4731 53.7611 82.5407 53.9337 82.5943 54.1108C82.6968 54.3921 82.7573 54.687 82.7739 54.986C82.7627 55.1504 82.7627 55.3153 82.7739 55.4797C82.785 55.6366 82.785 55.7941 82.7739 55.951C82.785 56.1154 82.785 56.2803 82.7739 56.4447C82.7971 56.676 82.7971 56.9091 82.7739 57.1404L82.6392 57.6341C82.5673 57.8435 82.4772 58.0463 82.3699 58.24C82.2924 58.4038 82.2024 58.5613 82.1006 58.7113L81.7488 59.1666L81.7634 59.1826L82.0551 59.5641L82.3244 59.9231L82.5713 60.3046C82.5713 60.3958 82.6433 60.4972 82.7177 60.602C82.7531 60.652 82.7891 60.7027 82.8181 60.7534C82.8531 60.8147 82.8608 60.8622 82.8678 60.9055C82.8788 60.9732 82.8881 61.0303 82.9977 61.1125L83.1996 61.5389C83.2366 61.6541 83.2816 61.7666 83.3343 61.8755C83.3343 61.9695 83.3825 62.0635 83.4357 62.1672C83.4713 62.2367 83.5092 62.3106 83.5362 62.3917L83.6709 62.7507C83.6709 62.8458 83.712 62.9491 83.7544 63.0557L83.7545 63.0559C83.7821 63.1253 83.8103 63.1961 83.828 63.2669L83.9402 63.6484C83.9402 63.813 83.9851 63.9925 84.0748 64.187C84.0748 64.3216 84.0748 64.4338 84.187 64.546L84.3217 65.1968V65.6457V66.1169V66.6106V67.1717V67.6878V68.204C84.3099 68.3533 84.3099 68.5034 84.3217 68.6528V69.0792C84.3105 69.2361 84.3105 69.3936 84.3217 69.5505V70.6501C84.3428 70.889 84.3428 71.1293 84.3217 71.3682C84.2923 71.5197 84.2548 71.6695 84.2095 71.817V72.221C84.2095 72.3781 84.2095 72.4454 84.0973 72.5576C84.0472 72.7109 83.9872 72.8608 83.9177 73.0064L83.7158 73.4328L83.5362 73.747L83.2894 74.1509L83.065 74.4651L82.7732 74.8242L82.5039 75.1159L82.2122 75.4076L81.8756 75.6994L81.539 75.9687L81.2472 76.1706L80.7311 76.5073L80.4169 76.6868L79.9007 76.9337L79.3846 77.1805L78.9133 77.3376L78.3523 77.5396L77.8586 77.6742L78.1054 77.7864L77.522 77.8986H77.0956H76.557H74.9412C74.9792 78.2596 74.8962 78.6229 74.7053 78.9316C74.5144 79.2403 74.2264 79.4769 73.8865 79.6042C73.653 79.7207 73.3956 79.7814 73.1347 79.7814C72.8737 79.7814 72.6163 79.7207 72.3829 79.6042C72.0511 79.4698 71.7693 79.2356 71.5763 78.9341C71.3834 78.6326 71.2888 78.2786 71.3057 77.9211V76.9785C71.2848 76.7771 71.2848 76.5741 71.3057 76.3726V75.7891C71.3561 75.6278 71.3937 75.4627 71.4179 75.2954C71.4179 75.1159 71.4179 74.9139 71.5974 74.6895C71.6903 74.5735 71.6871 74.4754 71.6841 74.383C71.6813 74.2966 71.6787 74.2152 71.7545 74.1285C71.8261 73.9474 71.8787 73.7594 71.9116 73.5675L72.1136 72.9167C72.1136 72.7619 72.1927 72.5807 72.27 72.4035C72.2936 72.3495 72.317 72.2959 72.338 72.2434C72.3994 72 72.4743 71.7603 72.5624 71.5253C72.5624 71.3768 72.6351 71.2163 72.7093 71.0525C72.7361 70.9934 72.763 70.934 72.7868 70.8745C72.86 70.6917 72.9182 70.4939 72.9737 70.3056C72.9863 70.2627 72.9988 70.2204 73.0112 70.1788C73.0786 69.9544 73.1683 69.7075 73.2581 69.4607C73.3275 69.2699 73.3834 69.0791 73.4364 68.8987L73.437 68.8964C73.4524 68.8441 73.4674 68.7928 73.4825 68.7426C73.5062 68.6635 73.5328 68.5788 73.5601 68.4914C73.6103 68.3311 73.6633 68.1618 73.7069 68.002L73.9762 67.2166C74.0523 67.0121 74.1123 66.802 74.1558 66.5882C74.1558 66.3913 74.2397 66.1944 74.32 66.0062C74.3495 65.9371 74.3785 65.8691 74.4026 65.8027L74.6046 65.1519C74.6777 64.9465 74.7377 64.7366 74.7841 64.5236C74.7841 64.3855 74.8351 64.256 74.8847 64.1297L74.8848 64.1295C74.9158 64.0506 74.9464 63.9729 74.9636 63.8952C75.0368 63.6898 75.0967 63.4799 75.1432 63.2669C75.1432 63.1484 75.192 63.0202 75.2446 62.8822L75.2447 62.882C75.2717 62.8109 75.2998 62.7372 75.3227 62.661L75.5022 62.0775L75.6593 61.6287C75.6593 61.4716 75.6593 61.3145 75.8164 61.1574C75.826 61.0454 75.826 60.9328 75.8164 60.8208C75.8428 60.7335 75.8727 60.6474 75.9058 60.5625L75.6151 60.5066C75.4112 60.4202 75.2159 60.315 75.0316 60.1924C74.864 60.0872 74.7062 59.967 74.5603 59.8333L74.1339 59.4294C73.9795 59.2521 73.837 59.0647 73.7076 58.8684C73.6064 58.7259 73.5163 58.5759 73.4383 58.4195C73.3454 58.2717 73.2701 58.1135 73.2138 57.9483C73.1256 57.7823 73.0506 57.6098 72.9894 57.4321C72.9163 57.2191 72.8564 57.0017 72.8099 56.7813C72.7769 56.5356 72.7769 56.2865 72.8099 56.0407V55.6368V55.2329V54.7167C72.7991 54.5299 72.7991 54.3425 72.8099 54.1557C72.8531 53.9783 72.9132 53.8054 72.9894 53.6395C72.9894 53.5602 73.0283 53.4809 73.0695 53.3971C73.0982 53.3385 73.1281 53.2777 73.1465 53.2131L73.4158 52.7643C73.4158 52.675 73.4849 52.5956 73.551 52.5195C73.5847 52.4809 73.6175 52.4431 73.6402 52.4052L73.9769 51.9789L74.2461 51.6871L74.5828 51.3505L74.8969 51.1036L75.1438 50.9017L75.458 50.6773C75.4565 50.5265 75.4716 50.376 75.5029 50.2284ZM79.2035 57.6128C79.1517 57.6107 79.0999 57.6103 79.048 57.6117H78.8011C78.6147 57.5897 78.4265 57.5897 78.2401 57.6117C78.1378 57.6332 78.0377 57.6632 77.9407 57.7014H77.5675H77.4104L77.1186 57.5892H76.984C76.9393 57.5953 76.894 57.5953 76.8493 57.5892L76.6249 57.3872L76.5127 57.2526L76.3556 56.9833C76.32 56.8892 76.2749 56.7989 76.221 56.714L76.0863 56.3998C76.0738 56.3255 76.0738 56.2497 76.0863 56.1754C76.0771 56.1234 76.0771 56.0703 76.0863 56.0183V55.3451C76.0764 55.2181 76.0764 55.0905 76.0863 54.9636C76.0752 54.8817 76.0752 54.7986 76.0863 54.7167V54.6045V54.4923C76.0901 54.4175 76.0901 54.3426 76.0863 54.2679V54.1108C76.1252 54.0207 76.1782 53.9373 76.2434 53.8639V53.7293L76.4454 53.5273L76.6025 53.3478L76.8045 53.1907L77.0064 53.0336H77.1411H78.0612H78.1061C78.3292 53.0572 78.5545 53.0183 78.7569 52.9214L78.9813 53.1907L79.1832 53.46C79.2575 53.5922 79.34 53.7196 79.4301 53.8415C79.4749 53.9284 79.5275 54.011 79.5872 54.0883L79.7667 54.4698C79.9238 54.5821 79.9238 54.784 79.9238 54.784L80.0584 55.1431V55.5246C80.0683 55.6366 80.0683 55.7492 80.0584 55.8612V56.2652C80.0488 56.3246 80.0488 56.3852 80.0584 56.4447V56.714L79.9014 56.9608V57.0955L79.7443 57.2526L79.5199 57.4321L79.2954 57.5668L79.2035 57.6128ZM76.2204 74.6895V74.4427C76.2038 74.1612 76.1107 73.8896 75.9511 73.6572V73.3206L76.153 72.6922C76.1655 72.6506 76.178 72.6082 76.1907 72.5653L76.1907 72.5652C76.2461 72.3769 76.3044 72.1793 76.3774 71.9966C76.4506 71.8137 76.5088 71.616 76.5643 71.4276C76.5769 71.3848 76.5894 71.3424 76.6019 71.3009C76.6509 71.1374 76.7118 70.974 76.776 70.8018C76.7999 70.7376 76.8243 70.6722 76.8487 70.6052C76.8935 70.4819 76.9328 70.353 76.972 70.2241L76.972 70.224L76.9721 70.2239L76.9721 70.2238L76.9722 70.2236C77.0114 70.0946 77.0507 69.9656 77.0956 69.8422C77.1197 69.7758 77.1487 69.7079 77.1782 69.6387C77.2584 69.4506 77.3424 69.2537 77.3424 69.0567L77.5444 68.3835L77.8137 67.5756C77.9483 67.3213 78.0157 67.0969 78.0157 66.9024L78.2176 66.2291C78.2412 66.1507 78.2757 66.0722 78.3106 65.9928C78.3756 65.845 78.4421 65.694 78.4421 65.5335C78.4855 65.3123 78.5455 65.0948 78.6216 64.8827C78.6634 64.6855 78.7159 64.4907 78.7787 64.2992C78.9582 64.0972 78.9582 63.8952 78.9582 63.6708L79.1153 63.1996L79.2499 62.7507L79.3846 62.3917C79.4014 62.3328 79.4277 62.2738 79.454 62.2149C79.4978 62.1168 79.5417 62.0186 79.5417 61.9204C79.534 61.8683 79.534 61.8154 79.5417 61.7633V61.4716L79.6763 61.1798L79.8783 61.4042L80.0129 61.5613L80.17 61.8082L80.3496 62.0775C80.357 62.1446 80.357 62.2123 80.3496 62.2795L80.6637 62.7058L80.7984 63.02L80.9555 63.4015C80.968 63.4758 80.968 63.5517 80.9555 63.6259C81.0901 63.7381 81.0901 63.8952 81.0901 64.0299C81.1028 64.1342 81.1028 64.2397 81.0901 64.3441L81.2248 64.748V65.0846C81.2637 65.2678 81.3162 65.4478 81.3819 65.6232V65.8925V66.3638V66.8126V67.3063V67.7327C81.3683 67.8745 81.3683 68.0173 81.3819 68.1591V68.5182V68.9445V69.3934V69.73V70.8296V71.054C81.3878 71.1362 81.3878 71.2187 81.3819 71.3009C81.3916 71.3979 81.3916 71.4956 81.3819 71.5926V71.7721C81.3859 71.8319 81.3859 71.8919 81.3819 71.9517L81.2248 72.221C81.2364 72.2727 81.2364 72.3263 81.2248 72.3781L81.0901 72.58L80.9555 72.7371L80.776 72.9391L80.5964 73.1186L80.4393 73.2533L80.2374 73.4104L79.9905 73.5899L79.811 73.7021L79.4295 73.9265L79.1602 74.0612L78.8236 74.1958L78.4196 74.3529L78.083 74.4651L77.679 74.5773L77.2527 74.6895H76.9834H76.5345H76.2204ZM91.3424 57.9406C91.2788 58.1077 91.2491 58.2858 91.2551 58.4645C91.2637 58.7101 91.3393 58.9487 91.4738 59.1544C91.6083 59.3601 91.7966 59.5251 92.0181 59.6314H91.1878C90.947 59.6591 90.7162 59.7437 90.5145 59.8783C90.3662 59.955 90.23 60.0533 90.1106 60.17L89.8638 60.4393L89.8475 60.4552L89.8354 60.4666C89.8238 60.4775 89.8114 60.4888 89.7986 60.5005C89.7071 60.5841 89.5945 60.6871 89.5945 60.7759L89.3925 61.1574L89.2578 61.4716C89.178 61.6439 89.1178 61.8245 89.0783 62.0102C89.0704 62.1373 89.0704 62.2647 89.0783 62.3917C89.0672 62.586 89.0672 62.7809 89.0783 62.9752C89.0887 63.0872 89.0887 63.1998 89.0783 63.3118V63.6709C89.0442 63.9015 89.0442 64.1359 89.0783 64.3666C89.1284 64.5872 89.2117 64.7991 89.3252 64.9949C89.4066 65.2041 89.5041 65.4067 89.6169 65.6008C89.7486 65.7877 89.899 65.9606 90.0657 66.117L90.2988 66.309L90.2226 66.4087V66.5434L89.9981 66.9249L89.7962 67.3064L89.6615 67.6205C89.6099 67.7528 89.565 67.8877 89.5269 68.0245L89.3922 68.4733C89.3865 68.5779 89.3865 68.6828 89.3922 68.7875C89.3191 69.0005 89.2592 69.2179 89.2127 69.4383C89.2204 69.5878 89.2204 69.7376 89.2127 69.8871L89.078 70.5155C89.078 70.5642 89.0889 70.6173 89.1004 70.674C89.1261 70.8001 89.1554 70.9442 89.078 71.0989C88.9658 71.3233 88.9658 71.5702 88.9658 71.7946C88.9767 71.9965 88.9767 72.1987 88.9658 72.4005V73.0289V73.6797V74.2632C88.9535 74.5024 88.9535 74.7421 88.9658 74.9813V75.5872V76.1707C88.9556 76.3725 88.9556 76.5748 88.9658 76.7766V77.2703V77.8089C88.9546 78.0182 88.9546 78.228 88.9658 78.4373C88.9424 78.6235 88.9424 78.812 88.9658 78.9983V81.6913C88.9686 82.0931 89.0938 82.4845 89.3249 82.8133C89.5526 83.0477 89.8437 83.2106 90.1625 83.2824C90.4813 83.3541 90.814 83.3315 91.1202 83.2173C91.3849 83.3499 91.6769 83.419 91.973 83.4192H92.6462H93.0053H93.2297H93.5439H93.9478L94.3967 83.2621L94.7557 83.1275L95.1597 82.948L94.4415 82.9031L94.8679 82.7011L95.3841 82.4543L95.788 82.2074L96.2593 81.9381L96.6183 81.7361C96.7991 81.6295 96.9716 81.5094 97.1345 81.3771L97.4487 81.1302L97.8526 80.7936L98.1668 80.5243L98.5259 80.1428L98.8625 79.7164L99.1093 79.3349C99.1295 79.3013 99.1598 79.2656 99.1923 79.2274C99.2682 79.138 99.3562 79.0342 99.3562 78.9085L99.5806 78.4148C99.658 78.265 99.7182 78.1069 99.7601 77.9436C99.8301 77.7599 99.8901 77.5726 99.9397 77.3825C99.9523 77.1882 99.9523 76.9933 99.9397 76.799V76.1707V75.2506V74.7569V74.2183V73.6124C99.9397 73.5329 99.9566 73.4618 99.9724 73.3952C100.001 73.2738 100.027 73.1673 99.9397 73.0513C99.875 72.9652 99.8776 72.8738 99.8804 72.7749C99.8834 72.6676 99.8867 72.5514 99.805 72.423C99.698 72.2548 99.6847 72.097 99.6729 71.9567C99.6674 71.8911 99.6622 71.8294 99.6479 71.7722C99.6171 71.6488 99.5756 71.5148 99.5309 71.3702L99.5305 71.369L99.5304 71.3686L99.5302 71.368C99.51 71.3029 99.4892 71.2357 99.4684 71.1663C99.4011 70.9418 99.3113 70.695 99.244 70.5155C99.2216 70.4558 99.1894 70.3937 99.1562 70.33L99.1562 70.3299C99.0896 70.2017 99.0196 70.0669 99.0196 69.932C98.9625 69.7456 98.8874 69.5652 98.7952 69.3934C98.7222 69.2097 98.6398 69.03 98.5483 68.8548C98.5196 68.7974 98.484 68.74 98.4489 68.6833C98.3741 68.5627 98.3015 68.4455 98.3015 68.3387L98.0097 67.8449C97.9199 67.7103 97.7629 67.4634 97.7629 67.4634C97.6716 67.2855 97.5586 67.1196 97.4262 66.9697L97.1569 66.6107L96.9878 66.4039C97.0473 66.3332 97.1038 66.2599 97.1572 66.1843L97.4714 65.7579C97.5445 65.6374 97.6047 65.5096 97.6509 65.3764C97.7348 65.2238 97.8097 65.0665 97.8753 64.9051L98.01 64.4788C98.0581 64.3092 98.0955 64.1368 98.1222 63.9626C98.1342 63.7908 98.1342 63.6183 98.1222 63.4465C98.1103 63.3196 98.1103 63.1918 98.1222 63.065V62.3019C98.1441 62.0781 98.1441 61.8526 98.1222 61.6287C97.9875 61.4492 97.9875 61.2697 97.9875 61.135C97.9374 60.9671 97.8774 60.8022 97.808 60.6413C97.7342 60.5211 97.674 60.3932 97.6285 60.2598L97.3592 59.7436C97.2726 59.5945 97.175 59.452 97.0674 59.3173L96.7757 58.9133L96.3942 58.5318L96.0576 58.2625C95.9899 57.9908 95.876 57.7327 95.7209 57.4995L95.2721 57.2527L94.8457 57.0731H94.5091H94.2623H93.8583H93.589H93.2524H92.5792C92.4004 57.076 92.224 57.1145 92.0602 57.1862C91.8965 57.258 91.7487 57.3617 91.6254 57.4912C91.5022 57.6207 91.406 57.7735 91.3424 57.9406ZM92.938 80.3223V80.053C93.2432 79.8684 93.4776 79.5868 93.6037 79.2531C93.7299 78.9195 93.7404 78.5532 93.6336 78.2128C93.6445 78.0859 93.6445 77.9583 93.6336 77.8313V77.3601V76.7542V76.1931V75.5872V74.9589V74.3305V73.747V73.1635C93.6212 72.9543 93.6212 72.7445 93.6336 72.5352V71.9517V71.3682V70.7848V70.3808C93.6965 70.1817 93.7489 69.9795 93.7907 69.7749V69.4832C93.9478 69.3261 93.9478 69.1465 93.9478 69.0119V68.7426C93.9538 68.6604 93.9538 68.5779 93.9478 68.4957C93.9526 68.4285 93.9526 68.361 93.9478 68.2938V68.1816L94.0825 67.9796H94.262H95.2943L95.4963 68.1367L95.6309 68.2489C95.7093 68.3629 95.7996 68.4682 95.9002 68.5631L96.0573 68.7875V68.9895L96.3491 69.4832C96.4173 69.5829 96.4773 69.688 96.5286 69.7973L96.7306 70.1788C96.7997 70.3092 96.8597 70.4441 96.9101 70.5828L97.1121 71.0316C97.1618 71.207 97.2218 71.3794 97.2916 71.5478C97.3036 71.5899 97.3124 71.6337 97.3215 71.6787C97.3462 71.8012 97.3726 71.9326 97.4711 72.0639C97.6058 72.2434 97.6058 72.423 97.6058 72.5576L97.7404 73.0289V73.5226V73.9939C97.7503 74.1358 97.7503 74.2783 97.7404 74.4203C97.7526 74.5621 97.7526 74.7048 97.7404 74.8466V75.3179C97.7293 75.4523 97.7293 75.5874 97.7404 75.7219V76.1258C97.7501 76.1853 97.7501 76.2459 97.7404 76.3053C97.7551 76.387 97.7551 76.4706 97.7404 76.5522C97.758 76.6335 97.758 76.7177 97.7404 76.799C97.7469 76.8887 97.7469 76.9787 97.7404 77.0683V77.2703C97.7013 77.3556 97.6563 77.4381 97.6058 77.5172L97.4711 77.7416L97.314 77.9211C97.2675 77.979 97.2148 78.0316 97.1569 78.0782C97.0858 78.1644 97.0027 78.24 96.9101 78.3026C96.8478 78.3679 96.7803 78.428 96.7081 78.4821L96.3939 78.729L96.192 78.8636L95.7431 79.1329L95.4065 79.3349L95.025 79.5369L94.7108 79.694L94.3069 79.8959L93.9927 80.0306L93.6112 80.1877L93.2746 80.3223H93.0726H92.938ZM87.4177 50.8119V50.5875C87.5453 50.6411 87.6846 50.661 87.8221 50.6453C87.9597 50.6296 88.0909 50.5788 88.2031 50.4978V50.2958V49.9143V49.5777V49.1288C88.2159 49.002 88.2159 48.8742 88.2031 48.7473C88.2483 48.6074 88.2857 48.465 88.3153 48.3209V47.8721L88.45 47.4233L88.5846 46.9296L88.7193 46.4808L88.8539 45.987C88.8732 45.9358 88.8961 45.8845 88.919 45.8332C88.9762 45.7049 89.0335 45.5767 89.0335 45.4485C89.0206 45.3216 89.0206 45.1938 89.0335 45.067L89.1681 44.6855C89.2414 44.5184 89.3014 44.3458 89.3476 44.1693C89.4049 44.0546 89.45 43.9343 89.4823 43.8102L89.6169 43.4961L89.7516 43.1594C89.7751 43.0645 89.813 42.9737 89.8638 42.8901V42.7331L90.0209 42.4413C90.0716 42.3739 90.1096 42.2979 90.1331 42.2169H90.2902H90.4248H91.5918H91.7713H91.9733L92.1528 42.3291H92.265L92.4894 42.5535L93.0953 42.8228L93.2749 43.0472C93.3443 43.1139 93.4046 43.1893 93.4544 43.2716L93.6115 43.4736L93.791 43.8102C93.9481 43.9 93.9481 44.0795 93.9481 44.0795L94.0828 44.3488L94.2398 44.7528C94.3017 44.8758 94.3542 45.0033 94.3969 45.1343V45.426C94.4272 45.5478 94.4647 45.6677 94.5091 45.7851V46.189C94.5018 46.2936 94.5018 46.3986 94.5091 46.5032V46.8623C94.499 46.9742 94.499 47.0869 94.5091 47.1989C94.4983 47.2883 94.4983 47.3787 94.5091 47.4682V47.8048V48.0965C94.4955 48.2083 94.4955 48.3214 94.5091 48.4332V49.4655V49.6225C94.4764 49.704 94.431 49.7797 94.3745 49.847C94.328 49.9518 94.2676 50.0499 94.195 50.1387L93.993 50.3631L93.7013 50.6324L93.5442 50.7895L93.23 50.9915L92.9831 51.1261L92.6465 51.2608H92.3548H92.063H91.6366H91.2776H90.941H88.6968H88.4275H88.1358H87.8665H87.7319C87.6459 51.0989 87.5403 50.9482 87.4177 50.8119ZM57.2667 59.8412C57.237 59.9039 57.2114 59.9687 57.1902 60.0353C57.1825 60.1323 57.1825 60.2299 57.1902 60.327C57.19 60.1606 57.2163 59.9968 57.2667 59.8412ZM60.893 59.4518C60.8077 59.2025 60.6611 58.9787 60.4666 58.801L62.0375 58.5317V58.0829C62.0486 57.911 62.0486 57.7386 62.0375 57.5667V57.1179V56.5793V55.9734C62.0479 55.7865 62.0479 55.5992 62.0375 55.4123V54.8513C62.0256 54.642 62.0256 54.4322 62.0375 54.2229C62.0256 54.0137 62.0256 53.8039 62.0375 53.5946V52.9213V52.2032V51.5075C62.0266 51.2907 62.0266 51.0735 62.0375 50.8567V50.1611C62.0266 49.9592 62.0266 49.757 62.0375 49.5551C62.0267 49.3608 62.0267 49.166 62.0375 48.9717V48.4106V47.8945V47.3783C62.0218 47.2667 62.0218 47.1534 62.0375 47.0417V46.6602V46.3236V46.1216V45.9421V45.6952V45.5381L62.1721 45.3586L62.2844 45.2015V45.0893H62.3966H63.8328L64.1021 45.2015H64.2368L64.4836 45.3811L64.6183 45.4933L64.8427 45.6728L64.9998 45.8748L65.1344 46.0543C65.1632 46.1261 65.2009 46.1939 65.2466 46.2563L65.3813 46.4807V46.6826L65.5159 47.0417L66.5033 47.4681V47.7823L66.638 48.1862C66.6325 48.2984 66.6325 48.4107 66.638 48.5228C66.6696 48.7054 66.7146 48.8855 66.7726 49.0614V49.4429C66.8848 49.6225 66.8848 49.802 66.8848 49.9815V50.5201C66.8975 50.6769 66.8975 50.8346 66.8848 50.9914C66.8722 51.1857 66.8722 51.3806 66.8848 51.5749C66.8959 51.7318 66.8959 51.8892 66.8848 52.0461V52.652V53.1458V53.6619C66.8939 53.8264 66.8939 53.9912 66.8848 54.1556C66.8737 54.3425 66.8737 54.5298 66.8848 54.7167V55.1206V55.547V56.0182C66.828 56.1174 66.7828 56.2229 66.7502 56.3324V58.5541C66.7405 58.6136 66.7405 58.6742 66.7502 58.7337V58.9132V59.2049C66.7397 59.2492 66.7397 59.2953 66.7502 59.3396V59.4518H66.5931H66.3911H66.1443H65.8301H63.4064H63.182H62.7556H62.4863H62.0824H61.858H61.5214H61.3194H61.1399H60.893Z" clip-rule="evenodd"/>
</svg>
