<svg xmlns="http://www.w3.org/2000/svg" viewBox="0 0 100 100" fill="currentColor" focusable="false" role="img">
  <path fill-rule="evenodd" d="M99.683 52.8003C99.2644 52.0657 98.4232 51.5405 97.5819 51.5405H93.5891V50.4899C93.5891 26.5367 74.0513 7 50.0991 7C48.2073 7 46.7383 8.5758 46.7383 10.3609C46.7383 12.1459 48.3141 13.7217 50.0991 13.7217C70.2683 13.7217 86.7606 30.214 86.7606 50.3832V51.4337H82.7677C81.9265 51.4337 81.0852 51.959 80.6667 52.6935C80.2481 53.4281 80.2481 54.3761 80.7734 55.1106L88.2338 66.6664C88.6524 67.401 89.3911 67.8237 90.2282 67.8237C91.0694 67.8237 91.804 67.4051 92.2225 66.6664L99.683 55.1106C100.106 54.4827 100.106 53.5348 99.683 52.8003ZM50.099 87.1517C29.9298 87.1517 13.4375 70.6594 13.4375 50.4902V49.4397H17.4304C18.2716 49.4397 19.1129 48.9144 19.5314 48.1799C19.95 47.4453 19.95 46.4974 19.4247 45.7628L11.9643 34.207C11.123 32.8404 8.81268 32.8404 7.86888 34.207L0.408419 45.7628C-0.116847 46.4974 -0.116847 47.4454 0.301727 48.1799C0.933685 48.9144 1.77489 49.4397 2.61615 49.4397H6.60902V50.4902C6.60902 74.4434 26.151 93.9801 50.0989 93.9801C51.9907 93.9801 53.4598 92.4044 53.4598 90.6193C53.4598 88.8342 51.9907 87.1517 50.099 87.1517ZM66.2755 45.447L72.1601 46.079C73.104 46.1816 73.8426 47.0229 73.8385 47.9708V53.0142C73.8385 54.0648 73.0998 54.7993 72.156 54.906L66.2713 55.538C66.0621 55.6405 65.9595 55.7472 65.8528 55.9565C65.6474 56.5768 65.3392 57.193 65.0291 57.8131L65.0115 57.8483C64.9089 58.0617 65.0115 58.271 65.1182 58.4803L68.9018 63.1009C69.5297 63.8355 69.4271 64.9886 68.7951 65.6205L65.225 69.1907C64.4905 69.8226 63.4399 69.9293 62.7054 69.2974L58.0847 65.5138C57.8713 65.3004 57.6621 65.3004 57.4528 65.4071L57.4172 65.4249C56.7972 65.7349 56.1811 66.043 55.561 66.2483C55.3517 66.2483 55.1424 66.4576 55.1424 66.6669L54.5104 72.5516C54.4037 73.4995 53.5625 74.2341 52.6186 74.2341H47.5753C46.5247 74.2341 45.7901 73.4954 45.6835 72.5516L45.0515 66.6669C44.9489 66.4576 44.8422 66.355 44.6329 66.2483C44.0127 66.0429 43.3964 65.7348 42.7763 65.4247L42.7411 65.4071C42.5277 65.3045 42.3185 65.4071 42.1092 65.5138L37.4885 69.2974C36.754 69.9252 35.6009 69.8226 34.9689 69.1907L31.3988 65.6205C30.7668 64.886 30.6601 63.8355 31.2921 63.1009L35.0757 58.4803C35.2891 58.2669 35.2891 58.0576 35.1824 57.8483L35.1646 57.8128C34.8546 57.1928 34.5465 56.5767 34.3411 55.9565C34.3411 55.7472 34.1318 55.538 33.9226 55.538L28.0379 54.906C27.0899 54.7993 26.3554 53.958 26.3554 53.0142V47.9708C26.3554 46.9202 27.0941 46.1857 28.0379 46.079L33.9226 45.4429C34.1318 45.3403 34.2344 45.2337 34.3411 45.0244C34.5465 44.4041 34.8547 43.7878 35.1648 43.1677L35.1824 43.1326C35.285 42.9192 35.1824 42.7099 35.0757 42.5006L31.2921 37.8799C30.6642 37.1454 30.7668 35.9923 31.3988 35.3603L34.9689 31.7902C35.7034 31.1583 36.754 31.0516 37.4885 31.6835L42.1092 35.4671C42.3226 35.6805 42.5318 35.6805 42.7411 35.5738L42.7767 35.556C43.3967 35.246 44.0128 34.9379 44.6329 34.7326C44.8422 34.7326 45.0515 34.5233 45.0515 34.314L45.6835 28.4293C45.7902 27.4814 46.6314 26.7468 47.5753 26.7468H52.6186C53.6692 26.7468 54.4038 27.4855 54.5104 28.4293L55.1465 34.3181C55.2491 34.5274 55.3558 34.63 55.5651 34.7367C56.1854 34.9421 56.8016 35.2502 57.4217 35.5603L57.4569 35.5779C57.6703 35.6805 57.8796 35.5779 58.0888 35.4712L62.7095 31.6876C63.444 31.0598 64.5971 31.1624 65.2291 31.7943L68.7992 35.3644C69.4312 36.099 69.5379 37.1495 68.9059 37.884L65.1223 42.5047C64.9089 42.7181 64.9089 42.9274 65.0156 43.1367L65.0334 43.1722C65.3434 43.7922 65.6515 44.4084 65.8569 45.0285C65.8569 45.2377 66.0662 45.447 66.2755 45.447ZM40.9601 50.49C40.9601 55.5334 45.0555 59.6288 50.0989 59.6288C55.1423 59.6288 59.2377 55.5334 59.2377 50.49C59.2377 45.4466 55.1423 41.3512 50.0989 41.3512C45.0555 41.3512 40.9601 45.4466 40.9601 50.49Z" clip-rule="evenodd"/>
</svg>
