<svg xmlns="http://www.w3.org/2000/svg" viewBox="0 0 100 100" fill="currentColor" focusable="false" role="img">
  <path d="M12.5 65C8.364 65 5 68.364 5 72.5C5 76.636 8.364 80 12.5 80C16.636 80 20 76.636 20 72.5C20 68.364 16.636 65 12.5 65ZM12.5 75C11.121 75 10 73.879 10 72.5C10 71.121 11.121 70 12.5 70C13.879 70 15 71.121 15 72.5C15 73.879 13.879 75 12.5 75Z"/>
  <path d="M50 25C69.299 25 85 40.701 85 60H90C90 37.944 72.056 20 50 20C27.944 20 10 37.944 10 60H15C15 40.701 30.701 25 50 25Z"/>
  <path d="M86.2499 71.465L83.0179 68.2321L79.4819 71.7681L86.2499 78.5351L95.5179 69.2681L91.9819 65.7321L86.2499 71.465Z"/>
  <path d="M53.5352 65.4301L50.0002 68.965L46.4652 65.4301L42.9302 68.965L46.4652 72.5001L42.9302 76.0351L46.4652 79.5701L50.0002 76.0351L53.5352 79.5701L57.0702 76.0351L53.5352 72.5001L57.0702 68.965L53.5352 65.4301Z"/>
  <path d="M27.5 75.016C28.8807 75.016 30 73.8967 30 72.516C30 71.1353 28.8807 70.016 27.5 70.016C26.1193 70.016 25 71.1353 25 72.516C25 73.8967 26.1193 75.016 27.5 75.016Z"/>
  <path d="M37.5 75C38.8807 75 40 73.8807 40 72.5C40 71.1193 38.8807 70 37.5 70C36.1193 70 35 71.1193 35 72.5C35 73.8807 36.1193 75 37.5 75Z"/>
  <path d="M62.5 75C63.8807 75 65 73.8807 65 72.5C65 71.1193 63.8807 70 62.5 70C61.1193 70 60 71.1193 60 72.5C60 73.8807 61.1193 75 62.5 75Z"/>
  <path d="M72.5 75C73.8807 75 75 73.8807 75 72.5C75 71.1193 73.8807 70 72.5 70C71.1193 70 70 71.1193 70 72.5C70 73.8807 71.1193 75 72.5 75Z"/>
</svg>
