<svg xmlns="http://www.w3.org/2000/svg" focusable="false" role="img" viewBox="0 0 100 100" fill="currentColor">
  <path fill-rule="evenodd" d="M69.6042 51.7917C70.1483 51.2549 70.6053 50.6363 70.9583 49.9584C72.1933 47.7083 72.9054 45.2089 73.0417 42.6459C73.1715 41.3386 73.0234 40.0186 72.6069 38.7727C72.1903 37.5268 71.5149 36.3831 70.625 35.4167C68.9375 33.6042 67.0417 31.9792 65.2292 30.2917C64.8155 29.9436 64.369 29.6366 63.8958 29.375C61.4752 27.9645 58.7709 27.1105 55.9792 26.875C52.6042 26.5834 49.2083 26.5209 45.8333 26.4584C43.0293 26.385 40.2368 26.8446 37.6042 27.8125C35.447 28.5242 33.5767 29.9123 32.2708 31.7709C31.75 32.5625 31.25 33.375 30.6667 34.1042C29.8984 35.1161 29.4228 36.3196 29.2917 37.5834C29.0584 39.5562 29.1926 41.5552 29.6875 43.4792C29.8184 44.1678 29.9088 44.8634 29.9583 45.5625C30.0508 46.8594 30.2388 48.1476 30.5208 49.4167C31.5214 52.4322 33.4548 55.0514 36.0417 56.8959C37.4306 57.9375 38.8194 58.9584 40.2083 59.9584C40.4547 60.1252 40.6483 60.3589 40.7664 60.632C40.8845 60.9051 40.9222 61.2063 40.875 61.5C40.6875 63.2917 40.5625 65.0834 40.25 66.8542C40.1042 67.8542 39.9792 68.7084 40.9375 69.4375C40.48 69.4766 40.02 69.4766 39.5625 69.4375C38.7161 69.3854 37.8673 69.3854 37.0208 69.4375C35.9375 69.5625 35.625 70.3542 36.2083 71.2917C36.375 71.5417 36.6667 71.8125 36.6875 72.0834C36.6875 72.9792 37.4583 73.2917 38.0833 73.5834C38.6632 73.8322 39.2858 73.9666 39.9167 73.9792C42.875 74.2709 45.8333 74.5625 48.7917 74.75C52.2292 74.9584 55.6458 75.0625 59.0625 75.2084C60.7708 75.2084 61.1458 74.8125 60.8333 73.125C61.25 72.625 61.9583 72.0209 61.375 71.4167C60.4167 70.625 60.0625 68.9584 58.3333 68.9375C58.1793 68.1901 58.0956 67.4298 58.0833 66.6667C58.4829 63.2256 60.1459 60.0555 62.75 57.7709C63.7292 56.9167 64.8333 56.125 65.75 55.2709C67.0625 54.1667 68.375 53.0625 69.6042 51.875V51.7917ZM64.9375 45.1667C64.75 46.3334 64.3958 47.4584 64.1042 48.5834C63.9911 49.0704 63.7719 49.5265 63.4622 49.9191C63.1525 50.3116 62.7599 50.6309 62.3125 50.8542C60.8174 51.6436 59.471 52.6869 58.3333 53.9375C57.68 54.549 56.9838 55.113 56.25 55.625C55.8553 55.8911 55.5377 56.2566 55.3293 56.6845C55.1208 57.1124 55.0288 57.5877 55.0625 58.0625C55.0718 58.2869 55.0215 58.5098 54.9167 58.7084C54.0192 61.3945 53.5687 64.2097 53.5833 67.0417C53.5833 67.7292 53.5833 68.3959 53.5833 69.125L45.8333 69.625C45.8333 69.1459 45.8333 68.7292 45.8333 68.3125C45.8333 67.0209 45.8333 65.7084 45.8333 64.4167C45.715 62.7414 45.0737 61.1456 44 59.8542C43.203 58.8783 42.6272 57.741 42.3125 56.5209C41.7364 54.4148 40.4757 52.5604 38.7292 51.25C38.4045 50.9305 38.0485 50.6444 37.6667 50.3959C37.21 50.1408 36.8465 49.7467 36.6292 49.2708C36.4119 48.795 36.352 48.2622 36.4583 47.75C36.4699 44.0673 37.7751 40.5058 40.1458 37.6875C40.5687 37.2128 40.952 36.7041 41.2917 36.1667C41.5138 35.6876 41.7018 35.1933 41.8542 34.6875C43.3509 33.6964 45.0177 32.9901 46.7708 32.6042L53.1458 31.4375C54.8979 31.1304 56.702 31.4631 58.2292 32.375C60.0586 33.3293 61.639 34.6988 62.8438 36.3739C64.0485 38.0489 64.8441 39.9829 65.1667 42.0209C65.3331 43.0419 65.3331 44.0832 65.1667 45.1042L64.9375 45.1667ZM59.1042 79.6459C59.0273 79.7522 58.9577 79.8635 58.8958 79.9792C58.3333 81.375 58.2292 81.4584 56.8125 81.4167C55.3958 81.375 53.5 81.4167 51.8333 81.4167C48.5208 81.4167 45.1875 81.1667 41.875 81.0209C41.1875 81.0209 40.5208 81.0209 39.7917 81.0209C39.5257 80.9908 39.2658 80.9206 39.0208 80.8125C38.6387 80.6672 38.3214 80.3897 38.1264 80.0304C37.9315 79.6711 37.8718 79.2537 37.9583 78.8542C38.0833 78.2292 38.5625 77.875 39.5208 77.8334L50.5833 77.2709C52.1458 77.2709 53.7083 76.9375 55.2708 76.7709C56.3526 76.6388 57.4481 76.858 58.3958 77.3959C58.6107 77.4861 58.8022 77.6239 58.9562 77.7989C59.1101 77.9738 59.2223 78.1814 59.2845 78.4059C59.3467 78.6305 59.3571 78.8663 59.315 79.0955C59.273 79.3247 59.1795 79.5413 59.0417 79.7292L59.1042 79.6459ZM12.5 36.5625L11 35.0209C11.1875 34.4584 11.375 34.0625 11.4792 33.625C11.7083 32.7292 11.9167 32.4792 12.8333 32.5209C13.75 32.5625 14.7083 32.6875 15.6458 32.7709L21.8958 33.3959C22.9687 33.5677 23.9719 34.0369 24.7917 34.75C25.5833 35.3542 25.6667 35.875 25.0208 36.6667C24.902 36.8218 24.8181 37.0008 24.7749 37.1914C24.7318 37.382 24.7304 37.5797 24.7708 37.7709C24.7987 37.8952 24.7962 38.0243 24.7635 38.1474C24.7308 38.2705 24.6689 38.3839 24.583 38.478C24.4971 38.5721 24.3898 38.644 24.2702 38.6878C24.1506 38.7315 24.0221 38.7457 23.8958 38.7292C23.2708 38.7292 22.6458 38.7292 22.0208 38.7292L15.7708 38.9375H15.0833C13.25 38.9375 12.4792 38.1667 12.3958 36.5417L12.5 36.5625ZM32.625 62.0417C32.7588 62.1307 32.8641 62.2565 32.928 62.4039C32.992 62.5513 33.012 62.7141 32.9856 62.8726C32.9592 63.0312 32.8875 63.1787 32.7791 63.2974C32.6708 63.4161 32.5305 63.5009 32.375 63.5417C30.472 64.6303 28.4949 65.584 26.4583 66.3959C25.3117 66.904 24.2222 67.5325 23.2083 68.2709C22.3958 68.7292 21.5417 69.1042 20.6875 69.5417C20.118 69.324 19.5615 69.0736 19.0208 68.7917C18.8995 68.727 18.7927 68.638 18.7073 68.5302C18.6219 68.4224 18.5597 68.2981 18.5245 68.1651C18.4893 68.0322 18.4819 67.8934 18.5028 67.7574C18.5237 67.6215 18.5724 67.4913 18.6458 67.375C19.1697 66.254 19.8123 65.1924 20.5625 64.2084C21.9735 62.2568 24.1016 60.9455 26.4792 60.5625C26.9587 60.4561 27.4605 60.5225 27.8958 60.75C28.2246 60.9733 28.5988 61.1209 28.9915 61.1821C29.3842 61.2433 29.7855 61.2167 30.1667 61.1042C30.6203 61.068 31.0764 61.1333 31.5016 61.2955C31.9269 61.4577 32.3106 61.7126 32.625 62.0417V62.0417ZM21.4583 53.5834C19.9792 53.5834 18.5 53.7292 17.0417 53.8959C16.3579 54.0466 15.645 53.9948 14.9901 53.7469C14.3353 53.499 13.7668 53.0658 13.3542 52.5C13.1042 52.1459 12.6458 51.9375 12.3542 51.625C11.625 50.7709 11.8125 49.8125 12.875 49.5417C15.4375 48.875 18.0208 48.2917 20.5833 47.7084C21.0054 47.6174 21.4418 47.6148 21.8649 47.7009C22.288 47.7869 22.6887 47.9597 23.0417 48.2084L25.125 49.5625C25.3745 49.67 25.5814 49.8571 25.7133 50.0945C25.8452 50.332 25.8947 50.6064 25.8542 50.875C25.8542 51.5 25.2708 51.7292 24.6875 51.8125L23.7708 52C23.2083 53.5209 23.0208 53.5834 21.3958 53.5834H21.4583ZM20.8333 21.5834C20.7711 21.4153 20.7711 21.2306 20.8333 21.0625C20.8333 20.8542 20.9792 20.4584 21.0417 20.4792C22.3125 20.4792 22.0208 18.6459 23.2917 18.6042C23.9359 18.7745 24.5582 19.0192 25.1458 19.3334C27.9029 21.1958 30.4708 23.324 32.8125 25.6875C33.7292 26.6667 33.6458 27.0417 32.4167 27.6042C32.2917 27.6042 32.125 27.6042 32.0417 27.7917C30.9792 28.9584 29.8125 28.5834 28.6042 28.0417C26.4136 27.1865 24.4623 25.8141 22.9167 24.0417C22.5625 23.6042 22.0417 23.2709 21.6667 22.8334C21.3663 22.4451 21.108 22.0261 20.8958 21.5834H20.8333ZM57.8333 84.7917C58.7708 85.6875 58.6667 86.4375 57.4792 86.875C57.0183 87.0504 56.5338 87.1557 56.0417 87.1875C53.1782 87.4167 50.301 87.4167 47.4375 87.1875C46.4491 87.1216 45.4563 87.1706 44.4792 87.3334C42.811 87.2925 41.1846 86.8031 39.7708 85.9167C39.2083 85.6667 39.2083 85.0417 39.3542 84.4792C39.5 83.9167 39.9167 83.8334 40.3958 83.8334H46.0833L55 83.6042C55.5159 83.564 56.0345 83.6322 56.5225 83.8044C57.0105 83.9766 57.457 84.2491 57.8333 84.6042V84.7917ZM37 14.8959C36.9898 14.7224 36.9898 14.5485 37 14.3751C37 13.1667 37.3125 12.8959 38.4583 13.1876L38.9583 13.3751C39.2693 13.1821 39.6162 13.0541 39.978 12.999C40.3399 12.9438 40.7091 12.9625 41.0635 13.054C41.4179 13.1456 41.75 13.308 42.0399 13.5314C42.3298 13.7549 42.5713 14.0348 42.75 14.3542C43.4999 15.7075 43.9477 17.2072 44.0625 18.7501C44.2503 19.9091 44.3755 21.0775 44.4375 22.2501C44.4375 23.25 44.2917 23.4792 43.25 23.6459C42.2083 23.8125 40.6667 24.1459 39.7292 23.0417C39.1138 22.3272 38.6591 21.4889 38.3958 20.5834C37.8333 18.7292 37.4375 16.8334 36.9792 14.9584L37 14.8959ZM78.375 69.3125C78.0625 70.1042 77.1875 70.125 76.3958 70.1042H76.125V70.25L73.1667 69.4375C72.8958 69.4375 72.6667 69.1042 72.4167 69.125C70.9583 69.125 70.2292 68.25 69.3958 67.2292C68.3273 65.9696 67.1865 64.7731 65.9792 63.6459C65.767 63.4754 65.6103 63.2459 65.5287 62.9863C65.4471 62.7267 65.4444 62.4487 65.5208 62.1875C65.7292 61.5625 66.2917 61.4584 66.8333 61.4375C67.1957 61.408 67.5599 61.4652 67.8958 61.6042C69.9792 62.5834 72.2708 63.5 74.3333 64.6667C75.5214 65.4774 76.6304 66.3981 77.6458 67.4167C77.9525 67.6162 78.1908 67.9048 78.3286 68.2437C78.4664 68.5826 78.4971 68.9556 78.4167 69.3125H78.375ZM51.8542 20.6042C52.2292 19.1251 52.6042 17.6459 52.8958 16.1459C53.0833 15.3126 53.125 14.4584 53.2292 13.6042C53.3333 12.7501 53.625 12.4584 54.5417 12.5626H55.875C56.4391 12.6173 56.9741 12.8387 57.4119 13.1986C57.8498 13.5584 58.1705 14.0405 58.3333 14.5834C58.6088 15.628 58.6088 16.7262 58.3333 17.7709C57.9167 19.4584 57.625 21.1875 57.25 23.1459C56.9699 23.2969 56.6675 23.4024 56.3542 23.4584C55.0546 23.4871 53.7698 23.1784 52.625 22.5625C52.2726 22.3948 51.9981 22.0979 51.8585 21.7333C51.7189 21.3688 51.7248 20.9645 51.875 20.6042H51.8542ZM88.25 48.4792C87.8958 48.4792 87.4792 48.7292 87.1875 48.6042C85.1621 47.9298 83.0643 47.4962 80.9375 47.3125C79.7984 47.0531 78.6833 46.6977 77.6042 46.25C77.2953 46.1497 77.0387 45.9313 76.8904 45.6425C76.7421 45.3536 76.7141 45.0178 76.8125 44.7084C76.8683 44.4157 77.0321 44.1548 77.2714 43.9772C77.5107 43.7997 77.8079 43.7186 78.1042 43.75C78.4192 43.7561 78.733 43.791 79.0417 43.8542C78.9184 43.3287 78.8624 42.7897 78.875 42.25C78.8951 42.0777 78.9527 41.9119 79.0437 41.7642C79.1348 41.6165 79.2571 41.4905 79.4021 41.3952C79.5471 41.2999 79.7112 41.2375 79.8829 41.2124C80.0546 41.1873 80.2297 41.2002 80.3958 41.25C81.9583 41.4792 83.5 41.75 85.0625 42.0209C85.8333 42.1667 86.2708 42.6667 86.7292 43.9167L85.875 44.8542C86.2712 45.1931 86.6888 45.5062 87.125 45.7917C87.4375 45.9792 87.8542 45.9584 88.1458 46.1459C88.5199 46.3764 88.8284 46.6992 89.0417 47.0834C89.3542 47.8334 89.0417 48.25 88.3125 48.4792H88.25ZM73.8333 31.9584C73.7477 31.4499 73.8537 30.9278 74.1308 30.4929C74.4078 30.0581 74.8363 29.7414 75.3333 29.6042C77.1046 28.7362 78.9715 28.079 80.8958 27.6459L81.7083 27.5C82.3295 27.7579 82.8953 28.1328 83.375 28.6042C84.875 29.8334 84.75 30.6875 82.9792 31.5625C81.591 32.1391 80.3039 32.9339 79.1667 33.9167C78.9699 34.1024 78.7267 34.2314 78.4626 34.29C78.1985 34.3487 77.9235 34.3349 77.6667 34.25L75.3125 33.7292C74.3333 33.5209 74 33 73.9167 31.9584H73.8333ZM65.5 24.7917C65.0625 24.3125 65.125 23.6459 65.625 22.8334C66.3016 21.6159 67.2071 20.5407 68.2917 19.6667C68.7072 19.261 69.0969 18.8296 69.4583 18.3751C69.7333 18.1407 70.0338 17.938 70.3542 17.7709C71.6667 17.9167 72.7292 18.0417 73.3958 19.0834C73.5819 19.2806 73.6855 19.5414 73.6855 19.8126C73.6855 20.0837 73.5819 20.3445 73.3958 20.5417C71.8923 22.3941 70.1314 24.0217 68.1667 25.375C67.7157 25.5608 67.2187 25.6045 66.7421 25.5003C66.2656 25.3961 65.8323 25.1489 65.5 24.7917V24.7917ZM84.25 59.3542C83.8354 59.5054 83.3994 59.5898 82.9583 59.6042C80.5058 59.4373 78.1476 58.5935 76.1458 57.1667C75.0417 56.4584 74.9167 55.8542 75.3333 54.5209C75.3549 54.2644 75.3549 54.0065 75.3333 53.75C75.5 52.625 76.25 52.25 77.2917 52.7917C77.4605 52.8491 77.6113 52.9496 77.7292 53.0834C78.75 54.044 79.9451 54.8006 81.25 55.3125C82.316 55.9276 83.3329 56.6241 84.2917 57.3959C84.4731 57.5025 84.6236 57.6548 84.7281 57.8375C84.8326 58.0202 84.8876 58.227 84.8876 58.4375C84.8876 58.648 84.8326 58.8549 84.7281 59.0376C84.6236 59.2203 84.4731 59.3725 84.2917 59.4792L84.25 59.3542ZM60.6458 41.3542C60.8125 42 60.3958 42.3542 59.9375 42.6667C59.4279 42.9566 58.9404 43.2839 58.4792 43.6459C55.9379 45.7947 53.6583 48.2351 51.6875 50.9167C50.9792 51.8959 50.25 52.875 49.6042 53.8542C49.3498 54.203 49.0222 54.492 48.6443 54.7007C48.2664 54.9094 47.8474 55.0329 47.4167 55.0625C46.5417 55.1667 46.1667 54.7084 45.8125 53.8542C45.1042 52.1667 44.3125 50.5 43.4583 48.875C42.6042 47.25 42.75 46.9167 44.1667 46.0209L45.5 45.125L47.9167 48.2084C50.6494 46.3349 53.2271 44.2448 55.625 41.9584C56.2224 41.383 56.9314 40.9363 57.7083 40.6459C58.2946 40.4333 58.9211 40.3549 59.5417 40.4167C59.815 40.4239 60.0782 40.5221 60.2895 40.6956C60.5008 40.8692 60.6482 41.1083 60.7083 41.375L60.6458 41.3542Z" clip-rule="evenodd"/>
</svg>
