<svg xmlns="http://www.w3.org/2000/svg" viewBox="0 0 100 100" fill="currentColor" focusable="false" role="img">
  <path fill-rule="evenodd" d="M84.2845 14H16.4741C15.6593 14 15 14.663 15 15.4807V27.4884V84.5193C15 85.337 15.6593 86 16.4741 86H84.2845C85.0993 86 85.7586 85.337 85.7586 84.5193V27.4884V15.4807C85.7586 14.663 85.0993 14 84.2845 14ZM17.9483 16.9614H82.8103V26.0077H17.9483V16.9614ZM17.9483 83.0386V28.9692H82.8103V83.0386H17.9483ZM23.7724 20.2069H26.0897C26.8216 20.2069 27.4138 20.7627 27.4138 21.4483C27.4138 22.1338 26.8216 22.6897 26.0897 22.6897H23.7724C23.0405 22.6897 22.4483 22.1338 22.4483 21.4483C22.4483 20.7627 23.0405 20.2069 23.7724 20.2069ZM29.9793 20.2069H32.2966C33.0284 20.2069 33.6207 20.7627 33.6207 21.4483C33.6207 22.1338 33.0284 22.6897 32.2966 22.6897H29.9793C29.2474 22.6897 28.6552 22.1338 28.6552 21.4483C28.6552 20.7627 29.2474 20.2069 29.9793 20.2069ZM37.4276 20.2069H39.7448C40.4767 20.2069 41.069 20.7627 41.069 21.4483C41.069 22.1338 40.4767 22.6897 39.7448 22.6897H37.4276C36.6957 22.6897 36.1034 22.1338 36.1034 21.4483C36.1034 20.7627 36.6957 20.2069 37.4276 20.2069ZM75.5956 38.8276H25.163C24.3486 38.8276 23.6897 39.491 23.6897 40.3092V64.3558C23.6897 65.174 24.3486 65.8374 25.163 65.8374H30.6004V72.1046C30.6004 72.6805 30.9327 73.2042 31.4522 73.448C31.9716 73.6897 32.5845 73.6101 33.0219 73.2382L41.7744 65.8374H58.9857L67.7381 73.2382C68.0086 73.4676 68.3453 73.5862 68.6863 73.5862C68.8978 73.5862 69.1093 73.5406 69.3079 73.448C69.8273 73.2042 70.1597 72.6805 70.1597 72.1046V65.8374H75.5956C76.41 65.8374 77.069 65.174 77.069 64.3558V40.3092C77.069 39.491 76.41 38.8276 75.5956 38.8276ZM74.1222 62.8742H68.6863C67.8719 62.8742 67.213 63.5376 67.213 64.3558V68.9229L60.4706 63.2221C60.2044 62.9972 59.8691 62.8742 59.5224 62.8742H41.2377C40.8909 62.8742 40.5557 62.9972 40.2895 63.2221L33.5471 68.9229V64.3558C33.5471 63.5376 32.8881 62.8742 32.0737 62.8742H26.6364V41.7908H74.1222V62.8742ZM70.5932 47.5172H31.4068C30.572 47.5172 29.8966 46.9614 29.8966 46.2759C29.8966 45.5903 30.572 45.0345 31.4068 45.0345H70.5932C71.428 45.0345 72.1035 45.5903 72.1035 46.2759C72.1035 46.9614 71.428 47.5172 70.5932 47.5172ZM31.4068 52.4828H70.5932C71.428 52.4828 72.1035 51.9269 72.1035 51.2414C72.1035 50.5558 71.428 50 70.5932 50H31.4068C30.572 50 29.8966 50.5558 29.8966 51.2414C29.8966 51.9269 30.572 52.4828 31.4068 52.4828ZM51.9797 58.6897H31.3996C30.5688 58.6897 29.8966 58.1338 29.8966 57.4483C29.8966 56.7627 30.5688 56.2069 31.3996 56.2069H51.9797C52.8105 56.2069 53.4828 56.7627 53.4828 57.4483C53.4828 58.1338 52.8105 58.6897 51.9797 58.6897Z" clip-rule="evenodd"/>
</svg>
