<svg xmlns="http://www.w3.org/2000/svg" fill="none" viewBox="0 0 88 64"><path fill="#000" d="M24.424 20.907a3.3 3.3 0 1 1-5.488 3.666 3.3 3.3 0 0 1 5.488-3.666ZM33.527 19.996a3.3 3.3 0 1 1 3.666 5.487 3.3 3.3 0 0 1-3.666-5.487ZM28.57 29.94a9.209 9.209 0 0 0-7.85 4 1.86 1.86 0 1 0 3.12 2 5.62 5.62 0 0 1 4.74-2.28 5.46 5.46 0 0 1 4.73 2.28 1.86 1.86 0 1 0 3.12-2 9.21 9.21 0 0 0-7.86-4Z"/><path fill="#000" fill-rule="evenodd" d="M67.449 17.747a12.16 12.16 0 0 1 7.021-.737c4.89.95 10.56 5.43 10.54 14.93 0 10.44-11.39 18.41-22.07 25.08a1.82 1.82 0 0 1-.94.29 1.86 1.86 0 0 1-.95-.29c-5.15-3.22-10.47-6.7-14.59-10.7H5.76A5.76 5.76 0 0 1 0 40.56V5.76A5.76 5.76 0 0 1 5.76 0h45.5a5.76 5.76 0 0 1 5.76 5.76v12.19a12.63 12.63 0 0 1 5 4.31 12.16 12.16 0 0 1 5.429-4.513ZM47.59 5.22h-8.93a1.5 1.5 0 0 0 0 3h8.93a1.5 1.5 0 1 0 0-3Zm-25.879-.263A2 2 0 0 0 20.6 4.62a2.06 2.06 0 0 0-2 2 2 2 0 1 0 3.111-1.663Zm-6.06 0a2 2 0 0 0-1.111-.337 2.1 2.1 0 0 0-2 2 2 2 0 1 0 3.111-1.663Zm-6 0A2 2 0 0 0 8.54 4.62a2.06 2.06 0 0 0-2 2 2 2 0 1 0 3.111-1.663Zm-4.72 37.601c.264.108.545.163.829.162h37.41a17.39 17.39 0 0 1-4.18-10.78c0-9.5 5.66-13.98 10.56-14.93a12.15 12.15 0 0 1 3.91-.1v-3.47H3.6v27.12a2.15 2.15 0 0 0 1.332 1.998ZM42.53 31.94c0 8.97 12.15 16.93 19.47 21.54h.02c7.31-4.61 19.47-12.57 19.47-21.53 0-4.6-2.01-10.38-7.67-11.44-3.54-.65-8.08.94-10.15 6.19l-2.54 6.43 5.29 2.36a2.2 2.2 0 0 1 .95 1 1.75 1.75 0 0 1 0 1.35l-3.42 7.85a1.83 1.83 0 0 1-1.66 1.06 1.64 1.64 0 0 1-.7-.17 1.8 1.8 0 0 1-.89-2.36l2.72-6.2-5.31-2.24a1.81 1.81 0 0 1-.95-2.3l2.89-7.38a9.17 9.17 0 0 0-8.32-5.72 6.33 6.33 0 0 0-1.53.12c-5.67 1.12-7.67 6.84-7.67 11.44Z" clip-rule="evenodd"/></svg>