<svg xmlns="http://www.w3.org/2000/svg" fill="none" viewBox="0 0 64 64"><path fill="#000" d="M26.972 21.566c-.535-.238-1.022-.455-1.412-.706a2.06 2.06 0 0 1-1.05-1.91V5.74a1.83 1.83 0 0 1 1.89-1.76h17.22c.99 0 1.52.89 1.94 2.09.327.946.801 2.25 1.315 3.664 1.296 3.564 2.846 7.825 2.925 8.806a1.81 1.81 0 0 1-1.88 1.76h-9.3a1 1 0 0 0-1 1c.03 4.05.01 11.76-3.6 11.76-1.43 0-1.81-2.38-2-3.78-.37-2.52-1.08-5.66-3.71-7.08-.46-.243-.914-.445-1.338-.634Z"/><path fill="#000" fill-rule="evenodd" d="M21.72 4h-5.63a.94.94 0 0 0-.93.94v14a.921.921 0 0 0 .93.94h5.63a.931.931 0 0 0 .93-.94v-14a.931.931 0 0 0-.93-.94Zm-3.75 3.75a.94.94 0 1 1 .346-.066.94.94 0 0 1-.366.066h.02Z" clip-rule="evenodd"/><path fill="#000" d="M19.02 49.67 14.63 49l-2-4.16a.91.91 0 0 0-1.65 0l-2 4.17-4.4.66a1 1 0 0 0-.5 1.64l3.18 3.24-.76 4.57a.93.93 0 0 0 1.33 1l3.93-2.17 3.93 2.17a.93.93 0 0 0 1.33-1l-.75-4.57 3.18-3.25a.998.998 0 0 0-.43-1.63Z"/><path fill="#000" fill-rule="evenodd" d="m43.99 46.23-6.34-1-2.83-6a.91.91 0 0 0-.82-.53.93.93 0 0 0-.83.54l-2.83 6-6.34 1a1 1 0 0 0-.51 1.64l4.59 4.68-1.09 6.61a.93.93 0 0 0 1.33 1l5.67-3.13 5.67 3.12a.92.92 0 0 0 1.33-1l-1.08-6.61 4.59-4.68a1 1 0 0 0-.51-1.64Zm-5.7 5.29a1 1 0 0 0-.27.85l.85 5.19-4.46-2.45a.88.88 0 0 0-.85 0l-4.45 2.45.85-5.19a1 1 0 0 0-.26-.85l-3.6-3.67 5-.76a.91.91 0 0 0 .69-.53l2.22-4.71 2.23 4.72a.9.9 0 0 0 .69.52l5 .75-3.64 3.68ZM56 49.04l4.39.66a1 1 0 0 1 .44 1.64l-3.17 3.24.74 4.58a.92.92 0 0 1-1.32 1L53.15 58l-3.93 2.16a.92.92 0 0 1-1.33-1l.75-4.58-3.18-3.24a1 1 0 0 1 .51-1.63l4.39-.67 2-4.17a.94.94 0 0 1 .81-.53.89.89 0 0 1 .83.53l2 4.17Zm-.137 4.92a1 1 0 0 1 .227-.39l2.12-2.26-3-.46a.999.999 0 0 1-.69-.53l-1.35-2.87-1.35 2.88a.942.942 0 0 1-.69.52l-3 .46 2.2 2.24a1.001 1.001 0 0 1 .26.85l-.52 3.16 2.71-1.5a.88.88 0 0 1 .85 0l2.72 1.51-.52-3.16a.998.998 0 0 1 .033-.45Z" clip-rule="evenodd"/></svg>