<svg xmlns="http://www.w3.org/2000/svg" fill="none" viewBox="0 0 64 64"><path fill="#000" fill-rule="evenodd" d="M8.56 8.15h46.89a4 4 0 0 1 4.27 3.72v5.3H4.31v-5.3a4 4 0 0 1 4.25-3.72Zm.665 5.853c.256.22.57.361.905.407a1.89 1.89 0 0 0 2-1.75 1.76 1.76 0 1 0-2.905 1.343Zm6.33 0c.257.22.57.361.905.407a1.89 1.89 0 0 0 2-1.75 1.759 1.759 0 1 0-2.905 1.343Zm6.32.002c.26.22.577.36.915.405a1.9 1.9 0 0 0 2-1.75 1.77 1.77 0 1 0-2.915 1.345Zm7.315.055h23.85a1.45 1.45 0 1 0 0-2.88H29.19a1.448 1.448 0 0 0-1.493 2.034 1.449 1.449 0 0 0 1.493.846Z" clip-rule="evenodd"/><path fill="#000" d="M31.29 39.84h1.43a.44.44 0 0 0 .379-.221.32.32 0 0 0 .031-.139v-6.91a.323.323 0 0 0-.12-.25.46.46 0 0 0-.3-.11h-1.43a.43.43 0 0 0-.29.1.33.33 0 0 0-.12.27v6.9a.34.34 0 0 0 .12.26.48.48 0 0 0 .3.1ZM32.81 42.79h-1.62a.42.42 0 0 1-.379-.227.34.34 0 0 1-.031-.143v-1.43a.341.341 0 0 1 .12-.27.46.46 0 0 1 .29-.09h1.62a.46.46 0 0 1 .31.1.34.34 0 0 1 .12.26v1.43a.34.34 0 0 1-.12.26.47.47 0 0 1-.31.11Z"/><path fill="#000" fill-rule="evenodd" d="M4.715 54.51A4 4 0 0 1 4.31 53V18.69h55.38V53a4 4 0 0 1-4.24 3.73H8.57a4 4 0 0 1-3.855-2.22ZM30.05 26.19 19.72 44.31a1.94 1.94 0 0 0 2 2.78h20.62a1.94 1.94 0 0 0 1.95-2.78L33.97 26.19a2.35 2.35 0 0 0-3.92 0Z" clip-rule="evenodd"/></svg>