<svg width="200" height="100" viewBox="0 0 200 100" fill="none" xmlns="http://www.w3.org/2000/svg">
<path fill-rule="evenodd" clip-rule="evenodd" d="M39.84 63.434L38.194 63.557C36.097 63.557 34.164 63.105 32.602 61.667C30.669 59.857 30.834 57.965 30.834 55.539V54.18L29.518 54.797C28.49 55.29 27.174 55.907 27.174 57.263C27.174 58.703 28.202 59.936 29.682 59.936C29.97 59.936 30.217 59.894 30.505 59.853L28.737 63.43L26.64 63.553C25.242 63.553 23.432 63.307 22.24 62.567C20.595 61.581 19.526 59.647 19.526 57.757C19.526 50.15 30.834 52.657 30.834 49.204C30.834 47.929 29.23 47.477 28.202 47.477C26.516 47.477 24.542 48.052 23.022 48.834L24.952 44.146C26.64 43.693 28.367 43.569 30.135 43.569C32.067 43.569 34.247 43.939 35.85 45.132C37.906 46.694 38.112 49.08 38.112 51.464V54.754C38.112 57.509 37.989 59.771 41.525 59.854L39.839 63.43L39.84 63.434Z" fill="black"/>
<path fill-rule="evenodd" clip-rule="evenodd" d="M61.21 63.434L59.565 63.557C57.468 63.557 55.535 63.105 53.973 61.667C52.041 59.857 52.205 57.965 52.205 55.539V54.18L50.889 54.797C49.859 55.29 48.544 55.907 48.544 57.263C48.544 58.703 49.572 59.936 51.052 59.936C51.34 59.936 51.587 59.894 51.875 59.853L50.107 63.43L48.01 63.553C46.613 63.553 44.804 63.307 43.61 62.567C41.966 61.581 40.897 59.647 40.897 57.757C40.897 50.15 52.205 52.657 52.205 49.204C52.205 47.929 50.601 47.477 49.573 47.477C47.888 47.477 45.913 48.052 44.393 48.834L46.323 44.146C48.011 43.693 49.737 43.569 51.506 43.569C53.439 43.569 55.618 43.939 57.221 45.132C59.279 46.694 59.484 49.08 59.484 51.464V54.754C59.484 57.509 59.361 59.771 62.897 59.854L61.211 63.43L61.21 63.434ZM71.767 46.493C72.383 44.603 74.111 43.573 76.207 43.573L77.729 43.697V48.713C77.029 48.549 76.289 48.385 75.589 48.385C74.357 48.385 73.205 48.837 72.342 49.782C71.642 50.564 71.766 51.262 71.766 52.292V58.5C71.766 60.392 71.642 61.625 73.164 62.9V63.023H63.254V62.9C64.774 61.625 64.652 60.433 64.652 58.5V48.63C64.652 46.74 64.775 45.506 63.254 44.23V44.108H69.011C69.957 44.108 70.861 43.943 71.641 43.491H71.766V46.494L71.767 46.493ZM92.854 51.468C92.854 50.605 92.894 49.782 92.36 48.96C91.867 48.18 91.045 47.767 90.14 47.767C87.262 47.767 86.727 51.097 86.727 53.36C86.727 54.964 86.974 56.773 88.043 58.048C88.783 58.952 90.017 59.568 91.209 59.568H91.784L89.852 63.064C89.317 63.311 88.742 63.311 88.166 63.311C82.861 63.311 79.119 58.789 79.119 53.649C79.119 48.386 82.573 43.534 88.206 43.534C89.852 43.534 91.373 44.026 92.853 44.932V40.492C92.73 38.559 92.893 37.367 91.373 36.092V35.968H96.348C97.705 35.968 98.732 35.968 99.842 35.31H99.966V57.02C99.966 59.405 99.966 61.255 101.776 62.9V63.023H92.852V51.468H92.854ZM115.83 48.92C116.16 48.097 116.572 47.15 116.572 46.246C116.572 45.342 116.242 44.766 115.626 44.231V44.109H121.506L113.9 64.01C113.076 63.928 112.254 63.516 111.555 63.105C108.472 61.461 108.06 60.638 106.868 57.472L103.455 48.344C102.837 46.698 102.385 45.424 101.111 44.231V44.109H106.211C107.241 44.109 108.267 44.192 109.006 43.492H109.13L113.447 55.459L115.831 48.921L115.83 48.92ZM140.675 63.434L139.029 63.557C136.932 63.557 134.999 63.105 133.436 61.667C131.503 59.857 131.668 57.965 131.668 55.539V54.18L130.351 54.797C129.323 55.29 128.007 55.907 128.007 57.263C128.007 58.703 129.034 59.936 130.515 59.936C130.803 59.936 131.049 59.894 131.337 59.853L129.569 63.43L127.472 63.553C126.074 63.553 124.265 63.307 123.072 62.567C121.427 61.581 120.359 59.647 120.359 57.757C120.359 50.15 131.666 52.657 131.666 49.204C131.666 47.929 130.061 47.477 129.033 47.477C127.348 47.477 125.373 48.052 123.853 48.834L125.785 44.146C127.47 43.693 129.197 43.569 130.965 43.569C132.898 43.569 135.077 43.939 136.681 45.132C138.737 46.694 138.943 49.08 138.943 51.464V54.754C138.943 57.509 138.819 59.771 142.356 59.854L140.671 63.43L140.675 63.434ZM151.23 46.493C151.848 44.603 153.575 43.573 155.672 43.573L157.192 43.697V48.713C156.495 48.549 155.754 48.385 155.055 48.385C153.822 48.385 152.67 48.837 151.807 49.782C151.107 50.564 151.23 51.262 151.23 52.292V58.5C151.23 60.392 151.107 61.625 152.63 62.9V63.023H142.72V62.9C144.24 61.625 144.116 60.433 144.116 58.5V48.63C144.116 46.74 144.241 45.506 142.719 44.23V44.108H148.474C149.42 44.108 150.326 43.943 151.106 43.491H151.229V46.494L151.23 46.493ZM165.904 52.25L169.194 48.467C169.77 47.809 170.468 47.233 170.468 46.329C170.468 45.382 169.688 44.559 168.946 44.229V44.107H178.446V44.23L172.072 51.304L177.499 59.774C178.279 61.008 179.062 62.201 180.254 62.9V63.023C177.911 63.023 175.524 63.228 173.181 63.228C171.291 63.228 170.549 61.995 169.686 60.515L165.903 54.265V58.459C165.903 60.391 165.82 61.583 167.343 62.899V63.022H157.35V62.9C158.913 61.584 158.75 60.392 158.79 58.46V40.49C158.75 38.598 158.913 37.405 157.35 36.09V35.966H163.066C164.053 35.966 164.958 35.761 165.781 35.308H165.905V52.25H165.904Z" fill="black"/>
</svg>
