<svg width="200" height="100" viewBox="0 0 200 100" fill="none" xmlns="http://www.w3.org/2000/svg">
<g clip-path="url(#clip0_2:48)">
<path fill-rule="evenodd" clip-rule="evenodd" d="M128.66 9.88801C124.11 5.59801 118.68 2.76001 113.096 0.140015H111.519C111.621 3.17701 109.663 5.65301 109.213 8.54001C110.471 9.13001 111.725 9.72401 112.987 10.304C119.051 13.092 123.691 17.4 127.434 22.921C129.838 26.468 131.781 30.129 132.991 34.206C135.251 33.586 137.487 32.842 139.781 32.381C141.553 32.025 141.751 31.291 141.227 29.697C138.707 22.029 134.541 15.44 128.657 9.88901L128.66 9.88801ZM125.835 36.41C124.497 36.777 124.087 36.428 123.605 35.197C121.275 29.267 118.35 23.764 112.233 20.762C111.649 20.475 111.303 19.726 110.733 19.389C109.261 18.522 106.685 18.335 106.561 16.695C106.419 14.801 107.633 12.761 108.441 10.861C108.726 10.187 108.908 9.59901 108.821 8.90101C85.184 1.87101 63.054 15.867 60.295 40.225C57.689 63.231 77.155 82.555 100.258 80.48C122.638 78.47 138.238 57.104 132.612 34.692C130.22 34.728 128.08 35.79 125.837 36.409L125.835 36.41ZM106.007 69.866C97.513 72.596 89.494 71.716 81.624 66.74C71.874 60.576 66.047 46.326 71.008 34.176C75.222 23.856 82.828 17.736 94.052 16.318C97.392 15.896 100.649 16.375 103.922 17.018C105.716 17.37 105.949 18.043 105.289 19.676C105.069 20.218 104.871 20.768 104.685 21.323C104.129 22.981 103.687 24.685 103.17 26.358C105.81 27.492 108.25 28.868 110.245 30.688C110.532 30.948 110.809 31.221 111.075 31.501C111.345 31.786 111.607 32.078 111.855 32.383C112.315 32.943 112.74 33.538 113.12 34.177C113.46 34.75 113.767 35.357 114.037 35.997C114.171 36.32 114.297 36.65 114.412 36.989C115.222 39.367 116.388 39.173 118.245 38.647C124.675 36.827 124.108 35.9 124.53 43.01C125.188 54.093 118.253 65.93 106.007 69.866Z" fill="black"/>
<path fill-rule="evenodd" clip-rule="evenodd" d="M103.13 26.34L103.12 26.372L103.163 26.38L103.13 26.34ZM113.04 40.095C110.787 40.739 108.53 41.365 106.274 41.999C105.956 39.019 104.281 36.969 101.71 35.614C100.588 35.022 100.23 34.367 100.708 33.139C101.575 30.907 102.323 28.629 103.118 26.371C102.876 26.325 102.624 26.303 102.395 26.219C93.765 23.071 83.453 28.259 79.905 36.562C76.379 44.817 79.759 55.548 87.758 59.784C94.098 63.144 100.558 63.264 106.686 59.404C113.182 55.311 115.836 49.197 115.23 41.576C115.096 39.893 114.38 39.71 113.04 40.094V40.095ZM106.237 42.059C105.871 48.017 103.69 51.612 99.435 52.684C95.861 53.584 91.831 52.422 89.74 49.697C87.35 46.58 87.052 42.117 89.022 38.912C91.007 35.682 94.632 34.152 98.506 34.667C100.126 34.883 99.788 35.683 99.466 36.635C98.838 38.493 98.209 40.35 97.556 42.199C96.966 43.869 97.51 44.569 99.242 44.102C101.587 43.468 103.907 42.744 106.237 42.058C106.237 42.04 106.24 42.024 106.241 42.006L106.281 42.044L106.238 42.057L106.237 42.059ZM48.96 85.672L43.568 99.877H47.173L48.25 96.83H53.01L54.048 99.877H57.75L52.418 85.672H48.958H48.96ZM49.224 94.065L50.656 90.045L52.041 94.065H49.225H49.224ZM79.84 85.714H83.385V99.92H79.84V85.714ZM114.373 94.565L111.336 85.672H106.636V99.877H109.988V91.45L112.943 99.877H115.643L118.597 91.367V99.877H121.949L121.947 85.672H117.244L114.372 94.565H114.373ZM155.566 93.52C155.221 93.002 154.806 92.58 154.329 92.27C153.859 91.962 153.379 91.735 152.902 91.594C152.445 91.459 152.078 91.364 151.824 91.314C150.967 91.096 150.272 90.919 149.741 90.778C149.224 90.641 148.819 90.505 148.534 90.371C148.22 90.227 148.094 90.097 148.042 90.013C147.966 89.89 147.927 89.717 147.927 89.499C147.927 89.257 147.977 89.061 148.075 88.916C148.185 88.752 148.32 88.62 148.489 88.512C148.662 88.402 148.849 88.326 149.065 88.282C149.635 88.16 150.23 88.202 150.717 88.3C151.005 88.36 151.25 88.454 151.467 88.59C151.672 88.72 151.835 88.896 151.962 89.126C152.09 89.36 152.167 89.666 152.189 90.033L152.205 90.279H155.638V90.019C155.638 89.185 155.474 88.463 155.153 87.872C154.833 87.282 154.397 86.792 153.853 86.412C153.313 86.036 152.693 85.762 152.003 85.595C150.738 85.289 149.328 85.238 147.959 85.605C147.316 85.78 146.732 86.052 146.224 86.412C145.706 86.777 145.284 87.24 144.966 87.787C144.642 88.342 144.479 89.002 144.479 89.747C144.479 90.415 144.609 90.997 144.865 91.473C145.119 91.945 145.457 92.343 145.869 92.66C146.272 92.967 146.734 93.22 147.244 93.416C147.744 93.606 148.259 93.766 148.764 93.892C149.269 94.032 149.766 94.162 150.257 94.277C150.734 94.39 151.162 94.521 151.527 94.667C151.877 94.807 152.163 94.981 152.374 95.187C152.56 95.367 152.651 95.6 152.651 95.9C152.651 96.186 152.581 96.41 152.439 96.59C152.284 96.783 152.094 96.93 151.859 97.043C151.614 97.16 151.349 97.239 151.069 97.28C150.359 97.384 149.743 97.36 149.153 97.208C148.813 97.121 148.518 96.988 148.27 96.808C148.03 96.636 147.834 96.406 147.687 96.124C147.541 95.846 147.467 95.494 147.467 95.078V94.816H144.021L144.019 95.074C144.006 95.956 144.171 96.734 144.511 97.384C144.848 98.03 145.311 98.571 145.886 98.988C146.456 99.401 147.119 99.708 147.859 99.901C148.589 100.091 149.351 100.187 150.127 100.187C151.087 100.187 151.943 100.074 152.675 99.851C153.415 99.625 154.047 99.303 154.552 98.893C155.062 98.48 155.452 97.98 155.714 97.407C155.971 96.839 156.102 96.217 156.102 95.557C156.102 94.741 155.922 94.057 155.568 93.524L155.566 93.52Z" fill="black"/>
</g>
<defs>
<clipPath id="clip0_2:48">
<rect width="200" height="100" fill="white"/>
</clipPath>
</defs>
</svg>
