<svg width="200" height="100" viewBox="0 0 200 100" fill="none" xmlns="http://www.w3.org/2000/svg">
<path fill-rule="evenodd" clip-rule="evenodd" d="M190.277 54.36C190.062 54.195 189.837 54.11 189.605 54.11C189.388 54.11 189.07 54.186 188.798 54.536L188.062 55.44L187.372 56.21C187.149 56.46 186.92 56.69 186.675 56.908C186.275 57.28 185.853 57.643 185.415 57.984C184.991 58.316 184.547 58.62 184.149 58.857C183.806 59.013 183.449 59.152 183.081 59.271C182.871 59.341 182.656 59.376 182.447 59.376C182.355 59.376 182.263 59.368 182.17 59.356C182.143 59.35 182.116 59.348 182.088 59.348C181.878 59.348 181.668 59.268 181.453 59.096C181.363 58.984 181.308 58.859 181.273 58.716C181.225 58.496 181.188 58.291 181.161 58.094C181.166 57.574 181.248 57.026 181.401 56.464L181.476 56.37L181.936 56.252C182.091 56.202 182.244 56.155 182.396 56.117C182.582 56.073 182.761 56.02 182.934 55.961C183.481 55.789 184.017 55.595 184.534 55.381C185.064 55.159 185.589 54.881 186.109 54.545C186.401 54.338 186.707 54.101 187.013 53.839C187.343 53.554 187.633 53.233 187.869 52.887C188.107 52.539 188.292 52.165 188.421 51.78C188.571 51.333 188.571 50.85 188.421 50.32C188.196 49.646 187.724 49.177 187.059 48.968C186.687 48.851 186.311 48.791 185.944 48.791C185.741 48.791 185.539 48.811 185.334 48.847C184.814 48.944 184.321 49.141 183.868 49.431C183.453 49.699 183.061 50.003 182.708 50.326C181.852 51.091 181.124 51.998 180.538 53.026C180.081 53.824 179.722 54.658 179.458 55.518L179.27 55.755C178.91 56.17 178.55 56.572 178.19 56.959C177.83 57.347 177.456 57.736 177.09 58.102C176.788 58.377 176.464 58.652 176.13 58.92C175.847 59.145 175.563 59.287 175.283 59.347C175.259 59.351 175.237 59.355 175.215 59.357C175.205 59.275 175.213 59.197 175.24 59.117C175.313 58.9 175.377 58.69 175.433 58.501C175.62 57.911 175.84 57.328 176.083 56.771C176.335 56.198 176.588 55.611 176.847 55.011L177.561 53.221C177.841 52.524 177.983 51.808 177.983 51.091C177.983 50.809 177.938 50.527 177.848 50.256C177.751 49.96 177.581 49.691 177.316 49.429C177.038 49.189 176.708 49.039 176.332 48.979C176.146 48.952 175.956 48.935 175.772 48.935C175.648 48.935 175.522 48.943 175.407 48.955C174.76 49.02 174.147 49.223 173.589 49.561C173.073 49.871 172.584 50.223 172.151 50.601C171.484 51.151 170.859 51.761 170.293 52.411L170.157 52.571C170.197 52.031 170.167 51.485 170.07 50.947C169.963 50.357 169.704 49.847 169.296 49.437C168.886 49.029 168.371 48.823 167.761 48.823C167.711 48.823 167.663 48.825 167.576 48.829C167.011 48.897 166.49 49.082 166.026 49.381C165.608 49.648 165.214 49.951 164.876 50.264C164.473 50.596 164.096 50.962 163.756 51.354C163.734 51.104 163.69 50.864 163.62 50.629C163.507 50.259 163.303 49.919 162.995 49.611C162.611 49.258 162.189 49.078 161.741 49.078C161.591 49.078 161.438 49.098 161.286 49.142C160.811 49.272 160.37 49.49 160.024 49.754C159.472 50.091 158.976 50.502 158.549 50.974C158.155 51.412 157.759 51.854 157.359 52.314L155.941 53.982L155.584 54.38C155.291 54.672 155.194 55.056 155.309 55.456C155.429 55.883 155.762 56.156 156.219 56.213C156.244 56.217 156.269 56.219 156.291 56.219C156.665 56.219 156.893 56.069 157.019 55.943C157.105 55.857 157.186 55.76 157.259 55.656L157.782 55.051L159.228 53.399C159.462 53.165 159.68 52.932 159.885 52.699C160.073 52.484 160.275 52.269 160.458 52.084C160.646 51.924 160.836 51.767 161.026 51.617C161.191 51.487 161.369 51.377 161.556 51.282C161.578 51.272 161.599 51.26 161.619 51.252C161.669 51.332 161.701 51.46 161.666 51.672C161.598 52.075 161.526 52.422 161.442 52.726C161.336 53.179 161.202 53.622 161.044 54.043C160.879 54.481 160.699 54.92 160.506 55.363C160.262 55.933 159.996 56.513 159.72 57.081C159.44 57.658 159.157 58.243 158.877 58.831L158.335 59.958C158.057 60.514 158.238 60.932 158.372 61.132C158.392 61.162 158.417 61.19 158.445 61.219C158.742 61.515 159.038 61.579 159.235 61.579C159.432 61.579 159.729 61.515 160.027 61.219C160.042 61.204 160.057 61.189 160.069 61.169C160.216 60.989 160.335 60.786 160.426 60.567C160.492 60.41 160.553 60.262 160.606 60.129L161.171 59.079L162.547 56.699C163.047 55.896 163.571 55.101 164.107 54.329C164.633 53.573 165.227 52.864 165.894 52.196C166.094 51.97 166.324 51.753 166.579 51.55C166.819 51.355 167.076 51.198 167.312 51.088C167.592 50.978 167.745 50.963 167.812 50.963C167.862 50.963 167.882 50.971 167.874 50.98C167.956 51.202 168.009 51.417 168.03 51.61C168.082 52.17 168.05 52.74 167.934 53.314C167.812 53.927 167.667 54.528 167.498 55.117C167.418 55.444 167.328 55.764 167.233 56.077C167.139 56.387 167.037 56.694 166.923 57.007C166.883 57.129 166.826 57.249 166.753 57.361C166.653 57.519 166.56 57.671 166.456 57.845L166.004 58.711C165.764 59.135 165.578 59.564 165.454 59.991C165.377 60.189 165.339 60.388 165.339 60.578C165.339 60.776 165.399 61.068 165.677 61.348C165.957 61.628 166.247 61.686 166.439 61.686C166.703 61.686 166.959 61.581 167.169 61.392C167.377 61.227 167.544 61.019 167.664 60.777C167.742 60.624 167.818 60.483 167.916 60.317C168.062 60.025 168.196 59.725 168.316 59.43C168.43 59.144 168.544 58.844 168.664 58.515C168.718 58.353 168.771 58.195 168.827 58.045C168.87 57.929 168.924 57.812 168.979 57.722L169.436 57.014L169.942 56.257C170.092 56.029 170.262 55.807 170.466 55.574C170.826 55.102 171.194 54.638 171.568 54.18C171.932 53.735 172.323 53.303 172.711 52.913C173.057 52.593 173.423 52.278 173.797 51.97C174.137 51.694 174.527 51.452 174.973 51.24C175.025 51.215 175.133 51.17 175.333 51.112C175.476 51.072 175.613 51.052 175.74 51.052C175.797 51.052 175.85 51.057 175.895 51.069C175.895 51.074 175.895 51.079 175.897 51.085C175.917 51.235 175.907 51.377 175.869 51.515C175.815 51.72 175.759 51.922 175.701 52.123C175.626 52.4 175.536 52.666 175.434 52.909C175.321 53.179 175.206 53.459 175.094 53.735C174.844 54.347 174.581 54.955 174.304 55.565C174.019 56.198 173.757 56.852 173.53 57.503C173.38 57.923 173.246 58.423 173.13 58.99C172.98 59.72 173.146 60.37 173.595 60.853C173.84 61.143 174.131 61.331 174.455 61.417C174.643 61.467 174.842 61.492 175.043 61.492C175.143 61.492 175.245 61.486 175.345 61.472C175.625 61.444 175.909 61.377 176.189 61.277C176.472 61.177 176.723 61.057 176.894 60.939C177.524 60.579 178.109 60.132 178.634 59.605C178.812 59.427 178.984 59.248 179.158 59.067C179.215 59.29 179.288 59.511 179.388 59.723C179.626 60.236 179.968 60.646 180.403 60.943C180.828 61.231 181.313 61.411 181.853 61.476C182.053 61.5 182.25 61.513 182.448 61.513C183.278 61.513 184.093 61.295 184.866 60.863C185.746 60.373 186.546 59.83 187.26 59.233C187.6 58.92 187.92 58.613 188.22 58.316L189.143 57.392L190.169 56.238C190.299 56.073 190.429 55.878 190.553 55.658C190.805 55.223 190.707 54.733 190.28 54.366L190.277 54.36ZM183.775 52.197C184.052 51.894 184.382 51.602 184.755 51.334C185.079 51.097 185.421 50.962 185.835 50.911C185.903 50.901 185.969 50.893 186.035 50.893C186.167 50.893 186.297 50.918 186.415 50.941C186.415 50.941 186.428 50.984 186.42 51.063C186.358 51.365 186.17 51.675 185.856 51.99C185.301 52.57 184.616 53.032 183.813 53.362C183.403 53.532 182.993 53.686 182.579 53.826C182.937 53.226 183.337 52.68 183.774 52.196L183.775 52.197ZM151.27 54.552C151.07 54.408 150.86 54.334 150.644 54.334C150.43 54.334 150.116 54.408 149.821 54.791C149.221 55.651 148.481 56.485 147.621 57.266C147.121 57.71 146.595 58.128 146.043 58.509C145.891 58.613 145.733 58.716 145.573 58.809C145.61 58.646 145.639 58.482 145.663 58.316C145.746 57.679 145.79 57.058 145.788 56.486C145.818 55.783 145.802 55.073 145.746 54.376C145.694 53.726 145.68 53.06 145.706 52.431C145.732 52.133 145.76 51.849 145.786 51.577C145.808 51.369 145.86 51.167 145.953 50.957C145.973 50.905 146.003 50.863 146.047 50.825C146.223 50.67 146.355 50.482 146.424 50.305C146.654 49.845 146.527 49.353 146.094 49.028C145.9 48.882 145.694 48.808 145.48 48.808C145.28 48.808 144.988 48.875 144.708 49.194L144.225 49.758C143.595 50.472 142.973 51.198 142.377 51.914C139.975 54.809 137.775 57.297 137.335 57.821C136.925 58.308 136.459 58.735 135.909 59.121C135.783 59.227 135.619 59.324 135.419 59.413C135.217 59.503 135.012 59.566 134.809 59.599C134.749 59.609 134.689 59.615 134.629 59.615C134.539 59.615 134.454 59.603 134.369 59.575C134.309 59.555 134.259 59.455 134.223 59.365C134.1 59.095 134.056 58.815 134.087 58.5C134.127 58.092 134.175 57.7 134.225 57.342C134.331 56.782 134.462 56.216 134.612 55.658C134.757 55.11 134.929 54.558 135.116 54.021L135.778 52.201L136.09 51.375C136.12 51.312 136.16 51.212 136.253 50.91H139.045C139.385 50.91 139.692 50.758 139.913 50.482C140.163 50.167 140.203 49.774 140.033 49.436C139.863 49.042 139.505 48.816 139.051 48.816L138.971 48.818C138.734 48.831 138.921 48.838 138.763 48.838H137.131C137.241 48.562 137.351 48.294 137.458 48.028C137.664 47.52 137.878 47.002 138.105 46.465L138.708 44.931L138.896 44.557C139.02 44.305 139.059 44.035 139.014 43.82C138.957 43.298 138.62 42.954 138.112 42.893C138.062 42.887 138.016 42.883 137.968 42.883C137.536 42.883 137.183 43.133 137.033 43.536C136.701 44.339 136.363 45.139 136.018 45.942C135.674 46.738 135.308 47.525 134.924 48.292L134.664 48.837H132.442C132.28 48.837 132.129 48.847 131.982 48.862C131.645 48.902 131.374 49.115 131.26 49.407C131.082 49.761 131.106 50.144 131.324 50.452C131.527 50.747 131.851 50.909 132.234 50.909H133.467C133.162 51.402 132.849 51.886 132.532 52.356C132.036 53.093 131.512 53.838 130.968 54.572C130.848 54.698 130.74 54.842 130.638 55C130.458 55.24 130.271 55.485 130.073 55.75C129.713 56.235 129.367 56.672 129.059 57.032C128.707 57.412 128.345 57.779 127.987 58.124C127.652 58.446 127.272 58.741 126.843 59.01C126.826 59.02 126.747 59.07 126.517 59.17C126.357 59.237 126.193 59.29 126.034 59.324C125.997 59.332 125.962 59.338 125.929 59.342C125.931 59.249 125.947 59.159 125.975 59.069C126.049 58.849 126.115 58.639 126.173 58.426C126.253 58.143 126.343 57.876 126.443 57.633C126.559 57.365 126.673 57.087 126.778 56.818C127.058 56.171 127.34 55.533 127.62 54.902C127.907 54.252 128.172 53.572 128.408 52.862C128.464 52.662 128.528 52.428 128.598 52.156C128.678 51.854 128.728 51.546 128.745 51.236C128.765 50.891 128.717 50.561 128.607 50.25C128.487 49.914 128.287 49.623 127.997 49.375C127.577 49.039 127.089 48.868 126.551 48.868C126.381 48.868 126.201 48.885 126.021 48.921C125.384 49.045 124.834 49.237 124.396 49.487C123.796 49.817 123.234 50.21 122.73 50.657C122.304 51.035 121.89 51.44 121.497 51.873C121.507 51.763 121.511 51.653 121.511 51.54C121.511 51.234 121.476 50.928 121.399 50.584C121.209 49.981 120.839 49.537 120.326 49.301C120.049 49.173 119.761 49.107 119.469 49.107C119.229 49.107 118.985 49.152 118.742 49.237C118.298 49.397 117.892 49.607 117.542 49.864C117.217 50.1 116.888 50.368 116.562 50.666C116.214 50.984 115.877 51.313 115.562 51.64C115.252 51.97 114.94 52.3 114.599 52.674L112.505 55.436L111.815 56.206C111.592 56.456 111.363 56.686 111.118 56.904C110.718 57.276 110.295 57.639 109.858 57.98C109.435 58.312 108.99 58.616 108.591 58.853C108.251 59.009 107.894 59.148 107.525 59.267C107.315 59.337 107.1 59.372 106.891 59.372C106.799 59.372 106.706 59.364 106.614 59.352C106.584 59.346 106.559 59.344 106.531 59.344C106.319 59.344 106.109 59.264 105.894 59.092C105.806 58.98 105.749 58.855 105.714 58.712C105.667 58.492 105.629 58.287 105.604 58.09C105.607 57.57 105.69 57.022 105.842 56.46L105.917 56.366L106.377 56.248C106.532 56.198 106.687 56.151 106.837 56.113C107.023 56.069 107.203 56.016 107.375 55.957C107.923 55.785 108.46 55.591 108.975 55.377C109.508 55.155 110.031 54.877 110.55 54.541C110.843 54.334 111.148 54.097 111.455 53.835C111.785 53.55 112.075 53.229 112.31 52.883C112.548 52.535 112.734 52.161 112.863 51.776C113.013 51.329 113.013 50.846 112.863 50.316C112.638 49.642 112.166 49.173 111.501 48.964C111.129 48.847 110.753 48.787 110.386 48.787C110.184 48.787 109.981 48.807 109.776 48.843C109.256 48.94 108.764 49.137 108.312 49.427C107.897 49.695 107.504 49.999 107.149 50.322C106.296 51.087 105.567 51.994 104.979 53.022C104.524 53.82 104.166 54.654 103.903 55.514L103.713 55.751C103.353 56.166 102.993 56.568 102.633 56.955C102.273 57.343 101.901 57.732 101.533 58.098C101.233 58.373 100.908 58.648 100.573 58.916C100.293 59.141 100.007 59.283 99.728 59.343C99.704 59.347 99.682 59.351 99.658 59.353C99.648 59.271 99.658 59.193 99.684 59.113C99.757 58.896 99.821 58.686 99.877 58.497C100.067 57.907 100.284 57.324 100.527 56.767C100.781 56.194 101.033 55.607 101.292 55.007L102.006 53.217C102.286 52.52 102.426 51.804 102.426 51.087C102.426 50.805 102.381 50.523 102.29 50.252C102.193 49.956 102.024 49.687 101.76 49.425C101.48 49.185 101.15 49.035 100.776 48.975C100.586 48.948 100.398 48.931 100.214 48.931C100.091 48.931 99.964 48.939 99.849 48.951C99.202 49.016 98.591 49.219 98.031 49.557C97.515 49.867 97.027 50.219 96.593 50.597C95.927 51.147 95.303 51.757 94.736 52.407C94.691 52.461 94.644 52.513 94.6 52.567C94.64 52.027 94.61 51.481 94.512 50.943C94.408 50.353 94.148 49.843 93.74 49.433C93.33 49.025 92.814 48.819 92.205 48.819C92.155 48.819 92.105 48.821 92.018 48.825C91.453 48.893 90.932 49.078 90.468 49.377C90.051 49.644 89.656 49.947 89.318 50.26C88.915 50.592 88.54 50.958 88.198 51.35C88.178 51.1 88.132 50.86 88.062 50.625C87.95 50.255 87.746 49.915 87.437 49.607C87.054 49.254 86.633 49.074 86.185 49.074C86.035 49.074 85.88 49.094 85.728 49.138C85.253 49.268 84.813 49.486 84.466 49.75C83.916 50.087 83.419 50.498 82.992 50.97C82.597 51.408 82.202 51.85 81.804 52.31C81.804 52.31 78.512 56.195 77.888 56.955C77.298 57.675 76.642 58.348 75.936 58.952C75.843 59.017 75.713 59.117 75.546 59.256C75.416 59.366 75.272 59.46 75.116 59.536C75.096 59.548 75.073 59.559 75.051 59.569C75.049 59.443 75.071 59.313 75.115 59.169C75.21 58.869 75.3 58.596 75.382 58.351C75.512 57.955 75.666 57.561 75.838 57.183C76.015 56.787 76.198 56.383 76.393 55.968L77.013 54.624C77.273 54.056 77.483 53.464 77.629 52.864C77.783 52.23 77.822 51.628 77.743 51.074C77.65 50.421 77.293 49.89 76.663 49.484C76.233 49.224 75.773 49.094 75.295 49.094C75 49.094 74.697 49.144 74.392 49.242C73.685 49.467 73.064 49.784 72.559 50.168C72.172 50.443 71.799 50.743 71.443 51.068C71.527 50.951 71.616 50.838 71.71 50.726L73.825 48.321C74.622 47.387 75.418 46.431 76.192 45.476C76.979 44.506 77.704 43.476 78.347 42.413C78.651 41.913 78.963 41.369 79.273 40.793C79.63 40.129 79.776 39.429 79.711 38.713C79.639 37.886 79.249 37.263 78.581 36.908C78.267 36.744 77.939 36.661 77.604 36.661C77.227 36.661 76.842 36.767 76.471 36.971C75.918 37.263 75.451 37.686 75.083 38.233C74.757 38.713 74.453 39.198 74.155 39.705L72.695 42.625C72.225 43.675 71.765 44.725 71.308 45.775C70.851 46.825 70.402 47.875 69.96 48.927C69.826 49.244 69.687 49.549 69.542 49.841C69.406 50.108 69.242 50.367 69.062 50.589C68.872 50.806 68.692 51.009 68.516 51.196C68.326 51.401 68.138 51.626 67.989 51.828C67.576 52.295 67.171 52.748 66.773 53.186C66.369 53.633 65.966 54.101 65.573 54.579L65.571 54.583C64.803 55.395 64.008 56.213 63.194 57.011C62.344 57.851 61.374 58.511 60.314 58.973C59.834 59.186 59.287 59.363 58.706 59.496C58.458 59.546 58.198 59.57 57.936 59.57C57.714 59.57 57.516 59.53 57.326 59.446C57.08 59.341 56.936 59.189 56.86 58.949C56.752 58.614 56.71 58.291 56.736 57.952C56.761 57.506 56.836 57.059 56.956 56.622C57.072 56.192 57.236 55.772 57.453 55.366C57.975 54.323 58.671 53.316 59.51 52.4L60.226 51.683C60.418 51.489 60.646 51.333 60.944 51.195C61.09 51.112 61.242 51.055 61.408 51.025L61.478 51.055C61.566 51.141 61.628 51.268 61.66 51.437C61.69 51.587 61.72 51.731 61.75 51.863C61.795 52.068 61.955 52.433 62.52 52.593C62.547 52.603 62.573 52.608 62.6 52.613C62.68 52.623 62.757 52.629 62.825 52.629C63.215 52.629 63.442 52.459 63.563 52.313C63.713 52.133 63.803 51.898 63.83 51.613C63.85 51.383 63.828 51.151 63.767 50.923C63.72 50.753 63.679 50.618 63.649 50.523C63.459 49.959 63.122 49.515 62.643 49.207C62.256 48.961 61.82 48.835 61.353 48.835C61.239 48.835 61.123 48.843 60.963 48.865C60.283 49.001 59.663 49.309 59.123 49.782C58.651 50.197 58.203 50.612 57.769 51.048C56.989 51.918 56.285 52.918 55.673 54.021C55.565 54.217 55.467 54.416 55.375 54.611L53.929 56.301C53.446 56.864 52.927 57.426 52.361 57.994C52.185 58.192 51.995 58.384 51.794 58.558L51.141 59.131C51.011 59.237 50.869 59.331 50.713 59.408C50.559 59.485 50.391 59.548 50.191 59.598C50.156 59.608 50.124 59.612 50.091 59.612C50.051 59.612 50.009 59.602 49.961 59.588C49.891 59.562 49.879 59.538 49.858 59.498C49.772 59.343 49.736 59.181 49.745 58.998C49.755 58.741 49.787 58.503 49.841 58.258C49.891 57.95 49.961 57.648 50.051 57.36C50.145 57.053 50.245 56.75 50.364 56.418C50.408 56.266 50.462 56.132 50.524 56.02C50.604 55.87 50.684 55.717 50.767 55.556C50.875 55.392 50.977 55.226 51.075 55.06C51.178 54.883 51.275 54.707 51.352 54.552C51.659 53.992 51.945 53.448 52.21 52.919C52.476 52.387 52.734 51.842 52.986 51.284C52.996 51.264 53.002 51.246 53.009 51.226C53.029 51.166 53.071 51.082 53.133 50.97C53.237 50.78 53.316 50.586 53.368 50.39C53.435 50.152 53.444 49.92 53.396 49.7C53.354 49.513 53.212 49.174 52.758 49.024C52.574 48.95 52.408 48.906 52.244 48.884C52.144 48.871 52.036 48.854 51.867 48.821C51.595 48.791 51.317 48.773 51.045 48.773C50.547 48.773 50.043 48.826 49.55 48.933C48.805 49.093 48.087 49.337 47.418 49.657C46.865 49.922 46.332 50.237 45.836 50.603C45.352 50.958 44.889 51.343 44.469 51.733C43.924 52.223 43.415 52.753 42.959 53.308C42.574 53.778 42.239 54.288 41.957 54.82C41.94 54.837 41.919 54.852 41.902 54.873L40.808 56.178C40.365 56.733 39.922 57.271 39.478 57.796C39.068 58.286 38.6 58.714 38.048 59.103C37.923 59.208 37.758 59.307 37.558 59.395C37.354 59.485 37.148 59.548 36.945 59.582C36.885 59.592 36.825 59.597 36.765 59.597C36.673 59.597 36.587 59.585 36.502 59.557C36.442 59.537 36.392 59.435 36.356 59.347C36.233 59.079 36.188 58.794 36.219 58.477C36.261 58.069 36.309 57.674 36.359 57.317C36.466 56.755 36.596 56.185 36.746 55.623C36.893 55.075 37.066 54.52 37.254 53.981L37.918 52.153L38.231 51.323C38.261 51.26 38.304 51.158 38.393 50.855H41.205C41.545 50.855 41.855 50.701 42.075 50.427C42.328 50.11 42.368 49.715 42.197 49.377C42.027 48.981 41.667 48.752 41.21 48.752L41.128 48.754C40.893 48.767 40.696 48.774 40.538 48.774H39.278C39.388 48.499 39.498 48.228 39.606 47.964C39.812 47.451 40.026 46.931 40.254 46.392L40.861 44.852L41.049 44.472C41.176 44.222 41.215 43.948 41.169 43.732C41.112 43.212 40.773 42.864 40.263 42.804C40.213 42.798 40.167 42.794 40.12 42.794C39.687 42.794 39.332 43.047 39.18 43.451C38.848 44.255 38.508 45.061 38.16 45.864C37.817 46.664 37.45 47.454 37.063 48.226L36.803 48.772H30.16L30.487 47.965C30.694 47.451 30.91 46.931 31.137 46.392L31.743 44.852L31.931 44.472C32.058 44.222 32.096 43.948 32.051 43.732C31.993 43.212 31.655 42.864 31.145 42.804C31.095 42.798 31.048 42.794 31.003 42.794C30.567 42.794 30.213 43.047 30.063 43.451C29.729 44.255 29.389 45.061 29.043 45.864C28.697 46.664 28.328 47.454 27.943 48.226L27.683 48.772H25.453C25.29 48.772 25.138 48.782 24.991 48.797C24.651 48.837 24.381 49.052 24.266 49.347C24.086 49.702 24.111 50.087 24.329 50.395C24.535 50.692 24.859 50.855 25.244 50.855H26.48C26.173 51.349 25.858 51.835 25.54 52.31C24.066 54.515 22.485 56.3 22.485 56.3C22.002 56.86 21.482 57.423 20.917 57.99C20.74 58.19 20.55 58.382 20.351 58.556L19.698 59.129C19.57 59.235 19.426 59.329 19.272 59.406C19.119 59.483 18.952 59.546 18.752 59.596C18.717 59.606 18.684 59.61 18.652 59.61C18.612 59.61 18.569 59.6 18.522 59.586C18.452 59.56 18.44 59.536 18.419 59.496C18.332 59.341 18.296 59.179 18.305 58.996C18.315 58.739 18.347 58.501 18.401 58.256C18.451 57.948 18.521 57.646 18.611 57.358C18.704 57.051 18.804 56.748 18.924 56.416C18.967 56.264 19.02 56.13 19.081 56.018C19.163 55.868 19.243 55.715 19.325 55.554C19.433 55.39 19.535 55.224 19.632 55.058C19.736 54.881 19.832 54.705 19.91 54.55C20.217 53.99 20.503 53.446 20.768 52.917C21.033 52.385 21.292 51.84 21.544 51.282C21.554 51.262 21.559 51.244 21.566 51.224C21.586 51.164 21.628 51.08 21.69 50.968C21.795 50.778 21.873 50.584 21.925 50.388C21.992 50.15 22.001 49.918 21.953 49.698C21.913 49.511 21.77 49.172 21.316 49.022C21.132 48.948 20.966 48.904 20.802 48.882C20.702 48.869 20.592 48.852 20.424 48.819C20.15 48.789 19.874 48.771 19.602 48.771C19.102 48.771 18.6 48.824 18.106 48.931C17.362 49.091 16.643 49.335 15.974 49.655C15.421 49.92 14.887 50.235 14.391 50.601C13.908 50.956 13.443 51.341 13.021 51.731C12.477 52.221 11.968 52.751 11.514 53.306C11.044 53.879 10.644 54.508 10.332 55.16C10.074 55.652 9.847 56.163 9.659 56.68C9.462 57.23 9.345 57.8 9.315 58.408C9.315 58.914 9.403 59.413 9.578 59.888C9.773 60.42 10.122 60.851 10.612 61.165C11.086 61.475 11.612 61.63 12.18 61.63C12.306 61.63 12.434 61.622 12.564 61.607C13.202 61.53 13.79 61.367 14.346 61.105C14.936 60.78 15.498 60.367 16.016 59.883C16.116 59.785 16.216 59.689 16.312 59.593C16.318 59.655 16.324 59.717 16.332 59.779C16.426 60.549 16.882 61.129 17.629 61.449C17.991 61.622 18.359 61.709 18.727 61.709C19.034 61.709 19.342 61.647 19.644 61.526C20.208 61.296 20.714 60.993 21.131 60.634C21.701 60.178 22.239 59.669 22.729 59.124L24.141 57.544C24.337 57.319 24.534 57.086 24.731 56.848C24.911 56.628 25.109 56.412 25.313 56.208C25.325 56.195 25.336 56.178 25.348 56.168C25.308 56.348 25.265 56.526 25.226 56.708C25.136 57.124 25.076 57.56 25.048 58C25.018 58.458 25.032 58.918 25.094 59.374C25.162 59.854 25.336 60.294 25.61 60.689C25.912 61.124 26.345 61.421 26.88 61.562C27.18 61.652 27.483 61.698 27.78 61.698C28.155 61.698 28.527 61.625 28.89 61.482C29.47 61.252 29.996 60.949 30.46 60.58C31.075 60.08 31.632 59.525 32.114 58.924C32.571 58.359 33.034 57.799 33.472 57.28C33.632 57.122 33.782 56.946 33.922 56.758C34.032 56.614 34.145 56.48 34.266 56.36C34.286 56.34 34.303 56.32 34.319 56.298C34.334 56.276 34.344 56.255 34.359 56.235C34.399 56.192 34.442 56.149 34.479 56.108C34.434 56.306 34.389 56.506 34.345 56.708C34.255 57.124 34.195 57.56 34.165 58C34.135 58.458 34.152 58.918 34.212 59.374C34.28 59.854 34.452 60.294 34.728 60.689C35.03 61.124 35.462 61.421 35.998 61.562C36.298 61.652 36.601 61.698 36.898 61.698C37.273 61.698 37.645 61.625 38.008 61.482C38.588 61.252 39.114 60.949 39.578 60.58C40.044 60.202 40.478 59.79 40.868 59.352C40.91 59.532 40.958 59.712 41.023 59.886C41.218 60.418 41.566 60.849 42.056 61.163C42.531 61.473 43.058 61.628 43.626 61.628C43.75 61.628 43.878 61.62 44.009 61.605C44.649 61.528 45.237 61.365 45.791 61.103C46.381 60.778 46.943 60.365 47.461 59.881L47.759 59.591C47.764 59.653 47.769 59.715 47.779 59.777C47.872 60.547 48.326 61.127 49.075 61.447C49.435 61.62 49.805 61.707 50.172 61.707C50.48 61.707 50.788 61.645 51.088 61.524C51.653 61.294 52.158 60.991 52.576 60.632C53.146 60.176 53.686 59.667 54.176 59.122L54.572 58.676C54.586 58.828 54.606 58.978 54.634 59.129C54.741 59.679 54.99 60.186 55.38 60.649C55.883 61.222 56.49 61.559 57.188 61.649C57.461 61.685 57.74 61.706 58.015 61.706C58.345 61.706 58.68 61.679 59.012 61.626C60.34 61.411 61.562 60.918 62.646 60.159C63.68 59.433 64.656 58.631 65.556 57.759L66.983 56.257L66.318 57.949C66.18 58.306 66.044 58.654 65.906 58.999C65.768 59.345 65.629 59.699 65.498 60.042C65.398 60.272 65.324 60.52 65.275 60.782C65.183 61.279 65.425 61.7 65.875 61.869C66.041 61.939 66.195 61.979 66.347 61.979C66.695 61.979 66.99 61.777 67.132 61.447C67.219 61.245 67.305 61.029 67.386 60.81L67.881 59.57C68.036 59.183 68.221 58.802 68.437 58.42C69.134 57.084 69.949 55.834 70.86 54.708C71.607 53.778 72.415 52.941 73.257 52.231C73.545 51.995 73.845 51.769 74.152 51.554C74.397 51.384 74.662 51.281 74.978 51.236C75.102 51.214 75.211 51.201 75.311 51.201C75.486 51.201 75.538 51.238 75.538 51.238C75.636 51.458 75.651 51.758 75.578 52.131C75.49 52.589 75.341 53.066 75.138 53.549C74.915 54.079 74.748 54.481 74.644 54.741L73.734 56.811C73.414 57.536 73.178 58.304 73.03 59.111C72.925 59.848 73.088 60.501 73.516 61.055C73.843 61.477 74.296 61.7 74.823 61.7C75.067 61.7 75.331 61.654 75.62 61.554C76.357 61.276 77.083 60.778 77.774 60.074C78.414 59.419 78.992 58.79 79.482 58.217C79.792 57.881 80.035 57.607 80.219 57.397C80.402 57.187 82.229 55.037 82.229 55.037L83.673 53.387C83.907 53.152 84.126 52.919 84.33 52.685C84.52 52.471 84.72 52.255 84.903 52.071C85.093 51.911 85.283 51.754 85.473 51.604C85.637 51.474 85.815 51.364 86.003 51.269C86.023 51.259 86.045 51.247 86.065 51.239C86.115 51.319 86.148 51.447 86.111 51.659C86.046 52.062 85.971 52.409 85.889 52.713C85.783 53.166 85.649 53.609 85.489 54.03C85.326 54.468 85.146 54.907 84.953 55.35C84.709 55.92 84.443 56.5 84.168 57.068C83.886 57.645 83.605 58.23 83.325 58.818L82.783 59.945C82.503 60.501 82.685 60.919 82.82 61.119C82.84 61.149 82.864 61.177 82.89 61.206C83.188 61.502 83.485 61.566 83.683 61.566C83.878 61.566 84.175 61.502 84.473 61.206C84.488 61.191 84.503 61.176 84.516 61.156C84.663 60.976 84.781 60.773 84.872 60.554C84.939 60.397 84.999 60.249 85.052 60.116L85.617 59.066L86.995 56.686C87.493 55.883 88.018 55.088 88.555 54.316C89.081 53.56 89.675 52.851 90.34 52.183C90.54 51.957 90.772 51.74 91.026 51.537C91.268 51.342 91.523 51.185 91.76 51.075C92.038 50.965 92.192 50.95 92.26 50.95C92.31 50.95 92.328 50.958 92.32 50.967C92.403 51.189 92.455 51.404 92.476 51.597C92.528 52.157 92.496 52.727 92.38 53.301C92.258 53.914 92.113 54.515 91.945 55.104C91.863 55.431 91.775 55.751 91.679 56.064C91.584 56.374 91.481 56.681 91.369 56.994C91.326 57.116 91.269 57.236 91.197 57.348C91.097 57.506 91.004 57.658 90.9 57.832L90.448 58.698C90.206 59.122 90.022 59.551 89.898 59.978C89.822 60.176 89.784 60.375 89.784 60.565C89.784 60.763 89.844 61.055 90.121 61.335C90.404 61.615 90.691 61.673 90.884 61.673C91.149 61.673 91.404 61.568 91.614 61.379C91.822 61.214 91.988 61.006 92.109 60.764C92.189 60.611 92.264 60.47 92.361 60.304C92.508 60.012 92.641 59.712 92.761 59.417C92.875 59.131 92.989 58.831 93.109 58.502C93.163 58.34 93.216 58.182 93.271 58.032C93.314 57.916 93.371 57.799 93.424 57.709L93.881 57.001L94.387 56.244C94.537 56.016 94.707 55.794 94.911 55.561C95.271 55.089 95.639 54.625 96.013 54.167C96.377 53.722 96.768 53.29 97.155 52.9C97.502 52.58 97.868 52.265 98.242 51.957C98.582 51.681 98.974 51.439 99.419 51.227C99.473 51.202 99.579 51.157 99.779 51.099C99.923 51.059 100.059 51.039 100.187 51.039C100.244 51.039 100.297 51.044 100.341 51.056V51.072C100.363 51.222 100.353 51.364 100.315 51.502C100.261 51.707 100.205 51.909 100.148 52.11C100.072 52.387 99.981 52.653 99.88 52.896C99.765 53.166 99.65 53.446 99.538 53.722C99.29 54.334 99.026 54.942 98.748 55.552C98.463 56.185 98.201 56.839 97.974 57.49C97.824 57.91 97.69 58.41 97.574 58.977C97.424 59.707 97.589 60.357 98.039 60.84C98.282 61.13 98.573 61.318 98.897 61.404C99.087 61.454 99.284 61.479 99.487 61.479C99.585 61.479 99.687 61.473 99.787 61.459C100.067 61.431 100.351 61.364 100.631 61.264C100.914 61.164 101.164 61.044 101.336 60.926C101.966 60.566 102.551 60.119 103.078 59.592C103.253 59.414 103.428 59.235 103.6 59.054C103.657 59.277 103.73 59.498 103.828 59.71C104.068 60.223 104.41 60.633 104.845 60.93C105.271 61.218 105.758 61.398 106.297 61.463C106.497 61.487 106.693 61.5 106.889 61.5C107.721 61.5 108.535 61.282 109.307 60.85C110.189 60.36 110.987 59.817 111.702 59.22C112.042 58.907 112.797 58.27 113.5 57.44L115.703 54.672C115.983 54.33 116.393 53.857 116.823 53.386C117.243 52.924 117.688 52.486 118.139 52.088C118.469 51.808 118.804 51.548 119.134 51.318C119.214 51.288 119.294 51.26 119.387 51.236C119.387 51.28 119.387 51.321 119.379 51.36C119.372 51.397 119.369 51.435 119.369 51.473C119.369 51.79 119.332 52.096 119.257 52.393C119.151 52.843 119.017 53.281 118.86 53.689C118.693 54.123 118.524 54.549 118.36 54.957C118.055 55.677 117.726 56.399 117.382 57.099C117.032 57.819 116.672 58.539 116.297 59.292L115.971 60.028C115.787 60.395 115.828 60.684 115.897 60.862C115.962 61.039 116.119 61.278 116.485 61.424C116.625 61.48 116.77 61.508 116.915 61.508C117.062 61.508 117.205 61.48 117.343 61.425C117.597 61.325 117.793 61.16 117.917 60.945C118.095 60.703 118.255 60.443 118.387 60.172C118.507 59.938 118.631 59.712 118.774 59.485C119.217 58.707 119.681 57.945 120.151 57.21C120.621 56.478 121.126 55.743 121.649 55.024C122.169 54.314 122.739 53.614 123.342 52.939C123.912 52.307 124.578 51.789 125.36 51.384C125.477 51.314 125.607 51.249 125.747 51.191C125.874 51.137 126.003 51.101 126.127 51.081C126.167 51.071 126.207 51.061 126.245 51.045C126.302 51.023 126.41 50.992 126.612 50.979C126.648 50.979 126.655 50.986 126.647 50.999C126.635 51.144 126.617 51.279 126.592 51.405C126.517 51.815 126.372 52.29 126.154 52.832C125.932 53.437 125.69 54.042 125.43 54.632C125.16 55.242 124.897 55.858 124.652 56.462C124.505 56.782 124.374 57.095 124.259 57.402C124.132 57.729 124.039 58.07 123.983 58.376C123.923 58.624 123.875 58.882 123.843 59.144C123.807 59.457 123.825 59.761 123.901 60.059C124.099 60.819 124.601 61.292 125.311 61.396C125.498 61.426 125.686 61.438 125.868 61.438C126.243 61.438 126.61 61.381 126.982 61.264C127.612 61.044 128.192 60.711 128.71 60.272C129.178 59.875 129.62 59.468 130.03 59.058C130.41 58.68 130.78 58.268 131.128 57.828C131.465 57.405 131.79 56.998 132.108 56.593C132.164 56.52 132.234 56.437 132.304 56.356C132.274 56.481 132.244 56.606 132.219 56.733C132.129 57.149 132.071 57.583 132.041 58.021C132.011 58.476 132.027 58.935 132.088 59.391C132.155 59.866 132.328 60.306 132.6 60.697C132.9 61.131 133.333 61.427 133.865 61.567C134.165 61.657 134.467 61.702 134.762 61.702C135.134 61.702 135.506 61.629 135.866 61.487C136.443 61.26 136.969 60.957 137.432 60.587C137.612 60.441 137.787 60.287 137.959 60.131C138.349 60.464 138.765 60.761 139.203 61.011C139.751 61.321 140.343 61.555 140.967 61.701C141.467 61.817 141.97 61.876 142.462 61.876C143.23 61.876 143.999 61.736 144.745 61.456C145.925 61.014 147 60.418 147.935 59.68C148.411 59.314 148.868 58.923 149.29 58.513C149.704 58.113 150.113 57.683 150.508 57.233C150.705 57.008 150.881 56.796 151.038 56.597C151.188 56.404 151.348 56.197 151.533 55.951C151.865 55.453 151.763 54.901 151.27 54.543V54.552ZM108.223 52.197C108.5 51.894 108.83 51.602 109.203 51.334C109.527 51.097 109.869 50.962 110.285 50.911C110.351 50.901 110.417 50.893 110.485 50.893C110.615 50.893 110.745 50.918 110.862 50.941C110.862 50.941 110.876 50.984 110.867 51.063C110.804 51.365 110.619 51.675 110.305 51.99C109.749 52.57 109.062 53.032 108.261 53.362C107.851 53.532 107.441 53.686 107.028 53.826C107.388 53.226 107.788 52.68 108.224 52.196L108.223 52.197ZM74.91 42.89C75.155 42.346 75.414 41.8 75.686 41.255C75.949 40.728 76.244 40.22 76.561 39.745C76.711 39.518 76.891 39.29 77.091 39.065C77.239 38.899 77.405 38.792 77.601 38.739L77.611 38.735C77.645 38.795 77.661 38.858 77.661 38.929C77.661 39.294 77.551 39.649 77.331 40.019C77.051 40.477 76.801 40.902 76.583 41.282C75.858 42.489 75.047 43.635 74.173 44.684L73.881 45.034C74.201 44.316 74.545 43.602 74.911 42.888L74.91 42.89ZM17.727 53.91L17.341 54.727C17.291 54.851 17.235 54.973 17.174 55.097C17.124 55.197 17.054 55.302 16.936 55.455C16.642 55.91 16.321 56.375 15.984 56.835C15.658 57.277 15.308 57.685 14.944 58.051C14.634 58.361 14.299 58.651 13.952 58.905C13.638 59.14 13.275 59.318 12.894 59.431C12.702 59.479 12.484 59.515 12.25 59.541C12.205 59.544 12.16 59.547 12.117 59.547C11.997 59.547 11.89 59.527 11.812 59.5C11.712 59.455 11.672 59.405 11.648 59.364C11.574 59.244 11.518 59.11 11.481 58.978C11.391 58.625 11.393 58.268 11.483 57.884C11.583 57.454 11.713 57.054 11.863 56.7C12.119 56.112 12.445 55.552 12.833 55.036C13.223 54.516 13.66 54.024 14.143 53.568C14.538 53.173 14.96 52.798 15.396 52.455C15.82 52.121 16.296 51.821 16.808 51.565C17.313 51.312 17.866 51.119 18.451 50.992C18.723 50.932 18.997 50.896 19.271 50.882L19.089 51.206C18.884 51.576 18.671 51.954 18.447 52.342C18.303 52.605 18.169 52.872 18.053 53.135C17.939 53.387 17.825 53.659 17.727 53.91ZM34.662 52.316C34.166 53.056 33.638 53.803 33.092 54.538C33.037 54.598 32.984 54.665 32.932 54.734C32.879 54.774 32.83 54.824 32.787 54.878L31.691 56.183C31.248 56.738 30.805 57.276 30.363 57.801C29.953 58.291 29.483 58.719 28.931 59.108C28.805 59.213 28.641 59.312 28.441 59.4C28.236 59.49 28.031 59.553 27.829 59.587C27.766 59.597 27.707 59.602 27.647 59.602C27.557 59.602 27.471 59.59 27.387 59.562C27.325 59.542 27.277 59.44 27.239 59.352C27.115 59.084 27.069 58.799 27.102 58.482C27.144 58.074 27.192 57.679 27.242 57.322C27.348 56.76 27.48 56.19 27.629 55.628C27.777 55.08 27.949 54.525 28.136 53.986L28.801 52.158L29.113 51.328C29.145 51.265 29.187 51.163 29.277 50.86H35.6C35.294 51.355 34.98 51.842 34.66 52.316H34.662ZM49.178 53.91L48.791 54.727C48.739 54.851 48.684 54.973 48.623 55.097C48.573 55.197 48.503 55.302 48.386 55.455C48.091 55.91 47.771 56.375 47.432 56.835C47.108 57.277 46.759 57.685 46.394 58.051C46.084 58.361 45.748 58.651 45.402 58.905C45.087 59.14 44.722 59.318 44.342 59.431C44.152 59.479 43.934 59.515 43.699 59.541C43.653 59.544 43.609 59.547 43.566 59.547C43.446 59.547 43.338 59.527 43.262 59.5C43.16 59.455 43.12 59.405 43.098 59.364C43.024 59.244 42.968 59.11 42.93 58.978C42.84 58.625 42.843 58.268 42.933 57.884C43.033 57.454 43.163 57.054 43.316 56.7C43.571 56.112 43.896 55.552 44.282 55.036C44.672 54.516 45.11 54.024 45.592 53.568C45.988 53.173 46.41 52.798 46.846 52.455C47.269 52.121 47.744 51.821 48.256 51.565C48.763 51.312 49.316 51.119 49.901 50.992C50.171 50.932 50.446 50.896 50.718 50.882L50.538 51.206C50.333 51.576 50.12 51.954 49.898 52.342C49.752 52.605 49.618 52.872 49.502 53.135C49.389 53.387 49.275 53.659 49.178 53.91ZM143.698 57.476C143.663 57.913 143.571 58.346 143.428 58.748C143.318 59.034 143.168 59.285 142.985 59.492C142.835 59.66 142.632 59.769 142.375 59.824C142.322 59.834 142.275 59.841 142.225 59.841C142.205 59.841 142.183 59.841 142.161 59.837C142.053 59.825 141.941 59.807 141.819 59.783L141.381 59.699C141.271 59.679 141.164 59.649 141.024 59.595C140.567 59.448 140.114 59.215 139.658 58.887C139.545 58.812 139.435 58.729 139.33 58.641C139.7 58.183 141.28 56.217 143.646 53.646C143.652 53.806 143.662 53.961 143.676 54.116C143.729 54.77 143.756 55.419 143.756 56.049C143.756 56.522 143.736 57.002 143.696 57.474L143.698 57.476ZM152.99 61.71C152.586 61.71 152.225 61.558 151.94 61.27C151.654 60.988 151.504 60.61 151.504 60.184C151.504 59.786 151.654 59.424 151.941 59.137C152.226 58.849 152.588 58.697 152.991 58.697C153.414 58.697 153.791 58.849 154.078 59.134C154.365 59.424 154.516 59.786 154.516 60.184C154.516 60.61 154.366 60.987 154.079 61.272C153.791 61.56 153.416 61.709 152.989 61.709L152.99 61.71Z" fill="black"/>
</svg>
