<svg width="200" height="100" viewBox="0 0 200 100" fill="none" xmlns="http://www.w3.org/2000/svg">
<path fill-rule="evenodd" clip-rule="evenodd" d="M24.075 43.934V49.174C23.158 48.009 22.199 47.532 21.961 47.399C21.026 46.875 20.624 46.059 21.961 45.257C22.349 45.022 23.411 44.707 24.076 43.933L24.075 43.934ZM35.569 33.324V59.46C36.347 59.68 37.099 59.845 37.801 59.97V32.875C37.076 32.975 36.319 33.117 35.568 33.325L35.569 33.324ZM28.826 37.216V55.683C29.433 56.263 30.099 56.819 30.816 57.32V35.625C30.079 36.135 29.418 36.671 28.826 37.215V37.216ZM33.59 34.029C33.1 34.257 32.64 34.503 32.198 34.757V58.167C32.606 58.387 33.023 58.587 33.458 58.76C33.702 58.857 33.945 58.945 34.188 59.03V33.778C33.986 33.855 33.785 33.938 33.591 34.03L33.59 34.029ZM39.184 32.726V60.18C40.952 60.4 42.144 60.123 42.144 60.123V32.69C42.144 32.69 40.891 32.6 39.184 32.727V32.726ZM25.456 41.403V51.471C25.948 52.287 26.616 53.251 27.448 54.223V38.64C26.594 39.62 25.943 40.572 25.456 41.404V41.403ZM49.55 43.49C51.05 41.927 53.167 40.83 55.14 40.82C59.562 40.792 62.64 43.693 63.046 48.817C63.533 54.987 61.056 60.842 52.084 61.207C50.064 61.29 46.469 60.851 45.218 60.692L45.316 32.289H49.554L49.55 43.489V43.49ZM51.458 57.823C57.008 57.788 59.066 53.976 58.28 48.899C57.75 45.459 56.65 44.609 54.33 44.717C51.41 44.852 49.59 48.154 49.554 49.754V57.834L51.458 57.822V57.823ZM79.024 44.702C78.917 44.702 72.89 44.745 69.964 44.745L70.004 50.6C71.436 50.693 73.256 50.922 74.387 51.193C75.517 51.463 76.137 51.763 76.915 52.247C78.138 53.004 78.685 53.807 79.151 54.859C79.623 55.933 79.994 57.301 79.909 59.283C79.857 60.548 79.307 62.223 78.519 63.373C77.731 64.523 75.979 65.999 74.599 66.66C73.567 67.15 71.649 67.713 70.087 67.883C68.675 68.036 65.221 67.631 65.117 67.631L65.157 63.964C65.157 63.964 68.64 64.366 69.965 64.176C71.285 63.98 71.683 63.843 72.533 63.458C73.533 62.994 75.065 61.648 75.065 58.821C75.065 56.885 73.882 55.788 72.745 55.027C71.758 54.369 69.291 54.099 68.025 54.059C67.848 54.059 65.603 54.142 65.495 54.142L65.579 40.532L79.067 40.572L79.025 44.704L79.024 44.702ZM83.06 46.207C83.06 44.185 83.118 42.55 83.035 40.965H87.397V43.188C88.883 41.66 90.959 40.258 94.295 40.258C96.115 40.258 98.068 40.941 98.932 43.202L99.148 43.525C99.461 43.23 100.784 41.991 101.652 41.495C102.936 40.762 105.447 40.085 107.312 40.422C110.494 41.002 112.269 41.62 112.267 48.825V60.145H107.931V49.345C107.931 45.623 107.644 44.265 105.208 44.265C103.105 44.265 102.024 45.06 100.908 46.459C100.13 47.431 100.062 48.646 99.998 50.503L99.942 60.143H95.692V48.588C95.692 45.538 95.24 44.058 92.482 44.058C90.256 44.058 88.748 45.501 87.955 47.208C87.722 47.712 87.399 48.851 87.399 49.803V60.146H83.019L83.061 46.208L83.06 46.207ZM118.952 51.215C119.035 55.893 121.392 57.493 125.016 57.493C127.612 57.493 129.221 56.968 130.54 56.411L131.112 59.288C129.832 59.843 127.432 61.032 124.259 61.032C118.156 61.032 114.621 56.597 114.621 50.852C114.621 45.062 118.208 40.502 124.021 40.502C130.531 40.502 132.221 46.014 132.221 49.542C132.221 50.252 132.181 50.77 132.095 51.166L118.951 51.216L118.952 51.215ZM127.617 47.858C127.617 46.124 126.967 43.634 123.717 43.634C120.901 43.634 119.567 45.44 119.279 47.858H127.616H127.617ZM152.218 32.083C152.218 32.083 152.26 58.836 152.384 60.145H147.642V58.688C147.642 58.688 144.879 61.101 141.135 61.031C136.312 60.941 133.969 56.947 133.969 51.121C133.927 44.699 138.835 40.491 142.922 40.501C146.012 40.511 147.642 40.793 147.642 40.793L147.572 32.083H152.217H152.218ZM147.655 49.779C147.735 47.963 147.655 44.976 147.531 44.499C147.531 44.499 146.464 43.807 143.744 43.851C140.782 43.898 138.531 46.045 138.35 50.875C138.198 54.795 139.733 57.117 141.466 57.547C143.824 58.14 145.796 56.572 146.621 55.092C147.373 53.752 147.576 51.592 147.656 49.778L147.655 49.779ZM158.506 38.11C156.993 38.11 155.799 36.772 155.799 35.62C155.799 34.39 157.039 33.13 158.399 33.13C159.716 33.13 160.937 34.32 160.921 35.547C160.889 37.895 158.505 38.111 158.505 38.111L158.506 38.11ZM156.122 60.145V40.965H160.508V60.145H156.122ZM179.79 56.305C179.79 57.969 179.693 58.835 179.898 60.145H175.738L175.41 57.705H175.288C174.216 59.209 172.348 61.031 169.502 61.031C165.465 61.031 163.084 57.825 163.084 55.051C163.084 50.413 167.374 47.874 175.08 47.916V47.52C175.08 45.93 174.884 43.594 170.803 43.634C168.906 43.634 166.465 44.239 165.063 45.152L164.846 42.01C166.496 41.018 169.156 40.386 171.67 40.386C177.81 40.386 179.79 42.821 179.79 46.666V56.306V56.305ZM174.916 51.325C170.958 51.245 167.339 52.079 167.339 55.221C167.339 56.739 169.501 57.713 170.693 57.606C172.315 57.458 174.11 56.086 174.699 54.463C175.132 53.275 174.915 51.326 174.915 51.326L174.916 51.325Z" fill="black"/>
</svg>
