<svg width="200" height="100" viewBox="0 0 200 100" fill="none" xmlns="http://www.w3.org/2000/svg">
<path fill-rule="evenodd" clip-rule="evenodd" d="M16.26 83.566C18.46 83.439 18.614 83.362 18.742 83.182C18.922 82.926 19.049 82.465 19.049 78.422V71.868C19.049 67.824 18.919 67.363 18.741 67.108C18.613 66.928 18.459 66.851 16.258 66.723V65.955C17.281 66.005 18.56 66.057 20.941 66.057C22.171 66.057 22.811 65.955 24.217 65.955C26.444 65.955 29.695 66.875 29.695 70.05C29.695 71.92 28.312 73.48 25.752 74.095V74.145C29.157 74.555 30.898 76.552 30.898 79.112C30.898 81.877 28.492 84.334 24.704 84.334C22.604 84.334 21.324 84.232 20.378 84.232C19.123 84.232 17.408 84.282 16.258 84.334V83.566H16.26ZM21.148 74.044C23.81 74.044 27.548 73.89 27.548 70.306C27.548 67.876 25.755 66.723 23.118 66.723C21.455 66.723 21.276 66.825 21.25 68.283L21.148 74.043V74.044ZM21.224 81.749C21.25 83.206 21.684 83.412 23.528 83.412C25.653 83.412 28.598 82.772 28.598 79.392C28.598 75.86 25.781 74.812 22.812 74.812C21.812 74.812 21.482 74.862 21.148 74.888L21.224 81.748V81.749ZM43.39 82.707C42.41 83.867 41.09 84.641 39.18 84.641C36.472 84.641 34.47 82.458 34.47 79.363C34.47 76.723 36.426 74.221 39.34 74.221C41.797 74.221 43.344 75.996 43.344 77.816V78.226C42.934 78.156 41.182 78.136 40.226 78.136H38.316C37.2 78.136 36.404 78.156 36.153 78.226C36.131 78.386 36.108 78.566 36.108 78.886C36.108 81.411 37.951 83.414 40.113 83.414C41.25 83.414 41.978 83.094 42.911 82.254L43.391 82.708L43.39 82.707ZM39.203 74.903C37.61 74.903 36.223 76.45 36.223 77.337C36.223 77.497 36.335 77.587 36.677 77.587L39.134 77.451C41.25 77.315 41.432 77.225 41.432 76.769C41.432 75.655 40.477 74.904 39.202 74.904L39.203 74.903ZM54.948 84.346C54.902 83.981 54.811 83.504 54.698 83.206C53.968 83.959 52.786 84.504 51.216 84.504C47.256 84.504 46.596 81.319 46.596 79.908C46.596 76.882 48.781 74.493 52.058 74.493C52.648 74.493 53.946 74.607 54.698 74.903V72.173C54.698 69.806 54.652 69.009 54.401 68.623C54.266 68.418 54.016 68.303 53.061 68.303V67.758C54.061 67.576 55.244 67.144 55.881 66.758H56.496C56.336 69.715 56.336 71.216 56.336 74.358V82.412C56.336 83.252 56.473 83.367 57.27 83.482L57.792 83.549V84.026C56.927 84.071 55.858 84.186 55.494 84.503L54.948 84.345V84.346ZM51.944 75.039C49.874 75.039 48.372 76.813 48.372 79.134C48.372 81.841 50.237 83.548 51.922 83.548C53.378 83.548 54.312 82.888 54.675 82.41C54.743 81.385 54.835 80.657 54.835 79.383C54.835 77.131 54.72 75.037 51.945 75.037L51.944 75.039ZM60.818 81.433H61.683C61.91 83.207 63.003 83.959 64.093 83.959C65.21 83.959 66.051 83.115 66.051 82.206C66.051 81.546 65.551 81.023 64.801 80.636L62.685 79.566C61.388 78.906 60.819 78.11 60.819 76.949C60.819 75.402 62.094 74.219 64.232 74.219C65.189 74.219 66.052 74.379 66.827 74.629L66.964 76.881H66.214C65.871 75.471 64.984 74.901 64.028 74.901C62.958 74.901 62.185 75.471 62.185 76.244C62.185 76.858 62.299 77.2 63.437 77.814L65.78 79.02C66.713 79.522 67.42 80.273 67.42 81.684C67.42 83.299 66.19 84.641 63.664 84.641C62.822 84.641 61.684 84.437 60.911 83.961L60.819 81.434L60.818 81.433ZM70.42 83.686L71.216 83.596C71.853 83.526 72.036 83.276 72.081 82.936C72.151 82.479 72.173 81.661 72.173 79.271C72.173 76.656 72.128 76.201 72.059 75.996C71.877 75.472 71.263 75.404 70.762 75.404V74.858C72.402 74.722 73.016 74.54 73.585 73.47H74.062C73.882 74.72 73.812 77.382 73.812 79.27C73.812 81.66 73.812 82.593 73.882 83.07C73.926 83.39 74.132 83.527 74.768 83.595L75.564 83.685V84.323C74.677 84.278 73.834 84.233 72.971 84.233C72.105 84.233 71.263 84.278 70.421 84.323V83.686H70.42ZM73.264 68.304C73.81 68.304 74.197 68.714 74.197 69.304C74.197 70.034 73.537 70.694 72.809 70.694C72.217 70.694 71.852 70.261 71.852 69.738C71.852 68.668 72.762 68.304 73.262 68.304H73.264ZM87.053 84.346C87.007 83.981 86.916 83.504 86.803 83.206C86.073 83.959 84.891 84.504 83.321 84.504C79.363 84.504 78.703 81.319 78.703 79.908C78.703 76.882 80.887 74.493 84.163 74.493C84.755 74.493 86.053 74.607 86.803 74.903V72.173C86.803 69.806 86.758 69.009 86.508 68.623C86.371 68.418 86.121 68.303 85.165 68.303V67.758C86.165 67.576 87.349 67.144 87.985 66.758H88.601C88.441 69.715 88.441 71.216 88.441 74.358V82.412C88.441 83.252 88.578 83.367 89.375 83.482L89.898 83.549V84.026C89.033 84.071 87.964 84.186 87.6 84.503L87.053 84.345V84.346ZM84.05 75.04C81.98 75.04 80.477 76.814 80.477 79.135C80.477 81.842 82.343 83.549 84.027 83.549C85.483 83.549 86.417 82.889 86.78 82.411C86.848 81.386 86.94 80.658 86.94 79.384C86.94 77.132 86.825 75.038 84.05 75.038V75.04ZM101.66 82.707C100.682 83.867 99.363 84.641 97.45 84.641C94.743 84.641 92.74 82.458 92.74 79.363C92.74 76.723 94.698 74.221 97.61 74.221C100.068 74.221 101.615 75.996 101.615 77.816V78.226C101.205 78.156 99.455 78.136 98.498 78.136H96.588C95.472 78.136 94.675 78.156 94.425 78.226C94.402 78.386 94.379 78.566 94.379 78.886C94.379 81.411 96.222 83.414 98.383 83.414C99.521 83.414 100.249 83.094 101.183 82.254L101.66 82.708V82.707ZM97.474 74.903C95.881 74.903 94.494 76.45 94.494 77.337C94.494 77.497 94.607 77.587 94.949 77.587L97.405 77.451C99.521 77.315 99.703 77.225 99.703 76.769C99.703 75.655 98.747 74.904 97.473 74.904L97.474 74.903ZM127.602 83.566C129.342 83.464 129.882 83.386 130.009 83.106C130.239 82.593 130.187 80.316 130.187 78.984C130.187 76.066 130.084 70.332 129.905 68.31H129.855C128.727 71.228 125.758 79.292 125.118 81.62C124.682 81.902 123.94 83.234 123.761 84.232H123.301C122.583 81.672 117.873 70.972 116.901 68.796H116.849C116.569 72.15 116.185 77.321 116.185 81.186C116.185 83.003 116.235 83.206 116.773 83.336C117.336 83.464 117.873 83.516 118.616 83.566V84.334C117.566 84.284 116.646 84.232 115.314 84.232C114.188 84.232 113.394 84.282 112.704 84.334V83.566C114.29 83.464 114.494 83.362 114.648 83.028C114.904 82.491 115.978 69.078 115.978 67.516C115.978 66.876 115.825 66.748 113.982 66.723H113.522V65.955C114.238 66.005 114.982 66.057 115.697 66.057C116.541 66.057 117.385 66.007 118.23 65.955C119.357 69.257 122.915 78.293 124.22 80.52C126.268 75.733 128.725 68.924 129.62 65.955C130.26 66.005 130.876 66.057 131.797 66.057C132.514 66.057 133.359 66.007 134.383 65.955V66.723L133.231 66.773C132.104 66.825 132.028 66.876 132.028 68.771C132.028 68.976 132.336 82.569 132.72 83.157C132.874 83.387 133.13 83.491 134.793 83.567V84.335C133.641 84.285 132.336 84.233 131.03 84.233C129.88 84.233 128.726 84.283 127.6 84.335V83.567L127.602 83.566ZM143.763 77.2C143.763 75.426 143.173 75.04 142.398 75.04C141.488 75.04 140.282 75.517 140.282 76.95C140.282 78.202 139.394 78.407 139.008 78.407C138.575 78.407 138.371 78.225 138.371 77.861C138.371 76.314 141.261 74.221 143.218 74.221C144.401 74.221 145.538 74.699 145.538 76.746C145.538 78.544 145.471 80.366 145.471 82.162C145.471 83.096 145.561 83.46 145.948 83.46C146.244 83.46 146.585 83.255 146.858 82.777L146.995 83.347C146.722 83.983 145.948 84.643 145.357 84.643C144.743 84.643 144.264 84.371 143.764 82.961C142.217 84.281 141.17 84.644 140.306 84.644C138.963 84.644 138.28 83.712 138.28 82.62C138.28 81.096 139.735 79.845 143.763 78.32V77.2ZM143.763 78.93C141.397 79.886 140.053 80.933 140.053 82.23C140.053 82.912 140.578 83.413 141.373 83.413C142.216 83.413 143.239 82.889 143.581 82.207C143.651 82.07 143.764 81.457 143.764 80.977V78.93H143.763ZM153.705 74.903C154.207 74.583 155.071 74.22 156.163 74.22C158.12 74.22 159.371 75.176 159.371 77.793C159.371 78.976 159.236 81.706 159.236 82.616C159.236 83.39 159.281 83.526 159.896 83.596L160.624 83.686V84.323C160.032 84.278 159.304 84.233 158.416 84.233C157.393 84.233 156.596 84.278 155.914 84.323V83.686L157.051 83.549C157.597 83.479 157.734 83.299 157.734 79.771C157.734 79.157 157.711 78.041 157.62 77.155C157.483 75.812 156.368 75.311 155.435 75.311C154.365 75.311 153.525 75.811 152.682 76.403V82.501C152.682 83.229 152.727 83.526 153.342 83.594L154.297 83.684V84.322C153.569 84.299 152.704 84.232 151.862 84.232C150.839 84.232 150.112 84.299 149.405 84.322V83.685L150.385 83.595C150.998 83.525 151.043 83.229 151.043 82.501V76.86C151.043 76.154 150.816 75.927 149.746 75.744V75.198C150.884 75.13 151.544 74.675 152.022 73.788H152.545V75.928H152.568L153.705 74.903ZM168.996 74.22C172.568 74.22 174.116 76.79 174.116 79.27C174.116 81.842 172.181 84.64 168.882 84.64C165.582 84.64 163.762 81.842 163.762 79.385C163.762 76.45 166.082 74.22 168.996 74.22ZM172.204 80.113C172.136 77.223 171.044 75.017 168.768 74.903C166.925 74.903 165.674 76.791 165.674 78.953C165.674 81.228 166.879 83.959 169.314 83.959C171.954 83.959 172.204 81.249 172.204 80.112V80.113ZM177.37 83.686L178.325 83.596C178.939 83.526 178.985 83.23 178.985 82.502V76.86C178.985 76.154 178.757 75.927 177.687 75.744V75.198C178.825 75.13 179.485 74.675 179.963 73.788H180.487V75.928C181.577 74.903 182.647 74.22 183.353 74.22C184.4 74.22 184.741 75.47 184.741 75.813C184.741 76.223 184.561 76.587 183.991 76.587C182.741 76.587 182.899 75.449 182.308 75.449C182.125 75.449 181.443 75.879 180.624 76.609V82.592C180.624 83.298 180.714 83.526 181.716 83.594L182.831 83.684V84.322C181.921 84.277 181.011 84.232 180.101 84.232C179.191 84.232 178.281 84.277 177.371 84.322V83.685L177.37 83.686ZM99.382 14.924C86.552 14.924 76.152 25.324 76.152 38.152C76.152 39.812 76.33 41.43 76.662 42.992C77.304 40.839 78.472 38.745 80.16 36.732C82.66 33.742 85.967 31.292 89.99 29.448C94.012 27.605 98.057 26.671 102.01 26.671C104.913 26.671 107.414 27.151 109.445 28.091C112.065 26.719 112.739 26.559 113.017 26.559C113.21 26.559 113.417 26.675 113.417 27.001C113.417 27.295 113.117 27.543 112.471 27.779C111.623 28.119 110.919 28.432 110.376 28.711C112.164 29.891 113.07 31.509 113.07 33.527C113.07 35.164 112.45 36.599 111.23 37.79C110.096 38.92 108.547 39.755 106.622 40.274C108.119 40.714 109.324 41.416 110.208 42.367C111.234 43.469 111.755 44.813 111.755 46.361C111.755 48.518 110.873 50.479 109.135 52.191C107.395 53.901 105.289 54.766 102.875 54.766C101.24 54.766 99.912 54.326 98.925 53.458C97.933 52.584 97.43 51.438 97.43 50.055C97.43 48.113 98.38 46.495 100.254 45.245C101.611 44.328 102.758 43.865 103.664 43.865C103.766 43.865 104.104 43.902 104.104 44.391C104.104 44.528 104.104 44.591 102.569 45.379C101.425 45.922 100.534 46.524 99.914 47.172C98.994 48.148 98.526 49.292 98.526 50.572C98.526 52.265 99.604 53.088 101.823 53.088C103.388 53.088 104.945 52.252 106.451 50.602C107.964 48.947 108.731 47.137 108.731 45.222C108.731 43.994 108.401 42.979 107.751 42.204C107.106 41.432 106.218 40.97 105.111 40.831C104.159 41.091 103.339 41.225 102.746 41.225C102.126 41.225 101.786 40.915 101.786 40.352C101.786 39.914 102.028 39.392 103.184 39.392C103.689 39.392 104.234 39.479 104.804 39.652C106.167 39.644 107.377 39.024 108.349 37.799C109.334 36.561 109.834 35.033 109.834 33.255C109.834 32.048 109.371 30.94 108.46 29.96C106.403 31.254 103.918 34.118 101.074 38.477C97.227 44.369 94.69 48.03 93.531 49.36C90.407 52.948 87.141 54.767 83.825 54.767C83.585 54.767 83.355 54.754 83.125 54.739C87.315 58.846 93.051 61.382 99.383 61.382C112.21 61.382 122.609 50.982 122.609 38.154C122.609 25.326 112.209 14.926 99.383 14.926L99.382 14.924Z" fill="black"/>
<path fill-rule="evenodd" clip-rule="evenodd" d="M84.727 53.694C87.097 53.694 89.583 52.109 92.117 48.982C92.379 48.692 94.761 45.249 99.203 38.742C102.166 34.374 104.965 31.196 107.528 29.289C105.941 28.224 103.88 27.684 101.398 27.684C95.263 27.684 89.93 29.729 85.548 33.764C81.398 37.589 79.295 42.002 79.295 46.88C79.295 49.002 79.793 50.688 80.777 51.892C81.749 53.088 83.079 53.694 84.727 53.694Z" fill="black"/>
</svg>
