<svg xmlns="http://www.w3.org/2000/svg" focusable="false" role="img" viewBox="0 0 200 100" fill="currentColor">
  <path fill-rule="evenodd" d="M132 18v62.6c0 .8-.6 1.4-1.4 1.4H69.4c-.8 0-1.4-.6-1.4-1.4V18h64zM89.067 59.96v-8.3h-4v14.5c0 4.4 3.3 8 7.9 8 4.7 0 7.9-3.6 7.9-8s-3.3-8-7.3-8c-1.8 0-3.3.6-4.5 1.8zm0 6.2c0-2.4 1.7-4.4 3.9-4.4s3.9 1.9 3.9 4.4c0 2.4-1.7 4.3-3.9 4.3-2.1 0-3.9-1.9-3.9-4.3zm18.099-7.6h2.8v3.5h-2.8v11.8h-3.9v-15.1c0-4.1 2.4-7.1 6.8-6.6v3.7c-1.8-.2-2.8.6-2.9 2.7zm18.4 10.4c0 3-2.8 5.2-6.7 5.2-3.9 0-6.8-2.1-7.3-5.4h4c.5 1.3 2.1 1.8 3.3 1.8 1.6 0 2.8-.5 2.8-1.4 0-.9-.5-1.2-3.2-1.6-2.7-.4-6.4-1.2-6.4-4.6 0-2.4 2.1-4.9 6.6-4.9 3.5 0 6.1 1.9 6.6 4.8h-4.2c-.2-.7-1.1-1.3-2.6-1.3-1.8 0-2.6.7-2.6 1.2 0 .8 1.1 1.1 3 1.4 3.9.7 6.7 1.5 6.7 4.8z" clip-rule="evenodd"/>
</svg>
