<svg width="200" height="100" viewBox="0 0 200 100" fill="none" xmlns="http://www.w3.org/2000/svg">
<path fill-rule="evenodd" clip-rule="evenodd" d="M17.3101 49.975V49.925C19.9821 49.368 21.6831 48.155 21.6831 45.723C21.6831 42.46 18.6461 41.271 14.2431 41.271H8.50305V58.934H14.1531C18.4631 58.934 22.2291 58.024 22.2291 54.228C22.2291 51.748 20.1931 50.178 17.3091 49.976L17.3101 49.975ZM11.5401 43.345H14.7281C16.4901 43.345 18.6461 43.878 18.6461 45.978C18.6461 48.584 16.1561 48.811 13.2111 48.811H11.5411V43.347L11.5401 43.345ZM13.8181 56.859H11.5401V50.885H13.5141C16.1241 50.885 19.0101 51.265 19.0101 53.998C19.0101 56.376 16.5501 56.858 13.8181 56.858V56.859ZM26.5001 41H29.5361V58.662H26.5001V41ZM44.495 50.127V50.077C46.955 49.723 48.868 48.204 48.868 46.052C48.868 41.827 44.8281 41.272 40.6381 41.272H35.4461V58.932H38.482V51.09H40.3051C41.9151 51.09 42.915 51.09 43.857 52.812L47.107 58.935H50.5671L46.5601 51.9C45.8921 50.81 45.437 50.43 44.495 50.127ZM41.065 48.862H38.4801V43.497H41.396C44.189 43.497 45.646 44.51 45.646 46.104C45.646 47.799 43.946 48.862 41.062 48.862H41.065ZM50.7631 43.497H57.3531V58.933H60.3891V43.497H66.979V41.27H50.7621V43.497H50.7631ZM82.9961 48.66H72.854V41.27H69.8171V58.933H72.854V50.886H82.9961V58.933H86.0321V41.27H82.9961V48.66ZM114.756 41C113.898 41 112.934 41.285 112.183 41.75C112.541 43 112.613 44.358 112.613 45.858C112.613 50.788 108.289 57.504 105.433 57.504C103.823 57.504 103.539 55.861 104.253 52.574L106.753 41.322L103.681 41.536C102.504 46.036 101.468 50.361 99.3961 53.504C97.9311 55.718 96.2521 57.504 94.8231 57.504C93.8931 57.504 93.215 56.684 93.715 54.611L96.8591 41.181L96.6791 41.001L90.2861 42.001L90.1061 42.858L92.2861 43.038C93.0721 43.108 93.1081 43.501 92.8221 44.753L90.5721 54.505C89.787 57.898 91.1091 59.365 93.1091 59.365C96.0741 59.365 99.2541 56.292 101.397 52.005L101.469 52.075C101.219 53.361 100.897 54.899 100.897 55.898C100.897 57.862 101.754 59.364 103.897 59.364C106.863 59.364 109.543 56.614 111.864 53.219C114.224 49.789 115.83 45.895 115.866 43.787C115.866 42.322 115.044 41.001 114.758 41.001L114.756 41ZM130.72 57.504C130.007 57.504 130.042 56.684 130.363 55.54L134.151 41.285H131.151L130.971 41.749C130.364 41.321 129.328 40.999 128.363 40.999C119.861 40.999 115.788 50.394 115.788 55.109C115.788 57.254 116.788 59.362 119.218 59.362C123.041 59.362 126.363 54.932 128.435 51.287H128.507L127.292 55.359C126.542 57.896 126.936 59.362 128.865 59.362C131.58 59.362 133.581 56.932 134.795 54.218L133.938 53.716C133.294 54.966 131.724 57.502 130.723 57.502L130.72 57.504ZM126.79 52.074C124.79 55.111 122.612 57.504 120.897 57.504C119.717 57.504 119.324 56.397 119.324 55.004C119.324 51.074 122.824 42.251 128.434 42.251C129.294 42.251 130.078 42.537 130.614 43.037C129.971 45.681 128.684 49.217 126.791 52.077L126.79 52.074ZM152.11 41C151.255 41 150.255 41.285 149.504 41.75C149.862 43 149.932 44.358 149.932 46.216C149.646 51.11 145.038 57.612 142.109 57.504C141.215 57.504 140.571 56.719 140.964 55.004L144.072 41.179L143.895 40.999L137.571 41.999L137.356 42.856L139.571 43.036C140.394 43.106 140.358 43.571 140.107 44.751L137.927 54.681C137.214 57.931 138.357 59.361 140.394 59.361C143.464 59.361 146.574 56.503 149.038 53.181C151.466 49.894 153.181 46.001 153.218 43.785C153.218 42.392 152.395 40.999 152.108 40.999L152.11 41ZM167.326 48.002C168.576 46.752 168.826 45.572 168.826 44.572C168.826 42.679 167.326 41 164.398 41C161.182 41 158.538 42.644 156.573 45.073C154.68 47.393 153.608 50.503 153.608 53.503C153.608 58.505 156.858 59.363 158.93 59.363C161.54 59.363 164.683 58.219 167.112 54.253L166.29 53.539C165.004 55.219 163.075 57.611 160.396 57.611C157.894 57.611 157.144 55.467 157.144 52.645C157.144 52.467 157.144 52.323 157.18 52.075C163.182 50.858 165.79 49.429 167.326 48.001V48.002ZM163.396 42.252C164.646 42.252 165.468 43.107 165.468 44.358C165.468 46.86 163.29 49.574 157.252 50.858C157.858 46.538 160.539 42.251 163.397 42.251L163.396 42.252ZM177.467 41C173.824 41 171.68 43.36 171.68 46.252C171.68 48.109 172.965 49.752 174.824 51.252C176.36 52.468 177.289 54.039 177.289 55.432C177.289 57.112 176.216 58.112 174.715 58.112C173.395 58.112 172.072 57.005 171.5 55.112C171.287 54.432 170.965 54.039 170.36 54.039C169.287 54.039 168.5 55.002 168.5 55.969C168.5 57.503 170.465 59.362 173.86 59.362C177.718 59.362 180.04 56.896 180.04 53.966C180.04 52.002 179.146 50.466 176.753 48.501C174.609 46.751 174.217 45.571 174.217 44.571C174.217 43.428 175.109 42.251 176.43 42.251C177.61 42.251 178.538 43.035 179.29 44.715C179.47 45.143 179.754 45.429 180.29 45.429C181.003 45.429 182.004 44.892 182.004 43.785C182.004 42.678 180.646 40.999 177.467 40.999V41ZM190.79 41.74L189.96 43.915L189.116 41.739H188.203V44.959H188.793V42.496H188.807L189.713 44.96H190.193L191.1 42.497H191.115V44.961H191.705V41.741H190.789L190.79 41.74ZM184.872 42.282H185.862V44.962H186.452V42.282H187.444V41.739H184.872V42.281V42.282Z" fill="black"/>
</svg>
