<svg xmlns="http://www.w3.org/2000/svg" focusable="false" role="img" viewBox="0 0 200 100" fill="currentColor">
  <path d="M49.55 43a6.649 6.649 0 00-5.45 2.44V34.32h-8.33V39h2.07v24.25h6.06v-2.11a6.73 6.73 0 005.65 2.64c5.26 0 9.17-4.56 9.17-10.41 0-5.85-3.91-10.37-9.17-10.37zM48 57.9a4.2 4.2 0 01-4.2-4.51 4.22 4.22 0 118.41 0A4.18 4.18 0 0148 57.9zM80.63 43c-6.16 0-10.69 4.42-10.69 10.38 0 5.96 4.51 10.4 10.69 10.4s10.71-4.42 10.71-10.4S86.8 43 80.63 43zm0 14.91a4.241 4.241 0 01-4.26-4.51 4.27 4.27 0 118.53 0 4.22 4.22 0 01-4.27 4.5v.01zm27.23-12.31a6.6 6.6 0 00-5.51-2.6c-5.29 0-9.15 4.4-9.15 10s3.86 9.95 9.15 9.95a6.44 6.44 0 005.42-2.5v1.22c0 3.14-2.39 4.55-5 4.55a10.55 10.55 0 01-6.32-2l-2.24 5a16 16 0 009 2.51c6.46 0 10.7-3.84 10.7-10.32V43.54h-6.09v2.05l.04.01zm-4 11.6a4.219 4.219 0 010-8.43 4.219 4.219 0 010 8.43z"/>
  <path d="M135.25 34.32H111.9v6.22h8.33v22.71h6.71V40.54h8.31v-6.22zm14.15.29c-8.68 0-14.82 6.16-14.82 14.58s6.14 14.58 14.82 14.58 14.83-6.17 14.83-14.58-6.15-14.58-14.83-14.58zm0 22.73c-4.58 0-7.84-3.34-7.84-8.15 0-4.81 3.26-8.19 7.84-8.19s7.85 3.34 7.85 8.16-3.25 8.18-7.85 8.18zm-90.25-23V39h2v24.25h6.29V34.32l-8.29.02z"/>
</svg>
