<svg width="200" height="100" viewBox="0 0 200 100" fill="none" xmlns="http://www.w3.org/2000/svg">
<path fill-rule="evenodd" clip-rule="evenodd" d="M79.02 45.715C79.02 42.688 77.197 41.863 75.96 41.863C75.1 41.863 74.72 41.966 74.62 42.069C74.447 42.171 74.412 42.894 74.412 43.822V49.738H75.512C77.507 49.738 79.022 48.463 79.022 45.713L79.02 45.715ZM76.586 44.48L76.606 44.037H76.616C76.789 44.037 76.996 44.071 77.201 44.163C77.381 44.513 77.505 45.003 77.505 45.715C77.505 47.071 77.067 47.683 76.587 47.967V44.48H76.586ZM21.146 45.715C21.146 42.688 19.324 41.863 18.086 41.863C17.226 41.863 16.848 41.966 16.746 42.069C16.572 42.171 16.538 42.894 16.538 43.822V49.738H17.638C19.633 49.738 21.146 48.463 21.146 45.713V45.715ZM18.713 44.48L18.731 44.037H18.745C18.895 44.037 19.11 44.067 19.331 44.172C19.509 44.52 19.631 45.008 19.631 45.715C19.631 47.071 19.193 47.682 18.714 47.965V44.48H18.713ZM59.678 47.816C59.054 47.816 58.176 48.75 58.148 51.101L60.668 51.018C61.15 51.018 61.263 50.904 61.263 50.423C61.263 49.177 60.383 47.817 59.678 47.817V47.816ZM17.536 51.32H16.538V57.1C16.538 60.196 17.295 60.815 18.568 60.78C19.944 60.78 22.04 59.645 22.04 56.275C22.04 52.802 19.944 51.323 17.536 51.323V51.32ZM18.802 59.236C18.755 58.906 18.712 58.436 18.712 57.756V53.564C19.142 53.617 19.57 53.749 19.948 53.994C20.295 54.504 20.523 55.226 20.523 56.274C20.523 58.388 19.503 59.107 18.803 59.236H18.802ZM114.728 47.816C114.104 47.816 112.462 48.354 112.462 52.32C112.462 56.426 114.416 57.388 115.096 57.388C115.606 57.388 115.946 57.19 116.226 56.936V48.75C115.776 48.128 115.294 47.816 114.728 47.816ZM114.711 54.176C114.666 53.828 114.637 53.432 114.637 52.976C114.637 52.482 114.667 52.074 114.712 51.726V54.176H114.711ZM75.41 51.32H74.412V57.1C74.412 60.196 75.168 60.815 76.442 60.78C77.816 60.78 79.914 59.645 79.914 56.275C79.914 52.802 77.816 51.323 75.409 51.323L75.41 51.32ZM76.676 59.236C76.628 58.906 76.586 58.436 76.586 57.756V53.564C77.016 53.617 77.443 53.748 77.822 53.994C78.169 54.504 78.397 55.226 78.397 56.274C78.397 58.387 77.377 59.106 76.677 59.236H76.676ZM182.103 55.067C182.103 56.624 183.207 57.305 183.718 57.305C183.916 57.305 184.284 57.219 184.596 57.049V52.404C183.973 52.63 183.606 52.8 183.179 53.054C182.442 53.451 182.102 54.131 182.102 55.066L182.103 55.067ZM133.475 41.863C132.34 41.863 132.271 42.033 132.271 43.1V51.63C132.686 51.767 133.201 51.905 133.751 51.905C134.853 51.905 136.984 51.08 136.984 46.54C136.984 42.963 135.024 41.863 133.476 41.863H133.475ZM134.445 50.093V44.113C134.638 44.149 134.812 44.223 134.975 44.317C135.291 44.84 135.467 45.583 135.467 46.54C135.467 48.556 134.999 49.632 134.445 50.093Z" fill="black"/>
<path fill-rule="evenodd" clip-rule="evenodd" d="M192.1 55.77L191.706 55.907L191.44 55.112L190.99 55.269V50.68C190.99 49.578 190.802 48.012 189.364 46.833C189.129 46.536 188.849 46.25 188.487 45.989C187.37 45.175 186.111 44.826 184.284 44.826H184.17L184.056 44.843C181.934 45.166 179.57 46.203 178.336 47.083L177.466 45.823H177.264L176.814 45.165H168.424L168.161 45.147L167.958 44.541H164.903L164.606 45.785L164.182 45.165H155.792L155.532 45.147L155.326 44.541H152.272L152.112 45.208L151.478 45.314V45.034C152.635 44.05 153.358 42.668 153.358 41.134C153.358 38.144 150.628 35.722 147.258 35.722C144.258 35.722 141.768 37.644 141.258 40.174C139.593 39.096 137.453 38.624 134.2 38.624H122.85V38.296L122.194 38.406V37.638L118.577 38.242L113.001 39.117L112.957 40.42V42.818L113.614 42.882V43.478L114.712 43.583V44.883C112.49 45.009 110.409 45.818 108.844 47.205C108.627 46.832 108.344 46.51 108.01 46.245C107.385 45.375 106.375 44.825 105.18 44.825C104.626 44.825 104.102 44.94 103.61 45.16V44.444L101.76 44.861C99.843 45.294 98.2 45.641 95.974 45.851L95.912 45.856V45.204L95.467 45.279C95.851 44.669 96.083 43.949 96.083 43.175C96.083 41.888 95.491 40.775 94.57 40.052C93.847 39.132 92.733 38.537 91.445 38.537C89.249 38.537 87.463 40.323 87.463 42.517C87.463 43.77 88.055 44.874 88.96 45.605L87.042 45.925V45.89C87.042 44.32 86.598 42.594 85.102 41.3C83.838 39.765 81.457 38.625 77.165 38.625H64.915V42.865L65.573 42.927V43.521L66.947 43.651C67.029 43.659 67.173 43.674 67.324 43.694C67.388 44.337 67.392 45.26 67.392 45.647V50.317C67.088 49.013 66.352 47.912 65.402 47.087C64.174 45.677 62.368 44.827 60.669 44.827C57.589 44.827 54.902 46.542 53.439 49.083V45.447L52.781 45.52V44.79L50.773 45.012L44.993 45.52V44.822L37.491 45.504V38.298L36.833 38.408V37.64L33.208 38.245L27.638 39.119L27.595 40.422V41.65C27.479 41.53 27.355 41.413 27.225 41.3C25.962 39.765 23.58 38.625 19.287 38.625H7.04V42.865L7.698 42.927V43.521L9.073 43.651C9.155 43.659 9.299 43.674 9.451 43.694C9.516 44.337 9.519 45.26 9.519 45.647V56.995C9.519 57.521 9.515 59.05 9.352 59.477C9.114 59.563 8.46 59.624 8.224 59.645L6.837 59.763V64.016H7.493V64.673H18.918C22.298 64.673 24.808 64.167 26.596 63.123C27.373 62.663 28.018 62.133 28.561 61.548H39.137V59.858C39.19 59.908 39.247 59.955 39.303 60.001C40.273 61.197 41.823 61.886 43.768 61.886C44.156 61.886 44.826 61.756 46.023 61.059L47.355 61.999L48.015 61.849C50.163 61.359 51.913 61.085 53.881 60.825L55.198 60.65V59.75C56.602 61.1 58.578 61.885 60.904 61.885C61.764 61.885 63.224 61.558 64.714 60.547V64.015H65.369V64.672H76.79C80.168 64.672 82.68 64.166 84.466 63.122C85.416 62.562 86.188 61.904 86.786 61.156V61.546H106.503V57.596C106.503 57.596 106.21 57.556 105.846 57.509V56.939L104.406 56.746V52.613C104.87 52.761 105.778 53.047 105.778 53.047C105.892 53.047 106.008 53.022 106.122 53.009C106.122 53.061 106.115 53.113 106.115 53.166C106.115 53.352 106.121 53.539 106.135 53.726V53.733C106.135 56.14 107.193 58.001 108.638 59.267C110.172 60.979 112.385 61.884 114.196 61.884C114.609 61.884 114.992 61.818 115.368 61.69V62.44L117.284 61.917C119.094 61.423 121.218 61.147 122.466 60.994V64.014H123.123V64.672H137.575V60.402L136.918 60.352V59.744L135.51 59.641C135.29 59.627 134.856 59.595 134.49 59.546C134.446 58.959 134.445 58.066 134.445 57.652V55.909C134.739 55.975 135.365 56.119 135.365 56.119L136.645 56.069C139.963 55.774 142.54 54.285 143.993 51.999V56.343L143.976 56.718L142.414 56.961L142.351 58.269V60.892H143.009V61.549H177.651L178.173 59.989C179.205 61.172 180.771 61.887 182.621 61.887C183.395 61.887 184.093 61.439 185.056 60.82C185.796 61.49 186.768 61.887 187.944 61.887H188.278L193.351 59.534L192.101 55.774L192.1 55.77ZM25.17 61.156C23.52 62.12 21.112 62.498 18.258 62.498H8.352V61.156C10.76 60.95 11.036 60.712 11.036 56.996V45.646C11.036 41.932 10.76 41.691 8.558 41.486V40.14H19.288C24.138 40.14 26.993 41.55 26.993 45.23C26.993 48.223 24.139 49.806 22.178 50.046V50.116C25.48 50.492 28.266 52.316 28.266 55.926C28.266 58.436 27.028 60.054 25.171 61.153L25.17 61.156ZM28.14 51.401C27.817 51.031 27.46 50.683 27.052 50.378C28.294 49.288 29.168 47.773 29.168 45.892C29.168 45.12 29.058 44.31 28.775 43.532L29.352 43.587V52.797C29.018 52.282 28.612 51.817 28.139 51.402L28.14 51.401ZM36.96 59.371H29.227V58.267C30.729 58.097 30.869 57.957 30.869 56.342V43.257C30.869 41.587 30.812 41.557 29.113 41.444V40.424C30.671 40.226 32.908 39.828 35.316 39.432V56.342C35.316 57.957 35.458 58.099 36.959 58.268V59.373L36.96 59.371ZM37.492 56.815V50.197L37.512 50.201V55.889C37.512 56.215 37.542 56.527 37.584 56.829L37.492 56.815ZM53.022 58.665C51.096 58.918 49.255 59.203 47.017 59.712L46.819 59.572V57.73L45.175 58.75C44.185 59.402 43.475 59.713 43.107 59.713C40.361 59.713 39.029 58.1 39.029 55.891V49.631C39.029 48.584 38.747 48.357 38.123 48.244L37.528 48.132V47.026C39.255 46.941 41.946 46.658 43.475 46.488V55.156C43.475 56.628 44.185 57.223 45.005 57.223C45.458 57.223 46.222 56.911 46.817 56.343V49.633C46.817 48.583 46.533 48.357 45.937 48.243L45.202 48.131V47.025C47.298 46.94 49.732 46.657 51.262 46.487V56.032C51.262 57.249 51.375 57.562 52.282 57.562H53.019V58.666L53.022 58.665ZM64.662 52.121C64.237 52.207 60.809 52.491 58.09 52.603C58.148 55.153 60.073 56.681 61.66 56.681C62.736 56.681 63.613 56.314 64.775 55.605L65.313 56.512C63.528 59.089 61.207 59.712 60.243 59.712C56.249 59.712 53.786 56.995 53.786 53.454C53.786 49.574 56.844 46.344 60.669 46.344C62.934 46.344 65.369 48.328 65.369 50.99C65.369 51.952 65.255 52.01 64.661 52.122L64.662 52.121ZM63.712 54.465C62.848 54.965 62.276 55.163 61.662 55.163C61.409 55.163 61.126 55.061 60.852 54.881C60.802 54.811 60.746 54.753 60.702 54.677C61.762 54.614 62.832 54.537 63.712 54.465ZM91.442 40.057C92.83 40.057 93.906 41.132 93.906 42.52C93.906 43.878 92.83 44.984 91.442 44.984C90.112 44.984 88.977 43.878 88.977 42.519C88.977 41.129 90.111 40.055 91.442 40.055V40.057ZM67.392 52.863V56.591L65.956 54.173C66.791 53.926 67.206 53.449 67.392 52.863ZM65.726 54.236C65.803 54.219 65.871 54.198 65.942 54.176L65.757 54.289L65.727 54.236H65.726ZM65.804 59.669C66.294 59.213 66.774 58.675 67.217 58.033L67.384 57.793C67.37 58.431 67.332 59.193 67.224 59.477C66.986 59.563 66.332 59.624 66.096 59.645L65.804 59.669ZM83.044 61.156C81.394 62.12 78.986 62.498 76.131 62.498H66.227V61.156C68.635 60.95 68.909 60.712 68.909 56.996V45.646C68.909 41.932 68.635 41.691 66.433 41.486V40.14H77.163C82.013 40.14 84.868 41.55 84.868 45.23C84.868 48.223 82.014 49.806 80.053 50.046V50.116C83.355 50.492 86.14 52.316 86.14 55.926C86.14 58.436 84.902 60.054 83.045 61.153L83.044 61.156ZM86.011 51.4C85.691 51.028 85.334 50.682 84.926 50.377C85.388 49.972 85.798 49.51 86.131 48.989V49.626L86.788 49.726V50.282C86.788 50.282 87.316 50.362 87.774 50.434V53.802C87.384 52.875 86.781 52.072 86.012 51.398L86.011 51.4ZM95.381 59.37H87.648V58.266C89.148 58.096 89.291 57.956 89.291 56.341V50.281C89.291 48.553 89.234 48.525 87.648 48.327V47.365C89.346 47.138 91.642 46.741 93.738 46.345V56.342C93.738 57.957 93.878 58.099 95.381 58.268V59.373V59.37ZM163.981 51.813L163.884 52.221L165.244 52.674L166.37 53.014L165.69 54.178L165.145 53.992L163.115 53.212C163.385 52.734 163.657 52.259 163.921 51.795L163.981 51.815V51.813ZM152.131 52.513L152.611 52.673L153.739 53.013L152.132 55.763V52.513H152.131ZM147.256 37.387C149.716 37.387 151.719 39.067 151.719 41.134C151.719 43.201 149.717 44.882 147.256 44.882C144.796 44.882 142.796 43.202 142.796 41.134C142.796 39.068 144.796 37.387 147.256 37.387ZM95.91 50.385L96.27 50.44V56.37L96.254 56.703L95.91 56.755V50.385ZM105.122 50.875C104.812 50.875 104.582 50.789 104.385 50.648C103.847 50.252 103.45 49.968 103.025 49.968C102.685 49.968 102.345 50.168 102.233 50.733V56.369C102.233 57.954 102.373 58.096 104.329 58.265V59.37H96.057V58.266C97.643 58.096 97.785 57.956 97.785 56.369V50.279C97.785 48.551 97.728 48.523 96.115 48.325V47.363C98.522 47.136 100.335 46.739 102.09 46.343V48.807H102.148C102.458 48.297 102.854 47.701 103.308 47.22C103.791 46.712 104.385 46.343 105.178 46.343C106.368 46.343 107.161 47.249 107.161 48.353C107.161 50.083 105.887 50.875 105.123 50.875H105.122ZM122.489 58.719C121.749 58.832 118.719 59.116 116.226 59.795V58.265L115.01 59.171C114.387 59.625 113.964 59.711 113.54 59.711C111.13 59.711 107.647 57.671 107.647 53.621C107.364 49.571 110.875 46.341 115.294 46.341C115.577 46.341 115.946 46.426 116.227 46.483V43.255C116.227 41.585 116.172 41.555 114.472 41.442V40.422C116.03 40.224 118.269 39.826 120.675 39.43V56.17C120.675 57.445 120.845 57.53 121.611 57.587L122.491 57.644V58.719H122.489ZM122.849 56.146V42.883L123.293 42.926V43.519L124.666 43.649C124.741 43.657 124.872 43.671 125.01 43.689C125.076 44.333 125.08 45.256 125.08 45.645V56.993C125.08 57.521 125.074 59.05 124.912 59.483C124.852 59.505 124.765 59.523 124.666 59.543L124.662 59.376V56.876L124.006 56.834V56.219L122.849 56.146ZM135.849 53.9C135.469 53.935 135.125 53.935 134.851 53.935L132.271 53.35V56.994C132.271 60.711 132.544 60.949 135.399 61.154V62.497H123.982V61.155C126.322 60.949 126.595 60.711 126.595 56.995V45.645C126.595 41.931 126.321 41.69 124.155 41.485V40.14H134.197C137.429 40.14 139.321 40.623 140.697 41.62C142.175 42.686 143.137 44.268 143.137 46.572C143.137 51.18 139.699 53.554 135.847 53.899L135.849 53.9ZM151.599 59.37H143.867V58.266C145.367 58.096 145.509 57.956 145.509 56.341V50.281C145.509 48.553 145.453 48.525 143.867 48.327V47.365C145.567 47.138 147.861 46.741 149.957 46.345V56.342C149.957 57.957 150.097 58.099 151.6 58.268V59.373L151.599 59.37ZM163.267 59.37H152.504L152.109 58.805L158.369 48.099H157.036C155.223 48.099 154.716 48.551 154.036 49.939L153.609 50.931L152.391 50.561C152.731 49.288 153.186 47.331 153.467 46.058H154.232C154.374 46.482 154.685 46.681 155.79 46.681H163.38L163.75 47.219L157.633 57.954H159.076C161.286 57.954 161.966 57.501 162.956 55.859L163.496 54.979L164.6 55.405C164.09 57.133 163.694 58.293 163.268 59.37H163.267ZM175.9 59.37H165.14L164.743 58.805L171 48.1H169.67C167.857 48.1 167.348 48.552 166.668 49.94L166.243 50.932L165.025 50.562C165.365 49.289 165.818 47.332 166.1 46.059H166.866C167.008 46.483 167.319 46.682 168.423 46.682H176.013L176.383 47.22L170.265 57.955H171.708C173.918 57.955 174.598 57.502 175.588 55.86L176.128 54.98L177.231 55.406C176.721 57.134 176.327 58.294 175.901 59.371L175.9 59.37ZM176.69 53.572L175.746 53.209L176.808 51.346C177.024 51.716 177.328 52.026 177.674 52.284C177.684 52.299 177.696 52.314 177.708 52.329C177.312 52.663 176.958 53.069 176.688 53.571L176.69 53.572ZM187.287 59.712C185.814 59.712 185.077 58.947 184.767 58.154C183.605 58.804 182.472 59.711 181.962 59.711C179.215 59.711 177.714 57.844 177.714 55.691C177.714 54.076 178.534 53.226 180.29 52.575C181.793 52.008 183.69 51.357 184.596 50.905V50.083C184.596 48.893 183.831 48.043 183.066 48.043C182.726 48.043 182.416 48.157 182.218 48.41C181.878 48.863 181.622 49.714 181.368 50.79C181.226 51.356 180.688 51.61 180.178 51.61C179.411 51.61 177.968 51.073 177.968 50.025C177.968 49.458 178.338 49.005 179.045 48.439C179.98 47.701 182.245 46.653 184.285 46.342C185.983 46.342 186.862 46.682 187.599 47.22C188.617 47.956 188.816 48.977 188.816 50.025V55.69C188.816 56.88 189.156 57.305 189.553 57.305C189.835 57.305 190.203 57.162 190.486 57.049L190.826 58.069L187.286 59.709L187.287 59.712Z" fill="black"/>
</svg>
