<svg width="200" height="100" viewBox="0 0 200 100" fill="none" xmlns="http://www.w3.org/2000/svg">
<path fill-rule="evenodd" clip-rule="evenodd" d="M36.183 45.4C33.421 45.4 31.713 46.578 30.25 48V36.24H24.684V37.78C24.684 38.276 25.087 38.678 25.579 38.678H27.444V63.075H29.191L30.045 61.245C31.55 62.507 33.541 63.359 35.735 63.359C40.855 63.359 44.43 59.336 44.43 54.379C44.43 49.016 40.693 45.399 36.183 45.399V45.4ZM35.573 60.92C33.339 60.92 31.593 60.027 30.25 58.97V50.44C31.672 48.978 33.462 47.84 35.695 47.84C39.067 47.84 41.545 50.48 41.545 54.423C41.545 58.323 38.905 60.923 35.575 60.923L35.573 60.92ZM55.704 45.4C53.834 45.4 51.762 47.27 50.42 49.666V45.724H44.977V47.306C44.977 47.801 45.377 48.203 45.873 48.203H47.739V60.596H45.872C45.377 60.596 44.976 60.996 44.976 61.492V63.034H53.792V61.492C53.792 60.997 53.392 60.596 52.895 60.596H50.541V51.94C51.396 50.193 52.981 48.65 54.281 48.284C54.564 49.056 55.295 49.747 56.351 49.747C57.451 49.747 58.304 48.772 58.304 47.675C58.304 46.495 57.409 45.399 55.704 45.399V45.4ZM74.835 60.554H72.925V51.17C72.925 49.707 72.521 48.406 71.625 47.43C70.485 46.17 68.619 45.4 66.06 45.4C61.913 45.4 59.64 47.43 59.64 49.42C59.64 50.478 60.37 51.29 61.424 51.29C62.526 51.29 63.254 50.52 63.254 49.503C63.254 49.138 63.134 48.773 63.011 48.487C63.581 48.123 64.314 47.757 65.695 47.757C67.442 47.757 68.7 48.284 69.473 49.137C69.963 49.747 70.245 50.601 70.245 51.575V53.973C69.351 53.647 67.118 53.16 65.248 53.16C61.388 53.16 58.581 55.233 58.581 58.402C58.581 61.368 60.981 63.359 64.314 63.359C66.67 63.359 68.904 62.219 70.327 60.839V63.033H75.732V61.451C75.732 60.955 75.329 60.553 74.837 60.553L74.835 60.554ZM70.245 58.687C68.905 60.027 67.117 61.084 65.043 61.084C62.686 61.084 61.423 59.864 61.423 58.198C61.423 56.41 62.809 55.111 65.571 55.111C67.236 55.111 68.946 55.437 70.245 55.803V58.688V58.687ZM84.792 60.554H82.927L82.881 60.596H82.764V45.724H77.034V47.306C77.034 47.801 77.437 48.203 77.932 48.203H79.962V60.596H79.842L79.799 60.554H77.93C77.436 60.554 77.033 60.956 77.033 61.452V63.034H85.688V61.452C85.688 60.956 85.288 60.554 84.792 60.554ZM106.2 60.554H104.334V51.25C104.334 49.828 104.051 48.61 103.48 47.633C102.627 46.253 101.125 45.399 98.89 45.399C96.41 45.399 94.013 47.024 92.387 48.934V45.724H86.942V47.304C86.942 47.8 87.345 48.202 87.84 48.202H89.707V60.552H87.84C87.345 60.552 86.942 60.955 86.942 61.452V63.032H95.232V61.452C95.232 60.955 94.828 60.552 94.336 60.552H92.51V51.046C94.055 49.34 96.046 48 98.2 48C99.622 48 100.6 48.487 101.085 49.503C101.41 50.113 101.533 50.883 101.533 51.818V60.554H99.708C99.213 60.554 98.81 60.956 98.81 61.452V63.034H107.1V61.452C107.1 60.956 106.7 60.554 106.202 60.554H106.2Z" fill="black"/>
<path fill-rule="evenodd" clip-rule="evenodd" d="M143.268 60.554H141.402L141.362 60.591V51.171C141.362 49.708 140.957 48.407 140.06 47.431C138.924 46.171 137.054 45.401 134.493 45.401C130.349 45.401 128.073 47.431 128.073 49.421C128.073 50.479 128.803 51.291 129.861 51.291C130.961 51.291 131.691 50.521 131.691 49.504C131.691 49.139 131.571 48.774 131.447 48.488C132.017 48.124 132.747 47.758 134.131 47.758C135.878 47.758 137.137 48.285 137.908 49.138C138.396 49.748 138.681 50.602 138.681 51.576V53.974C137.786 53.648 135.553 53.161 133.683 53.161C129.821 53.161 127.019 55.234 127.019 58.403C127.019 61.369 129.417 63.36 132.749 63.36C135.104 63.36 137.341 62.22 138.763 60.84V62.997L138.723 63.034H144.167V61.452C144.167 60.956 143.764 60.554 143.269 60.554H143.268ZM138.68 58.687C137.34 60.027 135.552 61.084 133.478 61.084C131.121 61.084 129.861 59.864 129.861 58.198C129.861 56.41 131.246 55.111 134.008 55.111C135.672 55.111 137.381 55.437 138.681 55.803V58.688L138.68 58.687ZM117.354 45.4C114.754 45.4 113.006 46.578 111.544 48.203V45.723H106.057V47.306C106.057 47.801 106.459 48.203 106.952 48.203H108.82V68.518H106.952C106.459 68.518 106.057 68.92 106.057 69.415V70.998H114.957V69.415C114.957 68.92 114.557 68.518 114.057 68.518H111.625V61.368C113.048 62.588 114.955 63.358 116.988 63.358C122.148 63.358 125.52 59.174 125.52 54.298C125.52 48.976 121.904 45.398 117.354 45.398V45.4ZM116.824 60.88C114.591 60.88 112.924 60.067 111.624 58.97V50.44C113.048 48.978 114.712 47.88 116.947 47.88C120.197 47.88 122.635 50.44 122.593 54.34C122.553 58.12 120.198 60.883 116.823 60.883L116.824 60.88ZM158.379 47.675C158.379 46.495 157.485 45.399 155.779 45.399C153.909 45.399 151.839 47.269 150.495 49.665V45.723H145.05V47.305C145.05 47.8 145.452 48.202 145.95 48.202H147.816V60.552H145.949C145.451 60.552 145.049 60.955 145.049 61.452V63.032H153.869V61.452C153.869 60.955 153.467 60.552 152.972 60.552H151.107L151.061 60.595H150.618V51.94C151.471 50.193 153.055 48.65 154.358 48.284C154.64 49.056 155.371 49.747 156.428 49.747C157.525 49.747 158.378 48.772 158.378 47.675H158.379ZM175.419 48.203C175.912 48.203 176.315 47.801 176.315 47.306V45.724H166.521V47.306C166.521 47.801 166.921 48.203 167.418 48.203H169.753L162.663 54.339V36.239H157.096V37.822C157.096 38.317 157.496 38.718 157.994 38.718H159.856V60.552H157.994C157.496 60.552 157.096 60.954 157.096 61.45V63.032H165.466V61.45C165.466 60.954 165.062 60.552 164.569 60.552H162.663V57.02L165.749 54.42L169.859 60.554H168.614C168.12 60.554 167.717 60.956 167.717 61.452V63.034H176.315V61.452C176.315 60.956 175.912 60.554 175.42 60.554H173.12L167.782 52.874L173.228 48.204H175.421L175.419 48.203ZM85.28 32.75C84.538 30.868 83.05 29.3 81.093 28.954C79.567 28.684 78.213 29.83 77.285 30.871C76.785 31.434 76.425 31.957 76.187 32.461C74.177 34.033 72.044 36.911 73.203 38.896C73.836 39.976 74.617 40.619 75.488 40.97C77.093 43.03 80.201 43.865 82.742 41.6C84.254 41.817 85.814 41.43 87.204 40.142C89.394 38.114 87.184 34.474 85.281 32.752L85.28 32.75ZM76.992 40.165C76.788 40.149 76.602 40.115 76.42 40.071C75.755 39.271 75.463 38.183 75.842 36.959C75.858 37.172 75.916 37.362 76.022 37.519C76.758 38.614 77.724 39.504 78.782 40.066C78.192 40.158 77.602 40.206 76.992 40.166V40.165ZM83.267 38.553C83.239 38.621 83.21 38.679 83.181 38.746C82.805 39.066 82.346 39.314 81.811 39.46C81.724 39.426 81.621 39.408 81.501 39.44C81.357 39.476 81.214 39.51 81.071 39.55C80.894 39.536 80.701 39.506 80.499 39.457C79.344 38.594 78.405 37.329 77.737 36.222C77.657 36.089 77.589 35.955 77.523 35.82C78.32 33.638 80.269 31.434 82.703 32.83C84.847 34.057 83.971 36.708 83.268 38.553H83.267ZM82.857 31.257C81.492 30.753 80.033 30.727 78.575 31.187C78.879 30.901 79.225 30.641 79.605 30.417C80.905 29.649 82.018 30.274 82.857 31.257ZM78.277 41.284C79.027 41.212 79.795 41.052 80.557 40.859C80.722 40.947 80.887 41.033 81.057 41.109C80.157 41.529 79.167 41.554 78.277 41.283V41.284ZM83.747 40.468C84.077 40.008 84.373 39.496 84.619 38.943C84.659 38.896 84.701 38.859 84.739 38.809C85.462 37.886 85.786 36.726 85.802 35.527C85.877 35.653 85.959 35.775 86.028 35.903C87.31 38.257 86.286 40.253 83.745 40.467L83.747 40.468Z" fill="black"/>
</svg>
