<svg width="200" height="100" viewBox="0 0 200 100" fill="none" xmlns="http://www.w3.org/2000/svg">
<path fill-rule="evenodd" clip-rule="evenodd" d="M57.67 34.182C59.706 33.056 60.93 32.437 61.344 32.327C62.39 32.023 63.064 31.983 63.364 32.203C63.53 32.313 63.612 32.451 63.612 32.615C63.612 32.945 63.228 33.36 62.457 33.853C62.155 34.047 61.605 34.405 60.807 34.927C62.707 35.615 64.327 36.937 65.677 38.89C66.197 39.632 66.459 40.64 66.459 41.905C66.459 43.775 66.059 45.221 65.262 46.237C64.242 47.532 62.937 48.577 61.342 49.375C62.279 50.283 62.909 51.123 63.24 51.892C63.626 52.772 63.818 53.75 63.818 54.822C63.818 56.612 63.298 58.647 62.25 60.932C61.51 62.612 60.174 64.002 58.248 65.102C56.321 66.202 54.398 66.752 52.471 66.752C51.041 66.752 49.845 66.408 48.883 65.718C47.123 64.45 46.05 63.016 45.665 61.416C43.575 64.004 41.413 65.711 39.185 66.536C38.003 66.976 36.489 67.196 34.645 67.196C33.353 67.196 32.06 66.92 30.768 66.37C29.364 65.766 28.318 64.98 27.631 64.02C26.558 62.53 26.021 61.02 26.021 59.48C26.021 57.304 26.876 55.614 28.581 54.402C29.268 53.907 30.011 53.66 30.811 53.66C31.689 53.66 32.439 53.956 33.057 54.545C33.677 55.137 33.987 55.845 33.987 56.672C33.987 57.717 33.6 58.487 32.831 58.982C31.429 59.89 30.726 60.742 30.726 61.54C30.726 61.87 30.849 62.215 31.098 62.572C31.51 63.206 32.211 63.522 33.202 63.522C33.974 63.522 34.784 63.287 35.638 62.822C37.232 61.94 38.636 60.688 39.846 59.064C40.588 58.046 41.786 56.052 43.436 53.079C45.39 49.586 47.166 46.629 48.759 44.209C50.823 41.044 52.859 38.486 54.867 36.533C54.097 36.367 53.311 36.286 52.517 36.286C50.673 36.286 48.87 36.671 47.109 37.44C44.385 38.598 42.379 39.89 41.085 41.32C39.957 42.56 39.215 44.086 38.857 45.9C38.773 46.314 38.732 46.714 38.732 47.098C38.732 48.858 39.558 49.971 41.208 50.44C42.088 50.687 42.528 51.1 42.528 51.678C42.528 52.503 42.13 53.054 41.332 53.328C41.112 53.411 40.865 53.452 40.588 53.452C39.462 53.452 38.512 52.93 37.743 51.884C36.863 50.674 36.423 49.314 36.423 47.799C36.423 46.974 36.683 45.555 37.208 43.549C37.728 41.621 39.351 39.629 42.075 37.564C45.405 35.089 49.009 33.851 52.887 33.851C54.674 33.851 56.271 33.961 57.674 34.181L57.67 34.182ZM57.878 37.442C57.272 38.049 56.653 38.748 56.021 39.548C55.141 40.648 54.246 42.615 53.339 45.448C52.074 49.218 51.042 51.968 50.245 53.698C51.262 53.232 52.033 52.93 52.555 52.791C52.805 52.739 53.022 52.711 53.215 52.711C53.822 52.711 54.122 53.001 54.122 53.577C54.122 54.154 53.684 54.527 52.805 54.691C51.731 54.883 50.507 55.627 49.132 56.919C48.278 57.719 47.854 58.721 47.854 59.931C47.854 60.593 48.046 61.101 48.431 61.459C49.308 62.285 50.217 62.697 51.153 62.697C52.196 62.697 53.298 62.104 54.453 60.923C55.031 60.318 55.608 59.41 56.186 58.199C56.873 56.659 57.218 55.227 57.218 53.906C57.218 53.604 57.191 53.303 57.134 53C56.942 51.622 56.514 50.77 55.857 50.44C55.857 50.413 55.237 50.303 53.999 50.11C53.229 50.11 52.845 49.683 52.845 48.832C52.845 47.952 53.395 47.414 54.495 47.222C55.375 47.194 56.257 47.152 57.135 47.098C58.895 46.878 60.119 45.392 60.807 42.641C60.89 42.311 60.931 41.968 60.931 41.611C60.931 40.041 60.327 38.874 59.116 38.103C58.756 37.883 58.346 37.663 57.879 37.443L57.878 37.442ZM70.846 47.84C70.323 47.408 70.062 46.874 70.062 46.237C70.062 45.715 70.232 45.114 70.572 44.433C71.14 43.343 71.969 42.798 73.058 42.798C73.466 42.798 73.813 42.912 74.098 43.138C74.378 43.368 74.521 43.718 74.521 44.196C74.521 44.674 74.387 45.198 74.115 45.766C74.705 46.106 75.59 46.083 76.77 45.698C77.767 45.361 78.47 45.192 78.88 45.192C79.492 45.192 79.855 45.452 79.968 45.975C80.014 46.155 80.038 46.338 80.038 46.518C80.038 46.904 79.923 47.33 79.698 47.794C79.468 48.26 79.242 48.707 79.016 49.139C78.266 50.726 77.426 52.564 76.496 54.651C76.233 55.399 76.233 55.854 76.496 56.013C76.882 56.013 77.222 55.82 77.518 55.433C78.063 54.935 78.744 54.276 79.561 53.459C79.788 53.141 80.095 52.982 80.481 52.982C80.708 52.982 80.867 53.052 80.957 53.187C81.139 53.369 81.231 53.527 81.231 53.663C81.231 53.823 81.026 54.153 80.617 54.651C78.437 57.286 76.202 59.161 73.91 60.271C73.273 60.591 72.66 60.751 72.07 60.751C71.21 60.751 70.522 60.443 70.01 59.831C69.5 59.217 69.28 58.581 69.346 57.923C69.506 56.493 70.664 54.427 72.819 51.723C73.659 50.679 74.079 49.863 74.079 49.271C74.079 48.703 73.589 48.419 72.614 48.419C70.164 51.621 68.416 53.732 67.371 54.752C66.985 55.139 66.588 55.194 66.179 54.922C65.999 54.832 65.907 54.685 65.907 54.48C65.907 54.277 65.999 54.095 66.179 53.936C67.156 52.846 67.916 51.96 68.462 51.28C69.392 50.098 70.185 48.952 70.845 47.84H70.846Z" fill="black"/>
<path fill-rule="evenodd" clip-rule="evenodd" d="M95.323 52.983C95.686 53.119 95.868 53.301 95.868 53.528C95.868 53.778 95.686 54.108 95.323 54.515C94.166 56.06 92.827 56.887 91.307 57C90.807 57.046 90.387 56.98 90.047 56.797C88.049 59.433 85.825 60.751 83.374 60.751C82.216 60.751 81.296 60.378 80.616 59.627C79.936 58.879 79.594 57.867 79.594 56.595C79.594 56.05 79.664 55.482 79.799 54.891C79.709 54.981 79.593 55.027 79.459 55.027C79.002 55.027 78.777 54.799 78.777 54.344C78.777 54.119 78.867 53.902 79.047 53.697C80.161 52.29 81.364 50.904 82.657 49.539C84.654 47.379 86.425 45.949 87.967 45.245C88.831 44.835 89.671 44.631 90.489 44.631C92.031 44.631 93.064 45.416 93.586 46.983C93.699 47.323 93.756 47.723 93.756 48.176C93.756 49.699 93.189 51.584 92.056 53.836C92.326 53.993 92.463 54.311 92.463 54.789C93.233 54.607 93.847 54.119 94.303 53.325C94.641 52.985 94.983 52.871 95.323 52.985V52.983ZM85.689 57.307C85.846 57.377 86.005 57.409 86.166 57.409C86.891 57.409 87.538 56.761 88.104 55.469C87.809 54.946 87.664 54.413 87.664 53.869C87.664 53.549 87.719 53.254 87.834 52.982C88.129 52.232 88.866 51.962 90.046 52.166C90.932 50.463 91.374 49.192 91.374 48.352C91.374 47.717 91.067 47.399 90.454 47.399C89.544 47.399 88.321 48.819 86.778 51.654C85.596 53.788 85.006 55.274 85.006 56.114C85.006 56.704 85.233 57.104 85.686 57.306L85.689 57.307Z" fill="black"/>
<path fill-rule="evenodd" clip-rule="evenodd" d="M109.945 55.8521C109.638 55.1721 109.507 54.3321 109.552 53.3321C109.622 51.8581 110.22 50.1901 111.352 48.3291C112.598 46.2851 113.832 45.2641 115.056 45.2641C115.622 45.2641 116.076 45.5021 116.416 45.9781C116.756 46.4541 116.891 46.9861 116.822 47.5761C116.619 49.6611 115.555 52.0661 113.632 54.7861C113.676 54.9661 113.914 55.0561 114.345 55.0561C114.615 55.0561 115.103 54.5811 115.805 53.6261C116.145 53.1741 116.508 52.9461 116.892 52.9461C117.367 52.9461 117.605 53.1761 117.605 53.6291C117.605 53.8341 117.401 54.1751 116.993 54.6531C116.313 55.4931 115.79 56.0491 115.427 56.3231C114.541 57.0261 113.577 57.3791 112.533 57.3791C112.079 57.3791 111.683 57.3091 111.343 57.1691C110.615 58.1221 109.775 58.9521 108.821 59.6551C107.778 60.4511 106.871 60.8471 106.099 60.8471C104.737 60.8471 103.887 60.0191 103.546 58.3611C101.548 59.9051 99.938 60.6761 98.712 60.6761C97.782 60.6761 97.044 60.3991 96.5 59.8431C95.954 59.2861 95.682 58.5881 95.682 57.7481C95.682 57.0441 95.875 56.3421 96.262 55.6361C96.987 54.3431 97.872 52.6411 98.917 50.5301C96.397 53.5501 94.977 55.0571 94.661 55.0571C94.184 55.0571 93.946 54.8291 93.946 54.3741C93.946 53.9641 94.216 53.4871 94.762 52.9411C96.307 51.1441 98.247 48.9811 100.586 46.4571C101.47 45.6601 102.401 45.2621 103.376 45.2621C104.196 45.2621 104.761 45.5121 105.079 46.0121C105.259 46.2861 105.352 46.5821 105.352 46.9001C105.352 47.1961 105.114 47.8771 104.637 48.9461C104.137 50.0831 103.059 52.1631 101.402 55.1881C101.222 55.5061 101.129 55.8481 101.129 56.2111C101.129 56.8031 101.367 57.0981 101.841 57.0981C102.224 57.0981 102.743 56.8481 103.398 56.3501C103.398 56.2361 103.428 56.0661 103.484 55.8401C103.54 55.6131 103.569 55.4421 103.569 55.3301C103.933 53.4221 104.729 51.6621 105.957 50.0521C106.367 49.5061 106.912 49.2351 107.595 49.2351C108.525 49.2351 108.993 49.7451 108.993 50.7651C108.993 51.5621 108.596 52.5851 107.801 53.8331C107.143 54.8561 106.416 55.7431 105.621 56.4911C105.644 57.6511 106.111 58.2311 107.018 58.2311C107.834 58.2311 108.811 57.4361 109.946 55.8471L109.945 55.8521Z" fill="black"/>
<path fill-rule="evenodd" clip-rule="evenodd" d="M115.834 55.2641C115.561 55.2641 115.426 55.1741 115.426 54.9911C115.426 54.8111 115.538 54.5391 115.766 54.1751C116.946 52.7221 118.41 50.8491 120.158 48.5551C121.838 45.9651 122.973 44.7391 123.562 44.8751C123.972 44.9651 124.385 45.2281 124.805 45.6581C125.225 46.0901 125.48 46.5101 125.571 46.9181C125.771 47.8061 125.771 48.6011 125.571 49.3051C125.458 49.7151 125.038 50.4521 124.311 51.5201C125.106 50.7471 125.844 50.0561 126.525 49.4431C128.137 47.9671 129.328 47.0031 130.1 46.5491C130.598 46.2291 131.108 45.9131 131.63 45.5941C132.153 45.2761 132.606 45.1171 132.992 45.1171C133.606 45.1171 134.195 45.5041 134.762 46.2751C134.852 46.4101 134.899 46.5811 134.899 46.7851C134.899 47.3311 134.365 48.6251 133.299 50.6671C131.799 53.5271 131.051 55.2071 131.051 55.7071C131.051 55.9331 131.141 56.0471 131.324 56.0471C131.914 56.0471 132.822 55.5141 134.047 54.4471C134.07 54.4231 134.319 54.1291 134.797 53.5611C135.113 53.1761 135.374 52.9811 135.577 52.9811C135.897 52.9811 136.055 53.2211 136.055 53.6981C136.055 54.1061 135.777 54.6161 135.221 55.2301C134.666 55.8441 133.707 56.7301 132.345 57.8861C130.802 59.2041 129.752 59.9821 129.195 60.2211C128.639 60.4591 128.055 60.5781 127.442 60.5781C126.126 60.5781 125.389 60.0661 125.23 59.0451C125.07 58.0451 126.104 55.4681 128.328 51.3131C128.42 51.1531 128.464 51.0181 128.464 50.9031C128.464 50.7911 128.384 50.7331 128.226 50.7331C127.84 50.7331 127.426 50.9561 126.983 51.3981C126.541 51.8411 125.695 52.7881 124.448 54.2381C123.018 55.8961 122.03 57.1081 121.486 57.8801C120.939 58.6531 120.259 59.3281 119.442 59.9061C118.625 60.4861 117.912 60.7731 117.297 60.7731C116.48 60.7731 116.073 60.3531 116.073 59.5131C116.073 59.1291 116.253 58.6401 116.616 58.0511C117.184 57.1211 117.479 56.6211 117.502 56.5541C117.912 55.7141 118.909 53.7171 120.498 50.5641C117.842 53.6961 116.288 55.2621 115.834 55.2621V55.2641Z" fill="black"/>
<path fill-rule="evenodd" clip-rule="evenodd" d="M134.945 54.8221C134.445 54.5041 134.332 54.1301 134.605 53.6991C135.058 53.1761 135.999 52.0191 137.43 50.2271C138.157 49.1601 138.894 48.0931 139.644 47.0271C140.484 45.8471 141.129 45.2011 141.584 45.0871C142.196 44.9271 142.559 44.8491 142.672 44.8491C142.877 44.8491 143.094 44.9851 143.319 45.2561C144.317 46.4381 144.819 47.2881 144.819 47.8101C144.819 48.4231 144.352 49.7521 143.421 51.7931C142.558 53.6991 142.128 54.9231 142.128 55.4691C142.128 55.7171 142.228 55.8421 142.432 55.8421C142.682 55.8421 143.25 55.3781 144.136 54.4461C145.224 53.2891 145.974 52.7091 146.383 52.7091C146.859 52.7091 147.097 52.9261 147.097 53.3561C147.097 53.5861 146.971 53.9141 146.721 54.3461C146.131 55.3441 144.849 56.6281 142.874 58.1941C140.741 59.8981 139.164 60.7501 138.141 60.7501C137.461 60.7501 136.905 60.4781 136.474 59.9341C136.134 59.5021 135.964 59.0821 135.964 58.6741C135.964 57.8341 136.178 56.8901 136.61 55.8461C136.838 55.2781 137.62 53.6201 138.96 50.8721C138.05 52.0081 137.018 53.2321 135.86 54.5501C135.656 54.7081 135.35 54.7981 134.942 54.8221H134.945ZM148.905 37.0761C149.311 37.3711 149.515 37.8941 149.515 38.6441C149.515 39.7801 149.142 40.7741 148.392 41.6271C147.642 42.4801 146.736 42.9071 145.669 42.9071C145.009 42.9071 144.454 42.7411 143.999 42.4121C143.546 42.0821 143.319 41.5201 143.319 40.7221C143.319 39.7461 143.682 38.7821 144.409 37.8261C145.089 36.9401 145.952 36.4961 146.996 36.4961C147.721 36.4961 148.356 36.6901 148.903 37.0761H148.905Z" fill="black"/>
<path fill-rule="evenodd" clip-rule="evenodd" d="M151.314 56.047C151.201 57.297 151.654 57.931 152.676 57.954C153.313 57.977 154.116 57.704 155.094 57.137C155.978 56.592 156.751 55.98 157.409 55.299C158.269 54.367 158.855 53.805 159.162 53.613C159.467 53.419 159.655 53.323 159.722 53.323C159.905 53.323 160.132 53.415 160.404 53.595C160.517 53.685 160.574 53.799 160.574 53.935C160.574 54.435 159.78 55.421 158.191 56.895C155.263 59.595 152.585 60.945 150.156 60.945C149.406 60.945 148.749 60.787 148.182 60.469C147.41 60.039 146.808 59.369 146.378 58.461C146.013 57.713 145.876 57.078 145.968 56.556C146.058 55.988 146.128 55.614 146.172 55.433C146.308 55.069 146.557 54.741 146.92 54.446C146.33 55.036 145.91 55.332 145.66 55.332C145.456 55.332 145.27 55.229 145.1 55.025C144.93 54.822 144.844 54.617 144.844 54.413C144.844 54.141 145.07 53.845 145.524 53.527C145.774 53.347 146.53 52.507 147.789 51.01C149.049 49.513 150.339 48.277 151.654 47.3C153.514 45.895 155.174 45.192 156.624 45.192C157.577 45.192 158.337 45.476 158.904 46.042C159.54 46.677 159.859 47.358 159.859 48.085C159.859 49.175 159.179 50.445 157.817 51.895C155.933 53.893 153.765 55.275 151.313 56.047H151.314ZM153.63 52.61C153.994 52.61 154.765 51.985 155.945 50.736C156.648 49.986 157.001 49.206 157.001 48.386C157.001 48.024 156.865 47.843 156.593 47.843C156.163 47.843 155.39 48.581 154.278 50.056C153.506 50.986 153.12 51.69 153.12 52.166C153.12 52.461 153.29 52.61 153.63 52.61Z" fill="black"/>
<path fill-rule="evenodd" clip-rule="evenodd" d="M170.576 54.414C171.029 54.209 171.461 53.88 171.869 53.426C172.141 53.109 172.459 52.948 172.822 52.948C173.298 52.948 173.536 53.176 173.536 53.628C173.536 53.834 173.331 54.176 172.923 54.652C172.22 55.492 171.313 56.002 170.199 56.182C169.587 57.885 168.611 59.122 167.271 59.894C166.364 60.416 165.433 60.677 164.481 60.677C162.323 60.677 160.939 60.122 160.327 59.009C159.94 58.327 159.747 57.646 159.747 56.965C159.747 55.831 160.191 55.048 161.077 54.615C161.803 54.275 162.54 54.105 163.287 54.105C163.72 54.105 164.527 54.185 165.707 54.345C165.819 53.778 165.853 52.778 165.809 51.347C165.784 50.077 165.876 49.1 166.079 48.419C165.422 48.805 164.389 49.806 162.981 51.416C161.166 53.506 160.201 54.606 160.088 54.718C159.678 55.126 159.271 55.193 158.861 54.922C158.471 54.65 158.471 54.297 158.861 53.865C159.928 52.617 161.711 50.585 164.206 47.768C165.226 46.68 166.34 45.794 167.543 45.112C168.746 44.432 169.778 44.09 170.641 44.09C172.161 44.09 172.921 44.74 172.921 46.034C172.921 46.512 172.729 46.931 172.343 47.294C171.957 47.658 171.549 47.841 171.117 47.841C171.003 47.841 170.89 47.829 170.777 47.806C170.097 47.626 169.629 47.658 169.38 47.908C169.132 48.158 169.006 48.443 169.006 48.76C169.006 49.078 169.141 49.7 169.414 50.632C169.459 50.745 169.707 51.369 170.162 52.502C170.434 53.186 170.572 53.822 170.572 54.412L170.576 54.414ZM165.196 55.979C163.676 55.796 162.813 55.774 162.608 55.909C162.245 56.139 162.063 56.409 162.063 56.727C162.063 57.137 162.28 57.454 162.711 57.68C162.871 57.75 163.029 57.785 163.188 57.785C163.938 57.785 164.608 57.183 165.198 55.979H165.196ZM166.767 35.235C167.174 35.621 167.379 36.165 167.379 36.867C167.379 38.047 166.902 39.282 165.947 40.575C165.267 41.482 164.381 42.253 163.293 42.888C162.363 43.433 161.623 43.705 161.079 43.705C160.534 43.705 160.262 43.465 160.262 42.99C160.262 42.787 160.342 42.63 160.5 42.514C160.796 42.354 161.353 42.014 162.17 41.494C162.578 41.221 162.782 40.904 162.782 40.542C162.782 40.27 162.617 39.882 162.289 39.384C161.959 38.884 161.795 38.374 161.795 37.854C161.795 37.038 162.067 36.278 162.612 35.574C163.157 34.872 163.905 34.521 164.859 34.521C165.629 34.521 166.265 34.761 166.766 35.236L166.767 35.235Z" fill="black"/>
</svg>
