<svg xmlns="http://www.w3.org/2000/svg" focusable="false" role="img" viewBox="0 0 200 100" fill="currentColor">
  <path d="M123 47.7c-.5.6-1.3.9-2 .8-1.6 0-2.8-1.1-2.8-2.9 0-1.6 1.3-2.9 2.9-2.9.7 0 1.4.3 1.9.7l-.3.6c-.4-.4-1-.7-1.6-.7-1.2 0-2.1.9-2.1 2.2 0 1.3.9 2.2 2.1 2.2.6 0 1.2-.2 1.7-.7l.2.7zM125.4 48.5c-1.1 0-2-.9-2-2s.9-2 2-2 2 .9 2 2-.8 2-1.9 2h-.1zm0-3.3c-.8 0-1.2.6-1.2 1.3 0 .8.5 1.4 1.2 1.4.8 0 1.2-.6 1.2-1.4 0-.8-.5-1.3-1.2-1.3zM131.5 48.4h-.8v-2.1c0-.6-.1-1.1-.8-1.1-.7 0-1 .6-1 1.3v1.9h-.8v-3.8h.8v.6c.2-.4.7-.7 1.2-.7 1.1 0 1.4.7 1.4 1.6v2.3zM134.8 48.2c-.3.2-.7.4-1.1.3-.6 0-1.1-.2-1.5-.7l.4-.5c.3.3.7.5 1.1.5.4 0 .7-.1.7-.5s-.6-.6-.9-.6c-.2-.1-.4-.1-.5-.2-.4-.2-.6-.5-.6-.9 0-.7.6-1.1 1.3-1.1.5 0 1 .1 1.3.5l-.3.5c-.3-.3-.6-.4-1-.4s-.6.2-.6.5.4.5.7.6c.2.1.4.1.5.2.2.1.3.2.4.3.2.2.3.4.3.7.2.3 0 .6-.2.8zM139.4 46.7h-3c0 .8.5 1.2 1.2 1.2.5 0 .9-.2 1.3-.4l.3.4s-.5.6-1.7.6c-1.1 0-1.9-.8-1.9-2 0-1 .8-1.9 1.8-2h.1c1 0 1.8.7 1.8 1.7v.2c.1.1.1.3.1.3zm-.7-.5c0-.6-.5-1.1-1.1-1.1-.6 0-1.1.5-1.1 1.1h2.2zM140.6 43.8c-.3 0-.5-.2-.5-.5s.2-.5.5-.5.5.2.5.5-.2.5-.5.5zm.4 4.6h-.8v-3.8h.8v3.8zM142.9 48.4h-.8v-5.6h.8v5.6zM149.3 48.4h-.7v-.6c-.3.5-.8.7-1.3.7-1.1 0-1.9-.9-1.9-2s.7-2 1.8-2c.5 0 1 .2 1.3.7v-2.3h.8v5.5zm-2-3.2c-.8 0-1.2.6-1.2 1.3 0 .8.5 1.4 1.2 1.4.8 0 1.2-.6 1.2-1.4.1-.7-.4-1.3-1.2-1.3zM153.9 46.7h-3c0 .8.5 1.2 1.2 1.2.5 0 .9-.2 1.3-.4l.3.4s-.5.6-1.7.6c-1.1 0-1.9-.8-1.9-2 0-1 .8-1.9 1.8-2h.1c1 0 1.8.7 1.8 1.7v.2c.1.1.1.2.1.3zm-.7-.5c0-.6-.5-1.1-1.1-1.1-.6 0-1.1.5-1.1 1.1h2.2zM156.8 48.2c-.3.2-.7.4-1.1.3-.6 0-1.1-.2-1.5-.7l.4-.5c.3.3.7.5 1.1.5.4 0 .7-.1.7-.5s-.6-.6-.9-.6c-.2-.1-.4-.1-.5-.2-.4-.2-.6-.5-.6-.9 0-.7.6-1.1 1.3-1.1.5 0 1 .1 1.3.5l-.3.5c-.3-.3-.6-.4-1-.4s-.6.2-.6.5.4.5.7.6c.2.1.4.1.5.2.2.1.3.2.4.3.2.2.3.4.3.7.3.3.1.6-.2.8zM162.6 48.4h-.7v-.5c-.3.4-.7.6-1.2.6-.7 0-1.3-.4-1.3-1.2 0-.8.6-1.1 1.5-1.2h1V46c0-.6-.4-.9-1-.9-.4 0-.8.1-1.2.3l-.2-.5c.4-.2.9-.4 1.4-.4.6 0 1 .2 1.3.4.3.3.4.6.4 1.2v2.3zm-.8-1.8l-.9.1c-.6 0-.9.3-.9.7 0 .4.3.7.8.7.4 0 .8-.2 1-.6v-.9zM165.7 45.3c-.2-.1-.3-.1-.5-.1s-.5.1-.6.3c-.2.3-.3.6-.2 1v1.9h-.8v-3.8h.8v.6c.1-.4.5-.7.9-.7.1 0 .3 0 .4.1v.7zM168.1 48.4c-.2.1-.5.1-.7.1-.3 0-.6-.1-.8-.4-.2-.2-.2-.5-.2-1.1v-1.7h-.6v-.6h.6v-1.1h.8v1.1h.9v.6h-.9V47c0 .2 0 .5.1.7.1.1.2.2.4.2.1 0 .3 0 .4-.1v.6zM171 48.2c-.3.2-.7.4-1.1.3-.6 0-1.1-.2-1.5-.7l.4-.5c.3.3.7.5 1.1.5.4 0 .7-.1.7-.5s-.6-.6-.9-.6c-.2-.1-.4-.1-.5-.2-.4-.2-.6-.5-.6-.9 0-.7.6-1.1 1.3-1.1.5 0 1 .1 1.3.5l-.3.5c-.3-.3-.6-.4-1-.4s-.6.2-.6.5.4.5.7.6c.2.1.4.1.5.2.2.1.3.2.4.3.2.2.3.4.3.7.2.3 0 .6-.2.8zM122 57.5h-.7v-.6c-.3.5-.8.7-1.3.7-1.1 0-1.9-.9-1.9-2s.7-2 1.8-2c.5 0 1 .2 1.3.7V52h.8v5.5zm-1.9-3.3c-.8 0-1.2.6-1.2 1.3 0 .8.5 1.4 1.2 1.4.8 0 1.2-.6 1.2-1.4 0-.7-.5-1.3-1.2-1.3zM126.4 57.5h-.7V57c-.3.4-.7.7-1.2.6-.4 0-.8-.1-1.1-.4-.2-.2-.3-.6-.3-1.2v-2.3h.8V56c0 .5.1 1 .8 1 .7 0 1-.6 1-1.2v-2.1h.8l-.1 3.8zM133.7 56.8c-.5.6-1.3.9-2 .8-1.6 0-2.8-1.1-2.8-2.9 0-1.6 1.3-2.9 2.9-2.9.7 0 1.4.3 1.9.7l-.3.6c-.4-.4-1-.7-1.6-.7-1.2 0-2.1.9-2.1 2.2 0 1.3.9 2.2 2.1 2.2.6 0 1.2-.2 1.7-.7l.2.7zM137.4 57.5h-.7V57c-.3.4-.7.6-1.2.6-.7 0-1.3-.4-1.3-1.2 0-.8.6-1.1 1.5-1.2h1V55c0-.6-.4-.9-1-.9-.4 0-.8.1-1.2.3l-.2-.5c.4-.2.9-.4 1.4-.4.6 0 1 .2 1.3.4.3.3.4.6.4 1.2v2.4zm-.8-1.8l-.9.1c-.6 0-.9.3-.9.7 0 .4.3.7.8.7.4 0 .8-.2 1-.6v-.9zM141.7 57.5h-.8v-2.1c0-.6-.1-1.1-.8-1.1-.7 0-1 .6-1 1.3v1.9h-.8v-3.8h.8v.6c.2-.4.7-.7 1.2-.7 1.1 0 1.4.7 1.4 1.6v2.3zM145.7 57.5h-.7V57c-.3.4-.7.6-1.2.6-.7 0-1.3-.4-1.3-1.2 0-.8.6-1.1 1.5-1.2h1V55c0-.6-.4-.9-1-.9-.4 0-.8.1-1.2.3l-.2-.5c.4-.2.9-.4 1.4-.4.6 0 1 .2 1.3.4.3.3.4.6.4 1.2v2.4zm-.7-1.8l-.9.1c-.6 0-.9.3-.9.7 0 .4.3.7.8.7.4 0 .8-.2 1-.6v-.9zM150.4 57.5h-.7v-.6c-.3.5-.8.7-1.3.7-1.1 0-1.9-.9-1.9-2s.7-2 1.8-2c.5 0 1 .2 1.3.7V52h.8v5.5zm-1.9-3.3c-.8 0-1.2.6-1.2 1.3 0 .8.5 1.4 1.2 1.4.8 0 1.2-.6 1.2-1.4 0-.7-.5-1.3-1.2-1.3zM154.5 57.5h-.7V57c-.3.4-.7.6-1.2.6-.7 0-1.3-.4-1.3-1.2 0-.8.6-1.1 1.5-1.2h1V55c0-.6-.4-.9-1-.9-.4 0-.8.1-1.2.3l-.2-.5c.4-.2.9-.4 1.4-.4.6 0 1 .2 1.3.4.3.3.4.6.4 1.2v2.4zm-.8-1.8l-.9.1c-.6 0-.9.3-.9.7 0 .4.3.7.8.7.4 0 .8-.2 1-.6v-.9zM62.9 47.7c-.5.6-1.3.9-2 .8-1.6 0-2.8-1.1-2.8-2.9 0-1.6 1.3-2.9 2.9-2.9.7 0 1.4.3 1.9.7l-.3.6c-.4-.4-1-.7-1.6-.7-1.2 0-2.1.9-2.1 2.2 0 1.3.9 2.2 2.1 2.2.6 0 1.2-.2 1.7-.7l.2.7zM66.6 48.4h-.7v-.5c-.3.4-.7.6-1.2.6-.7 0-1.3-.4-1.3-1.2 0-.8.6-1.1 1.5-1.2h1V46c0-.6-.4-.9-1-.9-.4 0-.8.1-1.2.3l-.2-.5c.4-.2.9-.4 1.4-.4.6 0 1 .2 1.3.4.3.3.4.6.4 1.2v2.3zm-.7-1.8l-.9.1c-.6 0-.9.3-.9.7 0 .4.3.7.8.7.4 0 .8-.2 1-.6v-.9zM70.9 48.4h-.8v-2.1c0-.6-.1-1.1-.8-1.1-.7 0-1 .6-1 1.3v1.9h-.8v-3.8h.8v.6c.2-.4.7-.7 1.2-.7 1.1 0 1.4.7 1.4 1.6v2.3zM75 48.4h-.7v-.5c-.3.4-.7.6-1.2.6-.7 0-1.3-.4-1.3-1.2 0-.8.6-1.1 1.5-1.2h1V46c0-.6-.4-.9-1-.9-.4 0-.8.1-1.2.3l-.2-.5c.4-.2.9-.4 1.4-.4.6 0 1 .2 1.3.4.3.2.4.6.4 1.2v2.3zm-.8-1.8l-.9.1c-.6 0-.9.3-.9.7 0 .4.3.7.8.7.4 0 .8-.2 1-.6v-.9zM79.7 48.4H79v-.6c-.3.5-.8.7-1.3.7-1.1 0-1.9-.9-1.9-2s.7-2 1.8-2c.5 0 1 .2 1.3.7v-2.3h.8v5.5zm-2-3.2c-.8 0-1.2.6-1.2 1.3 0 .8.5 1.4 1.2 1.4.8 0 1.2-.6 1.2-1.4 0-.7-.4-1.3-1.2-1.3zM83.7 48.4H83v-.5c-.3.4-.7.6-1.2.6-.7 0-1.3-.4-1.3-1.2 0-.8.6-1.1 1.5-1.2h1V46c0-.6-.4-.9-1-.9-.4 0-.8.1-1.2.3l-.2-.5c.4-.2.9-.4 1.4-.4.6 0 1 .2 1.3.4.3.3.4.6.4 1.2v2.3zm-.7-1.8l-.9.1c-.6 0-.9.3-.9.7 0 .4.3.7.8.7.4 0 .8-.2 1-.6v-.9zM91 47.7c-.5.6-1.3.9-2 .8-1.6 0-2.8-1.1-2.8-2.9 0-1.6 1.3-2.9 2.9-2.9.7 0 1.4.3 1.9.7l-.3.6c-.4-.4-1-.7-1.6-.7-1.2 0-2.1.9-2.1 2.2 0 1.3.9 2.2 2.1 2.2.6 0 1.2-.2 1.7-.7l.2.7zM93.4 48.5c-1.1 0-2-.9-2-2s.9-2 2-2 2 .9 2 2-.8 2-1.9 2h-.1zm0-3.3c-.8 0-1.3.6-1.3 1.3 0 .8.5 1.4 1.3 1.4s1.2-.6 1.2-1.4c0-.8-.5-1.3-1.2-1.3zM99.5 48.4h-.7v-.6c-.3.4-.7.7-1.2.6-.4 0-.8-.1-1.1-.4-.2-.4-.3-.8-.3-1.2v-2.3h.8v2.3c0 .5.1 1 .8 1 .7 0 1-.6 1-1.2v-2.1h.8l-.1 3.9zM103.9 48.4h-.8v-2.1c0-.6-.1-1.1-.8-1.1-.7 0-1 .6-1 1.3v1.9h-.8v-3.8h.8v.6c.2-.4.7-.7 1.2-.7 1.1 0 1.4.7 1.4 1.6v2.3zM108.1 48c-.1.1-.5.6-1.5.6-1.1 0-2-.9-2-2s.9-2 2-2c1 0 1.4.5 1.5.5l-.3.6c-.3-.3-.7-.5-1.1-.5-.7 0-1.2.6-1.2 1.2v.1c0 .8.5 1.4 1.2 1.4.4 0 .9-.2 1.2-.5l.2.6zM109.1 43.8c-.3 0-.5-.2-.5-.5s.2-.5.5-.5.5.2.5.5-.2.5-.5.5c.1 0 0 0 0 0zm.4 4.6h-.8v-3.8h.8v3.8zM111.4 48.4h-.8v-5.6h.8v5.6zM60.2 52.5c-.1 0-.3-.1-.4-.1-.5 0-.6.4-.6.8v.4h.9v.6h-.9v3.2h-.8v-3.2h-.5v-.6h.5v-.4c0-.4.1-.7.3-1 .2-.3.6-.4.9-.4.2 0 .4 0 .7.1l-.1.6zM62.3 57.6c-1.1 0-2-.9-2-2s.9-2 2-2 2 .9 2 2-.8 2-1.9 2h-.1zm0-3.4c-.8 0-1.2.6-1.2 1.3 0 .7.5 1.4 1.2 1.4.8 0 1.2-.6 1.2-1.4 0-.7-.5-1.3-1.2-1.3zM67.2 54.4c-.2-.1-.3-.1-.5-.1s-.5.1-.6.3c-.2.3-.3.6-.2 1v1.9h-.8v-3.8h.8v.6c.1-.4.5-.7.9-.7.1 0 .3 0 .4.1v.7zM71.3 57.5c-.2.1-.5.1-.7.1-.3 0-.6-.1-.8-.4-.2-.2-.2-.5-.2-1.1v-1.7H69v-.6h.6v-1.1h.8v1.1h.9v.6h-.9V56c0 .2 0 .5.1.7.1.1.2.2.4.2.1 0 .3 0 .4-.1v.7zM75.3 57.5h-.8v-2.2c0-.5-.1-1.1-.8-1.1-.7 0-1 .6-1 1.4v1.9H72v-5.6h.8v2.3c.2-.4.7-.7 1.2-.7 1.1 0 1.4.7 1.4 1.6l-.1 2.4zM79.8 55.8h-3c0 .8.5 1.2 1.2 1.2.5 0 .9-.2 1.3-.4l.3.4s-.5.6-1.7.6c-1.1 0-1.9-.8-1.9-2 0-1 .8-1.9 1.8-2h.1c1 0 1.8.7 1.8 1.7v.1c.1.2.1.3.1.4zm-.7-.5c0-.6-.5-1.1-1.1-1.1-.6 0-1.1.5-1.1 1.1h2.2zM86.9 57.5H86l-.6-1.5H83l-.6 1.5h-.8l2.2-5.6h.7l2.4 5.6zm-1.7-2.1l-1-2.5-1 2.5h2zM89.5 54.4c-.2-.1-.3-.1-.5-.1s-.5.1-.6.3c-.2.3-.3.6-.2 1v1.9h-.8v-3.8h.8v.6c.1-.4.5-.7.9-.7.1 0 .3 0 .4.1v.7zM92 57.5c-.2.1-.5.1-.7.1-.3 0-.6-.1-.8-.4-.2-.2-.2-.5-.2-1.1v-1.7h-.6v-.6h.6v-1.1h.8v1.1h.9v.6h-.9V56c0 .2 0 .5.1.7.1.1.2.2.4.2.1 0 .3 0 .4-.1v.7zM94.8 57.3c-.3.2-.7.4-1.1.3-.6 0-1.1-.2-1.5-.7l.4-.5c.3.3.7.5 1.1.5.4 0 .7-.1.7-.5s-.6-.5-.9-.6c-.2 0-.4-.1-.5-.2-.4-.2-.6-.5-.6-.9 0-.7.6-1.1 1.3-1.1.5 0 1 .1 1.3.5l-.3.5c-.3-.3-.6-.4-1-.4s-.6.2-.6.5.4.5.7.6c.2.1.4.1.5.2.2.1.3.2.4.3.2.2.3.4.3.7.2.2.1.5-.2.8zM51.7 57.7c-1.2-1.2-4.8-2.3-8.5-2.5l-.6.6c3.1.1 6.1 1 7.2 2 1 .8.8 1.9-.3 2.6-1.7 1.2-5.2 1.7-9 1.7s-7.3-.5-9-1.7c-1.2-.7-1.3-1.8-.3-2.6 1.1-1 4.1-1.9 7.2-2-.1-.3-.3-.5-.6-.6-3.7.2-7.3 1.3-8.5 2.5-1.7 1.5-.3 3.3 3.4 4.4 2.1.6 5 1 7.8 1 2.9 0 5.8-.3 7.8-1 3.7-1.1 5.1-2.8 3.4-4.4z"/>
  <path d="M49.7 45.2c-.1-1-.9-1.8-1.9-2.2.4-.5.5-1.3.2-1.9-.5-1.1-1.7-1.4-2.5-1.4-1.1.1-1.7.5-2.9 1.4-.3-.2-.8-.6-1-.8.5-.4 1-.8 1.6-1.1.4-.2.8-.4 1.3-.5-1-1.2-2.4-1.9-4-1.9-1.5 0-3 .7-4 1.9.5.1.9.2 1.3.5.6.3 1.1.7 1.6 1.1-.2.2-.8.6-1 .8-1.1-.9-1.8-1.3-2.8-1.4-.8-.1-2 .3-2.5 1.4-.3.6-.2 1.3.2 1.9-1 .4-1.8 1.2-1.9 2.2-.1 1 .5 2 1.6 2.4-.3.3-.4.8-.4 1.2 0 1 .9 2.3 2.8 2.3 1.4 0 2-.5 3.1-1.3.1.1.9 1.5.9 3.8 0 0 .1 1.8-.8 6.2 0 .2.9.4 2.1.4 1.2 0 2.1-.2 2.1-.4-.9-4.4-.8-6.2-.8-6.2 0-2.4.9-3.7.9-3.8 1.1.9 1.7 1.3 3.1 1.3 1.9.1 2.8-1.3 2.8-2.3 0-.4-.2-.8-.4-1.2.8-.4 1.4-1.4 1.3-2.4zm-4.2-4.1c1-.1 1.4.5 1.3.9-.1.5-.7.9-1.3.8-.6-.1-1-.3-1.7-.9.5-.3 1.1-.7 1.7-.8zm-2.8 1.7c.3.2.6.5.9.6.1.1.2.2.4.3-.2.1-.3.2-.5.4-.1.1-.4.3-.6.4-.3-.2-.7-.6-1.2-.9.3-.2.6-.5 1-.8zm-1.1-.8c-.3.2-.6.5-1 .8-.4-.3-.7-.5-1-.8.2-.2.6-.4 1-.8.4.3.7.6 1 .8zm-2.5-3.5s.4-.4 1.4-.4c1 0 1.4.4 1.4.4-.2.1-.4.3-.7.4-.5.3-.7.5-.7.5s-.2-.2-.7-.5c-.2-.1-.4-.2-.7-.4zm1.4 6h.1l1.2.9c-.2.2-.4.3-.6.5-.2.1-.4.3-.6.4-.2-.2-.4-.3-.6-.4-.2-.1-.4-.3-.6-.5.3-.3.7-.6 1.1-.9zm-2.1-1.7c.4.3.7.6 1 .8-.5.4-.9.7-1.2.9-.2-.2-.4-.3-.6-.4-.2-.1-.3-.2-.5-.4.1-.1.2-.2.4-.3.2-.1.5-.3.9-.6zm-2.8-1.7c.6 0 1.2.5 1.7.8-.7.6-1.1.8-1.7.9-.6.1-1.2-.3-1.3-.8-.1-.3.3-.9 1.3-.9zm-2.9 4.4c0-.5.4-1.3 1.7-1.3.9-.1 1.6.5 2.6 1.3-.8.6-1.5 1.2-2.6 1.2-.9 0-1.7-.7-1.7-1.2zm2.7 4.3c-1 0-1.6-.4-1.5-1 0-.4 1-1.4 2.9-.5.3.1.5.3.7.5-1 .6-1.4.9-2.1 1zm3.1-1.9c-.4-.4-.8-.7-1.3-.9.3-.2.6-.4.9-.7.4.3.9.6 1.2.9-.2.2-.5.4-.8.7zm2.1 3.7v.1-.1c-.2-.9-.6-1.8-1-2.6.4-.3.7-.5 1-.8.3.2.7.5 1 .8-.5.8-.9 1.7-1 2.6zm1.9-3.7c-.3-.2-.6-.4-.9-.7l1.2-.9c.3.3.6.5.9.7-.4.2-.8.5-1.2.9zm3.2 1.9c-.8 0-1.1-.3-2.1-1.1.2-.2.5-.3.7-.5 2-.9 2.9.1 2.9.5.1.6-.5 1.1-1.5 1.1zm.9-3.2c-1.2-.1-1.8-.6-2.6-1.2 1-.8 1.7-1.3 2.6-1.3 1.4.1 1.8.8 1.7 1.3-.1.5-.7 1.3-1.7 1.2z"/>
</svg>
