<svg xmlns="http://www.w3.org/2000/svg" focusable="false" role="img" viewBox="0 0 200 100" fill="currentColor">
  <path d="M66.61 38.14h-.72v4.42h.72a2.21 2.21 0 100-4.42zM75 41.07h1.85l-.9-2.64-.95 2.64zM129.43 58.21h1.83l-.92-2.65-.91 2.65zM130.12 42.66c1.28 0 1.77-1.18 1.77-2.33 0-1.15-.51-2.33-1.77-2.33s-1.8 1.16-1.8 2.29c0 1.13.52 2.37 1.8 2.37zM40.4 55.16c-1.29 0-1.77 1.15-1.77 2.28s.49 2.34 1.77 2.34 1.8-1.16 1.8-2.34-.51-2.28-1.8-2.28zM58.32 38.43l-1 2.64h1.94l-.89-2.64h-.05zM122.8 39.17c0-.74-.56-1-1.2-1h-.44v1.95h.44c.64 0 1.2-.21 1.2-.95zM39.71 41.07h1.85l-.92-2.64-.93 2.64zM31.88 55.31h-.43v1.95h.43c.65 0 1.21-.21 1.21-.95s-.56-1-1.21-1zM147.06 58.21h1.84l-.9-2.67-.94 2.67zM156.32 55.26h-.72v4.42h.72a2.212 2.212 0 001.563-3.773 2.212 2.212 0 00-1.563-.647zM165.69 55.54l-.93 2.67h1.85l-.92-2.67z"/>
  <path d="M22.5 30.43v18h62a14.93 14.93 0 0129.86 0h61.7v.92h-61.7a14.917 14.917 0 01-15.027 14.436A14.92 14.92 0 0184.53 49.12v.24h-62v18h154v-37l-154.03.07zm9.06 10a2.1 2.1 0 001.9 2.3h.25c.48.008.954-.09 1.39-.29v1.08c-.468.12-.947.19-1.43.21-2.06 0-3.49-1.05-3.49-3.21A3.17 3.17 0 0133.06 37c.21-.02.42-.02.63 0 .488.002.972.09 1.43.26l-.07 1.08a2.53 2.53 0 00-1.36-.34 2.12 2.12 0 00-2.14 2.12.83.83 0 00.01.27v.04zm11.11 3.18l-.54-1.46h-2.57L39 43.57h-1.34l2.49-6.44h1.44l2.49 6.44-1.41.04zm9.65 0h-1.57l-2.41-4.8v4.8h-1.2v-6.48h1.54l2.4 4.87v-4.87h1.24v6.48zm8 0l-.54-1.46h-2.56l-.57 1.46h-1.31l2.47-6.44h1.43l2.49 6.44h-1.41zm6.26 0h-1.74v-6.48h1.74c2 0 3.67.67 3.67 3.23s-1.72 3.21-3.67 3.21v.04zm11.42 0l-.53-1.46H74.9l-.57 1.46H73l2.44-6.44h1.44l2.56 6.44H78zm43.91-2.44h-.54v2.44h-1.28v-6.48h1.62c1.38 0 2.64.41 2.64 1.95s-1.08 2.05-2.44 2.05v.04zm11.52-.79c0 1.95-1.1 3.36-3.1 3.36s-3.11-1.39-3.11-3.36a3.12 3.12 0 016.22-.43c.005.13.001.26-.01.39v.04zm4.93 3.38a5.994 5.994 0 01-1.64-.25l.13-1.16c.432.26.926.402 1.43.41.49 0 1.13-.26 1.13-.82 0-1.23-2.77-.72-2.77-2.85 0-1.44 1.1-1.95 2.21-1.95a4.58 4.58 0 011.51.23l-.07 1A3.145 3.145 0 00139 38a.884.884 0 00-.887.424.9.9 0 00-.113.326.655.655 0 000 .14c0 1.13 2.77.65 2.77 2.8-.02 1.44-1.13 2.03-2.41 2.03v.04zm10.09-5.57h-1.83v5.42h-1.25v-5.46h-1.83v-1h4.91v1.04zm6.85 5.42h-3.77v-6.48h3.74v1h-2.46v1.6h2.26v1h-2.26v1.82h2.49v1.06zm5.08.15a5.892 5.892 0 01-1.62-.25l.1-1.16a2.9 2.9 0 001.44.41c.49 0 1.13-.26 1.13-.82 0-1.23-2.77-.72-2.77-2.85 0-1.44 1.1-1.95 2.21-1.95a4.58 4.58 0 011.51.23l-.1 1A3.056 3.056 0 00161 38a.884.884 0 00-.887.424.9.9 0 00-.113.326.655.655 0 000 .14c0 1.13 2.78.65 2.78 2.8-.01 1.44-1.12 2.03-2.4 2.03v.04zM32.2 58.27h-.54v2.44H30.4v-6.44H32c1.39 0 2.65.41 2.65 1.95s-1.09 2.05-2.45 2.05zm11.52-.82c0 1.95-1.08 3.36-3.11 3.36s-3.14-1.38-3.14-3.36a3.14 3.14 0 016.26-.45c.007.15.004.3-.01.45zm5 3.41a5.82 5.82 0 01-1.61-.25l.1-1.16c.443.24.936.373 1.44.39.48 0 1.12-.26 1.12-.82 0-1.24-2.77-.72-2.77-2.85a2 2 0 012-2h.23a4.58 4.58 0 011.51.23l-.1 1.08a3.17 3.17 0 00-1.28-.28.882.882 0 00-1 .75.752.752 0 000 .15c0 1.1 2.77.64 2.77 2.79-.07 1.39-1.13 1.97-2.46 1.97h.05zm10.06-5.59h-1.84v5.42h-1.29v-5.42h-1.82v-1h4.9l.05 1zm62.49 2.21a2.092 2.092 0 001.89 2.27h.26a3.71 3.71 0 001.39-.25v1.1c-.473.11-.955.178-1.44.2-2.05 0-3.46-1-3.46-3.23a3.145 3.145 0 011.667-3.09c.368-.193.77-.312 1.183-.35.203-.02.407-.02.61 0 .491.002.979.09 1.44.26l-.08 1.08a2.408 2.408 0 00-1.38-.34 2.141 2.141 0 00-2.13 2.35h.05zm11.14 3.23l-.54-1.46h-2.57l-.56 1.46h-1.31l2.46-6.44h1.44l2.49 6.44h-1.41zm9.67 0h-1.56l-2.42-4.8v4.8h-1.24v-6.44h1.57l2.41 4.8v-4.8H142l.08 6.44zm8 0l-.59-1.46h-2.59l-.56 1.46H145l2.49-6.44H149l2.51 6.44h-1.43zm6.21 0h-1.74v-6.44h1.74c1.95 0 3.67.67 3.67 3.21s-1.74 3.21-3.69 3.21l.02.02zm11.42 0l-.54-1.46h-2.56l-.61 1.46h-1.31l2.47-6.44h1.43l2.49 6.44h-1.37z"/>
  <path d="M94.53 50.94l1.05-1.07 11.83-.54.54-.54H96.27l-6.34-7.52 21.2 7.16-7.08 7.19H89.93l1.41-1.44 11.83-.54.52-.54H92.4l1.05-1.08 11.83-.54.54-.54H94.53z"/>
</svg>
