<svg width="200" height="100" viewBox="0 0 200 100" fill="none" xmlns="http://www.w3.org/2000/svg">
<path d="M123 47.7001C122.5 48.3001 121.7 48.6001 121 48.5001C119.4 48.5001 118.2 47.4001 118.2 45.6001C118.2 44.0001 119.5 42.7001 121.1 42.7001C121.8 42.7001 122.5 43.0001 123 43.4001L122.7 44.0001C122.3 43.6001 121.7 43.3001 121.1 43.3001C119.9 43.3001 119 44.2001 119 45.5001C119 46.8001 119.9 47.7001 121.1 47.7001C121.7 47.7001 122.3 47.5001 122.8 47.0001L123 47.7001Z" fill="#111111"/>
<path d="M125.4 48.5C124.3 48.5 123.4 47.6 123.4 46.5C123.4 45.4 124.3 44.5 125.4 44.5C126.5 44.5 127.4 45.4 127.4 46.5C127.4 47.6 126.6 48.5 125.5 48.5H125.4ZM125.4 45.2C124.6 45.2 124.2 45.8 124.2 46.5C124.2 47.3 124.7 47.9 125.4 47.9C126.2 47.9 126.6 47.3 126.6 46.5C126.6 45.7 126.1 45.2 125.4 45.2Z" fill="#111111"/>
<path d="M131.5 48.4H130.7V46.3C130.7 45.7 130.6 45.2 129.9 45.2C129.2 45.2 128.9 45.8 128.9 46.5V48.4H128.1V44.6H128.9V45.2C129.1 44.8 129.6 44.5 130.1 44.5C131.2 44.5 131.5 45.2 131.5 46.1V48.4Z" fill="#111111"/>
<path d="M134.8 48.2C134.5 48.4 134.1 48.6 133.7 48.5C133.1 48.5 132.6 48.3 132.2 47.8L132.6 47.3C132.9 47.6 133.3 47.8 133.7 47.8C134.1 47.8 134.4 47.7 134.4 47.3C134.4 46.9 133.8 46.7 133.5 46.7C133.3 46.6 133.1 46.6 133 46.5C132.6 46.3 132.4 46 132.4 45.6C132.4 44.9 133 44.5 133.7 44.5C134.2 44.5 134.7 44.6 135 45L134.7 45.5C134.4 45.2 134.1 45.1 133.7 45.1C133.3 45.1 133.1 45.3 133.1 45.6C133.1 45.9 133.5 46.1 133.8 46.2C134 46.3 134.2 46.3 134.3 46.4C134.5 46.5 134.6 46.6 134.7 46.7C134.9 46.9 135 47.1 135 47.4C135.2 47.7 135 48 134.8 48.2Z" fill="#111111"/>
<path d="M139.4 46.7H136.4C136.4 47.5 136.9 47.9 137.6 47.9C138.1 47.9 138.5 47.7 138.9 47.5L139.2 47.9C139.2 47.9 138.7 48.5 137.5 48.5C136.4 48.5 135.6 47.7 135.6 46.5C135.6 45.5 136.4 44.6 137.4 44.5H137.5C138.5 44.5 139.3 45.2 139.3 46.2C139.3 46.3 139.3 46.3 139.3 46.4C139.4 46.5 139.4 46.7 139.4 46.7ZM138.7 46.2C138.7 45.6 138.2 45.1 137.6 45.1C137 45.1 136.5 45.6 136.5 46.2H138.7Z" fill="#111111"/>
<path d="M140.6 43.8C140.3 43.8 140.1 43.6 140.1 43.3C140.1 43 140.3 42.8 140.6 42.8C140.9 42.8 141.1 43 141.1 43.3C141.1 43.6 140.9 43.8 140.6 43.8ZM141 48.4001H140.2V44.6H141V48.4001Z" fill="#111111"/>
<path d="M142.9 48.4001H142.1V42.8H142.9V48.4001Z" fill="#111111"/>
<path d="M149.3 48.4H148.6V47.8C148.3 48.3 147.8 48.5 147.3 48.5C146.2 48.5 145.4 47.6 145.4 46.5C145.4 45.4 146.1 44.5 147.2 44.5C147.7 44.5 148.2 44.7 148.5 45.2V42.9H149.3V48.4ZM147.3 45.2C146.5 45.2 146.1 45.8 146.1 46.5C146.1 47.3 146.6 47.9 147.3 47.9C148.1 47.9 148.5 47.3 148.5 46.5C148.6 45.8 148.1 45.2 147.3 45.2Z" fill="#111111"/>
<path d="M153.9 46.7H150.9C150.9 47.5 151.4 47.9 152.1 47.9C152.6 47.9 153 47.7 153.4 47.5L153.7 47.9C153.7 47.9 153.2 48.5 152 48.5C150.9 48.5 150.1 47.7 150.1 46.5C150.1 45.5 150.9 44.6 151.9 44.5H152C153 44.5 153.8 45.2 153.8 46.2C153.8 46.3 153.8 46.3 153.8 46.4C153.9 46.5 153.9 46.6 153.9 46.7ZM153.2 46.2C153.2 45.6 152.7 45.1 152.1 45.1C151.5 45.1 151 45.6 151 46.2H153.2Z" fill="#111111"/>
<path d="M156.8 48.2C156.5 48.4 156.1 48.6 155.7 48.5C155.1 48.5 154.6 48.3 154.2 47.8L154.6 47.3C154.9 47.6 155.3 47.8 155.7 47.8C156.1 47.8 156.4 47.7 156.4 47.3C156.4 46.9 155.8 46.7 155.5 46.7C155.3 46.6 155.1 46.6 155 46.5C154.6 46.3 154.4 46 154.4 45.6C154.4 44.9 155 44.5 155.7 44.5C156.2 44.5 156.7 44.6 157 45L156.7 45.5C156.4 45.2 156.1 45.1 155.7 45.1C155.3 45.1 155.1 45.3 155.1 45.6C155.1 45.9 155.5 46.1 155.8 46.2C156 46.3 156.2 46.3 156.3 46.4C156.5 46.5 156.6 46.6 156.7 46.7C156.9 46.9 157 47.1 157 47.4C157.3 47.7 157.1 48 156.8 48.2Z" fill="#111111"/>
<path d="M162.6 48.4H161.9V47.9C161.6 48.3 161.2 48.5 160.7 48.5C160 48.5 159.4 48.1 159.4 47.3C159.4 46.5 160 46.2 160.9 46.1H161.9V46C161.9 45.4 161.5 45.1 160.9 45.1C160.5 45.1 160.1 45.2 159.7 45.4L159.5 44.9C159.9 44.7 160.4 44.5 160.9 44.5C161.5 44.5 161.9 44.7 162.2 44.9C162.5 45.2 162.6 45.5 162.6 46.1V48.4ZM161.8 46.6L160.9 46.7C160.3 46.7 160 47 160 47.4C160 47.8 160.3 48.1 160.8 48.1C161.2 48.1 161.6 47.9 161.8 47.5V46.6Z" fill="#111111"/>
<path d="M165.7 45.3C165.5 45.2 165.4 45.2 165.2 45.2C165 45.2 164.7 45.3 164.6 45.5C164.4 45.8 164.3 46.1 164.4 46.5V48.4H163.6V44.6H164.4V45.2C164.5 44.8 164.9 44.5 165.3 44.5C165.4 44.5 165.6 44.5 165.7 44.6V45.3Z" fill="#111111"/>
<path d="M168.1 48.4001C167.9 48.5001 167.6 48.5001 167.4 48.5001C167.1 48.5001 166.8 48.4001 166.6 48.1001C166.4 47.9001 166.4 47.6001 166.4 47.0001V45.3001H165.8V44.7001H166.4V43.6001H167.2V44.7001H168.1V45.3001H167.2V47.0001C167.2 47.2001 167.2 47.5001 167.3 47.7001C167.4 47.8001 167.5 47.9001 167.7 47.9001C167.8 47.9001 168 47.9001 168.1 47.8001V48.4001Z" fill="#111111"/>
<path d="M171 48.2C170.7 48.4 170.3 48.6 169.9 48.5C169.3 48.5 168.8 48.3 168.4 47.8L168.8 47.3C169.1 47.6 169.5 47.8 169.9 47.8C170.3 47.8 170.6 47.7 170.6 47.3C170.6 46.9 170 46.7 169.7 46.7C169.5 46.6 169.3 46.6 169.2 46.5C168.8 46.3 168.6 46 168.6 45.6C168.6 44.9 169.2 44.5 169.9 44.5C170.4 44.5 170.9 44.6 171.2 45L170.9 45.5C170.6 45.2 170.3 45.1 169.9 45.1C169.5 45.1 169.3 45.3 169.3 45.6C169.3 45.9 169.7 46.1 170 46.2C170.2 46.3 170.4 46.3 170.5 46.4C170.7 46.5 170.8 46.6 170.9 46.7C171.1 46.9 171.2 47.1 171.2 47.4C171.4 47.7 171.2 48 171 48.2Z" fill="#111111"/>
<path d="M122 57.5H121.3V56.9C121 57.4 120.5 57.6 120 57.6C118.9 57.6 118.1 56.7 118.1 55.6C118.1 54.5 118.8 53.6 119.9 53.6C120.4 53.6 120.9 53.8 121.2 54.3V52H122V57.5ZM120.1 54.2C119.3 54.2 118.9 54.8 118.9 55.5C118.9 56.3 119.4 56.9 120.1 56.9C120.9 56.9 121.3 56.3 121.3 55.5C121.3 54.8 120.8 54.2 120.1 54.2Z" fill="#111111"/>
<path d="M126.4 57.5001H125.7V57.0001C125.4 57.4001 125 57.7001 124.5 57.6001C124.1 57.6001 123.7 57.5001 123.4 57.2001C123.2 57.0001 123.1 56.6001 123.1 56.0001V53.7001H123.9V56.0001C123.9 56.5001 124 57.0001 124.7 57.0001C125.4 57.0001 125.7 56.4001 125.7 55.8001V53.7001H126.5L126.4 57.5001Z" fill="#111111"/>
<path d="M133.7 56.8C133.2 57.4 132.4 57.7 131.7 57.6C130.1 57.6 128.9 56.5001 128.9 54.7001C128.9 53.1001 130.2 51.8 131.8 51.8C132.5 51.8 133.2 52.1 133.7 52.5L133.4 53.1C133 52.7 132.4 52.4001 131.8 52.4001C130.6 52.4001 129.7 53.3 129.7 54.6C129.7 55.9 130.6 56.8 131.8 56.8C132.4 56.8 133 56.6 133.5 56.1L133.7 56.8Z" fill="#111111"/>
<path d="M137.4 57.5H136.7V57C136.4 57.4 136 57.6 135.5 57.6C134.8 57.6 134.2 57.2 134.2 56.4C134.2 55.6 134.8 55.3 135.7 55.2H136.7V55C136.7 54.4 136.3 54.1 135.7 54.1C135.3 54.1 134.9 54.2 134.5 54.4L134.3 53.9C134.7 53.7 135.2 53.5 135.7 53.5C136.3 53.5 136.7 53.7 137 53.9C137.3 54.2 137.4 54.5 137.4 55.1V57.5ZM136.6 55.7L135.7 55.8C135.1 55.8 134.8 56.1 134.8 56.5C134.8 56.9 135.1 57.2 135.6 57.2C136 57.2 136.4 57 136.6 56.6V55.7Z" fill="#111111"/>
<path d="M141.7 57.5001H140.9V55.4001C140.9 54.8001 140.8 54.3001 140.1 54.3001C139.4 54.3001 139.1 54.9001 139.1 55.6001V57.5001H138.3V53.7001H139.1V54.3001C139.3 53.9001 139.8 53.6001 140.3 53.6001C141.4 53.6001 141.7 54.3001 141.7 55.2001V57.5001Z" fill="#111111"/>
<path d="M145.7 57.5H145V57C144.7 57.4 144.3 57.6 143.8 57.6C143.1 57.6 142.5 57.2 142.5 56.4C142.5 55.6 143.1 55.3 144 55.2H145V55C145 54.4 144.6 54.1 144 54.1C143.6 54.1 143.2 54.2 142.8 54.4L142.6 53.9C143 53.7 143.5 53.5 144 53.5C144.6 53.5 145 53.7 145.3 53.9C145.6 54.2 145.7 54.5 145.7 55.1V57.5ZM145 55.7L144.1 55.8C143.5 55.8 143.2 56.1 143.2 56.5C143.2 56.9 143.5 57.2 144 57.2C144.4 57.2 144.8 57 145 56.6V55.7Z" fill="#111111"/>
<path d="M150.4 57.5H149.7V56.9C149.4 57.4 148.9 57.6 148.4 57.6C147.3 57.6 146.5 56.7 146.5 55.6C146.5 54.5 147.2 53.6 148.3 53.6C148.8 53.6 149.3 53.8 149.6 54.3V52H150.4V57.5ZM148.5 54.2C147.7 54.2 147.3 54.8 147.3 55.5C147.3 56.3 147.8 56.9 148.5 56.9C149.3 56.9 149.7 56.3 149.7 55.5C149.7 54.8 149.2 54.2 148.5 54.2Z" fill="#111111"/>
<path d="M154.5 57.5H153.8V57C153.5 57.4 153.1 57.6 152.6 57.6C151.9 57.6 151.3 57.2 151.3 56.4C151.3 55.6 151.9 55.3 152.8 55.2H153.8V55C153.8 54.4 153.4 54.1 152.8 54.1C152.4 54.1 152 54.2 151.6 54.4L151.4 53.9C151.8 53.7 152.3 53.5 152.8 53.5C153.4 53.5 153.8 53.7 154.1 53.9C154.4 54.2 154.5 54.5 154.5 55.1V57.5ZM153.7 55.7L152.8 55.8C152.2 55.8 151.9 56.1 151.9 56.5C151.9 56.9 152.2 57.2 152.7 57.2C153.1 57.2 153.5 57 153.7 56.6V55.7Z" fill="#111111"/>
<path d="M62.9 47.7001C62.4 48.3001 61.6 48.6001 60.9 48.5001C59.3 48.5001 58.1 47.4001 58.1 45.6001C58.1 44.0001 59.4 42.7001 61 42.7001C61.7 42.7001 62.4 43.0001 62.9 43.4001L62.6 44.0001C62.2 43.6001 61.6 43.3001 61 43.3001C59.8 43.3001 58.9 44.2001 58.9 45.5001C58.9 46.8001 59.8 47.7001 61 47.7001C61.6 47.7001 62.2 47.5001 62.7 47.0001L62.9 47.7001Z" fill="#111111"/>
<path d="M66.6 48.4H65.9V47.9C65.6 48.3 65.2 48.5 64.7 48.5C64 48.5 63.4 48.1 63.4 47.3C63.4 46.5 64 46.2 64.9 46.1H65.9V46C65.9 45.4 65.5 45.1 64.9 45.1C64.5 45.1 64.1 45.2 63.7 45.4L63.5 44.9C63.9 44.7 64.4 44.5 64.9 44.5C65.5 44.5 65.9 44.7 66.2 44.9C66.5 45.2 66.6 45.5 66.6 46.1V48.4ZM65.9 46.6L65 46.7C64.4 46.7 64.1 47 64.1 47.4C64.1 47.8 64.4 48.1 64.9 48.1C65.3 48.1 65.7 47.9 65.9 47.5V46.6Z" fill="#111111"/>
<path d="M70.9 48.4H70.1V46.3C70.1 45.7 70 45.2 69.3 45.2C68.6 45.2 68.3 45.8 68.3 46.5V48.4H67.5V44.6H68.3V45.2C68.5 44.8 69 44.5 69.5 44.5C70.6 44.5 70.9 45.2 70.9 46.1V48.4Z" fill="#111111"/>
<path d="M75 48.4H74.3V47.9C74 48.3 73.6 48.5 73.1 48.5C72.4 48.5 71.8 48.1 71.8 47.3C71.8 46.5 72.4 46.2 73.3 46.1H74.3V46C74.3 45.4 73.9 45.1 73.3 45.1C72.9 45.1 72.5 45.2 72.1 45.4L71.9 44.9C72.3 44.7 72.8 44.5 73.3 44.5C73.9 44.5 74.3 44.7 74.6 44.9C74.9 45.1 75 45.5 75 46.1V48.4ZM74.2 46.6L73.3 46.7C72.7 46.7 72.4 47 72.4 47.4C72.4 47.8 72.7 48.1 73.2 48.1C73.6 48.1 74 47.9 74.2 47.5V46.6Z" fill="#111111"/>
<path d="M79.7 48.4H79V47.8C78.7 48.3 78.2 48.5 77.7 48.5C76.6 48.5 75.8 47.6 75.8 46.5C75.8 45.4 76.5 44.5 77.6 44.5C78.1 44.5 78.6 44.7 78.9 45.2V42.9H79.7V48.4ZM77.7 45.2C76.9 45.2 76.5 45.8 76.5 46.5C76.5 47.3 77 47.9 77.7 47.9C78.5 47.9 78.9 47.3 78.9 46.5C78.9 45.8 78.5 45.2 77.7 45.2Z" fill="#111111"/>
<path d="M83.7 48.4H83V47.9C82.7 48.3 82.3 48.5 81.8 48.5C81.1 48.5 80.5 48.1 80.5 47.3C80.5 46.5 81.1 46.2 82 46.1H83V46C83 45.4 82.6 45.1 82 45.1C81.6 45.1 81.2 45.2 80.8 45.4L80.6 44.9C81 44.7 81.5 44.5 82 44.5C82.6 44.5 83 44.7 83.3 44.9C83.6 45.2 83.7 45.5 83.7 46.1V48.4ZM83 46.6L82.1 46.7C81.5 46.7 81.2 47 81.2 47.4C81.2 47.8 81.5 48.1 82 48.1C82.4 48.1 82.8 47.9 83 47.5V46.6Z" fill="#111111"/>
<path d="M91 47.7001C90.5 48.3001 89.7 48.6001 89 48.5001C87.4 48.5001 86.2 47.4001 86.2 45.6001C86.2 44.0001 87.5 42.7001 89.1 42.7001C89.8 42.7001 90.5 43.0001 91 43.4001L90.7 44.0001C90.3 43.6001 89.7 43.3001 89.1 43.3001C87.9 43.3001 87 44.2001 87 45.5001C87 46.8001 87.9 47.7001 89.1 47.7001C89.7 47.7001 90.3 47.5001 90.8 47.0001L91 47.7001Z" fill="#111111"/>
<path d="M93.4 48.5C92.3 48.5 91.4 47.6 91.4 46.5C91.4 45.4 92.3 44.5 93.4 44.5C94.5 44.5 95.4 45.4 95.4 46.5C95.4 47.6 94.6 48.5 93.5 48.5H93.4ZM93.4 45.2C92.6 45.2 92.1 45.8 92.1 46.5C92.1 47.3 92.6 47.9 93.4 47.9C94.2 47.9 94.6 47.3 94.6 46.5C94.6 45.7 94.1 45.2 93.4 45.2Z" fill="#111111"/>
<path d="M99.5 48.4H98.8V47.8C98.5 48.2 98.1 48.5 97.6 48.4C97.2 48.4 96.8 48.3 96.5 48C96.3 47.6 96.2 47.2 96.2 46.8V44.5H97V46.8C97 47.3 97.1 47.8 97.8 47.8C98.5 47.8 98.8 47.2 98.8 46.6V44.5H99.6L99.5 48.4Z" fill="#111111"/>
<path d="M103.9 48.4H103.1V46.3C103.1 45.7 103 45.2 102.3 45.2C101.6 45.2 101.3 45.8 101.3 46.5V48.4H100.5V44.6H101.3V45.2C101.5 44.8 102 44.5 102.5 44.5C103.6 44.5 103.9 45.2 103.9 46.1V48.4Z" fill="#111111"/>
<path d="M108.1 48.0001C108 48.1001 107.6 48.6001 106.6 48.6001C105.5 48.6001 104.6 47.7001 104.6 46.6001C104.6 45.5001 105.5 44.6001 106.6 44.6001C107.6 44.6001 108 45.1001 108.1 45.1001L107.8 45.7001C107.5 45.4001 107.1 45.2001 106.7 45.2001C106 45.2001 105.5 45.8001 105.5 46.4001V46.5001C105.5 47.3001 106 47.9001 106.7 47.9001C107.1 47.9001 107.6 47.7001 107.9 47.4001L108.1 48.0001Z" fill="#111111"/>
<path d="M109.1 43.8C108.8 43.8 108.6 43.6 108.6 43.3C108.6 43 108.8 42.8 109.1 42.8C109.4 42.8 109.6 43 109.6 43.3C109.6 43.6 109.4 43.8 109.1 43.8C109.2 43.8 109.1 43.8 109.1 43.8ZM109.5 48.4001H108.7V44.6H109.5V48.4001Z" fill="#111111"/>
<path d="M111.4 48.4001H110.6V42.8H111.4V48.4001Z" fill="#111111"/>
<path d="M60.2 52.5C60.1 52.5 59.9 52.4001 59.8 52.4001C59.3 52.4001 59.2 52.8001 59.2 53.2001V53.6H60.1V54.2001H59.2V57.4001H58.4V54.2001H57.9V53.6H58.4V53.2001C58.4 52.8001 58.5 52.5001 58.7 52.2001C58.9 51.9001 59.3 51.8 59.6 51.8C59.8 51.8 60 51.8001 60.3 51.9001L60.2 52.5Z" fill="#111111"/>
<path d="M62.3 57.6001C61.2 57.6001 60.3 56.7001 60.3 55.6001C60.3 54.5001 61.2 53.6001 62.3 53.6001C63.4 53.6001 64.3 54.5001 64.3 55.6001C64.3 56.7001 63.5 57.6001 62.4 57.6001C62.3 57.6001 62.3 57.6001 62.3 57.6001ZM62.3 54.2001C61.5 54.2001 61.1 54.8001 61.1 55.5001C61.1 56.2001 61.6 56.9001 62.3 56.9001C63.1 56.9001 63.5 56.3001 63.5 55.5001C63.5 54.8001 63 54.2001 62.3 54.2001Z" fill="#111111"/>
<path d="M67.2 54.4001C67 54.3001 66.9 54.3001 66.7 54.3001C66.5 54.3001 66.2 54.4001 66.1 54.6001C65.9 54.9001 65.8 55.2001 65.9 55.6001V57.5001H65.1V53.7001H65.9V54.3001C66 53.9001 66.4 53.6001 66.8 53.6001C66.9 53.6001 67.1 53.6001 67.2 53.7001V54.4001Z" fill="#111111"/>
<path d="M71.3 57.5001C71.1 57.6001 70.8 57.6001 70.6 57.6001C70.3 57.6001 70 57.5001 69.8 57.2001C69.6 57.0001 69.6 56.7001 69.6 56.1001V54.4001H69V53.8001H69.6V52.7001H70.4V53.8001H71.3V54.4001H70.4V56.0001C70.4 56.2001 70.4 56.5001 70.5 56.7001C70.6 56.8001 70.7 56.9001 70.9 56.9001C71 56.9001 71.2 56.9001 71.3 56.8001V57.5001Z" fill="#111111"/>
<path d="M75.3 57.5H74.5V55.3C74.5 54.8 74.4 54.2 73.7 54.2C73 54.2 72.7 54.8 72.7 55.6V57.5H72V51.9H72.8V54.2C73 53.8 73.5 53.5 74 53.5C75.1 53.5 75.4 54.2 75.4 55.1L75.3 57.5Z" fill="#111111"/>
<path d="M79.8 55.8001H76.8C76.8 56.6001 77.3 57.0001 78 57.0001C78.5 57.0001 78.9 56.8001 79.3 56.6001L79.6 57.0001C79.6 57.0001 79.1 57.6001 77.9 57.6001C76.8 57.6001 76 56.8001 76 55.6001C76 54.6001 76.8 53.7001 77.8 53.6001H77.9C78.9 53.6001 79.7 54.3001 79.7 55.3001V55.4001C79.8 55.6001 79.8 55.7001 79.8 55.8001ZM79.1 55.3001C79.1 54.7001 78.6 54.2001 78 54.2001C77.4 54.2001 76.9 54.7001 76.9 55.3001H79.1Z" fill="#111111"/>
<path d="M86.9 57.5H86L85.4 56H83L82.4 57.5H81.6L83.8 51.9H84.5L86.9 57.5ZM85.2 55.4L84.2 52.9L83.2 55.4H85.2Z" fill="#111111"/>
<path d="M89.5 54.4001C89.3 54.3001 89.2 54.3001 89 54.3001C88.8 54.3001 88.5 54.4001 88.4 54.6001C88.2 54.9001 88.1 55.2001 88.2 55.6001V57.5001H87.4V53.7001H88.2V54.3001C88.3 53.9001 88.7 53.6001 89.1 53.6001C89.2 53.6001 89.4 53.6001 89.5 53.7001V54.4001Z" fill="#111111"/>
<path d="M92 57.5001C91.8 57.6001 91.5 57.6001 91.3 57.6001C91 57.6001 90.7 57.5001 90.5 57.2001C90.3 57.0001 90.3 56.7001 90.3 56.1001V54.4001H89.7V53.8001H90.3V52.7001H91.1V53.8001H92V54.4001H91.1V56.0001C91.1 56.2001 91.1 56.5001 91.2 56.7001C91.3 56.8001 91.4 56.9001 91.6 56.9001C91.7 56.9001 91.9 56.9001 92 56.8001V57.5001Z" fill="#111111"/>
<path d="M94.8 57.3001C94.5 57.5001 94.1 57.7001 93.7 57.6001C93.1 57.6001 92.6 57.4001 92.2 56.9001L92.6 56.4001C92.9 56.7001 93.3 56.9001 93.7 56.9001C94.1 56.9001 94.4 56.8001 94.4 56.4001C94.4 56.0001 93.8 55.9001 93.5 55.8001C93.3 55.8001 93.1 55.7001 93 55.6001C92.6 55.4001 92.4 55.1001 92.4 54.7001C92.4 54.0001 93 53.6001 93.7 53.6001C94.2 53.6001 94.7 53.7001 95 54.1001L94.7 54.6001C94.4 54.3001 94.1 54.2001 93.7 54.2001C93.3 54.2001 93.1 54.4001 93.1 54.7001C93.1 55.0001 93.5 55.2001 93.8 55.3001C94 55.4001 94.2 55.4001 94.3 55.5001C94.5 55.6001 94.6 55.7001 94.7 55.8001C94.9 56.0001 95 56.2001 95 56.5001C95.2 56.7001 95.1 57.0001 94.8 57.3001Z" fill="#111111"/>
<path d="M51.7 57.7001C50.5 56.5001 46.9 55.4001 43.2 55.2001C43 55.4001 42.8 55.6001 42.6 55.8001C45.7 55.9001 48.7 56.8001 49.8 57.8001C50.8 58.6001 50.6 59.7001 49.5 60.4001C47.8 61.6001 44.3 62.1001 40.5 62.1001C36.7 62.1001 33.2 61.6001 31.5 60.4001C30.3 59.7001 30.2 58.6001 31.2 57.8001C32.3 56.8001 35.3 55.9001 38.4 55.8001C38.3 55.5001 38.1 55.3001 37.8 55.2001C34.1 55.4001 30.5 56.5001 29.3 57.7001C27.6 59.2001 29 61.0001 32.7 62.1001C34.8 62.7001 37.7 63.1001 40.5 63.1001C43.4 63.1001 46.3 62.8001 48.3 62.1001C52 61.0001 53.4 59.3001 51.7 57.7001Z" fill="#111111"/>
<path d="M49.7 45.2001C49.6 44.2001 48.8 43.4 47.8 43C48.2 42.5 48.3 41.7 48 41.1C47.5 40 46.3 39.7001 45.5 39.7001C44.4 39.8001 43.8 40.2 42.6 41.1C42.3 40.9 41.8 40.5 41.6 40.3C42.1 39.9 42.6 39.5001 43.2 39.2001C43.6 39.0001 44 38.8001 44.5 38.7001C43.5 37.5001 42.1 36.8 40.5 36.8C39 36.8 37.5 37.5001 36.5 38.7001C37 38.8001 37.4 38.9001 37.8 39.2001C38.4 39.5001 38.9 39.9 39.4 40.3C39.2 40.5 38.6 40.9 38.4 41.1C37.3 40.2 36.6 39.8001 35.6 39.7001C34.8 39.6001 33.6 40 33.1 41.1C32.8 41.7 32.9 42.4 33.3 43C32.3 43.4 31.5 44.2001 31.4 45.2001C31.3 46.2001 31.9 47.2 33 47.6C32.7 47.9 32.6 48.4 32.6 48.8C32.6 49.8 33.5 51.1 35.4 51.1C36.8 51.1 37.4 50.6 38.5 49.8C38.6 49.9 39.4 51.3 39.4 53.6C39.4 53.6 39.5 55.4 38.6 59.8C38.6 60 39.5 60.2001 40.7 60.2001C41.9 60.2001 42.8 60 42.8 59.8C41.9 55.4 42 53.6 42 53.6C42 51.2 42.9 49.9 42.9 49.8C44 50.7 44.6 51.1 46 51.1C47.9 51.2 48.8 49.8 48.8 48.8C48.8 48.4 48.6 48 48.4 47.6C49.2 47.2 49.8 46.2001 49.7 45.2001ZM45.5 41.1C46.5 41 46.9 41.6 46.8 42C46.7 42.5 46.1 42.9 45.5 42.8C44.9 42.7 44.5 42.5001 43.8 41.9001C44.3 41.6001 44.9 41.2 45.5 41.1ZM42.7 42.8C43 43 43.3 43.3001 43.6 43.4001C43.7 43.5001 43.8 43.6001 44 43.7001C43.8 43.8001 43.7 43.9 43.5 44.1C43.4 44.2 43.1 44.4 42.9 44.5C42.6 44.3 42.2 43.9 41.7 43.6C42 43.4 42.3 43.1 42.7 42.8ZM41.6 42C41.3 42.2 41 42.5 40.6 42.8C40.2 42.5 39.9 42.3 39.6 42C39.8 41.8 40.2 41.6001 40.6 41.2001C41 41.5001 41.3 41.8 41.6 42ZM39.1 38.5C39.1 38.5 39.5 38.1 40.5 38.1C41.5 38.1 41.9 38.5 41.9 38.5C41.7 38.6 41.5 38.8001 41.2 38.9001C40.7 39.2001 40.5 39.4001 40.5 39.4001C40.5 39.4001 40.3 39.2001 39.8 38.9001C39.6 38.8001 39.4 38.7 39.1 38.5ZM40.5 44.5H40.6C41 44.8 41.4 45.1001 41.8 45.4001C41.6 45.6001 41.4 45.7001 41.2 45.9001C41 46.0001 40.8 46.2 40.6 46.3C40.4 46.1 40.2 46.0001 40 45.9001C39.8 45.8001 39.6 45.6001 39.4 45.4001C39.7 45.1001 40.1 44.8 40.5 44.5ZM38.4 42.8C38.8 43.1 39.1 43.4 39.4 43.6C38.9 44 38.5 44.3 38.2 44.5C38 44.3 37.8 44.2 37.6 44.1C37.4 44 37.3 43.9001 37.1 43.7001C37.2 43.6001 37.3 43.5001 37.5 43.4001C37.7 43.3001 38 43.1 38.4 42.8ZM35.6 41.1C36.2 41.1 36.8 41.6001 37.3 41.9001C36.6 42.5001 36.2 42.7 35.6 42.8C35 42.9 34.4 42.5 34.3 42C34.2 41.7 34.6 41.1 35.6 41.1ZM32.7 45.5C32.7 45 33.1 44.2001 34.4 44.2001C35.3 44.1001 36 44.7 37 45.5C36.2 46.1 35.5 46.7001 34.4 46.7001C33.5 46.7001 32.7 46 32.7 45.5ZM35.4 49.8C34.4 49.8 33.8 49.4 33.9 48.8C33.9 48.4 34.9 47.4 36.8 48.3C37.1 48.4 37.3 48.6 37.5 48.8C36.5 49.4 36.1 49.7 35.4 49.8ZM38.5 47.9001C38.1 47.5001 37.7 47.2 37.2 47C37.5 46.8 37.8 46.6 38.1 46.3C38.5 46.6 39 46.9001 39.3 47.2001C39.1 47.4001 38.8 47.6001 38.5 47.9001ZM40.6 51.6V51.7001V51.6C40.4 50.7 40 49.8 39.6 49C40 48.7 40.3 48.5001 40.6 48.2001C40.9 48.4001 41.3 48.7 41.6 49C41.1 49.8 40.7 50.7 40.6 51.6ZM42.5 47.9001C42.2 47.7001 41.9 47.5001 41.6 47.2001C42 46.9001 42.4 46.6 42.8 46.3C43.1 46.6 43.4 46.8 43.7 47C43.3 47.2 42.9 47.5001 42.5 47.9001ZM45.7 49.8C44.9 49.8 44.6 49.5001 43.6 48.7001C43.8 48.5001 44.1 48.4001 44.3 48.2001C46.3 47.3001 47.2 48.3001 47.2 48.7001C47.3 49.3001 46.7 49.8 45.7 49.8ZM46.6 46.6C45.4 46.5 44.8 46.0001 44 45.4001C45 44.6001 45.7 44.1 46.6 44.1C48 44.2 48.4 44.9001 48.3 45.4001C48.2 45.9001 47.6 46.7 46.6 46.6Z" fill="#111111"/>
</svg>
