<svg xmlns="http://www.w3.org/2000/svg" focusable="false" role="img" viewBox="0 0 200 100" fill="currentColor">
  <path d="M105.71 45.55V59h-3.77v-1.71a5.494 5.494 0 01-4.32 1.93 6.641 6.641 0 01-6.59-7 6.64 6.64 0 016.59-7 5.317 5.317 0 014.32 1.93v-1.6h3.77zm-3.89 6.67a3.485 3.485 0 00-2.155-3.208 3.48 3.48 0 10-1.325 6.698 3.463 3.463 0 003.48-3.49zM122.06 51.59V59h-3.77v-7c0-2.13-1.26-3.08-2.56-3.08a2.858 2.858 0 00-3 3.17V59h-3.77V45.55h3.77v2.24c.58-1.81 2.7-2.59 4-2.59 3.52 0 5.36 2.36 5.33 6.39zM138.28 51.59V59h-3.77v-7c0-2.13-1.27-3.08-2.56-3.08a2.858 2.858 0 00-3 3.17V59h-3.77V45.55h3.77v2.24c.57-1.81 2.7-2.59 4-2.59 3.52 0 5.36 2.36 5.33 6.39zM154.62 53.46h-10.13a3.27 3.27 0 003.51 2.42 4.662 4.662 0 003.51-1.5l2.22 2.22a7.54 7.54 0 01-6 2.62 6.78 6.78 0 01-7.14-7 6.88 6.88 0 012.059-5.041 6.87 6.87 0 015.081-1.959 6.703 6.703 0 016.499 4.148c.348.847.518 1.756.501 2.672-.05.36-.08.82-.11 1.42zM150.91 51a2.86 2.86 0 00-1.046-1.916 2.838 2.838 0 00-2.094-.614 3.09 3.09 0 00-3.28 2.53h6.42zM156.63 52.19c0-4.25 3.46-7 7.37-7a6.87 6.87 0 015.67 2.88l-2.82 2a3.589 3.589 0 00-2.85-1.36 3.502 3.502 0 00-3.5 3.5 3.501 3.501 0 003.5 3.5 3.571 3.571 0 002.82-1.36l2.82 2a6.82 6.82 0 01-5.64 2.87 7.06 7.06 0 01-7.37-7.03zM180.12 48.45h-2.85V59h-3.77V48.45h-2.45v-2.9h2.45v-4.72h3.77v4.72h2.85v2.9zM83.33 40.5a8.738 8.738 0 016.29 2.42l.39.36-2.71 2.79-.3-.32a5.3 5.3 0 00-3.51-1.32 5.32 5.32 0 000 10.63A5.48 5.48 0 0087 53.81l.35-.3L90 56.33l-.36.36a8.93 8.93 0 01-6.32 2.53 9.36 9.36 0 110-18.72h.01zM62.29 47.75l-4.17-3.48a.48.48 0 00-.62 0l-4.17 3.48a.5.5 0 00-.17.37v5.59a.49.49 0 00.48.49H62a.48.48 0 00.48-.49v-5.59a.5.5 0 00-.17-.37"/>
  <path d="M41 29a19.651 19.651 0 0114.12 5.4l.52.47a.48.48 0 010 .69l-5.43 5.58a.47.47 0 01-.67 0c-.12-.11-.26-.24-.4-.39a12 12 0 00-7.89-3c-6.61 0-11.45 5.49-11.45 12a11.57 11.57 0 0011.53 11.94 12.4 12.4 0 007.83-2.81l.43-.38a.49.49 0 01.67 0l5.41 5.67a.48.48 0 010 .67l-.49.49A20 20 0 0141 71a21 21 0 110-42"/>
</svg>
