<svg width="200" height="100" viewBox="0 0 200 100" fill="none" xmlns="http://www.w3.org/2000/svg">
<path d="M65.7 35.6C63 40.1 63 40.1 57.9 39C56.9 38.8 55.9 38.6 54.5 38.3C55.1 40.7 55.7 42.9 56.3 45C57.3 48.6 57.3 48.6 53.4 49.5C54 50.1 54.5 50.6 55 51.1C58.8 54.4 62.5 57.8 66.3 61.1C68 62.5 68.3 63.8 67.4 65.7C66.9 66.6 66.7 67.6 66.2 69C70.6 68.2 74.5 67.5 79 66.6C75.8 72.1 72.9 77.3 69.7 82.7C56.9 60.8 44.3 39.1 31.5 17.1C57 17.1 82.1 17.1 107.3 17.1C106.3 20.8 92.9 42.8 91.2 43.2C91.8 40.2 92.4 37.4 93 34.5C93.6 31.7 94.2 28.9 94.9 25.6C92.9 26.7 91.5 27.5 90.1 28.3C88.9 29 88 28.9 87.3 27.5C85.9 24.5 84.3 21.5 82.4 18C81.1 20.5 80.1 22.5 79.1 24.6C76.8 29.3 76.8 29.3 72.4 26.7C71.9 26.4 71.3 26.1 70.4 25.6C71.6 31.6 72.7 37.3 73.8 42.9C73.6 43 73.4 43.1 73.2 43.2C70.1 41.4 68.3 38.1 65.7 35.6Z" fill="black"/>
<path d="M149.2 53.1999C145.5 51.4999 143.2 51.6999 141.5 53.8999C139.5 56.3999 139.6 61.0999 141.6 63.4999C143.4 65.6999 145.7 65.7999 149.8 63.7999C150.4 64.6999 151 65.5999 151.5 66.4999C148 70.1999 141.8 70.1999 138.1 66.5999C134.1 62.6999 134.1 55.0999 138 50.9999C141.6 47.2999 147.7 46.9999 151.2 50.3999C150.5 51.3999 149.8 52.2999 149.2 53.1999Z" fill="black"/>
<path d="M166.7 63.9C167.3 64.8 167.9 65.7 168.5 66.6C165 70.2 158.8 70.3 155.2 66.8C151.2 63 151.1 55.2 154.9 51.2C158.5 47.4 164.4 47.1 168.2 50.5C167.5 51.4 166.9 52.3 166.2 53.2C162.3 51.6 160 51.9 158.4 54.1C156.5 56.7 156.6 61.1 158.6 63.6C160.3 65.7 162.6 65.9 166.7 63.9Z" fill="black"/>
<path d="M103.9 50.5C103.2 51.4 102.5 52.3 101.9 53.2C97.7 51.6 95.6 51.9 94 54.3C92.2 56.9 92.4 61.5 94.4 63.8C96.2 65.9 98.7 66 102.4 64C103 64.9 103.6 65.8 104.2 66.6C101.1 70.1 94.9001 70.4 91.3001 67.2C87.2001 63.6 86.8 55.6 90.5 51.5C93.9 47.4 100 47 103.9 50.5Z" fill="black"/>
<path d="M127 39.7999C128.3 39.7999 129.8 39.7999 131.4 39.7999C131.4 42.3999 131.4 44.7999 131.4 47.2999C131.4 52.4999 131.4 57.5999 131.4 62.7999C131.4 63.9999 131.3 64.9999 132.8 65.5999C133.4 65.8999 133.5 67.4999 133.6 68.5999C133.6 68.7999 132.4 69.1999 131.7 69.2999C128.7 69.4999 126.9 68.1999 126.9 65.1999C126.7 56.8999 126.8 48.5999 126.8 40.2999C126.7 40.0999 126.8 39.9999 127 39.7999Z" fill="black"/>
<path d="M124.3 69.5C123.8 67.1 121.7 65.7999 118 65.6999C116.1 65.5999 114.1 65.6999 112.2 65.5999C111 65.4999 110 65 110.2 63.5C110.4 62 111.3 62 112.6 62.2C116.7 62.9 120.4 61.0999 121.2 57.5999C121.6 55.8999 121.3 53.9999 121.3 52.0999C121.9 52.0999 122.9 52 124 51.9C124 50.8 124 49.7999 124 48.7999C120.3 48.5999 116.7 48.2 113 48.2C108.7 48.3 105.4 51.6999 106 55.5999C106.2 57.3999 107.3 59.1 108.1 61C105.8 63.8 105.7 64.9999 108 68.0999C105.9 69.4999 104.8 71.3 105.5 73.8C106.2 76.1 108.1 76.9 110.2 77.3C113.5 78 116.8 77.7999 119.9 76.5C123.1 75.2 124.9 72.2999 124.3 69.5ZM113.9 51.4C116 51.5 117.3 53 117.2 55.5C117.2 57.9 115.7 59.5 113.7 59.5C111.6 59.5 110.1 57.5999 110.2 55.2999C110.4 52.7999 111.8 51.3 113.9 51.4ZM119.2 72.8C117.5 75.1 111.6 75.5 109.8 73.3C109.3 72.8 109.1 71.6 109.3 70.9C109.6 70.2 110.5 69.6 111.3 69.3L118 69.5999C119.9 70.0999 120.3 71.4 119.2 72.8Z" fill="black"/>
</svg>
