<svg width="200" height="100" viewBox="0 0 200 100" fill="none" xmlns="http://www.w3.org/2000/svg">
<path fill-rule="evenodd" clip-rule="evenodd" d="M27.366 74.765V76.903C27.366 80.689 25.583 82.579 22.016 82.579H19.13C15.563 82.579 13.78 80.689 13.78 76.902V54.852C13.78 51.067 15.563 49.174 19.13 49.174H22.016C25.583 49.174 27.366 51.067 27.366 54.851V58.619H22.9V55.177C22.9 53.874 22.23 53.223 20.9 53.223H20.016C18.836 53.223 18.246 53.873 18.246 55.177V76.577C18.246 77.879 18.836 78.531 20.016 78.531H21.131C22.311 78.531 22.901 77.879 22.901 76.577V74.764H27.367L27.366 74.765ZM53.697 82.58H49.23V54.895C49.23 51.082 51.015 49.175 54.583 49.175H57.933C61.499 49.175 63.283 51.082 63.283 54.895V82.58H58.817V70.343H53.697V82.58ZM58.817 66.295V55.178C58.817 53.875 58.164 53.224 56.861 53.224H55.651C54.351 53.224 53.698 53.874 53.698 55.178V66.295H58.818H58.817ZM76.495 65.32V49.175H80.96V82.58H76.495V75.927L71.7 60.713V82.58H67.236V49.174H71.7L76.495 65.319V65.32ZM92.032 70.344V66.294H98.826V82.58H90.078C86.635 82.58 84.915 80.704 84.915 76.95V54.896C84.915 51.083 86.635 49.176 90.078 49.176H93.148C96.933 49.176 98.826 51.113 98.826 54.99V58.62H94.36V55.642C94.36 54.032 93.724 53.224 92.452 53.224H91.336C90.032 53.224 89.38 54.031 89.38 55.642V76.112C89.38 77.727 90.032 78.532 91.336 78.532H94.36V70.344H92.032ZM102.453 82.58V49.174H113.526V53.224H106.921V63.364H112.783V67.411H106.923V78.531H113.527V82.578H102.454L102.453 82.58ZM130.09 74.765V76.903C130.09 80.689 128.305 82.579 124.74 82.579H121.855C118.287 82.579 116.505 80.689 116.505 76.902V54.852C116.505 51.067 118.287 49.174 121.855 49.174H124.739C128.304 49.174 130.089 51.067 130.089 54.851V58.619H125.623V55.177C125.623 53.874 124.955 53.223 123.621 53.223H122.736C121.559 53.223 120.969 53.873 120.969 55.177V76.577C120.969 77.879 121.559 78.531 122.736 78.531H123.853C125.033 78.531 125.623 77.879 125.623 76.577V74.764H130.09V74.765ZM137.812 82.58H133.344V54.895C133.344 51.082 135.129 49.175 138.694 49.175H142.046C145.612 49.175 147.396 51.082 147.396 54.895V82.58H142.931V70.343H137.813V82.58H137.812ZM142.932 66.295V55.178C142.932 53.875 142.279 53.224 140.976 53.224H139.766C138.464 53.224 137.812 53.874 137.812 55.178V66.295H142.932ZM160.422 68.81L164.562 49.175H169.494V82.58H165.029L165.492 60.713L162.142 76.533H158.7L155.35 60.713L155.816 82.579H151.35V49.174H156.28L160.422 68.808V68.81ZM173.682 49.175H181.822C185.42 49.175 187.219 51.083 187.219 54.895V64.808C187.219 68.591 185.437 70.484 181.869 70.484H178.146V82.58H173.681V49.174L173.682 49.175ZM178.147 66.435H180.987C182.165 66.435 182.753 65.785 182.753 64.485V55.178C182.753 53.875 182.087 53.224 180.753 53.224H178.147V66.434V66.435ZM41.13 39.94C41.13 39.94 42.272 36.16 40.417 31.167C38.907 27.105 34.497 23.32 34.497 23.32C34.497 23.32 34.139 29.454 35.78 33.164C37.42 36.872 41.13 39.94 41.13 39.94ZM41.202 40.297C41.202 40.297 38.656 38.97 34.782 39.502C31.632 39.936 28.238 42.384 28.238 42.384C28.238 42.384 32.596 43.52 35.514 42.944C38.432 42.371 41.202 40.297 41.202 40.297ZM38.3 38.608C38.3 38.608 36.61 35.645 32.46 33.721C29.086 32.158 24.226 32.477 24.226 32.477C24.226 32.477 27.82 36.4 31.053 37.674C34.285 38.949 38.3 38.609 38.3 38.609V38.608ZM35.517 33.543C35.517 33.543 34.414 30.577 31.705 28.648C29.498 27.078 26.32 27.402 26.32 27.402C26.32 27.402 28.67 31.33 30.78 32.606C32.894 33.886 35.517 33.543 35.517 33.543ZM42.882 39.94C42.882 39.94 41.742 36.16 43.596 31.167C45.104 27.105 49.516 23.32 49.516 23.32C49.516 23.32 49.873 29.454 48.232 33.164C46.592 36.872 42.882 39.94 42.882 39.94ZM42.81 40.297C42.81 40.297 45.282 38.835 49.178 39.159C52.348 39.422 55.868 41.685 55.868 41.685C55.868 41.685 51.575 43.053 48.633 42.635C45.69 42.218 42.81 40.295 42.81 40.295V40.297ZM41.76 32.08C41.76 32.08 40.638 29.436 41.475 25.617C42.158 22.509 45.245 17.421 45.245 17.421C45.245 17.421 45.651 23.757 44.848 26.621C44.045 29.483 41.758 32.081 41.758 32.081L41.76 32.08ZM40.14 28.536C40.14 28.536 38.728 27.243 38.178 24.693C37.728 22.619 38.192 18.676 38.192 18.676C38.192 18.676 40.195 22.406 40.502 24.366C40.809 26.326 40.142 28.536 40.142 28.536H40.14ZM45.712 38.608C45.712 38.608 47.402 35.645 51.55 33.721C54.926 32.158 59.787 32.477 59.787 32.477C59.787 32.477 56.193 36.4 52.96 37.674C49.727 38.949 45.712 38.609 45.712 38.609V38.608ZM48.495 33.543C48.495 33.543 49.599 30.577 52.309 28.648C54.515 27.078 57.691 27.402 57.691 27.402C57.691 27.402 55.341 31.33 53.228 32.606C51.115 33.886 48.493 33.543 48.493 33.543H48.495ZM46.613 43.068C46.488 43.046 45.808 42.76 45.808 42.76C45.808 42.76 44.738 44.413 44.435 44.24C44.063 44.026 44.61 42.252 44.61 42.252C43.527 41.82 42.83 41.239 42.01 40.509C42.01 40.509 41.288 41.179 40.912 41.359C40.827 41.399 41.692 42.457 41.352 42.765C40.648 43.402 39.446 42.3 39.446 42.3L38.858 42.664C39.828 43.437 40.048 43.564 40.488 44.294C40.668 44.589 40.762 44.892 40.811 45.139V63.365H35.321V49.175H30.855V82.578H35.322V67.41H40.812V82.58H45.28V45.15C45.48 44.336 46.238 43.612 46.615 43.066L46.613 43.068Z" fill="black"/>
</svg>
