<svg width="200" height="100" viewBox="0 0 200 100" fill="none" xmlns="http://www.w3.org/2000/svg">
<path fill-rule="evenodd" clip-rule="evenodd" d="M69.823 19.708V29.312H65.203C64.719 28.066 63.876 26.539 63.113 25.936C61.183 24.449 60.179 24.128 58.411 24.128C53.509 24.128 50.294 27.825 50.294 33.411C50.294 38.716 53.429 42.373 57.97 42.373C61.746 42.373 64.56 39.761 65.563 35.26L70.948 37.83C68.938 45.184 62.831 47.354 57.446 47.354C45.793 47.354 42.658 39.277 42.658 33.33C42.658 25.012 48.485 19.266 57.004 19.266C60.339 19.266 62.951 20.069 65.202 21.836V19.71H69.822L69.823 19.708ZM71.633 42.613H74.567V24.088H71.633V19.708H80.715V29.513C83.005 27.985 84.211 27.543 86.1 27.543C90.038 27.543 92.007 30.276 92.007 33.491V42.614H94.779V46.994H85.857V34.817C85.857 33.169 85.295 32.527 83.929 32.527C82.924 32.527 82.079 32.847 80.714 33.692V42.612H83.487V46.992H71.633V42.612V42.613ZM105.148 47.435C99.523 47.435 95.183 43.778 95.183 37.469C95.183 30.799 100.005 27.542 105.148 27.542C110.694 27.542 115.155 31.079 115.155 37.468C115.155 43.454 111.095 47.433 105.148 47.433V47.435ZM105.148 32.245C102.738 32.245 101.411 34.175 101.411 37.59C101.411 40.804 102.819 42.733 105.149 42.733C107.561 42.733 108.927 40.803 108.927 37.469C108.927 34.173 107.561 32.244 105.149 32.244L105.148 32.245ZM135.49 35.7H131.31C130.345 33.61 128.738 32.526 126.65 32.526C123.916 32.526 122.188 34.456 122.188 37.429C122.188 40.723 123.796 42.732 126.488 42.732C128.378 42.732 130.225 41.567 131.31 39.598L136.012 41.686C134.324 45.464 131.189 47.433 126.809 47.433C120.259 47.433 115.959 43.495 115.959 37.467C115.959 31.84 120.017 27.701 125.563 27.701C127.653 27.701 129.34 28.264 131.309 29.551V27.981H135.489V35.698L135.49 35.7ZM146.782 47.435C141.156 47.435 136.816 43.778 136.816 37.469C136.816 30.799 141.638 27.542 146.782 27.542C152.327 27.542 156.788 31.079 156.788 37.468C156.788 43.454 152.728 47.433 146.782 47.433V47.435ZM146.782 32.245C144.372 32.245 143.045 34.175 143.045 37.59C143.045 40.804 144.451 42.733 146.782 42.733C149.192 42.733 150.559 40.803 150.559 37.469C150.559 34.173 149.192 32.244 146.781 32.244L146.782 32.245ZM40.166 75.45H44.064V57.41H40.166V52.79H64.6V61.188H59.375V57.41H51.177V63.72H57.084V68.34H51.177V75.453H55.357V80.075H40.167V75.455L40.166 75.45ZM64.72 61.065H73.642V75.692H76.415V80.072H64.72V75.692H67.493V65.445H64.72V61.065ZM73.963 55.64C73.963 57.49 72.476 58.975 70.628 58.975C68.78 58.975 67.333 57.489 67.333 55.64C67.333 53.792 68.78 52.345 70.628 52.345C72.476 52.345 73.963 53.792 73.963 55.64ZM76.656 61.065H85.738V62.833C87.708 61.387 89.274 60.783 91.203 60.783C93.735 60.783 96.989 62.15 96.989 67.253V75.693H99.761V80.073H90.841V68.016C90.841 66.489 90.197 65.886 89.071 65.886C88.027 65.886 86.861 66.328 85.737 67.132V75.692H88.269V80.072H76.656V75.692H79.59V65.444H76.656V61.064V61.065ZM122.67 80.072H113.587V77.822C111.739 79.63 110.131 80.352 108.082 80.352C103.422 80.352 99.884 76.094 99.884 70.468C99.884 64.923 103.461 60.623 108.122 60.623C110.252 60.623 112.182 61.547 113.587 63.153V57.167H110.654V52.787H119.734V75.692H122.669V80.072H122.67ZM109.81 65.606C107.52 65.606 106.113 67.494 106.113 70.589C106.113 73.642 107.559 75.651 109.85 75.651C111.74 75.651 113.668 74.164 113.668 70.467C113.668 67.614 112.221 65.605 109.81 65.605V65.606ZM142.964 75.853C140.994 78.907 137.78 80.513 133.641 80.513C127.051 80.513 122.913 76.817 122.913 70.91C122.913 64.963 127.213 60.623 133.16 60.623C138.865 60.623 143.446 65.003 142.964 71.833H129.06C129.1 74.003 130.265 76.576 133.72 76.576C135.33 76.576 136.373 76.054 138.142 74.366L142.964 75.853ZM136.976 68.459C136.656 66.047 135.168 64.599 132.958 64.599C130.748 64.599 129.421 65.846 129.06 68.459H136.976ZM156.91 80.072H143.528V75.692H147.064V65.445H143.849V61.065H152.569V65.887H152.649C153.774 62.592 156.145 60.784 159.279 60.784H160.163V66.53H159.44C154.538 66.53 153.212 69.825 153.212 73.683V75.693H156.909V80.073L156.91 80.072Z" fill="black"/>
</svg>
