<svg width="200" height="100" viewBox="0 0 200 100" fill="none" xmlns="http://www.w3.org/2000/svg">
<path d="M110.9 38.1L109.1 40.3C108.2 39.2 106.9 38.6 105.6 38.6C103.3 38.6 101.5 40.4 101.5 42.7C101.5 45 103.3 46.9 105.6 46.9C106.8 46.9 108.1 46.3 109.1 45.3L110.9 47.2C109.5 48.7 107.4 49.6 105.5 49.6C101.5 49.6 98.4 46.6 98.4 42.7C98.4 38.8 101.5 35.9 105.6 35.9C107.5 35.9 109.5 36.7 110.9 38.1Z" fill="black"/>
<path d="M126.7 42.7C126.7 46.6 123.6 49.6 119.5 49.6C115.4 49.6 112.3 46.6 112.3 42.7C112.3 38.8 115.4 35.9 119.5 35.9C123.6 35.9 126.7 38.8 126.7 42.7ZM115.4 42.7C115.4 45.1 117.3 46.9 119.6 46.9C121.8 46.9 123.7 45.1 123.7 42.7C123.7 40.3 121.9 38.5 119.6 38.5C117.2 38.5 115.4 40.3 115.4 42.7Z" fill="black"/>
<path d="M134.4 36C138.6 36 141.5 38.7 141.5 42.7C141.5 46.7 138.6 49.4 134.3 49.4H128.7V36H134.4ZM131.7 46.9H134.4C136.6 46.9 138.3 45.2 138.3 42.7C138.3 40.2 136.6 38.5 134.3 38.5H131.7V46.9Z" fill="black"/>
<path d="M146.5 38.5V41.4H153V43.9H146.5V46.9H153.9V49.4H143.4V36H153.6V38.5H146.5Z" fill="black"/>
<path d="M163.3 38.3V39.6H166.2V40.8H163.3V49.4H161.8V40.8H160.5V39.6H161.8V38.5C161.8 36.3 163.4 35.1 165 35.1C165.8 35.1 166.6 35.3 167.2 35.8L166.6 37C166.1 36.7 165.6 36.5 165.1 36.5C164.1 36.5 163.3 37.1 163.3 38.3Z" fill="black"/>
<path d="M176.8 44.2999C176.8 47.2999 174.7 49.4 171.7 49.4C168.7 49.4 166.6 47.2999 166.6 44.2999C166.6 41.2999 168.7 39.2 171.7 39.2C174.7 39.2 176.8 41.2999 176.8 44.2999ZM168.1 44.4C168.1 46.6 169.6 48.2 171.7 48.2C173.8 48.2 175.3 46.7 175.3 44.4C175.3 42.2 173.8 40.7 171.7 40.7C169.6 40.6 168.1 42.1 168.1 44.4Z" fill="black"/>
<path d="M180.6 41.5C181.3 40 182.5 39.2 184.2 39.2V40.7C182.1 40.7 180.7 42 180.6 44V49.4H179.1V39.2999H180.6V41.5Z" fill="black"/>
<path d="M110.9 57.9999L109.1 60.1999C108.2 59.0999 106.9 58.4999 105.6 58.4999C103.3 58.4999 101.5 60.2999 101.5 62.5999C101.5 64.8999 103.3 66.7999 105.6 66.7999C106.8 66.7999 108.1 66.1999 109.1 65.1999L110.9 67.0999C109.5 68.5999 107.4 69.4999 105.5 69.4999C101.5 69.4999 98.4 66.4999 98.4 62.5999C98.4 58.6999 101.5 55.7999 105.6 55.7999C107.5 55.6999 109.5 56.5999 110.9 57.9999Z" fill="black"/>
<path d="M115.2 66.6999L114.1 69.2999H111L116.8 55.7999H119.9L125.6 69.2999H122.4L121.3 66.6999H115.2ZM118.4 58.9999L116.3 64.1999H120.5L118.4 58.9999Z" fill="black"/>
<path d="M136.6 69.2999L130.1 60.6999V69.2999H127.2V55.7999H130L136.5 64.3999V55.7999H139.4V69.2999H136.6Z" fill="black"/>
<path d="M144.9 66.6999L143.8 69.2999H140.7L146.5 55.7999H149.6L155.3 69.2999H152.1L151 66.6999H144.9ZM148.1 58.9999L146 64.1999H150.2L148.1 58.9999Z" fill="black"/>
<path d="M162.6 55.7999C166.8 55.7999 169.7 58.4999 169.7 62.4999C169.7 66.4999 166.8 69.1999 162.5 69.1999H156.9V55.7999H162.6ZM159.9 66.6999H162.6C164.8 66.6999 166.5 64.9999 166.5 62.4999C166.5 59.9999 164.8 58.2999 162.5 58.2999H159.9V66.6999Z" fill="black"/>
<path d="M174 66.6999L172.9 69.2999H169.8L175.6 55.7999H178.7L184.4 69.2999H181.2L180.1 66.6999H174ZM177.1 58.9999L175 64.1999H179.2L177.1 58.9999Z" fill="black"/>
<path d="M67.3 75.7C67.1 75.2 66.9 74.7 66.6 74.2C66.2 73.2 65.7 72.2 65.1 71.3C65.3 72.4 65.5 73.4 65.8 74.5C65.9 75 66.1 75.6 66.2 76.1C66.3 76.3 66.3 76.5 66.4 76.7C65.5 76.5 64.7 76.4 63.8 76.3C63.2 76.2 62.6 76.1 62 76.1C61.4 76 60.8 75.9 60.2 75.9C59 75.8 57.8 75.7 56.6 75.6C55.6 75.5 54.6 75.5 53.6 75.5C53.4 75.5 53.2 75.5 52.9 75.5C53.1 75.6 53.4 75.6 53.6 75.7C54.5 76 55.5 76.2 56.4 76.4C57.6 76.7 58.8 76.9 60 77.1C60.6 77.2 61.2 77.3 61.8 77.4C62.4 77.5 63 77.6 63.6 77.7C64.8 77.9 66 78 67.2 78.1L68.2 78.2L67.9 77.3C67.7 76.7 67.5 76.2 67.3 75.7Z" fill="black"/>
<path d="M80.2 54.1C81.1 51.1 82 48 82.8 45L83.5 42.4L82 42.8C79.6 43.5 77.1 44.2 74.8 44.9C73.8 45.2 72.9 45.5 71.9 45.7L69.9 39.7L69 41.1C67.4 43.3 65.8 45.6 64.2 47.8C64.5 45.7 64.8 43.4 65.1 41.2C65.2 40.3 65.3 39.4 65.4 38.4C65.7 36.3 66 34 66.2 31.9C66.2 31.9 65 36.2 64.6 38.3C64.4 39.2 64.3 40.1 64.1 41C63.5 44.1 63 47.2 62.5 50.2L62.1 53L63.8 50.8C65.7 48.2 67.6 45.7 69.5 43.3L70.9 47.9L71.7 47.7C72.9 47.4 74.1 47 75.3 46.7C77.3 46.1 79.2 45.6 81.2 45V45.2C80.3 48.2 79.4 51.4 78.6 54.5L78.4 55.2L83 56.6C80.5 58.5 77.6 60.7 74.8 63L70 66.6C68.3 67.9 65.6 70.6 65.6 70.6C67.1 69.6 68.7 68.4 70.4 67.2L75.2 63.8C78.1 61.8 81.2 59.5 84.8 56.9L86 56.1L80.2 54.1Z" fill="black"/>
<path d="M53.3 23.5C53.6 24.3 53.9 25.1 54.3 26C54.8 27.1 55.3 28.1 55.8 29.1C56.3 30.1 56.9 31.1 57.4 32.2L58.3 33.7C58.6 34.2 58.9 34.7 59.2 35.2L59.5 35.7L60 35.4C60.5 35.1 61 34.8 61.5 34.6C62 34.3 62.5 34 62.9 33.7C63.9 33.1 64.8 32.5 65.7 31.8C64.6 32.1 63.6 32.5 62.5 33C62 33.2 61.5 33.4 60.9 33.7C60.6 33.8 60.3 34 59.9 34.1C59.7 33.8 59.6 33.4 59.4 33.1L58.6 31.6C58 30.6 57.5 29.6 56.9 28.6C56.3 27.6 55.7 26.6 55 25.7C54.5 24.9 54 24.2 53.4 23.5C53.2 23.3 53.1 23.1 52.9 22.9C53.1 23 53.2 23.3 53.3 23.5Z" fill="black"/>
<path d="M40.5 32.2C40.4 32.4 40.4 32.6 40.3 32.7C40.4 32.6 40.5 32.4 40.5 32.2Z" fill="black"/>
<path d="M40.5 32.2C40.4 32.4 40.3999 32.6 40.2999 32.7C40.2999 32.8 40.2 32.8 40.2 32.9C40.4 33.1 40.5 33.3 40.7 33.5C41.5 33.8 42.4999 33.9 43.5999 33.7C44.2999 33.6 44.9999 33.3 45.5999 32.9C46.1999 32.5 46.7 32 47.2 31.5C47.6 31 48.1 30.4 48.4 29.8C48.7 29.2 49 28.6 49.2 28C49.3 27.7 49.4 27.4 49.5 27.1C49.6 26.8 49.7 26.5 49.7 26.3C49.9 25.8 49.8999 25.2 50.0999 24.7C49.9999 24.7 49.9 24.7 49.7999 24.6C49.7999 24.6 49.7 24.6 49.7 24.5C49.5 25 49.4 25.5 49.2 26C49.1 26.3 49 26.5 48.9 26.8C48.8 27.1 48.7 27.3 48.5 27.6C48.2 28.1 47.9999 28.7 47.5999 29.2C47.2999 29.7 46.9 30.2 46.4 30.6C45.9 31 45.5 31.4 45 31.6C44.5 31.8 44 32 43.4 32.1C42.9 32.2 42.3999 32.2 41.7999 32.2C41.2999 32.3 40.9 32.3 40.5 32.2Z" fill="black"/>
<path d="M34.9 45.2C35.5 46.3 36.1999 47.6 37.0999 48.9C37.4999 49.5 38 50.2 38.5 50.9C39 51.5 39.4999 52.2 40.0999 52.8C40.5999 53.4 41.1999 54.1 41.7999 54.7C42.3999 55.3 42.9 55.9 43.5 56.4C43.8 56.7 44.0999 56.9 44.2999 57.2C44.5999 57.4 44.9 57.7 45.2 57.9C45.8 58.4 46.2999 58.8 46.7999 59.1C46.9999 59.2 47.2 59.4 47.4 59.5C47.5 59.3 47.6999 59.1 47.7999 58.9C47.5999 58.8 47.4999 58.6 47.2999 58.5C46.7999 58.1 46.4 57.6 45.9 57.1C45.4 56.6 44.9 56.1 44.4 55.5C44.1 55.2 43.8999 54.9 43.5999 54.7C43.2999 54.4 43.0999 54.1 42.7999 53.8C42.2999 53.2 41.7 52.6 41.2 52C40.7 51.4 39.7 50.2 39.7 50.2C39.7 50.2 38.7 48.9 38.2 48.3C37.7 47.7 37.3 47.1 36.9 46.5C36.5 45.9 36.1 45.4 35.7 44.9C35.6 44.7 35.3999 44.5 35.2999 44.4C35.0999 44.5 34.9 44.7 34.7 44.7C34.7 44.8 34.8 45 34.9 45.2Z" fill="black"/>
<path d="M39.8 37C39.7 36.8 39.6 36.6 39.5 36.5C39.5 36.7 39.6 36.8 39.6 37C39.8 37.5 39.8 38.1 39.9 38.7C40.4 44.2 40.2 47.4 39.7 49.5C39.8 49.3 40.8 48.3 41.2 45.8C41.3 45.3 41.4 44.7 41.4 44.1C41.4 43.5 41.4 42.9 41.4 42.3C41.3 41.7 41.3 41 41.2 40.4C41.1 39.9 41 39.5 41 39L40.4 38C40.2 37.6 40 37.3 39.8 37Z" fill="black"/>
<path d="M21.1 47.4C21.1 47.3 21 47.1 21 47C20.9 47 20.8 47.1 20.7 47.1C20.6 47.1 20.5 47.1 20.4 47.1C20.4 47.2 20.4 47.4 20.5 47.5C20.7 48.8 20.7 50 20.6 51.1C20.5 52.4 20.2 53.6 19.7 54.5C19.7 54.5 19.7 54.6 19.6 54.6C19.7 54.7 19.8 54.7 19.9 54.8C20 54.9 20.1 55.1 20.2 55.2C20.3 55.1 20.3 55 20.4 54.8C20.9 53.8 21.2 52.5 21.3 51.1C21.4 50 21.3 48.7 21.1 47.4Z" fill="black"/>
<path d="M23.1 45.2L23.3 45.4C23.4 45.5 23.5 45.6 23.6 45.6C23.8 45.8 24.1 46 24.3 46.2L24.8 46.7C25.7 46.9 26.7 47 27.7 47C28.3 47 28.8 46.9 29.3 46.8C29.8 46.7 30.3 46.5 30.8 46.2C31 46.1 31.2 45.9 31.4 45.7C31.6 45.5 31.8 45.4 31.9 45.2C32 45.1 32.1 44.9 32.2 44.8C32.1 44.8 32 44.8 31.9 44.7C31.8 44.7 31.7 44.6 31.6 44.5C31.5 44.6 31.5 44.6 31.4 44.7C31.1 45 30.8 45.2 30.4 45.4C30 45.6 29.6 45.7 29.1 45.8C28.6 45.9 28.2 45.9 27.7 45.8C27.2 45.8 26.7 45.7 26.3 45.6C25.8 45.5 25.4 45.3 24.9 45.2C24.3 45 23.8 44.9 23.2 44.7C23.2 44.9 23.1 45 23.1 45.2Z" fill="black"/>
<path d="M47.9 63.8001C47.2 64.6001 46.3999 65.5001 45.5999 66.6001C45.1999 67.1001 44.8 67.7001 44.4 68.3001C44 68.9001 43.4999 69.4001 43.0999 70.0001C42.8999 70.2001 42.7 70.5001 42.5 70.7001L38.5999 68.4001L37.2 67.6001C37.3 68.1001 37.3 68.6001 37.4 69.2001L38 69.6001L41.5999 71.9001C41.1999 72.4001 40.8 72.9001 40.4 73.4001C40 73.9001 39.4999 74.4001 39.0999 74.9001C38.6999 75.4001 38.3 75.8001 38 76.2001C38 76.2001 38 76.2001 37.9 76.3001C38 76.4001 38.1 76.5001 38.2 76.7001C38.2 76.7001 38.2999 76.7001 38.2999 76.6001C39.0999 75.9001 40 75.0001 41 74.0001C41.5 73.5001 41.9 73.0001 42.4 72.5001C43.6 73.3001 44.8 74.0001 46 74.8001C46 74.8001 46.0999 74.8001 46.0999 74.9001C44.8999 75.0001 43.8 75.2001 42.7 75.5001C41.4 75.9001 40.2 76.4001 39 76.9001C38.9 77.0001 38.6999 77.0001 38.5999 77.1001C38.6999 77.3001 38.7999 77.4001 38.7999 77.6001C38.8999 77.5001 39.1 77.5001 39.2 77.4001C40.4 77.0001 41.7 76.6001 42.9 76.3001C43.5 76.2001 44.1999 76.1001 44.7999 76.0001C45.4 75.9001 46.1 75.9001 46.7 75.9001C46.8 75.9001 46.8 75.9001 46.9 75.9001C47 75.2001 47.4 74.7001 47.7999 74.2001C47.4 74.0001 47 73.7001 46.7 73.5001C45.6 72.8001 44.4999 72.1001 43.2999 71.4001C43.4999 71.2001 43.5999 71.0001 43.7999 70.9001C44.2999 70.4001 44.7999 69.8001 45.2999 69.3001C45.7999 68.8001 46.2 68.2001 46.7 67.7001C47.1 67.2001 47.5 66.6001 47.9 66.1001C48.1 65.8001 48.2 65.6001 48.4 65.4001C48.5 65.1001 48.6999 64.9001 48.7999 64.7001C48.7999 64.7001 48.8 64.6001 48.9 64.6001C48.6 64.4001 48.3 64.2001 48 64.0001C47.9 63.7001 47.9 63.8001 47.9 63.8001Z" fill="black"/>
<path d="M33.7 65.9C33.7 65.8 33.6 65.6 33.6 65.5C32.5 64.9 31.4 64.2 30.3 63.6C28.9 62.8 27.5 62 26.1 61.3L21.9 59L20.7 58.4C20.6 58.6 20.5 58.8 20.4 59.1L21.5 59.7L25.6 62C27 62.8 28.3 63.6 29.7 64.4C31.1 65.2 32.4 66 33.8 66.9C33.8 66.8 33.7 66.6 33.7 66.5C33.8 66.3 33.7 66.1 33.7 65.9Z" fill="black"/>
<path d="M50.0999 23.2C50.1999 23.2 50.4 23.3 50.5 23.3H50.5999C51.6999 23.3 52.5 22.4 52.5 21.4C52.5 20.4 51.5999 19.5 50.5999 19.5C49.4999 19.5 48.7 20.4 48.7 21.4C48.7 22.3 49.2999 23 50.0999 23.2Z" fill="black"/>
<path d="M32.5 43.1C32.6 43.2 32.8 43.2 32.9 43.2C33 43.2 33.0999 43.2 33.0999 43.2C33.3999 43.2 33.5999 43.1 33.7999 43.1C33.8999 43 34.1 43 34.2 42.9C34.7 42.6 35 42 35 41.3C35 40.2 34.0999 39.4 33.0999 39.4C31.9999 39.4 31.2 40.3 31.2 41.3C31.3 42.2 31.8 42.9 32.5 43.1Z" fill="black"/>
<path d="M18.8 56C18.5 55.7 18 55.5 17.5 55.5C16.4 55.5 15.6 56.4 15.6 57.4C15.6 58.4 16.5 59.3 17.5 59.3C18.1 59.3 18.6 59 19 58.6C19.2 58.4 19.3 58.1 19.4 57.9C19.4 57.8 19.5 57.6 19.5 57.4C19.5 57.1 19.4 56.8 19.3 56.6C19.1 56.3 18.9 56.1 18.8 56Z" fill="black"/>
<path d="M50.4 74.6C50 74.6 49.7 74.7 49.4 74.9C48.9 75.2 48.6 75.6 48.5 76.2V76.3C48.5 76.4 48.5 76.4 48.5 76.5C48.5 77.6 49.4 78.4 50.4 78.4C51.5 78.4 52.3 77.5 52.3 76.5C52.3 75.4 51.4 74.6 50.4 74.6Z" fill="black"/>
<path d="M35.4 71.2C35.5 71.7 35.5 72.2 35.5 72.7C35.5 73.2 35.6 73.6 35.6 74.1C35.6 74.5 35.6 74.8 35.6 75.2C35.6 75.2 35.6 75.2 35.7 75.2C36 75.2 36.2 75.3001 36.5 75.3001C36.5 74.9001 36.6 74.5 36.6 74.1C36.6 73.7 36.6 73.2 36.7 72.7C36.8 71.7 36.7 70.7001 36.6 69.5C36.5 68.4 36.3 67.2001 36 66C35.8 65.4 35.7 64.8 35.5 64.2C35.3 63.6 35.1 63.0001 34.9 62.4001C34.7 61.8001 34.4 61.2 34.2 60.6C33.9 60 33.7 59.4 33.4 58.8C32.8 57.7 32.1 56.5001 31.5 55.4001C30.8 54.4001 30.1 53.3001 29.3 52.4001C28.5 51.5001 27.7 50.6 27 49.8C26.2 49 25.4 48.3 24.8 47.6C24.4 47.3 24.1 47.0001 23.8 46.7001C23.5 46.4001 23.1 46.2001 22.8 45.9001L22.7 45.8L22.6 45.9001L22.5 46C22.5 46 22.4 46 22.4 46.1L22.5 46.2001C22.8 46.5001 23.1 46.7 23.4 47C23.7 47.3 24 47.6 24.3 48C24.9 48.7 25.7 49.4001 26.4 50.2001C27.1 51.1001 27.8 52.0001 28.5 52.9001C29.2 53.9001 29.8 54.9 30.5 56C31.1 57.1 31.7 58.2 32.2 59.3C32.4 59.9 32.7 60.5 32.9 61L33.2 61.9001C33.3 62.2001 33.4 62.5 33.5 62.8C33.7 63.4 33.9 64 34 64.6C34.2 65.2 34.3 65.8001 34.4 66.3001C34.7 67.4001 34.8 68.6 35.1 69.6C35.3 70.2 35.4 70.7 35.4 71.2Z" fill="black"/>
<path d="M19.9 41.7C18.8 41.7 18 42.5999 18 43.5999C18 44.6999 18.9 45.5 19.9 45.5C20 45.5 20.2 45.5 20.3 45.5C20.4 45.5 20.4 45.5 20.5 45.4C20.8 45.3 21 45.1 21.2 44.9C21.3 44.8 21.3 44.8 21.4 44.7C21.5 44.5 21.6 44.3 21.7 44C21.7 43.9 21.8 43.6999 21.8 43.5999C21.9 42.5999 21 41.7 19.9 41.7Z" fill="black"/>
<path d="M37 77.5C36.9 77.4 36.8 77.3 36.7 77.2C36.5 77 36.3 76.9 36.1 76.8C35.9 76.7 35.7 76.7 35.6 76.7H35.5C34.4 76.7 33.6 77.6 33.6 78.6C33.6 79.7 34.5 80.5 35.5 80.5C36.6 80.5 37.4 79.6 37.4 78.6C37.4 78.4 37.4 78.1 37.3 77.9C37.3 77.8 37.2 77.6 37.1 77.5C37.1 77.6 37.1 77.5 37 77.5Z" fill="black"/>
<path d="M49.2 56.2C49.3 56.8 49.5 57.3 49.6 57.8H49.7C49.8 57.8 49.9 57.8 50 57.8C49.9 57.3 49.8 56.7 49.7 56.1C49.6 55.7 49.6 55.3 49.5 54.9C49.4 54.5 49.3 54 49.2 53.6C49 52.7 48.8 51.8 48.5 50.8C48.2 49.8 48 48.8 47.6 47.9C47.2 46.9 46.9 45.9 46.5 44.9C46.3 44.4 46.1 43.9 45.9 43.4C45.7 42.9 45.5 42.4 45.2 42C44.8 41 44.3 40.1 43.8 39.2C43.3 38.3 42.8 37.5 42.2 36.8C41.7 36.1 41.2 35.3 40.6 34.7C40.3 34.3 40 33.9 39.7 33.6C39.6 33.7 39.5 33.7 39.4 33.8C39.3 33.9 39.1 34 39 34.1H38.9C39.1 34.5 39.4 34.9 39.7 35.3C40.1 36 40.6 36.7 41 37.5C41.5 38.3 41.9 39.1 42.4 39.9C42.9 40.7 43.4 41.6 43.9 42.5C44.1 43 44.4 43.4 44.6 43.9C44.8 44.4 45.1 44.8 45.3 45.3C45.8 46.2 46.2 47.2 46.6 48.2C47 49.1 47.3 50.1 47.7 51C48.1 51.9 48.3 52.8 48.5 53.7C48.6 54.1 48.8 54.6 48.9 55C49 55.4 49.1 55.8 49.2 56.2Z" fill="black"/>
<path d="M39.1 31.1C39.1 30 38.2001 29.2 37.2001 29.2C36.2001 29.2 35.3 30.1 35.3 31.1C35.3 32.2 36.2001 33 37.2001 33C37.5001 33 37.8 32.8999 38.1 32.7999C38.1 32.7999 38.2001 32.8 38.2001 32.7C38.3001 32.6 38.4001 32.6 38.4001 32.5L38.5 32.4L38.6 32.2999C38.7 32.0999 38.9001 31.9 38.9001 31.7C39.1001 31.5 39.1 31.4 39.1 31.1Z" fill="black"/>
<path d="M50.4 59.3C50.3 59.3 50.3 59.3 50.4 59.3C50.2 59.3 50.1 59.3 50 59.3C49.6 59.4 49.2 59.6001 49 59.9001C48.9 60.0001 48.8 60.1 48.7 60.3C48.6 60.6 48.5 60.9001 48.5 61.2001C48.5 61.7001 48.7 62.2 49 62.5C49.2 62.7 49.4 62.9 49.7 63C49.9 63.1 50.2 63.2001 50.4 63.2001C51.5 63.2001 52.3 62.3 52.3 61.3C52.3 60.1 51.4 59.3 50.4 59.3Z" fill="black"/>
</svg>
