<svg width="200" height="100" viewBox="0 0 200 100" fill="none" xmlns="http://www.w3.org/2000/svg">
<path fill-rule="evenodd" clip-rule="evenodd" d="M30.802 67.348C37.412 67.998 43.292 63.176 43.946 56.57C44.599 49.966 39.774 44.078 33.169 43.427C26.559 42.775 20.679 47.602 20.025 54.207C19.377 60.807 24.198 66.694 30.801 67.347L30.802 67.348ZM32.771 47.414C37.177 47.849 40.396 51.774 39.958 56.177C39.521 60.577 35.6 63.797 31.198 63.36C26.796 62.926 23.578 59.004 24.008 54.6C24.445 50.2 28.368 46.982 32.771 47.414Z" fill="black"/>
<path fill-rule="evenodd" clip-rule="evenodd" d="M17.39 62.07C26.193 62.94 34.036 56.506 34.91 47.7C35.777 38.892 29.345 31.046 20.537 30.178C11.731 29.308 3.88901 35.744 3.01701 44.551C2.14701 53.358 8.58301 61.203 17.39 62.071V62.07ZM20.013 35.495C25.885 36.075 30.171 41.308 29.591 47.177C29.013 53.047 23.784 57.335 17.911 56.757C12.041 56.177 7.75101 50.947 8.33301 45.077C8.91301 39.205 14.143 34.915 20.013 35.495Z" fill="black"/>
<path fill-rule="evenodd" clip-rule="evenodd" d="M24.93 69.857C29.783 70.337 34.103 66.794 34.582 61.944C35.06 57.092 31.515 52.771 26.666 52.291C21.814 51.809 17.491 55.357 17.013 60.209C16.536 65.059 20.076 69.379 24.931 69.859L24.93 69.857ZM26.365 55.361C29.52 55.669 31.823 58.484 31.515 61.641C31.202 64.796 28.39 67.103 25.233 66.789C22.078 66.479 19.769 63.667 20.083 60.512C20.395 57.358 23.206 55.048 26.365 55.362" fill="black"/>
<path fill-rule="evenodd" clip-rule="evenodd" d="M31.2 63.36C31.155 63.356 31.114 63.346 31.074 63.34C30.414 64.876 29.111 66.05 27.534 66.547C28.556 66.959 29.654 67.232 30.802 67.347C31.189 67.383 31.566 67.402 31.945 67.401C33.141 66.245 34.015 64.741 34.401 63.028C33.396 63.35 32.311 63.47 31.201 63.361L31.2 63.36ZM20.011 54.417C19.888 55.972 20.058 57.477 20.491 58.885C21.128 57.333 22.418 56.155 23.987 55.628C23.977 55.291 23.981 54.948 24.012 54.6C24.095 53.8 24.292 53.045 24.582 52.337C22.862 52.581 21.284 53.317 20.012 54.417" fill="black"/>
<path fill-rule="evenodd" clip-rule="evenodd" d="M23.98 55.553C22.782 56.193 21.447 56.613 20.048 56.756C20.258 58.616 20.898 60.359 21.876 61.88C23.281 61.622 24.632 61.182 25.89 60.575C24.725 59.205 24.017 57.448 23.98 55.553ZM34.91 47.7C35.04 46.337 35.002 44.998 34.806 43.707C34.272 43.577 33.726 43.479 33.169 43.427C31.856 43.297 30.575 43.387 29.355 43.661C29.622 44.783 29.712 45.963 29.59 47.177C29.574 47.375 29.546 47.57 29.517 47.767C30.537 47.437 31.639 47.304 32.773 47.415C33.513 47.487 34.218 47.668 34.883 47.925C34.893 47.85 34.903 47.775 34.91 47.7ZM56.62 45.805C58.578 45.805 59.7 46.179 60.493 46.509V48.863C59.238 48.356 58.27 48.115 56.773 48.115C53.626 48.115 52.35 50.25 52.35 54.322C52.35 58.392 53.626 60.527 56.773 60.527C58.27 60.527 59.238 60.285 60.493 59.779V62.134C59.701 62.464 58.578 62.838 56.62 62.838C51.733 62.838 49.82 59.734 49.82 54.321C49.82 48.906 51.733 45.803 56.62 45.803V45.805ZM62.12 57.073C62.12 53.683 63.088 51.307 67.006 51.307C70.923 51.307 71.891 53.684 71.891 57.073C71.891 60.463 70.924 62.839 67.007 62.839C63.089 62.839 62.121 60.461 62.121 57.072L62.12 57.073ZM69.405 57.072C69.405 54.717 69.097 53.375 67.007 53.375C64.915 53.375 64.607 54.717 64.607 57.072C64.607 59.427 64.915 60.77 67.007 60.77C69.097 60.77 69.405 59.428 69.405 57.073V57.072ZM86.304 54.806C86.304 53.771 85.71 53.398 84.742 53.398C83.664 53.398 82.937 53.728 82.365 54.08C82.41 54.476 82.431 54.85 82.431 55.29V62.575H79.967V54.805C79.967 53.771 79.395 53.398 78.405 53.398C77.392 53.398 76.665 53.706 76.095 54.036V62.576H73.628V51.57H75.081L75.478 52.45C76.402 51.725 77.722 51.307 78.801 51.307C80.275 51.307 81.156 51.725 81.618 52.407C82.608 51.703 83.928 51.307 85.138 51.307C87.738 51.307 88.771 52.715 88.771 54.807V62.575H86.305V54.805L86.304 54.806ZM103.688 54.806C103.688 53.771 103.094 53.398 102.126 53.398C101.046 53.398 100.32 53.728 99.748 54.08C99.792 54.476 99.814 54.85 99.814 55.29V62.575H97.35V54.805C97.35 53.771 96.777 53.398 95.786 53.398C94.774 53.398 94.048 53.706 93.476 54.036V62.576H91.01V51.57H92.463L92.859 52.45C93.783 51.725 95.103 51.307 96.181 51.307C97.657 51.307 98.538 51.725 99.001 52.407C99.991 51.703 101.311 51.307 102.521 51.307C105.117 51.307 106.151 52.715 106.151 54.807V62.575H103.687V54.805L103.688 54.806ZM110.66 51.57V59.12C110.66 60.242 111.233 60.75 112.4 60.75C113.544 60.75 114.337 60.44 114.93 60.11V51.57H117.395V62.575H115.943L115.546 61.695C114.426 62.465 113.17 62.839 111.981 62.839C109.187 62.839 108.196 61.452 108.196 59.339V51.569H110.662L110.66 51.57ZM126.417 62.575V55.025C126.417 53.905 125.844 53.398 124.677 53.398C123.533 53.398 122.742 53.706 122.147 54.036V62.576H119.682V51.57H121.134L121.531 52.45C122.654 51.68 123.908 51.307 125.098 51.307C127.892 51.307 128.883 52.693 128.883 54.807V62.575H126.418H126.417ZM132.29 46.707C133.17 46.707 133.897 47.433 133.897 48.314C133.897 49.194 133.171 49.92 132.291 49.92C131.411 49.92 130.684 49.194 130.684 48.314C130.684 47.434 131.411 46.707 132.292 46.707H132.29ZM131.06 59.867V51.571H133.525V59.847C133.525 60.463 133.745 60.684 134.449 60.684V62.686C134.449 62.686 134.229 62.73 133.966 62.73C131.963 62.73 131.06 61.76 131.06 59.868V59.867ZM142.325 62.685C141.952 62.773 141.335 62.839 140.96 62.839C138.518 62.839 137.087 61.782 137.087 59.405V53.661H135.084V52.141L137.087 51.571V48.951L139.552 48.246V51.57H142.656V53.662H139.552V59.12C139.552 60.22 140.102 60.75 141.357 60.75C141.731 60.75 142.061 60.705 142.325 60.66V62.685ZM146.175 51.57L148.661 59.428L151.151 51.571H153.879L147.585 68.078H144.833L147.563 62.202L143.447 51.572H146.177L146.175 51.57ZM158.014 60.308H165.188V62.575H155.548V46.068H158.014V60.308ZM170.93 51.307C174.804 51.307 175.42 53.86 175.42 56.897C175.42 57.271 175.398 57.623 175.375 57.977H168.531C168.576 59.627 169.171 60.705 171.415 60.705C172.802 60.705 173.945 60.463 174.915 60.045V62.157C173.661 62.685 172.229 62.839 171.041 62.839C167.366 62.839 166.045 60.639 166.045 57.072C166.045 53.529 167.345 51.306 170.932 51.306L170.93 51.307ZM168.532 56.258H172.935C172.935 54.76 172.847 53.44 170.933 53.44C169.129 53.44 168.623 54.606 168.533 56.257L168.532 56.258ZM184.002 62.575V55.025C184.002 53.905 183.429 53.398 182.262 53.398C181.118 53.398 180.326 53.706 179.732 54.036V62.576H177.266V51.57H178.719L179.114 52.45C180.237 51.68 181.491 51.307 182.68 51.307C185.476 51.307 186.466 52.693 186.466 54.807V62.575H184.002ZM195.598 52.165V46.07H198.062V62.575H196.61L196.215 61.695C195.245 62.399 194.123 62.839 192.648 62.839C189.435 62.839 188.248 60.682 188.248 57.072C188.248 53.485 189.435 51.306 192.648 51.306C193.748 51.306 194.805 51.658 195.598 52.164V52.165ZM190.734 57.072C190.734 59.119 191.064 60.748 193.221 60.748C194.388 60.748 195.158 60.35 195.599 60.108V54.034C195.159 53.791 194.389 53.396 193.222 53.396C191.066 53.396 190.736 55.046 190.736 57.071" fill="black"/>
<path fill-rule="evenodd" clip-rule="evenodd" d="M20.047 56.756C20.131 57.482 20.282 58.191 20.489 58.88C21.126 57.332 22.416 56.15 23.987 55.627C23.985 55.601 23.983 55.577 23.985 55.553C22.781 56.193 21.445 56.613 20.045 56.756" fill="black"/>
</svg>
