<svg xmlns="http://www.w3.org/2000/svg" focusable="false" role="img" viewBox="0 0 200 100" fill="currentColor">
  <path fill-rule="evenodd" d="M8.5 42.643h7.248c1.674 0 3.635.02 5.577 1.61 1.177.972 2.416 2.768 2.416 5.577 0 2.683-1.198 4.44-2.044 5.306-2.046 2.024-4.895 2.087-7.35 2.087H8.5v-14.58zm2.086 1.715v11.108h4.254c1.836 0 4.108-.06 5.66-2.044.825-1.074 1.133-2.414 1.133-3.654 0-1.96-.762-3.284-1.528-4.026-1.383-1.364-3.013-1.364-4.336-1.384h-5.184.001zm14.232-1.715h13.46v1.797H26.883v4.358h11.09v1.714H26.88v4.913h11.916v1.798h-13.98v-14.58h.002zm16 0h9.354c1.57 0 3.573.062 4.75 1.548.62.808.722 1.653.722 2.252 0 1.425-.66 2.25-1.322 2.664-.144.084-.68.332-.722.332.64.205 2.768.927 2.768 3.716 0 1.138-.434 2.23-1.3 2.953-1.323 1.116-3.325 1.116-4.896 1.116h-9.354V42.643zm2.065 1.694v4.48h7.62c.64 0 1.384 0 1.962-.33.722-.392 1.032-1.198 1.032-1.9 0-.866-.433-1.446-.95-1.795-.722-.455-1.632-.455-2.397-.455h-7.267zm0 6.153v5.04h7.91c.866 0 1.857-.042 2.643-.704.764-.66.783-1.526.783-1.836 0-1.22-.703-1.754-.868-1.9-.743-.578-1.713-.6-2.56-.6h-7.91.002zm13.887-7.847h13.98v1.735h-5.968v12.845h-2.065V44.378H56.77v-1.735zm21.624 0h6.917l3.678 9.52 3.676-9.52h6.897v14.58h-5.163V47.89l-3.448 9.333h-4.027l-3.407-9.293v9.293h-5.122v-14.58h-.001zm28.352 0h5.95l6.317 14.58h-5.68l-.783-2.375h-5.576l-.784 2.375h-5.72l6.276-14.58zm2.995 4.048l-1.67 4.935h3.386l-1.715-4.934-.001-.001zm10.132-4.048h10.718c1.28.02 2.85.04 4.07.93 1.052.805 1.713 2.23 1.713 3.695 0 1.033-.33 2.045-.93 2.767-.826.99-1.816 1.2-2.437 1.365l3.656 5.823h-5.783l-2.994-5.306h-2.79v5.306h-5.223v-14.58zm5.224 5.968h3.923c.806 0 2.127-.02 2.127-1.32 0-.332-.103-.682-.37-.93-.415-.37-.95-.413-1.343-.413h-4.337v2.664-.001zm17.728-5.968v5.452l4.894-5.452h6.317l-5.72 5.516 6.38 9.063h-6.256l-3.84-5.515-1.797 1.735v3.78h-4.832v-14.58h4.855l-.001.001zm27.77 0v3.283h-10.14V48.3h9.375v3.306h-9.396v2.313h10.368v3.303h-15.57v-14.58h15.363v.001zm16.268-.019v3.282H181.7v11.317h-5.266V45.906h-5.183v-3.282h15.613-.001zm2.072.019a1.558 1.558 0 011.453.97c.076.19.112.387.112.596a1.484 1.484 0 01-.459 1.104c-.147.147-.318.26-.51.337a1.5 1.5 0 01-1.195-.002 1.55 1.55 0 01-.51-.35 1.516 1.516 0 01-.446-1.09c0-.142.017-.28.056-.416.038-.134.095-.267.17-.397.14-.237.327-.422.558-.555.234-.13.49-.197.77-.197h.001zm.004.26c-.178 0-.344.03-.495.09a1.26 1.26 0 00-.414.28c-.125.125-.22.27-.29.43a1.295 1.295 0 00.7 1.707 1.247 1.247 0 00.987.004 1.312 1.312 0 00.715-.695 1.22 1.22 0 00.102-.49c0-.185-.03-.358-.093-.514a1.236 1.236 0 00-.277-.422 1.295 1.295 0 00-.425-.294 1.298 1.298 0 00-.51-.097v.001zm-.65.406h.68c.247 0 .43.043.555.125.123.082.184.208.184.374 0 .114-.034.21-.1.295a.526.526 0 01-.28.165l.39.774h-.47l-.332-.71h-.207v.71h-.42V43.309zm.42.267v.504h.208c.123 0 .214-.02.27-.06.058-.04.088-.1.088-.184 0-.09-.033-.157-.092-.197a.518.518 0 00-.286-.063h-.188zM74 35h.84v30.197H74V35z" clip-rule="evenodd"/>
</svg>
