<svg xmlns="http://www.w3.org/2000/svg" viewBox="0 0 200 100" fill="currentColor" focusable="false" role="img">
  <g clip-path="url(#clip0_228:20)">
    <path d="M63.3 45.1384C62.2346 45.3758 61.2474 45.8855 60.4333 46.6188C58.5781 48.4563 56.8412 50.4118 55.2333 52.4731C52.9794 55.4031 50.0342 57.7165 46.6666 59.202C43.9 60.3796 41 61.4226 38.1333 62.331C36.9594 62.6404 35.7396 62.7315 34.5333 62.6001C34.0333 62.6001 33.5667 62.0282 33.1 61.6917C33.4298 61.1952 33.8846 60.7964 34.4177 60.5362C34.9508 60.276 35.5431 60.1639 36.1334 60.2113C40.5925 60.1685 44.9009 58.5764 48.3333 55.7029C49.1333 54.8955 50.3667 53.2468 50.1333 52.9104C49.2 51.6319 47.7 52.2375 46.5334 52.9104C42.1906 54.7378 37.6106 55.9275 32.9333 56.4431C30.345 56.542 27.8413 57.3996 25.728 58.9113C23.6147 60.4229 21.9833 62.5231 21.0333 64.9553C20.4082 66.6834 19.9288 68.4616 19.6 70.2711C19.2333 72.3571 19.2 74.5104 19 77.0001L20.7667 76.159C24.1621 74.25 27.9254 73.1024 31.8 72.7945C35.5963 72.6107 39.3188 71.6686 42.7518 70.0226C46.1849 68.3767 49.2603 66.0597 51.8 63.2058C56.2667 58.0581 60.1667 52.4393 64.3334 47.0225L64.5333 46.7534C65.0667 45.6431 64.5 44.802 63.3 45.1384Z"/>
    <path d="M44.8333 46.1814C43.8725 46.3339 42.8941 46.3339 41.9333 46.1814C41.7 46.1814 41.2333 45.7103 41.2666 45.5758C41.2999 45.4412 41.6333 44.8356 41.9333 44.7683C42.7859 44.5406 43.6555 44.383 44.5333 44.2972C46.1234 44.1939 47.6703 43.7322 49.0605 42.9462C50.4507 42.1602 51.6488 41.0699 52.5667 39.7553C51.4333 39.7553 50.9333 39.7553 50.3666 39.7553C47.3545 41.2642 44.0602 42.1127 40.7 42.245C38.0213 42.7613 35.648 44.3125 34.0853 46.5684C32.5227 48.8244 31.8941 51.6068 32.3333 54.3235V54.3235C34.3738 53.7334 36.4432 53.2506 38.5333 52.8767C44.1373 52.6667 49.4375 50.2515 53.3 46.1478C56.1333 42.7833 58.6 39.4188 61.2 35.8525C61.3666 35.6842 61.3666 35.3814 61.5666 34.6749C60.7484 34.8418 59.9611 35.137 59.2333 35.5497C58.3804 36.1584 57.6364 36.9092 57.0333 37.7701C54.153 42.0163 49.7997 45.0177 44.8333 46.1814V46.1814Z"/>
    <path d="M20.6667 58.9664C22.1667 58.4954 24 58.058 25.6 57.3851C26.5401 57.1192 27.4177 56.6657 28.1811 56.0514C28.9445 55.4371 29.578 54.6744 30.0442 53.8086C30.5104 52.9428 30.7998 51.9914 30.8952 51.0107C30.9907 50.03 30.8903 49.04 30.6 48.0991C30.5238 46.0093 30.6129 43.9167 30.8667 41.8412C30.9525 41.0049 30.7902 40.1617 30.4 39.4188C29.3334 39.7216 28.9 40.4954 28.2333 41.101C28.025 41.4323 27.9204 41.8191 27.9333 42.2113C27.7333 44.0954 27.6 45.9795 27.3333 47.83C27.0864 48.501 26.75 49.1349 26.3334 49.7141C25.9 49.0412 25.4333 48.402 25.0333 47.7291C24.6333 47.0562 25.0333 47.0561 25.0333 46.7533C25.145 42.811 26.6733 39.0442 29.3333 36.1552C30.3 34.8767 31.3333 33.4636 32.2 32.1178C32.3578 31.8724 32.4418 31.5861 32.4418 31.2935C32.4418 31.0009 32.3578 30.7147 32.2 30.4692C31.6548 30.4764 31.1273 30.6657 30.7 31.0076C28.5 33.2618 26.2666 35.5159 24.2 37.9047C22.5266 39.6674 21.2961 41.8094 20.6117 44.1509C19.9274 46.4925 19.8091 48.9654 20.2667 51.3627C20.5634 53.8858 20.697 56.4258 20.6667 58.9664V58.9664Z"/>
    <path d="M47.6 38.7122C49.134 38.4866 50.595 37.9041 51.8677 37.0107C53.1404 36.1173 54.1899 34.9375 54.9333 33.5645C56.1007 31.5362 57.1147 29.4218 57.9667 27.2394C57.6667 26.8693 56.5334 27.2393 56.1334 27.9459C54.3212 30.373 52.2903 32.6256 50.0667 34.6748C48.8004 34.9194 47.4997 34.9194 46.2334 34.6748C47.4076 33.7072 48.7882 33.0277 50.2667 32.6898C53.1 31.9496 55.2333 28.2486 52.0333 29.6954C48.8333 31.1421 51.0333 30.4019 46.1 31.4785C41.1667 32.5552 42.3 39.9907 42.3 39.9907C43.9469 39.1622 45.7598 38.7248 47.6 38.7122V38.7122Z"/>
    <path d="M32.4 44.7347L34.5 43.7926C37.8333 42.144 41.4667 39.8898 40.5667 37.6692C40.2174 35.1383 40.3076 32.5653 40.8333 30.0656C40.8333 29.4263 39.6 29.7964 38.7 30.4693C37.8 31.1422 38.3 36.7945 37.2667 37.1983C36.2334 37.602 36.7 35.1796 36.4334 34.0356C37.67 30.6735 39.3278 27.4849 41.3666 24.5478C42.5666 22.6636 40.9 23.202 40.9 23.202C40.9 23.202 31.8667 32.0843 32.7667 36.3908C33.3314 38.8706 33.3314 41.4474 32.7667 43.9272L32.4 44.7347Z"/>
    <path d="M77.1667 47.8635H75.1667C74.4518 47.8383 73.7524 48.0776 73.2001 48.5364C72.9453 48.7833 72.7453 49.0818 72.6131 49.4124C72.481 49.7429 72.4197 50.098 72.4334 50.4542V61.3551H74.8334V55.4336H80.1667V53.6169H74.8334V50.9589C74.8158 50.8024 74.8304 50.644 74.8763 50.4934C74.9222 50.3429 74.9983 50.2035 75.1 50.0841C75.3488 49.8949 75.6555 49.7997 75.9667 49.815H80.9001V48.0318H79.0667L77.1667 47.8635Z"/>
    <path d="M90.1333 48.0656C89.9647 47.955 89.7678 47.8965 89.5667 47.8973H87.2333C87.033 47.9018 86.8375 47.9599 86.6666 48.0656C86.5094 48.1769 86.4017 48.3459 86.3666 48.5365L82.3 61.3552H84.8333L85.9333 57.5198H90.9333L92.0667 61.3552H94.5333L90.5 48.5365C90.4188 48.351 90.2927 48.1891 90.1333 48.0656V48.0656ZM86.4666 55.602L87.8333 50.959C87.8333 50.7571 87.8334 50.5553 88 50.3534C88.1667 50.1515 88 49.9497 88 49.7478H88.5333C88.5333 49.9497 88.5333 50.1515 88.5333 50.3534C88.5333 50.5553 88.5333 50.7571 88.7 50.959L90.0667 55.602H86.4666Z"/>
    <path d="M102.333 47.8635H100.333C99.6075 47.8331 98.8958 48.0726 98.3333 48.5365C98.0828 48.785 97.8878 49.0847 97.7614 49.4154C97.6349 49.7461 97.5798 50.1003 97.5999 50.4543V61.3552H99.9999V55.4336H105.333V53.6169H99.9999V50.9589C99.9868 50.8001 100.007 50.6402 100.058 50.4896C100.11 50.3389 100.192 50.2008 100.3 50.0841C100.546 49.8895 100.855 49.7937 101.167 49.815H106.067V48.0318H104.2L102.333 47.8635Z"/>
    <path d="M112.2 47.8973H109.8V61.3552H112.2V47.8973Z"/>
    <path d="M123.133 48.0656C122.977 47.9558 122.791 47.8971 122.6 47.8973H120.233C120.043 47.9011 119.858 47.9595 119.7 48.0656C119.543 48.1834 119.426 48.3481 119.367 48.5365L115.333 61.3552H117.8L118.933 57.5198H123.9L125.033 61.3552H127.5L123.467 48.5365C123.407 48.3481 123.291 48.1834 123.133 48.0656ZM119.5 55.602L120.833 50.959L121.033 50.3534C121.018 50.1518 121.018 49.9494 121.033 49.7478H121.567C121.551 49.9494 121.551 50.1518 121.567 50.3534C121.552 50.555 121.552 50.7574 121.567 50.959L122.9 55.602H119.5Z"/>
    <path d="M136.233 55.6019H130.4V57.2168H136.233V55.6019Z"/>
    <path d="M146.9 48.0656C146.743 47.9558 146.557 47.8971 146.367 47.8973H144C143.809 47.8971 143.623 47.9558 143.467 48.0656C143.309 48.1834 143.193 48.3481 143.133 48.5365L139.1 61.3552H141.5L142.633 57.5198H147.6L148.733 61.3552H151.2L147.167 48.5365C147.126 48.3565 147.033 48.1928 146.9 48.0656ZM143.267 55.602L144.6 50.959C144.671 50.7617 144.727 50.5593 144.767 50.3534C144.782 50.1518 144.782 49.9494 144.767 49.7478H145.333C145.318 49.9494 145.318 50.1518 145.333 50.3534C145.333 50.5553 145.333 50.7571 145.333 50.959L146.7 55.602H143.267Z"/>
    <path d="M159.1 47.8635H157.1C156.385 47.8383 155.686 48.0776 155.133 48.5364C154.879 48.7833 154.679 49.0818 154.546 49.4124C154.414 49.7429 154.353 50.098 154.367 50.4542V61.3551H156.8V55.4336H162.133V53.6169H156.8V50.9589C156.782 50.8024 156.797 50.644 156.843 50.4934C156.889 50.3429 156.965 50.2035 157.067 50.0841C157.316 49.8949 157.622 49.7997 157.933 49.815H162.867V48.0318H161.033L159.1 47.8635Z"/>
    <path d="M172.067 48.0656C171.898 47.955 171.701 47.8965 171.5 47.8973H169.167C168.966 47.9018 168.771 47.9599 168.6 48.0656C168.443 48.1769 168.335 48.3459 168.3 48.5365L164.233 61.3552H166.733L167.833 57.5198H172.833L173.967 61.3552H176.433L172.4 48.5365C172.328 48.3547 172.214 48.1931 172.067 48.0656V48.0656ZM168.4 55.602L169.767 50.959C169.767 50.7571 169.767 50.5553 169.767 50.3534C169.767 50.1515 169.767 49.9497 169.767 49.7478H170.3C170.3 49.9497 170.3 50.1515 170.3 50.3534C170.3 50.5553 170.3 50.7571 170.467 50.959L171.833 55.602H168.4Z"/>
    <path d="M181.967 47.8973H179.567V61.3552H181.967V47.8973Z"/>
  </g>
  <defs>
    <clipPath id="clip0_228:20">
      <rect width="163" height="54" transform="translate(19 23)"/>
    </clipPath>
  </defs>
</svg>
