<svg width="200" height="100" viewBox="0 0 200 100" fill="none" xmlns="http://www.w3.org/2000/svg">
<path fill-rule="evenodd" clip-rule="evenodd" d="M41.772 33.924C44.147 32.271 45.704 29.524 45.704 26.412C45.704 21.358 41.607 17.262 36.554 17.262C31.499 17.262 27.402 21.358 27.402 26.412C27.402 29.449 28.887 32.132 31.164 33.797H31.094C31.094 33.797 23.978 42.81 25.226 77.337C25.226 77.337 26.382 78.287 28.301 79.293C27.838 59.083 31.151 51.341 32.228 49.373C30.818 48.118 29.918 46.25 29.918 44.161C29.918 40.381 32.85 37.317 36.466 37.317C40.082 37.317 43.013 40.382 43.013 44.162C43.013 46.282 42.09 48.178 40.643 49.434C41.689 51.336 45.035 59.089 44.517 79.699C45.591 79.099 46.667 78.349 47.737 77.403C48.985 42.879 41.962 33.929 41.962 33.929L41.774 33.927L41.772 33.924Z" fill="black"/>
<path fill-rule="evenodd" clip-rule="evenodd" d="M39.224 59.953C40.386 59.145 41.149 57.805 41.149 56.283C41.149 53.815 39.147 51.813 36.679 51.813C34.209 51.813 32.209 53.815 32.209 56.283C32.209 57.77 32.942 59.078 34.059 59.891H34.011C34.011 59.891 30.536 64.294 31.145 81.158C31.145 81.158 36.865 85.862 42.141 81.19C42.751 64.325 39.321 59.954 39.321 59.954H39.223L39.224 59.953ZM59.574 46.91H65.082V46.01H59.574V40.703H65.682V39.803H58.495V53.767H59.575V46.91H59.574ZM74.478 52.988V52.168C73.792 52.714 73.355 52.988 73.168 52.988C73.022 52.988 72.948 52.831 72.948 52.518V46.79C72.948 46.01 72.678 45.415 72.138 45.006C71.598 44.596 70.913 44.391 70.08 44.391C69.14 44.391 68.15 44.719 67.11 45.371V46.381C68.117 45.601 69.054 45.211 69.92 45.211C71.28 45.211 71.96 45.838 71.96 47.091V48.261C70.24 48.347 68.917 48.679 67.99 49.255C67.065 49.832 66.6 50.62 66.6 51.619C66.6 52.266 66.84 52.815 67.32 53.269C67.8 53.722 68.387 53.949 69.08 53.949C70.033 53.949 70.993 53.569 71.96 52.809C72 53.269 72.063 53.573 72.15 53.724C72.236 53.874 72.392 53.948 72.62 53.948C73.012 53.948 73.632 53.628 74.478 52.988ZM71.958 51.948C71.093 52.741 70.24 53.138 69.4 53.138C68.88 53.138 68.447 52.991 68.1 52.698C67.754 52.405 67.58 52.045 67.58 51.618C67.58 50.858 67.995 50.233 68.825 49.745C69.655 49.255 70.7 49.033 71.959 49.079V51.947L71.958 51.948ZM87.523 46.206C87.943 46.776 88.153 47.556 88.153 48.549V53.766H89.133V48.12C89.133 46.993 88.839 46.09 88.253 45.41C87.666 44.73 86.897 44.39 85.943 44.39C84.677 44.39 83.611 45.127 82.745 46.6C82.172 45.127 81.182 44.39 79.775 44.39C78.57 44.39 77.595 44.99 76.847 46.19H76.807V44.57H75.827V53.767H76.807V47.32C77.587 46.007 78.51 45.35 79.577 45.35C80.309 45.35 80.893 45.626 81.33 46.175C81.766 46.725 81.985 47.51 81.985 48.53V53.767H82.975V47.5C83.421 46.747 83.855 46.2 84.275 45.86C84.695 45.52 85.187 45.35 85.755 45.35C86.513 45.35 87.1031 45.635 87.523 46.206ZM91.5 45H92.49V54.196H91.5V45ZM91.5 40H92.49V41.68H91.5V40ZM95.5 40H96.49V53.964H95.5V40ZM105.542 44.57L102.364 50.992L99.027 44.572H98L101.874 51.98L98.659 58.475H99.662L106.544 44.571H105.541L105.542 44.57ZM68.28 66.312H60.434V60.275H58.434V74.24H60.434V68.16H68.281V74.237H70.281V60.274H68.281V66.311L68.28 66.312ZM77.507 65.023C76.0941 65.023 74.919 65.473 73.983 66.367C73.047 67.264 72.579 68.385 72.579 69.731C72.579 71.065 73.041 72.177 73.967 73.065C74.894 73.955 76.047 74.4 77.427 74.4C78.852 74.4 80.035 73.96 80.975 73.084C81.915 72.209 82.385 71.107 82.385 69.781C82.385 68.416 81.921 67.281 80.995 66.379C80.0681 65.476 78.905 65.024 77.505 65.024L77.507 65.023ZM79.681 71.856C79.111 72.419 78.381 72.7 77.488 72.7C76.588 72.7 75.852 72.422 75.278 71.865C74.706 71.309 74.418 70.591 74.418 69.711C74.418 68.826 74.698 68.096 75.258 67.523C75.8181 66.95 76.535 66.663 77.408 66.663C78.308 66.663 79.054 66.95 79.648 67.523C80.24 68.096 80.538 68.819 80.538 69.693C80.538 70.573 80.251 71.293 79.682 71.857L79.681 71.856ZM94.62 64.843C93.56 64.843 92.544 65.403 91.57 66.523C90.932 65.416 90.03 64.863 88.862 64.863C87.976 64.863 87.07 65.326 86.142 66.253V65.043H84.324V74.239H86.144V67.56C86.55 67.12 86.911 66.813 87.228 66.64C87.544 66.467 87.893 66.38 88.273 66.38C88.953 66.38 89.4291 66.582 89.703 66.985C89.975 67.389 90.113 68.1 90.113 69.119V74.239H91.941V67.56C92.595 66.8 93.298 66.42 94.051 66.42C94.6381 66.42 95.088 66.623 95.401 67.03C95.7141 67.436 95.871 68.023 95.871 68.79V74.237H97.691V68.807C97.691 67.469 97.401 66.473 96.825 65.82C96.248 65.166 95.515 64.84 94.621 64.84L94.62 64.843ZM104.016 64.863C102.75 64.863 101.721 65.303 100.928 66.178C100.135 67.054 99.738 68.192 99.738 69.591C99.738 70.525 99.926 71.346 100.302 72.057C100.679 72.765 101.182 73.331 101.807 73.75C102.434 74.17 103.253 74.38 104.267 74.38C105.007 74.38 105.65 74.3 106.2 74.14C106.75 73.98 107.305 73.713 107.865 73.34V71.56C106.852 72.307 105.745 72.68 104.545 72.68C103.685 72.68 102.985 72.42 102.441 71.9C101.899 71.38 101.605 70.68 101.558 69.8H108.026V69.57C108.026 68.138 107.663 66.995 106.936 66.142C106.21 65.289 105.236 64.862 104.016 64.862V64.863ZM101.596 68.711C101.724 67.986 101.996 67.426 102.411 67.033C102.829 66.64 103.364 66.443 104.017 66.443C104.67 66.443 105.19 66.64 105.577 67.033C105.963 67.426 106.18 67.986 106.227 68.713H101.597L101.596 68.711ZM122.39 66.76L117.05 60.275H115.972V74.24H117.052V61.853L122.382 68.381L127.697 61.853V74.24H128.787V60.274H127.693L122.389 66.759L122.39 66.76ZM139.482 69.3C139.482 67.935 139.089 66.854 138.302 66.058C137.516 65.262 136.552 64.863 135.414 64.863C134.201 64.863 133.194 65.305 132.394 66.187C131.594 67.071 131.194 68.185 131.194 69.531C131.194 70.951 131.629 72.121 132.494 73.041C133.361 73.961 134.457 74.421 135.784 74.421C137.09 74.421 138.269 74.014 139.322 73.201V72.091C138.209 73.004 137.07 73.461 135.904 73.461C134.904 73.461 134.038 73.104 133.304 72.391C132.572 71.678 132.204 70.808 132.204 69.781C132.204 69.621 132.214 69.461 132.234 69.301H139.482V69.3ZM133.459 66.527C134.009 66.057 134.659 65.823 135.413 65.823C137.005 65.823 137.975 66.719 138.323 68.511H132.363C132.543 67.659 132.908 66.999 133.458 66.528L133.459 66.527ZM148.39 65.603C147.422 65.109 146.516 64.863 145.67 64.863C144.337 64.863 143.228 65.316 142.345 66.223C141.462 67.129 141.021 68.265 141.021 69.631C141.021 70.978 141.471 72.113 142.366 73.036C143.263 73.959 144.364 74.42 145.671 74.42C146.644 74.42 147.551 74.12 148.391 73.52V74.24H149.379V60.274H148.389V65.602L148.39 65.603ZM148.39 72.62C147.59 73.18 146.763 73.46 145.91 73.46C144.81 73.46 143.894 73.09 143.16 72.35C142.428 71.61 142.06 70.684 142.06 69.57C142.06 68.478 142.404 67.58 143.09 66.878C143.777 66.175 144.65 65.823 145.71 65.823C146.616 65.823 147.51 66.109 148.39 66.683V72.62ZM152.5 60H153.49V61.68H152.5V60ZM152.5 65H153.49V74.196H152.5V65ZM157.33 72.435C156.686 71.752 156.365 70.831 156.365 69.671C156.365 68.531 156.685 67.606 157.329 66.893C157.971 66.18 158.807 65.823 159.833 65.823C160.546 65.823 161.343 66.017 162.223 66.403V65.313C161.309 65.013 160.496 64.863 159.783 64.863C158.483 64.863 157.415 65.323 156.579 66.239C155.742 67.155 155.325 68.336 155.325 69.782C155.325 71.169 155.739 72.289 156.569 73.142C157.399 73.995 158.487 74.422 159.833 74.422C160.619 74.422 161.473 74.264 162.393 73.952V72.932C161.526 73.285 160.699 73.462 159.913 73.462C158.833 73.462 157.971 73.12 157.328 72.437L157.33 72.435ZM170.09 72.99V67.262C170.09 66.482 169.82 65.887 169.28 65.478C168.74 65.068 168.054 64.863 167.22 64.863C166.28 64.863 165.292 65.189 164.252 65.843V66.853C165.258 66.073 166.195 65.683 167.062 65.683C168.422 65.683 169.1 66.309 169.1 67.563V68.731C167.38 68.819 166.058 69.151 165.132 69.726C164.206 70.304 163.742 71.091 163.742 72.091C163.742 72.737 163.982 73.287 164.462 73.741C164.942 74.194 165.528 74.421 166.222 74.421C167.174 74.421 168.134 74.041 169.1 73.281C169.14 73.741 169.204 74.045 169.29 74.196C169.377 74.346 169.533 74.42 169.76 74.42C170.153 74.42 170.773 74.1 171.62 73.46V72.64C170.933 73.186 170.496 73.46 170.31 73.46C170.163 73.46 170.09 73.303 170.09 72.99ZM169.1 72.42C168.234 73.213 167.38 73.61 166.54 73.61C166.02 73.61 165.588 73.463 165.242 73.17C164.895 72.876 164.722 72.517 164.722 72.09C164.722 71.33 165.136 70.705 165.966 70.216C166.796 69.726 167.841 69.504 169.1 69.551V72.421V72.42ZM173.5 60H174.49V73.964H173.5V60Z" fill="black"/>
</svg>
