<svg width="200" height="100" viewBox="0 0 200 100" fill="none" xmlns="http://www.w3.org/2000/svg">
<path d="M100.17 33.7777C100.118 33.8995 100.081 34.0271 100.06 34.1577L106.06 66.1577C106.12 66.4977 106.48 67.0377 106.72 67.0377C109.66 67.0977 112.61 67.0377 115.58 67.0377C116.58 60.0377 117.58 53.3277 118.58 46.5877H119C120 53.3777 121 60.1577 122 66.9877H131.37C133.46 55.9277 135.53 44.9277 137.62 33.8077H129.75L126.3 54.6477H126C125 47.6477 123.92 40.7277 122.88 33.8277H115.2C114.2 40.7077 113.2 47.4777 112.14 54.2577H111.76L108.37 33.7777H100.17ZM174.89 40.6477L167.89 33.7577L150.39 51.1777V33.7777H141.82V66.9577H175.11V58.2977H157.11L174.89 40.6477ZM75.44 55.3077C74.9563 57.7679 75.405 60.3201 76.6988 62.4678C77.9926 64.6155 80.039 66.2052 82.44 66.9277C85.5937 67.9361 88.9704 68.0194 92.17 67.1677C94.2051 66.725 96.04 65.6297 97.3956 64.0485C98.7512 62.4673 99.5533 60.4866 99.68 58.4077C100.08 53.5277 98.23 50.2877 93.79 48.3077C92.22 47.6077 90.56 47.1377 88.94 46.5577C87.67 46.0977 86.37 45.6977 85.14 45.1377C84.5609 44.8791 84.0918 44.4242 83.8155 43.8533C83.5392 43.2825 83.4735 42.6323 83.63 42.0177C83.7173 41.3923 84.0195 40.8168 84.4848 40.3898C84.9501 39.9629 85.5494 39.7111 86.18 39.6777C89.18 39.2077 91.26 40.7777 91.6 43.8277C91.67 44.4277 91.73 45.0377 91.8 45.5977H99.22C99.2484 44.595 99.1949 43.5917 99.06 42.5977C98.5 38.3877 96.37 35.3077 92.25 33.8877C89.0125 32.7575 85.4875 32.7575 82.25 33.8877C80.3594 34.5059 78.7045 35.6903 77.5096 37.2805C76.3147 38.8707 75.6376 40.7898 75.57 42.7777C75.36 47.7777 77.19 50.9377 81.45 52.7777C82.78 53.3477 84.21 53.7077 85.59 54.1777C86.97 54.6477 88.47 55.0777 89.86 55.6677C90.4258 55.8909 90.8976 56.3019 91.1962 56.8318C91.4948 57.3617 91.6021 57.9781 91.5 58.5777C91.4546 59.182 91.2101 59.7543 90.8047 60.2048C90.3994 60.6554 89.8562 60.9588 89.26 61.0677C88.5575 61.3224 87.8054 61.4099 87.0632 61.3234C86.321 61.2368 85.6092 60.9785 84.9842 60.5689C84.3592 60.1594 83.8382 59.6099 83.4626 58.9639C83.0869 58.318 82.8669 57.5935 82.82 56.8477C82.76 56.3477 82.72 55.8477 82.67 55.3277L75.44 55.3077ZM24.94 55.3077C24.48 60.9977 26.83 65.1477 31.54 66.7677C35.2991 68.1577 39.4378 68.1186 43.17 66.6577C44.9008 66.0386 46.4052 64.9131 47.4878 63.4275C48.5703 61.9419 49.1808 60.1649 49.24 58.3277C49.6 54.2477 48.24 50.9477 44.48 48.9377C43.2281 48.3052 41.9352 47.7573 40.61 47.2977C38.71 46.5977 36.74 46.0477 34.86 45.2977C34.2615 45.0352 33.7687 44.5788 33.4612 44.0021C33.1536 43.4254 33.0492 42.7619 33.1647 42.1186C33.2802 41.4753 33.6089 40.8896 34.0978 40.4559C34.5868 40.0221 35.2075 39.7657 35.86 39.7277C36.9845 39.4706 38.1651 39.6706 39.1421 40.2839C40.1192 40.8971 40.8126 41.8733 41.07 42.9977C41.1506 43.3247 41.1876 43.661 41.18 43.9977C41.18 44.5477 41.24 45.0977 41.28 45.7377H47.82C48.0616 45.7484 48.3035 45.7283 48.54 45.6777C49.44 39.8577 46.25 34.8977 40.65 33.6777C38.7127 33.2864 36.73 33.1686 34.76 33.3277C32.3932 33.4006 30.1305 34.3177 28.3809 35.9133C26.6313 37.5088 25.5101 39.6776 25.22 42.0277C24.49 47.6277 26.87 51.4177 32.31 53.3177C33.09 53.5877 33.89 53.8277 34.68 54.0877C36.22 54.5877 37.78 55.0177 39.27 55.6077C39.8422 55.8332 40.3274 56.2354 40.6553 56.7557C40.9832 57.276 41.1365 57.8874 41.093 58.5008C41.0495 59.1143 40.8114 59.6979 40.4134 60.1667C40.0154 60.6355 39.4782 60.9652 38.88 61.1077C37.6852 61.5546 36.3618 61.5085 35.201 60.9796C34.0402 60.4508 33.1369 59.4825 32.69 58.2877C32.5116 57.7997 32.4104 57.2869 32.39 56.7677C32.39 56.3177 32.32 55.8677 32.28 55.3677L24.94 55.3077ZM62.18 42.9877C60.68 40.1077 59.33 37.4877 57.94 34.8877C57.71 34.4577 57.32 33.8077 56.94 33.7977C54.11 33.7077 51.27 33.7977 48.23 33.7977C51.16 38.9877 53.92 43.9277 56.75 48.7977C57.0137 49.1649 57.1556 49.6056 57.1556 50.0577C57.1556 50.5098 57.0137 50.9505 56.75 51.3177C54.9 54.3777 53.12 57.4877 51.32 60.5877L47.59 67.0777C49.97 67.0777 52.05 66.9477 54.11 67.0777C54.8121 67.1934 55.5324 67.0558 56.1424 66.6894C56.7524 66.3231 57.2123 65.7518 57.44 65.0777C58.71 62.3977 60.22 59.8177 61.76 56.9477C63.51 60.1277 65.08 63.0377 66.71 65.9477C66.96 66.3877 67.45 67.0077 67.84 67.0177C70.59 67.1177 73.33 67.0177 76.28 67.0177C75.97 66.3977 75.79 66.0177 75.57 65.6077C72.87 60.8677 70.21 56.1177 67.42 51.4277C67.0642 50.9436 66.8723 50.3585 66.8723 49.7577C66.8723 49.1569 67.0642 48.5718 67.42 48.0877C70.01 43.8277 72.42 39.4777 74.93 35.1577C75.17 34.7477 75.35 34.2977 75.66 33.6677H68.25C67.8722 33.6288 67.4921 33.7167 67.1698 33.9177C66.8475 34.1187 66.6013 34.4213 66.47 34.7777C65.12 37.4777 63.71 40.0677 62.18 42.9877Z" fill="black"/>
<path d="M100.17 33.7777H108.37L111.75 54.2377H112.13C113.13 47.4577 114.13 40.6877 115.19 33.8077H122.91C123.91 40.7077 124.99 47.6677 126.03 54.6277H126.28L129.73 33.7777H137.6C135.51 44.8977 133.44 55.8977 131.35 66.9577H122C121 60.1277 120 53.3477 119 46.5577H118.64C117.64 53.2977 116.64 60.0377 115.64 67.0077H106.78C106.54 67.0077 106.18 66.4677 106.12 66.1277L100.12 34.1277C100.118 34.0091 100.135 33.891 100.17 33.7777ZM174.89 40.6677L157.11 58.2977H175.11V66.9577H141.81V33.7777H150.38V51.1977L167.88 33.7777L174.89 40.6677ZM75.44 55.3077H82.69C82.7102 55.8168 82.7603 56.3244 82.84 56.8277C83.26 60.1977 85.99 61.9577 89.28 61.0477C89.8762 60.9388 90.4194 60.6353 90.8247 60.1848C91.2301 59.7342 91.4746 59.162 91.52 58.5577C91.6221 57.9581 91.5148 57.3416 91.2162 56.8118C90.9176 56.2819 90.4458 55.8709 89.88 55.6477C88.49 55.0577 87.04 54.6477 85.61 54.1577C84.18 53.6677 82.8 53.3277 81.47 52.7577C77.21 50.9377 75.38 47.7577 75.59 42.7577C75.6536 40.7663 76.3288 38.8427 77.524 37.2486C78.7192 35.6544 80.3763 34.467 82.27 33.8477C85.5075 32.7174 89.0325 32.7174 92.27 33.8477C96.39 35.2677 98.52 38.3477 99.08 42.5577C99.21 43.5577 99.19 44.4977 99.24 45.5577H91.8C91.73 44.9977 91.67 44.3877 91.6 43.7877C91.26 40.7877 89.21 39.1677 86.18 39.6377C85.5494 39.6711 84.9501 39.9228 84.4848 40.3498C84.0196 40.7767 83.7173 41.3523 83.63 41.9777C83.4735 42.5923 83.5392 43.2424 83.8155 43.8133C84.0918 44.3842 84.5609 44.8391 85.14 45.0977C86.3804 45.6387 87.6488 46.1127 88.94 46.5177C90.5856 47.0174 92.2044 47.6015 93.79 48.2677C98.23 50.2677 100.08 53.4877 99.68 58.3677C99.5476 60.4399 98.744 62.4127 97.3909 63.9878C96.0378 65.5628 94.2086 66.6545 92.18 67.0977C88.9804 67.9494 85.6037 67.8661 82.45 66.8577C80.0602 66.14 78.0211 64.5623 76.7265 62.4292C75.4318 60.2961 74.9735 57.7589 75.44 55.3077ZM25 55.2977H32.33C32.3428 55.7659 32.3795 56.2332 32.44 56.6977C32.4619 57.3312 32.6088 57.9542 32.8723 58.5307C33.1357 59.1073 33.5106 59.6261 33.9752 60.0573C34.4399 60.4885 34.9852 60.8236 35.5798 61.0433C36.1744 61.2631 36.8066 61.3631 37.44 61.3377C37.9567 61.324 38.4673 61.2225 38.95 61.0377C39.5483 60.8952 40.0854 60.5655 40.4834 60.0967C40.8814 59.6278 41.1195 59.0442 41.163 58.4308C41.2065 57.8173 41.0532 57.206 40.7253 56.6857C40.3974 56.1654 39.9122 55.7632 39.34 55.5377C37.85 54.9477 36.29 54.5377 34.75 54.0177C33.96 53.7577 33.16 53.5177 32.38 53.2477C26.94 51.3477 24.56 47.5577 25.29 41.9577C25.5801 39.6076 26.7013 37.4388 28.4509 35.8432C30.2005 34.2476 32.4632 33.3305 34.83 33.2577C36.8 33.0986 38.7827 33.2164 40.72 33.6077C46.32 34.8777 49.51 39.8377 48.61 45.6077C48.38 45.6077 48.14 45.6677 47.89 45.6677H41.27C41.27 45.0277 41.21 44.4777 41.17 43.9277C41.1766 43.3561 41.0702 42.7888 40.8569 42.2584C40.6437 41.728 40.3277 41.245 39.9272 40.8371C39.5267 40.4292 39.0496 40.1044 38.5232 39.8814C37.9969 39.6584 37.4316 39.5416 36.86 39.5377C36.5238 39.5398 36.1887 39.5767 35.86 39.6477C35.2075 39.6856 34.5868 39.9421 34.0979 40.3758C33.6089 40.8096 33.2802 41.3952 33.1647 42.0386C33.0492 42.6819 33.1537 43.3453 33.4612 43.922C33.7687 44.4987 34.2615 44.9551 34.86 45.2177C36.74 45.9877 38.71 46.5377 40.61 47.2177C41.9352 47.6773 43.2281 48.2252 44.48 48.8577C48.24 50.8577 49.6 54.1677 49.24 58.2477C49.1808 60.0849 48.5703 61.8618 47.4878 63.3474C46.4052 64.833 44.9008 65.9586 43.17 66.5777C39.4378 68.0385 35.2991 68.0777 31.54 66.6877C26.83 65.1377 24.48 60.9877 25 55.2977Z" fill="black"/>
<path d="M62.18 42.9878C63.71 40.0678 65.12 37.4778 66.43 34.8278C66.5578 34.4676 66.8025 34.1606 67.1251 33.9558C67.4478 33.751 67.8297 33.6601 68.21 33.6978C70.6 33.7578 72.99 33.6978 75.62 33.6978C75.31 34.3278 75.13 34.7778 74.89 35.1878C72.4 39.5078 70 43.8578 67.38 48.1178C67.0242 48.6019 66.8323 49.187 66.8323 49.7878C66.8323 50.3886 67.0242 50.9737 67.38 51.4578C70.17 56.1478 72.83 60.8978 75.53 65.6378C75.75 66.0178 75.93 66.4278 76.24 67.0478H67.8C67.41 67.0478 66.92 66.4178 66.67 65.9778C65.04 63.0978 63.47 60.1878 61.67 56.9778C60.13 59.8478 58.67 62.4278 57.35 65.1078C57.1223 65.7819 56.6624 66.3531 56.0524 66.7195C55.4424 67.0858 54.7221 67.2235 54.02 67.1078C51.96 66.9378 49.88 67.1078 47.5 67.1078L51.24 60.5978C53.04 57.4978 54.82 54.3878 56.67 51.3278C56.9337 50.9606 57.0756 50.5199 57.0756 50.0678C57.0756 49.6157 56.9337 49.175 56.67 48.8078C53.84 43.9078 51.08 38.9678 48.15 33.8078H56.86C57.2 33.8078 57.59 34.4678 57.86 34.8978C59.33 37.4878 60.68 40.1078 62.18 42.9878Z" fill="black"/>
<path d="M136.021 64.2876C136.33 64.2876 136.632 64.3674 136.926 64.5269C137.221 64.6847 137.45 64.9118 137.615 65.208C137.779 65.5026 137.861 65.8102 137.861 66.1309C137.861 66.4482 137.78 66.7534 137.617 67.0464C137.456 67.3394 137.229 67.5672 136.936 67.73C136.645 67.8911 136.34 67.9717 136.021 67.9717C135.702 67.9717 135.396 67.8911 135.103 67.73C134.811 67.5672 134.584 67.3394 134.421 67.0464C134.259 66.7534 134.177 66.4482 134.177 66.1309C134.177 65.8102 134.26 65.5026 134.424 65.208C134.59 64.9118 134.82 64.6847 135.115 64.5269C135.409 64.3674 135.711 64.2876 136.021 64.2876ZM136.021 64.5928C135.762 64.5928 135.51 64.6595 135.264 64.793C135.02 64.9248 134.828 65.1144 134.69 65.3618C134.552 65.6076 134.482 65.8639 134.482 66.1309C134.482 66.3962 134.55 66.6509 134.685 66.895C134.822 67.1375 135.012 67.3271 135.256 67.4639C135.501 67.599 135.755 67.6665 136.021 67.6665C136.286 67.6665 136.541 67.599 136.785 67.4639C137.029 67.3271 137.218 67.1375 137.354 66.895C137.489 66.6509 137.556 66.3962 137.556 66.1309C137.556 65.8639 137.487 65.6076 137.349 65.3618C137.212 65.1144 137.021 64.9248 136.775 64.793C136.529 64.6595 136.278 64.5928 136.021 64.5928ZM135.212 67.1489V65.1665H135.894C136.126 65.1665 136.295 65.1852 136.399 65.2227C136.503 65.2585 136.586 65.3219 136.648 65.4131C136.71 65.5042 136.741 65.6011 136.741 65.7036C136.741 65.8485 136.689 65.9746 136.585 66.082C136.482 66.1895 136.345 66.2497 136.174 66.2627C136.244 66.292 136.301 66.327 136.343 66.3677C136.423 66.4458 136.52 66.5768 136.636 66.7607L136.878 67.1489H136.487L136.311 66.8364C136.173 66.5907 136.061 66.4368 135.977 66.375C135.918 66.3294 135.833 66.3066 135.72 66.3066H135.532V67.1489H135.212ZM135.532 66.0332H135.92C136.106 66.0332 136.232 66.0055 136.299 65.9502C136.367 65.8949 136.401 65.8216 136.401 65.7305C136.401 65.6719 136.385 65.6198 136.353 65.5742C136.32 65.527 136.274 65.492 136.216 65.4692C136.159 65.4465 136.052 65.4351 135.896 65.4351H135.532V66.0332Z" fill="black"/>
</svg>
