<svg width="200" height="100" viewBox="0 0 200 100" fill="none" xmlns="http://www.w3.org/2000/svg">
<path d="M49.165 24.272V29.018C47.597 29.172 46.813 29.252 45.245 29.418V24.673C46.813 24.507 47.597 24.426 49.165 24.273V24.272ZM51.809 34.152C53.076 32.85 53.709 32.199 54.979 30.904V20.938C53.631 19.853 52.957 19.313 51.609 18.238C47.542 18.635 43.482 19.064 39.421 19.524V46.451C41.749 46.178 42.914 46.048 45.244 45.801V35.254L45.786 35.197C47.143 38.575 48.499 41.953 49.853 45.332C52.348 45.092 53.596 44.977 56.093 44.766C54.667 41.228 53.238 37.691 51.808 34.156L51.809 34.152ZM67.69 38.094V33.366C70.312 33.203 71.622 33.129 74.245 32.999V27.164C71.623 27.294 70.312 27.367 67.691 27.53V22.802C70.736 22.612 72.258 22.529 75.304 22.385V16.568C70.822 16.778 66.342 17.05 61.867 17.38V44.306C66.375 43.976 70.887 43.704 75.402 43.49V37.672C72.319 37.818 70.776 37.902 67.692 38.094H67.69ZM96.478 23.763V18.989C95.126 17.801 94.45 17.211 93.098 16.032C89.628 16.077 87.893 16.112 84.424 16.216C83.058 17.458 82.374 18.081 81.01 19.333V29.703C82.375 30.856 83.058 31.435 84.424 32.596C86.911 32.523 88.156 32.494 90.644 32.45V37.18C89.124 37.206 88.364 37.222 86.844 37.26V35.167C84.51 35.225 83.344 35.26 81.01 35.345V40.269C82.375 41.413 83.058 41.989 84.424 43.143C87.894 43.04 89.627 43.003 93.097 42.959C94.45 41.746 95.127 41.141 96.477 39.937V29.551C95.127 28.358 94.45 27.763 93.099 26.578C90.595 26.608 89.344 26.633 86.842 26.695V21.965C88.362 21.929 89.122 21.912 90.642 21.885V23.831C92.976 23.791 94.142 23.776 96.477 23.761L96.478 23.763ZM160.22 27.315V22.542C158.873 21.187 158.2 20.512 156.854 19.166C153.4 18.782 151.674 18.604 148.214 18.276C146.852 19.35 146.171 19.889 144.809 20.971V31.344C146.169 32.664 146.851 33.328 148.213 34.658C150.693 34.892 151.933 35.018 154.41 35.283V40.01C152.897 39.847 152.14 39.77 150.625 39.62V37.526C148.299 37.296 147.135 37.186 144.809 36.982V41.906C146.169 43.22 146.851 43.88 148.213 45.204C151.673 45.531 153.399 45.708 156.853 46.094C158.199 45.047 158.873 44.527 160.218 43.49V33.104C158.872 31.744 158.198 31.064 156.854 29.714C154.364 29.434 153.116 29.304 150.624 29.056V24.328C152.138 24.478 152.894 24.556 154.409 24.718V26.663C156.735 26.911 157.896 27.04 160.219 27.315H160.22ZM112.983 16.163V26.708C111.225 26.663 110.346 26.644 108.587 26.613V16.068C106.254 16.028 105.087 16.013 102.753 16V42.927C105.087 42.94 106.253 42.955 108.587 42.994V32.448C110.347 32.478 111.225 32.498 112.983 32.542V43.088C115.317 43.148 116.483 43.185 118.817 43.272V16.345C116.484 16.258 115.317 16.223 112.983 16.163ZM130.89 38.043V33.315C133.51 33.475 134.822 33.562 137.442 33.755V27.919C134.822 27.726 133.512 27.639 130.89 27.479V22.751C133.933 22.935 135.455 23.039 138.496 23.268V17.45C134.021 17.112 129.543 16.834 125.061 16.613V43.54C129.577 43.762 134.089 44.042 138.596 44.384V38.566C135.516 38.333 133.974 38.228 130.891 38.041L130.89 38.043ZM165.154 20.16V25.976C167.047 26.218 167.994 26.344 169.884 26.604V47.714C172.208 48.034 173.371 48.199 175.692 48.544V27.434C177.58 27.716 178.524 27.861 180.412 28.16V22.343C175.336 21.539 170.25 20.811 165.154 20.159V20.16ZM33.84 26.155V20.305C29.356 20.882 24.88 21.519 20.41 22.213V49.293C22.744 48.93 23.91 48.755 26.247 48.419V37.812C28.86 37.436 30.167 37.257 32.784 36.915V31.047C30.167 31.389 28.86 31.569 26.247 31.945V27.188C29.282 26.751 30.801 26.544 33.841 26.153L33.84 26.155ZM157.007 62.182V57.069C155.564 55.763 154.842 55.124 153.397 53.867H144.133C142.677 55.077 141.95 55.674 140.493 56.85L140.517 67.155C141.977 68.425 142.707 69.07 144.164 70.385C146.818 70.569 148.144 70.669 150.794 70.881L150.8 75.793C149.182 75.625 148.373 75.545 146.753 75.391L146.75 73.257C144.263 73.044 143.018 72.944 140.528 72.759L140.54 77.649C142 78.973 142.728 79.647 144.185 81.019C147.881 81.443 149.728 81.677 153.415 82.191C154.852 81.134 155.57 80.598 157.007 79.508V68.383C155.567 66.988 154.847 66.305 153.407 64.961C150.739 64.816 149.404 64.748 146.735 64.621L146.728 59.799C148.35 59.842 149.161 59.863 150.783 59.909C150.783 60.719 150.785 61.124 150.786 61.932C153.276 62.027 154.519 62.077 157.006 62.184L157.007 62.182ZM61.405 61.76L61.415 57.003C59.945 55.831 59.21 55.236 57.739 54.03C53.887 54.033 51.962 54.036 48.111 54.04C46.637 55.298 45.901 55.94 44.427 57.247C44.424 64.694 44.424 72.141 44.42 79.587C45.865 80.677 46.587 81.211 48.03 82.267C51.887 81.741 53.817 81.502 57.682 81.077C59.155 79.713 59.892 79.047 61.367 77.731L61.397 64.471C57.734 64.617 55.902 64.699 52.242 64.879L52.232 70.877C53.392 70.787 53.97 70.745 55.13 70.661C55.126 72.583 55.125 73.543 55.12 75.464C53.344 75.628 52.455 75.714 50.68 75.894L50.7 60.06C52.48 60.008 53.37 59.985 55.15 59.938L55.146 61.962C57.649 61.875 58.901 61.835 61.406 61.76H61.405ZM79.16 59.304C79.148 64.068 79.138 68.834 79.13 73.597C77.236 73.677 76.29 73.72 74.396 73.817C74.406 69.001 74.416 64.183 74.43 59.367C76.32 59.339 77.267 59.327 79.16 59.304ZM81.773 53.868H71.82C70.374 55.012 69.65 55.59 68.205 56.761L68.155 76.904C69.595 77.948 70.317 78.467 71.758 79.501C75.742 79.211 77.735 79.091 81.724 78.905C83.189 77.725 83.92 77.145 85.384 75.991C85.394 69.541 85.404 63.094 85.416 56.644C83.958 55.541 83.23 54.986 81.773 53.869V53.868ZM103.117 59.252C103.117 63.912 103.119 68.575 103.122 73.237C101.226 73.224 100.278 73.223 98.382 73.227C98.384 68.567 98.382 63.909 98.385 59.25C100.278 59.248 101.225 59.248 103.117 59.252ZM105.717 53.932H95.765C94.321 55.032 93.598 55.582 92.153 56.689C92.147 63.085 92.143 69.484 92.136 75.881C93.582 76.951 94.306 77.486 95.752 78.565C99.744 78.522 101.74 78.525 105.732 78.587C107.195 77.515 107.926 76.983 109.388 75.917L109.368 56.691C107.906 55.583 107.176 55.031 105.718 53.931L105.717 53.932ZM123.035 73.705L123.003 59.335C124.825 59.357 125.735 59.371 127.556 59.399C127.566 64.245 127.578 69.092 127.592 73.939C125.77 73.837 124.858 73.789 123.035 73.704V73.705ZM130.11 53.868H115.357L115.367 59.252C115.92 59.256 116.197 59.258 116.751 59.264C116.757 63.994 116.767 68.722 116.777 73.452C116.223 73.432 115.944 73.422 115.39 73.406C115.393 75.56 115.395 76.636 115.4 78.79C115.953 78.812 116.23 78.823 116.785 78.847C116.905 78.852 116.965 78.857 117.085 78.861C121.455 79.081 125.811 79.349 130.173 79.665C131.637 78.629 132.367 78.108 133.83 77.058L133.78 56.798C132.312 55.611 131.578 55.026 130.11 53.868Z" fill="black"/>
</svg>
