<svg fill="none" height="100" viewBox="0 0 200 100" width="200" xmlns="http://www.w3.org/2000/svg"><g fill="#000"><path d="m93.3185 57.7116h-1.5169l32.8054 12.458c-31.4142 22.4386-81.9191-7.7099-71.1665-39.3574-7.8625 29.0715 37.0866 52.2282 60.5575 38.3162l-23.7222-11.4168h-1.9926l15.8238 10.5283c-20.9577 6.211-48.1623-12.4311-48.1623-31.8629 0-14.6749 16.3892-23.8478 42.1038-14.4864-24.6107-10.8424-49.8586-3.1594-50.0471 18.1214-.3231 36.3596 56.2136 58.52 86.6226 30.3909z"/><path d="m105.031 25.9565c-1.509-1.596-3.629-2.4712-5.8246-2.4054-4.5098-.0518-8.3371 3.2961-8.8857 7.7727-.2202 1.9541.396 3.9101 1.6963 5.3853 1.5081 1.5671 3.6061 2.4272 5.7802 2.3695 4.5408.1436 8.4378-3.2078 8.9758-7.7189.219-1.9672-.415-3.9341-1.742-5.4032zm-7.1171 11.6681c-1.2442.0195-2.4359-.501-3.2671-1.4271-1.1234-1.3895-1.609-3.1884-1.3373-4.9545.35-3.653 2.6926-6.2379 5.7622-6.2379 1.2593-.0116 2.4643.514 3.3123 1.445 1.11 1.368 1.596 3.1396 1.337 4.8827-.341 3.644-2.782 6.3187-5.8071 6.3187z"/><path d="m111.898 25.1487h1.077c.728-.0452 1.444.2074 1.983.7001.359.4248.542.9706.512 1.5258.008.1285.008.2575 0 .386-.12 1.7295-1.618 3.0351-3.348 2.917h-.754c.036-.386.503-5.2148.53-5.5289zm5.43 8.5446c-.396-1.155-1.325-2.0476-2.495-2.3964.357-.0607.707-.1631 1.041-.3052 1.372-.5462 2.318-1.8219 2.441-3.294 0-.1346 0-.2603 0-.3769.02-1.0064-.423-1.9661-1.203-2.6029-.951-.727-1.795-.9514-3.769-.9514h-4.865l-.108.5206c.638.2513.844.5295.718 1.8758l-.996 10.3667c-.108 1.3373-.512 1.6245-1.059 1.7951l.09.5205h4.335l.099-.5295c-.306-.1077-.494-.1975-.575-.368-.137-.3103-.202-.6481-.188-.9873 0-.1616 0-.3411 0-.5206 0 0 .341-3.7068.422-4.4877h.78c.647 0 1.795 0 2.531 1.8938l.898 2.7465c.583 1.7951.898 2.2708 2.127 2.2708h2.118l.135-.5296c-.349-.0429-.67-.216-.898-.4846-.375-.5744-.656-1.2045-.834-1.8669l-.332-.9963z"/><path d="m91.8464 42.1842h1.077c.7258-.0427 1.4379.2098 1.9746.7001.3594.428.5423.9768.5116 1.5348v.377c-.12 1.7283-1.6094 3.0375-3.3388 2.935h-.754c.0359-.4039.5027-5.2327.5296-5.5469zm5.4301 8.5447c-.3995-1.1526-1.3274-2.0437-2.4951-2.3965.3587-.0565.7086-.159 1.0411-.3052 1.3726-.5462 2.318-1.8219 2.4413-3.2939 0-.1257 0-.2514 0-.377.029-.9977-.401-1.9537-1.1668-2.5939-.9514-.736-1.7951-.9604-3.7786-.9604h-4.9006l-.0988.5296c.6373.2513.8437.5295.7091 1.8758l-.9873 10.3667c-.1077 1.3373-.5206 1.6245-1.0591 1.7951l.0987.5385h4.3262l.0987-.5385c-.3051-.1077-.4936-.1975-.5744-.3591-.1401-.3095-.2047-.6479-.1885-.9873 0-.1705 0-.35 0-.5295 0 0 .3411-3.6979.4129-4.4877h.7898c.6462 0 1.7951 0 2.5311 1.8938l.8975 2.7555c.5745 1.795.8976 2.2618 2.1362 2.2618h2.1092l.1347-.5386c-.3338-.0474-.6395-.213-.8617-.4667-.3986-.5726-.7017-1.2062-.8975-1.8759l-.3231-1.0142z"/><path d="m133.78 32.1048c-.032-.6671.382-1.2747 1.014-1.4899l-.117-.5026h-3.778l-.108.5026c.487.1734.786.6635.718 1.1758v.35l-.386 4.4878-.108.0538c-1.025.6317-2.206.9672-3.41.9694-1.479.0675-2.915-.5125-3.931-1.5887-1.071-1.3272-1.528-3.0465-1.257-4.7301.341-3.5901 2.899-6.2828 5.96-6.2828 2.381-.0514 4.407 1.7252 4.667 4.0928h.547l.252-3.9671-.126-.0988c-1.611-1.0177-3.48-1.5533-5.385-1.5437-4.526-.1054-8.364 3.3024-8.796 7.8086-.276 1.9952.326 4.0119 1.651 5.5289 1.512 1.5339 3.602 2.3557 5.754 2.2618 2.362-.0412 4.671-.7137 6.686-1.9477l.261-.1795-.153-.1705c-.099-.1257-.296-.3231-.287-.5206-.004-.0717-.004-.1437 0-.2154 0 0 .332-3.9851.332-3.9941z"/><path d="m82.7364 44.6073c-.1914 1.4813-1.5084 2.5538-2.9978 2.4413h-1.5437c0-.3231.4487-4.7121.4667-4.9904h1.5976c.7351-.0281 1.4471.2593 1.9567.7899.3708.414.5726.9521.5654 1.5079-.0104.0845-.0254.1684-.0449.2513zm-4.4877 3.7786h1.6694c1.085-.0723 2.1503.3154 2.935 1.0681.4366.4946.6705 1.1356.6552 1.7951v.3411c-.1795 1.7951-1.6425 2.9888-3.8145 2.9888h-2.0105c.0359-.3231.5654-5.9507.5654-6.1931zm1.7951 7.5843c1.0604.064 2.1216-.1109 3.1055-.5116.6188-.2571 1.178-.639 1.6425-1.1219.6908-.6737 1.1202-1.5706 1.2117-2.5311.0089-.1315.0089-.2634 0-.3949.0383-1.7061-1.085-3.221-2.7285-3.68-.187-.0666-.3791-.1177-.5745-.1526.3164-.1124.6178-.2631.8976-.4487 1.0062-.624 1.6685-1.677 1.7951-2.8542 0-.0898 0-.1795 0-.2693-.1591-1.5885-1.3677-2.8708-2.944-3.1234-.6846-.1414-1.3835-.2017-2.0823-.1796h-4.8108l-.0629.4847c.4129.1167.6463.3052.6463 1.104v.6283l-1.113 10.95c-.0136.1902-.0406.3791-.0808.5655-.1525.7898-.3859.8975-.8257 1.0142v.5206z"/><path d="m116.691 43.0998 4.209 13.3017s3.016-5.2058 3.536-6.238c.413 1.0501 2.164 6.238 2.164 6.238l6.076-13.0863c.574-1.2475 1.158-1.795 1.795-1.795s1.4.4398 1.266 1.9207l-.943 9.9628c-.125 1.3283-.269 1.6514-1.14 2.0194l.099.5116h3.132l.117-.5205c-.25-.0735-.464-.2364-.601-.4578-.094-.2145-.134-.4486-.117-.6821.003-.2373.021-.4741.054-.7091.467-4.8467.772-8.3202.897-9.5319.674.8975 5.386 7.0637 9.559 12.44l1.257-13.1042c.153-1.4989.377-1.7951 1.203-2.0195l-.099-.5295h-3.303l-.099.5205c.413.1885.539.3142.628.5206.093.3297.129.6725.108 1.0142v.4937s-.493 5.3314-.664 7.1804c-.565-.754-7.494-9.6935-7.494-9.6935h-7.441l-.135.718c.566.1167.673.2244.637.5565 0 .1436 0 .1436-.188.5385l-3.761 8.1677c-.305-1.0053-1.22-3.8595-1.265-4.039l1.885-3.7158c.272-.6656.776-1.2105 1.418-1.5348l-.063-.6911h-8.078l-.251.6731c.586.3113 1.004.8671 1.14 1.5169l1.489 4.9544c-.628 1.2117-1.22 2.2978-1.66 3.1684-.35-1.0771-2.387-7.6022-2.387-7.6022-.177-.4943-.327-.9977-.449-1.5079 0-.1975.054-.4129.538-.5206v-.6911h-4.003l-.242.6103c.603.3606 1.029.9556 1.176 1.6425zm8.23-.7539c-.09-.3411 0-.8437.808-.8437s.996.368.808.7988c-.189.4308-1.014 2.1452-1.014 2.1452s-.503-1.7503-.602-2.1003z"/><path d="m136.535 30.0314.377-3.8684c.126-1.2835 0-1.6156-.718-1.9118l.198-.5116h9.065l-.216 2.2618-.529.0539c-.108-.377-.216-.5296-.413-.6283-.413-.1679-.856-.2474-1.302-.2334h-3.293c0 .3411-.404 4.3711-.44 4.7391h2.19c.429.0557.865-.0128 1.256-.1975.254-.0884.455-.286.548-.5385l.529.0718-.278 2.8003-.52.0629c-.068-.2464-.238-.452-.467-.5655-.385-.1526-.8-.2111-1.212-.1705h-2.19c0 .3321-.52 5.5917-.556 5.9776h3.33c.647.0338 1.295-.0514 1.911-.2513.35-.1066.662-.3123.898-.5923l.449.2692-.683 2.0464h-9.522l-.099-.5026c.727-.2962.96-.6014 1.086-1.8849l.484-5.1429z"/><path d="m114.061 43.01c-1.509-1.5917-3.624-2.4664-5.816-2.4055-4.51-.0517-8.3376 3.2962-8.8862 7.7728-.2283 1.9533.3853 3.9115 1.6872 5.3853 1.505 1.5733 3.604 2.4372 5.78 2.3785 4.544.1432 8.442-3.2133 8.976-7.7279.217-1.967-.417-3.9329-1.741-5.4032zm-7.091 11.695c-1.242.0171-2.431-.4993-3.267-1.4181-1.118-1.392-1.6-3.1898-1.328-4.9545.341-3.653 2.692-6.2829 5.762-6.2829 1.271-.0085 2.482.5352 3.321 1.49 1.111 1.368 1.596 3.1396 1.337 4.8827-.386 3.6171-2.827 6.2828-5.825 6.2828z"/><path d="m81.2372 31.3956c-.718 0-2.5849-.0897-2.5849.6463l-.377 4.2992c-.004.0747-.004.1496 0 .2244 0 .2064.1975.4218.3052.5475l.1615.1795-.2782.1885c-2.1152 1.2949-4.5391 1.9986-7.0188 2.0374-2.2588.1049-4.4555-.7568-6.0405-2.3695-1.3921-1.7589-2.0195-4.0032-1.7412-6.229.4735-4.7397 4.5281-8.3085 9.2896-8.1766 1.9894.0023 3.9363.5755 5.6096 1.6515l.1436.0987-.2692 4.021h-.5745c-.3699-2.4104-2.453-4.1839-4.8916-4.1646-3.2222 0-5.9058 2.8452-6.2828 6.588-.1885 2.0554.2423 4.2005 1.3194 5.3853 1.0619 1.0905 2.5358 1.6807 4.0569 1.6245 1.268.004 2.5117-.3473 3.5902-1.0142l.1167-.0628c.0538-.5386.4218-4.775.4218-4.775.0079-.1225.0079-.2454 0-.368.0645-.5427-.2563-1.0574-.7719-1.2386l.1167-.5385h5.7981l.386-3.7607c.1256-1.2835 0-1.6156-.7091-1.9118l.2065-.5116h9.0562l-.2154 2.2618-.5385.0539c-.0988-.377-.1975-.5296-.395-.6283-.419-.1679-.8682-.2473-1.3194-.2334h-3.276c0 .3411-.4039 4.3711-.4398 4.7391h2.181c.4274.0583.8626-.0039 1.2566-.1796.254-.0884.4549-.286.5475-.5385l.5206.0718-.2693 2.8004-.5206.0628c-.0679-.2463-.2377-.452-.4667-.5655-.3874-.1534-.806-.2118-1.2206-.1705h-2.1811c0 .3321-.5206 5.5917-.5565 5.9777h3.3299c.6444.0346 1.2896-.0506 1.9028-.2514.3513-.1041.6637-.3103.8976-.5923l.4488.2692-.6732 2.0464h-9.514l-.0987-.5026c.718-.2962.9514-.6013 1.077-1.8848 0-.0449.4488-4.7211.4847-5.1071z"/><path d="m115.371 60.9519c-.084.6785.125 1.3606.575 1.8758.531.5809 1.286.9074 2.073.8976.703.0039 1.397-.1657 2.019-.4937.207-1.1578.207-1.1578.126-1.1847h-.072v.0628c-.341.6793-1.035 1.1094-1.795 1.113-.493.031-.976-.156-1.319-.5116-.394-.4821-.563-1.1087-.467-1.7233.034-1.1721 1-2.1016 2.172-2.0913.7-.0263 1.327.4299 1.517 1.104v.0718h.081c.081 0 .081 0 .107-1.2566v-.0538c-.559-.2701-1.173-.4082-1.795-.4039-1.573-.0683-2.953 1.0422-3.222 2.5939z"/><path d="m121.385 60.8801c-.091.6912.115 1.3885.565 1.9207.524.5706 1.263.896 2.037.8975 1.605.0694 2.997-1.0998 3.205-2.6926.103-.688-.101-1.3865-.557-1.9118-.518-.5629-1.245-.8875-2.01-.8975-1.61-.0718-3.011 1.089-3.24 2.6837zm3.123-2.1362c.389-.0091.762.1514 1.023.4398.378.5164.531 1.1643.422 1.7951-.117 1.2565-.897 2.0823-1.858 2.0823-.391.0046-.765-.1627-1.023-.4578-.335-.3902-.506-.8955-.476-1.4091 0-.1167 0-.2423 0-.3859.153-1.2476.898-2.0644 1.912-2.0644z"/><path d="m128.664 58.2593v.1705c.099.0408.155.1461.134.2513l-.422 4.4877c-.017.1194-.095.2211-.206.2693v.1705h3.258l.269-.8975-.152-.0718c-.251.3949-.476.4039-1.311.4398h-.7-.063c0-.1616.422-4.3082.422-4.3082.004-.1167.073-.2213.18-.2693v-.1705z"/><path d="m133.232 58.2593v.1705c.104.0411.165.1503.144.2603l-.44 4.4877c-.011.1195-.087.2231-.197.2693v.1705h3.267l.269-.8975-.153-.0718c-.26.4039-.484.4039-1.319.4398h-.7-.054c0-.1616.413-4.3082.413-4.3082.009-.1174.081-.2206.188-.2693v-.1705z"/><path d="m140.861 58.2593h-3.06v.1705c.099.0422.161.1434.152.2513l-.439 4.4877c0 .1347-.081.1975-.216.2693l-.278.1705h3.662l.251-.8975-.143-.0808c-.288.4219-.548.4308-1.14.4488h-.09c-.299.022-.599.022-.898 0 0-.1436.189-1.9297.198-2.0644h1.077c.078.0171.14.0758.161.1526h.171l.081-.8078h-.171c-.043.0844-.122.144-.215.1616h-1.05c0-.1526.134-1.4451.152-1.5797h1.212c.278 0 .395.0718.494.2334l.143.2333.063-1.0321z"/><path d="m141.974 60.952c-.075.6808.14 1.3619.593 1.8759.547.5749 1.306.8994 2.1.8976.835-.0248 1.656-.2171 2.414-.5655l.108-.0539-.09-.0807c-.048-.0675-.071-.1505-.062-.2334l.107-1.1309c.012-.1234.087-.232.198-.2872l.278-.1616h-2.055l.26.1616c.078.0431.127.1259.126.2154v.0538l-.117 1.2746c-.277.1443-.585.2183-.898.2154-.496.03-.98-.1566-1.328-.5116-.378-.4894-.543-1.1107-.458-1.7233.039-1.1665.996-2.0919 2.163-2.0913.704-.0102 1.326.4538 1.517 1.1309h.162l.072-1.2655h-.054c-.563-.2616-1.175-.3993-1.795-.4039-1.604-.0551-2.996 1.0976-3.241 2.6836z"/><path d="m151.847 58.2593h-3.069v.1705c.11.0345.176.1472.152.2603l-.43 4.4877c-.016.1229-.099.2268-.216.2693l-.296.1705h3.671l.26-.8975-.143-.0808c-.297.4218-.548.4308-1.149.4488h-.09c-.299.0171-.599.0171-.898 0 0-.1436.189-1.9298.207-2.0644h1.104c.08.0159.146.0744.17.1526h.162l.081-.8078h-.162c-.046.0811-.124.1395-.215.1616h-1.05c0-.1526.134-1.4451.152-1.5797h1.203c.278 0 .404.0718.503.2333l.143.2244.063-1.0232z"/></g></svg>