<svg width="200" height="100" viewBox="0 0 200 100" fill="none" xmlns="http://www.w3.org/2000/svg">
<path d="M73.2904 41.3496C73.2904 43.0035 73.3181 43.7519 73.3643 44.1215C73.4659 44.8237 73.8078 44.99 74.5562 45.1194C74.704 45.1471 74.7779 45.2949 74.7779 45.4335C74.7779 45.5814 74.704 45.72 74.5562 45.72H69.807C69.6591 45.72 69.5852 45.5814 69.5852 45.4335C69.5852 45.2857 69.6591 45.1471 69.8255 45.1194C70.657 44.9993 70.925 44.8514 70.9897 44.1215C71.0174 43.7611 71.0636 43.0774 71.0636 41.3311V40.5549H65.9632V41.3496C65.9632 43.0035 65.991 43.7519 66.0372 44.1215C66.1388 44.8237 66.4807 44.99 67.2291 45.1194C67.3769 45.1471 67.4508 45.2949 67.4508 45.4335C67.4508 45.5814 67.3769 45.72 67.2291 45.72H62.4706C62.3228 45.72 62.2489 45.5814 62.2489 45.4335C62.2489 45.2857 62.3228 45.1471 62.4891 45.1194C63.3207 44.9993 63.5886 44.8514 63.6533 44.1215C63.681 43.7611 63.7272 43.0774 63.7272 41.3311V39.1782C63.7272 37.4319 63.681 36.6003 63.6533 36.2585C63.5979 35.5008 63.3854 35.3899 62.563 35.2698C62.3967 35.2513 62.3228 35.1035 62.3228 34.9557C62.3228 34.8078 62.3967 34.6692 62.5445 34.6692H67.0443C67.1921 34.6692 67.266 34.8078 67.266 34.9557C67.266 35.0943 67.1921 35.2421 67.0443 35.2698C66.3606 35.3899 66.1388 35.5378 66.0279 36.2585C65.9817 36.6188 65.954 37.4966 65.954 39.1505V39.5386H71.0543V39.1782C71.0543 37.4319 71.0081 36.6003 70.9804 36.2585C70.925 35.5008 70.7125 35.3899 69.8901 35.2698C69.7238 35.2513 69.6499 35.1035 69.6499 34.9557C69.6499 34.8078 69.7238 34.6692 69.8717 34.6692H74.3714C74.5192 34.6692 74.5932 34.8078 74.5932 34.9557C74.5932 35.0943 74.5192 35.2421 74.3714 35.2698C73.6877 35.3899 73.4659 35.5378 73.355 36.2585C73.3088 36.6188 73.2811 37.4966 73.2811 39.1505L73.2904 41.3496ZM81.8648 43.4839C82.0034 43.4839 82.1051 43.5763 82.1051 43.7242C82.1051 44.6666 80.8207 45.8585 78.9913 45.8585C76.9308 45.8585 75.5448 44.5742 75.5448 42.4121C75.5448 39.6864 77.171 37.9493 79.5826 37.9493C80.7283 37.9493 82.3083 38.6516 82.3083 40.8876C82.3083 41.3773 82.0681 41.5159 81.5137 41.5436L77.6053 41.7191C77.6238 43.3453 78.4276 44.297 79.7859 44.297C81.2365 44.3063 81.4952 43.4839 81.8648 43.4839ZM77.6885 40.98L79.7027 40.8137C80.0631 40.7859 80.1832 40.6381 80.1832 40.2593C80.1832 39.2429 79.7951 38.7347 79.1945 38.7347C78.4092 38.744 77.7809 39.7696 77.6885 40.98ZM85.6531 40.6104C85.4036 40.7028 85.1726 40.7305 84.9786 40.7305C84.2025 40.7305 83.8606 40.1484 83.8606 39.594C83.8606 38.4945 84.9509 37.9493 86.8543 37.9493C88.9979 37.9493 89.9219 38.9195 89.9219 40.4256C89.9219 40.8691 89.848 41.9317 89.848 42.754C89.848 44.2416 89.8757 44.796 90.6241 44.796C90.6795 44.796 90.7627 44.7775 90.8736 44.7775C91.0214 44.7775 91.0953 44.8976 91.0953 44.99C91.0953 45.4335 90.005 45.8678 89.2289 45.8678C88.4343 45.8678 87.8244 45.5259 87.6674 45.1101C86.8728 45.6645 86.1336 45.8678 85.5053 45.8678C84.2856 45.8678 83.491 45.0362 83.491 44.0291C83.491 41.9594 85.3297 41.6452 87.6859 41.6452V40.6935C87.6859 39.4739 87.4918 38.7255 86.614 38.7255C85.6716 38.7255 85.6531 39.8897 85.6531 40.6104ZM86.8912 44.5742C87.113 44.5742 87.3717 44.528 87.6212 44.4541C87.6489 44.0938 87.6951 43.5301 87.6951 42.8279V42.3844C86.2906 42.4306 85.7455 42.791 85.7455 43.6687C85.7455 44.2601 86.2075 44.5742 86.8912 44.5742ZM95.438 34.1241C95.438 34.5676 95.3825 35.4823 95.3825 37.0808V44.1492C95.3825 44.9531 95.4842 45.0455 96.3804 45.1748C96.5283 45.1933 96.6022 45.3226 96.6022 45.4612C96.6022 45.5998 96.5283 45.7292 96.3527 45.7292H91.9731C91.7975 45.7292 91.7051 45.5906 91.7051 45.4612C91.7051 45.3226 91.7791 45.2118 91.9269 45.1933C92.6014 45.1194 93.1927 44.9993 93.1927 43.3176V37.09C93.1927 35.4916 93.1465 34.5861 92.241 34.5861H91.9269C91.7883 34.5861 91.7144 34.4475 91.7144 34.3181C91.7144 34.198 91.7698 34.0687 91.9269 34.0225C92.4443 33.8746 94.5972 33.505 94.9575 33.505C95.2255 33.4958 95.438 33.6713 95.438 34.1241ZM100.28 43.0681C100.28 44.0568 100.797 44.4818 101.536 44.4818C102.266 44.4818 102.432 44.1954 102.673 44.1954C102.774 44.1954 102.848 44.2416 102.848 44.371C102.848 45.0547 101.61 45.8585 100.224 45.8585C98.9676 45.8585 98.0159 45.2949 98.0159 43.835C98.0159 42.5784 98.1083 40.1207 98.1083 38.901H97.2859C97.0734 38.901 96.9163 38.7994 96.9163 38.5869C96.9163 38.2542 97.4522 38.1526 98.3208 37.4227C99.2632 36.6281 99.5866 36.2492 99.947 36.2492C100.187 36.2492 100.289 36.3971 100.289 36.6835V38.1434C101.065 38.1434 101.749 38.0417 102.137 38.0417C102.432 38.0417 102.58 38.2912 102.58 38.5222C102.58 38.7162 102.442 38.938 102.1 38.938H100.28V43.0681ZM107.422 38.8826C108.133 38.4021 108.946 37.9586 109.926 37.9586C110.905 37.9586 112.014 38.5407 112.014 40.481V44.1492C112.014 44.9531 112.116 45.0455 113.012 45.1748C113.16 45.1933 113.234 45.3226 113.234 45.4612C113.234 45.5998 113.16 45.7292 112.984 45.7292H109.02C108.845 45.7292 108.752 45.5906 108.752 45.4612C108.752 45.3226 108.826 45.2118 108.974 45.1933C109.649 45.1194 109.797 44.9253 109.797 42.9111V40.8968C109.797 40.0283 109.455 39.5571 108.752 39.5571C108.235 39.5571 107.533 39.7973 106.932 40.1114V44.1492C106.932 44.9531 107.034 45.0455 107.93 45.1748C108.078 45.1933 108.152 45.3226 108.152 45.4612C108.152 45.5998 108.078 45.7292 107.902 45.7292H103.523C103.347 45.7292 103.255 45.5906 103.255 45.4612C103.255 45.3226 103.329 45.2118 103.477 45.1933C104.151 45.1194 104.742 44.9993 104.742 43.3176V37.09C104.742 35.4916 104.696 34.5861 103.791 34.5861H103.477C103.338 34.5861 103.264 34.4475 103.264 34.3181C103.264 34.198 103.319 34.0687 103.477 34.0225C103.994 33.8746 106.147 33.505 106.507 33.505C106.794 33.505 106.997 33.6806 106.997 34.1333C106.997 34.5768 106.941 35.4916 106.941 37.09V39.2244L107.422 38.8826ZM118.103 44.3063C119.554 44.3063 119.803 43.4839 120.173 43.4839C120.311 43.4839 120.413 43.5763 120.413 43.7242C120.413 44.6666 119.129 45.8585 117.299 45.8585C115.239 45.8585 113.853 44.5465 113.853 42.3844C113.853 39.4739 115.627 37.9586 117.964 37.9586C118.953 37.9586 120.459 38.2912 120.459 39.6125C120.459 40.4348 119.757 40.8506 118.833 40.8506C118.787 39.8989 118.537 38.7809 117.539 38.7809C116.477 38.7809 115.932 39.9451 115.932 41.5528C115.922 43.4377 116.791 44.3063 118.103 44.3063ZM123.795 40.6104C123.545 40.7028 123.314 40.7305 123.12 40.7305C122.344 40.7305 122.002 40.1484 122.002 39.594C122.002 38.4945 123.092 37.9493 124.996 37.9493C127.14 37.9493 128.063 38.9195 128.063 40.4256C128.063 40.8691 127.99 41.9317 127.99 42.754C127.99 44.2416 128.017 44.796 128.766 44.796C128.821 44.796 128.904 44.7775 129.015 44.7775C129.163 44.7775 129.237 44.8976 129.237 44.99C129.237 45.4335 128.147 45.8678 127.37 45.8678C126.576 45.8678 125.966 45.5259 125.809 45.1101C125.014 45.6645 124.275 45.8678 123.647 45.8678C122.427 45.8678 121.633 45.0362 121.633 44.0291C121.633 41.9594 123.471 41.6452 125.827 41.6452V40.6935C125.827 39.4739 125.633 38.7255 124.756 38.7255C123.813 38.7255 123.795 39.8897 123.795 40.6104ZM125.033 44.5742C125.255 44.5742 125.513 44.528 125.763 44.4541C125.79 44.0938 125.837 43.5301 125.837 42.8279V42.3844C124.432 42.4306 123.887 42.791 123.887 43.6687C123.887 44.2601 124.349 44.5742 125.033 44.5742ZM130.152 39.0304C129.976 39.0304 129.902 38.8918 129.902 38.7624C129.902 38.6423 129.958 38.513 130.115 38.4668C130.632 38.3189 132.665 38.1064 132.877 38.1064C133.358 38.1064 133.487 38.9749 133.487 40.0468L133.58 40.0745C134.236 38.3559 134.919 37.9586 135.686 37.9586C136.462 37.9586 136.952 38.4668 136.952 39.2429C136.952 40.1392 136.074 40.5365 135.862 40.5365C135.714 40.0745 135.446 39.8804 134.966 39.8804C134.43 39.8804 133.533 40.481 133.533 42.2551C133.533 43.4193 133.533 43.7888 133.607 44.1492C133.755 44.9253 134.633 45.0455 135.529 45.1748C135.677 45.1933 135.751 45.3226 135.751 45.4612C135.751 45.5998 135.677 45.7292 135.501 45.7292H130.281C130.105 45.7292 130.013 45.5906 130.013 45.4612C130.013 45.3226 130.087 45.2118 130.235 45.1933C130.909 45.1194 131.501 44.9993 131.501 43.3176V41.6914C131.501 40.093 131.288 39.0396 130.383 39.0396H130.152V39.0304ZM144.076 43.4839C144.215 43.4839 144.316 43.5763 144.316 43.7242C144.316 44.6666 143.032 45.8585 141.202 45.8585C139.142 45.8585 137.756 44.5742 137.756 42.4121C137.756 39.6864 139.382 37.9493 141.794 37.9493C142.939 37.9493 144.519 38.6516 144.519 40.8876C144.519 41.3773 144.279 41.5159 143.725 41.5436L139.816 41.7191C139.835 43.3453 140.639 44.297 141.997 44.297C143.448 44.3063 143.706 43.4839 144.076 43.4839ZM139.9 40.98L141.914 40.8137C142.274 40.7859 142.394 40.6381 142.394 40.2593C142.394 39.2429 142.006 38.7347 141.406 38.7347C140.62 38.744 139.992 39.7696 139.9 40.98ZM73.2904 56.05C73.2904 57.7039 73.3181 58.4523 73.3643 58.8219C73.4659 59.5241 73.8078 59.6904 74.5562 59.8198C74.704 59.8475 74.7779 59.9953 74.7779 60.1339C74.7779 60.2818 74.704 60.4204 74.5562 60.4204H69.807C69.6591 60.4204 69.5852 60.2818 69.5852 60.1339C69.5852 59.9861 69.6591 59.8475 69.8255 59.8198C70.657 59.6997 70.925 59.5518 70.9897 58.8219C71.0174 58.4615 71.0636 57.7778 71.0636 56.0315V55.2554H65.9632V56.05C65.9632 57.7039 65.991 58.4523 66.0372 58.8219C66.1388 59.5241 66.4807 59.6904 67.2291 59.8198C67.3769 59.8475 67.4508 59.9953 67.4508 60.1339C67.4508 60.2818 67.3769 60.4204 67.2291 60.4204H62.4706C62.3228 60.4204 62.2489 60.2818 62.2489 60.1339C62.2489 59.9861 62.3228 59.8475 62.4891 59.8198C63.3207 59.6997 63.5886 59.5518 63.6533 58.8219C63.681 58.4615 63.7272 57.7778 63.7272 56.0315V53.8694C63.7272 52.1231 63.681 51.2915 63.6533 50.9496C63.5979 50.192 63.3854 50.0811 62.563 49.961C62.3967 49.9425 62.3228 49.7947 62.3228 49.6468C62.3228 49.499 62.3967 49.3604 62.5445 49.3604H67.0443C67.1921 49.3604 67.266 49.499 67.266 49.6468C67.266 49.7854 67.1921 49.9333 67.0443 49.961C66.3606 50.0811 66.1388 50.2289 66.0279 50.9496C65.9817 51.31 65.954 52.1878 65.954 53.8417V54.2297H71.0543V53.8694C71.0543 52.1231 71.0081 51.2915 70.9804 50.9496C70.925 50.192 70.7125 50.0811 69.8901 49.961C69.7238 49.9425 69.6499 49.7947 69.6499 49.6468C69.6499 49.499 69.7238 49.3604 69.8717 49.3604H74.3714C74.5192 49.3604 74.5932 49.499 74.5932 49.6468C74.5932 49.7854 74.5192 49.9333 74.3714 49.961C73.6877 50.0811 73.4659 50.2289 73.355 50.9496C73.3088 51.31 73.2811 52.1878 73.2811 53.8417L73.2904 56.05ZM78.9266 60.5682C77.476 60.5682 76.6444 59.7736 76.6444 58.6741C76.6444 58.1843 76.6721 57.7224 76.6721 57.2604V56.3826C76.6721 54.7841 76.6721 53.7308 75.6095 53.7308H75.2954C75.1568 53.7308 75.0829 53.5922 75.0829 53.4628C75.0829 53.3427 75.1383 53.2134 75.2954 53.1672C75.8128 53.0193 78.095 52.8068 78.4554 52.8068C78.7418 52.8068 78.9451 52.9824 78.9451 53.4351C78.9451 53.8786 78.8896 55.1168 78.8896 56.7152C78.8896 58.4338 79.0375 59.404 80.0354 59.404C80.5251 59.404 80.9593 59.3024 81.3751 59.0436C81.4028 58.6833 81.4306 57.4821 81.4306 56.6321V56.2163C81.4306 54.6178 81.3844 53.74 80.331 53.74H80.0816C79.8875 53.74 79.8136 53.6014 79.8136 53.4721C79.8136 53.352 79.869 53.2226 80.0261 53.1764C80.5435 53.0286 82.8258 52.8161 83.1861 52.8161C83.4725 52.8161 83.6758 52.9916 83.6758 53.4444C83.6758 53.8879 83.6204 55.126 83.6204 56.7245V57.4729C83.6204 58.9605 83.6481 59.5149 84.3965 59.5149C84.452 59.5149 84.5351 59.4964 84.646 59.4964C84.7938 59.4964 84.8677 59.6165 84.8677 59.7089C84.8677 60.1524 83.7774 60.5867 83.0013 60.5867C82.2067 60.5867 81.5969 60.2448 81.4398 59.829C80.6729 60.3372 79.675 60.5682 78.9266 60.5682ZM94.5972 53.4998C95.2809 52.9916 96.0293 52.6497 96.9533 52.6497C97.9697 52.6497 98.8659 53.2134 98.8659 55.0798V58.8404C98.8659 59.6442 98.9676 59.7366 99.8638 59.866C100.012 59.8845 100.086 60.0138 100.086 60.1524C100.086 60.291 100.012 60.4204 99.8361 60.4204H95.8723C95.6967 60.4204 95.6043 60.2818 95.6043 60.1524C95.6043 60.0138 95.6782 59.9029 95.826 59.8845C96.5005 59.8105 96.6484 59.6165 96.6484 57.6022V55.588C96.6484 54.7194 96.3065 54.2482 95.6043 54.2482C95.0869 54.2482 94.6803 54.4423 94.0797 54.8026V58.8404C94.0797 59.6442 94.2461 59.7366 94.782 59.866C94.9298 59.8937 95.0037 60.0323 95.0037 60.1617C95.0037 60.3002 94.9298 60.4111 94.7542 60.4111H91.0861C90.9105 60.4111 90.8181 60.2725 90.8181 60.1432C90.8181 60.0046 90.892 59.8937 91.0399 59.8752C91.7144 59.8013 91.8622 59.6073 91.8622 57.593V55.5787C91.8622 54.7102 91.5203 54.239 90.8181 54.239C90.3007 54.239 89.9865 54.4607 89.2936 54.7934V58.8311C89.2936 59.635 89.4599 59.7274 89.9958 59.8567C90.1436 59.8845 90.2175 60.0231 90.2175 60.1524C90.2175 60.291 90.1436 60.4019 89.9681 60.4019H85.8841C85.7085 60.4019 85.6161 60.2633 85.6161 60.1339C85.6161 59.9953 85.6901 59.8845 85.8379 59.866C86.5124 59.7921 87.1038 59.6719 87.1038 57.9903V56.3641C87.1038 54.7656 87.0483 53.7123 86.1336 53.7123H85.8194C85.6808 53.7123 85.6069 53.5737 85.6069 53.4444C85.6069 53.3242 85.6623 53.1949 85.8194 53.1487C86.3369 53.0009 88.2772 52.7883 88.6375 52.7883C89.118 52.7883 89.2751 53.121 89.2936 53.8879L89.8018 53.5275C90.504 53.0378 91.2524 52.6313 92.1764 52.6313C92.934 52.6313 93.6362 53.0378 93.9319 53.971L94.5972 53.4998ZM103.144 55.3016C102.894 55.3939 102.663 55.4217 102.469 55.4217C101.693 55.4217 101.351 54.8396 101.351 54.2852C101.351 53.1857 102.442 52.6405 104.345 52.6405C106.489 52.6405 107.413 53.6107 107.413 55.1168C107.413 55.5603 107.339 56.6228 107.339 57.4452C107.339 58.9328 107.366 59.4872 108.115 59.4872C108.17 59.4872 108.253 59.4687 108.364 59.4687C108.512 59.4687 108.586 59.5888 108.586 59.6812C108.586 60.1247 107.496 60.559 106.72 60.559C105.925 60.559 105.315 60.2171 105.158 59.8013C104.364 60.3557 103.624 60.559 102.996 60.559C101.776 60.559 100.982 59.7274 100.982 58.7203C100.982 56.6506 102.821 56.3364 105.177 56.3364V55.3847C105.177 54.1651 104.983 53.4166 104.105 53.4166C103.162 53.4259 103.144 54.5809 103.144 55.3016ZM104.382 59.2654C104.604 59.2654 104.863 59.2192 105.112 59.1453C105.14 58.7849 105.186 58.2213 105.186 57.5191V57.0756C103.781 57.1218 103.236 57.4821 103.236 58.3599C103.236 58.9512 103.698 59.2654 104.382 59.2654ZM111.044 56.3734C111.044 54.7749 110.988 53.7216 110.074 53.7216H109.824C109.658 53.7216 109.575 53.583 109.575 53.4351C109.575 53.315 109.63 53.1949 109.769 53.1487C110.286 53.0009 112.227 52.7883 112.587 52.7883C113.067 52.7883 113.224 53.121 113.243 53.8879L113.733 53.5552C114.444 53.0748 115.257 52.6313 116.237 52.6313C117.225 52.6313 118.325 53.2134 118.325 55.1537V58.8219C118.325 59.6257 118.426 59.7181 119.323 59.8475C119.471 59.866 119.544 59.9953 119.544 60.1339C119.544 60.2725 119.471 60.4019 119.295 60.4019H115.331C115.156 60.4019 115.063 60.2633 115.063 60.1339C115.063 59.9953 115.137 59.8845 115.285 59.866C115.959 59.7921 116.107 59.598 116.107 57.5838V55.5695C116.107 54.701 115.765 54.2297 115.063 54.2297C114.546 54.2297 113.844 54.47 113.243 54.7841V58.8219C113.243 59.6257 113.345 59.7181 114.241 59.8475C114.389 59.866 114.463 59.9953 114.463 60.1339C114.463 60.2725 114.389 60.4019 114.213 60.4019H109.833C109.658 60.4019 109.566 60.2633 109.566 60.1339C109.566 59.9953 109.639 59.8845 109.787 59.866C110.462 59.7921 111.053 59.6719 111.053 57.9903L111.044 56.3734ZM128.045 56.0315C128.045 57.6854 128.063 58.4338 128.119 58.8496C128.211 59.4779 128.756 59.6257 129.921 59.8198C130.068 59.8383 130.142 59.9861 130.142 60.1339C130.142 60.2818 130.068 60.4204 129.921 60.4204H124.571C124.423 60.4204 124.349 60.2818 124.349 60.1339C124.349 59.9861 124.423 59.8475 124.589 59.8198C125.421 59.6997 125.689 59.5518 125.754 58.8219C125.781 58.4615 125.827 57.7778 125.827 56.0315V53.9248C125.827 52.1785 125.781 51.3469 125.754 51.0051C125.698 50.2474 125.486 50.0811 124.663 49.961C124.497 49.9333 124.423 49.767 124.423 49.6191C124.423 49.4805 124.478 49.3696 124.617 49.3696H132.434C132.72 49.3696 132.914 49.4436 132.914 49.7023V52.0399C132.914 52.2062 132.794 52.2802 132.674 52.2802C132.536 52.2802 132.406 52.1878 132.341 52.0122C132.009 50.8665 131.371 50.2936 129.958 50.2936H128.812C128.59 50.2936 128.258 50.3213 128.054 50.4322V54.202C128.322 54.2297 128.664 54.2482 128.978 54.2482C129.874 54.2482 130.826 54.2482 130.974 53.0655C131.002 52.853 131.196 52.7514 131.381 52.7514C131.528 52.7514 131.667 52.8253 131.667 53.0471C131.667 53.3797 131.575 53.8232 131.575 54.7472C131.575 55.4956 131.667 55.7358 131.667 56.1793C131.667 56.4011 131.519 56.4935 131.353 56.4935C131.187 56.4935 131.02 56.4011 130.983 56.207C130.789 55.163 129.893 55.1168 129.034 55.1168C128.673 55.1168 128.378 55.1168 128.063 55.1445V56.0315H128.045ZM135.132 55.3016C134.882 55.3939 134.651 55.4217 134.457 55.4217C133.681 55.4217 133.339 54.8396 133.339 54.2852C133.339 53.1857 134.43 52.6405 136.333 52.6405C138.477 52.6405 139.401 53.6107 139.401 55.1168C139.401 55.5603 139.327 56.6228 139.327 57.4452C139.327 58.9328 139.354 59.4872 140.103 59.4872C140.158 59.4872 140.241 59.4687 140.352 59.4687C140.5 59.4687 140.574 59.5888 140.574 59.6812C140.574 60.1247 139.484 60.559 138.708 60.559C137.913 60.559 137.303 60.2171 137.146 59.8013C136.352 60.3557 135.612 60.559 134.984 60.559C133.764 60.559 132.97 59.7274 132.97 58.7203C132.97 56.6506 134.808 56.3364 137.165 56.3364V55.3847C137.165 54.1651 136.971 53.4166 136.093 53.4166C135.141 53.4259 135.132 54.5809 135.132 55.3016ZM136.37 59.2654C136.592 59.2654 136.85 59.2192 137.1 59.1453C137.128 58.7849 137.174 58.2213 137.174 57.5191V57.0756C135.769 57.1218 135.224 57.4821 135.224 58.3599C135.215 58.9512 135.677 59.2654 136.37 59.2654ZM145.175 58.9974C146.626 58.9974 146.876 58.1751 147.245 58.1751C147.384 58.1751 147.485 58.2675 147.485 58.4153C147.485 59.3578 146.201 60.5497 144.372 60.5497C142.311 60.5497 140.925 59.2377 140.925 57.0756C140.925 54.1651 142.699 52.6497 145.037 52.6497C146.026 52.6497 147.532 52.9824 147.532 54.3037C147.532 55.126 146.829 55.5418 145.905 55.5418C145.859 54.5901 145.61 53.4721 144.612 53.4721C143.549 53.4721 143.004 54.6363 143.004 56.244C143.004 58.1381 143.863 58.9974 145.175 58.9974ZM151.357 57.7593C151.357 58.748 151.874 59.173 152.613 59.173C153.343 59.173 153.51 58.8866 153.75 58.8866C153.852 58.8866 153.925 58.9328 153.925 59.0621C153.925 59.7459 152.687 60.5497 151.301 60.5497C150.045 60.5497 149.093 59.9861 149.093 58.5262C149.093 57.2696 149.186 54.8118 149.186 53.5922H148.363C148.151 53.5922 147.994 53.4906 147.994 53.2781C147.994 52.9454 148.529 52.8438 149.398 52.1138C150.34 51.3192 150.664 50.9312 151.024 50.9312C151.264 50.9312 151.366 51.079 151.366 51.3654V52.8253C152.142 52.8253 152.826 52.7237 153.214 52.7237C153.51 52.7237 153.658 52.9731 153.658 53.2041C153.658 53.3982 153.519 53.6199 153.177 53.6199H151.357V57.7593ZM154.23 56.8815C154.23 53.8417 156.226 52.6497 158.407 52.6497C160.615 52.6497 162.149 54.0357 162.149 56.3456C162.149 59.2654 160.282 60.5682 157.945 60.5682C155.69 60.5682 154.23 59.1915 154.23 56.8815ZM159.691 56.7892C159.691 54.5254 159.257 53.4813 158.111 53.4813C157.012 53.4813 156.651 54.664 156.651 56.4011C156.651 58.8588 157.187 59.7828 158.296 59.7828C159.377 59.7921 159.691 58.5355 159.691 56.7892ZM162.703 53.7216C162.528 53.7216 162.454 53.583 162.454 53.4536C162.454 53.3335 162.509 53.2041 162.666 53.1579C163.184 53.0101 165.216 52.7976 165.429 52.7976C165.909 52.7976 166.039 53.6661 166.039 54.7379L166.131 54.7656C166.787 53.0471 167.471 52.6497 168.238 52.6497C169.014 52.6497 169.504 53.1579 169.504 53.9341C169.504 54.8303 168.626 55.2276 168.413 55.2276C168.266 54.7656 167.998 54.5716 167.517 54.5716C166.981 54.5716 166.085 55.1722 166.085 56.9462C166.085 58.1104 166.085 58.48 166.159 58.8404C166.307 59.6165 167.184 59.7366 168.081 59.866C168.229 59.8845 168.302 60.0138 168.302 60.1524C168.302 60.291 168.229 60.4204 168.053 60.4204H162.833C162.657 60.4204 162.565 60.2818 162.565 60.1524C162.565 60.0138 162.639 59.9029 162.786 59.8845C163.461 59.8105 164.052 59.6904 164.052 58.0088V56.3826C164.052 54.7841 163.84 53.7308 162.934 53.7308H162.703V53.7216ZM175.565 53.8509C175.565 54.6733 174.743 54.9504 173.966 54.9504C173.92 54.1189 173.772 53.4444 172.83 53.4444C172.313 53.4444 171.934 53.7123 171.934 54.1189C171.934 54.7749 172.978 55.3016 173.994 55.9391C174.964 56.5489 175.861 57.2789 175.861 58.3507C175.861 59.9769 174.336 60.559 172.627 60.559C171.074 60.559 169.929 60.1894 169.929 59.0991C169.929 58.0735 171.074 58.0273 171.703 58.0273C171.703 58.5447 171.721 59.7736 173.135 59.7736C173.689 59.7736 174.087 59.5795 174.087 59.1453C174.087 58.4708 173.061 58.055 172.063 57.4452C171.093 56.8631 170.197 56.1054 170.197 54.8026C170.197 53.1487 171.915 52.6405 173.347 52.6405C174.391 52.6497 175.565 52.9269 175.565 53.8509ZM177.108 53.0009C177.108 52.8715 177.126 52.7421 177.163 52.622C177.2 52.5019 177.247 52.3818 177.311 52.2802C177.376 52.1693 177.45 52.0769 177.533 51.9845C177.625 51.8921 177.718 51.8182 177.829 51.7627C177.94 51.6981 178.05 51.6519 178.171 51.6149C178.291 51.5779 178.42 51.5595 178.549 51.5595C178.679 51.5595 178.808 51.5779 178.937 51.6149C179.058 51.6519 179.178 51.6981 179.279 51.7627C179.39 51.8274 179.483 51.9013 179.575 51.9845C179.667 52.0769 179.741 52.1693 179.797 52.2802C179.861 52.391 179.908 52.5019 179.945 52.622C179.982 52.7421 180 52.8715 180 53.0009C180 53.1302 179.982 53.2596 179.945 53.3797C179.908 53.4998 179.861 53.6199 179.797 53.7216C179.732 53.8232 179.658 53.9248 179.575 54.008C179.483 54.1004 179.39 54.1743 179.279 54.2297C179.168 54.2944 179.058 54.3406 178.937 54.3776C178.817 54.4145 178.688 54.433 178.549 54.433C178.411 54.433 178.291 54.4145 178.171 54.3776C178.05 54.3406 177.93 54.2944 177.829 54.2297C177.718 54.1651 177.625 54.0911 177.533 54.008C177.441 53.9156 177.367 53.8232 177.311 53.7216C177.247 53.6199 177.2 53.4998 177.163 53.3797C177.117 53.2688 177.108 53.1395 177.108 53.0009ZM177.367 53.0009C177.367 53.1672 177.394 53.3243 177.459 53.4721C177.524 53.6199 177.607 53.7493 177.709 53.8509C177.81 53.9618 177.94 54.0449 178.078 54.1096C178.217 54.1743 178.374 54.202 178.54 54.202C178.706 54.202 178.864 54.1743 179.002 54.1096C179.15 54.0449 179.27 53.9618 179.381 53.8509C179.492 53.74 179.575 53.6107 179.63 53.4721C179.695 53.3243 179.723 53.1672 179.723 53.0009C179.723 52.89 179.704 52.7791 179.677 52.6775C179.649 52.5758 179.612 52.4742 179.556 52.3818C179.51 52.2894 179.446 52.2062 179.372 52.1323C179.298 52.0584 179.224 51.9937 179.131 51.9475C179.048 51.8921 178.947 51.8551 178.845 51.8274C178.743 51.7997 178.642 51.7812 178.531 51.7812C178.42 51.7812 178.318 51.7997 178.217 51.8274C178.115 51.8551 178.023 51.8921 177.93 51.9475C177.847 52.003 177.764 52.0676 177.69 52.1323C177.616 52.2062 177.561 52.2894 177.505 52.3818C177.459 52.4742 177.413 52.5666 177.385 52.6775C177.385 52.7791 177.367 52.89 177.367 53.0009ZM178.328 53.2411V53.8786H177.912V52.1323H178.54C178.78 52.1323 178.965 52.1785 179.076 52.2617C179.187 52.3448 179.242 52.4742 179.242 52.6405C179.242 52.7606 179.215 52.853 179.15 52.9454C179.094 53.0286 178.993 53.0933 178.873 53.1395C178.9 53.1579 178.928 53.1764 178.947 53.2041C178.965 53.2319 178.984 53.2596 179.002 53.2965L179.353 53.8971H178.947C178.891 53.8971 178.845 53.8786 178.827 53.8324L178.549 53.315C178.54 53.2965 178.522 53.2873 178.503 53.2688C178.485 53.2596 178.466 53.2503 178.429 53.2503H178.328V53.2411ZM178.328 52.9454H178.503C178.568 52.9454 178.623 52.9362 178.669 52.9269C178.716 52.9177 178.743 52.8992 178.771 52.8807C178.799 52.8623 178.808 52.8345 178.817 52.7976C178.827 52.7606 178.827 52.7237 178.827 52.6867C178.827 52.6497 178.827 52.6128 178.817 52.5758C178.808 52.5481 178.799 52.5204 178.771 52.5019C178.753 52.4834 178.716 52.465 178.679 52.4557C178.642 52.4465 178.596 52.4372 178.531 52.4372H178.318L178.328 52.9454ZM67.3862 69.3644H66.8595C66.8041 69.3644 66.7486 69.3459 66.7117 69.3182C66.6747 69.2905 66.647 69.2535 66.6285 69.2073L66.3513 68.4497H64.8175L64.5403 69.2073C64.5311 69.2443 64.5034 69.2813 64.4572 69.3182C64.4202 69.3552 64.3648 69.3644 64.3093 69.3644H63.7734L65.2241 65.6685H65.9263L67.3862 69.3644ZM65.0023 67.9692H66.1758L65.723 66.7403C65.7045 66.6849 65.6768 66.6202 65.6583 66.5463C65.6306 66.4724 65.6121 66.3892 65.5844 66.3061C65.5567 66.3892 65.5382 66.4724 65.5105 66.5463C65.492 66.6202 65.4643 66.6849 65.4458 66.7403L65.0023 67.9692ZM70.7956 68.0616V69.3644H70.1119V65.6685H71.313C71.5625 65.6685 71.775 65.6963 71.9506 65.7517C72.1354 65.8071 72.2832 65.8903 72.3941 65.9919C72.5142 66.0936 72.5974 66.2229 72.6528 66.3615C72.7082 66.5093 72.736 66.6664 72.736 66.8327C72.736 67.0083 72.7082 67.1746 72.6436 67.3224C72.5881 67.4703 72.4957 67.5996 72.3756 67.7105C72.2555 67.8214 72.1077 67.9045 71.9321 67.96C71.7566 68.0154 71.544 68.0524 71.3038 68.0524L70.7956 68.0616ZM70.7956 67.5257H71.313C71.4424 67.5257 71.5533 67.5072 71.6457 67.4795C71.7381 67.4518 71.8212 67.4056 71.8767 67.3409C71.9414 67.2855 71.9876 67.2116 72.0153 67.1284C72.043 67.0452 72.0615 66.9529 72.0615 66.842C72.0615 66.7403 72.043 66.6572 72.0153 66.574C71.9876 66.4909 71.9414 66.4262 71.8767 66.3708C71.812 66.3153 71.7381 66.2691 71.6457 66.2414C71.5533 66.2137 71.4424 66.1952 71.313 66.1952H70.7956V67.5257ZM74.3529 67.923V69.3644H73.6692V65.6685H74.7964C75.0459 65.6685 75.2677 65.6963 75.4432 65.7425C75.6188 65.7979 75.7666 65.8626 75.8867 65.9642C75.9976 66.0566 76.09 66.1675 76.1362 66.2968C76.1916 66.4262 76.2193 66.574 76.2193 66.7311C76.2193 66.8512 76.2009 66.9713 76.1639 67.0822C76.1269 67.1931 76.0715 67.2947 76.0068 67.3871C75.9422 67.4795 75.8498 67.5534 75.7481 67.6274C75.6465 67.692 75.5356 67.7475 75.4062 67.7937C75.4894 67.8399 75.5726 67.9138 75.628 68.0062L76.552 69.3737H75.9329C75.8775 69.3737 75.822 69.3644 75.7851 69.3367C75.7389 69.309 75.7112 69.2813 75.6834 69.2351L74.9073 68.0524C74.8796 68.0062 74.8426 67.9785 74.8149 67.96C74.778 67.9415 74.7318 67.9323 74.6578 67.9323L74.3529 67.923ZM74.3529 67.4241H74.7779C74.9073 67.4241 75.0182 67.4056 75.1198 67.3779C75.2122 67.3409 75.2954 67.304 75.3601 67.2393C75.4247 67.1838 75.4709 67.1192 75.4986 67.036C75.5264 66.9621 75.5448 66.8697 75.5448 66.7773C75.5448 66.5925 75.4802 66.4447 75.3601 66.343C75.2399 66.2414 75.0459 66.1952 74.7964 66.1952H74.3529V67.4241ZM80.7838 67.5165C80.7838 67.7844 80.7376 68.0339 80.6452 68.2649C80.5528 68.4959 80.4327 68.6992 80.2663 68.8655C80.1 69.0318 79.906 69.1612 79.675 69.2628C79.444 69.3552 79.1945 69.4014 78.9081 69.4014C78.6309 69.4014 78.3722 69.3552 78.1412 69.2628C77.9102 69.1704 77.7162 69.041 77.5499 68.8655C77.3836 68.6992 77.2542 68.4959 77.171 68.2649C77.0786 68.0339 77.0324 67.7844 77.0324 67.5165C77.0324 67.2485 77.0786 66.9991 77.171 66.7681C77.2634 66.5371 77.3928 66.3338 77.5499 66.1675C77.7162 66.0012 77.9102 65.8718 78.1412 65.7702C78.3722 65.6778 78.6309 65.6316 78.9081 65.6316C79.1853 65.6316 79.444 65.6778 79.675 65.7702C79.906 65.8626 80.1 66.0012 80.2663 66.1675C80.4327 66.3338 80.5528 66.5371 80.6452 66.7681C80.7376 66.9898 80.7838 67.2485 80.7838 67.5165ZM80.0816 67.5165C80.0816 67.3132 80.0538 67.1284 79.9984 66.9713C79.943 66.8143 79.869 66.6757 79.7674 66.5648C79.6658 66.4539 79.5456 66.3708 79.3978 66.3061C79.25 66.2506 79.0929 66.2137 78.9081 66.2137C78.7233 66.2137 78.5662 66.2414 78.4184 66.3061C78.2706 66.3615 78.1505 66.4539 78.0488 66.5648C77.9472 66.6757 77.8733 66.8143 77.8178 66.9713C77.7624 67.1284 77.7347 67.3132 77.7347 67.5165C77.7347 67.7197 77.7624 67.9045 77.8178 68.0616C77.8733 68.2187 77.9472 68.3573 78.0488 68.4682C78.1505 68.579 78.2706 68.6622 78.4184 68.7269C78.5662 68.7823 78.7233 68.8193 78.9081 68.8193C79.0929 68.8193 79.25 68.7916 79.3978 68.7269C79.5456 68.6714 79.6658 68.579 79.7674 68.4682C79.869 68.3573 79.943 68.2187 79.9984 68.0616C80.0538 67.8953 80.0816 67.7197 80.0816 67.5165ZM83.1861 68.81C83.3155 68.81 83.4356 68.7916 83.5465 68.7454C83.6481 68.6992 83.7405 68.6345 83.8144 68.5606C83.8883 68.4774 83.9438 68.385 83.9807 68.2649C84.0177 68.154 84.0362 68.0247 84.0362 67.8861V65.6778H84.7199V67.8861C84.7199 68.1078 84.6829 68.3111 84.6183 68.4959C84.5443 68.6807 84.4427 68.847 84.3133 68.9764C84.184 69.115 84.0177 69.2166 83.8329 69.2905C83.6481 69.3644 83.4356 69.4014 83.1953 69.4014C82.9551 69.4014 82.7426 69.3644 82.5578 69.2905C82.373 69.2166 82.2067 69.1057 82.0773 68.9764C81.948 68.8378 81.8463 68.6807 81.7724 68.4959C81.6985 68.3111 81.6708 68.1078 81.6708 67.8861V65.6778H82.3545V67.8861C82.3545 68.0247 82.373 68.154 82.41 68.2649C82.4469 68.3758 82.5024 68.4774 82.5763 68.5606C82.6502 68.6437 82.7334 68.7084 82.8442 68.7454C82.9274 68.7823 83.0475 68.81 83.1861 68.81ZM89.0626 67.5165C89.0626 67.7844 89.0164 68.0339 88.924 68.2649C88.8316 68.4959 88.7115 68.6899 88.5451 68.847C88.3788 69.0133 88.1848 69.1334 87.9538 69.2258C87.7228 69.3182 87.4733 69.3644 87.1869 69.3644H85.7732V65.6685H87.1869C87.4641 65.6685 87.7228 65.7147 87.9538 65.8071C88.1848 65.8995 88.3788 66.0289 88.5451 66.186C88.7115 66.3523 88.8316 66.5463 88.924 66.7681C89.0164 66.9991 89.0626 67.2485 89.0626 67.5165ZM88.3604 67.5165C88.3604 67.3132 88.3326 67.1284 88.2772 66.9713C88.2218 66.8143 88.1478 66.6757 88.0462 66.5648C87.9446 66.4539 87.8244 66.3708 87.6766 66.3061C87.5288 66.2506 87.3717 66.2137 87.1869 66.2137H86.4662V68.81H87.1869C87.3717 68.81 87.5288 68.7823 87.6766 68.7176C87.8244 68.6622 87.9446 68.5698 88.0462 68.4589C88.1478 68.3481 88.2218 68.2095 88.2772 68.0524C88.3326 67.8953 88.3604 67.7197 88.3604 67.5165ZM92.6291 68.0616V69.3644H91.9454V65.6685H93.1465C93.396 65.6685 93.6085 65.6963 93.7841 65.7517C93.9689 65.8071 94.1167 65.8903 94.2276 65.9919C94.3477 66.0936 94.4309 66.2229 94.4863 66.3615C94.5417 66.5093 94.5695 66.6664 94.5695 66.8327C94.5695 67.0083 94.5417 67.1746 94.4771 67.3224C94.4216 67.4703 94.3292 67.5996 94.2091 67.7105C94.089 67.8214 93.9411 67.9045 93.7656 67.96C93.59 68.0154 93.3775 68.0524 93.1373 68.0524L92.6291 68.0616ZM92.6291 67.5257H93.1465C93.2759 67.5257 93.3868 67.5072 93.4792 67.4795C93.5716 67.4518 93.6547 67.4056 93.7102 67.3409C93.7748 67.2855 93.821 67.2116 93.8488 67.1284C93.8765 67.0452 93.895 66.9529 93.895 66.842C93.895 66.7403 93.8765 66.6572 93.8488 66.574C93.821 66.4909 93.7748 66.4262 93.7102 66.3708C93.6455 66.3153 93.5716 66.2691 93.4792 66.2414C93.3868 66.2137 93.2759 66.1952 93.1465 66.1952H92.6291V67.5257ZM98.33 69.3644H97.8034C97.7479 69.3644 97.6925 69.3459 97.6555 69.3182C97.6186 69.2905 97.5908 69.2535 97.5724 69.2073L97.2952 68.4497H95.7614L95.4842 69.2073C95.4749 69.2443 95.4472 69.2813 95.401 69.3182C95.3641 69.3552 95.3086 69.3644 95.2532 69.3644H94.7173L96.1679 65.6685H96.8701L98.33 69.3644ZM95.9369 67.9692H97.1104L96.6576 66.7403C96.6391 66.6849 96.6114 66.6202 96.593 66.5463C96.5652 66.4724 96.5468 66.3892 96.519 66.3061C96.4913 66.3892 96.4728 66.4724 96.4451 66.5463C96.4266 66.6202 96.3989 66.6849 96.3804 66.7403L95.9369 67.9692ZM99.7899 67.923V69.3644H99.1062V65.6685H100.233C100.483 65.6685 100.705 65.6963 100.88 65.7425C101.056 65.7979 101.204 65.8626 101.324 65.9642C101.435 66.0566 101.527 66.1675 101.573 66.2968C101.629 66.4262 101.656 66.574 101.656 66.7311C101.656 66.8512 101.638 66.9713 101.601 67.0822C101.564 67.1931 101.508 67.2947 101.444 67.3871C101.379 67.4795 101.287 67.5534 101.185 67.6274C101.083 67.692 100.973 67.7475 100.843 67.7937C100.926 67.8399 101.01 67.9138 101.065 68.0062L101.989 69.3737H101.37C101.314 69.3737 101.259 69.3644 101.222 69.3367C101.176 69.309 101.148 69.2813 101.12 69.2351L100.344 68.0524C100.317 68.0062 100.28 67.9785 100.252 67.96C100.215 67.9415 100.169 67.9323 100.095 67.9323L99.7899 67.923ZM99.7899 67.4241H100.215C100.344 67.4241 100.455 67.4056 100.557 67.3779C100.649 67.3409 100.732 67.304 100.797 67.2393C100.862 67.1838 100.908 67.1192 100.936 67.036C100.963 66.9621 100.982 66.8697 100.982 66.7773C100.982 66.5925 100.917 66.4447 100.797 66.343C100.677 66.2414 100.483 66.1952 100.233 66.1952H99.7899V67.4241ZM105.26 65.6685V66.2322H104.151V69.3552H103.467V66.2322H102.349V65.6685H105.26ZM106.507 65.6778C106.526 65.6778 106.544 65.687 106.563 65.6963C106.581 65.7055 106.59 65.7147 106.609 65.7332C106.627 65.7517 106.637 65.7702 106.664 65.7886L108.605 68.2557C108.595 68.2002 108.595 68.1355 108.586 68.0801V65.6778H109.187V69.3737H108.836C108.78 69.3737 108.734 69.3644 108.697 69.3459C108.66 69.3275 108.623 69.2997 108.595 69.2535L106.664 66.7958C106.674 66.8512 106.674 66.9067 106.674 66.9621V69.3737H106.073V65.6778H106.433C106.461 65.6685 106.489 65.6685 106.507 65.6778ZM112.633 65.6685V66.2137H110.998V67.2393H112.291V67.7659H110.998V68.81H112.633V69.3552H110.305V65.6593H112.633V65.6685ZM114.306 67.923V69.3644H113.622V65.6685H114.749C114.998 65.6685 115.22 65.6963 115.396 65.7425C115.571 65.7979 115.719 65.8626 115.839 65.9642C115.95 66.0566 116.043 66.1675 116.089 66.2968C116.135 66.4262 116.172 66.574 116.172 66.7311C116.172 66.8512 116.153 66.9713 116.116 67.0822C116.08 67.1931 116.024 67.2947 115.959 67.3871C115.895 67.4795 115.802 67.5534 115.701 67.6274C115.599 67.692 115.488 67.7475 115.359 67.7937C115.442 67.8399 115.525 67.9138 115.581 68.0062L116.505 69.3737H115.886C115.83 69.3737 115.775 69.3644 115.738 69.3367C115.691 69.309 115.664 69.2813 115.636 69.2351L114.86 68.0524C114.832 68.0062 114.795 67.9785 114.768 67.96C114.731 67.9415 114.684 67.9323 114.61 67.9323L114.306 67.923ZM114.306 67.4241H114.731C114.86 67.4241 114.971 67.4056 115.072 67.3779C115.165 67.3409 115.248 67.304 115.313 67.2393C115.377 67.1838 115.424 67.1192 115.451 67.036C115.479 66.9621 115.497 66.8697 115.497 66.7773C115.497 66.5925 115.433 66.4447 115.313 66.343C115.193 66.2414 114.998 66.1952 114.749 66.1952H114.306V67.4241ZM122.797 67.5165C122.797 67.7844 122.751 68.0339 122.658 68.2649C122.566 68.4959 122.446 68.6992 122.279 68.8655C122.113 69.0318 121.919 69.1612 121.688 69.2628C121.457 69.3552 121.208 69.4014 120.921 69.4014C120.644 69.4014 120.385 69.3552 120.154 69.2628C119.923 69.1704 119.729 69.041 119.563 68.8655C119.397 68.6992 119.267 68.4959 119.184 68.2649C119.092 68.0339 119.046 67.7844 119.046 67.5165C119.046 67.2485 119.092 66.9991 119.184 66.7681C119.276 66.5371 119.406 66.3338 119.563 66.1675C119.729 66.0012 119.923 65.8718 120.154 65.7702C120.385 65.6778 120.644 65.6316 120.921 65.6316C121.198 65.6316 121.457 65.6778 121.688 65.7702C121.919 65.8626 122.113 66.0012 122.279 66.1675C122.446 66.3338 122.566 66.5371 122.658 66.7681C122.751 66.9898 122.797 67.2485 122.797 67.5165ZM122.095 67.5165C122.095 67.3132 122.067 67.1284 122.011 66.9713C121.956 66.8143 121.882 66.6757 121.78 66.5648C121.679 66.4539 121.559 66.3708 121.411 66.3061C121.263 66.2506 121.106 66.2137 120.921 66.2137C120.736 66.2137 120.579 66.2414 120.431 66.3061C120.284 66.3615 120.164 66.4539 120.062 66.5648C119.96 66.6757 119.886 66.8143 119.831 66.9713C119.775 67.1284 119.748 67.3132 119.748 67.5165C119.748 67.7197 119.775 67.9045 119.831 68.0616C119.886 68.2187 119.96 68.3573 120.062 68.4682C120.164 68.579 120.284 68.6622 120.431 68.7269C120.579 68.7823 120.736 68.8193 120.921 68.8193C121.106 68.8193 121.263 68.7916 121.411 68.7269C121.559 68.6714 121.679 68.579 121.78 68.4682C121.882 68.3573 121.956 68.2187 122.011 68.0616C122.067 67.9045 122.095 67.7197 122.095 67.5165ZM126.04 65.6685V66.2137H124.405V67.304H125.781V67.8491H124.405V69.3552H123.712V65.6593H126.04V65.6685ZM130.373 68.81C130.503 68.81 130.623 68.7916 130.734 68.7454C130.835 68.6992 130.928 68.6345 131.002 68.5606C131.076 68.4774 131.131 68.385 131.168 68.2649C131.205 68.154 131.223 68.0247 131.223 67.8861V65.6778H131.907V67.8861C131.907 68.1078 131.87 68.3111 131.806 68.4959C131.732 68.6807 131.63 68.847 131.501 68.9764C131.371 69.115 131.205 69.2166 131.02 69.2905C130.835 69.3644 130.623 69.4014 130.383 69.4014C130.142 69.4014 129.93 69.3644 129.745 69.2905C129.56 69.2166 129.394 69.1057 129.265 68.9764C129.135 68.8378 129.034 68.6807 128.96 68.4959C128.886 68.3111 128.858 68.1078 128.858 67.8861V65.6778H129.542V67.8861C129.542 68.0247 129.56 68.154 129.597 68.2649C129.634 68.3758 129.69 68.4774 129.764 68.5606C129.838 68.6437 129.921 68.7084 130.032 68.7454C130.124 68.7823 130.244 68.81 130.373 68.81ZM136.093 69.3644H135.4V67.7475H133.672V69.3644H132.979V65.6685H133.672V67.2578H135.4V65.6685H136.093V69.3644ZM137.654 65.6778C137.673 65.6778 137.691 65.687 137.71 65.6963C137.728 65.7055 137.737 65.7147 137.756 65.7332L137.811 65.7886L139.752 68.2557C139.742 68.2002 139.742 68.1355 139.733 68.0801V65.6778H140.334V69.3737H139.983C139.927 69.3737 139.881 69.3644 139.844 69.3459C139.807 69.3275 139.77 69.2997 139.742 69.2535L137.811 66.7958C137.821 66.8512 137.821 66.9067 137.821 66.9621V69.3737H137.22V65.6778H137.58C137.608 65.6685 137.627 65.6685 137.654 65.6778ZM24.9019 33.9855C23.7746 35.5285 22.8784 37.2379 22.2501 39.0304C21.9452 39.9266 21.6865 40.8506 21.5294 41.7838C21.3446 42.717 21.2614 43.6595 21.2245 44.6019C21.1044 48.3902 22.2224 52.16 24.2736 55.3016C26.3433 58.4338 29.3277 60.9563 32.8019 62.4439C33.6704 62.8135 34.5666 63.1276 35.4906 63.3494C36.4053 63.5896 37.3478 63.7559 38.2903 63.8483C40.1844 64.0423 42.1063 63.9315 43.9819 63.5619C44.176 63.5249 44.37 63.6543 44.4162 63.8483C44.4532 64.0423 44.333 64.2271 44.1482 64.2733C42.2171 64.7723 40.2121 64.9571 38.2071 64.8462C37.2092 64.7815 36.2113 64.6614 35.2319 64.4396C34.2525 64.2364 33.2823 63.9499 32.3399 63.5896C32.1089 63.4972 31.8686 63.414 31.6376 63.3124L30.9447 63.0075C30.4919 62.7857 30.0392 62.564 29.6049 62.3053C28.7271 61.8063 27.8863 61.2427 27.1009 60.5959C26.3156 59.9491 25.5764 59.2654 24.9019 58.5077C24.2274 57.7501 23.6176 56.937 23.0632 56.0962C21.9729 54.3961 21.1413 52.5112 20.6331 50.5616C20.4945 50.0719 20.4021 49.5729 20.3005 49.0832C20.2266 48.5843 20.1434 48.0853 20.0972 47.5864C20.0048 46.5792 19.9679 45.5721 20.0325 44.565C20.0972 43.5579 20.2173 42.56 20.4391 41.5806C20.6516 40.5827 20.9473 39.6217 21.2984 38.6793C21.668 37.7461 22.093 36.8406 22.6012 35.9813C23.1001 35.1127 23.6822 34.2996 24.3105 33.5235C24.4399 33.3572 24.6801 33.3387 24.8464 33.4681C24.9943 33.5974 25.0312 33.8284 24.9019 33.9855Z" fill="black"/>
<path d="M34.4927 31.6755C33.5041 32.0821 32.5616 32.5995 31.6746 33.1909C30.7968 33.7914 29.9837 34.4844 29.2445 35.2421C27.7754 36.7759 26.6667 38.6238 25.9829 40.6196L25.7519 41.3773C25.678 41.6267 25.6318 41.8854 25.5671 42.1442C25.5024 42.4029 25.4655 42.6616 25.4193 42.9203C25.3639 43.179 25.3454 43.4377 25.3084 43.6964C25.1883 44.7405 25.1883 45.7939 25.3084 46.8379C25.4193 47.882 25.6503 48.9076 25.9829 49.8963C26.3155 50.8849 26.7498 51.8459 27.2857 52.7329C27.8216 53.6291 28.4592 54.4607 29.1706 55.2276C29.8821 55.9945 30.6767 56.6783 31.536 57.2696C32.3953 57.8702 33.3193 58.3691 34.2802 58.7757C35.2504 59.1822 36.2575 59.4871 37.2923 59.6719C39.362 60.0508 41.5241 59.9768 43.5754 59.4317C45.6266 58.8958 47.5669 57.8979 49.2208 56.5489C49.3779 56.4195 49.6089 56.4473 49.7383 56.6043C49.8676 56.7614 49.8399 56.9832 49.7013 57.1125C48.0289 58.6186 46.0054 59.7366 43.8341 60.3834C41.6627 61.0394 39.3436 61.2057 37.0891 60.8731C35.9618 60.716 34.8438 60.4203 33.772 60.0138C32.7002 59.6073 31.6746 59.0806 30.7137 58.443C28.801 57.168 27.1933 55.4494 26.0199 53.4721C24.8372 51.4948 24.135 49.2495 23.9225 46.9673C23.7099 44.6758 24.061 42.3659 24.8279 40.2223C25.6226 38.0879 26.8792 36.1199 28.4961 34.5399C30.1223 32.9506 32.0904 31.7402 34.2155 31.0195C34.4003 30.9548 34.6036 31.0565 34.6683 31.2413C34.7607 31.4076 34.6683 31.6016 34.4927 31.6755Z" fill="black"/>
<path d="M42.559 35.1405C41.4779 34.8818 40.3784 34.7709 39.2789 34.8263C38.7337 34.854 38.1886 34.928 37.6527 35.0388C37.1168 35.1497 36.5901 35.2976 36.0819 35.4916C35.5737 35.6764 35.0748 35.9166 34.6036 36.1753C34.1231 36.434 33.6704 36.739 33.2453 37.0716C32.386 37.7368 31.6376 38.5407 31.0278 39.4277C29.8081 41.211 29.1798 43.3823 29.2076 45.5259C29.2445 47.6696 29.9467 49.8039 31.2218 51.5318C31.536 51.966 31.8871 52.3726 32.2659 52.7514C32.6355 53.1395 33.0513 53.4906 33.4763 53.8047C34.3356 54.4423 35.3058 54.9412 36.3129 55.2923C38.3457 55.9946 40.6002 56.0685 42.6791 55.4586C44.758 54.8488 46.6614 53.583 48.0197 51.8644C49.3779 50.1458 50.191 47.9929 50.3203 45.7846C50.3296 45.5814 50.5051 45.4243 50.7084 45.4428C50.9025 45.452 51.0595 45.6183 51.0595 45.8124C51.041 48.1777 50.2372 50.5431 48.805 52.4742C47.3821 54.4053 45.3309 55.8652 43.0394 56.6044C42.4666 56.7892 41.8752 56.9278 41.2747 57.0294C40.6741 57.1218 40.0735 57.168 39.4637 57.168C38.8538 57.168 38.2533 57.1126 37.6527 57.0202C37.0521 56.9278 36.4608 56.7799 35.8787 56.5951C33.5595 55.856 31.4898 54.3406 30.0576 52.3726C28.6255 50.4045 27.8216 47.9745 27.8308 45.5352C27.8216 43.0959 28.607 40.6843 30.0207 38.7163C31.4343 36.7482 33.4578 35.2421 35.7401 34.4845C38.013 33.6991 40.5262 33.6991 42.7807 34.429C42.9748 34.4937 43.0856 34.697 43.021 34.891C42.9378 35.085 42.7438 35.1867 42.559 35.1405Z" fill="black"/>
<path d="M39.6116 49.5545C37.4033 49.5545 35.6107 47.762 35.6107 45.5537C35.6107 43.3454 37.4033 41.5529 39.6116 41.5529C41.8198 41.5529 43.6124 43.3454 43.6124 45.5537C43.6124 47.762 41.8198 49.5545 39.6116 49.5545ZM39.6116 42.7078C38.0408 42.7078 36.7657 43.9829 36.7657 45.5537C36.7657 47.1244 38.0408 48.3995 39.6116 48.3995C41.1823 48.3995 42.4574 47.1244 42.4574 45.5537C42.4574 43.9829 41.1823 42.7078 39.6116 42.7078Z" fill="black"/>
<path d="M39.6115 53.1579C35.4167 53.1579 32.0072 49.7485 32.0072 45.5536C32.0072 41.3588 35.4167 37.9493 39.6115 37.9493C43.8064 37.9493 47.2158 41.3588 47.2158 45.5536C47.2158 49.7485 43.8064 53.1579 39.6115 53.1579ZM39.6115 39.1043C36.0542 39.1043 33.1622 41.9963 33.1622 45.5536C33.1622 49.1109 36.0542 52.003 39.6115 52.003C43.1688 52.003 46.0609 49.1109 46.0609 45.5536C46.0609 41.9963 43.1688 39.1043 39.6115 39.1043Z" fill="black"/>
</svg>
