<svg width="200" height="100" viewBox="0 0 200 100" fill="none" xmlns="http://www.w3.org/2000/svg">
<path d="M57.58 7.5L57.5 7.644V92.638C57.527 92.628 57.554 92.628 57.58 92.613C99.707 71.907 142.245 77.681 142.245 77.681V7.5H57.58ZM78.688 59.46C78.866 54.66 78.866 49.862 78.866 45.064C78.866 42.131 77.622 40.71 75.356 40.71C74.823 40.71 73.846 40.843 72.956 41.42C72.824 43.51 73.001 56.127 73.268 59.46H67.892C68.114 57.46 68.158 52.528 68.158 47.374C68.114 40.844 67.936 30.402 67.448 27.736H72.912C72.868 28.446 72.824 29.291 72.824 30.358V38.533C74.69 37.333 75.978 36.623 77.622 36.623C80.732 36.623 83.576 39.643 83.576 43.953C83.576 49.063 83.576 55.193 84.02 59.459H78.688L78.688 59.46ZM111.744 59.46C111.922 56.926 111.922 54.44 111.922 51.906V44.13C111.922 42.13 111.3 40.8 109.478 40.8C107.523 40.8 106.324 42.487 105.702 43.242V51.372C105.702 55.327 105.835 57.637 105.968 59.459H100.592C100.637 57.681 100.814 56.214 100.814 51.505V44.975C100.814 41.775 100.104 40.798 98.46 40.798C96.194 40.798 95.127 42.218 94.594 43.196V51.193C94.594 53.948 94.639 56.703 94.772 59.457H89.44C89.663 57.545 89.707 54.969 89.707 52.969C89.707 47.727 89.797 42.395 89.041 37.241H93.796C94.24 38.263 94.284 39.063 94.284 39.729H94.374C96.061 37.597 97.75 36.619 99.882 36.619C102.105 36.619 103.926 37.819 104.948 39.819C105.793 38.841 107.792 36.619 111.08 36.619C115.7 36.619 116.81 40.439 116.81 44.261C116.81 49.326 116.81 55.281 117.078 59.456H111.746L111.744 59.46ZM127.384 60.08C125.162 60.08 123.429 59.37 121.607 58.704V52.66C122.807 53.905 125.607 56.527 128.494 56.527C130.404 56.527 131.514 55.417 131.514 53.905C131.514 49.995 121.918 50.395 121.918 44.131C121.918 40.489 125.25 36.623 132.004 36.623C132.492 36.623 133.737 36.668 134.181 36.801L134.493 41.511C132.803 40.711 131.205 40.444 129.561 40.444C127.606 40.444 126.629 41.599 126.629 42.621C126.629 45.821 136.225 45.554 136.225 52.484C136.225 56.394 132.76 60.082 127.385 60.082L127.384 60.08Z" fill="black"/>
</svg>
