<svg width="200" height="100" viewBox="0 0 200 100" fill="none" xmlns="http://www.w3.org/2000/svg">
<path fill-rule="evenodd" clip-rule="evenodd" d="M46.455 58.636C45.978 58.636 45.591 59.023 45.591 59.5C45.591 59.977 45.205 60.364 44.728 60.364C44.251 60.364 43.865 59.977 43.865 59.5V33.59H33.5V44.82H24.864V33.59H14.5V60.364H14.56C14.986 63.771 17.886 66.409 21.41 66.409C25.225 66.409 28.318 63.315 28.318 59.499C28.318 59.022 27.932 58.635 27.455 58.635C26.978 58.635 26.591 59.022 26.591 59.499C26.591 59.976 26.205 60.363 25.728 60.363C25.251 60.363 24.865 59.976 24.865 59.499V53.454H33.5V59.5C33.5 63.316 36.593 66.41 40.41 66.41C44.225 66.41 47.318 63.316 47.318 59.5C47.318 59.023 46.932 58.636 46.455 58.636ZM104.318 58.636C103.841 58.636 103.455 59.023 103.455 59.5C103.455 59.977 103.068 60.364 102.591 60.364C102.115 60.364 101.728 59.977 101.728 59.5V33.59H91.364V44.82H82.727V33.59H72.364V60.364H72.424C72.849 63.771 75.75 66.409 79.274 66.409C83.089 66.409 86.182 63.315 86.182 59.499C86.182 59.022 85.795 58.635 85.318 58.635C84.841 58.635 84.455 59.022 84.455 59.499C84.455 59.976 84.068 60.363 83.591 60.363C83.115 60.363 82.728 59.976 82.728 59.499V53.454H91.365V59.5C91.365 63.316 94.458 66.41 98.275 66.41C102.09 66.41 105.183 63.316 105.183 59.5C105.183 59.023 104.796 58.636 104.319 58.636H104.318Z" fill="black"/>
<path fill-rule="evenodd" clip-rule="evenodd" d="M57.682 33.59C50.527 33.59 44.7271 39.39 44.7271 46.545C44.7271 53.7 50.527 59.5 57.682 59.5C64.836 59.5 70.6361 53.7 70.6361 46.545C70.6361 39.391 64.836 33.591 57.682 33.591V33.59ZM57.682 51.727C54.825 51.727 52.5 49.402 52.5 46.545C52.5 43.689 54.825 41.365 57.682 41.365C60.539 41.365 62.864 43.689 62.864 46.545C62.864 49.402 60.539 51.727 57.682 51.727ZM115.545 33.59C108.391 33.59 102.591 39.39 102.591 46.545C102.591 53.7 108.391 59.5 115.546 59.5C122.701 59.5 128.5 53.7 128.5 46.545C128.5 39.391 122.7 33.591 115.545 33.591V33.59ZM115.545 51.727C112.688 51.727 110.365 49.402 110.365 46.545C110.365 43.689 112.688 41.365 115.545 41.365C118.403 41.365 120.727 43.689 120.727 46.545C120.727 49.402 118.403 51.727 115.545 51.727ZM156.136 33.59H128.5V42.227H137.136V59.5C137.136 63.316 140.23 66.41 144.046 66.41C147.861 66.41 150.956 63.316 150.956 59.5C150.956 59.023 150.568 58.636 150.091 58.636C149.615 58.636 149.228 59.023 149.228 59.5C149.228 59.977 148.842 60.364 148.365 60.364C147.888 60.364 147.501 59.977 147.501 59.5V42.227H156.137V33.59H156.136Z" fill="black"/>
<path fill-rule="evenodd" clip-rule="evenodd" d="M169.09 33.59C160.028 33.59 152.682 40.938 152.682 50C152.682 59.062 160.028 66.41 169.092 66.41C178.152 66.41 185.5 59.062 185.5 50C185.5 40.938 178.153 33.59 169.09 33.59ZM169.09 57.773C164.798 57.773 161.318 54.293 161.318 50C161.318 45.707 164.798 42.227 169.091 42.227C173.385 42.227 176.865 45.707 176.865 50C176.865 54.293 173.385 57.773 169.092 57.773H169.09Z" fill="black"/>
</svg>
