<svg width="200" height="100" viewBox="0 0 200 100" fill="none" xmlns="http://www.w3.org/2000/svg">
<path fill-rule="evenodd" clip-rule="evenodd" d="M32.366 52.465C31.876 53.255 31.263 53.935 30.526 54.515C30.006 54.933 29.384 55.267 28.656 55.515C27.928 55.765 27.186 55.92 26.428 55.98C26.308 56 26.193 56.01 26.084 56.01H25.77C24.593 56.01 23.54 55.71 22.614 55.112C21.687 54.514 21.224 53.508 21.224 52.092C21.224 51.512 21.308 50.939 21.477 50.372C21.647 49.802 21.831 49.24 22.03 48.682C22.09 48.522 22.15 48.357 22.21 48.188C22.27 48.018 22.33 47.854 22.39 47.694H19.07L16.346 55.5H8.57004C8.93005 54.484 9.28205 53.473 9.63205 52.465C9.98205 51.459 10.324 50.445 10.664 49.429C11.004 48.431 11.347 47.424 11.696 46.407C12.044 45.39 12.399 44.373 12.758 43.357C12.778 43.317 12.792 43.281 12.802 43.251C12.812 43.221 12.817 43.186 12.817 43.146C12.877 42.986 12.932 42.816 12.982 42.638C13.032 42.458 13.066 42.268 13.087 42.068C13.107 41.988 13.121 41.898 13.131 41.798C13.141 41.7 13.148 41.6 13.148 41.5C13.148 41.122 13.058 40.802 12.878 40.543C12.698 40.283 12.37 40.153 11.891 40.153C11.054 40.153 10.266 40.533 9.52805 41.291C8.79005 42.05 8.28005 42.888 8.00005 43.805C7.94205 44.005 7.89705 44.205 7.86705 44.403C7.83705 44.603 7.82205 44.803 7.82205 45.003C7.82205 45.56 7.96604 46.053 8.25604 46.483C8.54404 46.911 9.01804 47.206 9.67604 47.365C9.37805 47.903 9.03405 48.318 8.64605 48.605C8.25605 48.895 7.86205 49.081 7.46305 49.16C7.38305 49.16 7.30905 49.165 7.23905 49.175C7.16905 49.185 7.09305 49.19 7.01305 49.19C6.27505 49.17 5.61305 48.866 5.02505 48.277C4.43505 47.689 4.12205 46.867 4.08205 45.809C4.00205 43.894 4.83405 42.244 6.58005 40.859C8.32605 39.472 10.255 38.609 12.37 38.271C12.668 38.211 12.972 38.171 13.28 38.151C13.59 38.131 13.894 38.121 14.193 38.121C15.25 38.121 16.233 38.291 17.14 38.629C18.047 38.969 18.8 39.517 19.398 40.275C19.738 40.715 19.982 41.147 20.131 41.575C20.281 42.005 20.357 42.448 20.357 42.907C20.357 43.367 20.291 43.83 20.162 44.297C20.032 44.767 19.888 45.25 19.729 45.749H23.049L25.353 39.049H32.951C32.593 40.105 32.229 41.167 31.861 42.234C31.491 43.301 31.127 44.364 30.768 45.419C30.408 46.477 30.045 47.539 29.676 48.605C29.306 49.673 28.943 50.745 28.586 51.821C28.524 51.961 28.469 52.105 28.42 52.255C28.37 52.405 28.345 52.539 28.345 52.659C28.345 52.759 28.379 52.839 28.45 52.899C28.52 52.959 28.634 52.989 28.794 52.989C28.894 52.989 28.989 52.977 29.079 52.959C29.169 52.939 29.263 52.899 29.363 52.839C29.663 52.699 29.955 52.475 30.243 52.166C30.533 51.856 30.798 51.532 31.037 51.193C31.217 50.933 31.371 50.683 31.501 50.445C31.631 50.205 31.735 49.997 31.815 49.817L31.875 49.697L31.935 49.577C31.955 49.537 31.975 49.493 31.995 49.443C32.015 49.393 32.035 49.349 32.055 49.308L33.67 50.055C33.29 50.873 32.857 51.675 32.37 52.463L32.366 52.465Z" fill="black"/>
<path fill-rule="evenodd" clip-rule="evenodd" d="M50.507 51.1799C50.347 51.5079 50.167 51.8419 49.969 52.1799C49.589 52.8399 49.125 53.4429 48.577 53.9899C48.027 54.5399 47.385 54.8139 46.647 54.8139C46.347 54.8139 46.064 54.7689 45.795 54.6789C45.525 54.5889 45.271 54.4739 45.032 54.3329C44.254 54.9729 43.342 55.4699 42.295 55.8299C41.248 56.1899 40.175 56.3999 39.079 56.4599H38.541C37.504 56.4599 36.507 56.3029 35.551 55.9949C34.591 55.6849 33.755 55.2229 33.037 54.6049C32.459 54.0849 32.04 53.5319 31.781 52.9429C31.521 52.3559 31.391 51.7629 31.391 51.1649C31.391 50.2269 31.671 49.3289 32.231 48.4719C32.788 47.6139 33.526 46.8859 34.443 46.2879C35.241 45.7699 36.138 45.3609 37.135 45.0619C38.132 44.7619 39.159 44.6119 40.215 44.6119C40.375 44.6119 40.53 44.6179 40.68 44.6279C40.83 44.6379 40.985 44.6429 41.145 44.6429C42.002 44.7229 42.839 44.9069 43.657 45.1959C44.475 45.4859 45.193 45.9189 45.811 46.4959C46.351 46.9759 46.759 47.5199 47.038 48.1279C47.318 48.7359 47.458 49.3699 47.458 50.0279C47.458 50.2679 47.438 50.5059 47.398 50.7449C47.358 50.9849 47.298 51.2249 47.218 51.4629C47.498 51.4229 47.741 51.3479 47.951 51.2389C48.161 51.1289 48.364 50.9539 48.564 50.7139C48.684 50.5939 48.804 50.4409 48.924 50.2509C49.044 50.0609 49.172 49.8469 49.311 49.6079L50.927 50.3239C50.807 50.5639 50.667 50.8479 50.507 51.1769V51.1799ZM42.057 46.5119C41.847 46.2419 41.583 46.1079 41.264 46.1079C41.064 46.1079 40.844 46.1639 40.606 46.2729C40.366 46.3829 40.128 46.5379 39.888 46.7369C39.788 46.8169 39.694 46.9069 39.604 47.0069C39.514 47.1069 39.419 47.2069 39.32 47.3049C38.86 47.8449 38.492 48.4569 38.213 49.1449C37.933 49.8329 37.735 50.5349 37.615 51.2549L37.555 51.9569C37.535 52.1869 37.525 52.4109 37.525 52.6299C37.525 52.7499 37.53 52.8999 37.54 53.0779C37.55 53.2579 37.575 53.4379 37.615 53.6179C37.675 53.9559 37.779 54.2599 37.929 54.5279C38.077 54.7979 38.312 54.9329 38.631 54.9329C39.129 54.9329 39.573 54.7579 39.961 54.4099C40.351 54.0599 40.665 53.6669 40.904 53.2279C40.964 53.1279 41.024 53.0339 41.084 52.9429C41.144 52.8529 41.194 52.7599 41.234 52.6599C40.914 52.4399 40.67 52.1669 40.5 51.8369C40.332 51.5069 40.247 51.1539 40.247 50.7769V50.5669C40.307 49.9669 40.531 49.4049 40.92 48.8769C41.31 48.3469 41.802 48.0029 42.4 47.8439C42.38 47.2259 42.266 46.7819 42.057 46.5119Z" fill="black"/>
<path fill-rule="evenodd" clip-rule="evenodd" d="M72.7621 54.1699C71.7251 55.2379 70.2691 55.7699 68.3951 55.7699C68.2551 55.7699 68.1111 55.7659 67.9611 55.7559C67.8131 55.7459 67.6581 55.7309 67.4991 55.7099C67.0391 55.6499 66.5961 55.5359 66.1691 55.3669C65.7391 55.1969 65.3851 54.9229 65.1061 54.5439C64.9061 54.2639 64.7661 53.9809 64.6861 53.6909C64.6061 53.4029 64.5661 53.1009 64.5661 52.7809C64.5661 52.6409 64.5721 52.5069 64.5831 52.3769C64.5931 52.2469 64.6071 52.1119 64.6271 51.9729C64.6871 51.6329 64.7721 51.2989 64.8821 50.9709C64.9921 50.6409 65.1071 50.3269 65.2261 50.0289C65.2461 49.9689 65.2861 49.8589 65.3461 49.6989C65.4061 49.5389 65.4761 49.3589 65.5561 49.1609C65.5761 49.0809 65.6061 48.9909 65.6461 48.8909C65.6861 48.7909 65.7161 48.6909 65.7361 48.5909C65.7761 48.4329 65.8101 48.2779 65.8401 48.1289C65.8701 47.9789 65.8851 47.8449 65.8851 47.7249C65.8851 47.5649 65.8501 47.4309 65.7801 47.3209C65.7101 47.2109 65.5951 47.1569 65.4361 47.1569C65.0761 47.1569 64.7381 47.3209 64.4191 47.6499C64.0991 47.9779 63.8211 48.3329 63.5821 48.7099C63.4621 48.9299 63.3521 49.1459 63.2521 49.3549C63.1521 49.5649 63.0721 49.7479 63.0121 49.9069C62.8521 50.3669 62.6941 50.8309 62.5341 51.2969C62.3741 51.7669 62.2141 52.2309 62.0561 52.6889C61.8761 53.1689 61.7061 53.6419 61.5461 54.1089C61.3861 54.5789 61.2281 55.0419 61.0681 55.4989H55.1461C55.3661 54.9019 55.5801 54.3039 55.7891 53.7049C55.9991 53.1069 56.2131 52.4989 56.4321 51.8809C56.6321 51.2829 56.8361 50.6839 57.0451 50.0859C57.2551 49.4879 57.4591 48.8889 57.6581 48.2909C57.6981 48.1709 57.7281 48.0569 57.7481 47.9469C57.7681 47.8369 57.7781 47.7429 57.7781 47.6629C57.7781 47.4629 57.7331 47.3229 57.6441 47.2449C57.5541 47.1649 57.4291 47.1249 57.2691 47.1249C57.1691 47.1249 57.0651 47.1389 56.9551 47.1699C56.8451 47.1999 56.7411 47.2459 56.6411 47.3049C56.5211 47.3649 56.4061 47.4389 56.2971 47.5289C56.1871 47.6189 56.0821 47.7229 55.9831 47.8429C55.6831 48.1829 55.3591 48.6649 55.0101 49.2929C54.6601 49.9209 54.2861 50.7629 53.8881 51.8209C53.6281 52.5789 53.4181 53.1879 53.2581 53.6459C53.1401 54.0459 53.0201 54.4239 52.9011 54.7829L52.6611 55.4999H47.0701L50.6901 45.0019H56.2831L56.0431 45.6599C56.5031 45.3799 57.0161 45.1469 57.5851 44.9569C58.1531 44.7669 58.7251 44.6529 59.3051 44.6129H59.6651C59.9431 44.6129 60.2271 44.6329 60.5151 44.6729C60.8051 44.7129 61.0791 44.7829 61.3391 44.8829C61.7571 45.0229 62.1361 45.2369 62.4751 45.5249C62.8151 45.8149 63.0551 46.1889 63.1951 46.6469C63.7921 46.0089 64.4651 45.5209 65.2131 45.1809C65.9601 44.8429 66.7331 44.6739 67.5311 44.6739C67.8311 44.6739 68.1291 44.6989 68.4281 44.7489C68.7281 44.7989 69.0261 44.8729 69.3261 44.9729C70.1031 45.2329 70.6911 45.6509 71.0911 46.2289C71.4891 46.8089 71.6881 47.4559 71.6881 48.1739C71.6881 48.4139 71.6681 48.6519 71.6281 48.8909C71.5881 49.1309 71.5181 49.3809 71.4181 49.6409C71.3781 49.7609 71.3201 49.9289 71.2401 50.1489C71.1601 50.3669 71.0801 50.5969 71.0001 50.8359L70.9401 51.0159L70.8801 51.1959C70.8001 51.4759 70.7261 51.7379 70.6571 51.9879C70.5871 52.2379 70.5521 52.4419 70.5521 52.6009V52.6759C70.5521 52.7059 70.5621 52.7399 70.5821 52.7809C70.6001 52.8009 70.6351 52.8109 70.6851 52.8109H70.8801C70.9801 52.8109 71.0801 52.7959 71.1801 52.7659C71.2801 52.7359 71.3781 52.6899 71.4781 52.6309C71.7581 52.4709 72.0361 52.2409 72.3161 51.9409C72.5961 51.6439 72.8441 51.3339 73.0631 51.0159C73.2631 50.7359 73.4391 50.4729 73.5881 50.2229C73.7381 49.9729 73.8521 49.7599 73.9321 49.5799L75.4271 50.2959C74.6891 51.8129 73.8011 53.1039 72.7641 54.1709L72.7621 54.1699Z" fill="black"/>
<path fill-rule="evenodd" clip-rule="evenodd" d="M87.42 52.99C86.8 53.806 85.943 54.475 84.847 54.993C84.189 55.293 83.495 55.511 82.767 55.651C82.04 55.791 81.297 55.861 80.539 55.861H80.179C80.059 55.861 79.949 55.851 79.849 55.831C79.371 55.811 78.903 55.757 78.444 55.667C77.984 55.577 77.537 55.463 77.098 55.323C75.941 54.923 74.988 54.316 74.241 53.498C73.493 52.681 73.119 51.714 73.119 50.5979C73.119 50.3179 73.145 50.0339 73.195 49.7439C73.245 49.4559 73.319 49.1609 73.419 48.8619C73.819 47.6659 74.625 46.734 75.842 46.066C77.058 45.398 78.355 44.9739 79.732 44.7939C80.03 44.7539 80.324 44.7239 80.612 44.7039C80.902 44.6839 81.186 44.674 81.465 44.674C81.885 44.674 82.293 44.694 82.692 44.734C83.092 44.774 83.459 44.844 83.799 44.944C83.859 44.964 83.913 44.9789 83.963 44.9889C84.013 44.9989 84.068 45.014 84.128 45.034C84.705 45.194 85.248 45.4719 85.758 45.8709C86.265 46.2689 86.528 46.808 86.55 47.486C86.59 48.563 86.14 49.4099 85.204 50.0289C84.266 50.6469 83.239 51.095 82.124 51.375C81.504 51.535 80.906 51.6449 80.328 51.7029C79.748 51.7629 79.251 51.783 78.832 51.763C78.932 52.481 79.206 53.035 79.655 53.423C80.105 53.813 80.697 54.007 81.435 54.007C82.93 54.007 84.187 53.587 85.205 52.7509C86.221 51.913 87.018 50.856 87.597 49.581L89.092 50.268C88.592 51.265 88.034 52.172 87.416 52.99H87.42ZM83.35 46.1699C83.17 46.0299 82.912 45.95 82.573 45.93C81.835 45.91 81.198 46.1899 80.659 46.7669C80.119 47.3449 79.709 47.984 79.431 48.681C79.331 48.9209 79.251 49.161 79.191 49.401C79.131 49.641 79.081 49.8609 79.043 50.0579C79.283 50.0379 79.531 50.0079 79.791 49.9679C80.049 49.9279 80.309 49.8679 80.568 49.7879C81.325 49.5899 82.018 49.2609 82.646 48.8019C83.274 48.3439 83.598 47.706 83.618 46.888C83.618 46.548 83.528 46.31 83.348 46.171L83.35 46.1699Z" fill="black"/>
<path fill-rule="evenodd" clip-rule="evenodd" d="M103.062 54.186C102.025 55.243 100.592 55.771 98.757 55.771C98.635 55.771 98.512 55.767 98.383 55.757C98.253 55.747 98.127 55.741 98.008 55.741C97.508 55.681 97.031 55.567 96.572 55.398C96.112 55.228 95.734 54.944 95.435 54.545C95.237 54.265 95.097 53.977 95.015 53.678C94.937 53.378 94.897 53.07 94.897 52.751V52.511C94.897 52.431 94.907 52.341 94.927 52.241C94.967 51.883 95.042 51.519 95.152 51.151C95.26 50.781 95.375 50.428 95.496 50.088C95.516 50.048 95.53 50.014 95.541 49.984C95.551 49.954 95.565 49.919 95.587 49.879C95.607 49.819 95.647 49.725 95.707 49.595C95.765 49.465 95.825 49.321 95.887 49.161C95.925 49.061 95.961 48.967 95.99 48.877C96.02 48.787 96.053 48.692 96.094 48.592C96.134 48.454 96.164 48.314 96.184 48.175C96.204 48.035 96.214 47.905 96.214 47.785C96.214 47.625 96.179 47.497 96.108 47.397C96.038 47.297 95.924 47.247 95.764 47.247C95.364 47.247 94.976 47.477 94.597 47.935C94.219 48.395 93.89 48.903 93.611 49.461C93.413 49.839 93.238 50.208 93.089 50.567C92.939 50.925 92.834 51.205 92.775 51.405C92.455 52.322 92.131 53.235 91.802 54.141C91.475 55.049 91.162 55.961 90.862 56.878C90.78 57.058 90.712 57.242 90.652 57.432C90.592 57.622 90.532 57.807 90.472 57.987C90.212 58.724 89.958 59.457 89.709 60.185C89.459 60.912 89.205 61.645 88.947 62.385L83.353 62.413C83.773 61.257 84.176 60.111 84.565 58.975C84.955 57.838 85.338 56.701 85.717 55.565C85.917 55.025 86.11 54.472 86.3 53.905C86.49 53.335 86.684 52.763 86.884 52.185C87.484 50.49 88.076 48.789 88.664 47.085C89.252 45.379 89.844 43.679 90.444 41.985H96.008L94.72 45.66C95.175 45.42 95.7 45.21 96.29 45.032C96.876 44.852 97.47 44.742 98.068 44.702H98.397C98.975 44.702 99.534 44.798 100.072 44.987C100.61 45.177 101.069 45.491 101.447 45.929C101.707 46.207 101.891 46.511 102.002 46.841C102.11 47.171 102.166 47.504 102.166 47.843C102.166 48.043 102.151 48.236 102.121 48.426C102.091 48.616 102.037 48.81 101.958 49.01C101.898 49.21 101.833 49.414 101.763 49.624C101.693 49.834 101.618 50.048 101.54 50.267C101.517 50.327 101.494 50.392 101.462 50.461C101.432 50.531 101.409 50.607 101.388 50.686C101.348 50.826 101.303 50.966 101.254 51.106C101.204 51.246 101.158 51.384 101.12 51.524C101.1 51.564 101.08 51.604 101.058 51.644C101.038 51.684 101.02 51.734 100.998 51.794C100.98 51.834 100.965 51.879 100.954 51.927C100.944 51.977 100.929 52.033 100.909 52.092C100.889 52.154 100.874 52.212 100.864 52.272C100.854 52.332 100.849 52.392 100.849 52.452C100.849 52.552 100.874 52.637 100.923 52.706C100.973 52.776 101.068 52.811 101.208 52.811C101.308 52.811 101.401 52.801 101.492 52.781C101.582 52.761 101.675 52.721 101.775 52.661C102.055 52.541 102.329 52.346 102.597 52.077C102.867 51.807 103.1 51.534 103.3 51.255C103.46 51.035 103.6 50.827 103.72 50.627C103.838 50.427 103.93 50.257 103.99 50.117C104.008 50.077 104.027 50.039 104.048 49.999C104.068 49.959 104.09 49.919 104.108 49.879L104.168 49.759C104.188 49.719 104.198 49.679 104.198 49.639L105.724 50.327C104.986 51.843 104.098 53.129 103.06 54.187L103.062 54.186Z" fill="black"/>
<path fill-rule="evenodd" clip-rule="evenodd" d="M122.836 51.1799C122.676 51.5079 122.496 51.8419 122.298 52.1799C121.918 52.8399 121.455 53.4429 120.908 53.9899C120.358 54.5399 119.714 54.8139 118.978 54.8139C118.678 54.8139 118.395 54.7689 118.125 54.6789C117.855 54.5889 117.602 54.4739 117.362 54.3329C116.584 54.9729 115.672 55.4699 114.625 55.8299C113.578 56.1899 112.505 56.3999 111.41 56.4599H110.87C109.834 56.4599 108.837 56.3029 107.88 55.9949C106.922 55.6849 106.085 55.2229 105.367 54.6049C104.789 54.0849 104.37 53.5319 104.111 52.9429C103.851 52.3559 103.723 51.7629 103.723 51.1649C103.723 50.2269 104.003 49.3289 104.56 48.4719C105.118 47.6139 105.856 46.8859 106.773 46.2879C107.571 45.7699 108.467 45.3609 109.465 45.0619C110.462 44.7619 111.489 44.6119 112.545 44.6119C112.705 44.6119 112.86 44.6179 113.01 44.6279C113.16 44.6379 113.314 44.6429 113.474 44.6429C114.331 44.7229 115.168 44.9069 115.986 45.1959C116.804 45.4859 117.521 45.9189 118.14 46.4959C118.678 46.9759 119.086 47.5199 119.366 48.1279C119.646 48.7359 119.786 49.3699 119.786 50.0279C119.786 50.2679 119.766 50.5059 119.726 50.7449C119.686 50.9849 119.626 51.2249 119.546 51.4629C119.826 51.4229 120.069 51.3479 120.279 51.2389C120.487 51.1289 120.691 50.9539 120.891 50.7139C121.011 50.5939 121.131 50.4409 121.251 50.2509C121.369 50.0609 121.499 49.8469 121.639 49.6079L123.254 50.3239C123.134 50.5639 122.994 50.8479 122.834 51.1769L122.836 51.1799ZM114.386 46.5119C114.176 46.2419 113.912 46.1079 113.594 46.1079C113.394 46.1079 113.174 46.1639 112.934 46.2729C112.696 46.3829 112.457 46.5379 112.218 46.7369C112.118 46.8169 112.023 46.9069 111.933 47.0069C111.843 47.1069 111.749 47.2069 111.649 47.3049C111.189 47.8449 110.819 48.4569 110.541 49.1449C110.261 49.8329 110.063 50.5349 109.941 51.2549L109.883 51.9569C109.863 52.1869 109.853 52.4109 109.853 52.6299C109.853 52.7499 109.857 52.8999 109.868 53.0779C109.878 53.2579 109.901 53.4379 109.941 53.6179C110.001 53.9559 110.106 54.2599 110.256 54.5279C110.406 54.7979 110.64 54.9329 110.958 54.9329C111.458 54.9329 111.901 54.7579 112.29 54.4099C112.68 54.0599 112.993 53.6669 113.232 53.2279C113.292 53.1279 113.352 53.0339 113.412 52.9429C113.472 52.8529 113.522 52.7599 113.562 52.6599C113.242 52.4399 112.998 52.1669 112.829 51.8369C112.659 51.5069 112.575 51.1539 112.575 50.7769V50.5669C112.635 49.9669 112.859 49.4049 113.248 48.8769C113.636 48.3469 114.128 48.0029 114.728 47.8439C114.708 47.2259 114.594 46.7819 114.383 46.5119H114.386Z" fill="black"/>
<path fill-rule="evenodd" clip-rule="evenodd" d="M131.435 50.57C131.385 50.66 131.331 50.753 131.272 50.854C130.952 51.494 130.602 52.114 130.224 52.714C129.846 53.314 129.387 53.854 128.849 54.334C128.349 54.774 127.765 55.112 127.099 55.352C126.429 55.592 125.736 55.732 125.019 55.772H124.749C124.451 55.772 124.151 55.752 123.852 55.71C123.552 55.67 123.264 55.6 122.984 55.5C122.227 55.242 121.688 54.837 121.369 54.287C121.049 53.737 120.891 53.131 120.891 52.472C120.891 52.252 120.906 52.027 120.935 51.797C120.965 51.567 121.01 51.331 121.07 51.091C121.11 50.973 121.146 50.858 121.176 50.748C121.206 50.638 121.24 50.523 121.281 50.403C121.601 49.483 121.914 48.568 122.223 47.658C122.533 46.748 122.847 45.833 123.166 44.913H129.028C128.908 45.273 128.784 45.638 128.655 46.009C128.525 46.379 128.4 46.744 128.281 47.104C128.021 47.824 127.767 48.549 127.518 49.279C127.268 50.009 127.024 50.745 126.785 51.485C126.725 51.625 126.675 51.77 126.635 51.92C126.595 52.07 126.575 52.205 126.575 52.324C126.575 52.444 126.62 52.544 126.711 52.624C126.801 52.704 126.954 52.734 127.174 52.714C127.334 52.714 127.534 52.649 127.772 52.519C128.012 52.389 128.262 52.204 128.522 51.964C128.882 51.604 129.174 51.224 129.402 50.822C129.632 50.422 129.848 50.002 130.047 49.562C130.127 49.602 130.211 49.642 130.301 49.682C130.391 49.722 130.475 49.762 130.554 49.802C130.714 49.882 130.878 49.957 131.049 50.028C131.217 50.098 131.392 50.182 131.571 50.282C131.531 50.382 131.486 50.477 131.436 50.567L131.435 50.57ZM129.477 43.162C129.157 43.412 128.817 43.596 128.46 43.715C128.38 43.735 128.31 43.751 128.25 43.761C128.19 43.771 128.13 43.787 128.07 43.806L127.577 43.866C127.407 43.886 127.243 43.896 127.084 43.896C126.644 43.896 126.206 43.841 125.767 43.731C125.327 43.621 124.939 43.437 124.6 43.178C124.34 42.978 124.137 42.745 123.987 42.475C123.839 42.205 123.763 41.932 123.763 41.653C123.763 41.493 123.793 41.333 123.853 41.173C123.913 41.015 123.993 40.865 124.093 40.725C124.371 40.365 124.735 40.097 125.183 39.918C125.633 39.738 126.097 39.628 126.575 39.588H126.904C127.124 39.588 127.342 39.603 127.562 39.634C127.782 39.664 127.99 39.708 128.19 39.768L128.37 39.828C128.43 39.848 128.48 39.868 128.52 39.888C128.938 40.068 129.322 40.318 129.67 40.636C130.02 40.956 130.194 41.344 130.194 41.802C130.194 41.862 130.189 41.928 130.179 41.998C130.169 42.068 130.153 42.143 130.134 42.222C130.014 42.602 129.794 42.915 129.476 43.164L129.477 43.162Z" fill="black"/>
<path fill-rule="evenodd" clip-rule="evenodd" d="M145.435 54.17C144.388 55.238 142.947 55.77 141.113 55.77C140.993 55.77 140.873 55.766 140.753 55.756C140.633 55.746 140.515 55.74 140.393 55.74C139.896 55.68 139.417 55.562 138.959 55.382C138.499 55.202 138.119 54.914 137.821 54.514C137.621 54.236 137.478 53.941 137.387 53.632C137.297 53.322 137.253 53.009 137.253 52.689C137.253 52.529 137.263 52.369 137.283 52.209C137.303 52.051 137.323 51.901 137.343 51.762C137.403 51.442 137.487 51.122 137.597 50.804C137.707 50.486 137.811 50.186 137.911 49.906C137.931 49.846 137.971 49.746 138.031 49.608L138.239 49.128C138.259 49.028 138.285 48.933 138.315 48.844C138.345 48.754 138.38 48.659 138.419 48.56C138.459 48.4 138.495 48.246 138.524 48.096C138.554 47.946 138.569 47.811 138.569 47.692C138.569 47.532 138.534 47.398 138.465 47.288C138.395 47.178 138.28 47.123 138.12 47.123C137.922 47.123 137.692 47.219 137.433 47.408C137.173 47.598 136.875 47.921 136.536 48.38C136.058 49.06 135.649 49.792 135.31 50.58C134.97 51.367 134.652 52.17 134.352 52.987C134.232 53.364 134.112 53.737 133.992 54.107C133.874 54.477 133.754 54.84 133.634 55.2C133.614 55.24 133.594 55.285 133.574 55.333C133.554 55.383 133.534 55.439 133.514 55.498H127.951C128.551 53.745 129.148 51.995 129.747 50.25C130.345 48.505 130.953 46.755 131.571 45H137.135L137.075 45.18L137.015 45.36C136.975 45.44 136.945 45.508 136.925 45.568L136.865 45.748C137.325 45.488 137.838 45.264 138.405 45.075C138.975 44.885 139.558 44.761 140.155 44.701C140.255 44.681 140.355 44.671 140.455 44.671H140.755C141.333 44.671 141.885 44.765 142.415 44.955C142.943 45.145 143.407 45.459 143.805 45.897C144.065 46.177 144.255 46.485 144.375 46.823C144.495 47.163 144.555 47.511 144.555 47.871C144.555 47.951 144.548 48.041 144.539 48.141C144.529 48.241 144.513 48.331 144.494 48.409C144.474 48.509 144.454 48.603 144.434 48.693C144.414 48.783 144.384 48.878 144.344 48.978C144.284 49.178 144.214 49.383 144.134 49.592C144.054 49.802 143.984 50.016 143.926 50.235C143.846 50.435 143.766 50.639 143.686 50.848C143.606 51.058 143.536 51.272 143.476 51.491C143.456 51.531 143.436 51.581 143.416 51.641C143.396 51.701 143.376 51.771 143.356 51.851C143.336 51.891 143.316 51.935 143.298 51.985C143.278 52.035 143.268 52.089 143.268 52.15C143.248 52.19 143.233 52.24 143.222 52.298C143.214 52.358 143.208 52.408 143.208 52.448C143.208 52.548 143.238 52.633 143.298 52.702C143.358 52.772 143.458 52.807 143.598 52.807C143.718 52.807 143.832 52.787 143.941 52.747C144.051 52.707 144.165 52.657 144.285 52.597C144.525 52.437 144.767 52.234 145.017 51.984C145.267 51.734 145.491 51.48 145.691 51.221C145.851 51.021 145.989 50.823 146.109 50.623C146.229 50.423 146.319 50.243 146.379 50.083C146.399 50.045 146.417 50.003 146.439 49.965C146.459 49.925 146.479 49.875 146.499 49.815C146.499 49.775 146.509 49.735 146.529 49.695C146.547 49.655 146.567 49.615 146.587 49.575L148.084 50.293C147.364 51.81 146.484 53.101 145.436 54.168L145.435 54.17Z" fill="black"/>
<path fill-rule="evenodd" clip-rule="evenodd" d="M156.174 50.58C156.124 50.67 156.079 50.765 156.039 50.865C155.719 51.505 155.369 52.121 154.991 52.719C154.611 53.316 154.154 53.855 153.615 54.333C153.115 54.773 152.523 55.123 151.835 55.381C151.147 55.639 150.355 55.771 149.458 55.771H149.277C148.717 55.751 148.184 55.639 147.677 55.441C147.167 55.241 146.752 54.901 146.434 54.424C146.234 54.124 146.09 53.804 146 53.466C145.91 53.126 145.866 52.779 145.866 52.42C145.866 52.32 145.869 52.226 145.88 52.136C145.89 52.046 145.904 51.952 145.925 51.852C145.963 51.572 146.018 51.294 146.088 51.015C146.158 50.735 146.233 50.465 146.313 50.207C146.433 49.887 146.546 49.567 146.657 49.25C146.767 48.93 146.87 48.6 146.97 48.262C147.07 47.944 147.174 47.624 147.285 47.305C147.395 46.985 147.509 46.667 147.628 46.348H146.342L146.852 44.912H148.137C148.237 44.612 148.337 44.319 148.437 44.029C148.537 43.739 148.647 43.446 148.765 43.146C148.865 42.866 148.965 42.583 149.065 42.294C149.165 42.004 149.265 41.71 149.363 41.411C150.021 41.311 150.68 41.217 151.338 41.127C151.996 41.037 152.654 40.943 153.312 40.843C153.632 40.803 153.959 40.758 154.299 40.708C154.639 40.658 154.967 40.613 155.287 40.573C155.167 40.933 155.042 41.291 154.913 41.65C154.783 42.008 154.659 42.368 154.538 42.726C154.418 43.086 154.294 43.449 154.164 43.818C154.034 44.188 153.909 44.551 153.789 44.91H155.405L154.868 46.346H153.282C153.142 46.766 152.998 47.189 152.849 47.616C152.699 48.046 152.553 48.48 152.414 48.918C152.254 49.358 152.104 49.792 151.964 50.22C151.826 50.65 151.676 51.072 151.516 51.49C151.476 51.63 151.442 51.765 151.411 51.895C151.381 52.025 151.367 52.139 151.367 52.239C151.367 52.419 151.407 52.544 151.487 52.614C151.565 52.684 151.677 52.718 151.815 52.718C151.935 52.718 152.071 52.688 152.22 52.628C152.37 52.568 152.524 52.488 152.684 52.388C152.762 52.328 152.848 52.268 152.937 52.208C153.027 52.15 153.111 52.08 153.191 52C153.571 51.66 153.881 51.282 154.119 50.863C154.359 50.443 154.577 50.016 154.777 49.577L156.303 50.293C156.261 50.393 156.217 50.488 156.167 50.578L156.174 50.58Z" fill="black"/>
<path fill-rule="evenodd" clip-rule="evenodd" d="M168.392 52.99C167.772 53.806 166.916 54.475 165.819 54.993C165.159 55.293 164.466 55.511 163.739 55.651C163.011 55.791 162.269 55.861 161.511 55.861H161.151C161.031 55.861 160.923 55.851 160.823 55.831C160.343 55.811 159.876 55.757 159.417 55.667C158.957 55.577 158.509 55.463 158.07 55.323C156.915 54.923 155.963 54.316 155.215 53.498C154.467 52.681 154.093 51.714 154.093 50.5979C154.093 50.3179 154.118 50.0339 154.168 49.7439C154.218 49.4559 154.293 49.1609 154.393 48.8619C154.791 47.6659 155.599 46.734 156.815 46.066C158.032 45.398 159.329 44.9739 160.705 44.7939C161.003 44.7539 161.298 44.7239 161.587 44.7039C161.877 44.6839 162.159 44.674 162.439 44.674C162.857 44.674 163.266 44.694 163.664 44.734C164.064 44.774 164.432 44.844 164.771 44.944C164.831 44.964 164.886 44.9789 164.936 44.9889C164.986 44.9989 165.04 45.014 165.1 45.034C165.68 45.194 166.223 45.4719 166.732 45.8709C167.24 46.2689 167.504 46.808 167.525 47.486C167.565 48.563 167.115 49.4099 166.178 50.0289C165.241 50.6469 164.214 51.095 163.098 51.375C162.478 51.535 161.881 51.6449 161.302 51.7029C160.724 51.7629 160.225 51.783 159.807 51.763C159.907 52.481 160.181 53.035 160.629 53.423C161.077 53.813 161.671 54.007 162.409 54.007C163.903 54.007 165.159 53.587 166.177 52.7509C167.194 51.913 167.991 50.856 168.57 49.581L170.067 50.268C169.567 51.265 169.009 52.172 168.392 52.99ZM164.324 46.1699C164.144 46.0299 163.884 45.95 163.546 45.93C162.808 45.91 162.17 46.1899 161.631 46.7669C161.094 47.3449 160.685 47.984 160.406 48.681C160.306 48.9209 160.226 49.161 160.166 49.401C160.106 49.641 160.056 49.8609 160.016 50.0579C160.256 50.0379 160.506 50.0079 160.766 49.9679C161.023 49.9279 161.284 49.8679 161.543 49.7879C162.301 49.5899 162.993 49.2609 163.623 48.8019C164.25 48.3439 164.573 47.706 164.593 46.888C164.593 46.548 164.503 46.31 164.325 46.171L164.324 46.1699Z" fill="black"/>
<path fill-rule="evenodd" clip-rule="evenodd" d="M185.77 46.7369V47.067C185.77 47.804 185.546 48.387 185.098 48.817C184.648 49.245 184.155 49.459 183.618 49.459H183.527C183.107 49.459 182.71 49.319 182.33 49.039C181.952 48.759 181.682 48.311 181.523 47.693C181.463 47.513 181.389 47.379 181.299 47.289C181.209 47.199 181.103 47.1649 180.984 47.1839C180.784 47.1839 180.56 47.299 180.31 47.528C180.062 47.758 179.798 48.071 179.52 48.47C179.04 49.088 178.63 49.776 178.292 50.533C177.952 51.293 177.654 52.059 177.396 52.837C177.276 53.175 177.166 53.505 177.066 53.823C176.966 54.143 176.856 54.4629 176.736 54.7809L176.618 55.139L176.498 55.499H170.963L173.447 48.5589C173.487 48.4789 173.507 48.4089 173.507 48.3489V48.199C173.507 47.981 173.421 47.8359 173.252 47.7659C173.082 47.6959 172.888 47.6699 172.669 47.6899C172.149 47.7499 171.689 47.99 171.292 48.408C170.892 48.826 170.564 49.275 170.305 49.755C170.245 49.855 170.185 49.963 170.125 50.082C170.065 50.202 170.015 50.3119 169.975 50.4119L168.48 49.812C169 48.457 169.763 47.2359 170.77 46.1489C171.776 45.0619 173.038 44.4789 174.553 44.3989C174.693 44.3789 174.838 44.3689 174.988 44.3689C175.136 44.3689 175.29 44.3789 175.451 44.3989C176.111 44.4389 176.743 44.6029 177.351 44.8919C177.961 45.1819 178.443 45.615 178.801 46.192C179.241 45.875 179.705 45.575 180.193 45.296C180.681 45.018 181.185 44.799 181.703 44.639C181.943 44.559 182.177 44.5039 182.407 44.4739C182.635 44.4439 182.86 44.429 183.08 44.429C183.377 44.429 183.67 44.469 183.96 44.549C184.25 44.629 184.524 44.749 184.784 44.909C185.042 45.089 185.247 45.307 185.397 45.566C185.547 45.826 185.651 46.096 185.711 46.374C185.751 46.494 185.771 46.614 185.771 46.734L185.77 46.7369ZM193.997 54.0499C192.821 54.9179 191.524 55.42 190.109 55.562C189.929 55.582 189.753 55.5959 189.584 55.6059C189.414 55.6159 189.25 55.6209 189.091 55.6209C188.891 55.6209 188.681 55.6169 188.461 55.6069C188.243 55.5969 188.023 55.572 187.804 55.532C187.226 55.472 186.664 55.3339 186.114 55.1139C185.564 54.8939 185.092 54.577 184.694 54.158C184.414 53.818 184.209 53.46 184.081 53.08C183.951 52.702 183.886 52.313 183.886 51.914C183.886 51.694 183.901 51.476 183.931 51.256C183.961 51.036 184.005 50.8159 184.066 50.5979C184.206 50.078 184.484 49.676 184.903 49.388C185.323 49.098 185.78 48.963 186.279 48.983H186.58C186.618 48.983 186.664 48.989 186.714 48.999C186.764 49.009 186.818 49.0239 186.879 49.0429L189.539 45.333L195.193 43.8979C195.253 44.9549 195.317 46.018 195.387 47.084C195.457 48.1519 195.532 49.214 195.611 50.271C195.711 51.926 195.171 53.188 193.996 54.055L193.997 54.0499ZM188.284 50.028C188.404 50.188 188.488 50.3609 188.538 50.5509C188.588 50.7409 188.613 50.9359 188.613 51.1349C188.613 51.3349 188.583 51.5249 188.523 51.7029C188.463 51.8829 188.373 52.053 188.253 52.213C188.055 52.511 187.785 52.746 187.446 52.915C187.106 53.085 186.758 53.1699 186.399 53.1699H186.248C186.228 53.1699 186.203 53.1629 186.173 53.1539C186.143 53.1439 186.118 53.138 186.099 53.138C186.239 53.338 186.419 53.5119 186.637 53.6619C186.857 53.8119 187.097 53.886 187.357 53.886C188.173 53.886 188.827 53.666 189.315 53.228C189.803 52.788 190.047 52.141 190.047 51.284C190.067 50.666 190.077 50.054 190.077 49.444V47.6339L188.283 50.028H188.284Z" fill="black"/>
</svg>
