<svg width="200" height="100" viewBox="0 0 200 100" fill="none" xmlns="http://www.w3.org/2000/svg">
<path fill-rule="evenodd" clip-rule="evenodd" d="M34.576 24.95H33.66V26.554H36.867L34.577 24.951L34.576 24.95ZM154.66 26.554L151.808 24.951H150.62L151.49 26.555H154.66V26.554ZM73.42 24.95H72.632V26.554H75.382L73.42 24.95ZM95.327 26.554L93.027 24.951H92.169L92.749 26.555H95.326L95.327 26.554ZM120.306 24.95H119.304V26.554H122.812L120.306 24.951V24.95ZM34 31H42.02V32.604H34V31ZM94.905 32.4879H100.185L99.545 30.884H94.323L94.905 32.4879ZM119 31H127.02V32.604H119V31ZM52 31H80.87V32.604H52V31ZM157.53 30.884H153.844L154.716 32.4879H158.45L157.53 30.884ZM144.644 30.884L143.824 32.4879H145.446L144.644 30.884ZM109.382 32.4879H110.802V30.884H109.945L109.382 32.4879ZM86.812 30.884H86.746V32.4879H87.474L86.812 30.884ZM93.74 29.28H98.903L98.775 28.9599L96.935 27.677H93.16L93.74 29.281V29.28ZM76.758 27.677H72.632V28.7999H51.622V29.28H78.722L76.758 27.677ZM38.47 27.677H33.66V29.281H40.763L38.471 27.6779L38.47 27.677ZM152.972 29.28H156.609L155.689 27.677H152.099L152.971 29.281L152.972 29.28ZM124.566 27.677H119.304V29.281H127.072L124.566 27.6779V27.677ZM34 34H42.02V35.604H34V34ZM87.936 33.61H86.746V35.215H88.598L87.936 33.611V33.61ZM68.142 35.215H80.49V33.61H51.623V35.054H68.143V35.214L68.142 35.215ZM160.014 35.215L159.094 33.611H155.326L156.196 35.216H160.014V35.215ZM146.007 33.61H143.25L142.43 35.215H146.81L146.007 33.611V33.61ZM108.425 35.215H110.803V33.61H108.988L108.425 35.215ZM119 34H127.02V35.604H119V34ZM95.894 35.215H101.276L100.636 33.611H95.31L95.892 35.216L95.894 35.215ZM68.142 38.262H74.228L72.458 36.658H68.142V38.262ZM147.53 36.658H141.693L140.955 38.102L148.172 37.942L147.532 36.658H147.53ZM157.853 38.262H161.763L160.843 36.658H156.983L157.853 38.262ZM97 38.262H101.458L101.982 36.979L101.854 36.657H96.418L97 38.262ZM89.192 36.658H86.746V38.262H89.853L89.193 36.658H89.192ZM119 37H127.02V38.604H119V37ZM107.355 38.262H110.803V36.658H107.918L107.355 38.262ZM34 37H42.02V38.604H34V37ZM75.82 39.706H51.62V41.3089H77.586L75.816 39.705L75.82 39.706ZM100.867 39.706H97.524L98.106 41.3089H100.211L100.868 39.705L100.867 39.706ZM159.508 41.31H163.511L162.591 39.706H158.638L159.508 41.3089V41.31ZM34 40H42.02V41.604H34V40ZM90.448 39.706H86.746V41.3089H91.109L90.447 39.705L90.448 39.706ZM106.284 41.31H110.804V39.706H106.848L106.284 41.3089V41.31ZM119 40H127.02V41.604H119V40ZM161.077 44.1959H165.167L164.247 42.5919H160.205L161.077 44.1959ZM91.638 42.5919H86.746V44.1959H92.3L91.638 42.5919ZM119 43H127.02V44.604H119V43ZM105.27 44.1959H110.803V42.5919H105.833L105.271 44.1959H105.27ZM99.686 42.5919H98.57L99.095 44.0359L99.685 42.5919H99.686ZM34 43H42.02V44.604H34V43ZM59.642 44.0359H77.765V42.5919H51.622V44.1959H59.642V44.0359ZM169.492 51.734H155.71L157.944 53.338H170.414L169.492 51.734ZM127.323 52.6969L128.168 53.337H144.124L144.904 51.734H112.085L114.262 53.338H127.292L127.322 52.698L127.323 52.6969ZM81.586 53.338H95.406V51.734H79.21L81.588 53.338H81.586ZM28.207 53.338H41.68V51.734H26.602L28.206 53.338H28.207ZM97.01 51.734L98.67 53.338H110.084L110.804 51.734H97.01ZM59.642 51.734H43.122L45.002 53.338H59.642V51.734ZM34 49H42.02V50.604H34V49ZM103.075 50.45H110.803V48.847H103.637L103.075 50.451V50.45ZM127.323 48.847H119.303V50.451H125.808L127.323 48.8479V48.847ZM52 49H60.02V50.604H52V49ZM164.476 50.45H168.756L167.836 48.847H163.604L164.476 50.451V50.45ZM135.543 48.847L134.719 50.451H145.527L145.605 50.291H154.105L153.41 48.8479H135.543V48.847ZM94.217 48.847H86.747V50.451H94.877L94.217 48.8479V48.847ZM104.144 47.4039H110.804V45.7999H104.708L104.144 47.4039ZM152.022 45.9599L136.946 46.1199L136.286 47.4039H152.716L152.022 45.9609V45.9599ZM34 46H42.02V47.604H34V46ZM92.96 45.7999H86.746V47.4039H93.622L92.962 45.7999H92.96ZM119 46H127.02V47.604H119V46ZM52 46H60.02V47.604H52V46ZM162.82 47.4039H167.008L166.088 45.7999H161.948L162.82 47.4039ZM161.965 56.2249H172.069L171.332 54.942H160.177L161.964 56.2249H161.965ZM31.094 56.2249H41.68V54.942H29.81L31.094 56.2249ZM59.642 56.3849V54.942H46.882L48.575 56.3849H59.642ZM143.344 54.942H130.282L131.974 56.2249H142.719L143.343 54.942H143.344ZM95.407 54.942H83.964L86.104 56.3849H95.407V54.942ZM101.822 56.3849H108.719L109.365 54.942H100.328L101.82 56.3849H101.822ZM127.162 56.2249L127.22 54.942H116.44L118.18 56.2249H127.162ZM28.177 63.327H32.459V75.86H34.297V63.3279H38.6V61.783H28.178V63.3279L28.177 63.327ZM54.89 61.5519C51.13 61.5519 48.373 64.4759 48.373 68.9469C48.373 73.2069 50.963 76.091 54.703 76.091H54.723C58.295 76.091 61.241 73.501 61.241 68.676C61.241 64.498 58.756 61.553 54.891 61.553L54.89 61.5519ZM54.807 74.608H54.787C51.924 74.608 50.295 71.8719 50.295 68.9059C50.295 65.8559 51.799 63.0359 54.828 63.0359C57.858 63.0359 59.318 65.96 59.318 68.759C59.318 71.954 57.69 74.607 54.808 74.607L54.807 74.608ZM79.242 69.1559V69.093C80.705 68.593 81.895 67.359 81.895 65.521C81.895 64.415 81.478 63.4539 80.788 62.8479C79.911 62.054 78.636 61.678 76.694 61.678C75.462 61.678 74.124 61.804 73.204 61.992V75.8619H75.024V69.762H76.736C78.386 69.826 79.159 70.5579 79.576 72.5C79.952 74.255 80.266 75.445 80.496 75.8629H82.376C82.104 75.3209 81.77 73.963 81.31 72C80.955 70.5379 80.308 69.535 79.242 69.16V69.1559ZM76.882 68.383H75.022V63.2649C75.336 63.181 75.942 63.0979 76.819 63.0979C78.739 63.0979 80.056 63.892 80.056 65.708C80.056 67.318 78.824 68.383 76.881 68.383H76.882ZM99.73 61.5519C95.97 61.5519 93.213 64.4759 93.213 68.9469C93.213 73.2069 95.803 76.091 99.543 76.091H99.563C103.136 76.091 106.081 73.501 106.081 68.676C106.081 64.498 103.596 61.553 99.731 61.553L99.73 61.5519ZM99.647 74.608H99.627C96.764 74.608 95.135 71.8719 95.135 68.9059C95.135 65.8559 96.639 63.0359 99.668 63.0359C102.698 63.0359 104.158 65.96 104.158 68.759C104.158 71.954 102.53 74.607 99.648 74.607L99.647 74.608ZM126.902 67.694C126.902 69.866 126.944 71.5789 127.112 73.459L127.048 73.4789C126.401 72.0389 125.565 70.555 124.542 68.9049L120.05 61.7809H118.045V75.861H119.758V69.844C119.758 67.504 119.738 65.812 119.633 64.037L119.696 64.0169C120.386 65.5409 121.326 67.149 122.306 68.717L126.776 75.86H128.616V61.783H126.9V67.695L126.902 67.694ZM139.786 63.327H144.068V75.86H145.906V63.3279H150.21V61.783H139.786V63.3279V63.327ZM166.5 61.5519C162.74 61.5519 159.982 64.4759 159.982 68.9469C159.982 73.2069 162.572 76.091 166.312 76.091H166.332C169.904 76.091 172.849 73.501 172.849 68.676C172.849 64.498 170.362 61.553 166.499 61.553L166.5 61.5519ZM166.415 74.608H166.395C163.533 74.608 161.905 71.8719 161.905 68.9059C161.905 65.8559 163.408 63.0359 166.435 63.0359C169.465 63.0359 170.928 65.96 170.928 68.759C170.928 71.954 169.298 74.607 166.415 74.607V74.608Z" fill="black"/>
</svg>
