<svg width="200" height="100" viewBox="0 0 200 100" fill="none" xmlns="http://www.w3.org/2000/svg">
<path d="M58 29H63.772V56.433H58V29ZM58 58.62H63.772V64.378H58V58.62ZM77.5 39.025C75.378 39.025 73.647 40.41 72.305 41.795H72.212V39.423H66.472V64.378H72.212V44.732C72.602 44.229 73.35 43.778 74.13 43.778C75.13 43.778 75.768 44.378 75.768 46.274V64.378H81.508V44.185C81.508 40.905 80.215 39.025 77.5 39.025ZM93.678 40.807H93.568C92.882 39.863 91.634 39.017 89.948 39.017C85.753 39.017 83.818 43.585 83.818 51.837C83.818 59.995 85.3 64.774 89.45 64.774C91.727 64.774 92.68 63.681 93.818 62.384H93.912V64.369H99.402V29H93.68V40.807H93.678ZM93.678 59.792C93.366 60.242 92.773 60.595 91.931 60.595C90.247 60.595 89.951 59.448 89.951 51.795C89.951 43.938 90.403 42.897 92.087 42.897C92.821 42.897 93.429 43.241 93.679 43.69V59.792H93.678ZM102.35 29H108.077V34.732H102.35V29ZM102.35 39.423H108.077V64.378H102.35V39.423ZM121.274 40.198C119.839 39.168 118.544 39.018 117.404 39.018C112.834 39.018 110.167 42.773 110.167 46.785C110.167 49.651 110.76 52.103 113.193 53.778C111.353 54.863 109.918 56.203 109.918 58.54C109.918 60.586 111.556 61.83 113.334 62.332V62.429C111.15 63.274 108.919 64.253 108.919 67.004C108.919 68.584 110.806 71.811 117.404 71.811C124.114 71.811 126.391 68.283 126.391 64.747C126.391 56.353 114.675 58.944 114.675 55.902C114.675 55.408 114.785 55.012 115.221 54.765C115.876 54.959 116.561 55.012 117.265 55.012C121.772 55.012 124.612 51.255 124.612 46.935C124.612 44.88 124.112 43.319 122.912 41.829C123.412 41.432 124.159 41.186 124.659 41.186C125.049 41.186 125.845 41.282 126.391 41.486V36.433C124.206 36.679 122.225 38.223 121.273 40.197L121.274 40.198ZM117.266 63.318C117.858 63.372 121.634 63.963 121.634 65.532C121.634 67.059 120.184 67.94 117.608 67.94C114.582 67.94 113.692 67.2 113.692 65.974C113.692 64.21 116.376 63.47 117.266 63.319V63.318ZM117.406 51.458C116.016 51.458 115.331 50.102 115.331 47.041C115.331 43.931 116.018 42.571 117.406 42.571C118.748 42.571 119.45 43.931 119.45 47.041C119.45 50.103 118.747 51.461 117.405 51.461L117.406 51.458ZM134.41 39.025C129.948 39.025 126.5 42.465 126.5 51.9C126.5 61.344 129.948 64.774 134.41 64.774C138.856 64.774 142.32 61.344 142.32 51.9C142.32 42.465 138.856 39.025 134.41 39.025ZM134.41 60.595C133.068 60.595 132.616 59.501 132.616 51.9C132.616 44.3 133.068 43.205 134.41 43.205C135.752 43.205 136.188 44.299 136.188 51.9C136.188 59.5 135.752 60.595 134.41 60.595Z" fill="black"/>
</svg>
