<svg xmlns="http://www.w3.org/2000/svg" focusable="false" role="img" viewBox="0 0 200 100" fill="currentColor">
  <path fill-rule="evenodd" d="M37.168 40.853a11.092 11.092 0 015.423 12.26 10.93 10.93 0 01-10.594 8.24c-4.977.01-9.297-3.378-10.554-8.185-1.173-4.89.97-9.87 5.36-12.29-.668-1.324-.837-2.816-.426-4.227a14.798 14.798 0 00-8.998 16.694 14.838 14.838 0 0014.628 12.07c7.216-.017 13.34-5.092 14.65-12.145a14.796 14.796 0 00-9.084-16.648c.42 1.41.256 2.902-.404 4.23l-.001.001z" clip-rule="evenodd"/>
  <path fill-rule="evenodd" d="M28.97 45.27a5.871 5.871 0 00-2.72 6.724 5.93 5.93 0 005.734 4.465c2.736-.008 5.137-1.84 5.793-4.496a5.872 5.872 0 00-2.754-6.71c-.082 0-1.266-.82-1.497-2.07-.167-.9.243-1.825.905-2.49a3.604 3.604 0 00.82-3.817c-.583-1.326-1.83-2.235-3.323-2.23-1.41.003-2.65.918-3.228 2.247a3.605 3.605 0 00.838 3.812c.665.662 1.072 1.583.92 2.487-.25 1.47-1.49 2.077-1.49 2.077l.002.001zm27.37-2.5c-1.62 0-2.67-1.145-2.67-2.576 0-1.464 1.08-2.577 2.734-2.577 1.655 0 2.673 1.113 2.704 2.577 0 1.43-1.05 2.576-2.735 2.576h-.033zm-2.385 17.59V44.807h4.835V60.36h-4.835zm8.08-10.592c0-1.94-.064-3.563-.127-4.962h4.2l.22 2.163h.097c.636-1.02 2.194-2.514 4.803-2.514 3.18 0 5.567 2.13 5.567 6.712v9.193H71.96v-8.62c0-2.004-.7-3.372-2.45-3.372-1.336 0-2.13.923-2.48 1.814-.128.317-.16.763-.16 1.208v8.97h-4.835V49.768zM80.613 60.36V48.37h-2.068v-3.562h2.068V44.2c0-1.875.572-3.943 1.94-5.215 1.24-1.146 2.894-1.56 4.326-1.56 1.05 0 1.876.16 2.544.32l-.19 3.72a5.258 5.258 0 00-1.56-.222c-1.59 0-2.258 1.24-2.258 2.767v.796h3.117v3.562h-3.086V60.36h-4.834zm10.274-22.584h4.835V60.36h-4.835V37.776zm22.743 17.59c0 2.036.065 3.69.128 4.995h-4.198l-.223-2.195h-.096c-.603.955-2.067 2.546-4.865 2.546-3.182 0-5.472-1.972-5.472-6.775v-9.13h4.836v8.366c0 2.26.73 3.628 2.448 3.628 1.336 0 2.13-.923 2.417-1.686.127-.286.19-.636.19-1.05v-9.256h4.836v10.56l-.001-.003zm5.632-12.596c-1.622 0-2.673-1.145-2.673-2.576 0-1.464 1.082-2.577 2.735-2.577 1.654 0 2.673 1.113 2.704 2.577 0 1.43-1.05 2.576-2.737 2.576h-.03.001zm-2.386 17.59V44.807h4.835V60.36h-4.835zm13.487-19.785v4.23h3.467v3.563h-3.467v5.662c0 1.877.478 2.736 1.91 2.736.667 0 .985-.032 1.43-.127l.032 3.657c-.604.223-1.78.414-3.117.414-1.558 0-2.863-.54-3.658-1.336-.89-.922-1.336-2.417-1.336-4.612v-6.394h-2.068v-3.562h2.068V41.88l4.74-1.305h-.001zm8.017 2.195c-1.622 0-2.673-1.145-2.673-2.576 0-1.464 1.082-2.577 2.736-2.577 1.654 0 2.673 1.113 2.703 2.577 0 1.43-1.05 2.576-2.735 2.576h-.031zm-2.386 17.59V44.807h4.835V60.36h-4.836.001zm11.674-15.554l2.1 7.22c.38 1.305.636 2.545.89 3.786h.095c.255-1.273.51-2.45.86-3.786l2.003-7.22h5.09l-5.79 15.555h-4.835l-5.66-15.554h5.248l-.001-.001zm15.746 9.288c.16 2.036 2.132 2.99 4.39 2.99 1.654 0 2.99-.223 4.294-.668l.636 3.276c-1.59.67-3.53.986-5.63.986-5.28 0-8.302-3.053-8.302-7.952 0-3.944 2.48-8.302 7.857-8.302 5.025 0 6.933 3.913 6.933 7.76 0 .83-.095 1.56-.16 1.942l-10.02-.032h.002zm5.694-3.308c0-1.145-.51-3.15-2.704-3.15-2.067 0-2.894 1.877-3.022 3.15h5.726zm6.292-6.906h-1.197v-.844h3.41v.843h-1.21v3.594H175.4V43.88zm6.474 1.895c-.02-.533-.04-1.172-.04-1.823h-.013a26.223 26.223 0 01-.5 1.718l-.54 1.73H180l-.474-1.71a23.339 23.339 0 01-.402-1.738h-.013c-.02.6-.047 1.284-.073 1.836l-.086 1.686h-.928l.284-4.438h1.337l.434 1.488c.145.507.276 1.06.374 1.58h.03c.117-.513.268-1.092.42-1.593l.468-1.474h1.316l.237 4.438h-.974l-.072-1.7h-.004z" clip-rule="evenodd"/>
</svg>
