<svg xmlns="http://www.w3.org/2000/svg" width="200" height="100" fill="none">
  <g clip-path="url(#a)">
    <path fill="#000" fill-rule="evenodd"
      d="M55.209 8 43 17.019l12.209 9.726 12.34-9.726L55.209 8ZM43.145 29.318v1.142h3.596l.855 38.213h-4.451v.723h5.162l1.145-40.064h-6.307v-.014Zm10.048 0h-2.725l.724 40.063h.856l1.145-40.063Zm.726 0h2.87L55.5 69.381h-.725l-.855-40.063Zm6.322 0h-2.727l.725 40.063h.856l1.145-40.063Zm.71 0h6.322v1.142h-3.451l-.855 38.213h4.306v.723h-5.452l-.855-40.064-.015-.014ZM43.29 81.84h2.291v9.87H43.29v-9.87Zm3.871 5.015V84.57h2.016l.145.998a2.6 2.6 0 0 1 2.16-1.142c1.436 0 2.581.997 2.581 3.15v4.293h-2.29v-4.004c0-.852-.29-1.575-1.146-1.575-.58 0-1 .434-1.146.853 0 .058-.029.115-.058.188a.915.915 0 0 0-.087.39v4.148h-2.29v-5.015h.145-.03Zm10.049 3.584c-.58 0-1.435-.289-1.87-.578l-.436 1.43c.58.29 1.291.579 2.291.579 2.161 0 3.161-.997 3.161-2.284-.145-.997-.58-1.72-2.015-2.153-.855-.29-1.145-.578-1.145-.853 0-.274.29-.578.855-.578.566 0 1.29.29 1.58.434l.435-1.576c-.434-.289-1.145-.433-2.015-.433-1.726 0-2.871 1.141-2.871 2.428 0 .852.58 1.575 2.016 2.153.71.29 1 .434 1 .853 0 .289-.29.578-1 .578h.014Zm10.904-.997v2.283h-2.016l-.144-.997c-.29.434-1.001 1.142-2.291 1.142-1.436 0-2.581-.853-2.581-3.15V84.57h2.29v3.86c0 .996.29 1.719 1.146 1.719.58 0 1-.434 1.145-.723a.43.43 0 0 1 .073-.216c.029-.073.072-.145.072-.217V84.7H68.1v4.726l.015.015Zm1.435-4.87v7.153h2.291v-4.003c.145-.708.725-1.142 1.581-1.142h.58v-2.153h-.435c-.725 0-1.58.433-2.016 1.43l-.144-1.286h-1.871.014Zm11.194 5.433c0 .709 0 1.287.145 1.72h-2.015l-.145-.708c-.435.578-1.145.853-2.015.853-1.436 0-2.291-.997-2.291-2.154 0-1.864 1.725-2.717 4.161-2.717v-.144c0-.434-.145-.998-1.29-.998-.726 0-1.581.29-2.016.579l-.435-1.431c.435-.29 1.436-.723 2.726-.723 2.436 0 3.161 1.431 3.161 3.15v2.573h.014Zm-4.306-.433c0-.824.928-1.113 2.016-1.142v1.142c-.145.433-.58.853-1.146.853-.435 0-.856-.29-.856-.853h-.014Zm5.742-5.015v2.283h-.145v5.016h2.291v-4.148c0-.174.043-.29.087-.39.029-.073.058-.13.058-.189.145-.433.58-.852 1.145-.852.856 0 1.146.722 1.146 1.575v4.004h2.291v-4.293c0-2.154-1.146-3.15-2.581-3.15-1.145 0-1.87.722-2.16 1.141l-.146-.997H82.15h.029Zm13.644 7.01c-.434.144-1.145.289-2.015.289-2.291 0-3.872-1.431-3.872-3.715 0-2.153 1.436-3.859 4.162-3.859.58 0 1.29.145 1.725.29l-.29 1.72c-.115 0-.26-.03-.434-.059a4.6 4.6 0 0 0-.856-.086c-1.145 0-2.015.852-1.87 2.008 0 1.287.855 2.01 2.015 2.01.58 0 1-.145 1.29-.29l.145 1.72v-.029Zm4.597-1.287c-1 0-2.016-.578-2.016-1.43h4.452c.145-.145.145-.434.145-.853 0-1.72-.855-3.585-3.161-3.585-2.436 0-3.596 2.01-3.596 3.86 0 2.283 1.436 3.714 3.872 3.714 1 0 1.87-.145 2.58-.434l-.289-1.575c-.58.144-1.291.289-2.016.289l.029.014Zm-.725-4.292c1 0 1.291.852 1.291 1.43h-2.727c.145-.578.436-1.43 1.436-1.43Zm9.904-4.148h-2.292v9.87h2.292v-9.87Zm1.435 2.717v7.299h2.291v-4.727c.145-.433.58-.852 1.146-.852.855 0 1.145.722 1.145 1.575v4.004h2.291v-4.293c0-2.154-1.145-3.15-2.581-3.15-1.145 0-1.87.722-2.16 1.141l-.145-.997h-2.016.029Zm8.178 5.29c.435.289 1.291.578 1.871.578.725 0 1-.29 1-.578 0-.434-.29-.579-1-.853-1.436-.578-2.016-1.287-2.016-2.154 0-1.286 1.146-2.428 2.871-2.428.856 0 1.581.145 2.016.434l-.435 1.575c-.29-.144-1.001-.433-1.581-.433-.58 0-.855.289-.855.578s.29.578 1.145.852c1.436.434 1.871 1.142 2.016 2.154 0 1.286-1.001 2.284-3.161 2.284-1.001 0-1.726-.29-2.291-.579l.435-1.43h-.015Zm8.613-5.146v-2.009l-2.16.579v1.43h-1.001v1.576h1.001v3.006c0 .997.145 1.72.58 2.153.435.29 1 .578 1.725.578.58 0 1.146 0 1.436-.144v-1.72h-.711c-.58 0-.855-.434-.855-1.286V86.29h1.58v-1.575h-1.58l-.015-.015Zm5.032-2.139c0 .578-.435 1.142-1.146 1.142-.71 0-1.145-.578-1.145-1.142 0-.563.435-1.141 1.145-1.141.58 0 1.146.578 1.146 1.141Zm-2.291 2.01h2.291v7.153h-2.291v-7.154Zm6.177-1.865v2.009h1.58v1.575h-1.58v2.573c0 .852.29 1.286.855 1.286h.725v1.72c-.29.144-.855.144-1.435.144-.725 0-1.291-.289-1.726-.578-.435-.433-.58-1.141-.58-2.153v-3.006h-1V84.7h1v-1.43l2.161-.579v.015Zm9.337 9.018v-7.01h-2.29v4.293s-.044.145-.073.217c-.029.072-.072.145-.072.217-.145.289-.58.723-1.146.723-.855 0-1.145-.723-1.145-1.72v-3.86h-2.291v4.149c0 2.283 1.145 3.15 2.581 3.15 1.29 0 2.015-.722 2.291-1.141l.145.997h2.015l-.015-.015Zm4.017-9.018v2.009h1.58v1.575h-1.58v2.573c0 .852.29 1.286.855 1.286h.725v1.72c-.29.144-.869.144-1.435.144-.725 0-1.291-.289-1.726-.578-.435-.433-.579-1.141-.579-2.153v-3.006h-1.001V84.7h1.001v-1.43l2.146-.579.014.015Zm6.322 7.588c-1 0-2.015-.579-2.015-1.431H159v-.853c0-1.72-.855-3.584-3.161-3.584-2.436 0-3.596 2.009-3.596 3.859 0 2.283 1.436 3.714 3.872 3.714 1 0 1.87-.144 2.581-.434l-.291-1.575c-.58.145-1.29.29-2.015.29l.029.014Zm-.71-4.293c1 0 1.29.853 1.29 1.43h-2.726c.145-.577.435-1.43 1.436-1.43Z"
      clip-rule="evenodd" />
  </g>
  <defs>
    <clipPath id="a">
      <path fill="#fff" d="M43 8h116v84H43z" />
    </clipPath>
  </defs>
</svg>