<svg width="200" height="100" viewBox="0 0 200 100" fill="none" xmlns="http://www.w3.org/2000/svg">
<path fill-rule="evenodd" clip-rule="evenodd" d="M86.45 30.8321C89.938 30.8321 91.86 28.2521 91.86 25.5001C91.86 22.7421 89.998 20.9451 87.23 20.9451C84.402 20.9451 81.818 22.8631 81.818 26.5181C81.818 29.0951 83.744 30.8321 86.448 30.8321H86.45Z" fill="black"/>
<path fill-rule="evenodd" clip-rule="evenodd" d="M153.58 51.6301C152.376 54.6231 149.128 58.2201 146.242 58.2201C144.799 58.2201 144.316 57.4401 144.316 56.6001C144.316 53.3641 148.706 47.3721 148.706 41.3801C148.706 37.6651 146.121 36.2881 143.536 36.2881C141.91 36.2881 140.89 36.8841 140.89 36.8841C140.83 44.4941 135.414 57.4391 130.6 57.4391C129.817 57.4391 129.458 56.7791 129.458 56.0011C129.458 52.7651 134.031 46.4711 134.031 41.6211C134.031 37.8411 131.566 36.5241 128.919 36.5241C127.419 36.5241 125.792 37.1241 125.792 37.1241C125.982 41.5721 124.402 43.6561 121.912 50.8161C121.625 51.5731 120.056 56.4111 114.756 57.6111C117.366 53.7111 118.216 49.4111 118.216 45.3341C118.216 39.7021 115.506 35.4461 109.673 35.4461C103.896 35.4461 101.673 39.9391 101.673 39.9391C101.673 36.5841 98.547 35.5071 96.558 35.5071C94.632 35.5071 93.37 36.4641 93.37 36.4641C93.37 42.2181 92.46 47.4681 91.203 52.2261C89.697 55.0811 87.11 58.2201 84.528 58.2201C83.804 58.2201 83.264 57.9201 83.264 56.9601C83.264 53.9661 87.774 46.9531 87.774 41.1401C87.774 37.4861 85.251 36.1051 82.606 36.1051C81.1 36.1051 79.176 36.7651 79.176 36.7651C79.213 42.8981 77.133 48.0511 75.633 52.7891C74.935 55.0021 70.923 58.8171 66.06 58.8171C63.896 58.8171 62.873 57.6791 62.15 55.5231C66.9 53.9031 73.097 50.3691 73.097 43.5371C73.097 40.2421 71.295 37.7871 68.049 36.8271C68.599 36.2171 71.413 32.6921 71.413 27.7131C71.413 23.8181 68.889 21.5431 64.499 21.5431C50.481 21.5431 43.924 52.1051 43.924 60.1961C43.924 63.9111 46.271 65.2891 48.378 65.2891C50.002 65.2891 51.385 64.6891 51.385 64.6891C51.443 61.9941 52.228 57.7391 53.429 54.8621C54.389 60.1961 57.643 66.0091 64.619 66.0091C68.589 66.0091 72.019 64.6661 74.517 62.7571C75.357 64.9291 77.513 66.1291 80.737 66.1291C83.06 66.1291 85.247 65.5191 87.157 64.5541C85.417 69.3581 83.987 73.4291 83.987 76.7971C83.987 78.8351 85.312 80.0921 87.534 80.0921C93.734 80.0921 95.478 67.3861 98.367 54.8621C99.629 49.4101 102.753 42.5161 107.565 42.5161C109.135 42.5161 110.155 43.8381 110.155 45.8161C110.155 50.4261 107.089 59.1161 102.153 59.1161C99.808 59.1161 99.63 58.0401 99.63 58.0401C99.63 58.0401 97.874 58.8181 97.7 61.5741C97.564 63.8741 99.09 65.0341 101.8 65.5371C108.035 66.7001 118.383 63.5711 120.783 61.0541C121.508 64.3691 124.113 65.8541 126.267 65.8961C133.427 66.0361 136.197 61.0961 136.197 61.0961C136.382 63.6131 137.885 66.1301 142.817 66.1301C150.277 66.1301 156.293 59.8401 156.293 55.6441C156.293 52.5841 154.91 51.7481 153.585 51.6291L153.58 51.6301ZM62.625 29.6341C62.933 29.6341 63.229 30.0541 63.229 30.4721C63.229 34.9671 57.936 39.7021 55.591 41.5591C56.371 39.1611 60.523 29.6341 62.624 29.6341H62.625ZM55.41 50.3081C57.095 47.1931 59.92 43.7181 62.87 43.7181C64.13 43.7181 64.557 44.2551 64.557 44.9141C64.557 47.7341 59.86 50.1301 55.41 50.3081Z" fill="black"/>
<path fill-rule="evenodd" clip-rule="evenodd" d="M86.45 29.9161C89.938 29.9161 91.86 27.3361 91.86 24.5841C91.86 21.8261 89.998 20.0291 87.23 20.0291C84.402 20.0291 81.818 21.9461 81.818 25.6011C81.818 28.1781 83.744 29.9151 86.448 29.9151L86.45 29.9161Z" fill="black"/>
<path fill-rule="evenodd" clip-rule="evenodd" d="M153.58 50.713C152.376 53.707 149.128 57.305 146.242 57.305C144.799 57.305 144.316 56.523 144.316 55.685C144.316 52.448 148.706 46.455 148.706 40.465C148.706 36.749 146.121 35.372 143.536 35.372C141.91 35.372 140.89 35.968 140.89 35.968C140.83 43.578 135.414 56.523 130.6 56.523C129.817 56.523 129.458 55.865 129.458 55.086C129.458 51.85 134.031 45.556 134.031 40.706C134.031 36.926 131.566 35.609 128.919 35.609C127.419 35.609 125.792 36.209 125.792 36.209C125.982 40.656 124.402 42.739 121.912 49.899C121.625 50.657 120.056 55.495 114.756 56.695C117.366 52.795 118.216 48.495 118.216 44.418C118.216 38.785 115.506 34.528 109.673 34.528C103.896 34.528 101.673 39.022 101.673 39.022C101.673 35.667 98.547 34.59 96.558 34.59C94.632 34.59 93.37 35.547 93.37 35.547C93.37 41.3 92.46 46.55 91.203 51.307C89.697 54.163 87.11 57.302 84.528 57.302C83.804 57.302 83.264 57.002 83.264 56.042C83.264 53.047 87.774 46.034 87.774 40.222C87.774 36.567 85.251 35.186 82.606 35.186C81.1 35.186 79.176 35.846 79.176 35.846C79.213 41.978 77.133 47.131 75.633 51.869C74.935 54.083 70.923 57.899 66.06 57.899C63.896 57.899 62.873 56.759 62.15 54.604C66.9 52.984 73.097 49.45 73.097 42.618C73.097 39.323 71.295 36.868 68.049 35.908C68.599 35.298 71.413 31.773 71.413 26.794C71.413 22.899 68.889 20.624 64.499 20.624C50.481 20.624 43.924 51.186 43.924 59.277C43.924 62.993 46.271 64.371 48.378 64.371C50.002 64.371 51.385 63.771 51.385 63.771C51.443 61.076 52.228 56.821 53.429 53.944C54.389 59.278 57.643 65.091 64.619 65.091C68.589 65.091 72.019 63.748 74.517 61.839C75.357 64.011 77.513 65.211 80.737 65.211C83.06 65.211 85.247 64.601 87.157 63.636C85.417 68.439 83.987 72.51 83.987 75.878C83.987 77.916 85.312 79.173 87.534 79.173C93.734 79.173 95.478 66.467 98.367 53.943C99.629 48.491 102.753 41.597 107.565 41.597C109.135 41.597 110.155 42.92 110.155 44.897C110.155 49.509 107.089 58.197 102.153 58.197C99.808 58.197 99.63 57.122 99.63 57.122C99.63 57.122 97.874 57.899 97.7 60.655C97.564 62.955 99.09 64.115 101.8 64.618C108.035 65.782 118.383 62.653 120.783 60.136C121.508 63.451 124.113 64.936 126.267 64.978C133.427 65.118 136.197 60.178 136.197 60.178C136.382 62.695 137.885 65.212 142.817 65.212C150.277 65.212 156.293 58.922 156.293 54.726C156.293 51.666 154.91 50.83 153.585 50.711L153.58 50.713ZM62.625 28.72C62.933 28.72 63.229 29.14 63.229 29.557C63.229 34.052 57.936 38.787 55.591 40.644C56.371 38.246 60.523 28.719 62.624 28.719L62.625 28.72ZM55.41 49.39C57.095 46.275 59.92 42.8 62.87 42.8C64.13 42.8 64.557 43.337 64.557 43.996C64.557 46.816 59.86 49.212 55.41 49.39Z" fill="black"/>
</svg>
