<svg width="200" height="100" viewBox="0 0 200 100" fill="none" xmlns="http://www.w3.org/2000/svg">
<path fill-rule="evenodd" clip-rule="evenodd" d="M169.46 32.064C163.012 25.65 153.234 20.244 141.183 16.434C131.018 13.217 119.547 11.274 107.645 10.68C105.8 10.08 103.579 10.234 102.018 10.502C101.332 10.492 100.65 10.466 99.961 10.466H99.874C98.134 9.64599 95.882 9.99799 94.046 10.589C75.518 11.289 58.273 15.259 44.98 21.964C30.11 29.465 21.92 39.5 21.92 50.218C21.92 56.535 24.873 62.813 30.46 68.371C36.91 74.786 46.687 80.191 58.738 84.004C71.078 87.907 85.332 89.97 99.958 89.97C100.36 89.97 100.758 89.95 101.158 89.948C102.108 90.141 103.135 90.082 104.13 89.895C117.285 89.541 130.018 87.533 141.18 84.003C153.232 80.19 163.01 74.785 169.46 68.371C175.046 62.814 178 56.536 178 50.22C178 43.9 175.047 37.624 169.46 32.066V32.064ZM168.357 33.162C173.547 38.324 176.26 43.864 176.432 49.636H155.367C155.244 43.413 153.141 37.408 149.22 31.974H167.11C167.538 32.366 167.955 32.762 168.357 33.162ZM125.84 76.448C125.867 76.36 125.9 76.232 125.944 76.068C126.259 74.886 127.096 71.742 129.481 69.318C129.871 68.923 130.198 68.738 130.514 68.738C130.774 68.738 131.224 68.86 131.362 69.673C131.426 70.803 131.378 73.561 129.716 75.866C129.156 76.646 127.728 78.459 126.622 78.459C126.562 78.459 126.505 78.453 126.45 78.444C126.195 78.4 125.98 78.254 125.847 78.036C125.57 77.581 125.69 76.921 125.841 76.446L125.84 76.448ZM122.632 82.202C121.988 82.749 120.374 84.02 119.292 84.02C119.122 84.02 118.97 83.99 118.835 83.932C118.6 83.83 118.427 83.639 118.348 83.396C118.188 82.888 118.463 82.273 118.723 81.846C118.773 81.766 118.836 81.651 118.916 81.504C119.509 80.428 121.081 77.57 123.983 75.781C124.77 75.296 125.299 75.469 125.493 75.678C125.681 75.878 125.756 76.171 125.726 76.573C125.513 77.688 124.799 80.36 122.632 82.203V82.202ZM99.962 84.152C81.02 84.152 65.612 68.844 65.612 50.029C65.612 31.212 81.02 15.904 99.962 15.904C118.902 15.904 134.312 31.212 134.312 50.028C134.312 68.842 118.902 84.148 99.962 84.148V84.152ZM64.71 38.57C64.727 38.663 64.757 38.793 64.795 38.957C65.095 40.263 65.795 43.321 64.815 46.567C64.735 46.832 64.493 47.641 63.827 47.641C63.527 47.641 63.251 47.471 62.984 47.121C62.4 46.146 61.154 43.675 61.548 40.874C61.693 39.851 62.146 37.434 63.238 37.084C63.328 37.054 63.421 37.04 63.512 37.04C63.789 37.04 64.46 37.19 64.712 38.57H64.71ZM64.87 31.998C65.2561 31.038 66.278 28.801 67.422 28.721H67.432C67.742 28.721 67.959 28.818 68.128 28.998C68.486 29.378 68.524 30.032 68.492 30.513C68.486 30.606 68.484 30.738 68.482 30.905C68.46 32.129 68.402 35.378 66.669 38.297C66.459 38.652 66.121 39.125 65.626 39.125C65.261 39.125 64.969 38.88 64.759 38.399C64.429 37.314 63.814 34.623 64.871 31.997L64.87 31.998ZM61.395 55.542C61.565 55.37 61.781 55.28 62.02 55.28C62.575 55.28 63.074 55.77 63.394 56.18C63.451 56.253 63.539 56.353 63.648 56.48C64.45 57.412 66.58 59.886 67.233 63.215C67.346 63.795 67.299 64.185 67.085 64.442C66.94 64.617 66.727 64.712 66.483 64.712C66.3 64.712 66.1 64.662 65.87 64.554C64.897 63.961 62.637 62.35 61.673 59.682C61.323 58.709 60.59 56.359 61.395 55.542ZM60.465 50.288C60.358 49.262 60.215 46.811 61.192 46.211C61.777 45.851 62.508 46.261 62.978 47.301C63.018 47.388 63.078 47.508 63.154 47.659C63.758 48.855 65.174 51.654 65.004 55.031C64.952 56.106 64.496 56.331 64.124 56.331C63.884 56.331 63.634 56.224 63.362 56.006C62.562 55.198 60.758 53.098 60.466 50.289L60.465 50.288ZM63.33 35.588C60.277 37.532 60.632 43.08 60.917 44.718C59.715 45.978 59.487 47.854 59.644 49.634H46.114C46.244 43.397 48.48 37.378 52.644 31.972H64.094C63.594 33.452 63.38 34.872 63.329 35.587L63.33 35.588ZM59.8 50.798C60.058 52.252 60.504 53.521 60.78 54.148C58.97 57.281 61.887 62.043 62.908 63.365C62.416 65.095 63.1581 66.928 64.188 68.459H52.647C48.484 63.054 46.249 57.035 46.117 50.799H59.803L59.8 50.798ZM63.848 64.574C64.014 64.294 64.293 64.142 64.631 64.142C65.108 64.142 65.607 64.452 65.941 64.714C66.014 64.771 66.124 64.85 66.261 64.947C67.356 65.725 69.919 67.551 71.351 70.617C71.524 70.984 71.721 71.517 71.461 71.921C71.357 72.084 71.141 72.279 70.715 72.279C70.607 72.279 70.485 72.267 70.353 72.241C69.268 71.897 66.69 70.871 65.115 68.517C64.54 67.657 63.265 65.555 63.848 64.573V64.574ZM68.395 72.744C68.595 72.082 69.415 71.912 70.461 72.384C70.545 72.424 70.669 72.472 70.825 72.534C71.97 72.987 75.01 74.194 77.145 76.837C77.415 77.172 77.751 77.672 77.538 78.141C77.395 78.455 77.068 78.626 76.565 78.649L76.538 78.651L76.512 78.649C75.427 78.574 72.677 78.192 70.575 76.276C69.81 75.578 68.065 73.836 68.395 72.743V72.744ZM76.055 78.697C76.249 78.697 76.467 78.717 76.701 78.761C76.793 78.777 76.926 78.796 77.095 78.818C78.428 79.005 81.552 79.436 84.257 81.491C84.599 81.751 85.045 82.158 84.951 82.665C84.888 83.003 84.611 83.245 84.128 83.388C83.662 83.472 82.998 83.558 82.193 83.558C80.547 83.558 79.01 83.195 77.748 82.508C76.838 82.014 74.726 80.74 74.783 79.601C74.803 79.164 75.149 78.697 76.053 78.697H76.055ZM74.105 23.589C74.077 23.679 74.041 23.809 73.998 23.973C73.652 25.265 72.84 28.293 70.461 30.707C70.071 31.101 69.744 31.284 69.428 31.284C69.171 31.284 68.718 31.164 68.58 30.354C68.52 29.221 68.572 26.464 70.23 24.167C70.792 23.39 72.22 21.58 73.324 21.58C73.384 21.58 73.44 21.585 73.494 21.594C73.75 21.638 73.964 21.784 74.099 22.001C74.379 22.455 74.257 23.115 74.106 23.589H74.105ZM77.32 17.839C78.06 17.211 80.102 15.679 81.11 16.117C81.346 16.219 81.52 16.41 81.597 16.653C81.757 17.16 81.48 17.773 81.219 18.199C81.171 18.279 81.106 18.395 81.025 18.543C80.378 19.717 78.861 22.465 75.963 24.247C75.587 24.479 75.289 24.587 75.025 24.587C74.735 24.587 74.555 24.457 74.455 24.349C74.268 24.149 74.192 23.857 74.223 23.455C74.436 22.342 75.151 19.677 77.319 17.839H77.32ZM135.793 43.694C136.033 43.694 136.283 43.8 136.553 44.018C137.355 44.825 139.16 46.918 139.455 49.73C139.563 50.756 139.708 53.206 138.733 53.805C138.59 53.895 138.435 53.939 138.273 53.939C137.773 53.939 137.3 53.505 136.947 52.719C136.907 52.633 136.847 52.514 136.771 52.365C136.165 51.17 134.746 48.373 134.911 44.995C134.963 43.921 135.419 43.695 135.791 43.695L135.793 43.694ZM132.678 36.806C132.564 36.226 132.61 35.836 132.824 35.579C133.078 35.273 133.504 35.216 134.039 35.466C135.014 36.059 137.275 37.669 138.242 40.334C138.594 41.307 139.327 43.658 138.524 44.476C138.354 44.649 138.137 44.739 137.898 44.739C137.345 44.739 136.844 44.252 136.523 43.842C136.463 43.767 136.377 43.666 136.267 43.538C135.387 42.52 133.333 40.134 132.677 36.805L132.678 36.806ZM139.128 45.882C140.953 42.748 138.018 38.004 136.994 36.682C137.454 35.099 136.874 33.425 135.988 31.97H147.275C151.437 37.376 153.673 43.395 153.805 49.632H140.185C139.94 48.012 139.432 46.567 139.129 45.882H139.128ZM136.068 35.452C135.902 35.732 135.623 35.887 135.283 35.887C134.803 35.887 134.305 35.575 133.971 35.314C133.898 35.257 133.788 35.179 133.651 35.081C132.553 34.301 129.983 32.474 128.546 29.401C128.374 29.034 128.176 28.501 128.436 28.096C128.566 27.889 128.884 27.646 129.544 27.774C130.632 28.118 133.214 29.144 134.796 31.501C135.372 32.363 136.649 34.471 136.066 35.453L136.068 35.452ZM131.508 27.277C131.386 27.681 131.025 27.92 130.538 27.92C130.224 27.92 129.854 27.827 129.442 27.642C129.354 27.602 129.228 27.552 129.069 27.49C127.819 26.994 124.889 25.83 122.754 23.193C122.484 22.858 122.147 22.358 122.36 21.888C122.503 21.575 122.83 21.404 123.334 21.381C124.471 21.456 127.224 21.835 129.326 23.748C130.093 24.446 131.84 26.188 131.509 27.278L131.508 27.277ZM123.841 21.333C123.647 21.333 123.431 21.313 123.197 21.269C123.102 21.253 122.967 21.234 122.8 21.211C121.465 21.027 118.34 20.597 115.635 18.545C115.291 18.285 114.845 17.879 114.938 17.372C115.001 17.032 115.278 16.789 115.761 16.646C116.231 16.561 116.901 16.476 117.707 16.476C119.35 16.476 120.884 16.836 122.143 17.52C123.055 18.013 125.169 19.284 125.113 20.424C125.091 20.864 124.743 21.332 123.84 21.332L123.841 21.333ZM131.444 69.513C131.451 69.42 131.452 69.287 131.454 69.119C131.479 67.779 131.534 64.647 133.262 61.729C133.472 61.372 133.81 60.899 134.305 60.899C134.557 60.899 134.911 61.024 135.172 61.624C135.504 62.708 136.122 65.4 135.066 68.024C134.682 68.984 133.663 71.221 132.519 71.304L132.452 71.307C132.205 71.307 131.982 71.211 131.812 71.029C131.452 70.649 131.415 69.996 131.445 69.513H131.444ZM135.221 61.446C135.204 61.352 135.174 61.22 135.136 61.056C134.836 59.752 134.136 56.699 135.109 53.462C135.189 53.196 135.434 52.388 136.099 52.388C136.397 52.388 136.672 52.558 136.939 52.906C137.524 53.88 138.769 56.346 138.379 59.141C138.236 60.161 137.786 62.574 136.696 62.926C136.606 62.956 136.511 62.971 136.42 62.971C136.144 62.971 135.475 62.821 135.223 61.445L135.221 61.446ZM136.596 64.439C139.656 62.496 139.293 56.943 139.006 55.302C140.118 54.138 140.396 52.448 140.306 50.796H153.806C153.67 57.182 151.316 63.192 147.263 68.456H135.691C136.291 66.838 136.541 65.219 136.596 64.439ZM140.708 17.909C151.006 21.166 159.591 25.591 165.778 30.806H148.344C147.317 29.491 146.181 28.212 144.937 26.976C139.901 21.966 133.213 17.81 125.594 14.956C124.227 14.444 122.827 13.976 121.404 13.548C128.18 14.538 134.676 16.001 140.707 17.908L140.708 17.909ZM125.045 16.409C132.457 19.186 138.955 23.219 143.835 28.073C144.727 28.963 145.561 29.873 146.34 30.806H135.186C134.264 29.608 133.252 28.666 132.704 28.233C132.824 24.63 128.024 21.773 126.504 21.076C125.751 17.55 120.419 15.95 118.774 15.636C118.488 15.036 118.064 14.536 117.552 14.116C120.128 14.746 122.637 15.506 125.045 16.41V16.409ZM113.68 13.179C114.685 13.443 117.046 14.177 117.266 15.299C117.316 15.549 117.256 15.799 117.099 15.999C116.772 16.421 116.107 16.544 115.607 16.573C115.513 16.578 115.379 16.593 115.209 16.61C114.723 16.66 113.909 16.745 112.939 16.745C110.965 16.745 109.169 16.4 107.601 15.723C107.203 15.551 106.671 15.263 106.641 14.747C106.621 14.404 106.831 14.101 107.266 13.847C108.091 13.484 109.678 12.912 111.561 12.912C112.296 12.912 113.011 13.002 113.681 13.178L113.68 13.179ZM104.286 10.984H104.412C105.452 11.002 107.918 11.154 108.402 12.188C108.512 12.42 108.514 12.676 108.41 12.91C108.193 13.396 107.577 13.674 107.098 13.82C107.008 13.85 106.882 13.894 106.723 13.95C105.718 14.31 103.626 15.06 101.095 15.06C100.423 15.06 99.762 15.005 99.128 14.898C98.701 14.826 98.115 14.672 97.962 14.18C97.858 13.85 97.99 13.508 98.352 13.16C99.232 12.48 101.494 10.984 104.286 10.984ZM94.953 11.056C95.843 10.856 96.709 10.744 97.393 10.744C98.263 10.744 98.828 10.92 99.12 11.281C99.2821 11.481 99.344 11.731 99.3 11.983C99.204 12.506 98.672 12.921 98.243 13.177C98.163 13.227 98.049 13.301 97.907 13.395C96.782 14.135 94.15 15.87 90.75 16.11C90.657 16.116 90.568 16.12 90.488 16.12C90.291 16.12 89.686 16.12 89.434 15.666C89.271 15.373 89.321 15.016 89.581 14.603C90.291 13.716 92.175 11.683 94.953 11.056ZM88.957 12.369C89.317 12.369 89.607 12.451 89.819 12.612C90.024 12.768 90.146 12.995 90.163 13.25C90.196 13.782 89.779 14.31 89.423 14.66C89.358 14.725 89.268 14.822 89.156 14.945C88.321 15.845 86.108 18.239 82.861 19.281C82.576 19.373 82.339 19.417 82.136 19.417C81.738 19.417 81.526 19.243 81.42 19.095C81.24 18.849 81.223 18.522 81.364 18.098C81.839 17.068 83.177 14.648 85.722 13.381C86.332 13.076 87.872 12.368 88.955 12.368L88.957 12.369ZM82.165 15.073C78.588 14.533 75.119 18.911 74.24 20.323C70.65 20.67 68.382 25.715 67.87 27.293C66.304 27.823 65.25 29.253 64.552 30.806H53.58C54.36 29.874 55.193 28.962 56.087 28.073C60.967 23.219 67.464 19.186 74.875 16.41C77.699 15.352 80.665 14.49 83.711 13.807C83.027 14.301 82.484 14.767 82.169 15.074L82.165 15.073ZM59.209 17.908C65.216 16.008 71.684 14.55 78.431 13.56C71.954 15.516 66.001 18.365 60.871 22.023C57.166 24.667 54.049 27.623 51.561 30.806H34.143C40.331 25.591 48.916 21.166 59.213 17.908H59.209ZM31.563 33.158C31.966 32.758 32.381 32.362 32.811 31.97H50.69C46.798 37.37 44.682 43.382 44.557 49.632H23.492C23.662 43.86 26.377 38.32 31.566 33.158H31.563ZM31.563 67.27C26.373 62.107 23.66 56.567 23.489 50.796H44.553C44.676 57.019 46.778 63.024 50.7 68.456H32.81C32.38 68.066 31.966 67.67 31.563 67.27ZM59.209 82.52C48.912 79.26 40.327 74.837 34.139 69.622H51.574C52.601 70.936 53.737 72.215 54.98 73.452C60.016 78.462 66.704 82.617 74.323 85.472C75.69 85.982 77.09 86.452 78.513 86.88C71.737 85.89 65.241 84.427 59.209 82.52ZM74.872 84.018C67.462 81.241 60.964 77.208 56.084 72.353C55.19 71.463 54.356 70.553 53.578 69.623H65.068C65.886 70.603 66.721 71.367 67.2 71.747C67.04 75.369 71.872 78.27 73.398 78.97C74.163 82.483 79.495 84.12 81.136 84.435C81.58 85.345 82.343 86.015 83.24 86.517C80.357 85.851 77.552 85.022 74.873 84.019L74.872 84.018ZM86.212 86.854C85.206 86.589 82.846 85.851 82.629 84.734C82.579 84.484 82.639 84.234 82.797 84.032C83.125 83.612 83.789 83.49 84.289 83.462C84.382 83.457 84.515 83.442 84.683 83.425C85.166 83.375 85.973 83.291 86.94 83.291C88.917 83.291 90.716 83.635 92.285 84.316C92.6821 84.489 93.213 84.778 93.243 85.293C93.263 85.637 93.053 85.938 92.617 86.19C91.794 86.552 90.209 87.12 88.333 87.12C87.596 87.12 86.883 87.03 86.211 86.854H86.212ZM95.607 89.056H95.473C94.435 89.036 91.969 88.883 91.487 87.851C91.379 87.618 91.3771 87.361 91.48 87.129C91.6971 86.644 92.313 86.366 92.792 86.219C92.882 86.191 93.009 86.145 93.168 86.089C94.173 85.731 96.262 84.986 98.785 84.986C99.4591 84.986 100.122 85.041 100.758 85.149C101.186 85.222 101.771 85.376 101.924 85.869C102.026 86.197 101.894 86.539 101.534 86.889C100.652 87.565 98.3941 89.056 95.608 89.056H95.607ZM104.995 88.99C104.105 89.192 103.235 89.304 102.553 89.304C101.683 89.304 101.121 89.129 100.83 88.768C100.668 88.568 100.605 88.318 100.65 88.068C100.744 87.544 101.276 87.128 101.704 86.872C101.786 86.824 101.899 86.749 102.041 86.655C103.164 85.913 105.794 84.178 109.191 83.935C109.285 83.927 109.374 83.925 109.454 83.925C109.652 83.925 110.256 83.925 110.509 84.377C110.672 84.669 110.623 85.027 110.364 85.437C109.654 86.327 107.77 88.361 104.994 88.989L104.995 88.99ZM110.987 87.678C110.627 87.678 110.337 87.596 110.127 87.436C109.92 87.279 109.799 87.053 109.782 86.796C109.747 86.266 110.165 85.736 110.52 85.386C110.586 85.319 110.676 85.222 110.79 85.099C111.622 84.195 113.837 81.797 117.085 80.749C117.927 80.477 118.365 80.711 118.527 80.933C118.707 81.18 118.725 81.506 118.587 81.933C118.11 82.963 116.774 85.387 114.227 86.659C113.614 86.966 112.072 87.679 110.987 87.679V87.678ZM117.721 84.953C121.321 85.548 124.723 81.135 125.607 79.713C129.253 79.445 131.557 74.321 132.073 72.729C133.498 72.243 134.495 71.011 135.188 69.622H146.33C139.488 77.816 128.444 84.035 115.328 86.812C116.414 86.119 117.283 85.382 117.722 84.952L117.721 84.953ZM121.375 86.888C122.81 86.458 124.218 85.986 125.595 85.471C133.213 82.617 139.901 78.461 144.935 73.451C146.18 72.215 147.315 70.936 148.343 69.621H165.811C156.021 77.878 140.187 84.143 121.375 86.888ZM167.135 68.458H149.22C153.14 63.024 155.244 57.018 155.367 50.796H176.431C176.239 57.182 172.894 63.192 167.141 68.456L167.135 68.458Z" fill="black"/>
<path fill-rule="evenodd" clip-rule="evenodd" d="M83.22 35.456C79.777 39.342 77.687 44.443 77.687 50.026C77.687 55.24 79.507 60.031 82.552 63.806C84.772 65.558 85.122 64.169 85.122 62.98V36.413C85.122 34.827 84.057 34.696 83.222 35.456H83.22ZM86.637 33.27C86.124 33.117 85.529 33.272 85.474 33.93C85.441 34.325 86.204 34.985 86.204 35.578V63.948C86.204 65.4 85.408 65.003 85.374 65.795C85.336 66.718 86.437 66.51 86.704 66.421C87.002 66.324 87.401 65.697 87.401 64.841V35.38C87.401 34.325 87.301 33.467 86.638 33.27H86.637ZM99.037 48.1L94.513 51.932V65.147C94.513 67.923 98.703 72.085 102.097 71.937C102.961 71.953 103.497 71.925 105.165 71.527C106.353 71.094 110.345 69.641 107.683 64.487C107.55 64.619 99.037 48.099 99.037 48.099V48.1ZM94.512 40.555L104.682 32.105C106.277 30.785 106.582 29.363 103.802 28.225C102.556 28.009 101.272 27.895 99.962 27.895C98.234 27.879 94.512 29.465 94.512 33.293V40.555Z" fill="black"/>
<path fill-rule="evenodd" clip-rule="evenodd" d="M108.496 30.6799C108.616 30.0439 108.584 29.7139 107.964 29.5919C107.632 29.5249 107.134 29.8219 107.134 30.2839C107.134 30.7439 106.736 31.7999 106.204 32.1939L93.458 42.9399V33.1179C93.504 31.1339 94.355 29.8879 94.952 29.3279C95.115 29.1759 95.178 28.9479 95.086 28.7339C94.886 28.2739 94.262 28.5119 93.692 28.9639C92.862 29.6239 92.264 31.4039 92.264 32.8539V45.4439L107.136 32.9859C107.668 32.5909 108.366 31.3719 108.498 30.6789L108.496 30.6799Z" fill="black"/>
<path fill-rule="evenodd" clip-rule="evenodd" d="M99.96 17.188C81.697 17.188 66.89 31.891 66.89 50.028C66.89 68.165 81.697 82.868 99.96 82.868C118.225 82.868 133.032 68.165 133.032 50.028C133.032 31.891 118.225 17.188 99.962 17.188H99.96ZM123.1 29.232C123.524 29.697 123.685 30.27 123.858 30.46C123.878 30.482 123.911 30.504 123.936 30.518C124.041 30.578 124.156 30.618 124.238 30.708C124.585 31.088 124.188 32.098 123.841 32.411C123.587 32.641 123.226 32.657 123.021 32.431C122.624 31.994 123.107 30.981 122.511 30.327C122.273 30.067 121.991 30.011 121.778 30.203C121.068 30.84 123.514 32.86 121.861 34.345C120.874 35.231 119.363 34.961 118.207 33.692C117.572 32.995 117.013 31.985 117.04 31.589C117.05 31.233 117.45 30.553 117.84 30.203C118.09 29.98 118.314 29.957 118.48 30.141C118.744 30.431 118.486 30.983 118.395 31.294C118.293 31.708 118.48 32.282 118.847 32.684C119.149 33.014 119.495 33.126 119.687 32.954C120.162 32.528 119.141 31.434 119.139 30.256C119.135 29.643 119.354 29.076 119.716 28.75C120.624 27.935 122.104 28.143 123.099 29.236L123.1 29.232ZM123.485 50.029C123.485 62.934 112.952 73.397 99.961 73.397C86.971 73.397 76.441 62.934 76.441 50.027C76.441 37.12 86.971 26.657 99.961 26.657C112.953 26.657 123.486 37.12 123.486 50.027L123.485 50.029ZM115.771 26.796C116.581 25.698 116.691 25.449 116.531 25.039C116.419 24.757 116.415 24.649 116.517 24.509C116.867 24.034 118.23 24.954 118.57 25.201C119.428 25.824 119.76 26.337 119.53 26.651C119.44 26.774 119.323 26.819 119.168 26.789L118.971 26.765C118.656 26.712 118.404 26.941 117.568 28.077C117.494 28.177 117.421 28.277 117.361 28.374L116.671 29.344C116.254 29.927 116.221 30.068 116.396 30.394C116.511 30.608 116.514 30.751 116.411 30.889C116.016 31.426 114.797 30.553 114.387 30.255C113.514 29.621 113.212 29.178 113.437 28.871C113.545 28.725 113.642 28.691 113.907 28.717C114.233 28.741 114.373 28.631 114.927 27.913L115.619 27.003L115.772 26.796H115.771ZM106.301 25.536C106.396 25.306 106.596 25.276 106.804 25.246C107.124 25.203 107.361 24.808 107.964 23.358C108.302 22.548 108.521 21.825 108.52 21.506C108.54 21.154 107.998 20.941 108.148 20.581C108.328 20.151 108.778 20.161 109.902 20.624C110.415 20.834 110.515 20.918 110.702 21.292L112.07 24.047C112.192 24.303 112.3 24.461 112.38 24.494C112.54 24.56 112.686 24.434 112.82 24.109C113.12 23.389 113.133 23.187 112.914 22.943C112.737 22.747 112.696 22.596 112.764 22.429C112.934 22.025 113.281 22.013 114.184 22.385C115.182 22.795 115.446 23.059 115.281 23.453C115.198 23.656 115.041 23.736 114.778 23.741C114.414 23.745 114.238 23.971 113.856 24.885L113.27 26.29L112.924 27.116C112.437 28.283 112.144 28.616 111.764 28.459C111.534 28.365 111.444 28.132 111.344 27.926L109.73 24.586C109.625 24.366 109.502 24.216 109.387 24.166C109.21 24.094 109.023 24.296 108.821 24.778C108.488 25.578 108.467 25.805 108.691 26.062C108.861 26.255 108.891 26.38 108.816 26.557C108.656 26.944 108.12 26.96 107.253 26.604C106.51 26.298 106.151 25.894 106.301 25.534V25.536ZM97.661 24.539C98.071 24.437 98.197 24.304 98.646 23.492L99.418 22.115C99.988 21.112 100.143 20.725 100.192 20.223C100.267 19.429 100.63 19.077 101.317 19.131C101.812 19.169 102.231 19.461 102.535 19.971C102.865 20.511 103.255 21.388 103.715 22.605L104.453 24.549C104.587 24.912 104.648 24.984 104.875 25.039C105.091 25.085 105.205 25.209 105.192 25.389C105.154 25.852 104.635 25.992 103.396 25.895C102.776 25.845 102.13 25.757 101.829 25.685C101.539 25.605 101.343 25.409 101.359 25.191C101.377 24.973 101.449 24.913 101.733 24.839C101.881 24.804 101.963 24.725 101.973 24.619C101.993 24.375 101.85 24.239 101.499 24.193C101.186 24.139 100.873 24.096 100.559 24.071C99.691 24.001 99.562 24.059 99.529 24.485C99.507 24.75 100.097 24.682 100.066 25.08C100.036 25.45 99.583 25.595 98.678 25.524C97.63 25.442 97.268 25.27 97.3 24.891C97.315 24.694 97.398 24.615 97.663 24.541L97.661 24.539ZM88.907 20.966C90.091 20.661 90.505 20.692 90.617 21.123C90.675 21.343 90.505 21.525 90.561 21.737C90.594 21.867 91.527 23.351 91.767 23.289C91.887 23.259 91.964 23.062 92.007 22.697L92.06 22.145C92.06 22.105 92.058 22.065 92.05 22.039C92.046 22.019 92.03 21.995 92.002 21.963L91.792 21.683C91.492 21.26 91.075 21.476 90.959 21.035C90.862 20.668 91.413 20.32 92.533 20.031C93.689 19.731 94.239 19.757 94.336 20.125C94.412 20.419 94.036 20.565 94.108 20.841C94.191 21.161 94.593 21.531 94.808 21.788C95.182 22.23 95.258 22.288 95.386 22.256C95.516 22.222 95.559 22.084 95.596 21.584L95.654 20.902C95.669 20.692 95.664 20.557 95.641 20.474C95.605 20.336 95.554 20.29 95.393 20.284C95.133 20.271 94.943 20.144 94.893 19.951C94.798 19.593 95.13 19.351 96.019 19.121C96.704 18.945 97.095 19.041 97.189 19.399C97.231 19.565 97.191 19.673 97.006 19.947C96.868 20.139 96.859 20.181 96.79 20.747L96.55 23.037L96.353 24.587C96.213 25.634 96.111 25.847 95.713 25.949C95.343 26.045 95.103 25.959 94.858 25.629L93.41 23.759C93.246 23.545 93.22 23.522 93.127 23.546C93.007 23.576 92.984 23.642 92.892 24.343L92.668 26.019C92.59 26.627 92.475 26.794 92.05 26.904C91.67 27.001 91.445 26.894 91.14 26.481L88.37 22.694C88.184 22.438 88.143 22.39 88.05 22.374C87.807 22.319 87.6 22.244 87.53 21.978C87.428 21.583 87.916 21.221 88.906 20.965L88.907 20.966ZM84.41 23.12C85.316 22.57 85.922 22.46 86.127 22.794C86.207 22.924 86.204 23.048 86.117 23.179L86.019 23.349C85.849 23.619 85.966 23.939 86.704 25.141C86.769 25.246 86.834 25.351 86.902 25.444L87.542 26.451C87.924 27.055 88.042 27.139 88.414 27.103C88.657 27.079 88.791 27.133 88.88 27.278C89.23 27.846 87.952 28.632 87.518 28.895C86.594 29.455 86.066 29.565 85.868 29.239C85.772 29.085 85.776 28.982 85.902 28.749C86.05 28.459 86 28.289 85.542 27.507L84.962 26.522L84.826 26.302C84.112 25.14 83.923 24.942 83.48 24.932C83.174 24.929 83.072 24.89 82.982 24.744C82.672 24.24 84.049 23.338 84.409 23.12H84.41ZM76.01 30.25C76.24 29.97 76.437 29.747 76.647 29.54C77.357 28.834 77.764 28.673 78.077 28.982C78.163 29.069 78.211 29.197 78.197 29.318C78.177 29.715 78.297 29.918 78.589 30.206C78.791 30.408 78.919 30.456 79.001 30.374C79.116 30.26 79.117 30.099 79.008 29.279C78.98 29.076 78.94 28.955 78.872 28.889C78.752 28.766 78.554 28.773 78.432 28.652C78.108 28.329 78.305 27.892 79.152 27.052C79.937 26.272 80.31 26.119 80.622 26.428C80.83 26.636 80.817 26.906 80.566 27.154C80.106 27.611 80.16 27.584 80.153 27.994C80.145 28.31 80.043 28.974 80.28 29.211C80.395 29.325 80.53 29.365 80.876 29.386L83.549 29.584C84.017 29.618 84.071 29.618 84.315 29.524C84.661 29.382 84.857 29.404 85.053 29.598C85.276 29.82 85.221 30.128 84.903 30.445L83.65 31.69C83.48 31.857 83.386 31.87 82.88 31.796C82.547 31.736 80.89 31.513 80.665 31.734C80.545 31.854 80.605 32.064 80.828 32.284C81.064 32.521 81.248 32.594 81.458 32.548C81.748 32.488 81.883 32.515 82.018 32.648C82.302 32.932 82.051 33.408 81.178 34.276C80.27 35.176 79.89 35.363 79.593 35.066C79.471 34.946 79.443 34.798 79.493 34.576C79.56 34.24 79.283 33.843 78.235 32.801C77.478 32.048 77.2 31.799 76.855 31.564C76.341 31.214 76.09 31.636 75.799 31.347C75.535 31.085 75.595 30.757 76.009 30.252L76.01 30.25ZM68.648 51.11C68.6 50.144 68.758 49.68 69.142 49.663C69.324 49.653 69.412 49.701 69.556 49.899C69.741 50.139 69.916 50.172 70.826 50.145L71.974 50.105L72.232 50.095C73.602 50.027 73.866 49.962 74.089 49.617C74.239 49.377 74.322 49.314 74.495 49.305C75.087 49.275 75.218 50.745 75.237 51.122C75.284 52.072 75.089 52.595 74.697 52.614C74.544 52.622 74.437 52.567 74.362 52.442L74.259 52.292C74.102 52.042 73.765 52 72.349 52.069C72.225 52.074 72.099 52.081 71.986 52.096L70.79 52.171C70.074 52.215 69.943 52.273 69.795 52.581C69.7 52.781 69.588 52.864 69.415 52.871C68.747 52.905 68.671 51.563 68.648 51.109V51.11ZM70.318 60.488C70.26 60.273 70.395 60.078 70.502 59.888L72.246 56.85C72.36 56.65 72.412 56.478 72.382 56.37C72.337 56.206 72.065 56.19 71.558 56.328C70.718 56.554 70.522 56.668 70.448 56.973C70.39 57.2 70.306 57.293 70.122 57.343C69.716 57.453 69.389 57.09 69.167 56.283C68.977 55.59 69.093 55.107 69.471 55.003C69.711 54.941 69.854 55.06 69.998 55.19C70.221 55.387 70.678 55.325 72.202 54.913C73.052 54.683 73.762 54.423 74.019 54.238C74.315 54.051 74.169 53.55 74.546 53.448C74.998 53.326 75.256 53.646 75.542 54.694C75.672 55.172 75.665 55.289 75.472 55.634L74.056 58.167C73.921 58.399 73.858 58.567 73.878 58.641C73.918 58.791 74.105 58.821 74.448 58.727C75.203 58.523 75.372 58.415 75.44 58.123C75.495 57.886 75.59 57.773 75.767 57.723C76.192 57.61 76.405 57.843 76.635 58.685C76.89 59.617 76.833 59.951 76.418 60.063C76.206 60.12 76.05 60.056 75.892 59.878C75.674 59.628 75.388 59.633 74.429 59.892L72.952 60.292L72.086 60.526C70.858 60.858 70.419 60.844 70.321 60.49L70.318 60.488ZM74.558 66.435C74.591 66.773 74.552 66.895 74.354 67.01C73.964 67.235 73.514 66.884 72.939 65.91C72.255 64.75 72.132 64.107 72.545 63.867C72.793 63.724 72.977 63.904 73.135 64.04C73.323 64.208 73.539 64.162 74.217 63.808L75.21 63.29C75.463 63.153 75.748 62.997 76.054 62.82C76.731 62.427 76.87 62.286 76.77 62.116C76.596 61.821 75.558 62.166 75.245 61.636C75.088 61.368 75.205 61.043 75.545 60.846C76.04 60.558 77.317 60.372 77.608 60.866C77.748 61.102 77.708 61.263 77.966 61.699L79.084 63.596C79.204 63.802 79.288 63.903 79.506 64.103C79.561 64.16 79.621 64.223 79.651 64.276C79.949 64.779 79.133 65.709 78.654 65.986C78.274 66.208 77.912 66.14 77.716 65.808C77.569 65.558 77.613 65.292 77.872 64.904C78.116 64.544 78.147 64.448 78.068 64.314C77.964 64.137 77.764 64.154 77.384 64.374L75.129 65.686C74.659 65.96 74.537 66.13 74.559 66.433L74.558 66.435ZM80.708 72.738C80.453 72.982 79.243 73.656 78.948 73.355C78.744 73.145 78.586 72.845 78.358 72.612L75.874 70.062C75.676 69.86 75.664 69.644 75.851 69.464C76.148 69.18 76.321 69.634 76.799 69.341C77.203 69.073 77.679 68.686 78.259 68.131C79.112 67.308 79.629 66.716 79.759 66.401C79.814 66.263 79.751 66.157 79.709 66.031C79.629 65.881 79.664 65.741 79.789 65.621C80.063 65.356 80.245 65.419 80.767 65.955L82.279 67.505C82.909 68.153 83.097 68.318 83.463 68.502C83.519 68.534 83.549 68.552 83.58 68.582C83.818 68.828 83.6 69.48 83.11 69.95C82.815 70.235 82.53 70.283 82.33 70.08C81.923 69.66 82.92 69.44 81.716 68.203C81.331 67.81 81.153 67.791 80.83 68.103L80.26 68.64C79.983 68.904 79.992 68.968 80.322 69.306C80.754 69.75 81.164 68.734 81.562 69.14C81.789 69.374 81.55 69.855 80.916 70.463C80.276 71.08 79.713 71.323 79.479 71.083C79.142 70.739 80.143 70.396 79.585 69.823C79.411 69.646 79.253 69.689 78.903 70.027C78.049 70.847 78.023 70.945 78.556 71.492C79.18 72.132 79.564 72.252 80.223 72.012C80.593 71.87 80.728 71.872 80.873 72.019C81.04 72.192 80.968 72.487 80.706 72.739L80.708 72.738ZM88.175 73.825C87.57 74.805 86.795 74.489 86.685 74.668C86.63 74.756 86.642 74.82 86.745 74.962C87.193 75.579 87.001 76.154 86.691 76.835C86.534 77.175 86.531 77.295 86.679 77.462C86.793 77.588 86.874 77.738 86.759 77.924C86.533 78.288 85.955 78.26 85.279 77.849C84.787 77.547 84.542 77.209 84.513 76.813C84.436 75.873 85.423 74.601 84.725 74.176C84.541 74.064 84.472 74.111 84.192 74.564C83.752 75.278 83.692 75.476 83.822 75.724C83.907 75.897 83.91 76.054 83.826 76.194C83.606 76.549 83.173 76.464 82.218 75.884C81.314 75.334 80.998 74.894 81.228 74.524C81.504 74.076 81.743 74.836 82.608 73.434L83.355 72.237L83.641 71.777C84.154 70.941 84.213 70.764 84.065 70.497C83.929 70.257 83.91 70.157 84 70.01C84.19 69.704 84.57 69.712 85.098 70.033C85.384 70.207 85.633 70.426 85.92 70.601C86.382 70.883 86.883 71.087 87.34 71.364C88.368 71.991 88.7 72.974 88.175 73.826V73.825ZM95.889 77.065L95.506 78.538L95.281 79.403C94.963 80.627 94.733 81.001 94.374 80.908C94.157 80.854 94.054 80.64 93.941 80.454L92.143 77.441C92.026 77.245 91.899 77.115 91.791 77.087C91.624 77.045 91.476 77.272 91.345 77.777C91.127 78.615 91.131 78.842 91.359 79.057C91.529 79.219 91.572 79.337 91.524 79.522C91.419 79.927 90.938 80.032 90.12 79.82C89.42 79.64 89.055 79.303 89.153 78.926C89.215 78.686 89.393 78.623 89.576 78.563C89.859 78.469 90.032 78.043 90.426 76.523C90.646 75.677 90.769 74.933 90.734 74.62C90.718 74.273 90.206 74.15 90.304 73.774C90.421 73.324 90.829 73.261 91.889 73.532C92.371 73.657 92.469 73.722 92.676 74.058L94.194 76.538C94.33 76.768 94.444 76.906 94.52 76.926C94.67 76.964 94.79 76.818 94.878 76.476C95.074 75.722 95.063 75.523 94.84 75.319C94.66 75.155 94.608 75.014 94.653 74.839C94.763 74.416 95.075 74.349 95.925 74.566C96.868 74.806 97.132 75.023 97.025 75.436C96.97 75.648 96.835 75.752 96.602 75.8C96.272 75.863 96.138 76.113 95.889 77.07V77.065ZM102.312 81.315C101.752 81.319 101.166 81.287 100.89 81.242C100.622 81.187 100.43 81.008 100.43 80.789C100.427 80.569 100.487 80.503 100.736 80.405C100.866 80.355 100.933 80.27 100.932 80.165C100.93 79.919 100.792 79.797 100.472 79.78C100.187 79.755 99.902 79.738 99.618 79.742C98.834 79.75 98.723 79.817 98.728 80.244C98.728 80.51 99.254 80.391 99.258 80.79C99.261 81.162 98.868 81.346 98.048 81.354C97.1 81.362 96.763 81.224 96.758 80.842C96.758 80.642 96.825 80.557 97.058 80.462C97.418 80.322 97.52 80.18 97.858 79.33L98.438 77.89C98.868 76.84 98.975 76.44 98.98 75.935C98.98 75.135 99.28 74.753 99.9 74.748C100.347 74.743 100.746 74.996 101.06 75.478C101.402 75.988 101.823 76.831 102.333 78.005L103.153 79.879C103.303 80.229 103.363 80.295 103.571 80.331C103.771 80.358 103.883 80.471 103.885 80.651C103.889 81.118 103.435 81.303 102.315 81.313L102.312 81.315ZM108.154 75.52L108.854 78.02C109 78.542 109.134 78.7 109.434 78.757C109.774 78.812 109.881 78.881 109.944 79.1C110.062 79.53 109.604 79.874 108.509 80.176C107.207 80.536 106.549 80.489 106.422 80.032C106.345 79.758 106.568 79.628 106.742 79.51C106.952 79.373 106.962 79.153 106.792 78.41L106.542 77.327C106.472 77.05 106.392 76.737 106.299 76.397C106.089 75.647 105.989 75.477 105.797 75.53C105.467 75.622 105.537 76.706 104.939 76.87C104.641 76.954 104.353 76.758 104.249 76.382C104.094 75.832 104.239 74.559 104.795 74.406C105.06 74.333 105.207 74.411 105.695 74.276L107.829 73.688C108.062 73.623 108.179 73.571 108.431 73.412C108.501 73.374 108.579 73.332 108.637 73.316C109.2 73.161 109.897 74.182 110.047 74.713C110.164 75.133 110.007 75.463 109.632 75.566C109.352 75.644 109.105 75.536 108.792 75.186C108.507 74.862 108.419 74.806 108.27 74.848C108.072 74.903 108.038 75.1 108.155 75.52H108.154ZM114.04 78.06C113.172 78.498 112.682 78.54 112.51 78.2C112.428 78.04 112.435 77.94 112.56 77.728C112.705 77.464 112.665 77.291 112.27 76.476L111.77 75.449L111.652 75.219C111.035 74.005 110.868 73.791 110.46 73.729C110.18 73.689 110.086 73.639 110.01 73.487C109.74 72.96 111.04 72.245 111.376 72.075C112.231 71.647 112.792 71.61 112.969 71.959C113.037 72.095 113.031 72.215 112.945 72.332L112.851 72.488C112.683 72.728 112.781 73.053 113.421 74.31C113.476 74.42 113.531 74.532 113.591 74.63L114.146 75.683C114.478 76.315 114.586 76.411 114.926 76.423C115.151 76.425 115.272 76.493 115.35 76.646C115.653 77.24 114.45 77.854 114.04 78.059V78.06ZM119.597 74.572C118.265 75.634 116.312 75.322 115.131 73.86C113.986 72.443 114.139 70.467 115.477 69.4C116.137 68.876 116.752 68.653 117.47 68.678C118.46 68.718 119.503 69.254 120.156 70.063C121.276 71.453 121.03 73.431 119.596 74.573L119.597 74.572ZM126.912 66.412C126.782 66.594 126.544 66.614 126.33 66.65L122.852 67.23C122.624 67.268 122.456 67.34 122.392 67.43C122.292 67.568 122.452 67.788 122.879 68.09C123.587 68.594 123.801 68.672 124.086 68.54C124.3 68.44 124.426 68.443 124.581 68.555C124.924 68.798 124.847 69.279 124.356 69.962C123.936 70.547 123.486 70.762 123.166 70.535C122.964 70.392 122.968 70.205 122.978 70.013C122.99 69.717 122.651 69.403 121.366 68.49C120.65 67.982 119.996 67.6 119.688 67.52C119.356 67.41 119.058 67.84 118.738 67.613C118.358 67.343 118.445 66.943 119.082 66.058C119.372 65.654 119.469 65.586 119.859 65.518L122.736 65.003C123.003 64.961 123.173 64.903 123.218 64.841C123.308 64.717 123.212 64.555 122.924 64.351C122.287 63.896 122.094 63.835 121.824 63.967C121.604 64.075 121.454 64.072 121.304 63.967C120.947 63.713 120.994 63.4 121.506 62.691C122.073 61.904 122.37 61.737 122.72 61.985C122.9 62.112 122.948 62.275 122.908 62.509C122.85 62.835 123.036 63.051 123.845 63.625L125.092 64.51L125.822 65.03C126.859 65.766 127.125 66.114 126.91 66.412H126.912ZM130.336 58.572C130.151 59.097 129.921 59.634 129.784 59.877C129.642 60.107 129.408 60.227 129.199 60.154C128.991 60.081 128.949 60.004 128.939 59.737C128.939 59.6 128.879 59.507 128.779 59.473C128.544 59.391 128.381 59.48 128.259 59.773C128.137 60.029 128.024 60.29 127.929 60.555C127.671 61.292 127.697 61.419 128.103 61.56C128.357 61.647 128.423 61.117 128.803 61.25C129.153 61.373 129.195 61.804 128.925 62.57C128.61 63.46 128.365 63.728 128.002 63.602C127.812 63.536 127.754 63.442 127.74 63.192C127.734 62.81 127.634 62.666 126.943 62.062L125.776 61.03C124.926 60.27 124.586 60.035 124.108 59.86C123.352 59.588 123.091 59.178 123.295 58.596C123.443 58.176 123.819 57.89 124.383 57.76C124.983 57.615 125.923 57.507 127.209 57.43L129.262 57.3C129.645 57.28 129.728 57.244 129.832 57.063C129.925 56.887 130.072 56.82 130.242 56.879C130.686 57.032 130.706 57.521 130.335 58.571L130.336 58.572ZM131.066 54.658C131.032 55.06 130.892 55.228 130.616 55.205C130.176 55.167 130.473 54.505 129.463 54.42L128.996 54.372C128.146 54.3 127.286 54.27 126.436 54.197C125.929 54.163 125.801 54.195 125.696 54.41C125.519 54.79 125.416 54.876 125.216 54.858C124.786 54.822 124.6 54.196 124.692 53.131C124.802 51.861 124.992 51.441 125.449 51.478C125.696 51.5 125.762 51.738 125.834 51.914C125.91 52.134 126.06 52.182 126.909 52.254L129.046 52.436C130.038 52.52 130.238 52.426 130.286 51.854C130.344 51.206 130.078 50.831 129.421 50.63C129.207 50.56 129.137 50.476 129.151 50.314C129.175 50.034 129.518 49.847 129.966 49.884C130.416 49.924 131.56 50.354 131.516 50.849C131.49 51.155 131.36 51.445 131.314 51.749L131.064 54.657L131.066 54.658Z" fill="black"/>
<path fill-rule="evenodd" clip-rule="evenodd" d="M99.7001 44.51L92.2471 50.79V65.406C92.3801 68.183 94.0191 70.504 95.0431 71.126C95.6411 71.491 96.9061 71.192 95.9731 70.366C95.1281 69.616 93.4451 67.589 93.4451 65.606V51.253L99.4351 46.227L109.352 65.14C110.117 66.828 109.884 68.183 109.818 68.845C109.751 69.505 110.882 69.44 111.115 68.348C111.25 67.718 110.999 66.035 110.683 65.406L99.7001 44.51ZM113.455 36.076L106.405 42.023C106.405 42.023 115.783 59.735 115.715 59.669C117.845 63.634 119.575 60.461 119.933 59.779C121.397 56.839 122.22 53.524 122.22 50.019C122.22 44.939 120.49 40.261 117.586 36.532C116.662 35.272 114.519 35.15 113.456 36.075L113.455 36.076Z" fill="black"/>
<path fill-rule="evenodd" clip-rule="evenodd" d="M115.035 60.7859L104.995 41.6319L112.375 35.4219C113.105 34.7959 113.595 34.3999 114.47 34.3999C114.89 34.3999 114.97 33.9429 114.935 33.8049C114.813 33.3179 114.759 33.4109 114.07 33.3429C112.807 33.5409 112.64 33.6399 111.644 34.4979L103.532 41.2349L114.47 62.1069C115.268 63.4609 116.963 64.1539 117.295 63.8899C117.628 63.6259 117.529 63.2299 117.395 62.9659C117.155 62.4899 116.231 62.9659 115.035 60.7859ZM101.34 23.0099C101.52 23.0239 101.59 22.9999 101.595 22.9249C101.615 22.6689 101.139 21.6679 100.938 21.6519C100.815 21.6419 100.731 21.7219 100.628 21.9419C100.518 22.1149 100.24 22.5889 100.223 22.7969C100.215 22.8919 100.261 22.9249 100.423 22.9369L101.339 23.0089L101.34 23.0099ZM85.1541 72.9229C85.0491 73.0929 85.0111 73.2029 85.1871 73.3109C85.5971 73.5609 85.9271 73.4389 86.2431 72.9279C86.5631 72.4079 86.5571 72.0579 86.2261 71.8579C86.0421 71.7449 85.9261 71.7879 85.7611 72.021L85.1551 72.924L85.1541 72.9229ZM100.234 78.6119C100.397 78.6119 100.457 78.5819 100.457 78.5059C100.454 78.2489 99.9471 77.2959 99.7651 77.2959C99.6551 77.2989 99.5851 77.3839 99.5111 77.6129C99.4271 77.7929 99.2171 78.2899 99.2181 78.4979C99.2181 78.5939 99.2631 78.6209 99.4081 78.6199L100.235 78.6119H100.234ZM116.165 71.8399C116.639 72.4269 118.389 73.7869 119.075 73.2399C119.41 72.9729 119.392 72.4999 119.021 72.0399C118.494 71.3899 116.835 70.0169 116.076 70.6199C115.766 70.868 115.802 71.3899 116.166 71.8399H116.165ZM127.07 59.5939C127.124 59.4399 127.117 59.3739 127.045 59.3489C126.801 59.2639 125.725 59.4139 125.665 59.5839C125.627 59.6879 125.685 59.7809 125.877 59.9289C126.02 60.0689 126.417 60.4349 126.617 60.5039C126.707 60.5339 126.747 60.5039 126.797 60.3659L127.07 59.5929V59.5939Z" fill="black"/>
</svg>
