<svg width="200" height="100" viewBox="0 0 200 100" fill="none" xmlns="http://www.w3.org/2000/svg">
<path fill-rule="evenodd" clip-rule="evenodd" d="M172.856 64.292C172.856 63.36 173.622 62.675 174.526 62.675C175.424 62.675 176.188 63.36 176.188 64.292C176.188 65.23 175.424 65.917 174.528 65.917C173.622 65.917 172.856 65.23 172.856 64.292ZM174.526 65.646C175.272 65.646 175.859 65.072 175.859 64.292C175.859 63.524 175.271 62.945 174.526 62.945C173.776 62.945 173.186 63.525 173.186 64.292C173.186 65.072 173.776 65.646 174.526 65.646ZM174.18 65.23H173.893V63.36H174.615C175.063 63.36 175.285 63.524 175.285 63.893C175.285 64.227 175.07 64.373 174.793 64.407L175.331 65.23H175.011L174.511 64.42H174.181V65.23H174.18ZM174.523 64.18C174.767 64.18 174.983 64.163 174.983 63.876C174.983 63.644 174.77 63.6 174.571 63.6H174.181V64.18H174.524H174.523ZM57.612 43.453C56.732 44.836 56.009 46.741 56.865 48.207C57.452 49.229 58.643 49.615 59.838 49.41C60.812 49.147 61.564 48.484 62.111 47.772C62.571 47.176 64.361 43.012 62.781 41.786C61.201 40.56 58.661 41.751 57.613 43.453H57.612ZM151.67 41.856C149.49 43.014 148.438 45.518 148.742 47.93C148.894 49 149.732 49.706 150.892 49.927C152.055 50.147 153.215 49.579 154.269 48.493C155.283 47.441 156.052 43.975 155.404 42.689C154.754 41.403 152.868 41.169 151.67 41.855V41.856ZM115.794 44.967H118.938C118.938 44.967 119.056 41.847 119.118 40.689C119.175 39.516 119.484 36.775 119.484 36.775L118.17 39.8L115.794 44.967Z" fill="black"/>
<path fill-rule="evenodd" clip-rule="evenodd" d="M173.574 23.9151C173.574 23.9151 161.359 23.9291 160.024 23.9091C159.609 26.2021 157.914 31.5221 156.971 33.5861C156.588 34.4291 156.394 34.9241 156.394 34.9241C154.984 34.0821 153.49 33.6091 150.968 33.9141C150.108 32.9411 150.298 33.1421 146.792 28.9571C143.287 24.7701 139.01 25.0231 135.7 26.1041L131.398 22.1591L115.561 22.1691C115.561 22.1691 114.706 25.4411 113.766 27.4651C113.424 28.3511 112.484 30.1201 112.484 30.1201L106.638 25.1761C106.638 25.1761 98.04 25.1461 93.518 25.1601C92.408 29.2801 91.658 31.2601 90.163 35.4721C89.919 36.0621 89.246 37.7481 89.246 37.7481C86.813 34.6281 84.526 33.9381 82.456 33.5281C80.386 33.1181 78.113 33.3061 76.262 34.0401C74.905 34.4041 73.744 35.1771 72.706 35.8981C69.569 33.0781 64.204 27.9331 64.204 27.9331L55.254 27.9251L51.544 24.4181L32.521 24.4221C32.521 24.4221 28.423 39.4551 25.798 46.9321C23.958 52.6941 21.684 58.2921 19.628 63.9441C22.331 66.6341 27.692 71.9311 27.692 71.9311L43.857 71.9611C43.857 71.9611 44.191 71.0051 44.68 70.8471C46.883 73.2211 49.25 75.1671 52.114 76.3141C54.921 77.7841 58.66 78.2441 61.921 77.4701C66.481 76.6501 70.104 72.0281 71.116 67.8121L68.972 64.9571C68.972 64.9571 71.049 63.3701 72.032 62.4691C72.632 61.9921 73.262 61.4461 73.835 61.0391C76.095 63.1451 78.027 65.3551 80.673 66.6631C84.183 68.3511 87.943 66.6731 90.778 64.7691C90.778 64.7691 91.534 65.2391 92.398 65.5331C93.263 65.8261 102.232 65.5931 102.232 65.5931C102.232 65.5931 102.895 62.1461 103.609 61.0281C105.334 62.3261 108.613 65.7181 108.613 65.7181L119.407 65.7101C120.474 67.4501 121.37 68.9241 122.833 70.8221C125.727 74.5381 129.891 75.9101 134.391 76.2171C139.001 76.4171 143.089 73.8841 145.561 70.1601C146.221 69.0961 147.099 68.0881 147.327 66.8581L145.557 64.7581C145.631 63.3631 145.887 62.1821 146.563 61.1841C148.423 62.9011 150.268 64.9041 152.923 65.7841C155.303 66.6621 157.751 65.5601 159.767 64.5611C159.987 64.9031 160.357 65.3141 160.357 65.3141L171.243 65.3021C171.131 63.9521 171.223 62.9001 171.473 61.3451C171.723 59.7901 172.483 55.4681 173.323 52.6401C174.109 49.5441 174.951 46.4481 176.116 43.4631C177.509 39.2491 179.55 35.3071 181.376 31.2571C179.174 28.9371 173.576 23.9121 173.576 23.9121L173.574 23.9151ZM133.62 30.9871C133.79 29.2551 136.034 27.8371 139.013 27.8371C141.993 27.8371 144.146 29.2671 144.405 30.9871C144.671 32.7411 141.992 34.1371 139.013 34.1371C136.033 34.1371 133.416 33.0441 133.62 30.9871ZM62.17 61.7371C59.855 65.9971 55.443 68.0441 50.67 68.0571C47.74 68.0321 44.987 66.7231 43.382 64.1941C40.865 60.5341 39.702 56.3841 38.046 52.2721C37.976 52.0221 37.898 51.7121 37.843 51.8221C36.049 54.6951 35.427 62.3561 35.427 62.3561L23.657 62.3661C23.657 62.3661 25.101 58.4741 25.662 56.4461C29.344 46.2661 34.787 27.1661 34.787 27.1661L46.421 27.2001C46.421 27.2001 46.321 27.6981 45.985 28.2141C43.893 31.7261 42.335 35.4041 41.758 39.4111C42.265 39.3011 42.906 39.0531 43.368 38.6761C46.691 35.8541 48.905 33.7801 50.934 30.5041C50.934 30.5041 57.94 30.4311 61.534 30.4881C60.984 31.2481 60.154 31.9781 59.232 32.7981C53.768 37.4581 48.587 41.2901 44.252 47.0311C44.508 47.9781 44.798 49.0581 45.354 50.0371C48.097 54.5871 51.812 60.4031 57.128 61.7471C59.076 62.2451 61.104 61.2871 62.398 60.5631C62.505 60.8831 62.353 61.2551 62.172 61.7371H62.17ZM74.893 57.9391C72.886 58.0811 70.993 57.5841 69.593 56.0741C68.143 54.5091 67.893 52.4211 67.639 50.3861L67.585 50.2791C65.885 52.4571 64.615 54.7991 62.053 56.2231C59.488 58.1801 55.253 58.4651 52.338 57.1031C49.908 55.8501 48.845 53.3801 48.542 50.9171C48.256 46.8101 49.509 43.9701 51.484 41.2591C54.228 37.6441 58.174 35.0041 62.992 35.8991C64.885 36.3991 66.775 37.5391 67.734 39.3661C68.427 40.7631 69.01 42.1601 69.104 43.7661L69.284 43.5661C71.136 40.3491 74.152 37.2821 78.012 36.2461C80.892 35.5211 83.812 36.3481 85.912 38.1841C88.76 41.2061 88.122 46.0691 86.519 49.4261C84.529 53.6861 79.939 57.8221 74.892 57.9381L74.893 57.9391ZM93.777 57.0821C90.657 57.0701 87.542 57.0841 84.22 57.0841C85.142 55.3541 86.05 53.7001 86.716 51.8871C89.983 44.3721 92.956 35.6501 95.843 27.9711H105.26C104.865 28.8811 104.485 29.8351 104.044 30.6331C99.794 39.1031 95.542 47.5731 93.777 57.0831V57.0821ZM101.863 40.6881L107.477 40.7261C107.477 40.7261 105.653 44.7201 104.931 46.6941L104.907 47.0141L99.397 46.9671C99.629 45.2571 101.305 42.3401 101.864 40.6871L101.863 40.6881ZM135.13 66.0531C133.44 67.3231 131.585 68.3231 129.416 68.4631C125.888 68.7551 122.924 66.4291 121.486 63.4211C119.571 59.3911 119.29 54.4871 119.116 49.8311L114.231 49.8411C113.353 51.1191 112.959 52.6491 112.297 54.0331C111.963 54.9401 111.537 56.1791 111.367 57.0871L101.26 57.0941C101.26 57.0941 102.802 54.4311 103.52 52.9941C108.798 44.7461 113.267 36.2241 116.926 27.2691C117.04 26.7891 117.73 24.9871 117.73 24.9871L130.123 24.9841C127.371 29.5081 126.693 34.8671 125.94 40.2641C125.813 41.9491 125.684 43.8471 125.873 45.8571C126.173 48.8011 126.795 50.8831 127.948 53.9151C128.078 54.3801 128.472 55.0951 128.472 55.0951C129.156 53.7051 129.742 51.7251 130.172 50.2801C131.512 45.8501 133.785 36.3531 133.785 36.3531L142.653 36.3771C142.653 36.3771 142.323 37.3871 142.266 37.8701C140.313 44.0061 137.26 57.0161 137.26 57.0161C134.875 56.9961 129.583 57.0221 129.583 57.0221C129.583 57.0221 129.891 57.6061 130.105 57.9821C131.495 60.1351 133.817 61.3321 136.478 60.9801C137.568 60.6171 138.121 60.5251 139.308 59.8281C138.745 62.2281 136.768 64.7231 135.13 66.0511V66.0531ZM170.935 28.3711C166.521 36.7851 163.459 45.6471 161.749 55.1011L161.507 57.0871L152.837 57.1051C152.57 56.5151 152.635 55.1811 152.635 55.1811C152.635 55.1811 150.833 56.5561 149.748 56.7091C146.863 57.6991 143.218 56.9671 141.52 54.8721C139.82 52.7781 139.884 49.6151 140.613 47.0001C141.963 42.3241 145.146 37.3031 150.197 36.3301C152.804 35.9231 155.974 36.8801 157.587 38.8201C157.587 38.8201 157.881 38.2671 157.993 37.8931C159.383 34.1131 160.605 30.8011 161.83 27.1751L161.95 26.7301L171.725 26.7231C171.725 26.7231 171.153 27.9431 170.932 28.3701L170.935 28.3711Z" fill="black"/>
<path fill-rule="evenodd" clip-rule="evenodd" d="M80.034 40.918C78.458 41.225 76.927 42.602 76.318 44.042C75.765 45.268 75.103 47.245 76.28 48.268C77.09 48.972 77.902 48.923 78.77 48.771C81.11 48.151 82.486 45.065 82.626 43.967C82.766 42.867 82.672 42.055 81.981 41.417C81.291 40.777 80.741 40.87 80.035 40.919L80.034 40.918Z" fill="black"/>
</svg>
