<svg fill="none" height="100" viewBox="0 0 200 100" width="200" xmlns="http://www.w3.org/2000/svg" xmlns:xlink="http://www.w3.org/1999/xlink"><clipPath id="a"><path d="m28 39h144v21.8088h-144z"/></clipPath><mask id="b" height="22" maskUnits="userSpaceOnUse" width="144" x="28" y="39"><path d="m171.911 39h-143.911v21.7895h143.911z" fill="#fff"/></mask><g clip-path="url(#a)"><g fill="#000" mask="url(#b)"><path d="m42.8208 50.0363c-2.9434 0-5.4065 2.463-5.4065 5.3466-.006 1.0634.3036 2.1046.8894 2.992.5859.8875 1.4217 1.5812 2.4019 1.9937.9801.4124 2.0605.5248 3.1047.3233 1.044-.2017 2.0048-.7084 2.761-1.4561.7561-.7477 1.2734-1.7028 1.4867-2.7447.2133-1.0417.113-2.1233-.2886-3.108-.4014-.9847-1.0858-1.8283-1.9666-2.424-.8809-.5957-1.9186-.9168-2.982-.9228zm-.015 8.065c-.5316.0029-1.0522-.1518-1.4959-.4447-.4437-.293-.7906-.7109-.9968-1.2009s-.2625-1.0303-.1617-1.5523.3542-1.0024.728-1.3805c.3738-.378.8513-.6367 1.3722-.7434.5209-.1066 1.0617-.0564 1.554.1443.4924.2006.9141.5428 1.2119.9832.2979.4404.4586.9593.4615 1.4909-.002.7112-.2833 1.393-.7834 1.8987-.5.5057-1.1787.7946-1.8898.8047zm-9.3991-6.726c1.426 0 2.7935-.5664 3.8018-1.5747s1.5748-2.3759 1.5748-3.8018c0-1.426-.5665-2.7935-1.5748-3.8019-1.0083-1.0083-2.3758-1.5747-3.8018-1.5747-2.9436 0-5.4066 2.463-5.4066 5.3466.0042 1.4326.5751 2.8054 1.5882 3.8184 1.013 1.013 2.3858 1.584 3.8184 1.5881z"/><path d="m75.8544 44.677v1.6819h-2.9435v3.5142h2.9435v10.4827h3.9048v-10.4826h3.4542v-3.5141h-3.4542v-1.5319c0-1.1415.6008-2.0426 2.0123-2.0426.4861.0007.9704.0613 1.4419.1803v-3.3641c-.6756-.2345-1.3876-.3464-2.1025-.3304-2.9437 0-5.2565 2.0425-5.2565 5.4066z"/><path d="m57.6521 41.0425h-4.1149v19.3136h10.9031v-3.7847h-6.7882z"/><path d="m68.8559 39c-.7129 0-1.3967.2832-1.9009.7874-.5041.5041-.7873 1.1878-.7873 1.9008s.2832 1.3967.7873 1.9009c.5042.5041 1.188.7873 1.9009.7873s1.3967-.2832 1.901-.7873c.504-.5042.7872-1.1879.7872-1.9009s-.2832-1.3967-.7872-1.9008c-.5043-.5042-1.1881-.7874-1.901-.7874z"/><path d="m66.8433 46.359h3.9949v13.9971h-3.9949z"/><path d="m141.274 48.7618v-2.4028h-3.604v13.9969h3.905v-5.9472c0-3.3041 1.291-4.5956 3.754-4.5956.392-.0034.784.0268 1.172.0902v-3.6345c-.388-.0634-.78-.0936-1.172-.0902-1.682 0-3.063.7209-4.055 2.5832z"/><path d="m161.008 46.359h-4.626l-4.055 5.0858v-11.3635h-3.844v20.2748h3.844v-3.8409l1.339-1.5666 3.197 5.4075h4.506l-5.306-8.2118z"/><path d="m168.337 51.8856-1.592-.5708c-.721-.2702-1.081-.6306-1.081-1.2013 0-.5708.51-.9912 1.141-.9912s1.172.4806 1.322 1.1414l3.214-1.1415c-.661-1.8021-2.373-3.0636-4.536-3.0636-2.733 0-4.686 1.9223-4.686 4.1751 0 1.8622.751 3.1837 3.305 4.145l1.621.6008c.872.3303 1.292.8109 1.292 1.3817 0 .7207-.601 1.1713-1.442 1.1713s-1.531-.5106-1.772-1.5919l-3.394.8109c.421 2.2529 2.523 3.9349 5.166 3.9349 2.824 0 5.016-2.0124 5.016-4.3252 0-1.8023-.72-3.4543-3.574-4.4756zm-40.189-5.8872c-1.461 0-2.89.4334-4.105 1.2453s-2.162 1.9659-2.721 3.3161c-.56 1.3501-.706 2.8358-.421 4.2692.285 1.4333.989 2.7499 2.022 3.7833 1.034 1.0333 2.35 1.7371 3.784 2.0221 1.433.2851 2.919.1388 4.269-.4204s2.504-1.5063 3.316-2.7214 1.245-2.6438 1.245-4.1052c.001-.9705-.19-1.9316-.561-2.8284s-.915-1.7117-1.601-2.3979c-.687-.6863-1.502-1.2306-2.398-1.6016-.897-.3711-1.858-.5618-2.829-.5611zm0 10.9633c-.707 0-1.398-.2095-1.986-.6024-.588-.3927-1.046-.9511-1.316-1.6041-.271-.6532-.342-1.372-.204-2.0653.138-.6934.479-1.3303.979-1.8302s1.136-.8403 1.83-.9783c.693-.1378 1.412-.067 2.065.2035.653.2706 1.211.7288 1.604 1.3166.393.5879.603 1.2789.603 1.9859.001.4698-.09.9353-.27 1.3696-.179.4344-.442.8289-.774 1.1612-.332.3322-.727.5955-1.161.7746-.435.1791-.9.2703-1.37.2689z"/><path d="m117.785 41.0425-3.334 11.5641-3.214-11.4139h-2.823l-3.154 11.4139-3.034-11.5641h-4.2048l5.6468 19.3136h2.974l3.094-10.8433 3.334 10.8433h2.853l5.857-19.3136z"/><path d="m91.5935 45.9984c-4.1449 0-7.0886 3.1538-7.0886 7.359 0 4.2653 3.0939 7.419 7.359 7.419 2.7634 0 5.0763-1.4417 6.2777-3.5141l-2.9436-1.6822c-.6307 1.0813-1.8322 1.7422-3.2139 1.7422-1.872 0-3.2203-1.1192-3.4933-2.7001l9.9211.0267c.086-.425.1263-.8579.1202-1.2915 0-4.2051-3.0037-7.359-6.9386-7.359zm-3.0421 5.762c.2653-1.5189 1.5268-2.4879 3.0723-2.4879 1.5919 0 2.6732 1.0212 2.9434 2.463z"/></g></g></svg>