<svg width="200" height="100" viewBox="0 0 200 100" fill="none" xmlns="http://www.w3.org/2000/svg">
<path fill-rule="evenodd" clip-rule="evenodd" d="M18.95 35H22.636V64.502H18.95V54.052L15.875 64.502H15.261L12.189 54.052V64.502H8.5V35H12.188L15.568 53.44L18.948 35H18.95ZM36.772 64.502H40.46L36.772 35H32.47L28.782 64.502H32.47L32.916 60.337C32.926 60.259 32.991 60.199 33.069 60.199H36.172C36.252 60.199 36.317 60.259 36.325 60.336L36.771 64.501L36.772 64.502ZM33.497 56.512C33.407 56.512 33.335 56.432 33.344 56.342L34.314 47.292H34.929L35.897 56.342C35.907 56.432 35.837 56.512 35.744 56.512H33.496H33.497ZM108.683 64.502H112.37L108.683 35H104.38L100.693 64.502H104.38L104.827 60.337C104.835 60.259 104.901 60.199 104.979 60.199H108.083C108.161 60.199 108.227 60.259 108.235 60.336L108.682 64.501L108.683 64.502ZM105.407 56.512C105.317 56.512 105.245 56.432 105.255 56.342L106.225 47.292H106.839L107.807 56.342C107.817 56.432 107.747 56.512 107.655 56.512H105.405H105.407ZM46.606 35V64.502H50.294V52.978C50.294 52.893 50.364 52.824 50.448 52.824H51.984C52.069 52.824 52.138 52.894 52.138 52.978V64.502H55.826V53.402C55.826 52.315 55.348 51.342 54.594 50.672C55.348 50.004 55.826 49.032 55.826 47.944V37.458C55.826 36.101 54.726 35 53.366 35H46.606ZM50.448 38.688H51.984C52.069 38.688 52.138 38.758 52.138 38.841V48.984C52.138 49.068 52.068 49.137 51.984 49.137H50.448C50.363 49.137 50.294 49.067 50.294 48.984V38.84C50.294 38.757 50.364 38.688 50.448 38.688ZM135.726 35V64.502H139.414V52.978C139.414 52.893 139.482 52.824 139.567 52.824H141.104C141.189 52.824 141.257 52.894 141.257 52.978V64.502H144.945V53.402C144.945 52.315 144.467 51.342 143.715 50.672C144.467 50.004 144.945 49.032 144.945 47.944V37.458C144.945 36.101 143.845 35 142.487 35H135.727H135.726ZM139.566 38.688H141.104C141.189 38.688 141.257 38.758 141.257 38.841V48.984C141.257 49.068 141.189 49.137 141.104 49.137H139.567C139.482 49.137 139.414 49.067 139.414 48.984V38.84C139.414 38.757 139.482 38.688 139.567 38.688H139.566ZM63.816 37.458V62.043C63.816 63.401 64.916 64.503 66.274 64.503H70.576C71.934 64.503 73.036 63.401 73.036 62.043V52.823H69.346V60.66C69.346 60.745 69.278 60.814 69.194 60.814H67.657C67.572 60.814 67.503 60.744 67.503 60.66V38.84C67.503 38.757 67.573 38.688 67.657 38.688H69.194C69.278 38.688 69.347 38.758 69.347 38.841V42.376H73.035V37.459C73.035 36.102 71.935 35.001 70.575 35.001H66.275C64.915 35.001 63.815 36.101 63.815 37.459L63.816 37.458ZM119.13 35V62.043C119.13 63.401 120.232 64.503 121.59 64.503H125.892C127.25 64.503 128.35 63.401 128.35 62.043V35H124.663V60.66C124.663 60.745 124.593 60.814 124.509 60.814H122.972C122.887 60.814 122.818 60.744 122.818 60.66V35H119.128H119.13ZM95.776 64.502V60.814H92.703V35H89.015V64.502H95.775H95.776ZM181.666 35V38.688H184.739V64.502H188.426V38.688H191.499V35H181.665H181.666ZM151.706 35V64.502H158.466V60.814H155.394V51.594H158.467V47.907H155.394V38.687H158.467V35H151.707H151.706ZM171.832 35V47.907L168.76 35H165.686V64.502H169.374V51.595L173.061 64.502H175.521V35H171.833H171.832Z" fill="black"/>
</svg>
