<svg xmlns="http://www.w3.org/2000/svg" focusable="false" role="img" viewBox="0 0 200 100" fill="currentColor">
  <path d="M56.112 42.48c0 1.267-1.117 1.69-3.41 1.69-2.053 0-2.656-.242-2.656-1.57v-6.307l.271-4.92h-.15l-2.958 8.27c-.574 1.539-1.298 1.81-2.928 1.81-1.237 0-1.78-.15-2.203-1.388l-3.109-8.662h-.15l.271 4.95v6.097c0 1.297-1.026 1.72-3.35 1.72-2.082 0-2.746-.211-2.746-1.268V24.703c0-1.207 1.901-1.961 4.587-1.961 2.294 0 3.38.362 3.652 1.418l3.23 10.684h.15l3.2-10.231c.301-1.117 2.172-1.871 5.04-1.871 2.263 0 3.259.392 3.259 1.448v18.29zM63.719 37.078c0 2.112 1.207 3.259 3.44 3.259 2.174 0 3.864-1.026 4.558-1.026.724 0 1.78 1.358 1.78 2.294 0 1.6-3.138 2.837-7.031 2.837-5.946 0-8.904-2.958-8.904-8.813 0-6.066 3.2-9.235 9.326-9.235 4.557 0 6.881 1.78 6.881 5.251 0 3.682-2.595 5.433-8.149 5.433H63.72zm-.181-3.532c-.016.343-.006.686.03 1.026 3.531 0 4.86-.694 4.86-2.323a1.905 1.905 0 00-2.113-2.143c-1.872 0-2.777 1.116-2.777 3.44zM85.66 42.087c-.784 1.48-2.595 2.354-4.888 2.354-4.195 0-6.218-2.867-6.218-8.903 0-6.187 2.294-9.054 6.761-9.054 2.173 0 3.652.664 4.406 1.962h.212l-.272-2.053v-4.165c0-.905 1.69-1.599 3.863-1.599 1.66 0 2.445.332 2.445 1.056v21.036c0 .875-1.389 1.449-3.562 1.449-1.539 0-2.293-.272-2.384-.936l-.15-1.147h-.212zm.273-9.386a2.322 2.322 0 00-2.385-2.475c-1.69 0-2.716 1.268-2.716 5.282 0 3.773.815 4.98 2.656 4.98a2.202 2.202 0 002.445-2.415v-5.372zM97.1 25.307c-2.052 0-3.018-.664-3.018-2.113 0-1.63 1.298-2.535 3.622-2.535 2.022 0 2.957.634 2.957 2.113 0 1.63-1.237 2.535-3.56 2.535zm3.29 17.535c0 .875-1.328 1.328-3.622 1.328-1.78 0-2.626-.272-2.626-.875V28.657c0-.905 1.72-1.63 3.864-1.63 1.57 0 2.384.363 2.384 1.087v14.728zM112.07 41.967c-.724 1.57-2.505 2.474-4.798 2.474-3.35 0-5.433-1.931-5.433-5.07 0-3.772 3.018-5.825 8.662-5.825h1.63c0-2.112-.996-3.048-3.23-3.048-2.384 0-3.893 1.147-4.587 1.147-.664 0-1.63-1.54-1.63-2.535 0-1.48 3.471-2.716 7.606-2.716 5.704 0 8.088 2.354 8.088 7.967v8.3c0 .966-1.298 1.509-3.531 1.509-1.569 0-2.324-.272-2.384-.845l-.181-1.358h-.212zm-.694-6.067c-2.444 0-3.621.906-3.621 2.596a1.972 1.972 0 001.298 2.098c.28.1.579.136.875.105 1.599 0 2.444-.966 2.444-2.625V35.9h-.996zM51.011 70.74c.298.365.495.802.574 1.267 0 1.207-2.747 2.716-5.252 2.716-.844 0-1.207-.18-1.478-.845l-3.803-7.424-1.871 1.931.271 2.686v1.66c0 1.207-1.056 1.69-3.863 1.69-2.022 0-2.595-.271-2.595-1.267v-18.29c0-1.086 1.66-1.871 3.923-1.871 1.66 0 2.535.422 2.535 1.207 0 .544-.03 1.449-.06 2.354l-.332 4.92h.241l5.403-7.817a1.477 1.477 0 011.478-.936c1.962 0 4.528 1.872 4.528 3.23a2.198 2.198 0 01-.785 1.388l-4.92 5.07 6.006 8.33zM56.022 55.558c-2.052 0-3.018-.664-3.018-2.112 0-1.63 1.298-2.535 3.622-2.535 2.022 0 2.957.633 2.957 2.112 0 1.63-1.237 2.535-3.56 2.535zm3.29 17.535c0 .876-1.328 1.328-3.622 1.328-1.78 0-2.625-.271-2.625-.875V58.908c0-.905 1.72-1.63 3.863-1.63 1.57 0 2.384.363 2.384 1.087v14.728zM79.896 68.657c0 1.418.573 1.479 1.901 1.66.815.12 1.328.422 1.328 1.931 0 1.75-.906 2.445-3.773 2.445-3.651 0-5.644-1.72-5.644-5.282v-8.33H68.82v7.576c0 1.237.272 1.449 1.72 1.66.906.15 1.208.664 1.208 1.78 0 1.902-.875 2.596-3.47 2.596-3.713 0-5.705-1.72-5.705-5.282v-8.33h-1.238c-.724 0-1.056-.543-1.056-1.6 0-1.538.543-2.565 1.479-2.565h.905v-2.625c0-1.328 1.811-2.445 3.863-2.445 1.42 0 2.234.332 2.264.906v4.164h5.01v-2.625c0-1.328 1.75-2.445 3.773-2.445 1.509 0 2.293.332 2.293.906v4.164h2.324c.755 0 1.117.574 1.117 1.63 0 1.66-.543 2.535-1.419 2.535h-1.991v7.576zM101.113 71.554c0 5.312-2.957 7.817-9.325 7.817-4.195 0-7.123-1.087-7.123-2.747 0-.905.875-2.384 1.57-2.384.543 0 2.897.996 5.371.996 2.717 0 3.894-1.177 3.924-3.742a9.93 9.93 0 01-4.316.845c-4.678 0-6.911-2.294-6.911-6.7v-6.821c0-1.207 1.328-1.901 3.802-1.901 1.69 0 2.355.332 2.355 1.207v8.631c0 1.811.875 2.566 2.324 2.566 1.478 0 2.293-.755 2.293-2.113v-8.42c0-1.147 1.268-1.871 3.622-1.871 1.63 0 2.414.332 2.414 1.056v13.581zM148.198 61.888c-.593-.72-3.072-.628-3.725.036-.721.736.853 1.854 1.881 1.844 1.028-.011 2.5-1.086 1.844-1.88z"/>
  <path d="M166.865 46.228a20.733 20.733 0 00-9.799-15.192c2.37-2.366 7.012-4.446 7.1-9.169.117-6.26-4.366-10.603-13.051-9.835a15.863 15.863 0 00-5.438 1.42c-1.146.691-1.798 1.33-1.61 2.175.143.712 1.096 2.32 1.756 2.244.309-.035 2.261-.756 2.753-.888.986-.278 2-.45 3.023-.515 5.663-.548 7.646 1.795 7.637 5.078-.013 5.163-15.272 5.566-20.493 17.15-3.463 1.18-10.135 4.567-11.153 13.233-1.002 8.522 1.582 13.211 5.045 17.094 1.745 1.959 4.92 4.703 8.31 3.43 3.365-1.264 3.874-4.514 1.356-6.006-3.508-2.073-8.022-4.136-8.892-11.359-.32-2.711-.101-5.46.644-8.086.255-.93.598-1.57 1.172-1.801a1.76 1.76 0 012.089.609 24.449 24.449 0 013.179 4.047c1.75-.614 3.593-.92 5.447-.908 1.856-.05 3.704.241 5.455.857a24.355 24.355 0 013.141-4.08 1.948 1.948 0 011.922-.7c.404.085 1.086.394 1.447 1.728 1.657 6.127 2.347 16.278-12.899 31.514-3.216 3.215-3.019 7.783.526 9.272 4.972 2.087 8.823-2.68 10.338-5.044 5.424-8.457 9.777-18.523 9.104-29.553a1.723 1.723 0 01.72-1.728c1.524-1.003 1.41-2.81 1.171-4.987z"/>
  <path d="M138.743 57.134a1.547 1.547 0 01.486-1.204 1.538 1.538 0 011.234-.403c1.415 0 2.186.53 2.186 1.607a1.956 1.956 0 01-.572 1.381 1.949 1.949 0 01-1.381.572 1.93 1.93 0 01-1.953-1.953zM153.844 57.134a1.53 1.53 0 00-.485-1.204 1.538 1.538 0 00-1.234-.403c-1.415 0-2.186.53-2.186 1.607a1.937 1.937 0 00.572 1.381 1.945 1.945 0 001.381.572 1.924 1.924 0 001.952-1.953z"/>
</svg>
