<svg xmlns="http://www.w3.org/2000/svg" focusable="false" role="img" viewBox="0 0 200 100" fill="currentColor">
  <path d="M58.1 73.4c.6 0 1.2.5 1.2 1.1v1c0 .6-.5 1.1-1.2 1.1H46.9c-.6 0-1.2-.5-1.2-1.1V61c0-.6.5-1.1 1.2-1.1h10.5c.6 0 1.2.5 1.2 1.1v1c0 .6-.5 1.1-1.2 1.1h-7.3v3.1h6.7c.6 0 1.2.5 1.2 1.1v1c0 .6-.5 1.1-1.2 1.1h-6.7v4h8zM22.2 61c0-.6.5-1.1 1.2-1.1h4c.6 0 1.3.5 1.4 1.1l2.5 10.3c.1.6.3 1.1.3 1.1s.2-.5.3-1.1L34.5 61c.2-.6.8-1.1 1.5-1.1h4c.6 0 1.2.5 1.2 1.1v14.6c0 .6-.5 1.1-1.2 1.1h-1.8c-.6 0-1.2-.5-1.2-1.1V64.7v-1.1s-.2.5-.3 1.1l-2.9 10.9c-.2.6-.8 1.1-1.5 1.1H31c-.6 0-1.3-.5-1.5-1.1l-3-10.9c-.2-.6-.3-1.1-.3-1.1v11.9c0 .6-.5 1.1-1.2 1.1h-1.6c-.6 0-1.2-.5-1.2-1.1V61zM71 75.5c0 .6-.5 1.1-1.2 1.1h-2c-.6 0-1.2-.5-1.2-1.1V63.1h-3.4c-.6 0-1.2-.5-1.2-1.1v-1c0-.6.5-1.1 1.2-1.1h11.1c.6 0 1.2.5 1.2 1.1v1c0 .6-.5 1.1-1.2 1.1H71v12.4zM128.3 73.1c.6 0 1.2.5 1.2 1.1v1.3c0 .6-.5 1.1-1.2 1.1h-8.8c-.6 0-1.2-.5-1.2-1.1V61c0-.6.5-1.1 1.2-1.1h2c.6 0 1.2.5 1.2 1.1v12.1h5.6zM132.9 61c0-.6.5-1.1 1.2-1.1h2c.6 0 1.2.5 1.2 1.1v14.6c0 .6-.5 1.1-1.2 1.1h-2c-.6 0-1.2-.5-1.2-1.1V61zM141.3 61c0-.6.5-1.1 1.2-1.1h2.1c.6 0 1.4.4 1.8 1l5.2 8.8.6 1V61c0-.6.5-1.1 1.2-1.1h1.6c.6 0 1.2.5 1.2 1.1v14.6c0 .6-.5 1.1-1.2 1.1h-2c-.6 0-1.4-.4-1.8-1l-5.2-8.6-.6-1v9.4c0 .6-.5 1.1-1.2 1.1h-1.6c-.6 0-1.2-.5-1.2-1.1V61h-.1zM165.6 67.6l-5.1-6.9c-.4-.5-.2-.9.5-.9h2.9c.6 0 1.4.4 1.8 1l2.6 4.2 2.6-4.2c.3-.5 1.1-1 1.8-1h2.9c.6 0 .9.4.5.9l-5.1 6.9 6 8.1c.4.5.2.9-.5.9h-3c-.6 0-1.5-.4-1.8-1l-3.4-5.3-3.5 5.3c-.3.5-1.2 1-1.8 1h-3c-.6 0-.9-.4-.5-.9l6.1-8.1zM83.2 67.5h4c1.4 0 2.3-.7 2.3-2.3 0-1.6-.9-2.2-2.3-2.3h-4v4.6zm10.7-2.1c0 2.2-1.4 3.9-3.6 4.5l3.4 5.8c.3.5.1 1-.6 1h-2.5c-.6 0-1.4-.4-1.7-1L86 70.6h-2.8v4.9c0 .6-.5 1.1-1.2 1.1h-2c-.6 0-1.2-.5-1.2-1.1V61c0-.6.5-1.1 1.2-1.1h7.6c3.9-.1 6.3 1.7 6.3 5.5zM105.8 62.9c-2.5 0-4.5 1.6-4.5 5.3 0 2.5 1 5.3 4.5 5.3 3.2 0 4.5-2.7 4.5-5.3 0-2.6-1.3-5.3-4.5-5.3zm0 14.2c-5.6 0-8.8-4.2-8.8-8.9s3.3-8.9 8.8-8.9c5.6 0 8.8 4.2 8.8 8.9 0 4.8-3.2 8.9-8.8 8.9zM101.1 46.3V52h2.7v-3c4.8-1.3 8.6-5 10-9.6h3.1v-2.6H111c-.7 5-4.8 8.9-9.9 9.5zM85.6 39.4c1.4 4.6 5.2 8.3 10 9.6v3h2.7v-5.7c-5.2-.6-9.3-4.6-9.9-9.5h-5.9v2.6h3.1zM88.4 34.1c.6-5 4.7-8.9 9.9-9.5v-5.7h-2.7v3c-4.8 1.3-8.6 5-10 9.6h-3.1v2.6h5.9zM101.1 21.4v3.2c5.2.6 9.3 4.5 9.9 9.5h5.9v-2.6h-3.1c-1.4-4.6-5.2-8.3-10-9.6v-3h-2.7v2.5z"/>
  <path d="M92.7 30.1c0-.5.4-.8.9-.8h3c.5 0 1 .4 1.1.8l1.9 7.5.2.8.2-.8 1.9-7.5c.1-.4.6-.8 1.1-.8h2.9c.5 0 .9.4.9.8v10.7c0 .5-.4.8-.9.8h-1.3c-.5 0-.9-.4-.9-.8v-7.9-.8l-.2.8-2.1 8c-.1.4-.6.8-1.1.8h-1.1c-.5 0-1-.4-1.1-.8l-2.2-8-.2-.8V40.8c0 .5-.4.8-.9.8h-1.2c-.5 0-.9-.4-.9-.8V30.1z"/>
</svg>
