<svg width="200" height="100" viewBox="0 0 200 100" fill="none" xmlns="http://www.w3.org/2000/svg">
<path fill-rule="evenodd" clip-rule="evenodd" d="M29.44 60.435L26.646 51.293H26.573L22.173 60.806H22.1L17.702 51.293H17.628L14.786 60.435H12.02L17.01 43.683H17.085L22.1 54.48H22.174L27.164 43.683H27.24L32.206 60.435H29.44ZM36.752 60.435V44.053H47.23V46.723H39.57V50.799H45.92V53.466H39.57V57.766H47.23V60.434H36.75L36.752 60.435ZM59.51 46.722V60.435H56.69V46.722H51.503V44.052H64.698V46.722H59.508H59.51ZM137.39 60.435L136.005 57.569H128.765L127.382 60.434H124.295L132.348 43.682H132.422L140.478 60.434H137.39V60.435ZM132.422 50.008H132.348L129.978 54.925L130.026 54.999H134.721L134.771 54.924L132.423 50.007L132.422 50.008ZM156.922 56.828C156.584 57.618 156.127 58.301 155.55 58.878C154.973 59.456 154.298 59.912 153.524 60.25C152.749 60.587 151.919 60.756 151.028 60.756C150.138 60.756 149.298 60.586 148.508 60.25C147.718 59.912 147.033 59.456 146.458 58.878C145.881 58.301 145.424 57.618 145.088 56.828C144.748 56.038 144.58 55.198 144.58 54.308V44.052H147.396V54.355C147.396 54.865 147.49 55.352 147.68 55.815C147.87 56.275 148.134 56.67 148.47 56.999C148.81 57.329 149.195 57.592 149.633 57.789C150.069 57.989 150.533 58.087 151.028 58.087C151.523 58.087 151.984 57.987 152.411 57.79C152.841 57.593 153.219 57.33 153.549 57C153.879 56.67 154.139 56.275 154.329 55.815C154.519 55.353 154.613 54.867 154.613 54.355V44.054H157.429V54.308C157.429 55.198 157.259 56.038 156.923 56.828H156.922ZM169.61 46.722V60.435H166.793V46.722H161.603V44.052H174.798V46.722H169.608H169.61ZM188.98 55.913C188.98 56.573 188.853 57.198 188.6 57.791C188.342 58.386 187.993 58.901 187.55 59.337C187.103 59.773 186.588 60.119 186.004 60.374C185.419 60.629 184.796 60.757 184.138 60.757C183.248 60.757 182.433 60.567 181.693 60.189C180.951 59.809 180.308 59.389 179.763 58.929C179.123 58.386 178.555 57.775 178.06 57.099L180.382 55.667C180.696 56.097 181.049 56.474 181.444 56.804C181.774 57.084 182.161 57.347 182.606 57.594C183.052 57.842 183.536 57.964 184.064 57.964C184.641 57.964 185.13 57.764 185.534 57.359C185.938 56.956 186.139 56.466 186.139 55.889C186.139 55.529 186.052 55.202 185.879 54.913C185.706 54.626 185.479 54.39 185.199 54.209L181.369 52.009C180.727 51.632 180.204 51.096 179.801 50.404C179.397 49.712 179.194 48.954 179.194 48.132C179.194 47.507 179.31 46.922 179.541 46.377C179.771 45.834 180.093 45.357 180.505 44.944C180.915 44.532 181.395 44.212 181.938 43.981C182.481 43.751 183.064 43.634 183.69 43.634C184.548 43.634 185.33 43.852 186.038 44.289C186.746 44.726 187.288 45.297 187.67 46.006L185.175 47.366C185.042 47.102 184.853 46.886 184.605 46.723C184.359 46.558 184.071 46.475 183.741 46.475C183.263 46.475 182.861 46.635 182.531 46.957C182.201 47.277 182.035 47.677 182.035 48.157C182.035 48.469 182.115 48.753 182.271 49.007C182.426 49.263 182.621 49.457 182.851 49.589L186.829 51.912C187.523 52.308 188.054 52.864 188.424 53.58C188.794 54.296 188.98 55.075 188.98 55.915V55.913ZM78.793 53.27C79.313 52.364 79.573 51.367 79.573 50.28C79.573 49.423 79.407 48.616 79.078 47.86C78.748 47.1 78.298 46.442 77.731 45.88C77.164 45.32 76.497 44.877 75.731 44.547C74.965 44.217 74.153 44.053 73.297 44.053H69.097V60.435H71.913V56.505H73.865L78.165 60.805L80.115 58.829L76.755 55.467C77.595 54.907 78.275 54.174 78.795 53.269L78.793 53.27ZM76.459 51.65C76.276 52.088 76.033 52.466 75.729 52.787C75.424 53.109 75.062 53.365 74.641 53.554C74.221 53.744 73.773 53.837 73.295 53.837H71.911V46.722H73.295C73.773 46.722 74.221 46.817 74.641 47.005C75.061 47.195 75.424 47.45 75.729 47.772C76.033 48.092 76.276 48.468 76.459 48.896C76.639 49.324 76.729 49.778 76.729 50.256C76.729 50.749 76.639 51.214 76.459 51.651V51.65ZM117.152 44.053V54.133H117.078L106.502 43.683H106.428V60.435H109.244V50.378H109.318L119.894 60.806H119.968V44.053H117.151H117.152ZM105.148 39.774C104.376 39.001 103.123 39.002 102.352 39.774C101.736 40.389 101.622 41.307 101.987 42.047L98.347 45.687C97.687 45.12 96.94 44.654 96.102 44.3C95.048 43.855 93.927 43.633 92.742 43.633C91.555 43.633 90.44 43.855 89.392 44.3C88.532 44.666 87.768 45.154 87.092 45.75L83.388 42.047C83.758 41.307 83.638 40.389 83.024 39.773C82.252 39.003 81 39.001 80.228 39.773C79.456 40.545 79.456 41.798 80.228 42.569C80.843 43.184 81.761 43.299 82.501 42.933L86.211 46.643C85.648 47.305 85.183 48.046 84.824 48.87C84.37 49.91 84.144 51.02 84.144 52.207C84.144 53.393 84.37 54.505 84.824 55.543C85.276 56.581 85.89 57.486 86.664 58.26C87.438 59.035 88.348 59.644 89.394 60.09C90.441 60.534 91.556 60.756 92.742 60.756C93.929 60.756 95.05 60.534 96.104 60.089C97.158 59.643 98.072 59.034 98.847 58.259C99.621 57.485 100.235 56.579 100.687 55.542C101.14 54.504 101.367 53.392 101.367 52.206C101.367 51.02 101.14 49.908 100.687 48.87C100.315 48.017 99.827 47.255 99.237 46.574L102.877 42.934C103.617 43.302 104.535 43.184 105.15 42.57C105.922 41.798 105.922 40.546 105.15 39.774H105.148ZM98.066 54.494C97.762 55.21 97.35 55.831 96.831 56.358C96.313 56.886 95.699 57.305 94.991 57.618C94.283 57.931 93.524 58.088 92.718 58.088C91.928 58.088 91.186 57.931 90.494 57.618C89.802 57.305 89.197 56.886 88.678 56.358C88.158 55.831 87.748 55.21 87.442 54.493C87.139 53.776 86.986 53.023 86.986 52.231C86.986 51.411 87.139 50.639 87.443 49.921C87.749 49.207 88.161 48.581 88.68 48.044C89.2 47.509 89.804 47.084 90.496 46.772C91.188 46.462 91.929 46.304 92.72 46.304C93.526 46.304 94.285 46.461 94.993 46.774C95.701 47.086 96.315 47.51 96.833 48.044C97.353 48.581 97.765 49.208 98.069 49.924C98.374 50.64 98.527 51.411 98.527 52.234C98.527 53.024 98.374 53.778 98.069 54.494H98.066Z" fill="black"/>
</svg>
