<svg width="200" height="100" viewBox="0 0 200 100" fill="none" xmlns="http://www.w3.org/2000/svg">
<path fill-rule="evenodd" clip-rule="evenodd" d="M172.412 33.46C172.326 33.367 172.222 33.25 172.097 33.11C170.911 31.776 168.442 29 165.813 29C165.205 29 164.623 29.153 164.089 29.453C151.003 36.803 144.609 43.353 136.512 51.643C136.02 52.148 135.522 52.658 135.012 53.177C135.358 51.65 135.726 50.169 136.084 48.723C137.544 42.838 138.697 38.19 136.914 35.909C136.178 34.969 135.029 34.509 133.401 34.509C133.321 34.509 133.238 34.512 133.153 34.514C129.783 34.617 128.463 35.252 127.066 35.924C126.326 36.28 125.562 36.648 124.423 36.977C124.303 34.612 123.638 33.501 122.428 32.265C121.183 30.998 120.198 30.301 118.556 30.245C112.118 30.025 108.936 34.935 108.381 35.892C107.644 36.208 104.188 37.616 101.085 37.616C100.807 37.616 100.538 37.604 100.28 37.582C100.284 36.367 99.934 35.352 99.236 34.555C97.719 32.825 94.918 32.472 92.346 32.312C92.346 32.308 92.348 32.305 92.349 32.302C92.416 32.062 92.499 31.764 92.307 31.512C92.2 31.372 92.032 31.29 91.847 31.29L91.755 31.298C85.68 32.108 80.861 45.398 81.039 51.64C80.321 55.492 79.964 56.748 78.331 58.826L73.247 39.344L73.217 39.26C72.323 37.365 70.132 33.783 68.231 33.783C68.113 33.783 67.996 33.796 67.883 33.823C63.223 34.933 60.015 42.453 58.583 46.591C58.193 43.403 56.933 39.809 54.763 37.508C53.466 36.134 51.963 35.408 50.413 35.408C49.238 35.408 48.033 35.818 46.829 36.622C46.402 36.907 45.132 38.305 44.815 38.665C43.385 40.288 42.649 41.902 41.871 43.61C41.535 44.348 41.187 45.11 40.763 45.928C39.703 47.975 38.833 49.845 38.133 51.591C37.873 48.631 37.497 45.823 36.976 42.901C36.876 42.341 36.344 39.498 35.636 38.343C34.911 37.157 34.029 36.556 33.016 36.556C31.116 36.556 29.316 38.629 27.656 40.868L27.499 41.078L27.589 41.322C28.099 42.727 40.099 75.735 42.159 78.467C42.494 78.91 42.863 79.317 43.302 79.317C44.245 79.317 44.275 78.181 44.374 74.413C44.447 71.62 44.558 67.398 45.128 61.92C46.242 51.19 50.156 48.263 51.413 47.59C55.193 56.862 56.543 59.607 56.599 59.72L56.654 59.83L56.754 59.9C57.589 60.495 58.389 60.797 59.131 60.797C61.479 60.797 62.601 57.927 63.341 56.029L63.498 55.629L66.858 44.611C67.68 46.804 68.403 49.021 69.108 51.174C71.011 57.008 72.811 62.519 76.121 66.119L76.297 66.309L76.553 66.269C76.769 66.235 81.513 65.379 83.1 57.597C84.857 61.917 86.62 63.444 89.8 63.673C89.89 63.678 89.98 63.683 90.073 63.683C92.613 63.683 95.131 61.119 97.553 56.063C99.431 52.143 100.343 46.026 100.57 41.779C100.894 41.775 101.278 41.799 101.683 41.825C102.137 41.853 102.653 41.885 103.196 41.885C103.93 41.885 104.586 41.827 105.208 41.705C104.725 45.785 103.124 62.417 108.905 63.318C109.453 63.403 109.997 63.448 110.519 63.448C117.179 63.448 121.614 56.768 125.329 41.128C127.621 40.463 128.552 40.311 129.306 40.188C130.084 40.06 130.631 39.97 132.151 39.406C131.824 42.43 130.671 46.206 129.555 49.866C128.825 52.256 128.135 54.516 127.687 56.514C127.664 56.617 125.467 66.74 127.704 67.96C127.967 68.114 128.212 68.19 128.451 68.19C129.159 68.19 129.655 67.6 130.641 66.423C131.387 65.535 132.407 64.32 134.025 62.696L134.097 62.606C134.147 62.522 139.481 54.056 161.595 41.076C162.8 40.37 164.49 39.616 166.125 38.886C170.105 37.109 172.539 35.934 172.788 34.596C172.842 34.306 172.818 33.876 172.408 33.462L172.412 33.46ZM94.166 36.743C94.38 36.875 94.503 36.981 94.503 36.981C94.388 36.893 94.277 36.819 94.166 36.744C93.068 36.067 89.576 34.919 87.359 43.408C87.359 43.408 89.243 33.224 94.165 36.744L94.166 36.743ZM92.456 36.883C93.654 36.883 94.781 37.661 95.436 38.221C92.162 39.251 89.419 41.637 87.916 43.161C88.936 39.045 90.49 36.884 92.456 36.884V36.883ZM88.468 58.535C88.371 55.505 88.534 43.998 96.418 42.285C96.541 50.119 92.653 56.212 88.468 58.535ZM109.71 46.17C109.844 44.766 110.098 41.687 110.176 40.734C111.3 40.231 115.643 38.254 118.216 36.634C119.78 45.387 116.37 54.376 110.691 56.429C109.739 54.214 109.404 49.395 109.711 46.169L109.71 46.17ZM120.817 52.297C116.387 63.897 109.647 62.164 109.647 62.164C116.205 62.494 119.837 54.742 120.817 52.297C120.909 52.057 121.001 51.82 121.091 51.567C121.091 51.567 121.001 51.841 120.818 52.297H120.817Z" fill="black"/>
</svg>
