<svg width="200" height="100" viewBox="0 0 200 100" fill="none" xmlns="http://www.w3.org/2000/svg">
<path d="M59.2 65.5L58.7 64.1999L62.7999 62.7L67.3 56.7L67.9 58.2999L64.1999 63L70 64.1999L70.5 65.6999L63.2 64L59.2 65.5Z" fill="black"/>
<path d="M73.5 71.8C73.5 71.2 73.2 70.5 72.8 70C72.6 69.8 72.4 69.5 72.2 69.3C72 69.1 71.8 69 71.5 68.9C71.3 68.8 71 68.8 70.7 68.8C70.4 68.8 70.1 69 69.9 69.2C69.7 69.4 69.5 69.6 69.4 69.9C69.4 70.2 69.4 70.5 69.5 70.8C69.6 71.2 69.7 71.5 69.9 71.9C70.1 72.3 70.2 72.7 70.4 73.1C70.6 73.5 70.7 73.9 70.9 74.3C71 74.7 71.1 75.1 71.1 75.5C71.1 75.9 71 76.3 70.9 76.6C70.7 77 70.3 77.4 70 77.7C69.6 78 69.1 78.1 68.7 78.2C68.2 78.2 67.8 78.2 67.3 78C66.8 77.8 66.4 77.6 66.1 77.3C65.7 77 65.4 76.6 65.1 76.2C64.8 75.7 64.5 75.2 64.3 74.7C64.1 74.2 64 73.7 64 73.2C64 72.7 64.1 72.2 64.4 71.7C64.7 71.2 65.1 70.8 65.5 70.4L66.3 71.5C66 71.7 65.7 72 65.5 72.4C65.3 72.7 65.3 73.1 65.3 73.4C65.3 73.8 65.4 74.1 65.5 74.5C65.6 74.9 65.8 75.2 66.1 75.5C66.3 75.8 66.5 76 66.7 76.2C66.9 76.4 67.2 76.6 67.5 76.7C67.8 76.8 68.1 76.9 68.4 76.8C68.7 76.8 69 76.6 69.2 76.4C69.5 76.2 69.7 75.9 69.7 75.6C69.8 75.3 69.8 75 69.7 74.6C69.6 74.2 69.5 73.9 69.3 73.5L68.8 72.3C68.6 71.9 68.5 71.5 68.3 71.1C68.2 70.7 68.1 70.3 68 69.9C68 69.5 68 69.2 68.2 68.8C68.4 68.4 68.7 68.1 69 67.8C69.4 67.5 69.8 67.3 70.3 67.2C70.7 67.1 71.2 67.2 71.6 67.3C72 67.5 72.4 67.7 72.8 68C73.2 68.3 73.5 68.6 73.8 69C74.1 69.4 74.4 69.9 74.5 70.4C74.7 70.8 74.8 71.3 74.7 71.8C74.7 72.3 74.6 72.7 74.4 73.1C74.1 73.6 73.8 74 73.4 74.3L72.6 73.2C72.9 73 73.1 72.8 73.2 72.5C73.4 72.4 73.5 72.1 73.5 71.8Z" fill="black"/>
<path d="M83 78.7L82.3 79.6L77.6 76L75.5 78.7L79.9 82.1L79.2 83L74.8 79.6L72.5 82.5L77.2 86.2L76.5 87.1L70.7 82.6L77.2 74.2L83 78.7Z" fill="black"/>
<path d="M88.2999 91.7C87.1999 92.1 86.0999 92.1 84.9999 91.6C83.8999 91.3 82.8999 90.5 82.2999 89.6C82.0999 89.1 81.8999 88.5 81.8999 87.9C81.8999 87.3 81.9999 86.8 82.2999 86.2L84.5999 79.8L85.9999 80.3L83.6999 86.7C83.4999 87.1 83.4999 87.5 83.4999 87.8C83.4999 88.2 83.5999 88.6 83.6999 88.9C84.0999 89.6 84.6999 90.1 85.4999 90.4C85.7999 90.6 86.1999 90.6 86.5999 90.6C86.9999 90.6 87.3999 90.5 87.6999 90.4C88.3999 90 88.8999 89.4 89.0999 88.6L91.3999 82.2L92.7999 82.7L90.4999 89.1C90.3999 89.6 90.0999 90.1 89.6999 90.6C89.3999 91.1 88.8999 91.5 88.2999 91.7Z" fill="black"/>
<path d="M96.6 82.9L100 91.9L103.4 82.9H105.3V93.6H104V84.7L100.7 93.6H99.5L96 84.7V93.6H94.7V82.9H96.6Z" fill="black"/>
<path d="M67.2 46.6L58.2 50L67.2 53.4V55.3H56.5V54H65.4L56.5 50.7V49.5L65.4 46.2H56.5V44.9H67.2V46.6Z" fill="black"/>
<path d="M115.5 90.8L114.2 91.3L112.7 87.2L106.7 82.7L108.3 82.1L113 85.8L114.2 80L115.7 79.5L114 86.8L115.5 90.8Z" fill="black"/>
<path d="M121.7 76.5C121.1 76.5 120.4 76.8 119.9 77.2C119.7 77.4 119.4 77.6 119.2 77.8C119 78 118.9 78.2 118.8 78.5C118.7 78.7 118.7 79 118.7 79.3C118.7 79.6 118.9 79.9 119.1 80.1C119.3 80.3 119.5 80.5 119.8 80.6C120.1 80.6 120.4 80.6 120.7 80.5C121.1 80.4 121.4 80.3 121.8 80.1C122.2 79.9 122.6 79.8 123 79.6C123.4 79.4 123.8 79.3 124.2 79.1C124.6 79 125 78.9 125.4 78.9C125.8 78.9 126.2 79 126.5 79.1C126.9 79.3 127.3 79.7 127.6 80C127.9 80.4 128 80.9 128.1 81.3C128.1 81.8 128.1 82.2 127.9 82.7C127.7 83.2 127.5 83.6 127.2 83.9C126.9 84.3 126.5 84.6 126.1 84.9C125.6 85.2 125.1 85.5 124.6 85.7C124.1 85.9 123.6 86 123.1 86C122.6 86 122.1 85.9 121.6 85.6C121.1 85.3 120.7 84.9 120.3 84.5L121.4 83.7C121.6 84 122 84.3 122.3 84.5C122.6 84.7 123 84.7 123.3 84.7C123.7 84.7 124 84.6 124.4 84.5C124.8 84.4 125.1 84.2 125.4 83.9C125.7 83.7 125.9 83.5 126.1 83.3C126.3 83.1 126.5 82.8 126.6 82.5C126.7 82.2 126.8 81.9 126.7 81.6C126.7 81.3 126.5 81 126.3 80.8C126.1 80.5 125.8 80.3 125.5 80.3C125.2 80.2 124.9 80.2 124.5 80.3C124.1 80.4 123.8 80.5 123.4 80.7L122.2 81.2C121.8 81.4 121.4 81.5 121 81.7C120.6 81.8 120.2 81.9 119.8 82C119.4 82 119 82 118.7 81.8C118.3 81.6 118 81.3 117.7 81C117.4 80.6 117.2 80.2 117.1 79.7C117 79.3 117.1 78.8 117.2 78.4C117.4 78 117.6 77.6 117.9 77.2C118.2 76.8 118.5 76.5 118.9 76.2C119.3 75.9 119.8 75.6 120.3 75.5C120.7 75.3 121.2 75.2 121.7 75.3C122.2 75.3 122.6 75.4 123 75.6C123.5 75.9 123.9 76.2 124.2 76.6L123.1 77.4C122.9 77.1 122.7 76.9 122.4 76.8C122.1 76.7 122.1 76.5 121.7 76.5Z" fill="black"/>
<path d="M128.7 66.9L129.6 67.6L126 72.3L128.7 74.4L132 70L132.9 70.7L129.5 75.1L132.4 77.4L136.1 72.7L137 73.4L132.5 79.2L124.1 72.7L128.7 66.9Z" fill="black"/>
<path d="M141.7 61.5999C142.1 62.6999 142.1 63.8 141.6 64.9C141.3 66 140.5 66.9999 139.6 67.5999C139.1 67.7999 138.5 68 137.9 68C137.3 68 136.8 67.8999 136.2 67.5999L129.8 65.3L130.3 64L136.7 66.3C137.1 66.5 137.5 66.5 137.8 66.5C138.2 66.5 138.6 66.4 138.9 66.3C139.2 66.1 139.6 65.9 139.8 65.5C140 65.2 140.2 64.8 140.3 64.5C140.5 64.2 140.5 63.8 140.5 63.4C140.5 63 140.4 62.5999 140.3 62.2999C139.9 61.5999 139.3 61.1 138.5 60.9L132.1 58.5999L132.6 57.2L139 59.5C139.5 59.6 140 59.8999 140.5 60.2999C140.9 60.6999 141.3 61.0999 141.5 61.5999" fill="black"/>
<path d="M132.8 53.4L141.8 50L132.8 46.5999V44.7H143.5V46H134.6L143.5 49.2999V50.5L134.6 53.7999H143.5V55.0999H132.8V53.4Z" fill="black"/>
<path d="M140.7 34.5L141.2 35.8L137.1 37.3L132.6 43.3L132 41.7001L135.7 37L129.9 35.8L129.4 34.3L136.7 36L140.7 34.5Z" fill="black"/>
<path d="M126.4 28.2001C126.4 28.8001 126.7 29.5 127.1 30C127.3 30.2 127.5 30.5001 127.7 30.7001C127.9 30.9001 128.1 31 128.4 31.1C128.6 31.2001 128.9 31.2001 129.2 31.2001C129.5 31.2001 129.8 31 130 30.8C130.2 30.6 130.4 30.4001 130.5 30.1C130.5 29.8 130.5 29.5001 130.4 29.2001C130.3 28.8001 130.2 28.5001 130 28.1C129.8 27.7 129.7 27.3 129.5 26.9C129.3 26.5 129.2 26.1001 129 25.7001C128.9 25.3001 128.8 24.9 128.8 24.5C128.8 24.1 128.9 23.7 129 23.4C129.2 23 129.6 22.6 129.9 22.3C130.3 22 130.8 21.9 131.2 21.8C131.7 21.8 132.1 21.8 132.6 22C133.1 22.2 133.5 22.4001 133.8 22.7001C134.2 23.0001 134.5 23.4 134.8 23.8C135.1 24.2 135.4 24.7001 135.6 25.2001C135.8 25.7001 135.9 26.2001 135.9 26.7001C135.9 27.2001 135.8 27.7001 135.5 28.2001C135.2 28.7001 134.9 29.2 134.4 29.5L133.6 28.4C133.9 28.2 134.2 27.9 134.4 27.5C134.6 27.2 134.6 26.8 134.6 26.5C134.6 26.1 134.5 25.8 134.4 25.4C134.3 25 134.1 24.7 133.8 24.4C133.6 24.1 133.4 23.9001 133.2 23.7001C133 23.5001 132.7 23.3001 132.4 23.2001C132.1 23.1001 131.8 23 131.5 23.1C131.2 23.1 130.9 23.3 130.7 23.5C130.4 23.7 130.2 24 130.2 24.3C130.1 24.6 130.1 24.9 130.2 25.3C130.3 25.7 130.4 26 130.6 26.4L131.1 27.6C131.3 28.0001 131.4 28.4 131.6 28.8C131.7 29.2 131.8 29.6 131.9 30C131.9 30.4 131.9 30.7001 131.7 31.1C131.5 31.5 131.2 31.8 130.9 32.1C130.5 32.4 130.1 32.6 129.6 32.7001C129.2 32.8001 128.7 32.7 128.3 32.6C127.9 32.4 127.5 32.2 127.1 31.9C126.7 31.6 126.4 31.3 126.1 30.9C125.8 30.5 125.5 30 125.4 29.5C125.2 29.1 125.1 28.6 125.2 28.1C125.2 27.6 125.3 27.2 125.5 26.8C125.8 26.3 126.1 25.9001 126.5 25.6L127.3 26.7001C127 26.9001 126.8 27.1 126.7 27.4C126.6 27.5 126.5 27.8001 126.4 28.2001Z" fill="black"/>
<path d="M116.9 21.3L117.6 20.4L122.3 24L124.4 21.3L120 17.9L120.7 17L125.1 20.4L127.4 17.5L122.7 13.8L123.4 12.9L129.2 17.4L122.7 25.8L116.9 21.3Z" fill="black"/>
<path d="M111.6 8.30002C112.7 7.90002 113.8 7.90002 114.9 8.40002C116 8.70002 117 9.50002 117.6 10.4C117.8 10.9 118 11.5 118 12C118 12.6 117.9 13.1 117.6 13.7L115.3 20.1L113.9 19.6L116.2 13.2C116.4 12.8 116.4 12.4 116.4 12.1C116.4 11.8 116.3 11.3 116.2 11C116 10.7 115.8 10.3 115.4 10.1C115.1 9.90002 114.7 9.70002 114.4 9.60002C114.1 9.40002 113.7 9.40002 113.3 9.40002C112.9 9.40002 112.5 9.50002 112.2 9.60002C111.5 10 111 10.6 110.8 11.4L108.5 17.8L107.1 17.3L109.4 10.9C109.5 10.4 109.8 9.90002 110.2 9.40002C110.6 9.00002 111 8.60002 111.5 8.40002" fill="black"/>
<path d="M103.3 17.1L99.9001 8.1L96.5001 17.1H94.6001V6.5H96.0001V15.4L99.3001 6.5H100.5L103.8 15.4V6.5H105.1V17.2H103.3V17.1Z" fill="black"/>
<path d="M84.4 9.19995L85.7 8.69995L87.2 12.8L93.2 17.3L91.6 18L86.9 14.3L85.7 20.1L84.2 20.6L85.9 13.3L84.4 9.19995Z" fill="black"/>
<path d="M78.2 23.5C78.8 23.5 79.5 23.2 80 22.8C80.2 22.6 80.5 22.4 80.7 22.2C80.9 22 81 21.8 81.1 21.5C81.2 21.3 81.2 21 81.2 20.7C81.1 20.4 81 20.1 80.8 19.9C80.6 19.7 80.4 19.5 80.1 19.4C79.8 19.4 79.5 19.4 79.2 19.5C78.8 19.6 78.5 19.7 78.1 19.9C77.7 20.1 77.3 20.2 76.9 20.4C76.5 20.6 76.1 20.7 75.7 20.9C75.3 21 74.9 21.1 74.5 21.1C74.1 21.1 73.7 21 73.4 20.9C73 20.7 72.6 20.3 72.3 20C72 19.6 71.9 19.1 71.8 18.7C71.8 18.2 71.8 17.8 72 17.3C72.2 16.8 72.4 16.4 72.7 16.1C73 15.7 73.4 15.4 73.8 15.1C74.3 14.8 74.8 14.5 75.3 14.3C75.8 14.1 76.3 14 76.8 14C77.3 14 77.8 14.1 78.3 14.4C78.8 14.7 79.2 15.1 79.6 15.5L78.5 16.3C78.3 16 78 15.7 77.6 15.5C77.3 15.3 76.9 15.3 76.6 15.3C76.2 15.3 75.9 15.4 75.5 15.5C75.1 15.6 74.8 15.8 74.5 16.1C74.2 16.3 74 16.5 73.8 16.7C73.6 16.9 73.4 17.2 73.3 17.5C73.2 17.8 73.1 18.1 73.1 18.4C73.1 18.7 73.3 19 73.5 19.3C73.7 19.6 74 19.8 74.3 19.8C74.6 19.9 74.9 19.9 75.3 19.8C75.7 19.7 76 19.6 76.4 19.4L77.6 18.9C78 18.7 78.4 18.6 78.8 18.4C79.2 18.3 79.6 18.2 80 18.1C80.4 18.1 80.7 18.1 81.1 18.3C81.5 18.5 81.8 18.8 82.1 19.1C82.4 19.5 82.6 19.9 82.7 20.4C82.8 20.8 82.7 21.3 82.6 21.7C82.4 22.1 82.2 22.5 81.9 22.9C81.6 23.3 81.3 23.6 80.9 23.9C80.5 24.2 80 24.5 79.5 24.6C79.1 24.8 78.6 24.9 78.1 24.8C77.6 24.8 77.2 24.7 76.8 24.5C76.3 24.2 75.9 23.9 75.6 23.5L76.7 22.7C76.9 23 77.1 23.2 77.4 23.3C77.5 23.5 77.8 23.5 78.2 23.5Z" fill="black"/>
<path d="M71.2 33.1L70.3 32.4001L74 27.7001L71.3 25.6L67.9 30L67 29.3L70.4 24.9L67.5 22.6L63.8 27.3L62.9 26.6L67.4 20.8L75.8 27.3L71.2 33.1Z" fill="black"/>
<path d="M58.2 38.4C57.8 37.3 57.8 36.2 58.3 35.1C58.6 34 59.4 33 60.3 32.4C60.8 32.2 61.4 32 62 32C62.6 32 63.1 32.1 63.7 32.4L70.1 34.7L69.6 36.1L63.2 33.8C62.8 33.6 62.4 33.6 62.1 33.6C61.7 33.6 61.3 33.7 61 33.8C60.3 34.2 59.8 34.8 59.5 35.5C59.3 35.8 59.3 36.2 59.3 36.6C59.3 37 59.4 37.4 59.5 37.7C59.9 38.4 60.5 38.9 61.3 39.1L67.7 41.4L67.2 42.8L60.8 40.5C60.3 40.4 59.8 40.1 59.3 39.7C58.9 39.4 58.5 38.9 58.2 38.4Z" fill="black"/>
</svg>
