<svg xmlns="http://www.w3.org/2000/svg" focusable="false" role="img" viewBox="0 0 200 100" fill="currentColor">
  <path d="M59.2 65.5l-.5-1.3 4.1-1.5 4.5-6 .6 1.6-3.7 4.7 5.8 1.2.5 1.5-7.3-1.7-4 1.5zM73.5 71.8c0-.6-.3-1.3-.7-1.8-.2-.2-.4-.5-.6-.7-.2-.2-.4-.3-.7-.4-.2-.1-.5-.1-.8-.1-.3 0-.6.2-.8.4-.2.2-.4.4-.5.7 0 .3 0 .6.1.9.1.4.2.7.4 1.1.2.4.3.8.5 1.2.2.4.3.8.5 1.2.1.4.2.8.2 1.2 0 .4-.1.8-.2 1.1-.2.4-.6.8-.9 1.1-.4.3-.9.4-1.3.5-.5 0-.9 0-1.4-.2-.5-.2-.9-.4-1.2-.7-.4-.3-.7-.7-1-1.1-.3-.5-.6-1-.8-1.5-.2-.5-.3-1-.3-1.5s.1-1 .4-1.5c.3-.5.7-.9 1.1-1.3l.8 1.1c-.3.2-.6.5-.8.9-.2.3-.2.7-.2 1 0 .4.1.7.2 1.1.1.4.3.7.6 1 .2.3.4.5.6.7.2.2.5.4.8.5.3.1.6.2.9.1.3 0 .6-.2.8-.4.3-.2.5-.5.5-.8.1-.3.1-.6 0-1s-.2-.7-.4-1.1l-.5-1.2c-.2-.4-.3-.8-.5-1.2l-.3-1.2c0-.4 0-.7.2-1.1.2-.4.5-.7.8-1 .4-.3.8-.5 1.3-.6.4-.1.9 0 1.3.1.4.2.8.4 1.2.7.4.3.7.6 1 1 .3.4.6.9.7 1.4.2.4.3.9.2 1.4 0 .5-.1.9-.3 1.3-.3.5-.6.9-1 1.2l-.8-1.1c.3-.2.5-.4.6-.7.2-.1.3-.4.3-.7zM83 78.7l-.7.9-4.7-3.6-2.1 2.7 4.4 3.4-.7.9-4.4-3.4-2.3 2.9 4.7 3.7-.7.9-5.8-4.5 6.5-8.4 5.8 4.5zM88.3 91.7c-1.1.4-2.2.4-3.3-.1-1.1-.3-2.1-1.1-2.7-2-.2-.5-.4-1.1-.4-1.7 0-.6.1-1.1.4-1.7l2.3-6.4 1.4.5-2.3 6.4c-.2.4-.2.8-.2 1.1 0 .4.1.8.2 1.1.4.7 1 1.2 1.8 1.5.3.2.7.2 1.1.2.4 0 .8-.1 1.1-.2.7-.4 1.2-1 1.4-1.8l2.3-6.4 1.4.5-2.3 6.4c-.1.5-.4 1-.8 1.5-.3.5-.8.9-1.4 1.1zM96.6 82.9l3.4 9 3.4-9h1.9v10.7H104v-8.9l-3.3 8.9h-1.2L96 84.7v8.9h-1.3V82.9h1.9zM67.2 46.6l-9 3.4 9 3.4v1.9H56.5V54h8.9l-8.9-3.3v-1.2l8.9-3.3h-8.9v-1.3h10.7v1.7zM115.5 90.8l-1.3.5-1.5-4.1-6-4.5 1.6-.6 4.7 3.7 1.2-5.8 1.5-.5-1.7 7.3 1.5 4zM121.7 76.5c-.6 0-1.3.3-1.8.7-.2.2-.5.4-.7.6-.2.2-.3.4-.4.7-.1.2-.1.5-.1.8 0 .3.2.6.4.8.2.2.4.4.7.5.3 0 .6 0 .9-.1.4-.1.7-.2 1.1-.4.4-.2.8-.3 1.2-.5.4-.2.8-.3 1.2-.5.4-.1.8-.2 1.2-.2.4 0 .8.1 1.1.2.4.2.8.6 1.1.9.3.4.4.9.5 1.3 0 .5 0 .9-.2 1.4-.2.5-.4.9-.7 1.2-.3.4-.7.7-1.1 1-.5.3-1 .6-1.5.8-.5.2-1 .3-1.5.3s-1-.1-1.5-.4c-.5-.3-.9-.7-1.3-1.1l1.1-.8c.2.3.6.6.9.8.3.2.7.2 1 .2.4 0 .7-.1 1.1-.2.4-.1.7-.3 1-.6.3-.2.5-.4.7-.6.2-.2.4-.5.5-.8.1-.3.2-.6.1-.9 0-.3-.2-.6-.4-.8-.2-.3-.5-.5-.8-.5-.3-.1-.6-.1-1 0s-.7.2-1.1.4l-1.2.5c-.4.2-.8.3-1.2.5l-1.2.3c-.4 0-.8 0-1.1-.2-.4-.2-.7-.5-1-.8-.3-.4-.5-.8-.6-1.3-.1-.4 0-.9.1-1.3.2-.4.4-.8.7-1.2.3-.4.6-.7 1-1 .4-.3.9-.6 1.4-.7.4-.2.9-.3 1.4-.2.5 0 .9.1 1.3.3.5.3.9.6 1.2 1l-1.1.8c-.2-.3-.4-.5-.7-.6-.3-.1-.3-.3-.7-.3zM128.7 66.9l.9.7-3.6 4.7 2.7 2.1L132 70l.9.7-3.4 4.4 2.9 2.3 3.7-4.7.9.7-4.5 5.8-8.4-6.5 4.6-5.8zM141.7 61.6c.4 1.1.4 2.2-.1 3.3-.3 1.1-1.1 2.1-2 2.7-.5.2-1.1.4-1.7.4-.6 0-1.1-.1-1.7-.4l-6.4-2.3.5-1.3 6.4 2.3c.4.2.8.2 1.1.2.4 0 .8-.1 1.1-.2.3-.2.7-.4.9-.8.2-.3.4-.7.5-1 .2-.3.2-.7.2-1.1 0-.4-.1-.8-.2-1.1-.4-.7-1-1.2-1.8-1.4l-6.4-2.3.5-1.4 6.4 2.3c.5.1 1 .4 1.5.8.4.4.8.8 1 1.3M132.8 53.4l9-3.4-9-3.4v-1.9h10.7V46h-8.9l8.9 3.3v1.2l-8.9 3.3h8.9v1.3h-10.7v-1.7zM140.7 34.5l.5 1.3-4.1 1.5-4.5 6-.6-1.6 3.7-4.7-5.8-1.2-.5-1.5 7.3 1.7 4-1.5zM126.4 28.2c0 .6.3 1.3.7 1.8.2.2.4.5.6.7.2.2.4.3.7.4.2.1.5.1.8.1.3 0 .6-.2.8-.4.2-.2.4-.4.5-.7 0-.3 0-.6-.1-.9-.1-.4-.2-.7-.4-1.1-.2-.4-.3-.8-.5-1.2-.2-.4-.3-.8-.5-1.2-.1-.4-.2-.8-.2-1.2 0-.4.1-.8.2-1.1.2-.4.6-.8.9-1.1.4-.3.9-.4 1.3-.5.5 0 .9 0 1.4.2.5.2.9.4 1.2.7.4.3.7.7 1 1.1.3.4.6.9.8 1.4.2.5.3 1 .3 1.5s-.1 1-.4 1.5c-.3.5-.6 1-1.1 1.3l-.8-1.1c.3-.2.6-.5.8-.9.2-.3.2-.7.2-1 0-.4-.1-.7-.2-1.1-.1-.4-.3-.7-.6-1-.2-.3-.4-.5-.6-.7-.2-.2-.5-.4-.8-.5-.3-.1-.6-.2-.9-.1-.3 0-.6.2-.8.4-.3.2-.5.5-.5.8-.1.3-.1.6 0 1s.2.7.4 1.1l.5 1.2c.2.4.3.8.5 1.2l.3 1.2c0 .4 0 .7-.2 1.1-.2.4-.5.7-.8 1-.4.3-.8.5-1.3.6-.4.1-.9 0-1.3-.1-.4-.2-.8-.4-1.2-.7-.4-.3-.7-.6-1-1-.3-.4-.6-.9-.7-1.4-.2-.4-.3-.9-.2-1.4 0-.5.1-.9.3-1.3.3-.5.6-.9 1-1.2l.8 1.1c-.3.2-.5.4-.6.7-.1.1-.2.4-.3.8zM116.9 21.3l.7-.9 4.7 3.6 2.1-2.7-4.4-3.4.7-.9 4.4 3.4 2.3-2.9-4.7-3.7.7-.9 5.8 4.5-6.5 8.4-5.8-4.5zM111.6 8.3c1.1-.4 2.2-.4 3.3.1 1.1.3 2.1 1.1 2.7 2 .2.5.4 1.1.4 1.6 0 .6-.1 1.1-.4 1.7l-2.3 6.4-1.4-.5 2.3-6.4c.2-.4.2-.8.2-1.1 0-.3-.1-.8-.2-1.1-.2-.3-.4-.7-.8-.9-.3-.2-.7-.4-1-.5-.3-.2-.7-.2-1.1-.2-.4 0-.8.1-1.1.2-.7.4-1.2 1-1.4 1.8l-2.3 6.4-1.4-.5 2.3-6.4c.1-.5.4-1 .8-1.5.4-.4.8-.8 1.3-1M103.3 17.1l-3.4-9-3.4 9h-1.9V6.5H96v8.9l3.3-8.9h1.2l3.3 8.9V6.5h1.3v10.7h-1.8v-.1zM84.4 9.2l1.3-.5 1.5 4.1 6 4.5-1.6.7-4.7-3.7-1.2 5.8-1.5.5 1.7-7.3-1.5-4.1zM78.2 23.5c.6 0 1.3-.3 1.8-.7.2-.2.5-.4.7-.6.2-.2.3-.4.4-.7.1-.2.1-.5.1-.8-.1-.3-.2-.6-.4-.8-.2-.2-.4-.4-.7-.5-.3 0-.6 0-.9.1-.4.1-.7.2-1.1.4-.4.2-.8.3-1.2.5-.4.2-.8.3-1.2.5-.4.1-.8.2-1.2.2-.4 0-.8-.1-1.1-.2-.4-.2-.8-.6-1.1-.9-.3-.4-.4-.9-.5-1.3 0-.5 0-.9.2-1.4.2-.5.4-.9.7-1.2.3-.4.7-.7 1.1-1 .5-.3 1-.6 1.5-.8.5-.2 1-.3 1.5-.3s1 .1 1.5.4c.5.3.9.7 1.3 1.1l-1.1.8c-.2-.3-.5-.6-.9-.8-.3-.2-.7-.2-1-.2-.4 0-.7.1-1.1.2-.4.1-.7.3-1 .6-.3.2-.5.4-.7.6-.2.2-.4.5-.5.8-.1.3-.2.6-.2.9 0 .3.2.6.4.9.2.3.5.5.8.5.3.1.6.1 1 0s.7-.2 1.1-.4l1.2-.5c.4-.2.8-.3 1.2-.5l1.2-.3c.4 0 .7 0 1.1.2.4.2.7.5 1 .8.3.4.5.8.6 1.3.1.4 0 .9-.1 1.3-.2.4-.4.8-.7 1.2-.3.4-.6.7-1 1-.4.3-.9.6-1.4.7-.4.2-.9.3-1.4.2-.5 0-.9-.1-1.3-.3-.5-.3-.9-.6-1.2-1l1.1-.8c.2.3.4.5.7.6.1.2.4.2.8.2zM71.2 33.1l-.9-.7 3.7-4.7-2.7-2.1-3.4 4.4-.9-.7 3.4-4.4-2.9-2.3-3.7 4.7-.9-.7 4.5-5.8 8.4 6.5-4.6 5.8zM58.2 38.4c-.4-1.1-.4-2.2.1-3.3.3-1.1 1.1-2.1 2-2.7.5-.2 1.1-.4 1.7-.4.6 0 1.1.1 1.7.4l6.4 2.3-.5 1.4-6.4-2.3c-.4-.2-.8-.2-1.1-.2-.4 0-.8.1-1.1.2-.7.4-1.2 1-1.5 1.7-.2.3-.2.7-.2 1.1 0 .4.1.8.2 1.1.4.7 1 1.2 1.8 1.4l6.4 2.3-.5 1.4-6.4-2.3c-.5-.1-1-.4-1.5-.8-.4-.3-.8-.8-1.1-1.3z"/>
</svg>
