<svg xmlns="http://www.w3.org/2000/svg" focusable="false" role="img" viewBox="0 0 200 100" fill="currentColor">
  <path d="M96.143 39.555a8.903 8.903 0 00-9.095 9.095v8.616a2.045 2.045 0 004.09 0v-9.095a5.028 5.028 0 0110.053 0v9.095a2.043 2.043 0 002.045 2.046 2.044 2.044 0 002.045-2.046V48.65a8.931 8.931 0 00-2.632-6.494 8.938 8.938 0 00-6.506-2.6zM123.566 39.73a1.86 1.86 0 00-1.914 1.479l-5.005 13.533-5.57-13.881a1.862 1.862 0 00-2.066-1.098 1.861 1.861 0 00-1.502 1.794c.016.283.075.561.174.827l6.788 16.275a12.94 12.94 0 01-4.96 5.44 1.812 1.812 0 00-1.045 1.696 1.727 1.727 0 001.828 1.654 2.093 2.093 0 001.044-.305c3.83-2.175 5.831-4.96 8.05-10.096a254.284 254.284 0 005.744-14.49c.108-.308.167-.631.175-.958a1.708 1.708 0 00-.446-1.33 1.703 1.703 0 00-1.295-.54zM164.738 37.894a2.39 2.39 0 002.211-1.478 2.398 2.398 0 00-.519-2.608 2.394 2.394 0 00-4.086 1.693 2.417 2.417 0 002.394 2.393zM164.738 39.73a2.017 2.017 0 00-2.046 2.045v15.491a2.048 2.048 0 002.046 2.046 2.046 2.046 0 002.045-2.046V41.774a2.02 2.02 0 00-2.045-2.045zM149.971 39.555a8.97 8.97 0 00-7.075 3.258 9.043 9.043 0 00-7.101-3.258 8.9 8.9 0 00-9.095 9.095v8.616a2.047 2.047 0 002.045 2.046 2.043 2.043 0 002.045-2.046v-9.095a5.034 5.034 0 015.027-4.873 5.027 5.027 0 015.026 4.873v9.095a2.043 2.043 0 002.045 2.046l.016-.002.017.002a2.042 2.042 0 002.045-2.046v-9.095a5.034 5.034 0 015.027-4.873 5.027 5.027 0 015.026 4.873v9.095a2.043 2.043 0 002.045 2.046 2.043 2.043 0 002.045-2.046V48.65a8.931 8.931 0 00-2.632-6.494 8.931 8.931 0 00-6.506-2.6zM56.21 27.845a22.433 22.433 0 100 44.866 22.433 22.433 0 000-44.866zM69.96 50.5h-5.63c-.065 0-.13-.003-.193-.01h-.028a.708.708 0 00-.345.075 1.09 1.09 0 00-.083.52v5.832a2.74 2.74 0 01-1.679 2.821l-.108.033a2.227 2.227 0 01-.6.084 3.293 3.293 0 01-2.558-1.757.87.87 0 01-.088-.125l-5.954-9.594v1.107a4.43 4.43 0 01-1.407 3.472 4.585 4.585 0 01-3.295 1.066l-5.531.001a1.977 1.977 0 110-3.954h5.63c.065 0 .13.003.196.01a.768.768 0 00.37-.075 1.1 1.1 0 00.083-.52v-5.832a2.739 2.739 0 011.678-2.821l.118-.035a2.23 2.23 0 01.593-.082 3.278 3.278 0 012.547 1.746c.032.037.061.077.087.119l5.964 9.61v-1.106a4.434 4.434 0 011.405-3.472 4.589 4.589 0 013.296-1.066l5.532-.002a1.978 1.978 0 010 3.955z"/>
</svg>
