<svg width="200" height="100" viewBox="0 0 200 100" fill="none" xmlns="http://www.w3.org/2000/svg">
<path d="M96.1426 39.5551C94.9411 39.5289 93.7467 39.7462 92.6314 40.194C91.5161 40.6418 90.503 41.3108 89.6532 42.1606C88.8034 43.0104 88.1345 44.0235 87.6867 45.1388C87.239 46.2541 87.0217 47.4485 87.0479 48.65V57.2663C87.0479 57.8088 87.2634 58.329 87.6469 58.7125C88.0305 59.096 88.5507 59.3115 89.0931 59.3115C89.6355 59.3115 90.1557 59.096 90.5392 58.7125C90.9228 58.329 91.1382 57.8088 91.1382 57.2663V48.1713C91.1785 46.8651 91.7257 45.6259 92.664 44.7161C93.6022 43.8064 94.8577 43.2976 96.1646 43.2976C97.4714 43.2976 98.727 43.8064 99.6652 44.7161C100.603 45.6259 101.151 46.8651 101.191 48.1713V57.2663C101.191 57.8088 101.406 58.3289 101.79 58.7125C102.173 59.096 102.694 59.3115 103.236 59.3115C103.778 59.3115 104.299 59.096 104.682 58.7125C105.066 58.3289 105.281 57.8088 105.281 57.2663V48.65C105.303 47.4461 105.08 46.2503 104.628 45.1344C104.176 44.0184 103.503 43.0054 102.649 42.156C101.796 41.3066 100.779 40.6384 99.6614 40.1914C98.5433 39.7445 97.3464 39.5281 96.1426 39.5551Z" fill="black"/>
<path d="M123.566 39.7294C123.123 39.7072 122.687 39.8441 122.336 40.1154C121.985 40.3867 121.742 40.7745 121.652 41.2089L116.647 54.7423L111.077 40.8607C110.91 40.4688 110.614 40.1459 110.238 39.9462C109.862 39.7464 109.429 39.6819 109.011 39.7635C108.593 39.8451 108.216 40.0677 107.942 40.3942C107.669 40.7207 107.516 41.1312 107.509 41.557C107.525 41.8398 107.584 42.1185 107.683 42.3838L114.471 58.6589C113.379 60.9141 111.656 62.8037 109.511 64.0984C109.19 64.2477 108.919 64.4881 108.733 64.7899C108.548 65.0916 108.455 65.4413 108.466 65.7954C108.475 66.0247 108.53 66.25 108.627 66.4579C108.725 66.6658 108.862 66.8522 109.033 67.0062C109.203 67.1602 109.402 67.2787 109.619 67.3548C109.835 67.4308 110.065 67.4629 110.294 67.4491C110.663 67.4413 111.023 67.3363 111.338 67.1446C115.168 64.9686 117.169 62.1835 119.388 57.0486C121.825 51.4352 123.827 46.1696 125.132 42.5577C125.24 42.2498 125.299 41.9268 125.307 41.6006C125.331 41.3599 125.304 41.1167 125.227 40.8874C125.15 40.658 125.025 40.4477 124.861 40.2705C124.696 40.0934 124.495 39.9535 124.272 39.8602C124.049 39.7668 123.808 39.7222 123.566 39.7294Z" fill="black"/>
<path d="M164.738 37.8938C165.211 37.8938 165.674 37.7534 166.067 37.4905C166.461 37.2275 166.768 36.8537 166.949 36.4163C167.13 35.979 167.177 35.4977 167.085 35.0334C166.993 34.5691 166.765 34.1427 166.43 33.8079C166.095 33.4732 165.669 33.2453 165.205 33.1529C164.74 33.0606 164.259 33.108 163.822 33.2892C163.384 33.4703 163.011 33.7771 162.748 34.1708C162.485 34.5644 162.344 35.0271 162.344 35.5005C162.35 36.1335 162.604 36.7391 163.051 37.1867C163.499 37.6343 164.105 37.8882 164.738 37.8938Z" fill="black"/>
<path d="M164.738 39.7293C164.468 39.7253 164.2 39.7755 163.95 39.8768C163.7 39.9782 163.473 40.1287 163.282 40.3194C163.092 40.5101 162.941 40.7371 162.84 40.9871C162.738 41.237 162.688 41.5048 162.692 41.7745V57.2664C162.692 57.8089 162.908 58.3292 163.291 58.7128C163.675 59.0963 164.195 59.3119 164.737 59.3119C165.28 59.3119 165.8 59.0963 166.184 58.7128C166.567 58.3292 166.783 57.8089 166.783 57.2664V41.7745C166.787 41.5048 166.737 41.2371 166.635 40.9872C166.534 40.7372 166.383 40.5102 166.193 40.3195C166.002 40.1288 165.775 39.9783 165.525 39.8769C165.275 39.7756 165.007 39.7254 164.738 39.7293Z" fill="black"/>
<path d="M149.971 39.5551C148.622 39.5312 147.286 39.8117 146.061 40.3757C144.836 40.9397 143.754 41.7726 142.896 42.8125C142.031 41.7731 140.944 40.9408 139.715 40.377C138.486 39.8133 137.147 39.5324 135.795 39.5551C134.593 39.5289 133.399 39.7462 132.284 40.194C131.168 40.6418 130.155 41.3108 129.305 42.1606C128.456 43.0104 127.787 44.0235 127.339 45.1388C126.891 46.2541 126.674 47.4485 126.7 48.65V57.2663C126.7 57.8088 126.916 58.3289 127.299 58.7125C127.683 59.096 128.203 59.3115 128.745 59.3115C129.288 59.3115 129.808 59.096 130.191 58.7125C130.575 58.3289 130.79 57.8088 130.79 57.2663V48.1713C130.831 46.8651 131.378 45.6258 132.316 44.716C133.254 43.8062 134.51 43.2975 135.817 43.2975C137.124 43.2975 138.379 43.8062 139.317 44.716C140.256 45.6258 140.803 46.8651 140.843 48.1713V57.2663C140.843 57.535 140.895 57.8011 140.998 58.0493C141.101 58.2976 141.251 58.5232 141.441 58.7131C141.631 58.9031 141.857 59.0537 142.105 59.1564C142.353 59.2591 142.619 59.3118 142.888 59.3115L142.904 59.3099L142.921 59.3115C143.19 59.3118 143.456 59.2591 143.704 59.1565C143.952 59.0538 144.178 58.9032 144.368 58.7132C144.558 58.5232 144.708 58.2976 144.811 58.0494C144.914 57.8011 144.967 57.535 144.966 57.2663V48.1713C145.007 46.8651 145.554 45.6258 146.492 44.716C147.43 43.8062 148.686 43.2975 149.993 43.2975C151.3 43.2975 152.555 43.8062 153.493 44.716C154.432 45.6258 154.979 46.8651 155.019 48.1713V57.2663C155.019 57.8088 155.234 58.3289 155.618 58.7125C156.002 59.096 156.522 59.3115 157.064 59.3115C157.607 59.3115 158.127 59.096 158.51 58.7125C158.894 58.3289 159.109 57.8088 159.109 57.2663V48.65C159.131 47.4461 158.908 46.2503 158.456 45.1344C158.004 44.0184 157.331 43.0054 156.477 42.156C155.624 41.3066 154.608 40.6384 153.489 40.1915C152.371 39.7445 151.174 39.5281 149.971 39.5551Z" fill="black"/>
<path d="M56.21 27.845C51.7733 27.845 47.4362 29.1607 43.7472 31.6256C40.0582 34.0906 37.1829 37.5941 35.4851 41.6931C33.7872 45.7921 33.343 50.3026 34.2086 54.6541C35.0742 59.0056 37.2107 63.0027 40.3479 66.1399C43.4852 69.2772 47.4823 71.4137 51.8338 72.2793C56.1853 73.1448 60.6957 72.7006 64.7948 71.0027C68.8938 69.3049 72.3973 66.4296 74.8623 62.7406C77.3272 59.0516 78.6429 54.7145 78.6429 50.2778C78.6429 47.3318 78.0627 44.4147 76.9353 41.6931C75.808 38.9714 74.1556 36.4984 72.0725 34.4153C69.9894 32.3322 67.5164 30.6798 64.7947 29.5525C62.0731 28.4252 59.156 27.8449 56.21 27.845ZM69.9602 50.5002H64.3298C64.2645 50.5002 64.2003 50.4969 64.1372 50.4906L64.1092 50.4909C63.9898 50.4861 63.8711 50.5115 63.7641 50.5647C63.6941 50.7287 63.6654 50.9074 63.6807 51.0851V56.9172C63.7431 57.5056 63.6133 58.0984 63.3108 58.6069C63.0083 59.1154 62.5492 59.5123 62.0023 59.7382L61.8942 59.7711C61.6987 59.8262 61.4966 59.8543 61.2934 59.8545C60.7557 59.7942 60.241 59.6024 59.795 59.296C59.349 58.9896 58.9853 58.578 58.7361 58.0977V58.098C58.7032 58.0589 58.6738 58.0171 58.6483 57.9728L52.6942 48.379V49.486C52.7275 50.1324 52.6189 50.7783 52.3758 51.3782C52.1328 51.9781 51.7613 52.5174 51.2874 52.9583C50.3706 53.7308 49.1877 54.1135 47.9921 54.0244L42.4605 54.0254C41.936 54.0254 41.4331 53.8171 41.0623 53.4463C40.6914 53.0754 40.4831 52.5725 40.4831 52.0481C40.4831 51.5236 40.6914 51.0207 41.0623 50.6498C41.4331 50.279 41.936 50.0707 42.4605 50.0707H48.0903C48.1556 50.0707 48.2215 50.0739 48.2868 50.0802C48.4143 50.0867 48.5414 50.0613 48.6566 50.0062C48.7259 49.8421 48.7544 49.6636 48.7394 49.4861V43.6538C48.677 43.0653 48.8069 42.4725 49.1095 41.964C49.4122 41.4555 49.8714 41.0587 50.4184 40.833L50.5357 40.7976C50.7289 40.7439 50.9284 40.7165 51.1289 40.7162C51.6642 40.7755 52.1767 40.9658 52.621 41.2702C53.0653 41.5747 53.4278 41.9839 53.6763 42.4617C53.7083 42.4991 53.7371 42.539 53.7625 42.5811L59.7265 52.1915V51.0851C59.6931 50.4389 59.8017 49.7931 60.0446 49.1933C60.2874 48.5935 60.6586 48.0541 61.1322 47.6131C62.0492 46.8407 63.2322 46.4578 64.428 46.5465L69.9602 46.5454C70.4839 46.5466 70.9857 46.7555 71.3556 47.1262C71.7254 47.4969 71.9332 47.9992 71.9332 48.5228C71.9332 49.0465 71.7254 49.5488 71.3556 49.9195C70.9857 50.2902 70.4839 50.4991 69.9602 50.5002H69.9602Z" fill="black"/>
</svg>
