<svg width="200" height="100" viewBox="0 0 200 100" fill="none" xmlns="http://www.w3.org/2000/svg">
<path fill-rule="evenodd" clip-rule="evenodd" d="M50.073 57.8199C50.073 59.9999 48.957 62.8399 46.727 66.3429C44.367 70.0799 41.567 73.1929 38.324 75.6849C34.512 78.6149 30.804 80.0819 27.198 80.0819C25.018 80.0819 23.236 79.4989 21.848 78.3319C20.461 77.1649 19.768 75.6219 19.768 73.7019C19.768 71.1869 20.948 68.3219 23.31 65.1049C25.593 61.9669 28.407 59.2699 31.755 57.0129C35.388 54.6009 38.825 53.2789 42.069 53.0449C42.716 52.7819 43.751 52.4919 45.176 52.1749C48.44 51.9679 50.072 53.8489 50.072 57.8189L50.073 57.8199ZM49.026 56.7349C49.026 54.1129 47.626 52.8419 44.826 52.9189C42.414 52.9689 39.782 54.7619 36.932 58.2919C34.286 61.5639 32.912 64.2899 32.809 66.4699C32.729 68.2629 33.313 69.1579 34.559 69.1579C34.714 69.1579 34.882 69.1449 35.064 69.1179C36.101 68.9379 36.658 68.8729 36.736 68.9249C36.788 69.0289 36.814 69.1329 36.814 69.2349C36.814 69.3399 36.787 69.4299 36.736 69.5089C36.398 69.8189 35.813 69.9359 34.981 69.8589C33.681 69.7549 32.821 69.5089 32.406 69.1189C31.911 68.6509 31.652 67.7169 31.626 66.3159C31.599 64.8899 32.08 63.2809 33.069 61.4899C34.289 59.2339 36.161 57.0799 38.682 55.0299C34.505 57.2619 30.667 60.5179 27.165 64.7999C23.948 68.7169 22.327 71.7139 22.301 73.7899C22.249 77.7599 23.727 79.7449 26.735 79.7449C30.158 79.7449 33.737 78.1749 37.471 75.0349C40.609 72.3599 43.358 69.0769 45.718 65.1829C47.922 61.5499 49.024 58.7329 49.024 56.7349H49.026ZM60.518 66.2939C60.518 66.7079 59.168 68.4719 56.47 71.5819C53.85 74.5889 51.956 76.0919 50.788 76.0919C50.27 76.0919 49.836 75.8919 49.485 75.4899C49.135 75.0879 48.959 74.5899 48.959 73.9919C48.959 72.9039 49.319 71.7639 50.046 70.5719C50.46 69.8449 51.121 68.9769 52.026 67.9659C52.751 67.1359 53.114 66.6439 53.114 66.4879C53.114 66.3849 53.062 66.2419 52.959 66.0609C52.493 66.3729 51.756 66.5909 50.747 66.7229C50.333 66.7749 50.127 66.5289 50.127 65.9829C50.127 65.4669 50.424 64.6899 51.021 63.6529C51.669 62.4879 52.253 61.9029 52.771 61.9029C53.135 61.9029 53.344 62.1889 53.394 62.7579C53.421 62.9919 53.072 63.7949 52.344 65.1659C52.576 64.9839 53.066 64.7509 53.814 64.4659C54.562 64.1809 55.091 64.0499 55.401 64.0759C55.993 64.1279 56.291 64.4659 56.291 65.0889C56.291 65.7649 55.327 67.4329 53.401 70.0939C51.475 72.7539 50.511 74.3179 50.511 74.7839C50.511 75.2519 50.811 75.4839 51.408 75.4839C52.211 75.4839 53.808 74.0189 56.196 71.0839C56.662 70.5139 57.48 69.3719 58.648 67.6589C59.401 66.5689 59.906 66.0089 60.166 65.9839C60.4 65.9319 60.516 66.0339 60.516 66.2939H60.518Z" fill="black"/>
<path fill-rule="evenodd" clip-rule="evenodd" d="M70.6 66.294C70.6 67.048 69.446 68.669 67.136 71.161C64.593 73.888 62.296 75.706 60.248 76.614C59.08 78.614 57.95 80.326 56.861 81.754C54.216 85.207 51.921 86.946 49.974 86.972C49.274 87 48.689 86.812 48.221 86.409C47.755 86.005 47.521 85.467 47.521 84.792C47.521 83.052 49.001 81.364 51.959 79.728L57.485 77.078L59.742 73.458C58.056 74.885 56.888 75.572 56.24 75.52C55.097 75.417 54.502 74.767 54.45 73.574C54.37 71.654 55.357 69.497 57.408 67.097C59.458 64.697 61.403 63.487 63.246 63.459C64.023 63.459 64.608 63.846 64.996 64.622L65.814 63.96H68.267C67.047 65.777 65.995 67.385 65.115 68.787C62.935 72.135 61.715 74.171 61.455 74.897C63.168 74.094 65.128 72.394 67.333 69.799C68.269 68.553 69.203 67.321 70.136 66.101C70.24 66.049 70.344 66.049 70.448 66.101C70.551 66.127 70.604 66.191 70.604 66.295L70.6 66.294ZM56.824 78.36C53.528 79.656 51.154 81.096 49.701 82.68C48.689 83.77 48.235 84.715 48.338 85.52C48.443 86.196 48.898 86.532 49.701 86.532C51.777 86.532 54.151 83.807 56.824 78.36ZM64.144 65.107C64.144 64.615 63.858 64.369 63.287 64.369C62.483 64.369 61.139 65.739 59.257 68.485C57.375 71.23 56.434 73.172 56.434 74.31C56.434 74.442 56.447 74.546 56.474 74.623C57.616 74.467 59.186 73.108 61.184 70.543C63.156 68.059 64.144 66.246 64.144 65.107Z" fill="black"/>
<path fill-rule="evenodd" clip-rule="evenodd" d="M82.34 65.865C82.548 66.305 81.406 68.035 78.916 71.047C76.346 74.164 74.506 75.721 73.388 75.721C72.793 75.721 72.338 75.371 72.026 74.668C71.793 74.068 71.702 73.445 71.754 72.794C71.312 73.394 70.884 73.902 70.47 74.321C69.484 75.364 68.654 75.899 67.978 75.925C67.382 75.951 66.876 75.69 66.46 75.145C66.046 74.599 65.838 73.949 65.838 73.195C65.838 71.505 66.858 69.522 68.894 67.247C70.93 64.973 72.794 63.822 74.479 63.797C75.256 63.797 75.775 64.137 76.035 64.817L76.541 63.921L79.381 63.959L73.506 73.845C73.376 74.055 73.31 74.262 73.31 74.468C73.26 74.728 73.376 74.858 73.662 74.858C74.31 74.858 75.335 74.028 76.736 72.366C76.788 72.316 77.943 70.823 80.2 67.891C81.393 66.361 82.107 65.684 82.34 65.866V65.865ZM75.22 65.448C75.22 65.293 75.153 65.13 75.023 64.961C74.893 64.793 74.737 64.708 74.556 64.708C73.696 64.734 72.352 66.138 70.519 68.921C68.685 71.705 67.756 73.603 67.729 74.616C67.729 74.904 67.846 75.046 68.081 75.046C68.781 75.046 70.141 73.648 72.156 70.853C74.171 68.057 75.191 66.256 75.218 65.449L75.22 65.448Z" fill="black"/>
<path fill-rule="evenodd" clip-rule="evenodd" d="M94.294 66.178C90.044 72.608 86.946 75.822 85.004 75.822C83.864 75.822 83.294 75.097 83.294 73.644C83.294 72.399 84.148 70.7 85.861 68.549C87.574 66.396 88.429 65.099 88.429 64.659C88.429 64.452 88.351 64.347 88.197 64.347C87.082 64.347 85.323 65.891 82.915 68.979C80.74 71.781 79.367 73.959 78.799 75.517H75.963L83.125 63.957H85.615C85.461 64.373 84.915 65.372 83.98 66.955C84.678 66.047 85.612 65.228 86.777 64.502C87.761 63.879 88.513 63.542 89.033 63.49C90.093 63.387 90.625 63.802 90.625 64.738C90.625 65.724 89.668 67.451 87.753 69.918C85.838 72.383 84.881 73.981 84.881 74.708C84.881 75.046 85.051 75.214 85.389 75.214C86.529 75.241 89.432 72.15 94.101 65.944C94.281 65.944 94.346 66.022 94.295 66.178H94.294Z" fill="black"/>
<path fill-rule="evenodd" clip-rule="evenodd" d="M100.78 66.3339C100.752 66.9569 99.61 68.6569 97.354 71.4359C94.888 74.4719 93.021 75.9909 91.75 75.9909C90.608 75.9909 90.023 75.2269 89.997 73.6949C89.972 72.8899 90.217 72.0849 90.737 71.2799L95.329 63.9579H97.936L92.372 72.9119C91.878 73.6919 91.632 74.3259 91.632 74.8199C91.632 75.1049 91.749 75.2479 91.982 75.2479C92.838 75.2479 94.486 73.7299 96.925 70.6939C98.118 69.1889 99.325 67.6709 100.545 66.1379C100.7 66.1379 100.778 66.2029 100.778 66.3339H100.78ZM101.484 58.3559C101.484 58.7719 101.29 59.1739 100.902 59.5619C100.512 59.9519 100.125 60.1459 99.736 60.1459C99.373 60.1459 99.056 59.9959 98.784 59.6989C98.511 59.3989 98.376 59.0569 98.376 58.6669C98.376 58.2269 98.564 57.8049 98.94 57.4029C99.316 57.0029 99.71 56.7999 100.125 56.7999C100.488 56.7999 100.805 56.9629 101.077 57.2879C101.349 57.6109 101.484 57.9679 101.484 58.3559Z" fill="black"/>
<path fill-rule="evenodd" clip-rule="evenodd" d="M109.352 66.1379C109.352 66.5539 108.704 67.5649 107.407 69.1739C106.005 70.9389 104.577 72.4439 103.125 73.6889C101.309 75.2459 99.882 76.0239 98.845 76.0239C98.145 76.0239 97.559 75.7779 97.092 75.2839C96.626 74.7919 96.392 74.1179 96.392 73.2639C96.392 71.4469 97.496 69.3539 99.7 66.9809C101.907 64.6089 103.892 63.4209 105.655 63.4209C106.563 63.4209 107.017 63.9789 107.017 65.0909C106.913 65.7909 106.617 66.4509 106.122 67.0739C105.629 67.6939 105.188 68.0319 104.8 68.0839C104.152 68.1869 103.826 67.8239 103.826 66.9939C103.879 66.6039 104.066 66.2079 104.39 65.8069C104.715 65.4039 105.02 65.2029 105.306 65.2029C105.642 65.1779 105.902 65.3189 106.083 65.6329C106.343 65.3999 106.446 65.1429 106.396 64.8629C106.292 64.3759 106.02 64.1309 105.579 64.1309C104.826 64.1579 103.435 65.6449 101.401 68.5959C99.368 71.5459 98.351 73.5889 98.351 74.7259C98.351 75.1409 98.559 75.3479 98.973 75.3479C100.035 75.3479 101.409 74.5439 103.095 72.9379C104.157 71.9009 105.479 70.3859 107.058 68.3909C108.328 66.7589 109.014 65.9409 109.118 65.9409C109.272 65.9409 109.35 66.0069 109.35 66.1359L109.352 66.1379ZM140.606 54.5519C140.606 56.8619 138.139 59.1219 133.206 61.3299C128.456 63.4599 123.926 64.5229 119.619 64.5229C119.045 64.5229 118.513 64.4979 118.019 64.4449C115.321 67.9229 113.997 71.0619 114.049 73.8669C114.075 75.5789 114.613 76.9289 115.663 77.9149C116.713 78.9009 118.146 79.3949 119.96 79.3949C120.947 79.3949 122.4 78.9269 124.32 77.9929C126.55 76.9029 128.388 75.6329 129.84 74.1829C131.657 72.3649 132.565 70.5229 132.565 68.6569C132.565 68.0069 132.349 67.4839 131.923 67.0799C131.493 66.6799 130.958 66.5039 130.31 66.5549C129.326 66.6349 128.07 67.1899 126.54 68.2269C125.115 69.2109 124.13 70.1299 123.588 70.9849C123.561 71.0349 123.381 71.0879 123.044 71.1399C123.224 70.1499 124.131 69.0199 125.764 67.7429C127.527 66.3629 129.274 65.5969 131.014 65.4409C131.997 65.3379 132.799 65.5849 133.422 66.1829C134.042 66.7829 134.355 67.5229 134.355 68.4049C134.355 69.6799 133.589 71.2589 132.058 73.1449C130.528 75.0289 128.698 76.6209 126.57 77.9199C124.13 79.3759 121.82 80.1029 119.642 80.1029C117.202 80.1029 115.205 79.4289 113.649 78.0789C112.089 76.7269 111.313 74.9619 111.313 72.7789C111.313 69.3789 112.419 66.4429 114.636 63.9789C110.304 62.5759 108.136 60.1609 108.136 56.7319C108.136 54.9669 108.811 53.4349 110.16 52.1369C111.588 50.7349 113.43 50.0339 115.687 50.0339C118.852 50.0339 120.93 50.8159 121.917 52.3839C121.657 52.4839 121.422 52.5339 121.215 52.5339C121.005 52.5339 120.467 52.2579 119.597 51.7079C118.727 51.1579 117.67 50.8679 116.422 50.8429C114.552 50.8169 112.929 51.4989 111.552 52.8889C110.176 54.2809 109.489 55.8589 109.489 57.6259C109.489 60.3289 111.304 62.2359 114.939 63.3559C117.821 59.5899 121.845 56.6159 127.012 54.4339C131.062 52.6939 134.555 51.8239 137.488 51.8239C139.565 51.8239 140.604 52.7339 140.604 54.5509L140.606 54.5519ZM139.761 54.0919C139.761 53.0519 139.033 52.5349 137.579 52.5349C134.853 52.5349 131.139 54.1299 126.439 57.3229C122.464 59.9959 119.932 62.1099 118.841 63.6669C119.021 63.6929 119.244 63.7069 119.504 63.7069C121.244 63.7069 123.697 63.2519 126.867 62.3439C130.347 61.3339 133.241 60.1509 135.554 58.8009C138.358 57.1939 139.762 55.6239 139.762 54.0929L139.761 54.0919ZM147.846 66.2939C147.846 66.7079 146.496 68.4719 143.798 71.5819C141.178 74.5889 139.284 76.0919 138.116 76.0919C137.599 76.0919 137.164 75.8919 136.813 75.4899C136.463 75.0879 136.287 74.5899 136.287 73.9919C136.287 72.9039 136.651 71.7639 137.375 70.5719C137.789 69.8449 138.45 68.9769 139.355 67.9659C140.08 67.1359 140.443 66.6439 140.443 66.4879C140.443 66.3849 140.393 66.2419 140.289 66.0609C139.821 66.3729 139.084 66.5909 138.075 66.7229C137.661 66.7749 137.455 66.5289 137.455 65.9829C137.455 65.4669 137.752 64.6899 138.35 63.6529C139 62.4879 139.584 61.9029 140.1 61.9029C140.464 61.9029 140.673 62.1889 140.724 62.7579C140.751 62.9919 140.401 63.7949 139.674 65.1659C139.907 64.9839 140.396 64.7509 141.144 64.4659C141.892 64.1809 142.419 64.0499 142.73 64.0759C143.323 64.1279 143.62 64.4659 143.62 65.0889C143.62 65.7649 142.656 67.4329 140.73 70.0939C138.804 72.7539 137.842 74.3179 137.842 74.7839C137.842 75.2519 138.139 75.4839 138.737 75.4839C139.541 75.4839 141.137 74.0189 143.527 71.0839C143.993 70.5139 144.81 69.3719 145.977 67.6589C146.732 66.5689 147.237 66.0089 147.497 65.9839C147.73 65.9319 147.847 66.0339 147.847 66.2939H147.846Z" fill="black"/>
<path fill-rule="evenodd" clip-rule="evenodd" d="M159.578 66.334C159.578 66.801 158.383 68.464 155.998 71.321C153.455 74.414 151.651 75.959 150.588 75.959C149.808 75.959 149.368 75.347 149.263 74.125C149.185 73.213 149.263 72.549 149.497 72.135C147.422 74.685 145.954 75.959 145.099 75.959C144.629 75.959 144.241 75.766 143.931 75.379C143.618 74.991 143.464 74.514 143.464 73.947C143.464 72.527 145.098 69.2 148.367 63.965H150.975C150.69 64.795 149.565 66.74 147.595 69.8C145.81 72.6 144.917 74.273 144.917 74.818C144.889 75 144.967 75.208 145.149 75.441C147.586 74.404 150.527 70.579 153.975 63.965H156.969L152.219 71.685C151.519 72.829 151.085 73.583 150.916 73.947C150.746 74.31 150.649 74.779 150.624 75.35C151.532 75.298 152.674 74.465 154.049 72.85C154.647 72.15 155.749 70.68 157.359 68.44C158.473 66.88 159.174 66.1 159.459 66.1C159.537 66.1 159.577 66.178 159.577 66.334H159.578Z" fill="black"/>
<path fill-rule="evenodd" clip-rule="evenodd" d="M169.017 66.9169C169.017 67.1769 168.394 67.9169 167.147 69.1399C165.617 70.6739 163.983 71.8679 162.245 72.7269C160.947 74.8049 159.43 75.8719 157.691 75.9239C156.965 75.9499 156.389 75.7799 155.961 75.4159C155.531 75.0529 155.318 74.5839 155.318 74.0109C155.318 73.4129 155.584 72.7029 156.118 71.8839C156.65 71.0639 157.088 70.7319 157.426 70.8879C157.476 71.4319 157.726 71.8979 158.166 72.2879C158.532 72.5999 158.882 72.7559 159.22 72.7559C159.713 72.7559 160.13 72.1709 160.467 71.0039C160.755 70.0439 160.883 69.2269 160.857 68.5519C160.833 68.1649 160.611 67.3719 160.193 66.1799L158.51 68.0869C158.3 68.0869 158.185 68.0099 158.16 67.8539C158.106 67.5669 158.742 66.5539 160.066 64.8099C161.466 62.9639 162.452 62.0399 163.024 62.0399C163.257 62.0399 163.451 62.1449 163.607 62.3519C163.764 62.5599 163.802 62.7549 163.723 62.9359C162.53 64.5219 161.935 65.4959 161.935 65.8599C161.935 65.9099 162.08 66.4969 162.375 67.6129C162.67 68.7309 162.817 69.5509 162.817 70.0699C162.817 70.6159 162.757 71.1359 162.634 71.6299C163.674 71.4469 164.957 70.5529 166.487 68.9439C167.915 67.4139 168.679 66.6479 168.785 66.6479C168.939 66.6479 169.017 66.7379 169.017 66.9209V66.9169ZM158.937 73.4949C158.624 73.3399 158.349 73.1709 158.115 72.9889C157.543 72.5989 157.177 72.2349 157.021 71.8969C156.291 72.4429 155.926 73.2469 155.926 74.3129C156.004 74.9359 156.33 75.2469 156.904 75.2469C157.269 75.2469 157.66 75.0649 158.078 74.7009C158.494 74.3379 158.781 73.9359 158.938 73.4939L158.937 73.4949Z" fill="black"/>
<path fill-rule="evenodd" clip-rule="evenodd" d="M181.232 66.178C180.742 67.188 179.549 68.835 177.658 71.116C175.092 74.254 173.108 75.822 171.708 75.822C171.138 75.822 170.673 75.595 170.308 75.142C169.946 74.687 169.766 74.136 169.766 73.488C169.816 72.84 170.024 72.218 170.388 71.621C170.878 70.821 172.378 68.667 174.888 65.166C172.165 65.842 168.856 69.298 164.965 75.533L162.435 75.688L176.875 52.545L179.675 52.585L170.375 67.425C171.048 66.723 171.685 66.113 172.281 65.595C173.736 64.35 174.915 63.715 175.824 63.687C176.784 63.662 177.264 64.154 177.264 65.163C177.264 65.967 176.284 67.683 174.327 70.311C172.367 72.941 171.389 74.371 171.389 74.604C171.389 74.967 171.556 75.148 171.894 75.148C172.698 75.121 173.828 74.293 175.281 72.662C175.773 72.094 176.966 70.592 178.861 68.16C180.081 66.606 180.821 65.868 181.079 65.945C181.183 65.945 181.233 66.025 181.233 66.18L181.232 66.178ZM50.9 19.418C51.67 19.89 52.3 20.48 52.79 21.188C52.733 20.8 52.704 20.338 52.707 19.8C52.71 19.263 52.697 18.742 52.671 18.24C52.646 17.734 52.579 17.273 52.471 16.85C52.364 16.43 52.175 16.12 51.911 15.926C51.441 15.596 50.987 15.436 50.547 15.446C50.107 15.452 49.747 15.576 49.467 15.813C49.187 16.049 49.014 16.365 48.949 16.763C48.885 17.161 48.992 17.58 49.272 18.027C49.592 18.484 50.134 18.947 50.902 19.417L50.9 19.418ZM62.46 34.018C61.998 33.8 57.61 35.584 57.072 35.385C55.165 34.675 52.967 34.447 51.037 35.26C51.037 35.26 48.18 36.603 43.273 40.477C43.273 40.477 44.383 38.79 47.109 36.4C47.109 36.4 51.029 32.188 57.224 34.2C57.224 34.2 57.254 30.957 52.274 30.866C52.274 30.866 47.577 30.608 44.376 35.234C44.376 35.234 41.916 40.202 37.379 41.118C37.379 41.118 46.164 45.708 52.839 42.356C52.839 42.356 57.139 40.308 58.099 36.711C58.099 36.711 63.776 34.649 62.459 34.021L62.46 34.018ZM136.247 32.978C136.06 32.702 135.854 32.448 135.651 32.188C135.811 32.221 135.971 32.268 136.131 32.293C137.523 32.509 138.921 32.475 140.321 32.186C141.727 31.896 143.164 31.264 144.639 30.291C145.194 29.891 145.741 29.351 146.275 28.671C146.811 27.988 147.315 27.297 147.79 26.595C148.26 25.89 148.71 25.23 149.13 24.605C149.555 23.985 149.958 23.513 150.343 23.189C150.873 22.759 151.546 22.436 152.356 22.212C153.166 21.989 153.976 22.038 154.784 22.359C154.319 21.429 153.796 20.834 153.219 20.571C152.639 20.308 152.049 20.261 151.443 20.427C150.839 20.591 150.256 20.909 149.691 21.382C149.128 21.862 148.654 22.374 148.266 22.925C147.846 21.189 147.173 19.675 146.248 18.372C145.32 17.072 144.216 16.05 142.928 15.305C141.643 14.558 140.208 14.145 138.628 14.067C137.84 14.027 136.946 14.2 136.211 14.463C135.477 14.728 134.784 15.113 134.611 15.189C134.439 15.266 133.066 15.913 132.887 15.847C131.697 15.404 130.95 15.193 129.5 15.757C129.5 15.757 127.345 16.607 124.288 19.019C124.288 19.019 124.743 18.365 126.558 16.646C126.952 16.216 129.261 13.9 132.982 15.108C132.982 15.108 133.002 13.088 129.899 13.031C129.899 13.031 126.972 12.871 124.979 15.751C124.979 15.751 123.444 18.848 120.619 19.419C120.619 19.419 126.092 22.279 130.251 20.189C130.251 20.189 131.923 19.389 132.921 17.949C132.895 18.363 132.937 18.773 133.055 19.176C133.183 19.624 133.383 19.992 133.655 20.27C133.925 20.55 134.248 20.668 134.625 20.622C134.515 20.428 134.381 20.174 134.225 19.859C134.061 19.545 133.96 19.199 133.915 18.826C133.868 18.452 133.925 18.061 134.081 17.653C134.237 17.247 134.584 16.891 135.129 16.593C136.702 15.683 138.353 15.407 140.089 15.763C141.819 16.115 143.336 17.048 144.633 18.557C145.396 19.452 145.893 20.387 146.115 21.357C146.335 22.327 146.362 23.28 146.192 24.217C146.022 25.154 145.665 26.047 145.124 26.889C144.582 27.734 143.924 28.479 143.152 29.129C142.052 30.057 140.764 30.556 139.282 30.632C137.799 30.705 136.266 30.498 134.682 30.012C133.947 29.787 133.219 29.512 132.496 29.195L132.534 29.259C132.358 29.137 132.192 29.006 132.011 28.892C130.318 27.822 128.418 27.022 126.311 26.472C124.209 25.929 122.078 25.658 119.921 25.658C118.563 25.658 117.231 25.778 115.923 26.008C116.245 25.094 116.407 24.166 116.407 23.224C116.407 20.98 115.645 19.114 114.121 17.622C112.596 16.129 110.713 15.382 108.471 15.382C106.293 15.382 104.409 16.167 102.821 17.735C101.863 18.672 101.176 19.705 100.761 20.84C100.349 19.643 99.696 18.607 98.803 17.735C97.213 16.167 95.329 15.383 93.153 15.383C90.91 15.383 89.026 16.13 87.501 17.623C85.977 19.115 85.217 20.981 85.217 23.225C85.217 24.147 85.372 25.057 85.677 25.955C85.667 25.963 85.673 25.995 85.693 26.053H85.689C84.296 25.791 82.875 25.659 81.425 25.659C79.268 25.659 77.137 25.929 75.035 26.474C72.929 27.024 71.029 27.824 69.335 28.894C69.155 29.008 68.988 29.139 68.812 29.261L68.85 29.197C68.13 29.513 67.4 29.789 66.664 30.014C65.082 30.5 63.548 30.707 62.064 30.634C60.584 30.557 59.294 30.058 58.194 29.131C57.424 28.481 56.764 27.735 56.224 26.891C55.682 26.047 55.327 25.155 55.154 24.218C54.984 23.281 55.011 22.328 55.232 21.358C55.455 20.388 55.952 19.453 56.714 18.558C58.011 17.048 59.527 16.116 61.26 15.763C62.994 15.407 64.646 15.683 66.218 16.593C66.763 16.891 67.11 17.247 67.268 17.653C67.423 18.063 67.48 18.453 67.432 18.827C67.388 19.201 67.286 19.547 67.122 19.86C66.967 20.175 66.832 20.43 66.722 20.622C67.099 20.667 67.422 20.55 67.692 20.269C67.964 19.991 68.164 19.623 68.292 19.175C68.41 18.772 68.452 18.362 68.427 17.948C69.425 19.388 71.097 20.188 71.097 20.188C75.255 22.278 80.729 19.418 80.729 19.418C77.902 18.848 76.369 15.751 76.369 15.751C74.375 12.868 71.446 13.029 71.446 13.029C68.344 13.085 68.363 15.106 68.363 15.106C72.083 13.898 74.393 16.214 74.788 16.644C76.601 18.364 77.056 19.017 77.056 19.017C73.998 16.604 71.843 15.754 71.843 15.754C70.393 15.191 69.646 15.402 68.457 15.844C68.277 15.911 66.904 15.264 66.732 15.187C66.559 15.111 65.866 14.727 65.132 14.462C64.397 14.2 63.502 14.026 62.716 14.067C61.134 14.147 59.699 14.557 58.414 15.305C57.126 16.05 56.022 17.072 55.094 18.372C54.17 19.674 53.497 21.189 53.077 22.925C52.69 22.375 52.217 21.861 51.653 21.383C51.088 20.911 50.505 20.593 49.901 20.429C49.295 20.263 48.706 20.309 48.126 20.572C47.548 20.834 47.026 21.43 46.56 22.359C47.37 22.039 48.18 21.989 48.988 22.213C49.798 22.438 50.471 22.763 51.002 23.191C51.386 23.515 51.789 23.987 52.214 24.607C52.634 25.232 53.084 25.892 53.556 26.597C54.029 27.299 54.536 27.99 55.071 28.674C55.604 29.354 56.151 29.894 56.706 30.294C58.182 31.268 59.618 31.901 61.023 32.19C62.426 32.48 63.823 32.513 65.215 32.297C65.373 32.272 65.532 32.225 65.692 32.193C65.489 32.451 65.282 32.705 65.096 32.98C63.966 34.64 63.3 36.586 63.094 38.818C62.992 39.758 63.069 40.688 63.324 41.605C63.584 42.523 63.942 43.329 64.404 44.021C64.867 44.715 65.418 45.299 66.059 45.769C66.702 46.239 67.407 46.499 68.179 46.549C69.359 46.649 70.309 46.339 71.026 45.619C71.746 44.902 72.129 44.096 72.181 43.205C72.231 42.46 72.014 41.828 71.527 41.308C71.041 40.788 70.514 40.528 69.949 40.528C69.229 40.478 68.654 40.664 68.217 41.085C67.781 41.505 67.612 41.915 67.717 42.312C67.872 42.808 68.087 43.09 68.371 43.166C68.654 43.24 68.936 43.252 69.217 43.201C69.501 43.153 69.767 43.089 70.027 43.016C70.283 42.942 70.463 42.979 70.565 43.128C70.822 43.474 70.655 43.848 70.065 44.245C69.475 44.638 68.871 44.788 68.255 44.689C67.381 44.589 66.599 44.032 65.907 43.016C65.213 42.001 64.917 40.798 65.021 39.41C65.124 37.476 65.611 35.74 66.484 34.203C66.964 33.358 67.538 32.583 68.198 31.871C69.405 32.114 78.128 33.671 88.635 30.524H88.639C88.661 30.544 88.666 30.541 88.659 30.519C89.831 31.696 91.544 33.109 93.807 34.759C97.441 37.394 99.804 39.399 100.893 40.769C102.025 39.353 104.356 37.349 107.883 34.759C109.69 33.431 110.963 32.439 111.705 31.783C112.135 31.406 112.54 31.003 112.931 30.588C123.337 33.648 131.949 32.112 133.147 31.872C133.807 32.584 134.38 33.36 134.86 34.205C135.734 35.743 136.222 37.478 136.325 39.411C136.428 40.798 136.132 42.001 135.438 43.016C134.746 44.032 133.964 44.589 133.09 44.689C132.475 44.789 131.87 44.639 131.28 44.245C130.69 43.848 130.524 43.475 130.78 43.128C130.882 42.978 131.063 42.942 131.32 43.016C131.577 43.089 131.845 43.153 132.13 43.2C132.41 43.25 132.692 43.238 132.974 43.164C133.257 43.088 133.474 42.806 133.63 42.309C133.733 41.911 133.565 41.502 133.13 41.081C132.692 40.661 132.115 40.473 131.397 40.524C130.831 40.524 130.305 40.784 129.817 41.304C129.33 41.824 129.112 42.456 129.163 43.201C129.215 44.091 129.599 44.898 130.319 45.616C131.035 46.336 131.985 46.646 133.165 46.546C133.935 46.496 134.642 46.236 135.285 45.766C135.925 45.296 136.475 44.711 136.938 44.016C137.401 43.326 137.76 42.519 138.018 41.601C138.273 40.684 138.351 39.755 138.248 38.814C138.042 36.582 137.376 34.636 136.245 32.976L136.247 32.978ZM69.517 30.635C69.672 30.509 69.829 30.385 69.991 30.265C71.454 29.175 73.174 28.357 75.151 27.81C77.127 27.266 79.297 26.994 81.658 26.994C83.278 27.014 84.858 27.22 86.398 27.609C86.724 28.189 87.116 28.765 87.574 29.336C79.338 31.646 72.21 31.016 69.518 30.634L69.517 30.635ZM102.347 36.279C101.521 37.575 100.827 37.549 100.827 37.549C100.827 37.549 100.127 37.449 99.387 36.279C98.643 35.109 99.387 33.317 97.689 33.284C97.689 33.284 99.445 31.369 100.866 33.219C102.289 31.369 104.044 33.284 104.044 33.284C102.346 33.317 103.172 34.981 102.346 36.278L102.347 36.279ZM99.319 30.543C99.319 29.203 99.989 28.115 100.815 28.115C101.643 28.115 102.313 29.202 102.313 30.543C102.313 30.846 102.276 31.136 102.215 31.403C101.755 31.406 101.261 31.61 100.8 32.209C100.352 31.624 99.868 31.415 99.418 31.404C99.355 31.136 99.318 30.846 99.318 30.544L99.319 30.543ZM107.175 31.045C107.08 31.369 106.852 31.655 106.491 31.902C106.131 32.15 105.585 32.272 104.863 32.272C104.407 31.969 103.853 31.779 103.208 31.702C103.358 30.142 103.198 28.982 102.721 28.222C102.246 27.459 101.724 27.078 101.151 27.078H100.544C99.972 27.078 99.45 27.458 98.974 28.22C98.498 28.98 98.337 30.142 98.489 31.702C97.844 31.778 97.291 31.968 96.835 32.272C96.113 32.272 95.568 32.149 95.207 31.902C94.847 31.654 94.617 31.368 94.523 31.044C94.428 30.72 94.428 30.396 94.523 30.074C94.618 29.751 94.74 29.494 94.893 29.304C95.046 29.151 95.247 29.047 95.493 28.99C95.739 28.933 95.988 28.895 96.235 28.876C96.482 28.856 96.691 28.818 96.862 28.762C97.034 28.705 97.099 28.582 97.062 28.39C97.025 28.238 96.912 28.114 96.719 28.02C96.531 27.924 96.301 27.838 96.035 27.762C95.768 27.686 95.519 27.592 95.291 27.477C95.065 27.363 94.913 27.209 94.837 27.021C94.569 26.449 94.609 25.878 94.949 25.306C95.291 24.736 95.769 24.43 96.377 24.392C96.683 24.392 96.977 24.468 97.261 24.622C97.549 24.772 97.804 24.925 98.031 25.076C98.261 25.229 98.481 25.354 98.689 25.449C98.899 25.543 99.079 25.534 99.232 25.419C99.348 25.343 99.382 25.229 99.348 25.076C99.306 24.926 99.258 24.754 99.203 24.566C99.143 24.373 99.098 24.164 99.059 23.936C99.023 23.708 99.059 23.461 99.172 23.194C99.402 22.739 99.859 22.49 100.545 22.452C100.65 22.446 100.75 22.448 100.849 22.454C100.949 22.448 101.047 22.446 101.153 22.452C101.839 22.49 102.295 22.739 102.526 23.194C102.638 23.461 102.676 23.708 102.638 23.936C102.598 24.164 102.552 24.373 102.493 24.566C102.438 24.754 102.389 24.926 102.349 25.076C102.314 25.229 102.349 25.343 102.466 25.42C102.619 25.534 102.798 25.543 103.009 25.45C103.219 25.354 103.435 25.23 103.666 25.076C103.894 24.926 104.149 24.772 104.436 24.621C104.721 24.468 105.016 24.391 105.319 24.391C105.929 24.431 106.404 24.735 106.749 25.305C107.089 25.875 107.129 26.447 106.859 27.019C106.785 27.207 106.633 27.361 106.404 27.474C106.179 27.588 105.93 27.682 105.664 27.758C105.397 27.834 105.167 27.92 104.979 28.016C104.787 28.11 104.673 28.234 104.635 28.386C104.599 28.576 104.665 28.701 104.835 28.758C105.007 28.814 105.215 28.853 105.463 28.872C105.71 28.892 105.959 28.929 106.203 28.986C106.451 29.043 106.653 29.146 106.806 29.3C106.958 29.49 107.08 29.747 107.176 30.07C107.271 30.392 107.271 30.716 107.176 31.04L107.175 31.045ZM113.967 29.388C114.167 29.134 114.36 28.878 114.547 28.613C114.797 28.26 115.017 27.905 115.217 27.548C116.673 27.201 118.163 27.012 119.69 26.992C122.053 26.992 124.223 27.264 126.198 27.808C128.175 28.355 129.895 29.173 131.358 30.262C131.518 30.382 131.678 30.507 131.832 30.632C129.16 31.012 122.122 31.634 113.968 29.387L113.967 29.388ZM150.447 19.416C151.215 18.946 151.759 18.482 152.077 18.026C152.357 17.578 152.463 17.159 152.399 16.76C152.334 16.363 152.162 16.047 151.879 15.81C151.601 15.574 151.241 15.45 150.802 15.443C150.362 15.433 149.908 15.595 149.438 15.923C149.172 16.119 148.983 16.427 148.876 16.848C148.768 17.271 148.702 17.732 148.676 18.238C148.648 18.74 148.636 19.261 148.639 19.798C148.643 20.336 148.614 20.798 148.559 21.185C149.046 20.478 149.676 19.888 150.447 19.415V19.416ZM156.971 35.232C153.771 30.606 149.071 30.864 149.071 30.864C144.091 30.954 144.121 34.199 144.121 34.199C150.318 32.187 154.239 36.399 154.239 36.399C156.963 38.789 158.075 40.476 158.075 40.476C153.168 36.602 150.31 35.259 150.31 35.259C148.38 34.446 146.184 34.673 144.276 35.384C143.74 35.584 139.35 33.799 138.889 34.018C137.569 34.646 143.246 36.708 143.246 36.708C144.206 40.306 148.506 42.354 148.506 42.354C155.183 45.706 163.966 41.116 163.966 41.116C159.431 40.2 156.971 35.232 156.971 35.232Z" fill="black"/>
</svg>
