<svg width="200" height="100" viewBox="0 0 200 100" fill="none" xmlns="http://www.w3.org/2000/svg">
<path d="M51.2 36C59 36 65.4 42.4 65.4 50.4C65.4 58.4 59 64.8 51.2 64.8C43.4 64.8 37 58.4 37 50.4C37 42.4 43.4 36 51.2 36ZM51.2 40.4C46.4 40.4 42 44.8 42 50.4C42 56 46.4 60.4 51.2 60.4C56 60.4 60.4 56 60.4 50.4C60.4 44.8 56 40.4 51.2 40.4Z" fill="black"/>
<path d="M85.4 40.6L81.8 43.2C81.8 43.2 79.8 40.4 77.4 40.4C75 40.4 73.4 42 73.4 44C73.4 48.8 85.8 48 85.8 56.6C85.8 60.8 81.8 64.8 76.4 64.8C69.6 64.8 66.6 59.2 66.6 59.2L70.2 56.6C70.2 56.6 72.4 60.4 76 60.4C78.8 60.4 80.8 58.4 80.8 56.2C80.8 51.4 68.4 52.2 68.4 43.6C68.4 39.8 72.2 36 77 36C82.6 36 85.4 40.6 85.4 40.6Z" fill="black"/>
<path d="M114.1 42.4L109.9 44.8C109.9 44.8 107.3 40.4 102.5 40.4C97.7 40.4 93.3 44.8 93.3 50.4C93.3 56 97.7 60.4 102.5 60.4C107.7 60.4 110.3 55.4 110.3 55.4L114.5 57.8C114.5 57.8 110.9 64.8 102.5 64.8C94.7 64.8 88.3 58.4 88.3 50.4C88.3 42.4 94.7 36 102.5 36C110.5 36 114.1 42.4 114.1 42.4Z" fill="black"/>
<path d="M139.3 64H134.1L132.5 60H122L120.4 64H115.2L127 35.1H127.4L139.3 64ZM123.9 55.6H130.7L127.5 47.2H127.1L123.9 55.6Z" fill="black"/>
<path d="M156.8 52.9999L163 63.9999H157.8L152.2 53.9999H147V63.9999H142.2V36.7999H151.4C157.4 36.7999 161.4 40.7999 161.4 45.3999C161.4 50.3999 156.8 52.6999 156.8 52.5999V52.9999ZM151.4 49.5999C154.4 49.5999 156.4 47.5999 156.4 45.3999C156.4 43.1999 154.4 41.1999 151.4 41.1999H147V49.5999H151.4Z" fill="black"/>
</svg>
