<svg xmlns="http://www.w3.org/2000/svg" focusable="false" role="img" viewBox="0 0 200 100" fill="currentColor">
  <path d="M65.62 36.282H51.372V62.13h5.109v-6.885h9.137c5.178 0 8.638-4.326 8.638-9.545 0-5.214-3.46-9.418-8.638-9.418zm.264 13.693h-9.405v-8.546l8.646.008c2.933-.114 3.785 2.463 3.804 4.263.021 2.17-.76 3.835-3.045 4.275"/>
  <path d="M97.944 85.849c27.5 0 54.241-8.327 66.537-20.717 4.656-4.691 7.019-9.676 7.019-14.823 0-5.52-2.656-11.052-7.693-16.002-12.561-12.36-38.154-19.911-65.204-19.269-39.965.957-70.103 15.993-70.103 34.97 0 5.61 2.624 11.219 7.593 16.228C48.1 78.335 71.799 85.849 97.944 85.849zm-64.66-35.841c0-15.76 29.354-29.287 65.433-30.159 25.825-.615 50.063 6.416 61.749 17.913 4.09 4.017 6.248 8.36 6.248 12.547 0 16.073-32.78 30.718-68.77 30.718-24.544 0-47.497-7.147-58.468-18.198-4.11-4.145-6.193-8.455-6.193-12.821"/>
  <path d="M101.703 62.14L88.51 36.284h-3.087L73.156 62.14h5.65L81.202 57l12.301-.007 2.625 5.147h5.576zM83.428 52.016l3.71-7.511 3.83 7.511h-7.54zM105.976 62.131h19.238v-4.66h-13.976V36.307h-5.262v25.824zM129.514 62.131h20.272l-.01-4.652h-15.003V36.283l-5.259-.008v25.856z"/>
</svg>
