<svg width="200" height="100" viewBox="0 0 200 100" fill="none" xmlns="http://www.w3.org/2000/svg">
<path fill-rule="evenodd" clip-rule="evenodd" d="M110.78 40.2299C110.78 40.2299 103.215 40.1039 103.215 50.8199C103.215 61.5349 110.653 60.7799 110.653 60.7799C110.653 60.7799 118.721 61.0299 118.721 50.8199C118.721 40.6079 112.923 40.2299 110.781 40.2299H110.78Z" fill="black"/>
<path fill-rule="evenodd" clip-rule="evenodd" d="M99.9999 6.56995C76.0139 6.56995 56.5699 26.0129 56.5699 49.9999C56.5699 73.9869 76.0129 93.4299 99.9999 93.4299C123.987 93.4299 143.43 73.9869 143.43 49.9999C143.43 26.0129 123.987 6.56995 99.9999 6.56995ZM83.674 64.5599C78.631 64.5599 75.8579 60.9049 75.8579 60.9049V77.6719H71.0679V36.9519H75.7319V40.6079C75.7319 40.6079 78.5049 36.1949 84.4319 36.1949C90.3559 36.1949 96.6589 39.5989 96.6589 50.3149C96.6589 61.0309 88.7159 64.5599 83.6729 64.5599H83.674ZM110.904 64.6869C105.484 64.6869 102.837 60.5269 102.837 60.5269V63.9309H98.2969V21.6999H103.341V40.3579C103.341 40.3579 105.233 36.1979 111.788 36.1979C118.344 36.1979 123.891 40.6099 123.891 50.5679C123.891 60.5279 116.327 64.688 110.906 64.688L110.904 64.6869ZM128.492 26.1099C130.267 26.1099 131.707 27.5499 131.707 29.3249C131.707 31.0999 130.267 32.5399 128.492 32.5399C126.716 32.5399 125.277 31.0999 125.277 29.3249C125.277 27.5489 126.717 26.1099 128.492 26.1099ZM130.95 63.6799H125.78V36.6999H130.95V63.6799Z" fill="black"/>
<path fill-rule="evenodd" clip-rule="evenodd" d="M83.6739 40.104C83.6739 40.104 75.7319 40.104 75.7319 50.946C75.7319 59.644 83.4219 60.308 83.4219 60.308C83.4219 60.308 91.4899 60.528 91.4899 50.441C91.4899 40.357 85.5649 40.105 83.6739 40.105V40.104Z" fill="black"/>
</svg>
