<svg width="200" height="100" viewBox="0 0 200 100" fill="none" xmlns="http://www.w3.org/2000/svg">
<path fill-rule="evenodd" clip-rule="evenodd" d="M41.018 46.3999C41.193 45.8269 41.282 44.9149 41.282 43.6649V41.9579C41.282 40.7309 41.234 39.8259 41.14 39.2409C41.046 38.6569 40.874 38.1579 40.622 37.7469C40.372 37.3349 39.992 37.0209 39.484 36.8029C38.976 36.5849 38.254 36.4759 37.318 36.4759H33.842V56.0539H37.324V48.1799H38.247C38.989 48.1799 39.593 48.0249 40.057 47.7199C40.521 47.4119 40.841 46.9729 41.017 46.3999H41.018ZM38.378 43.0469C38.378 43.7709 38.32 44.2489 38.203 44.4769C38.086 44.7069 37.877 44.8229 37.577 44.8229C37.502 44.8229 37.417 44.8179 37.324 44.8099V39.8299C37.754 39.8299 38.039 39.9319 38.174 40.1339C38.311 40.3339 38.379 40.7709 38.379 41.4389V43.0459L38.378 43.0469ZM51.134 38.1049C50.79 37.4179 50.334 36.9029 49.77 36.5599C49.204 36.2169 48.567 36.0449 47.86 36.0449C47.11 36.0449 46.457 36.2269 45.897 36.5899C45.337 36.9539 44.891 37.4749 44.561 38.1529C44.231 38.8329 44.036 39.5799 43.971 40.3999C43.907 41.2199 43.876 42.6149 43.876 44.5859V47.9419C43.876 49.9619 43.91 51.3749 43.979 52.1819C44.049 52.9899 44.255 53.7369 44.599 54.4219C44.943 55.1099 45.396 55.6249 45.956 55.9679C46.516 56.3099 47.151 56.4819 47.86 56.4819C48.606 56.4819 49.26 56.2999 49.82 55.9369C50.38 55.5749 50.826 55.0539 51.156 54.3749C51.486 53.6969 51.682 52.9469 51.746 52.1269C51.811 51.3069 51.843 49.9129 51.843 47.9419V44.5859C51.843 42.5659 51.811 41.1539 51.746 40.3459C51.682 39.5379 51.478 38.7909 51.134 38.1059V38.1049ZM48.36 50.5149C48.36 51.6699 48.33 52.4019 48.27 52.7079C48.21 53.0159 48.07 53.1679 47.852 53.1679C47.632 53.1679 47.494 53.0359 47.44 52.7679C47.385 52.5029 47.358 51.7999 47.358 50.6579V41.4899C47.358 40.4819 47.4 39.8729 47.488 39.6669C47.575 39.4609 47.701 39.3569 47.866 39.3569C48.066 39.3569 48.2 39.4869 48.263 39.7399C48.328 39.9939 48.36 40.5779 48.36 41.4899V50.5139V50.5149ZM63.548 50.4099L63.125 42.9249C62.915 39.1899 62.792 37.0399 62.76 36.4749H59.21C58.696 42.0079 58.365 46.4949 58.22 49.9379L57.867 43.2979L57.507 36.4749H54.13L55.698 56.0529H59.984L60.962 45.7549C61.292 49.6099 61.649 53.0419 62.032 56.0529H66.332L67.902 36.4749H64.524C64.101 41.0009 63.776 45.6449 63.548 50.4109V50.4099ZM73.753 47.8339H75.863V44.0899H73.753V40.3899H76.023V36.4749H70.27V56.0529H76.233V52.1369H73.753V47.8339ZM86.71 56.0529V50.8899C86.71 49.3099 86.68 48.3469 86.62 47.9949C86.562 47.6449 86.416 47.2599 86.183 46.8409C85.951 46.4229 85.489 46.0879 84.796 45.8389C85.558 45.7329 86.066 45.4189 86.326 44.8949C86.582 44.3709 86.71 43.3469 86.71 41.8229C86.71 40.1529 86.527 38.9379 86.16 38.1759C85.792 37.4139 85.318 36.9399 84.737 36.7539C84.157 36.5689 83.047 36.4759 81.411 36.4759H78.955V56.0539H82.438V47.2339C82.922 47.2339 83.22 47.3569 83.328 47.6069C83.438 47.8569 83.493 48.5049 83.493 49.5529V56.0529H86.711H86.71ZM83.26 43.9399C83.108 44.0999 82.832 44.1779 82.437 44.1779V39.8299C82.842 39.8299 83.12 39.9279 83.269 40.1219C83.416 40.3139 83.491 40.7199 83.491 41.3399V42.4139C83.491 43.2759 83.413 43.7839 83.261 43.9409L83.26 43.9399ZM122.116 43.4899H121.113V36.4749H117.63V56.0529H121.113V47.8329H122.116V56.0529H125.598V36.4749H122.116V43.4889V43.4899ZM135.82 38.1049C135.475 37.4179 135.02 36.9029 134.455 36.5599C133.889 36.2169 133.252 36.0449 132.545 36.0449C131.795 36.0449 131.142 36.2269 130.581 36.5899C130.021 36.9539 129.577 37.4749 129.247 38.1529C128.917 38.8329 128.721 39.5799 128.657 40.3999C128.592 41.2199 128.561 42.6149 128.561 44.5859V47.9419C128.561 49.9619 128.595 51.3749 128.664 52.1819C128.734 52.9899 128.939 53.7369 129.284 54.4219C129.628 55.1099 130.08 55.6249 130.641 55.9679C131.201 56.3099 131.836 56.4819 132.545 56.4819C133.292 56.4819 133.945 56.2999 134.507 55.9369C135.067 55.5749 135.512 55.0539 135.842 54.3749C136.172 53.6969 136.369 52.9469 136.432 52.1269C136.497 51.3069 136.529 49.9129 136.529 47.9419V44.5859C136.529 42.5659 136.497 41.1539 136.433 40.3459C136.37 39.5379 136.166 38.7909 135.823 38.1059L135.82 38.1049ZM133.045 50.5149C133.045 51.6699 133.015 52.4019 132.955 52.7079C132.895 53.0159 132.757 53.1679 132.537 53.1679C132.317 53.1679 132.179 53.0359 132.125 52.7679C132.07 52.5029 132.042 51.7999 132.042 50.6579V41.4899C132.042 40.4819 132.085 39.8729 132.172 39.6669C132.259 39.4609 132.385 39.3569 132.55 39.3569C132.75 39.3569 132.884 39.4869 132.95 39.7399C133.013 39.9939 133.045 40.5779 133.045 41.4899V50.5139V50.5149ZM143.933 50.9179C143.933 51.8949 143.901 52.5139 143.84 52.7749C143.778 53.0379 143.644 53.1689 143.436 53.1689C143.256 53.1689 143.136 53.0489 143.076 52.8119C143.013 52.5719 142.983 52.0269 142.983 51.1699V36.4759H139.5V48.0699C139.5 50.2819 139.527 51.7329 139.582 52.4219C139.636 53.1119 139.814 53.7679 140.116 54.3889C140.418 55.0089 140.874 55.5129 141.482 55.9009C142.092 56.2879 142.792 56.4809 143.584 56.4809C144.306 56.4809 144.934 56.3169 145.462 55.9909C145.992 55.6639 146.418 55.1849 146.739 54.5509C147.059 53.9179 147.253 53.3009 147.319 52.6989C147.382 52.0989 147.414 51.0549 147.414 49.5709V36.4749H143.932V50.9179H143.933ZM156.474 55.8099C157.112 55.3619 157.544 54.8069 157.766 54.1439C157.989 53.4809 158.1 52.4509 158.1 51.0539C158.1 49.1299 157.895 47.7369 157.488 46.8739C157.091 46.0079 156.122 44.8969 154.584 43.5389C154.051 43.0689 153.721 42.6669 153.594 42.3369C153.467 42.0069 153.404 41.5169 153.404 40.8649C153.404 40.3589 153.458 39.9809 153.564 39.7319C153.674 39.4819 153.829 39.3569 154.036 39.3569C154.222 39.3569 154.356 39.4509 154.439 39.6369C154.521 39.8249 154.564 40.2609 154.564 40.9469V42.4109H157.782V41.6339C157.782 40.0699 157.682 38.9619 157.478 38.3099C157.274 37.6599 156.858 37.1179 156.225 36.6899C155.595 36.2599 154.829 36.0449 153.93 36.0449C153.11 36.0449 152.41 36.2409 151.827 36.6329C151.243 37.0249 150.824 37.5679 150.567 38.2629C150.31 38.9579 150.182 40.0559 150.182 41.5589C150.182 42.6009 150.274 43.4569 150.458 44.1269C150.643 44.7969 150.875 45.3239 151.153 45.7029C151.433 46.0829 152.003 46.6929 152.868 47.5349C153.733 48.3689 154.28 48.9629 154.51 49.3169C154.72 49.6729 154.827 50.4269 154.827 51.5819C154.827 52.1059 154.767 52.5019 154.651 52.7689C154.535 53.0349 154.361 53.1689 154.128 53.1689C153.896 53.1689 153.734 53.0629 153.644 52.8519C153.554 52.6419 153.508 52.1679 153.508 51.4319V49.0379H150.288V50.3209C150.288 51.7909 150.39 52.9279 150.593 53.7279C150.796 54.5279 151.223 55.1879 151.877 55.7049C152.529 56.2219 153.321 56.4799 154.251 56.4799C155.093 56.4799 155.833 56.2559 156.471 55.8079L156.474 55.8099ZM164.325 47.8339H166.435V44.0899H164.325V40.3899H166.595V36.4749H160.843V56.0529H166.805V52.1369H164.325V47.8339ZM98.768 35.9099L98.635 33.8759C98.428 34.2789 98.311 34.6159 98.333 35.0879C98.349 35.4539 98.553 35.6039 98.768 35.9109V35.9099ZM99.06 32.5039C98.91 32.3169 98.778 32.2539 98.704 32.0039C98.654 31.8359 98.701 31.5279 98.478 31.4719L98.635 33.8759C98.643 33.8609 98.645 33.8489 98.652 33.8339C98.862 33.4369 99.392 32.9199 99.062 32.5039H99.06ZM97.97 37.5079C98.44 37.7229 98.723 38.1129 99.095 38.4249L97.825 36.2949C97.657 36.4609 97.531 36.7049 97.497 36.9219C97.439 37.2819 97.644 37.3599 97.97 37.5079ZM100.075 38.3069L100.191 36.6319C100.087 36.7899 99.983 36.9499 99.901 37.1219C99.799 37.3469 99.709 37.6769 99.793 37.9179C99.84 38.0529 100.013 38.1799 100.076 38.3079L100.075 38.3069ZM100.465 34.7569C100.425 34.7139 100.377 34.6729 100.329 34.6329L100.189 36.6329C100.372 36.3579 100.561 36.0889 100.655 35.7689C100.765 35.4019 100.749 35.0639 100.465 34.7559V34.7569ZM99.927 34.1349C99.961 34.3449 100.157 34.4849 100.329 34.6329L100.437 33.0699C100.231 33.3199 99.875 33.8199 99.927 34.1349ZM100.728 38.5739L101.204 36.8469C100.77 37.3499 100.286 38.0409 100.728 38.5739ZM101.462 36.5569C101.728 36.2629 102.055 35.9309 102.137 35.5549C102.193 35.2949 102.223 34.5649 101.853 34.4899L101.203 36.8469C101.295 36.7419 101.383 36.6419 101.463 36.5569H101.462Z" fill="black"/>
<path fill-rule="evenodd" clip-rule="evenodd" d="M112.44 54.6349C112.885 54.0229 112.962 53.7689 112.136 53.2799C110.94 52.5699 109.656 52.0199 108.356 51.4499C107.136 50.9159 105.742 50.6199 104.436 50.2539C103.616 50.0239 102.779 50.0679 102.996 49.2319C103.399 47.6719 105.53 47.1019 107.162 46.7119C108.17 46.4719 109.152 46.1749 110.165 45.9419C111.068 45.7319 111.985 45.5289 112.745 45.0839C113.597 44.5839 114.059 44.0339 114.302 43.1969C114.466 42.6319 114.309 42.2749 114.002 41.7819C113.672 41.2489 113.394 40.6889 113.032 40.1719C112.207 38.9979 110.942 38.5549 109.444 38.1819C108.461 37.9369 107.211 37.6499 106.171 37.8019C105.681 37.8739 104.821 38.4469 105.227 38.8919C105.527 39.2219 106.713 39.0849 107.11 39.0119C107.83 38.8769 108.487 38.7799 109.234 38.7819C109.774 38.7819 109.989 38.8779 110.378 39.2119C110.73 39.5139 110.961 39.8819 111.168 40.2599C111.52 40.9029 111.924 41.7129 111.498 42.4139C111.368 42.6279 111.114 42.8009 110.825 42.8339C110.375 42.8909 110.117 42.5669 109.731 42.4199C108.323 41.8829 107.051 42.4539 106.071 43.2829C105.743 43.5629 105.534 43.9289 105.195 44.1949C104.848 44.4669 104.345 44.5879 103.899 44.7069C103.092 44.9209 101.637 44.9769 101.094 44.3389C100.65 43.8159 100.801 42.9059 100.801 42.2939C100.801 41.8899 100.686 41.4499 100.811 41.0569C101.051 40.3069 102.526 39.7199 101.298 38.9889C100.766 38.6719 99.972 38.2529 99.376 38.6309C99.043 38.8439 98.723 39.2129 98.55 39.5269C98.355 39.8789 98.318 40.3929 98.476 40.7589C98.621 41.0939 98.956 41.2689 99.203 41.5289C99.567 41.9149 99.701 42.4589 99.733 42.9589C99.721 43.1059 99.705 43.2489 99.685 43.3659C99.615 43.7699 99.512 44.2389 99.169 44.5559C98.679 45.0099 97.929 45.0659 97.241 45.1479C96.356 45.2539 95.473 45.3879 94.603 45.5559C93.603 45.7459 92.438 45.8559 91.573 46.3309C91.036 46.6259 90.531 46.9039 90.318 47.4359C90.158 47.8359 90.122 48.3539 90.534 48.6309C91.454 49.2469 92.746 48.8309 93.826 48.8659C94.654 48.8929 95.506 49.0839 96.294 49.2859C96.586 49.3589 96.837 49.5279 97.129 49.5839C97.254 50.8519 94.919 50.8739 93.901 51.0879C92.944 51.2909 92.026 51.5579 91.139 51.9079C90.659 52.0979 89.829 52.4219 89.629 52.8659C89.329 53.5209 90.839 54.3079 91.294 54.7559C91.724 55.1819 92.177 55.5139 92.634 55.9089C92.891 56.1289 93.341 56.6589 93.754 56.6789C94.072 55.7669 93.161 54.9929 92.706 54.2529C92.523 53.9569 92.262 53.4729 92.626 53.2109C93.07 52.8939 94.346 53.1109 94.916 53.0709C95.986 52.9959 96.903 52.4689 97.966 52.3609C99.816 52.1759 101.736 52.2709 103.602 52.2709C105.649 52.2709 107.809 52.5709 109.652 53.3079C109.942 53.4229 110.305 53.5459 110.488 53.7809C110.735 54.0989 110.441 54.3539 110.208 54.6749C109.715 55.3549 109.568 55.9569 109.621 56.7349C110.004 56.7099 110.919 56.2119 111.223 55.9929C111.73 55.6279 112.095 55.1029 112.437 54.6329L112.44 54.6349ZM99.74 42.8199L99.735 42.4979C99.742 42.6049 99.745 42.7119 99.74 42.8209V42.8199ZM15.583 62.7339C15.389 62.6819 15.186 62.6419 14.975 62.6119C14.765 62.5819 14.525 62.5699 14.26 62.5699C13.263 62.5699 12.47 62.8729 11.882 63.4799C11.294 64.0879 11 64.8999 11 65.9219C11 66.9819 11.293 67.8019 11.88 68.3869C12.466 68.9709 13.258 69.2629 14.256 69.2629C14.574 69.2629 14.826 69.2469 15.006 69.2149C15.188 69.1829 15.383 69.1369 15.592 69.0769C15.762 69.0269 15.927 68.9669 16.087 68.8969L16.512 68.7089V67.1929H16.36C16.276 67.2649 16.178 67.3479 16.065 67.4399C15.952 67.5329 15.821 67.6239 15.672 67.7129C15.535 67.7999 15.366 67.8789 15.167 67.9499C14.967 68.0199 14.757 68.0559 14.537 68.0559C14.327 68.0559 14.114 68.0189 13.901 67.9479C13.689 67.8759 13.496 67.7579 13.324 67.5979C13.144 67.4299 13 67.2099 12.89 66.9379C12.78 66.6639 12.724 66.3279 12.724 65.9279C12.724 65.5459 12.777 65.2149 12.882 64.9359C12.988 64.6559 13.124 64.4339 13.292 64.2699C13.472 64.0879 13.664 63.9599 13.865 63.8869C14.065 63.8129 14.288 63.7769 14.528 63.7769C14.731 63.7769 14.925 63.8089 15.112 63.8739C15.297 63.9389 15.468 64.0179 15.622 64.1099C15.777 64.2019 15.916 64.2959 16.038 64.3929C16.16 64.4899 16.262 64.5729 16.342 64.6429H16.512V63.1059C16.402 63.0509 16.257 62.9859 16.078 62.9109C15.9 62.8379 15.734 62.7779 15.583 62.7349V62.7339ZM41.896 62.6939L39.649 69.1369H41.323L41.739 67.8219H43.829L44.244 69.1369H45.964L43.717 62.6939H41.895H41.896ZM42.106 66.6539L42.786 64.5299L43.464 66.6539H42.106ZM73.07 65.3939C72.834 65.3139 72.612 65.2509 72.405 65.2039L71.76 65.0609C71.414 64.9849 71.182 64.8969 71.06 64.8009C70.94 64.7039 70.88 64.5729 70.88 64.4089C70.88 64.2969 70.918 64.1939 70.994 64.1039C71.07 64.0139 71.16 63.9439 71.264 63.8979C71.392 63.8409 71.514 63.8019 71.631 63.7819C71.748 63.7619 71.879 63.7519 72.025 63.7519C72.4 63.7519 72.765 63.8219 73.121 63.9639C73.477 64.1039 73.779 64.2789 74.026 64.4839H74.173V63.0099C73.863 62.8769 73.513 62.7729 73.121 62.6939C72.729 62.6169 72.336 62.5779 71.939 62.5779C71.151 62.5779 70.493 62.7639 69.965 63.1379C69.438 63.5119 69.175 63.9999 69.175 64.6029C69.175 65.0499 69.285 65.4229 69.51 65.7189C69.732 66.0149 70.102 66.2519 70.617 66.4289C70.84 66.5029 71.08 66.5659 71.337 66.6189C71.597 66.6689 71.837 66.7249 72.064 66.7829C72.244 66.8289 72.402 66.9029 72.534 67.0029C72.664 67.1029 72.729 67.2349 72.729 67.3969C72.729 67.5409 72.689 67.6569 72.609 67.7449C72.527 67.8329 72.429 67.9019 72.313 67.9509C72.218 67.9939 72.093 68.0249 71.935 68.0459C71.779 68.0659 71.653 68.0759 71.558 68.0759C71.178 68.0759 70.788 68.0019 70.388 67.8559C69.985 67.7079 69.618 67.4979 69.283 67.2229H69.133V68.7549C69.463 68.8969 69.82 69.0149 70.206 69.1099C70.592 69.2059 71.039 69.2549 71.548 69.2549C72.433 69.2549 73.134 69.0599 73.654 68.6699C74.174 68.2799 74.434 67.7659 74.434 67.1249C74.434 66.6779 74.321 66.3189 74.096 66.0449C73.871 65.7729 73.528 65.5569 73.066 65.3949L73.07 65.3939ZM97.47 63.9229H99.436V69.1369H101.106V63.9229H103.071V62.6929H97.471V63.9229H97.47ZM126.36 63.8199H127.317V68.0129H126.361V69.1369H129.944V68.0129H128.988V63.8199H129.944V62.6939H126.362V63.8199H126.36ZM158.092 66.3859L155.97 62.6939H153.92V69.1369H155.447V64.6469L158.012 69.1369H159.62V62.6939H158.092V66.3859ZM186.487 65.5969V66.8069H187.777V68.0669C187.717 68.0749 187.647 68.0789 187.567 68.0819C187.487 68.0839 187.417 68.0859 187.357 68.0859C186.681 68.0859 186.147 67.9059 185.759 67.5489C185.367 67.1909 185.173 66.6349 185.173 65.8819C185.173 65.5299 185.223 65.2219 185.327 64.9569C185.429 64.6909 185.567 64.4719 185.744 64.2989C185.929 64.1189 186.139 63.9869 186.374 63.8989C186.609 63.8139 186.87 63.7719 187.156 63.7719C187.4 63.7719 187.631 63.8039 187.85 63.8719C188.07 63.9369 188.263 64.0169 188.43 64.1089C188.572 64.1859 188.72 64.2809 188.87 64.3919C189.02 64.5019 189.135 64.5889 189.216 64.6489H189.368V63.1389C188.995 62.9629 188.635 62.8239 188.286 62.7209C187.939 62.6209 187.486 62.5689 186.928 62.5689C185.851 62.5689 185.002 62.8719 184.381 63.4819C183.761 64.0899 183.451 64.8989 183.451 65.9079C183.451 66.9809 183.761 67.8079 184.381 68.3929C185.003 68.9769 185.835 69.2689 186.881 69.2689C187.334 69.2689 187.793 69.2159 188.259 69.1059C188.725 68.9959 189.104 68.8839 189.395 68.7689V65.5959H186.488L186.487 65.5969ZM24.155 66.3019L27.017 68.6349L29.877 66.3019L27.017 63.9689L24.155 66.3009V66.3019ZM55.01 66.3019L57.872 68.6349L60.732 66.3019L57.872 63.9689L55.01 66.2999V66.3019ZM83.625 66.3019L86.487 68.6349L89.347 66.3019L86.487 63.9689L83.625 66.3009V66.3019ZM110.997 66.3019L113.857 68.6349L116.719 66.3019L113.857 63.9689L110.997 66.3009V66.3019ZM138.617 66.3019L141.479 68.6349L144.339 66.3019L141.479 63.9689L138.616 66.3009L138.617 66.3019ZM169.224 66.3019L172.084 68.6349L174.946 66.3019L172.086 63.9689L169.224 66.3009V66.3019Z" fill="black"/>
</svg>
