<svg width="200" height="100" viewBox="0 0 200 100" fill="none" xmlns="http://www.w3.org/2000/svg">
<path fill-rule="evenodd" clip-rule="evenodd" d="M153.22 15.7441C153.15 15.3841 152.195 15.6281 151.64 15.1281C150.952 14.5131 150.868 14.1901 149.56 14.1521C148.424 14.1171 146.334 15.0551 146.988 16.0321C149.751 20.1801 153.4 16.6451 153.22 15.7441ZM148.943 28.9371C148.475 29.5931 151.193 30.7871 153.33 30.6071C154.703 30.4901 156.303 28.7221 155.977 28.6841C155.651 28.6471 155.434 28.7571 154.961 28.5761C154.493 28.3961 154.603 27.8861 153.116 27.4161C151.858 27.0181 149.79 27.7731 148.944 28.9361L148.943 28.9371ZM124.734 66.4181C124.588 64.8251 122.484 63.5181 121.759 63.8781C120.309 64.6041 124.877 68.0121 124.733 66.4181H124.734Z" fill="black"/>
<path fill-rule="evenodd" clip-rule="evenodd" d="M159.963 39.522C156.413 37.636 148.583 38.222 146.988 38.072C142.33 37.649 138.142 35.606 137.633 34.772C137.565 32.672 140.465 31.622 141.296 31.152C142.13 30.682 143.906 30.57 144.416 30.892C145.046 31.297 144.356 33.695 145.68 34.664C147.257 35.821 148.512 35.644 149.31 35.826C150.106 36.004 151.374 36.989 151.446 36.442C151.516 35.9 151.01 32.744 150.323 31.549C149.426 29.989 146.951 29.661 146.806 29.337C146.661 29.011 147.748 28.683 148.076 28.213C148.884 27.043 147.976 26.277 148.388 25.313C148.648 24.709 148.963 24.175 148.726 24.151C147.368 24.016 145.324 24.791 144.328 25.663C142.758 27.028 143.073 28.833 143.073 28.833C142.723 29.409 140.993 29.813 139.741 29.879C139.491 29.892 140.701 26.385 140.755 25.966C140.79 25.676 141.64 23.959 141.148 20.963C140.955 19.793 140.458 18.649 140.512 18.35C140.674 17.484 143.22 17.606 143.22 17.993C143.22 19.763 143.39 20.503 143.577 20.963C143.817 21.568 143.727 21.553 144.453 21.978C146.078 22.926 149.3 22.518 151.123 23.428C151.487 23.611 150.807 21.632 150.443 21.018C150.1 20.44 149.577 19.416 148.959 18.728C146.967 16.518 145.913 17.42 144.669 16.906C144.576 16.864 146.664 13.966 146.337 12.409C146.011 10.849 145.47 9.65298 144.597 9.07598C144.177 8.79598 140.444 12.251 140.357 13.64C140.203 16.155 141.477 15.66 141.072 16.477C140.839 16.932 139.962 17.107 139.908 17.023C138.624 15.081 138 14.029 137.348 13.063C136.02 11.101 137.981 9.22298 137.131 7.62598C135.511 4.57798 133.847 5.08798 132.851 5.05398C131.801 5.01398 129.164 6.20598 129.711 6.82998C130.641 7.88798 131.056 8.20298 130.679 9.14798C130.679 9.14798 129.156 9.51098 128.105 8.96398C127.052 8.42198 126.475 6.86398 123.21 7.58798C121.6 7.94598 119.66 11.866 119.51 12.558C119.332 13.421 120.373 12.286 121.324 12.698C122.157 13.064 123.177 13.508 124.189 13.426C126.434 13.244 127.487 10.74 127.774 10.416C128.067 10.092 129.006 10.126 128.864 10.381C128.087 11.741 127.94 13.161 129.154 13.208C130.132 13.245 129.224 10.598 131.692 10.961C134.156 11.323 134.156 13.283 134.156 13.283C134.156 13.283 131.11 12.7 130.456 13.57C129.804 14.44 133.038 15.525 132.561 17.194C132.416 17.7 130.906 16.621 129.518 16.977C128.246 17.304 125.578 19.624 126.616 20.419C126.93 20.664 127.414 20.084 128.501 20.819C129.507 21.503 129.731 21.994 130.784 21.723C133.174 21.106 133.022 19.827 133.758 19.007C134.223 18.483 135.018 18.585 135.278 18.932C135.498 19.225 135.858 19.367 135.242 19.692C134.628 20.022 133.357 20.6 132.922 21.942C132.487 23.282 132.415 25.418 132.849 25.819C133.233 26.174 134.371 24.626 135.605 24.734C138.665 24.997 138.123 19.227 138.627 20.324C139.735 22.744 138.953 27.149 138.397 26.969C136.487 26.343 135.442 26.765 135.677 27.584C136.262 29.614 137.301 27.447 138.034 29.037C138.351 29.717 136.164 33.423 135.86 32.383C135.33 31.403 130.14 25.279 128.6 24.083C126.563 21.259 124.137 18.343 120.527 15.599C116.902 12.843 112.264 9.50898 106.609 9.50898C96.014 9.50898 90.649 16.159 90.079 16.469C88.834 17.147 88.785 17.979 86.453 18.279C80.087 17.729 73.833 13.937 63.897 21.106H63.981C61.067 23.484 58.947 26.264 57.621 28.443C57.331 28.913 56.741 29.635 56.586 30.023C56.316 30.698 56.771 31.805 57.086 32.461C58.029 34.436 60.632 35.627 62.009 36.951C62.154 37.089 62.293 37.211 62.387 37.349C63.257 38.582 67.172 38.362 67.677 38.649C71.542 40.861 75.455 41.256 76.305 41.842C76.871 42.232 76.379 43.872 75.615 44.272C74.855 44.667 72.972 44.959 70.072 45.287C67.172 45.611 67.678 48.257 66.738 47.783C65.513 47.173 62.168 45.73 62.168 45.73C61.988 45.3 63.26 44 62.966 42.748C62.721 41.704 61.3 41.08 60.683 40.538C60.067 39.992 60.103 38.834 59.883 38.871C57.296 39.301 59.038 44.031 58.278 44.031C57.92 44.031 55.322 40.891 55.288 40.781C55.15 40.355 56.702 40.768 57.458 38.651C57.861 37.518 57.011 36.083 56.251 35.105C55.378 33.985 56.181 33.695 55.897 33.472C55.853 33.462 52.29 35.705 52.732 38.424C52.732 38.424 51.875 37.884 50.785 36.77C50.545 36.524 52.375 34.875 52.091 32.86C51.865 31.257 50.871 29.958 48.521 28.635C47.009 27.781 47.901 26.467 46.763 27.201C46.147 27.597 44.483 31.404 45.313 33.581C46.423 36.495 48.358 36.223 48.323 36.621C45.641 36.733 42.521 41.156 42.919 41.298C43.319 41.446 43.543 40.834 44.306 41.306C45.958 42.331 46.77 42.551 48.03 42.498C49.037 42.448 50.336 41.352 51.472 41.298C52.242 41.268 54.385 44.198 54.385 44.198C49.369 43.853 47.113 44.39 46.84 43.225C46.73 42.771 45.906 42.669 45.565 42.93C45.062 43.323 44.992 44.522 43.753 44.522C42.19 44.522 42.049 43.302 41.83 43.112C40.918 42.295 36.417 41.394 37.3 46.917C37.52 47.207 38.708 45.59 39.776 46.214C39.692 46.164 39.069 47.764 39.039 49.309C39.019 50.589 40.355 52.766 40.999 53.226L42.596 51.254C43.871 50.4 45.626 50.161 46.181 49.344C47.196 47.86 45.093 46.339 46.073 46.082C49.983 45.069 53.788 45.769 54.106 45.828C55.758 46.128 55.29 46.368 55.29 46.368C53.678 47.178 54.61 48.023 51.813 48.148C50.423 48.21 50.373 46.084 49.263 46.55C47.175 47.435 48.936 48.716 49.043 49.04C49.147 49.346 49.843 49.45 50.279 49.963C50.712 50.468 49.699 51.63 49.623 51.555C49.575 51.507 48.261 51.219 46.983 51.827C47.993 51.357 46.01 51.803 45.13 53.799C43.84 56.741 46.29 60.761 46.29 60.761C46.895 60.701 50.725 57.329 51.267 55.336C51.814 53.339 50.959 52.67 50.777 51.826H50.837C51.029 51.088 51.261 50.988 51.73 50.536C52.193 50.088 53.25 49.759 53.216 49.898C52.731 51.71 52.89 54.008 53.414 53.793C54.419 53.378 55.39 52.399 55.991 51.838C58.046 49.906 57.128 47.36 57.671 46.753C58.216 46.15 60.264 47.219 61.151 47.638C61.663 47.88 65.615 49.484 66.009 51.084C66.092 51.424 65.329 51.704 64.907 51.824C63.534 52.244 61.567 52.064 61.517 51.839C61.515 51.839 61.512 51.835 61.509 51.825C61.434 51.613 61.169 52.191 61.029 51.215C60.975 50.822 61.222 50.729 61.117 50.285C60.993 49.759 59.92 49.96 59.52 50.175C58.87 50.527 58.54 51.515 58.905 52.205C59.287 52.925 60.502 52.429 60.84 53.365C60.805 53.265 60.98 54.187 59.727 54.219C57.694 54.279 57.459 54.133 56.984 54.235C55.704 54.507 55.027 55.071 54.701 55.648C53.993 56.905 53.031 59.348 53.471 59.528C53.904 59.708 56.551 59.995 57.781 59.745C59.015 59.488 59.801 57.883 60.198 55.525C60.198 55.525 61.808 53.892 64.38 53.703C64.753 53.677 64.488 56.586 64.272 56.628C61.066 57.204 61.61 59.421 60.212 60.178C59.986 60.298 61.66 62.208 64.197 61.7C64.907 61.557 66.497 60.815 65.937 61.63C64.232 64.097 70.213 67.282 70.431 66.413C70.648 65.541 70.105 62.716 67.496 61.517C66.034 60.85 68.992 58.501 69.561 60.397C69.779 61.122 72.531 63.874 74.276 62.857C74.276 62.857 73.033 60.082 74.852 57.353C75.145 56.917 74.997 54.743 73.982 54.453C72.969 54.16 76.738 51.697 81.522 53.293C82.01 53.455 81.976 54.7 81.522 54.779C77.715 55.432 79.49 59.167 79.49 59.167C83.12 58.745 82.425 54.52 82.573 54.077C82.718 53.644 84.423 53.44 84.566 54.302C84.711 55.176 83.588 55.322 83.262 56.19C82.607 57.938 84.712 57.785 84.932 57.64C86.128 56.842 86.678 54.743 86.598 54.743C91.986 54.893 93.14 59.547 92.978 59.378C93.581 59.988 95.408 58.344 95.008 57.785C92.021 53.635 89.438 53.202 89.28 53.038C88.796 52.53 89.835 52.262 89.914 51.824C90.134 50.987 90.004 50.174 89.354 49.92C88.699 49.667 88.661 49.703 88.048 49.988C87.393 50.301 87.613 51.188 87.215 51.371C86.812 51.551 85 50.064 85.075 49.521C85.197 48.587 87.555 48.454 88.083 48.831C88.843 49.377 95.153 49.703 97.036 49.231C98.329 48.905 99.106 49.241 98.571 48.033C98.093 46.961 96.881 40.92 98.498 37.426C100.808 32.423 102.982 31.058 105.204 29.222C106.006 28.562 105.444 30.307 105.444 30.307C92.744 40.777 101.807 49.602 100.514 49.957C99.404 50.257 98.054 50.404 96.819 50.737C95.447 51.111 94.221 51.664 93.654 52.009C92.448 53.289 94.062 56.173 95.804 55.969C102.714 55.173 102.726 54.413 103.741 54.413C113.893 54.413 113.407 52.153 114.143 53.143C115.279 54.66 105.993 58.379 105.553 58.431C105.069 58.581 105.033 58.714 104.793 58.441C104.793 58.441 104.876 58.111 105.06 57.416C105.12 57.179 105.045 56.801 104.64 56.476C104.492 56.359 104.238 56.231 103.907 56.472C103.34 56.882 103.217 58.304 102.821 58.702C97.757 63.828 81.666 62.712 81.666 62.712C81.666 62.712 80.653 64.889 81.666 64.889C94.872 64.889 101.821 61.262 106.026 59.817C110.23 58.361 109.096 61.027 109.65 61.297C111.115 62.017 112.294 59.269 112.294 59.269C112.294 59.269 117.917 59.959 118.058 60.395C119.015 63.263 127.013 63.687 127.073 61.359L126.396 60.912C122.706 54.745 119.404 59.45 118.676 59.305C115.776 58.728 113.971 58.549 112.961 57.963C112.371 57.626 115.959 56.188 116.939 57.025C117.909 57.855 116.817 57.918 118.021 58.208C118.641 58.358 120.086 57.118 120.379 56.334C120.523 55.949 129.269 55.418 129.269 56.286C129.269 55.978 128.519 59.731 131.181 61.014C132.001 61.409 131.721 62.969 132.197 63.006C133.847 63.132 135.509 60.396 135.567 57.314C135.597 55.681 143.439 61.734 142.272 62.714C139.082 65.398 142.632 68.334 142.632 68.367C142.632 68.407 145.246 66.701 143.796 62.789C143.796 62.789 144.881 62.279 144.881 63.151C144.881 68.327 152.568 66.338 152.421 65.901C150.883 61.295 147.961 61.084 145.751 61.841C143.541 62.608 141.981 59.051 141.981 59.051C141.981 59.051 148.925 58.807 149.666 59.961C150.319 60.975 151.553 62.313 153.832 62.061C156.118 61.805 158.692 58.293 158.547 57.061C158.471 56.404 157.414 57.429 156.372 56.769C154.98 55.889 152.348 56.127 152.06 56.263C150.866 56.813 150.648 57.351 150.03 57.857C149.314 58.445 149.05 58.362 148.797 57.929C148.872 58.056 150.973 55.395 150.391 53.362C153.001 53.868 155.434 53.96 158.333 53.018C162.893 51.535 163.729 48.192 163.803 45.604C163.847 44.082 163.513 41.4 159.96 39.514L159.963 39.522ZM64.393 28.848L64.163 29.326L64.019 29.636L63.871 29.949L63.629 29.702L63.507 29.58C63.29 29.563 63.087 29.458 62.943 29.273C62.635 28.873 62.565 28.083 62.957 27.543C63.124 27.319 63.615 26.828 64.582 27.181C64.819 27.267 65.442 27.494 65.399 28.044C65.369 28.414 65.029 28.684 64.392 28.849L64.393 28.848ZM72.737 53.661L72.613 53.841L72.397 53.815H72.402C72.346 53.811 71.019 53.695 70.032 55.319C69.514 56.179 69.224 56.784 69.179 57.121C69.139 57.424 68.951 57.494 68.779 57.539C68.755 57.545 68.727 57.555 68.694 57.564C68.364 57.651 68.087 57.631 67.86 57.504C67.475 57.279 67.353 56.824 67.2 56.248C67.122 55.96 67.035 55.632 66.9 55.294C66.67 54.706 66.462 53.874 66.774 53.251C66.937 52.927 67.227 52.701 67.61 52.598C68.36 52.395 72.14 51.431 72.88 52.488C73.036 52.708 73.136 53.085 72.737 53.662V53.661ZM84.627 52.108L84.567 52.493L84.193 52.408C84.151 52.396 80.238 51.538 77.633 51.428L75.198 51.353C72.991 51.293 71.522 51.246 71.245 51.203C71.015 51.163 70.788 50.945 70.845 50.559C70.935 49.875 72.118 48.204 76.417 48.659C77.801 48.809 78.927 49.065 79.827 49.279C80.365 49.402 80.827 49.511 81.237 49.569C82.327 49.726 83.039 49.802 83.465 49.849C83.78 49.883 83.939 49.901 84.041 49.927C84.883 50.135 84.701 51.652 84.627 52.107V52.108ZM91.169 44.163L91.149 44.175L91.132 44.188C90.994 44.268 87.852 46.035 85.778 44.313C85.525 44.601 85.121 45.226 84.878 45.703C85.634 45.355 86.758 45.003 87.365 45.627C87.913 46.19 87.737 46.68 87.635 46.867C87.333 47.424 86.463 47.682 85.875 47.564C85.331 47.456 84.947 47.487 84.821 47.662C84.637 47.902 84.841 48.562 85.033 48.924L85.117 49.079L85.043 49.241C84.97 49.401 84.701 49.925 84.255 49.889C83.801 49.863 83.643 49.314 83.592 49.133C83.004 47.111 83.154 45.795 83.247 45.216C82.847 45.14 82.503 44.946 82.224 44.631C81.104 43.361 81.439 40.531 81.451 40.411L81.493 40.091H81.81C83.562 40.074 84.296 41.369 84.737 42.143C84.854 42.355 85.012 42.623 85.102 42.696C85.258 42.594 85.426 42.402 85.599 42.199C86.052 41.679 86.666 40.959 87.879 40.959C88.987 40.959 89.517 41.336 89.904 41.607C90.084 41.733 90.224 41.837 90.392 41.88C90.989 42.042 91.228 42.267 91.442 42.462C91.497 42.514 91.549 42.562 91.61 42.609C91.87 42.819 91.922 43.043 91.92 43.193C91.91 43.603 91.515 43.9 91.166 44.161L91.169 44.163ZM142.005 39.003C143.112 39.593 144.11 40.623 143.87 41.451C143.78 41.747 143.434 41.903 142.674 41.981C141.716 42.083 138.834 42.093 138.164 40.851C137.987 40.515 137.904 39.966 138.516 39.217C139.246 38.337 140.58 38.253 142.006 39.004L142.005 39.003ZM137.745 36.675C137.965 36.655 138.475 36.599 138.721 36.965C138.956 37.315 138.757 37.788 138.583 38.11C138.423 38.41 138.335 38.65 138.273 38.807C138.193 39.019 138.103 39.263 137.821 39.264C137.535 39.266 137.437 39.024 137.325 38.739C137.008 37.951 136.955 37.369 137.168 37.021C137.288 36.821 137.491 36.694 137.745 36.673V36.675ZM147.509 52.633C147.439 52.973 147.092 53.096 146.563 53.278C145.466 53.67 143.798 54.256 143.798 56.634C143.798 56.981 143.606 57.26 143.271 57.398C142.719 57.631 141.814 57.44 141.493 57.121C141.331 56.967 141.283 56.761 141.357 56.571C141.711 55.681 141.915 54.341 141.647 54.048C141.572 53.974 141.255 53.87 141.154 53.895C140.946 53.961 140.797 54.097 140.719 54.272C140.624 54.492 140.644 54.774 140.781 55.066C141.039 55.631 140.563 56.168 140.508 56.226L140.456 56.286L140.376 56.316C138.24 57.186 137.096 56.45 136.802 56.206C136.494 55.956 136.347 55.668 136.397 55.426C136.425 55.266 136.537 55.141 136.692 55.092C138.736 54.444 139.006 53.252 139.225 52.288C139.362 51.681 139.493 51.098 140.08 50.893C140.604 50.71 140.767 50.566 140.815 50.508C140.771 50.466 140.671 50.39 140.542 50.336C138.192 49.379 136.316 49.183 134.966 49.751C133.716 50.281 133.283 51.345 133.141 51.699C133.129 51.726 133.116 51.754 133.108 51.775C132.966 52.101 132.918 52.575 132.868 53.029C132.794 53.759 132.722 54.449 132.251 54.761C131.738 55.104 130.228 54.503 129.831 54.091C129.569 53.824 129.605 53.551 129.725 53.381C131.409 51.004 131.472 50.267 131.375 49.918C131.237 49.433 130.749 49.08 130.242 49.105C129.795 49.128 129.322 49.495 129.202 49.623C129.072 49.817 129.116 50.793 129.134 51.316C129.17 52.192 129.181 52.626 129.001 52.863C128.923 52.975 128.847 53.1 128.771 53.231C128.461 53.747 128.043 54.451 126.929 54.311L126.754 54.287C126.238 54.22 125.66 54.142 123.177 54.205C121.589 54.245 120.504 54.531 119.711 54.743C119.091 54.903 118.645 55.019 118.228 54.963C117.956 54.927 117.748 54.813 117.612 54.623C117.347 54.258 117.439 53.753 117.537 53.227C117.569 53.054 117.597 52.884 117.617 52.717C117.461 52.709 117.154 52.762 116.97 52.795C116.503 52.881 116.102 52.959 115.914 52.635C115.721 52.327 115.992 51.985 116.104 51.842C117.174 50.495 120.066 47.926 122.054 46.546C122.357 46.34 122.464 46.036 122.452 45.922C121.976 45.742 121.502 45.497 121.45 45.058C121.418 44.764 121.59 44.494 121.957 44.258C122.443 43.95 123.672 44.368 124.467 44.698C128.184 42.326 132.415 37.61 135.167 33.94C135.784 33.117 136.321 33.212 136.522 33.29C136.882 33.428 137.094 33.835 137.049 34.294C137.019 34.587 136.683 35.068 135.732 36.366C135.19 37.106 134.358 38.249 134.066 38.83C135.841 38.416 136.881 39.2 137.446 39.957C137.946 40.627 138.322 41.71 138.333 42.227H138.351C138.389 42.49 138.453 42.745 138.515 42.995C138.681 43.661 138.849 44.345 138.351 44.825C138.329 44.845 138.301 44.879 138.268 44.91C138.113 45.085 137.818 45.404 137.376 45.314C137.082 45.254 136.756 45.006 136.586 44.704C136.462 44.484 136.429 44.25 136.504 44.046C137.018 42.552 136.919 41.823 136.851 41.574C136.758 41.249 136.425 40.827 135.869 40.592C135.289 40.342 134.291 40.214 132.839 41.004C131.655 41.646 128.227 44.414 125.959 46.244C125.083 46.949 124.326 47.564 123.895 47.896V47.891C123.765 47.986 123.197 48.401 122.84 48.658C121.342 49.668 119.78 51.038 119.433 51.808C119.799 51.668 120.423 51.353 121.028 51.048C125.968 48.576 137.542 42.772 147.306 52.093C147.526 52.3 147.536 52.501 147.506 52.633H147.509Z" fill="black"/>
<path fill-rule="evenodd" clip-rule="evenodd" d="M118.79 62.1431C118.79 62.1431 116.24 61.9851 117.3 64.6771C117.574 65.3651 117.485 67.3551 117.485 67.3551C118.92 67.7011 122.972 62.2811 118.79 62.1431ZM75.872 91.1431C75.154 90.9331 74.697 90.7181 74.502 90.4931C74.305 90.2671 74.154 89.7731 74.052 89.0091C73.807 87.1691 73.402 85.8041 72.836 84.9131C72.269 84.0211 71.378 83.3571 70.164 82.9161C69.597 82.7091 69.314 82.4361 69.314 82.1031C69.314 81.8471 69.499 81.6281 69.869 81.4431C70.759 81.0031 71.459 80.3471 71.967 79.4731C72.477 78.6011 72.731 77.6311 72.731 76.5681C72.731 74.6581 72.001 73.1661 70.544 72.0911C68.924 70.8991 66.878 70.3031 64.404 70.3031C63.964 70.3031 63.194 70.3431 62.094 70.4251C60.36 70.5631 58.972 70.6331 57.931 70.6331C57.306 70.6331 56.849 70.6231 56.561 70.5981C55.034 70.4831 54.081 70.4251 53.698 70.4251C52.83 70.4251 52.148 70.4881 51.648 70.6151C51.06 70.7651 50.6 71.0001 50.271 71.3191C49.941 71.6391 49.776 72.0091 49.776 72.4391C49.776 72.7631 49.863 73.0261 50.036 73.2291C50.21 73.4311 50.551 73.6531 51.06 73.8961C51.592 74.1621 51.94 74.5831 52.1 75.1621C52.263 75.7421 52.344 76.8321 52.344 78.4421C52.344 83.5081 52.314 86.4521 52.257 87.2721C52.187 88.3951 52.062 89.1821 51.883 89.6401C51.703 90.0981 51.359 90.4951 50.851 90.8301C50.399 91.1301 50.111 91.3651 49.983 91.5331C49.856 91.7001 49.793 91.9231 49.793 92.2001C49.793 93.8201 51.933 94.6301 56.213 94.6301C58.513 94.6301 60.148 94.4701 61.113 94.1531C62.079 93.8351 62.563 93.2931 62.563 92.5301C62.563 91.9071 62.213 91.4031 61.521 91.0201C61.197 90.8361 60.977 90.6801 60.861 90.5521C60.746 90.4261 60.659 90.2461 60.601 90.0141C60.416 89.1941 60.323 88.0491 60.323 86.5801C60.323 85.6081 60.383 84.9901 60.506 84.7231C60.626 84.4561 60.906 84.3231 61.346 84.3231C62.109 84.3591 62.696 84.6011 63.106 85.0531C63.518 85.5031 63.856 86.2791 64.122 87.3781C64.539 89.0881 64.9 90.3501 65.206 91.1581C65.513 91.9701 65.886 92.6401 66.326 93.1731C67.296 94.3631 68.91 94.9591 71.166 94.9591C72.856 94.9591 74.186 94.7331 75.156 94.2821C75.596 94.0721 75.956 93.7871 76.232 93.4221C76.51 93.0581 76.648 92.6981 76.648 92.3391C76.648 92.0591 76.574 91.8091 76.423 91.5831C76.273 91.3581 76.087 91.2101 75.868 91.1431H75.872ZM63.294 79.9261C62.831 80.4521 62.09 80.7161 61.072 80.7161C60.702 80.7161 60.457 80.6461 60.336 80.5061C60.214 80.3691 60.153 80.0911 60.153 79.6741V79.5191L60.343 75.4741C60.367 74.9421 60.471 74.5741 60.656 74.3641C60.842 74.1571 61.159 74.0521 61.611 74.0521C63.196 74.0521 63.988 75.1691 63.988 77.4021C63.988 78.5571 63.758 79.3991 63.295 79.9251L63.294 79.9261ZM93.36 78.6331C91.764 77.5351 89.908 76.9851 87.79 76.9851C84.75 76.9851 82.164 77.8991 80.036 79.7251C78 81.4621 76.983 83.6951 76.983 86.4231C76.983 88.8751 77.815 90.8651 79.48 92.3911C81.192 93.9651 83.43 94.7531 86.195 94.7531C89.029 94.7531 91.545 93.9131 93.742 92.2371C96.042 90.4771 97.195 88.3441 97.195 85.8341C97.195 84.4001 96.835 83.0241 96.118 81.7041C95.425 80.4441 94.505 79.4211 93.36 78.6341V78.6331ZM87.79 90.5001C86.98 90.5001 86.397 90.0271 86.04 89.0801C85.68 88.1521 85.37 87.0901 85.11 85.8941C84.85 84.6961 84.72 83.7511 84.72 83.0571C84.72 82.4321 84.873 81.9321 85.18 81.5571C85.487 81.1811 85.894 80.9931 86.403 80.9931C87.086 81.0171 87.617 81.4211 88 82.2071C88.37 82.9821 88.685 83.9871 88.944 85.2271C89.204 86.4631 89.334 87.5671 89.334 88.5411C89.334 89.8481 88.82 90.5011 87.791 90.5011L87.79 90.5001ZM114.752 78.6331C113.156 77.5351 111.3 76.9851 109.182 76.9851C106.142 76.9851 103.556 77.8991 101.428 79.7251C99.392 81.4621 98.375 83.6951 98.375 86.4231C98.375 88.8751 99.208 90.8651 100.873 92.3911C102.583 93.9651 104.823 94.7531 107.587 94.7531C110.421 94.7531 112.937 93.9131 115.134 92.2371C117.434 90.4771 118.587 88.3441 118.587 85.8341C118.587 84.4001 118.227 83.0241 117.511 81.7041C116.818 80.4441 115.899 79.4211 114.753 78.6341L114.752 78.6331ZM109.182 90.5011C108.372 90.5011 107.789 90.0281 107.432 89.0811C107.072 88.1531 106.762 87.0911 106.502 85.8951C106.242 84.6971 106.112 83.7521 106.112 83.0581C106.112 82.4331 106.265 81.9331 106.572 81.5581C106.879 81.1821 107.287 80.9941 107.795 80.9941C108.477 81.0181 109.01 81.4221 109.391 82.2081C109.761 82.9831 110.078 83.9881 110.338 85.2281C110.598 86.4641 110.728 87.5681 110.728 88.5421C110.728 89.8491 110.213 90.5021 109.184 90.5021L109.182 90.5011ZM133.767 88.9901C133.594 88.9901 133.42 89.0441 133.247 89.1471C132.507 89.5631 131.911 89.7721 131.46 89.7721C130.927 89.7721 130.49 89.5521 130.15 89.1121C129.81 88.6721 129.64 88.1061 129.64 87.4121V81.5501C129.64 81.2241 129.696 81.0051 129.812 80.8881C129.927 80.7731 130.148 80.7151 130.472 80.7151H133.612C134.039 80.7151 134.334 80.6081 134.496 80.3951C134.656 80.1811 134.74 79.7951 134.74 79.2401V78.2171C134.74 77.7071 134.676 77.3771 134.548 77.2191C134.421 77.0631 134.142 76.9841 133.716 76.9841H130.506C130.148 76.9841 129.913 76.9341 129.803 76.8281C129.693 76.7221 129.639 76.4981 129.639 76.1511V73.8101C129.639 73.4171 129.589 73.1541 129.489 73.0201C129.392 72.8881 129.199 72.8221 128.909 72.8221H127.503C127.213 72.8221 126.971 72.8721 126.773 72.9761L118.829 77.9731C118.575 78.1371 118.441 78.3901 118.429 78.7381V79.5011C118.429 79.9071 118.476 80.1641 118.567 80.2741C118.661 80.3841 118.875 80.4381 119.21 80.4381H121C121.267 80.4381 121.43 80.4681 121.495 80.5341C121.559 80.5981 121.59 80.7621 121.59 81.0291V89.0451C121.59 90.7551 122.15 92.1351 123.273 93.1831C124.396 94.2281 125.883 94.7531 127.733 94.7531C130.069 94.7531 132.059 94.0531 133.701 92.6531C134.488 91.9931 134.881 91.3051 134.881 90.5891C134.881 90.1941 134.765 89.8291 134.534 89.4961C134.304 89.1601 134.049 88.9921 133.771 88.9921L133.767 88.9901ZM145.41 83.2141C144.322 82.7161 143.778 82.1841 143.778 81.6181C143.778 81.2941 143.898 81.0131 144.134 80.7781C144.371 80.5401 144.651 80.4211 144.974 80.4211C145.462 80.4211 146.074 80.7791 146.814 81.4971C147.52 82.1671 148.032 82.6011 148.349 82.7971C148.667 82.9951 149.029 83.0931 149.433 83.0931C149.919 83.0931 150.323 82.9401 150.647 82.6331C150.972 82.3261 151.133 81.9431 151.133 81.4801C151.133 81.0051 150.995 80.4441 150.717 79.7961C150.439 79.1481 150.081 78.5521 149.641 78.0081C149.099 77.3251 148.561 76.9851 148.028 76.9851C147.842 76.9851 147.618 77.0381 147.35 77.1421C146.784 77.3491 146.402 77.4521 146.205 77.4521C146.032 77.4521 145.812 77.4301 145.545 77.3841C144.239 77.1301 143.295 77.0041 142.718 77.0041C140.636 77.0041 138.994 77.7141 137.79 79.1371C136.947 80.1321 136.524 81.3171 136.524 82.6931C136.524 83.9651 136.937 85.0871 137.764 86.0601C138.592 87.0301 139.936 87.9741 141.798 88.8871C142.688 89.3141 143.134 89.7891 143.134 90.3091C143.134 90.6441 143.02 90.9121 142.787 91.1161C142.555 91.3181 142.247 91.4191 141.867 91.4191C141.507 91.4191 141.172 91.3231 140.86 91.1321C140.548 90.9421 140.155 90.5921 139.68 90.0821C138.813 89.1581 138.244 88.5881 137.972 88.3741C137.7 88.1611 137.402 88.0541 137.078 88.0541C136.246 88.0541 135.83 88.5841 135.83 89.6501C135.83 90.3101 136.033 91.1001 136.437 92.0181C136.841 92.9381 137.28 93.6121 137.754 94.0381C138.068 94.3181 138.496 94.4551 139.039 94.4551C139.189 94.4551 139.432 94.4321 139.769 94.3871C139.964 94.3521 140.139 94.3351 140.289 94.3351C140.427 94.3351 141.057 94.3981 142.179 94.5271C143.369 94.6771 144.192 94.7511 144.642 94.7511C146.402 94.7511 147.887 94.2841 149.102 93.3471C150.512 92.2721 151.219 90.9291 151.219 89.3221C151.219 88.0521 150.779 86.9741 149.901 86.0961C148.859 85.0541 147.361 84.0941 145.407 83.2161L145.41 83.2141Z" fill="black"/>
</svg>
