<svg width="200" height="100" viewBox="0 0 200 100" fill="none" xmlns="http://www.w3.org/2000/svg">
<path fill-rule="evenodd" clip-rule="evenodd" d="M154.204 38.0031C153.312 37.9811 150.272 40.4451 149.261 44.0351C154.703 43.1151 155.871 38.0491 154.205 38.0031H154.204ZM66.155 31.0331C66.499 30.2251 66.695 29.3451 66.405 28.7031C65.229 26.1191 59.603 27.9031 59.603 27.9031L55.253 37.0781C55.253 37.0781 63.853 36.4261 66.155 31.0331ZM140.178 31.2001C140.431 30.5961 140.578 29.9401 140.36 29.4601C139.494 27.5351 135.56 28.4021 135.56 28.4021L132.133 35.7051C132.133 35.7051 138.48 35.2201 140.178 31.1991V31.2001ZM137.096 43.5861C137.626 42.5821 137.79 41.4001 137.416 40.5681C135.908 37.2211 130.706 38.7281 130.706 38.7281L126.469 47.7511C126.469 47.7511 134.452 48.5981 137.095 43.5871L137.096 43.5861ZM168.347 45.9551L167.819 46.4411C168.009 46.3261 168.319 46.1371 168.346 45.9561L168.347 45.9551Z" fill="black"/>
<path fill-rule="evenodd" clip-rule="evenodd" d="M182.122 37.7101C181.958 34.1101 181.802 33.9971 181.318 33.4221C180.662 32.6451 178.894 32.3191 178.894 32.3191C176.804 31.8841 175.239 32.4251 174.106 33.2191C173.539 33.2191 173.286 33.2211 173.286 33.2211L175.803 28.4461L163.925 28.4691C163.925 28.4691 161.673 32.5391 161.278 33.2561C155.585 31.3581 149.7 34.3761 148.215 35.2181C154.249 22.9411 138.161 21.3781 129.019 24.3781C121.837 26.7341 120.069 31.1631 120.932 33.8431C120.796 33.6631 120.224 32.3491 117.59 32.3491C109.242 32.3411 84.214 32.3591 78.592 32.3591C78.837 18.1571 58.576 20.7611 52.034 22.5791C44.217 24.7491 35.312 31.7791 41.204 43.8731C37.762 50.1111 31.508 60.3431 31.508 60.3431C31.508 60.3431 25.616 61.8911 22.318 69.3801C21.432 69.2261 20.805 68.9101 19.552 68.6751C18.846 72.3581 23.025 79.7851 32.292 79.7451C38.112 79.7201 44.329 75.0331 44.928 75.0201C45.318 76.2741 48.921 77.9971 52.424 77.3171C54.404 78.2301 56.502 78.5851 64.654 77.7471C128.414 67.0971 163.53 59.4701 172.584 55.2271C179.944 52.0751 179.411 48.6911 179.614 47.6811C180.754 46.7211 181.867 45.1491 182.119 42.6051C182.169 42.0881 182.196 41.4101 182.196 40.5801C182.196 39.7681 182.17 38.8101 182.121 37.7101H182.122ZM130.365 29.9371C127.925 30.9921 126.337 31.7871 125.045 33.7831L125.091 34.1761L124.719 36.6521H123.669C120.791 26.6551 137.077 24.6401 141.767 26.2481C145.225 27.5581 145.197 30.4781 144.679 31.9181C144.026 33.7321 142.891 35.4051 137.695 36.7301C137.695 36.7301 144.589 35.4921 143.8 41.4121C143.8 41.4121 143.235 54.0651 117.785 51.6251C117.923 51.5381 130.398 29.8781 130.365 29.9371ZM76.055 34.8311C76.061 34.8191 80.373 34.8311 80.373 34.8311C80.373 34.8431 82.698 34.8211 82.698 34.8211C81.588 36.7411 76.273 45.8911 75.558 47.1241C75.444 47.4301 75.363 47.7081 75.305 47.9561C75.273 48.1541 75.255 48.3331 75.255 48.4911C75.255 49.2011 75.552 49.5651 75.855 49.7541C76.91 50.4101 79.145 49.4861 81.169 47.5541L81.195 47.5311C81.195 47.5311 82.813 44.9261 82.825 44.9151C84.4 42.0751 87.927 36.2551 88.635 35.0891H95.305L95.262 35.1311H95.368C95.344 35.1631 95.298 35.2261 95.221 35.3111L88.263 47.3341L88.255 47.3611C88.105 47.8411 88.045 48.2391 88.045 48.5591C88.045 49.2691 88.34 49.6351 88.641 49.8251C91.026 50.4111 95.278 46.5771 96.171 45.7391C99.001 40.9051 102.269 35.3191 102.327 35.2191C102.583 35.2061 108.097 35.2521 108.873 35.2191C108.579 35.7791 107.307 38.0811 107.307 38.0811L108.803 37.0881C108.888 37.0401 112.359 35.0151 115.013 34.9401C115.443 34.9271 115.997 34.9301 116.367 34.9301C117.099 34.9301 117.427 35.7151 117.707 36.3701C118.293 37.7341 117.9 39.9301 116.63 42.3901C116.114 43.3921 115.586 44.2471 115.16 44.9351C114.408 46.1511 113.955 46.8821 114.13 47.4201C114.196 47.6281 114.352 47.7851 114.597 47.8841L114.625 47.8941L114.657 47.9001C115.827 48.0701 117.257 46.7771 119.613 43.3601C120.076 43.3601 120.201 43.3501 120.711 43.3501C120.567 44.0101 119.137 45.5281 119.131 45.5601C118.286 47.1101 114.243 51.0141 111.058 52.3731L111.878 52.2391C109.503 52.8691 107.958 52.2411 107.958 52.2411C107.338 52.0041 107.088 51.6081 106.968 51.2611C106.521 49.9531 107.508 47.2211 109.896 43.1571C111.626 40.2231 111.304 39.0671 110.734 38.6121C109.794 37.8621 107.667 38.6961 105.677 40.5861L105.654 40.6101L104.134 43.0501C102.629 45.7651 99.204 51.4101 98.676 52.2801C98.419 52.2821 92.886 52.6731 92.109 52.6831C92.245 52.4491 93.131 50.9331 94.329 48.8861L90.58 51.4001L90.565 51.4101C90.542 51.4321 88.377 53.2771 84.981 53.7481C84.701 53.7881 84.051 53.7451 83.827 53.7481C83.313 53.7551 82.357 53.6781 81.631 53.1111C81.063 52.6711 80.729 52.0041 80.635 51.1281L80.588 50.6841L80.553 49.6741C80.146 50.0541 77.783 51.5321 77.768 51.5371C77.728 51.5621 76.891 52.0511 75.721 52.5731C75.621 52.6171 75.521 52.6631 75.417 52.7071C75.402 52.7111 75.384 52.7171 75.369 52.7251C75.291 52.7571 75.216 52.7901 75.135 52.8221L74.285 53.5671C72 54.7731 69.8 53.7001 69.8 53.7001C65.878 51.8171 69.45 46.0781 69.997 45.0641C70.544 44.0481 74.777 36.8381 76.054 34.8311H76.055ZM52.39 30.0041C49.15 31.3901 46.978 32.4441 45.216 34.8981L44.402 39.3421H42.98C38.94 25.4401 61.82 22.6401 68.41 24.8761C73.268 26.6961 73.228 30.7581 72.5 32.7561C71.583 35.2821 68.585 38.4541 62.688 39.4501C66.05 39.3581 69.602 39.7041 66.89 43.8441C58.6 56.5021 71.167 58.9271 76.12 55.2471C67.987 65.5601 49.34 63.1031 56.873 47.6601C61.046 39.1101 58.963 40.1401 55.238 40.7521C53.738 41.0021 53.793 41.0291 53.793 41.0291C52.159 44.2191 46.091 57.5771 46.088 57.5661C46.048 57.4341 38.508 58.9491 35.632 59.5511C35.826 59.4311 52.437 29.9211 52.392 30.0011L52.39 30.0041ZM32.47 76.9661C24.464 76.9661 23.074 72.3661 23.074 72.3661C23.074 72.3661 28.164 75.2161 34.41 72.7111C41.774 69.7561 44.534 72.4551 44.534 72.4551C42.074 72.2121 36.782 76.9671 32.469 76.9671L32.47 76.9661ZM179.714 42.8661C179.514 44.8831 178.586 46.0391 177.517 46.6861C176.59 49.2591 176.961 48.1281 175.172 51.1461C173.646 51.7561 175.432 54.9931 145.452 60.1391C133.415 62.2041 64.318 75.0091 64.318 75.0091C58.92 76.0031 56.043 75.3091 56.043 75.3091C61.227 73.8391 60.435 71.9331 64.781 70.5091C64.781 70.5091 62.984 69.3191 58.883 71.9351C52.367 77.0201 47.788 73.1711 47.788 73.1711C61.438 69.3141 59.855 65.7311 57.526 66.6711C51.244 70.9811 44.522 70.9811 41.776 69.7541C39.009 68.5141 33.726 70.2381 33.726 70.2381C38.414 64.5581 45.583 68.7811 44.741 65.8481C43.896 62.9021 25.246 68.8701 25.246 68.8701C27.764 62.1001 42.77 59.9551 42.77 59.9551C44.817 59.5451 48.737 59.1221 53.922 58.6931C55.342 60.8961 59.016 64.1761 65.844 63.6451C74.612 62.9651 77.779 57.9691 78.337 57.2851C78.407 57.2031 78.467 57.1251 78.533 57.0451C102.389 55.6551 131.523 54.2821 146.325 53.1381L157.335 52.2721C163.355 51.8071 168.86 50.9941 168.86 50.9941C172.6 50.6381 173.972 48.9561 174.14 48.5981C173.502 48.8051 172.753 48.9581 172.002 48.9751C171.935 48.9881 171.869 49.0031 171.802 49.0131C171.182 49.0131 170.704 48.9881 170.158 48.9881C168.18 48.9881 167.694 46.5541 167.694 46.5541L167.819 46.4391C167.732 46.4911 167.666 46.5291 167.664 46.5441C167.091 47.0081 166.52 47.3021 165.976 47.4881C163.972 48.9141 162.616 49.3641 161.269 49.3781C159.239 49.4001 158.027 47.8381 158.469 45.8231C158.515 45.6111 158.572 45.3891 158.634 45.1631C157.851 45.7511 156.41 46.6201 156.41 46.6551C154.636 48.4191 152.932 49.3951 151.455 49.8871C151.192 49.9741 150.062 50.1971 149.812 50.2571C149.159 50.3441 149.159 50.3441 148.266 50.3171C145.732 50.3171 144.66 48.3211 144.66 46.8791C144.655 43.4421 146.8 40.1691 149.468 37.9491C151.708 36.0861 153.762 35.2791 155.352 35.2411C155.777 35.2311 156.438 35.1711 156.792 35.2641C158.139 35.6221 158.655 36.8041 158.586 38.3001C158.422 41.7301 154.476 45.0661 149.084 45.4641C148.586 46.8191 149.454 47.6411 150.15 47.7741C150.973 47.9341 157.88 45.1101 160.01 41.6441C160.845 39.8701 161.926 37.8781 163.118 35.7241H160.43L160.917 34.8671H163.597C164.395 33.4151 165.162 31.9471 165.93 30.4371L170.436 30.5071C169.569 32.1311 168.848 33.4371 168.07 34.8931H170.76L170.46 35.5681H167.793C166.235 38.4741 164.953 40.8841 164.013 42.8081L164.046 42.8181C162.154 46.7801 162.883 47.1761 163.193 47.3381C163.195 47.3401 163.199 47.3401 163.201 47.3411C163.516 47.2931 163.901 47.2051 164.321 47.0761C165.291 46.6491 166.688 45.7861 167.931 44.7091C168.171 43.9311 169.033 41.7371 171.211 41.1361L171.209 41.1291C171.209 41.1291 174.029 37.7461 175.196 36.3691C175.761 35.7721 176.176 35.2711 177.116 35.2641C177.482 35.2461 177.556 35.2361 178.118 35.2711C178.118 35.2711 178.318 36.8361 178.468 38.6261C179.213 40.0631 179.821 41.8131 179.715 42.8661H179.714Z" fill="black"/>
<path fill-rule="evenodd" clip-rule="evenodd" d="M173.8 41.1132L173.857 41.1872C174.022 41.2352 174.181 41.2912 174.331 41.3572C174.381 41.3672 174.436 41.3772 174.503 41.3922C175.063 41.5162 175.61 41.6702 176.075 41.9122C176.215 40.5822 176.195 39.4792 176.149 38.7622C175.256 39.6202 174.134 40.7582 173.799 41.1122L173.8 41.1132ZM173.427 42.5152C173.154 42.5812 172.967 42.6582 172.967 42.6582C173.56 45.0582 170.947 45.7112 170.947 45.7112C171.011 46.1812 171.507 46.4812 171.86 46.6382C172.815 46.6282 174.56 46.1962 174.587 44.1022C174.497 43.0482 173.985 42.6402 173.427 42.5172V42.5152Z" fill="black"/>
</svg>
