<svg xmlns="http://www.w3.org/2000/svg" focusable="false" role="img" viewBox="0 0 200 100" fill="currentColor">
  <path fill-rule="evenodd" d="M14 29h172v42H14V29zm15.906 27.876c1.498.318 2.812.476 3.942.476 1.707 0 3.047-.371 4.018-1.114.971-.742 1.457-1.767 1.457-3.075 0-.92-.258-1.701-.772-2.342-.514-.642-1.45-1.343-2.809-2.105l-1.009-.562c-.755-.425-1.27-.783-1.542-1.075a1.446 1.446 0 01-.41-1.02c0-.469.196-.848.586-1.137.39-.289.91-.433 1.557-.433.837 0 1.977.27 3.418.81V43.04c-1.41-.323-2.676-.485-3.8-.485-1.402 0-2.53.352-3.384 1.057-.854.704-1.28 1.638-1.28 2.8 0 .869.26 1.629.78 2.28.52.65 1.412 1.33 2.675 2.042l.943.523c.762.432 1.28.805 1.552 1.12.273.313.41.7.41 1.156 0 .578-.218 1.035-.653 1.371-.434.337-1.03.505-1.785.505-1.079 0-2.377-.317-3.894-.952v2.418zm20.142-.228v-1.98c-1.187.437-2.253.656-3.199.656-2 0-3.094-.996-3.285-2.99h6.484c0-2.088-.352-3.615-1.056-4.58-.705-.964-1.822-1.447-3.352-1.447-1.517 0-2.737.494-3.661 1.481-.924.987-1.385 2.29-1.385 3.909 0 1.713.504 3.065 1.514 4.056 1.009.99 2.386 1.485 4.132 1.485 1.2 0 2.47-.197 3.808-.59zm-6.522-5.904c.184-1.783.86-2.675 2.028-2.675 1.15 0 1.724.892 1.724 2.675h-3.752zM52.662 57h2.818v-6.636c.705-1.137 1.619-1.705 2.743-1.705.342 0 .714.073 1.114.22v-2.514a2.406 2.406 0 00-.524-.058c-1.492 0-2.603.737-3.333 2.21v-1.972h-2.818V57zm11.145 0h2.818l4.028-10.455h-2.038l-2.904 7.541-2.923-7.54h-2.97L63.806 57zm8.688 0h2.819V46.545h-2.819V57zm0-12.216h2.819v-2.352h-2.819v2.352zM86.25 56.772V54.82c-.895.368-1.765.552-2.61.552-.926 0-1.667-.33-2.222-.99-.556-.66-.834-1.54-.834-2.638 0-1.073.258-1.933.772-2.58.514-.648 1.193-.971 2.037-.971.692 0 1.616.187 2.771.561v-2.037c-1.11-.273-2.091-.41-2.942-.41-1.758 0-3.136.483-4.132 1.448-.997.964-1.495 2.3-1.495 4.008 0 1.689.484 3.023 1.452 4.004.968.98 2.287 1.471 3.956 1.471.997 0 2.079-.155 3.247-.466zm10.878-.124v-1.98c-1.187.437-2.253.656-3.2.656-1.999 0-3.094-.996-3.284-2.99h6.484c0-2.088-.352-3.615-1.057-4.58-.704-.964-1.822-1.447-3.351-1.447-1.517 0-2.738.494-3.661 1.481-.924.987-1.386 2.29-1.386 3.909 0 1.713.505 3.065 1.514 4.056 1.01.99 2.387 1.485 4.132 1.485 1.2 0 2.47-.197 3.81-.59zm-6.522-5.904c.184-1.783.86-2.675 2.028-2.675 1.149 0 1.723.892 1.723 2.675h-3.751zm15.315 6.608c2.241 0 4.007-.663 5.299-1.99 1.292-1.326 1.937-3.139 1.937-5.437 0-2.246-.645-4.037-1.937-5.37-1.292-1.333-3.026-2-5.204-2-2.19 0-3.929.667-5.217 2-1.29 1.333-1.933 3.133-1.933 5.4 0 2.24.64 4.033 1.923 5.379 1.282 1.345 2.993 2.018 5.132 2.018zm.038-1.942c-1.193 0-2.155-.5-2.885-1.5s-1.095-2.321-1.095-3.965c0-1.657.367-2.98 1.1-3.97.733-.991 1.712-1.486 2.937-1.486 1.213 0 2.187.495 2.923 1.485.737.99 1.105 2.304 1.105 3.942 0 1.689-.367 3.026-1.1 4.013-.733.987-1.728 1.48-2.985 1.48zm9.536 1.59h2.818v-6.58c.825-1.263 1.686-1.894 2.581-1.894.787 0 1.18.593 1.18 1.78V57h2.819v-7.389c0-1.022-.27-1.828-.81-2.418-.539-.59-1.276-.886-2.209-.886-1.453 0-2.64.737-3.561 2.21v-1.972h-2.818V57zm17.895-.057v-1.714a3.47 3.47 0 01-.866.133c-1.047 0-1.571-.64-1.571-1.923v-5.132h2.237v-1.762h-2.237V44.46l-2.818.324v1.761h-1.172v1.762h1.172v5.503c0 2.285 1.221 3.428 3.665 3.428.388 0 .918-.098 1.59-.295zm7.337-1.066h.123c.33.907 1.073 1.361 2.228 1.361.457 0 .984-.089 1.581-.267l-.067-1.58a2.354 2.354 0 01-.371.038c-.527 0-.79-.41-.79-1.228v-4.628c0-2.177-1.368-3.266-4.104-3.266-1.251 0-2.514.242-3.79.724v1.942c1.124-.622 2.235-.933 3.333-.933 1.238 0 1.857.543 1.857 1.629v.952h-.753c-1.72 0-3.042.312-3.965.938-.924.625-1.386 1.515-1.386 2.67 0 .889.286 1.613.857 2.171.572.559 1.314.838 2.228.838 1.073 0 2.079-.454 3.019-1.361zm0-1.515c-.692.642-1.368.962-2.028.962-.388 0-.713-.131-.976-.395a1.325 1.325 0 01-.396-.976c0-1.143.911-1.714 2.733-1.714h.667v2.123zM146.767 57h2.818v-6.636c.705-1.137 1.619-1.705 2.742-1.705.343 0 .715.073 1.114.22v-2.514a2.395 2.395 0 00-.523-.058c-1.492 0-2.603.737-3.333 2.21v-1.972h-2.818V57zm8.564 0h2.819V46.545h-2.819V57zm0-12.216h2.819v-2.352h-2.819v2.352zm10.431 12.454c1.708 0 3.047-.486 4.018-1.457.971-.97 1.457-2.313 1.457-4.027 0-1.676-.484-3.003-1.452-3.98-.968-.978-2.287-1.467-3.956-1.467-1.663 0-2.979.49-3.947 1.467-.968.977-1.452 2.31-1.452 3.999 0 1.67.481 2.997 1.443 3.984.961.988 2.258 1.481 3.889 1.481zm.048-1.761c-.737 0-1.317-.334-1.743-1-.425-.667-.638-1.568-.638-2.704 0-1.15.215-2.054.643-2.714.429-.66 1.014-.99 1.757-.99.749 0 1.338.33 1.766.99.429.66.643 1.558.643 2.695 0 2.482-.81 3.723-2.428 3.723z" clip-rule="evenodd"/>
</svg>
