<svg xmlns="http://www.w3.org/2000/svg" focusable="false" role="img" viewBox="0 0 200 100" fill="currentColor">
  <path fill-rule="evenodd" d="M60.284 53c.31.515.463 1.142.463 1.882v.062c0 .864-.153 1.615-.463 2.253A4.394 4.394 0 0159 58.785c-.546.424-1.19.742-1.933.957a8.45 8.45 0 01-2.38.324c-1.177 0-2.367-.208-3.573-.625a11.37 11.37 0 01-3.356-1.842l1.67-2.54c.887.658 1.788 1.158 2.707 1.498.917.34 1.797.51 2.644.51.803 0 1.425-.16 1.87-.48.443-.317.665-.742.665-1.28v-.06c0-.308-.1-.576-.295-.802a2.463 2.463 0 00-.803-.587 9.122 9.122 0 00-1.175-.462c-.444-.145-.903-.29-1.377-.432a22.21 22.21 0 01-1.81-.586 6.633 6.633 0 01-1.64-.88 4.425 4.425 0 01-1.19-1.342c-.308-.535-.463-1.193-.463-1.975v-.063c0-.76.15-1.45.448-2.067.3-.617.712-1.142 1.238-1.574a5.537 5.537 0 011.856-.987 7.423 7.423 0 012.273-.34c1.03 0 2.072.166 3.124.5 1.052.332 2.01.79 2.877 1.374l-1.484 2.67a12.462 12.462 0 00-2.382-1.127c-.803-.28-1.546-.417-2.226-.417-.722 0-1.284.153-1.686.462-.4.31-.603.7-.603 1.17v.064c0 .288.104.54.31.756.205.217.48.412.82.588.34.174.73.338 1.174.492.443.155.9.304 1.375.448.6.185 1.196.4 1.794.648.598.247 1.14.55 1.623.91.485.36.882.798 1.19 1.31l.002.002zm21.85-9.913c-1.24 0-2.31.266-3.21.796-.9.53-1.68 1.233-2.34 2.106a5.258 5.258 0 00-1.867-2.107c-.81-.53-1.803-.796-2.973-.796-.618 0-1.18.08-1.682.235-.504.156-.957.37-1.357.64s-.754.572-1.063.905c-.31.332-.596.686-.864 1.06v-2.5h-3.772v16.33h3.772v-9.164c0-1.275.318-2.273.955-2.993.636-.72 1.477-1.08 2.525-1.08 1.046 0 1.857.34 2.43 1.02.577.677.864 1.655.864 2.93v9.287h3.773v-9.195c0-1.316.323-2.32.97-3.008.647-.69 1.482-1.034 2.51-1.034 1.047 0 1.856.34 2.432 1.02.574.677.862 1.664.862 2.96v9.257h3.772V49.334c0-1.998-.508-3.54-1.52-4.624-1.013-1.082-2.42-1.623-4.218-1.623h.001zm20.645 1.902c1.174 1.205 1.762 2.9 1.762 5.087v9.68h-3.712v-2.01c-.556.66-1.268 1.216-2.133 1.67-.868.454-1.92.68-3.157.68a7.486 7.486 0 01-2.226-.325 5.507 5.507 0 01-1.84-.957 4.775 4.775 0 01-1.267-1.578c-.32-.63-.48-1.356-.48-2.18v-.063c0-.907.164-1.696.494-2.366.332-.67.79-1.226 1.378-1.67.588-.443 1.287-.773 2.103-.99a10.256 10.256 0 012.645-.324c.99 0 1.83.062 2.52.186.692.123 1.356.29 1.995.494v-.308c0-1.134-.345-2-1.035-2.598-.692-.6-1.686-.898-2.984-.898-.928 0-1.753.092-2.474.28-.723.185-1.453.432-2.197.74l-1.02-3c.907-.412 1.834-.74 2.783-.99.948-.246 2.09-.37 3.433-.37 2.433 0 4.237.603 5.413 1.81h-.001zm-1.858 7.932a9.515 9.515 0 00-1.685-.464 11.032 11.032 0 00-2.056-.186c-1.175 0-2.093.228-2.752.68-.66.455-.99 1.072-.99 1.857v.06c0 .784.304 1.38.913 1.794.61.414 1.356.62 2.243.62.618 0 1.19-.083 1.715-.248a4.386 4.386 0 001.377-.697c.392-.298.696-.66.913-1.082.216-.424.324-.89.324-1.408v-.928l-.002.002zm10.298-5.814v-3.68h-3.772v16.33h3.772V53.54c0-1.07.134-2.015.404-2.83.267-.813.65-1.488 1.144-2.025a4.706 4.706 0 011.762-1.205c.682-.27 1.434-.403 2.26-.403h.216V43.12c-1.444-.064-2.64.277-3.588 1.02-.95.742-1.68 1.73-2.198 2.968v-.001zm12-8.165h-3.772v4.485h-2.072v3.215h2.072v8.6c0 .906.114 1.664.343 2.272.23.61.556 1.098.983 1.47.425.37.93.638 1.513.803a6.92 6.92 0 001.894.248c.7 0 1.32-.072 1.854-.217a6.424 6.424 0 001.517-.62V56.14a5.095 5.095 0 01-2.32.557c-.638 0-1.134-.16-1.483-.48-.35-.318-.526-.84-.526-1.56v-8.012h4.393V43.43h-4.392v-4.485l-.004-.003zm16.593 12.746a7.519 7.519 0 00-1.624-.912c-.6-.247-1.196-.463-1.795-.648a35.346 35.346 0 01-1.376-.448 9.373 9.373 0 01-1.177-.492 3.065 3.065 0 01-.82-.588 1.07 1.07 0 01-.308-.756v-.063c0-.47.202-.862.604-1.17.4-.31.962-.463 1.684-.463.68 0 1.423.138 2.228.417.803.278 1.597.653 2.38 1.128l1.485-2.67a11.094 11.094 0 00-2.877-1.376c-1.05-.334-2.09-.5-3.123-.5-.805 0-1.562.113-2.273.34-.71.225-1.33.554-1.856.986-.525.432-.94.957-1.237 1.574-.298.618-.447 1.306-.447 2.067v.063c0 .782.154 1.44.464 1.975.31.534.704.982 1.19 1.34.483.362 1.03.655 1.64.882.608.226 1.21.42 1.808.586.475.143.933.287 1.376.432.446.143.837.298 1.177.462.342.165.608.36.804.587.196.226.295.494.295.803v.06c0 .537-.222.962-.665 1.28-.443.32-1.067.48-1.872.48-.845 0-1.726-.17-2.643-.51-.92-.34-1.82-.84-2.706-1.5l-1.672 2.54c1.03.812 2.15 1.428 3.355 1.844 1.207.418 2.398.626 3.574.626a8.44 8.44 0 002.38-.324c.742-.215 1.387-.533 1.934-.957.546-.42.975-.95 1.285-1.588.31-.638.463-1.39.463-2.253v-.062c0-.74-.154-1.367-.463-1.883a4.544 4.544 0 00-1.192-1.31v.001zm4.13 8.067h3.772V37.18h-3.772v22.577-.002zm7.144-18.834h4.05v-3.557h-4.05v3.557zm.154 18.834h3.775v-16.33h-3.774v16.33h-.001zm23.32-11.814c.434 1.052.65 2.257.65 3.618v.064c0 1.36-.212 2.567-.632 3.618-.423 1.05-.99 1.937-1.698 2.66a7.169 7.169 0 01-2.438 1.638 7.464 7.464 0 01-2.823.557c-1.337 0-2.45-.288-3.333-.865-.885-.578-1.615-1.247-2.19-2.01v7.484h-3.774V43.428h3.773v2.722a8.189 8.189 0 012.22-2.182c.887-.587 1.988-.88 3.303-.88.967 0 1.9.185 2.808.556.904.37 1.71.917 2.422 1.64.71.72 1.28 1.608 1.71 2.66l.002-.003zm-3.123 3.618c0-.782-.123-1.5-.373-2.147a4.993 4.993 0 00-1.004-1.655 4.365 4.365 0 00-1.484-1.05 4.438 4.438 0 00-1.81-.374 4.558 4.558 0 00-3.339 1.439 5.28 5.28 0 00-1.037 1.654c-.257.64-.386 1.35-.386 2.134v.064c0 .782.13 1.5.386 2.148a5.06 5.06 0 001.037 1.655c.433.454.937.804 1.515 1.052.577.246 1.186.37 1.825.37a4.508 4.508 0 003.293-1.408c.422-.442.757-.988 1.004-1.638.25-.65.373-1.376.373-2.18v-.064zM188.694 53a4.537 4.537 0 00-1.19-1.31 7.542 7.542 0 00-1.624-.912 20.93 20.93 0 00-1.794-.648 34.8 34.8 0 01-1.376-.448 9.275 9.275 0 01-1.175-.492 3.018 3.018 0 01-.82-.588 1.056 1.056 0 01-.31-.756v-.063c0-.47.202-.862.605-1.17.4-.31.962-.463 1.683-.463.682 0 1.423.138 2.228.417.806.278 1.6.653 2.384 1.128l1.484-2.67a11.125 11.125 0 00-2.877-1.376c-1.05-.334-2.092-.5-3.123-.5-.804 0-1.562.113-2.273.34-.71.225-1.33.554-1.855.986-.527.432-.94.957-1.24 1.574-.298.618-.448 1.306-.448 2.067v.063c0 .782.156 1.44.466 1.975.308.534.705.982 1.19 1.34.484.362 1.03.655 1.64.882.606.226 1.21.42 1.808.586a60.2 60.2 0 011.375.432c.446.143.838.298 1.177.462.34.165.608.36.805.587.195.226.294.494.294.803v.06c0 .537-.222.962-.665 1.28-.444.32-1.067.48-1.87.48-.845 0-1.73-.17-2.645-.51-.917-.34-1.82-.84-2.705-1.5l-1.672 2.54a11.424 11.424 0 003.356 1.844c1.207.418 2.397.626 3.572.626.847 0 1.64-.107 2.382-.324.742-.215 1.387-.533 1.934-.957.544-.42.973-.95 1.282-1.588.31-.638.465-1.39.465-2.253v-.062c0-.74-.156-1.367-.466-1.883l-.002.001zM38.698 40.378c-.548-3.86-6.575-7.62-13.928-7.62-7.354 0-13.38 3.76-13.93 7.62v19.29c.55 4.502 6.576 7.62 13.93 7.62 7.353 0 13.38-3.118 13.928-7.62v-19.29zm-22.298.55c0-2.356 3.366-4.067 7.973-4.067 3.243 0 5.97.598 8.567 1.886.064.032.13.04.18.04v6.17c0 .027.124.054.1.08-.047.048-.06.085-.147.085a.3.3 0 01-.157-.043c-2.598-1.286-5.296-1.883-8.54-1.883-2.097 0-3.923.354-5.302.963l-.266-.116c-.144-.064-.3-.13-.43-.198-1.354-.712-1.978-1.595-1.978-2.86v-.057zm-.643 7.473v-6.277c0 1.285.72 2.222 2.082 2.953.128.07.308.136.45.202.088.04.2.08.292.12 1.456.614 3.604 1.1 6.508 1.48 3.392.438 5.485.973 6.844 1.68 1.33.692 1.828 1.59 1.828 2.83v.053c0 1.18-.663 2.203-2.005 2.95-.135.077-.215.15-.36.22-1.382-.572-3.4-1.022-6.328-1.4-3.393-.442-5.81-1.032-7.247-1.802-1.36-.73-2.066-1.67-2.066-2.954V48.4l.002.001zm18.648 10.194v.053c0 1.315-.776 2.448-2.36 3.28-1.598.84-3.848 1.303-6.39 1.303-4.026 0-7.216-.773-10.49-2.503-.02-.01-.052-.062-.052-.124v-6.25c.018.02.033.037.042.042 3.273 1.73 6.516 2.503 10.544 2.503 2.372 0 4.51-.403 6.086-1.14.11-.053.216-.108.322-.16.033-.02.003-.038.036-.055 1.52-.827 2.26-1.94 2.26-3.228v6.28l.002-.001z" clip-rule="evenodd"/>
</svg>
