<svg width="200" height="100" viewBox="0 0 200 100" fill="none" xmlns="http://www.w3.org/2000/svg">
<path fill-rule="evenodd" clip-rule="evenodd" d="M149.104 51.236C151.092 50.166 177.951 35.689 177.951 35.689L149.081 35.732L149.063 23.824L111.393 23.882L100.336 0.23999L98.446 4.30999L96.556 8.37799L89.346 23.916L51.676 23.973L51.696 35.88L22.824 35.924L51.719 51.384L51.754 74.694L65.79 74.674L54.246 99.548C54.246 99.548 98.642 76.968 100.448 76.051L146.722 99.409L135.102 74.569L149.139 74.549L149.103 51.237L149.104 51.236ZM131.72 72.49L142.168 94.828C142.168 94.828 102.138 74.621 100.338 73.714L58.574 94.954L68.954 72.586L53.734 72.609C53.734 72.609 53.704 52.346 53.699 50.135L31.005 37.995L53.68 37.96C53.677 35.124 53.663 26.053 53.663 26.053L90.575 25.997L98.345 9.25299L100.235 5.18499L109.957 25.968L146.87 25.912L146.888 37.82L169.563 37.785L146.906 49.995L146.941 72.468L131.721 72.491L131.72 72.49Z" fill="black"/>
<path fill-rule="evenodd" clip-rule="evenodd" d="M79.148 39.3801C79.378 38.7131 79.512 37.9481 79.51 37.2801C79.51 36.3101 79.295 35.1861 78.703 35.1101L78.71 40.2501C78.807 40.1501 78.976 39.8731 79.148 39.3801ZM103.58 50.9081C103.727 50.8121 103.798 50.3661 103.797 49.5541C103.797 48.7421 103.724 48.2971 103.577 48.2011L103.581 50.9091L103.58 50.9081ZM94.2 55.9821C94.11 56.5951 94.07 57.6741 94.07 59.4821C94.077 63.0661 94.245 63.6971 94.596 63.6971C94.948 63.6971 95.116 63.0671 95.11 59.4791C95.104 55.8931 94.936 55.2621 94.585 55.2621C94.442 55.2621 94.297 55.3501 94.201 55.9821H94.2ZM106.772 55.4301L106.78 60.5501C107.105 60.1901 107.582 59.0481 107.58 57.5851C107.578 56.1671 107.183 55.4951 106.772 55.4311V55.4301Z" fill="black"/>
<path fill-rule="evenodd" clip-rule="evenodd" d="M110.656 49.287C110.189 47.425 104.934 46.063 100.211 46.063H100.167C97.3769 46.067 94.7149 46.467 92.6739 47.19C90.9539 47.8 89.8939 48.562 89.6889 49.32L90.2359 49.526L89.6659 49.744C89.9519 51.661 95.3199 53.076 100.133 53.076H100.178C102.968 53.071 105.628 52.671 107.67 51.949C109.47 51.309 110.552 50.503 110.68 49.712L110.108 49.495L110.656 49.285V49.287ZM96.8619 51.385L96.7239 50.702H96.2039L96.0689 51.386H95.5209V50.962H95.6459L96.2859 47.732L96.9389 47.73L97.5869 50.96H97.7129V51.383L96.8609 51.385H96.8619ZM101.109 51.392H100.494L99.6769 49.488L99.6789 50.956H99.7929V51.38H99.0729L99.0709 50.957H99.1849L99.1809 48.165H99.0669V47.74H99.7939L100.611 49.64L100.609 48.163H100.495V47.738H101.215L101.217 48.161L101.103 48.163L101.108 51.393L101.109 51.392ZM104.272 51.026C104.052 51.264 103.745 51.376 103.312 51.376H102.652V50.952H102.767L102.763 48.159H102.649V47.734H103.306C104.254 47.734 104.676 48.294 104.678 49.552C104.678 50.249 104.545 50.732 104.271 51.025L104.272 51.026ZM81.3679 55.468L81.3759 60.608C81.4719 60.508 81.6409 60.231 81.8129 59.738C82.0449 59.071 82.1769 58.306 82.1759 57.638C82.1739 56.668 81.9599 55.544 81.3679 55.468Z" fill="black"/>
<path fill-rule="evenodd" clip-rule="evenodd" d="M144.815 48.7539L161.28 39.8809L144.8 39.9069L144.783 27.9989L108.627 28.0539L100.242 10.1289L100.137 10.3549L91.9119 28.0789L55.7549 28.1339L55.7729 40.0419L39.2949 40.0679L55.7869 48.8909L55.8199 70.5229L72.2259 70.4979L63.0059 90.3619L100.336 71.3789L137.72 90.2489L128.442 70.4139L144.848 70.3899L144.815 48.7559V48.7539ZM59.6599 31.6919L63.1429 31.6869L63.1479 35.1589L59.6659 35.1629L59.6599 31.6909V31.6919ZM59.7139 66.9219L59.7089 63.4489C60.2389 63.4469 62.6589 63.4439 63.1889 63.4429L63.1959 66.9149L59.7129 66.9199L59.7139 66.9219ZM65.5709 48.7219L66.0359 47.4519L66.1059 47.5069C66.4659 47.7899 66.9279 47.9269 67.5209 47.9269C67.8759 47.9269 68.1749 47.7669 68.3939 47.4669C68.6189 47.1569 68.7379 46.7269 68.7369 46.2239C68.7339 44.5039 68.1809 43.4939 67.1219 41.7089C66.1169 40.0109 65.7249 38.7389 65.7219 37.1689C65.7189 34.6569 66.9379 33.0319 68.8289 33.0289C69.4129 33.0289 70.0349 33.2239 70.4549 33.5389L70.4809 33.5569L70.4829 35.6469L69.3529 35.6489L69.1929 34.5519C69.1079 34.5239 69.0109 34.5079 68.8349 34.5079C68.3509 34.5079 67.9319 35.1979 67.9329 35.9809C67.9349 37.2129 68.4369 38.1909 69.5009 39.9759C70.6109 41.8379 71.0229 43.1809 71.0259 44.9299C71.0279 46.3139 70.6859 47.4649 70.0329 48.2579C69.4169 49.0079 68.5679 49.4029 67.5779 49.4039H67.5709C66.7909 49.4039 66.1669 49.1959 65.6079 48.7489L65.5719 48.7209L65.5709 48.7219ZM71.3579 64.6459C70.7419 65.2999 69.8939 65.6459 68.9049 65.6479H68.8969C68.1189 65.6479 67.4969 65.4659 66.9389 65.0759L66.8959 65.0459L67.3659 63.9259L67.4309 63.9719C67.7909 64.2189 68.2549 64.3399 68.8509 64.3399C69.2049 64.3399 69.5049 64.1999 69.7239 63.9369C69.9479 63.6689 70.0659 63.2969 70.0639 62.8599C70.0639 61.3629 69.5109 60.4799 68.4539 58.9249C67.4459 57.4409 67.0539 56.3279 67.0509 54.9549C67.0509 53.8699 67.3389 52.9579 67.8869 52.3149C68.4369 51.6719 69.2239 51.3299 70.1589 51.3289C70.7409 51.3289 71.3609 51.4989 71.7809 51.7709L71.8109 51.7909L71.8129 53.6309L70.6829 53.6329L70.5229 52.6749C70.4389 52.6499 70.3429 52.6349 70.1659 52.6349C69.9399 52.6349 69.7159 52.7699 69.5459 53.0029C69.3619 53.2499 69.2619 53.5749 69.2629 53.9159C69.2629 54.9859 69.7649 55.8389 70.8279 57.3959C71.9379 59.0259 72.3519 60.1999 72.3549 61.7309C72.3569 62.9429 72.0119 63.9509 71.3579 64.6449V64.6459ZM74.0279 31.9459L126.418 31.8659V32.6359L74.0279 32.7159V31.9459ZM122.878 43.1629H123.268L123.27 44.1329L120.416 44.1359L120.414 43.1659H120.804L120.791 34.9919H120.174L120.007 36.2859L119.043 36.2879L119.039 34.0249L124.617 34.0169L124.62 36.2789H123.654L123.484 34.9859L122.866 34.9879L122.878 43.1609V43.1629ZM120.172 63.5289H120.562L120.564 64.4969L117.711 64.5009L117.708 63.5309H118.098L118.085 55.3559H117.467L117.3 56.6509H116.335L116.331 54.3909L121.909 54.3809L121.913 56.6439H120.949L120.779 55.3519H120.159L120.172 63.5279V63.5289ZM112.284 50.3389C112.284 50.7489 111.95 51.0829 111.539 51.0829H111.537C111.274 51.0829 111.044 50.9459 110.911 50.7409C109.537 52.4709 105.248 53.7439 100.179 53.7509H100.132C95.0869 53.7509 90.8139 52.4929 89.4399 50.7709C89.3069 50.9789 89.0759 51.1179 88.8129 51.1179C88.4009 51.1179 88.0669 50.7839 88.0659 50.3739L88.0679 50.3519L87.0739 50.7319L87.0539 50.7239C87.0199 50.7119 83.6839 49.6019 81.5679 49.6019L81.5579 49.4719C83.6739 49.4699 87.0159 48.3459 87.0479 48.3339L87.0709 48.3269L88.0669 48.7019C88.0669 48.6949 88.0639 48.6879 88.0639 48.6799C88.0639 48.2699 88.3979 47.9359 88.8099 47.9349C89.0999 47.9349 89.3499 48.1029 89.4739 48.3449C90.8869 46.6389 95.1459 45.3909 100.169 45.3829H100.215C105.215 45.3829 109.458 46.6179 110.873 48.3129C110.996 48.0699 111.246 47.9009 111.537 47.8999C111.949 47.8999 112.284 48.2339 112.284 48.6439C112.284 48.6509 112.281 48.6579 112.281 48.6659L113.276 48.2859L113.298 48.2929C113.331 48.3029 116.668 49.4149 118.782 49.4149L118.792 49.5419C116.677 49.5459 113.335 50.6699 113.302 50.6819L113.279 50.6889L112.284 50.3119L112.286 50.3339L112.284 50.3389ZM106.788 64.5189L104.388 64.5219V63.5519H104.711L104.698 55.3759H104.374L104.372 54.4079L106.292 54.4039C108.02 54.4039 109.757 55.3819 109.762 57.5669C109.762 58.9569 109.298 60.0099 108.339 60.7869C108.761 61.3069 109.057 61.8009 109.244 62.2909C109.459 62.8159 109.506 63.1439 109.554 63.5409H109.886L109.888 64.5109L107.708 64.5149V64.4499C107.708 64.0239 107.676 63.4599 107.428 62.8849C107.226 62.3449 106.948 61.9749 106.784 61.7849L106.788 64.5149V64.5189ZM97.3809 59.4749C97.3849 62.9649 96.4759 64.6629 94.5989 64.6649H94.5939C92.7209 64.6649 91.8079 62.9699 91.8039 59.4829C91.7999 57.5589 92.0639 56.2079 92.6139 55.3529C93.0719 54.6409 93.7159 54.2929 94.5839 54.2929C96.4619 54.2929 97.3739 55.9879 97.3799 59.4749H97.3809ZM81.3809 63.5869H81.7049L81.7069 64.5569L78.9839 64.5599L78.9819 63.5919H79.3069L79.2949 55.4159H78.9709L78.9679 54.4459L80.8479 54.4439C82.9779 54.4439 84.3529 55.7059 84.3559 57.6589C84.3599 60.6669 81.8539 61.5009 81.3779 61.6309L81.3809 63.5869ZM76.6279 35.0569H76.3039V34.0889L78.1839 34.0859C80.3139 34.0859 81.6869 35.3479 81.6899 37.2999C81.6939 40.3099 79.1879 41.1439 78.7119 41.2749L78.7149 43.2299H79.0389V44.1999L76.3159 44.2029L76.3139 43.2329H76.6389L76.6259 35.0579L76.6279 35.0569ZM90.7539 43.2109H91.0779L91.0799 44.1809L88.3549 44.1839V43.2139H88.6779L88.6649 35.0389H88.3409V34.0709L91.0639 34.0659L91.0659 35.0359H90.7409L90.7539 43.2109ZM102.534 41.9409C102.747 42.4659 102.794 42.7939 102.844 43.1929H103.174L103.176 44.1609L100.996 44.1649V44.0999C100.996 43.6759 100.964 43.1139 100.716 42.5359C100.514 41.9959 100.236 41.6259 100.072 41.4359L100.077 44.1659L97.6769 44.1709V43.2009H97.9999L97.9879 35.0269H97.6639L97.6619 34.0569L99.5819 34.0549C101.309 34.0549 103.046 35.0349 103.05 37.2189C103.052 38.6089 102.587 39.6629 101.628 40.4389C102.05 40.9609 102.348 41.4539 102.534 41.9429V41.9409ZM112.17 43.1789H112.494V44.1469L109.772 44.1519L109.77 43.1819H110.095L110.083 35.0069H109.758V34.0369L112.48 34.0339L112.482 35.0039H112.157L112.169 43.1789H112.17ZM74.0799 66.6859V65.9159L126.467 65.8359L126.469 66.6059L74.0789 66.6859H74.0799ZM133.152 64.5529C132.536 65.2059 131.688 65.5529 130.699 65.5529H130.689C129.912 65.5529 129.289 65.3729 128.732 64.9829L128.689 64.9529L129.159 63.8329L129.223 63.8779C129.583 64.1259 130.048 64.2459 130.643 64.2459C130.998 64.2459 131.298 64.1059 131.517 63.8439C131.741 63.5739 131.859 63.2039 131.857 62.7659C131.857 61.2689 131.304 60.3879 130.247 58.8309C129.24 57.3479 128.847 56.2349 128.844 54.8609C128.844 53.7779 129.132 52.8659 129.68 52.2239C130.232 51.5789 131.018 51.2379 131.953 51.2359C132.535 51.2359 133.155 51.4059 133.575 51.6799L133.605 51.6979L133.607 53.5379L132.477 53.5399L132.317 52.5819C132.233 52.5579 132.137 52.5419 131.96 52.5419C131.734 52.5439 131.51 52.6769 131.34 52.9099C131.156 53.1579 131.056 53.4819 131.057 53.8229C131.059 54.8949 131.56 55.7459 132.622 57.3029C133.732 58.9329 134.147 60.1079 134.149 61.6379C134.149 62.8499 133.805 63.8579 133.151 64.5529H133.152ZM131.828 49.3089H131.822C131.042 49.3089 130.417 49.0989 129.858 48.6529L129.821 48.6229L130.288 47.3529L130.358 47.4089C130.716 47.6919 131.18 47.8289 131.774 47.8289C132.494 47.8289 132.99 47.1269 132.988 46.1259C132.986 44.4059 132.432 43.3959 131.373 41.6109C130.367 39.9139 129.975 38.6409 129.973 37.0709C129.971 35.8349 130.259 34.7939 130.805 34.0609C131.355 33.3239 132.142 32.9329 133.079 32.9309C133.663 32.9309 134.284 33.1259 134.705 33.4409L134.731 33.4609L134.734 35.5509H133.604L133.444 34.4549C133.359 34.4269 133.262 34.4099 133.086 34.4099C132.602 34.4119 132.183 35.0999 132.184 35.8859C132.186 37.1179 132.687 38.0939 133.752 39.8809C134.862 41.7439 135.276 43.0869 135.278 44.8359C135.282 47.5509 133.928 49.3059 131.83 49.3099L131.828 49.3089ZM137.408 31.5729L140.888 31.5679L140.894 35.0379L137.412 35.0439L137.407 31.5719L137.408 31.5729ZM137.46 66.8029L137.455 63.3299L140.937 63.3259L140.942 66.7989L137.46 66.8029Z" fill="black"/>
<path fill-rule="evenodd" clip-rule="evenodd" d="M96.2899 50.2801H96.6399L96.4639 49.3761L96.2889 50.2791L96.2899 50.2801ZM100.06 35.0801L100.07 40.1971C100.394 39.8391 100.872 38.6971 100.87 37.2341C100.867 35.8161 100.472 35.1441 100.06 35.0801Z" fill="black"/>
</svg>
