<svg width="200" height="100" viewBox="0 0 200 100" fill="none" xmlns="http://www.w3.org/2000/svg">
<path fill-rule="evenodd" clip-rule="evenodd" d="M155.45 60.0598C154.2 61.3218 152.905 62.2028 151.56 62.6938C150.557 63.0608 149.35 63.2488 147.95 63.2488C145.145 63.2488 142.83 62.2608 141.003 60.2888C139.018 58.1628 138.03 55.3388 138.03 51.8258C138.03 48.4058 138.99 45.5258 140.907 43.1808C142.737 40.9638 144.843 39.8488 147.219 39.8488C149.535 39.8488 151.395 40.7158 152.797 42.4388C153.952 43.8588 154.67 45.6318 154.945 47.7608L140.905 53.4908C141.181 55.5568 142.033 57.4058 143.46 59.0388C145.01 60.7968 146.666 61.6738 148.427 61.6738C149.522 61.6738 150.662 61.4068 151.845 60.8678C153.032 60.3238 153.925 59.6408 154.535 58.8078L155.449 60.0578L155.45 60.0598ZM151.886 46.1498C151.886 45.2578 151.396 44.2518 150.423 43.1398C149.323 41.8748 148.167 41.2398 146.946 41.2398C144.449 41.2398 142.711 42.3498 141.736 44.5738C141.003 46.2368 140.639 48.7838 140.639 52.2068L151.019 47.8638C151.593 47.6188 151.885 47.0438 151.885 46.1508L151.886 46.1498ZM168 42.6278C167.816 42.5678 167.62 42.5178 167.404 42.4858C167.191 42.4558 166.902 42.4408 166.538 42.4408C165.225 42.4408 164.188 42.7368 163.424 43.3208C162.3 44.1858 161.737 45.6338 161.737 47.6678V55.9448L161.965 62.9698H158.898L159.175 55.9438V44.8938C159.175 43.0438 158.975 41.5168 158.581 40.3158H161.281C161.584 41.3028 161.738 42.1798 161.738 42.9508V43.5988C162.371 41.8708 163.598 40.7488 165.413 40.2238C166.018 40.0708 166.881 39.9788 168.001 39.9478V42.6278H168ZM68.743 51.5068C68.743 54.6318 67.75 57.3368 65.773 59.6088C63.786 61.8828 61.573 63.0218 59.129 63.0218C57.239 63.0218 55.614 62.3878 54.252 61.1198L54.207 64.7898L54.39 71.9868H51.373L51.653 64.7898V47.2328L51.281 40.1728H54.209V42.3528C56.089 40.4678 58.111 39.5248 60.269 39.5248C62.679 39.5248 64.689 40.6208 66.312 42.8218C67.935 45.0198 68.745 47.9118 68.745 51.5068H68.743ZM65.958 51.4128C65.958 47.8508 65.288 45.1908 63.954 43.4258C62.804 41.9378 61.31 41.1958 59.477 41.1958C58.543 41.1958 57.597 41.5038 56.632 42.1258C55.668 42.7428 54.859 43.5788 54.21 44.6288V59.1198C54.703 59.8928 55.38 60.5078 56.235 60.9538C57.089 61.4038 57.953 61.6308 58.825 61.6308C60.813 61.6308 62.429 60.9028 63.675 59.4458C65.198 57.6808 65.958 55.0028 65.958 51.4108V51.4128ZM82.533 42.4958C82.35 42.4328 82.145 42.3898 81.931 42.3538C81.711 42.3258 81.419 42.3088 81.047 42.3088C79.717 42.3088 78.665 42.6028 77.891 43.1918C76.744 44.0588 76.173 45.5118 76.173 47.5578V55.8678L76.405 62.9278H73.293L73.573 55.8678V44.7758C73.573 42.9138 73.369 41.3838 72.965 40.1738H75.705C76.015 41.1658 76.173 42.0488 76.173 42.8238V43.4698C76.817 41.7358 78.061 40.6078 79.907 40.0828C80.52 39.9248 81.397 39.8328 82.534 39.8028V42.4958H82.533ZM101.988 51.6668C101.988 55.2968 101.044 58.1968 99.155 60.3728C97.421 62.3858 95.238 63.3928 92.608 63.3928C89.975 63.3928 87.778 62.3328 86.015 60.2098C84.248 58.0838 83.365 55.2198 83.365 51.6218C83.365 47.9918 84.248 45.1298 86.015 43.0368C87.778 40.9418 89.993 39.8948 92.653 39.8948C95.315 39.8948 97.539 40.9588 99.32 43.0818C101.097 45.2088 101.988 48.0718 101.988 51.6668ZM99.062 51.6668C99.062 48.2848 98.414 45.6788 97.119 43.8468C95.976 42.2348 94.464 41.4268 92.584 41.4268C90.734 41.4268 89.25 42.1748 88.141 43.6628C86.845 45.4328 86.198 48.0828 86.198 51.6228C86.198 55.1578 86.83 57.7988 88.093 59.5328C89.203 61.0558 90.699 61.8178 92.583 61.8178C94.433 61.8178 95.975 60.9098 97.208 59.0928C98.443 57.2778 99.06 54.8048 99.06 51.6668H99.062ZM122.91 40.0828L122.493 46.8878V56.2628C122.493 59.0628 122.6 61.2828 122.817 62.9288H119.892V59.6788C118.656 60.9188 117.492 61.7988 116.409 62.3268C115.573 62.7298 114.703 62.9268 113.806 62.9268C111.454 62.9268 109.536 62.3268 108.048 61.1198C106.562 59.9118 105.818 58.1948 105.818 55.9638V46.8178L105.491 40.0828H108.788L108.418 46.6298V56.0578C108.418 57.8518 109.053 59.1848 110.321 60.0518C111.404 60.7918 112.783 61.1678 114.456 61.1678C115.386 61.1678 116.298 60.8418 117.198 60.1918C117.752 59.7898 118.654 58.9698 119.89 57.7298V46.9098C119.89 46.2598 119.86 45.2668 119.8 43.9368L119.613 40.0828H122.909H122.91ZM136.838 62.3728C136.376 62.6528 135.865 62.8448 135.308 62.9528C134.75 63.0608 134.161 63.1158 133.542 63.1158C132.117 63.1158 131.018 62.6818 130.246 61.8178C129.471 60.9478 129.086 59.7278 129.086 58.1478V41.4728H125.181V40.1728H129.086V36.8298L128.851 32.6948H131.638V40.1728H136.468V41.4728H131.638V57.4028C131.638 59.0128 131.818 60.0888 132.174 60.6328C132.53 61.1768 133.14 61.4428 134.008 61.4428C134.474 61.4428 134.968 61.3448 135.493 61.1428C136.021 60.9408 136.469 60.6548 136.839 60.2828V62.3728H136.838ZM43.614 39.8448L43.584 39.9128C43.614 39.8948 43.642 39.8698 43.674 39.8498C43.654 39.8498 43.634 39.8498 43.614 39.8448ZM46.748 53.0828C45.882 52.1248 44.488 51.2558 42.57 50.4828L40.523 49.6458C38.913 48.9678 37.793 48.3118 37.156 47.6758C36.521 47.0398 36.204 46.3328 36.204 45.5598C36.204 44.5728 36.594 43.6898 37.364 42.9128C38.266 42.0178 39.457 41.5668 40.944 41.5668C41.434 41.5668 41.947 41.6268 42.484 41.7288C42.462 41.5588 42.476 41.3888 42.507 41.2208C42.183 41.0448 41.767 40.8008 41.701 40.6828C41.639 40.5688 41.786 40.0958 41.921 39.7198C41.843 39.7158 41.767 39.7098 41.686 39.7098C39.392 39.7098 37.429 40.3748 35.786 41.7058C34.271 42.9458 33.511 44.3558 33.511 45.9338C33.511 47.2038 33.929 48.2708 34.768 49.1378C35.726 50.1298 37.508 51.1828 40.108 52.2948L41.824 53.0388C43.156 53.7188 44.094 54.3548 44.636 54.9428C45.176 55.5298 45.448 56.1798 45.448 56.8928C45.448 57.2008 45.404 57.5728 45.308 58.0048C45.028 59.1208 44.395 59.9898 43.403 60.6048C42.415 61.2278 41.16 61.5348 39.643 61.5348C38.528 61.5348 37.366 61.3378 36.163 60.9318C34.953 60.5318 33.901 59.9278 33.001 59.1218V61.5818C34.087 62.1718 35.221 62.5918 36.416 62.8368C37.606 63.0848 38.836 63.2098 40.106 63.2098C42.026 63.2098 43.676 62.7598 45.056 61.8598C46.432 60.9638 47.322 59.8518 47.723 58.5198C47.815 58.1468 47.893 57.7838 47.957 57.4268C48.017 57.0718 48.047 56.7688 48.047 56.5208C48.047 55.1948 47.617 54.0468 46.749 53.0838" fill="black"/>
<path fill-rule="evenodd" clip-rule="evenodd" d="M42.7129 40.478C46.1159 42.616 53.6299 39.87 52.7499 29.022C51.8439 35.716 42.8639 32.597 42.7129 40.478Z" fill="black"/>
<path fill-rule="evenodd" clip-rule="evenodd" d="M42.0099 38.9979C36.0269 36.7279 42.1199 32.7639 39.5429 28.0129C42.5289 30.0829 44.0709 33.1059 42.0089 38.9979" fill="black"/>
</svg>
