<svg xmlns="http://www.w3.org/2000/svg" focusable="false" role="img" viewBox="0 0 200 100" fill="currentColor">
  <g clip-path="url(#clip0_231:15)">
    <path d="M187.749 50.5256V52.1048L183.52 43.1577H180.999V55.9643H183.25V48.5964L183.16 46.9295L187.48 55.9643H190V43.1577H187.749V50.5256Z"/>
    <path d="M163.27 55.7888H171.459V53.9474H165.34V50.0879H170.379V48.2453H165.34V45.0881H171.459V43.2456H163.27V55.7888Z"/>
    <path d="M73.54 44.6491H76.9594V55.3509H78.1304V44.6491H81.4598V43.6845H73.54V44.6491Z"/>
    <path d="M128.17 55.5265H135.82V54.2974H129.609V49.8244H134.74V48.5086H129.609V44.8247H135.82V43.5089H128.17V55.5265Z"/>
    <path d="M113.68 44.5613C115.031 44.5613 115.749 45.1758 116.109 46.0527H117.549C117.099 44.2101 115.297 43.3333 113.77 43.3333C109.539 43.3333 109.179 48.0697 109.179 49.4732C109.179 51.3158 109.63 55.6186 113.77 55.6186C115.03 55.6186 116.472 55.0919 117.459 54.3907V49.2153H113.139V50.3555H116.109V53.6883H116.019C115.315 54.1047 114.503 54.3178 113.68 54.3029C110.977 54.3029 110.619 51.2302 110.619 49.3898C110.709 48.0697 110.98 44.5613 113.68 44.5613Z"/>
    <path d="M94.5094 43.5967L90.6395 55.3509H91.9906L93.0704 52.1048H97.7476L98.8273 55.3509H100.178L96.3097 43.5967H94.5094ZM93.4296 51.0524L95.409 44.7369L97.3895 51.0524H93.4296Z"/>
    <path d="M144.91 45.0003H148.33V55.702H150.22V45.0003H153.55V43.3333H144.91V45.0003Z"/>
    <path d="M62.1995 49.561L59.5896 48.4208C58.5999 48.0697 57.6992 47.6318 57.6992 46.316C57.6992 45.0003 58.869 44.3857 60.04 44.3857C61.2999 44.3857 62.1095 44.7369 62.4698 46.0527H63.4595C63.1892 44.1224 61.8392 43.5089 60.04 43.5089C58.4198 43.5089 56.7095 44.3868 56.7095 46.4038C56.7095 48.3331 57.9694 48.772 59.5896 49.4765C59.7698 49.5643 59.9499 49.5643 60.04 49.6521C60.1301 49.6521 60.219 49.7399 60.3091 49.7399C61.39 50.1789 62.74 50.7045 62.74 52.1959C62.74 53.5994 61.7492 54.5651 60.1301 54.5651C58.5999 54.5651 57.6091 53.6872 57.1599 52.0203H56.1691C56.3492 54.1262 58.0595 55.442 60.04 55.442C62.2919 55.442 63.7297 54.1251 63.7297 52.1081C63.8197 51.0524 63.2793 50.1756 62.1995 49.561Z"/>
    <path d="M37.6305 54.1229L34.4801 50.8768L31.8702 52.4559V59.8238L33.8496 58.6836V53.6839L36.9999 56.8422L39.6099 55.3508V47.894L37.6305 49.122V54.1229Z"/>
    <path d="M18.9996 53.9474L22.9595 56.3156V54.7364L18.9996 52.2804V50.8769L23.2297 53.5084V51.8415L17.0202 48.1575V56.14L23.3198 59.8239V58.1581L18.9996 55.6143V53.9474Z"/>
    <path d="M25.7496 38.1581L28.7198 39.825L23.4099 42.8944L25.3004 44.0346L30.7003 40.9652L33.5805 42.631L35.1095 41.7542L27.2798 37.2802L25.7496 38.1581Z"/>
    <path d="M10 40.0005V59.9973L27.8191 70L45.6392 59.9973V40.0005L27.8191 30L10 40.0005ZM43.6655 58.9471L27.8191 67.8063L11.9794 58.9471V41.1407L27.8191 32.2804L43.6599 41.2318L43.6655 58.9471Z"/>
  </g>
  <defs>
    <clipPath id="clip0_231:15">
      <rect width="180" height="40" transform="translate(10 30)"/>
    </clipPath>
  </defs>
</svg>
