<svg width="200" height="100" viewBox="0 0 200 100" fill="none" xmlns="http://www.w3.org/2000/svg">
<path fill-rule="evenodd" clip-rule="evenodd" d="M30.147 60C27.191 60 24.777 59.457 22.824 57.45L25.862 54.414C26.866 55.417 28.628 55.77 30.174 55.77C32.044 55.77 32.94 55.146 32.94 54.034C32.94 53.574 32.83 53.194 32.56 52.894C32.316 52.651 31.91 52.461 31.287 52.379L28.953 52.053C27.245 51.809 25.943 51.24 25.076 50.343C24.181 49.423 23.746 48.12 23.746 46.467C23.746 42.941 26.404 40.365 30.796 40.365C33.564 40.365 35.652 41.015 37.306 42.67L34.323 45.654C33.103 44.434 31.503 44.516 30.663 44.516C29.008 44.516 28.33 45.464 28.33 46.304C28.33 46.549 28.412 46.902 28.71 47.2C28.953 47.443 29.36 47.69 30.038 47.77L32.37 48.094C34.105 48.339 35.354 48.881 36.168 49.694C37.198 50.698 37.604 52.134 37.604 53.924C37.604 57.858 34.214 60 30.147 60ZM47.636 44.51V59.284H42.986V44.51H38.336V40.366H52.286V44.511H47.636V44.51ZM63.002 59.284L62.125 56.468H56.307L55.377 59.284H50.514L57.396 40.366H60.983L67.865 59.284H63.002ZM59.31 47.54L57.608 52.59H60.903L59.309 47.54H59.31ZM75.852 44.51V59.284H71.202V44.51H66.552V40.366H80.5V44.511H75.852V44.51ZM90.038 59.444C86.105 59.444 82.891 56.786 82.891 52.642V40.366H87.541V52.536C87.541 54.289 88.499 55.298 90.039 55.298C91.579 55.298 92.589 54.288 92.589 52.536V40.366H97.239V52.642C97.239 56.786 93.971 59.444 90.039 59.444H90.038ZM106.023 60C103.067 60 100.653 59.457 98.7 57.45L101.738 54.414C102.742 55.417 104.504 55.77 106.05 55.77C107.92 55.77 108.817 55.146 108.817 54.034C108.817 53.574 108.707 53.194 108.437 52.894C108.193 52.651 107.785 52.461 107.161 52.379L104.831 52.053C103.123 51.809 101.821 51.24 100.953 50.343C100.057 49.423 99.623 48.12 99.623 46.467C99.623 42.941 102.283 40.365 106.675 40.365C109.441 40.365 111.529 41.015 113.185 42.67L110.2 45.654C108.978 44.434 107.38 44.516 106.54 44.516C104.884 44.516 104.206 45.464 104.206 46.304C104.206 46.549 104.286 46.902 104.586 47.2C104.83 47.443 105.236 47.69 105.916 47.77L108.246 48.094C109.982 48.339 111.23 48.881 112.044 49.694C113.074 50.698 113.481 52.134 113.481 53.924C113.481 57.858 110.091 60 106.024 60H106.023ZM139.513 59.615V48.108C139.513 45.516 137.869 44.638 136.373 44.638C134.873 44.638 133.193 45.516 133.193 48.108V59.615H128.445V40.585H133.085V42.338C134.325 41.023 136.08 40.366 137.833 40.366C139.733 40.366 141.266 40.986 142.326 42.046C143.86 43.58 144.262 45.37 144.262 47.451V59.616H139.512L139.513 59.615ZM151.277 51.58C151.277 54.026 152.774 55.816 155.441 55.816C157.523 55.816 158.546 55.231 159.751 54.026L162.637 56.84C160.701 58.776 158.839 59.835 155.405 59.835C150.912 59.835 146.602 57.789 146.602 50.081C146.602 43.873 149.962 40.367 154.895 40.367C160.191 40.367 163.185 44.237 163.185 49.462V51.582H151.279L151.277 51.58ZM158.07 46.283C157.56 45.15 156.5 44.311 154.893 44.311C153.285 44.311 152.226 45.151 151.713 46.284C151.423 46.978 151.313 47.489 151.277 48.329H158.509C158.471 47.489 158.362 46.979 158.069 46.284L158.07 46.283ZM173.526 44.51V59.284H168.876V44.51H164.226V40.366H178.176V44.511H173.526V44.51ZM124.56 45.232V53.436H117.175V45.232H124.559H124.56Z" fill="black"/>
</svg>
