<svg width="200" height="100" viewBox="0 0 200 100" fill="none" xmlns="http://www.w3.org/2000/svg">
<path fill-rule="evenodd" clip-rule="evenodd" d="M53.52 63.483C51.266 63.483 49.126 63.133 47.1 62.433C45.072 61.733 43.28 60.683 41.72 59.283L45.606 54.633C48.124 56.648 50.846 57.655 53.773 57.655C54.708 57.655 55.421 57.505 55.913 57.207C56.403 56.907 56.65 56.482 56.65 55.931V55.861C56.65 55.597 56.59 55.364 56.47 55.161C56.35 54.957 56.13 54.761 55.805 54.568C55.481 54.378 55.05 54.191 54.51 54.011C53.97 53.831 53.27 53.646 52.405 53.454C51.062 53.144 49.815 52.802 48.665 52.431C47.513 52.061 46.511 51.581 45.66 50.994C44.808 50.408 44.137 49.678 43.645 48.804C43.153 47.93 42.908 46.846 42.908 45.554V45.482C42.908 44.31 43.128 43.232 43.574 42.252C44.017 41.27 44.664 40.42 45.516 39.702C46.366 38.982 47.393 38.427 48.592 38.032C49.792 37.637 51.146 37.439 52.657 37.439C54.817 37.439 56.74 37.723 58.431 38.289C60.123 38.857 61.651 39.696 63.019 40.806L59.529 45.749C58.379 44.934 57.197 44.316 55.986 43.896C54.774 43.476 53.606 43.266 52.478 43.266C51.638 43.266 51.008 43.423 50.59 43.734C50.17 44.044 49.96 44.428 49.96 44.884V44.954C49.96 45.242 50.025 45.494 50.157 45.709C50.289 45.924 50.517 46.122 50.84 46.302C51.164 46.482 51.608 46.662 52.172 46.84C52.735 47.02 53.449 47.206 54.312 47.397C55.752 47.707 57.052 48.073 58.215 48.492C59.379 48.912 60.368 49.42 61.183 50.018C61.998 50.618 62.623 51.341 63.053 52.191C63.486 53.041 63.701 54.051 63.701 55.224V55.296C63.701 56.589 63.456 57.739 62.965 58.744C62.473 59.75 61.785 60.604 60.897 61.311C60.009 62.018 58.942 62.556 57.695 62.927C56.447 63.299 55.055 63.484 53.522 63.484L53.52 63.483ZM64.025 43.59H70.715L73.27 53.374L76.256 43.517H81.906L84.926 53.447L87.553 43.589H94.136L88.128 63.194H82.228L79.063 53.084L75.825 63.194H69.96L64.026 43.59H64.025ZM95.25 40.927V37.87H103.022V40.927L100.935 54.849H97.338L95.25 40.926V40.927ZM95.575 56.937H102.698V63.051H95.575V56.937ZM113.31 63.447C111.235 63.447 109.62 62.957 108.463 61.972C107.306 60.989 106.727 59.334 106.727 57.007V49.093H104.425V43.59H106.727V38.66H113.597V43.59H118.131V49.093H113.6V55.676C113.6 56.372 113.756 56.87 114.068 57.17C114.378 57.47 114.848 57.62 115.471 57.62C115.925 57.62 116.369 57.56 116.801 57.44C117.233 57.32 117.651 57.164 118.061 56.97V62.332C117.436 62.668 116.729 62.938 115.938 63.142C115.146 63.345 114.27 63.447 113.31 63.447ZM129.176 63.52C127.712 63.52 126.356 63.25 125.11 62.71C123.863 62.17 122.79 61.445 121.89 60.533C120.99 59.623 120.284 58.549 119.768 57.313C119.252 56.078 118.994 54.777 118.994 53.41V53.338C118.994 51.971 119.252 50.67 119.768 49.435C120.284 48.2 120.998 47.12 121.908 46.197C122.82 45.274 123.918 44.542 125.2 44.003C126.483 43.463 127.892 43.193 129.427 43.193C131.442 43.193 133.12 43.589 134.464 44.38C135.807 45.172 136.898 46.227 137.738 47.546L133.098 51C132.618 50.352 132.102 49.848 131.55 49.49C130.998 49.13 130.303 48.95 129.463 48.95C128.911 48.95 128.403 49.063 127.933 49.29C127.467 49.52 127.065 49.83 126.729 50.226C126.392 50.622 126.129 51.078 125.937 51.593C125.744 52.109 125.649 52.667 125.649 53.266V53.338C125.649 53.962 125.744 54.543 125.937 55.083C126.127 55.623 126.392 56.09 126.727 56.486C127.064 56.882 127.471 57.193 127.951 57.421C128.431 57.651 128.959 57.764 129.534 57.764C130.349 57.764 131.039 57.584 131.604 57.224C132.166 56.864 132.724 56.374 133.276 55.749L137.846 59.059C136.933 60.403 135.794 61.482 134.426 62.297C133.06 63.112 131.309 63.52 129.176 63.52ZM138.997 36.79H145.867V46.25C146.483 45.436 147.253 44.716 148.177 44.092C149.101 43.469 150.25 43.157 151.624 43.157C153.722 43.157 155.354 43.793 156.524 45.064C157.694 46.334 158.279 48.084 158.279 50.316V63.05H151.407V52.51C151.407 51.43 151.157 50.616 150.661 50.064C150.164 49.514 149.511 49.237 148.708 49.237C147.878 49.237 147.198 49.513 146.665 50.064C146.132 50.616 145.865 51.431 145.865 52.51V63.05H138.995V36.79H138.997Z" fill="black"/>
</svg>
