<svg width="200" height="100" viewBox="0 0 200 100" fill="none" xmlns="http://www.w3.org/2000/svg">
<path fill-rule="evenodd" clip-rule="evenodd" d="M28.984 32.2201V35.3481H25.542V43.8201C25.542 44.6131 25.672 45.1451 25.938 45.4101C26.203 45.6741 26.734 45.8061 27.528 45.8061C27.793 45.8061 28.048 45.7941 28.292 45.7711C28.534 45.7541 28.765 45.7191 28.984 45.6751V49.3251C28.589 49.3821 28.147 49.4221 27.661 49.4431C27.175 49.4631 26.701 49.4731 26.238 49.4731C25.508 49.4731 24.822 49.4231 24.17 49.3231C23.52 49.2231 22.948 49.0311 22.45 48.7451C21.954 48.4571 21.564 48.0501 21.28 47.5201C20.993 46.9901 20.85 46.2971 20.85 45.4361V35.3481H18V32.2201H20.85V20.9771H25.542V32.2201H28.984ZM30.503 37.0531C30.923 35.9371 31.518 34.9851 32.29 34.2031C33.06 33.4171 33.985 32.8081 35.068 32.3781C36.146 31.9481 37.358 31.7321 38.703 31.7321C40.048 31.7321 41.268 31.9471 42.357 32.3781C43.449 32.8081 44.38 33.418 45.151 34.2021C45.924 34.9851 46.518 35.9371 46.939 37.0521C47.356 38.1691 47.569 39.4121 47.569 40.7821C47.569 42.1521 47.356 43.3891 46.939 44.4941C46.519 45.6001 45.924 46.5441 45.152 47.3271C44.382 48.1141 43.452 48.7141 42.359 49.1341C41.269 49.5541 40.049 49.7641 38.705 49.7641C37.361 49.7641 36.148 49.5541 35.07 49.1341C33.987 48.7141 33.063 48.1141 32.292 47.3271C31.52 46.5451 30.924 45.6001 30.505 44.4941C30.085 43.3891 29.878 42.1521 29.878 40.7811C29.878 39.4111 30.085 38.1711 30.505 37.0541L30.503 37.0531ZM34.766 42.7901C34.896 43.4401 35.123 44.0251 35.443 44.5421C35.763 45.0621 36.19 45.4741 36.718 45.7821C37.248 46.0901 37.908 46.2451 38.703 46.2451C39.497 46.2451 40.167 46.0901 40.707 45.7831C41.249 45.4731 41.68 45.0611 41.997 44.5431C42.317 44.0251 42.544 43.4391 42.677 42.7901C42.807 42.1401 42.873 41.4701 42.873 40.7901C42.873 40.1061 42.808 39.4321 42.677 38.7721C42.544 38.1121 42.317 37.5251 41.997 37.0191C41.68 36.5111 41.249 36.0951 40.707 35.7771C40.167 35.4571 39.497 35.2971 38.703 35.2971C37.909 35.2971 37.247 35.4571 36.718 35.7771C36.19 36.0951 35.764 36.5111 35.443 37.0171C35.123 37.5241 34.897 38.1101 34.766 38.7711C34.633 39.4311 34.568 40.1051 34.568 40.7891C34.568 41.4691 34.633 42.1391 34.766 42.7891V42.7901ZM53.185 32.2161V35.3961H53.255C53.482 34.8621 53.78 34.3691 54.157 33.9161C54.533 33.4591 54.963 33.0691 55.449 32.7461C55.935 32.4241 56.454 32.1761 57.009 31.9961C57.559 31.8201 58.131 31.7321 58.729 31.7321C59.039 31.7321 59.379 31.7871 59.756 31.8981V36.2941C59.536 36.251 59.272 36.2121 58.963 36.1791C58.651 36.1461 58.353 36.1271 58.066 36.1271C57.206 36.1271 56.474 36.2721 55.878 36.5571C55.282 36.8451 54.8 37.2351 54.438 37.7341C54.072 38.2291 53.812 38.8071 53.658 39.4671C53.506 40.1291 53.43 40.8471 53.43 41.6171V49.3231H48.685V32.2161H53.183H53.185ZM60.38 37.0531C60.797 35.9371 61.396 34.9851 62.168 34.2031C62.936 33.4171 63.863 32.8081 64.946 32.3781C66.023 31.9481 67.236 31.7321 68.581 31.7321C69.927 31.7321 71.144 31.9471 72.235 32.3781C73.325 32.8081 74.259 33.418 75.032 34.2021C75.802 34.9851 76.398 35.9371 76.817 37.0521C77.235 38.1691 77.445 39.4121 77.445 40.7821C77.445 42.1521 77.235 43.3891 76.817 44.4941C76.397 45.6001 75.802 46.5441 75.033 47.3271C74.261 48.1141 73.328 48.7141 72.237 49.1341C71.147 49.5541 69.929 49.7641 68.584 49.7641C67.241 49.7641 66.027 49.5541 64.95 49.1341C63.867 48.7141 62.94 48.1141 62.172 47.3271C61.4 46.5451 60.802 45.6001 60.385 44.4941C59.967 43.3891 59.759 42.1521 59.759 40.7811C59.759 39.4111 59.967 38.1711 60.386 37.0541L60.38 37.0531ZM64.644 42.7901C64.774 43.4401 65.001 44.0251 65.322 44.5421C65.642 45.0621 66.068 45.4741 66.595 45.7821C67.127 46.0901 67.788 46.2451 68.581 46.2451C69.375 46.2451 70.044 46.0901 70.587 45.7831C71.127 45.4731 71.557 45.0611 71.877 44.5431C72.197 44.0251 72.42 43.4391 72.557 42.7901C72.687 42.1401 72.752 41.4701 72.752 40.7901C72.752 40.1061 72.688 39.4321 72.557 38.7721C72.421 38.1121 72.197 37.5251 71.877 37.0191C71.557 36.5111 71.127 36.0951 70.587 35.7771C70.045 35.4571 69.377 35.2971 68.583 35.2971C67.791 35.2971 67.13 35.4571 66.598 35.7771C66.071 36.0951 65.645 36.5111 65.325 37.0171C65.005 37.5241 64.778 38.1101 64.647 38.7711C64.514 39.4311 64.447 40.1051 64.447 40.7891C64.447 41.4691 64.514 42.1391 64.647 42.7891L64.644 42.7901ZM83.96 32.1981V34.5831H84.062C84.655 33.5901 85.428 32.8651 86.376 32.4111C87.326 31.9611 88.296 31.7331 89.288 31.7331C90.546 31.7331 91.576 31.9031 92.381 32.2471C93.188 32.5891 93.821 33.0631 94.285 33.6701C94.749 34.2781 95.073 35.0171 95.261 35.8901C95.449 36.7621 95.544 37.7301 95.544 38.7871V49.3241H90.854V39.6541C90.854 38.2391 90.63 37.1861 90.191 36.4891C89.749 35.7931 88.966 35.4441 87.841 35.4441C86.565 35.4441 85.641 35.8241 85.067 36.5871C84.494 37.35 84.207 38.6031 84.207 40.3471V74.5471H79.467V32.1971H83.96V32.1981ZM106.92 32.2201V35.3481H103.476V43.8201C103.476 44.6131 103.61 45.1451 103.873 45.4101C104.139 45.6741 104.67 45.8061 105.465 45.8061C105.729 45.8061 105.985 45.7941 106.229 45.7711C106.467 45.7541 106.699 45.7191 106.919 45.6751V49.3251C106.523 49.3821 106.079 49.4221 105.597 49.4431C105.11 49.4631 104.633 49.4731 104.171 49.4731C103.441 49.4731 102.756 49.4231 102.104 49.3231C101.454 49.2231 100.884 49.0311 100.386 48.7451C99.891 48.4571 99.501 48.0501 99.213 47.5201C98.928 46.9901 98.783 46.2971 98.783 45.4361V35.3481H95.935V32.2201H98.783V20.9771H103.475V32.2201H106.919H106.92ZM107.625 37.0531C108.043 35.9371 108.637 34.9851 109.409 34.2031C110.179 33.4171 111.102 32.8081 112.186 32.3781C113.266 31.9481 114.476 31.7321 115.821 31.7321C117.169 31.7321 118.386 31.9471 119.476 32.3781C120.566 32.8081 121.496 33.418 122.271 34.2021C123.041 34.9851 123.636 35.9371 124.056 37.0521C124.476 38.1691 124.683 39.4121 124.683 40.7821C124.683 42.1521 124.476 43.3891 124.056 44.4941C123.636 45.6001 123.04 46.5441 122.271 47.3271C121.496 48.1141 120.567 48.7141 119.476 49.1341C118.386 49.5541 117.169 49.7641 115.821 49.7641C114.477 49.7641 113.265 49.5541 112.186 49.1341C111.102 48.7141 110.179 48.1141 109.408 47.3271C108.635 46.5451 108.041 45.6001 107.623 44.4941C107.199 43.3891 106.993 42.1521 106.993 40.7811C106.993 39.4111 107.199 38.1711 107.623 37.0541L107.625 37.0531ZM111.883 42.7901C112.016 43.4401 112.243 44.0251 112.561 44.5421C112.883 45.0621 113.307 45.4741 113.838 45.7821C114.366 46.0901 115.03 46.2451 115.823 46.2451C116.615 46.2451 117.285 46.0901 117.825 45.7831C118.367 45.4731 118.797 45.0611 119.118 44.5431C119.438 44.0251 119.661 43.4391 119.798 42.7901C119.928 42.1401 119.996 41.4701 119.996 40.7901C119.996 40.1061 119.928 39.4321 119.796 38.7721C119.661 38.1121 119.438 37.5251 119.118 37.0191C118.798 36.5111 118.368 36.0951 117.825 35.7771C117.285 35.4571 116.615 35.2971 115.823 35.2971C115.03 35.2971 114.366 35.4571 113.838 35.7771C113.308 36.0951 112.883 36.5111 112.562 37.0171C112.244 37.5241 112.018 38.1101 111.885 38.7711C111.755 39.4311 111.685 40.1051 111.685 40.7891C111.685 41.4691 111.755 42.1391 111.885 42.7891L111.883 42.7901ZM130.438 35.3481V32.2201H133.251V30.8901C133.251 29.3621 133.727 28.1101 134.675 27.1351C135.619 26.1581 137.053 25.6731 138.971 25.6731C139.391 25.6731 139.813 25.6901 140.231 25.7281C140.648 25.7631 141.058 25.7931 141.459 25.8181V29.3361C140.906 29.2731 140.333 29.2381 139.734 29.2381C139.094 29.2381 138.634 29.3881 138.359 29.6861C138.084 29.9841 137.944 30.4861 137.944 31.1921V32.2201H141.192V35.3481H137.945V60.2331H133.253V35.3481H130.441H130.438ZM147.55 32.1941V49.3241H142.857V32.1941H147.549H147.55ZM153.904 20.9771V49.3241H149.212V20.9771H153.904ZM160.288 32.1981V34.5161H160.354C160.971 33.633 161.716 32.9461 162.587 32.4621C163.46 31.975 164.46 31.7321 165.587 31.7321C166.667 31.7321 167.657 31.9401 168.553 32.3601C169.443 32.7801 170.123 33.5221 170.588 34.5831C171.096 33.8331 171.788 33.1701 172.658 32.5931C173.536 32.0191 174.57 31.7331 175.765 31.7331C176.669 31.7331 177.509 31.8431 178.281 32.0631C179.061 32.2851 179.721 32.6381 180.276 33.1231C180.829 33.6091 181.259 34.2461 181.569 35.0281C181.879 35.8121 182.035 36.7581 182.035 37.8601V49.3241H177.345V39.6201C177.345 39.0431 177.321 38.5031 177.277 37.9961C177.232 37.4891 177.111 37.0461 176.909 36.6701C176.709 36.2961 176.415 35.9981 176.027 35.7771C175.64 35.5571 175.11 35.4451 174.447 35.4451C173.781 35.4451 173.243 35.5751 172.831 35.8251C172.421 36.0801 172.098 36.4151 171.866 36.8211C171.632 37.2311 171.476 37.6941 171.399 38.2131C171.319 38.7331 171.284 39.2561 171.284 39.7861V49.3261H166.591V39.7191C166.591 39.2121 166.581 38.7091 166.557 38.2131C166.535 37.7151 166.441 37.2591 166.275 36.8391C166.109 36.4171 165.829 36.081 165.442 35.8271C165.055 35.5751 164.485 35.4471 163.73 35.4471C163.505 35.4471 163.212 35.4971 162.845 35.5971C162.479 35.6951 162.125 35.8821 161.782 36.1571C161.436 36.4341 161.142 36.8321 160.898 37.3521C160.654 37.8721 160.531 38.5501 160.531 39.3881V49.3261H155.841V32.1981H160.289H160.288ZM27.005 60.522C26.255 60.522 25.625 60.695 25.115 61.036C24.611 61.379 24.193 61.8161 23.875 62.3601C23.551 62.9001 23.325 63.495 23.195 64.1451C23.062 64.7951 22.997 65.4391 22.997 66.0801C22.997 66.6971 23.062 67.3251 23.195 67.9631C23.325 68.605 23.542 69.183 23.84 69.701C24.14 70.2211 24.543 70.6451 25.05 70.9761C25.558 71.3061 26.176 71.4701 26.91 71.4701C28.032 71.4701 28.9 71.1551 29.506 70.5261C30.116 69.896 30.496 69.0501 30.651 67.9901H35.191C34.881 70.2661 33.996 72.002 32.539 73.197C31.081 74.39 29.213 74.987 26.941 74.987C25.659 74.987 24.481 74.772 23.413 74.341C22.343 73.911 21.433 73.311 20.683 72.537C19.936 71.762 19.353 70.842 18.933 69.767C18.516 68.697 18.306 67.521 18.306 66.237C18.306 64.913 18.499 63.6771 18.886 62.541C19.269 61.404 19.836 60.4211 20.586 59.591C21.336 58.7631 22.249 58.118 23.33 57.654C24.41 57.189 25.647 56.9561 27.038 56.9561C28.055 56.9561 29.032 57.0891 29.972 57.354C30.912 57.619 31.748 58.024 32.489 58.564C33.229 59.104 33.827 59.7821 34.293 60.5881C34.758 61.3941 35.025 62.3501 35.091 63.4551H30.483C30.173 61.5031 29.013 60.523 27.003 60.523L27.005 60.522ZM41.455 50.8951V59.808H41.555C42.147 58.813 42.909 58.09 43.835 57.6361C44.759 57.1821 45.663 56.9561 46.545 56.9561C47.801 56.9561 48.832 57.1261 49.635 57.4691C50.44 57.8091 51.073 58.284 51.535 58.8941C52 59.501 52.322 60.24 52.513 61.114C52.699 61.984 52.793 62.952 52.793 64.0121V74.5471H48.1V64.877C48.1 63.462 47.88 62.409 47.442 61.711C46.999 61.018 46.214 60.668 45.092 60.668C43.816 60.668 42.888 61.048 42.314 61.8101C41.742 62.5731 41.454 63.826 41.454 65.57V74.5461H36.764V50.8951H41.454H41.455ZM55.398 59.93C55.881 59.203 56.498 58.62 57.248 58.18C57.998 57.738 58.842 57.425 59.778 57.238C60.715 57.048 61.656 56.9551 62.606 56.9551C63.466 56.9551 64.336 57.0171 65.216 57.1371C66.099 57.2611 66.903 57.4971 67.631 57.8511C68.361 58.2071 68.953 58.6981 69.418 59.326C69.881 59.9561 70.112 60.792 70.112 61.828V70.746C70.112 71.519 70.157 72.259 70.244 72.966C70.332 73.673 70.489 74.203 70.709 74.556L65.946 74.549C65.856 74.285 65.788 74.014 65.731 73.739C65.677 73.463 65.639 73.1791 65.616 72.8931C64.866 73.6691 63.984 74.213 62.969 74.523C61.954 74.833 60.917 74.989 59.859 74.989C59.042 74.989 58.279 74.889 57.573 74.6921C56.868 74.4921 56.251 74.182 55.721 73.7621C55.193 73.34 54.778 72.81 54.483 72.17C54.183 71.526 54.033 70.765 54.033 69.8801C54.033 68.904 54.205 68.1021 54.548 67.472C54.888 66.84 55.331 66.338 55.873 65.96C56.413 65.586 57.029 65.3031 57.725 65.1161C58.42 64.9281 59.118 64.7761 59.827 64.666C60.531 64.556 61.227 64.4681 61.912 64.4011C62.596 64.333 63.205 64.2341 63.734 64.1011C64.262 63.9681 64.684 63.7751 64.994 63.521C65.301 63.266 65.444 62.8951 65.422 62.4081C65.422 61.8981 65.338 61.496 65.172 61.195C65.009 60.897 64.788 60.6651 64.51 60.501C64.234 60.333 63.915 60.223 63.55 60.168C63.188 60.113 62.795 60.084 62.376 60.084C61.449 60.084 60.723 60.284 60.191 60.684C59.659 61.08 59.351 61.744 59.261 62.674H54.571C54.637 61.5741 54.913 60.6581 55.399 59.931L55.398 59.93ZM64.675 66.5751C64.375 66.675 64.055 66.758 63.712 66.8251C63.369 66.8921 63.012 66.9471 62.637 66.9911C62.26 67.0371 61.884 67.091 61.507 67.156C61.157 67.224 60.807 67.313 60.467 67.4221C60.121 67.5321 59.823 67.682 59.571 67.87C59.316 68.058 59.111 68.2951 58.958 68.583C58.801 68.871 58.728 69.233 58.728 69.676C58.728 70.096 58.801 70.451 58.958 70.738C59.111 71.025 59.32 71.251 59.588 71.416C59.851 71.583 60.163 71.7001 60.515 71.764C60.867 71.8311 61.233 71.864 61.61 71.864C62.535 71.864 63.255 71.7101 63.76 71.4001C64.27 71.0921 64.645 70.722 64.89 70.2901C65.13 69.8601 65.28 69.423 65.336 68.9841C65.392 68.5401 65.42 68.188 65.42 67.924V66.16C65.22 66.336 64.973 66.4751 64.675 66.5731V66.5751ZM76.652 50.8951V74.548H71.962V50.8951H76.652Z" fill="black"/>
<path fill-rule="evenodd" clip-rule="evenodd" d="M91.51 70.4401C92.218 71.1261 93.236 71.4701 94.56 71.4701C95.51 71.4701 96.326 71.2341 97.012 70.7641C97.698 70.2941 98.116 69.7941 98.272 69.2701H102.415C101.751 71.3201 100.735 72.7861 99.367 73.6671C97.995 74.5471 96.337 74.9871 94.394 74.9871C93.048 74.9871 91.834 74.7721 90.752 74.3411C89.67 73.9111 88.754 73.2981 88.009 72.5031C87.257 71.7071 86.679 70.7581 86.272 69.6531C85.862 68.5471 85.66 67.3331 85.66 66.0051C85.66 64.7251 85.872 63.5321 86.288 62.4251C86.708 61.3211 87.303 60.3651 88.074 59.5591C88.844 58.7521 89.762 58.1191 90.834 57.6541C91.904 57.1891 93.091 56.9561 94.394 56.9561C95.852 56.9561 97.124 57.2391 98.206 57.8021C99.286 58.3661 100.176 59.1221 100.873 60.0701C101.568 61.0201 102.07 62.1001 102.381 63.3161C102.691 64.5281 102.801 65.7981 102.711 67.1231H90.354C90.42 68.6511 90.804 69.7571 91.511 70.4431L91.51 70.4401ZM96.832 61.4441C96.267 60.8301 95.412 60.5221 94.264 60.5221C93.512 60.5221 92.886 60.6521 92.389 60.9021C91.891 61.1521 91.495 61.4651 91.194 61.8391C90.899 62.2091 90.689 62.6041 90.567 63.0211C90.447 63.4361 90.372 63.8091 90.353 64.1381H98.005C97.785 62.9531 97.392 62.0561 96.831 61.4421L96.832 61.4441ZM108.312 57.4221V59.8081H108.412C109.007 58.8131 109.776 58.0901 110.729 57.6361C111.672 57.1821 112.646 56.9561 113.639 56.9561C114.893 56.9561 115.925 57.1261 116.731 57.4691C117.536 57.8091 118.173 58.2841 118.634 58.8941C119.097 59.5011 119.422 60.2401 119.614 61.1141C119.799 61.9841 119.892 62.9521 119.892 64.0121V74.5471H115.2V64.8771C115.2 63.4621 114.982 62.4091 114.54 61.7111C114.1 61.0181 113.318 60.6681 112.193 60.6681C110.913 60.6681 109.989 61.0481 109.416 61.8101C108.844 62.5731 108.556 63.8261 108.556 65.5701V74.5461H103.816V57.4221H108.312ZM137.66 75.8041C137.473 76.6861 137.068 77.5091 136.443 78.2691C135.823 79.0291 134.923 79.6731 133.751 80.2041C132.576 80.7321 131.007 80.9991 129.044 80.9991C128.201 80.9991 127.346 80.8941 126.474 80.6821C125.604 80.4721 124.807 80.1441 124.089 79.7021C123.371 79.2551 122.775 78.6841 122.299 77.9901C121.825 77.2901 121.554 76.4541 121.486 75.4771H126.159C126.379 76.3771 126.812 76.9991 127.452 77.3491C128.092 77.6961 128.832 77.8691 129.672 77.8691C130.997 77.8691 131.962 77.4711 132.572 76.6751C133.18 75.8771 133.472 74.8691 133.452 73.6501V71.3901H133.402C132.892 72.3041 132.168 72.9771 131.23 73.4101C130.293 73.8441 129.302 74.0601 128.263 74.0601C126.983 74.0601 125.878 73.8341 124.95 73.3801C124.022 72.9301 123.26 72.3101 122.664 71.5221C122.064 70.7421 121.631 69.8221 121.354 68.7721C121.08 67.7241 120.944 66.6121 120.944 65.4421C120.944 64.3371 121.1 63.2721 121.424 62.2421C121.744 61.2151 122.211 60.3091 122.829 59.5241C123.449 58.7401 124.215 58.1171 125.134 57.6541C126.05 57.1881 127.104 56.9541 128.299 56.9541C129.426 56.9541 130.413 57.1671 131.265 57.5901C132.115 58.0101 132.828 58.7201 133.405 59.7201H133.455V57.4371H137.948V73.4571C137.948 74.1401 137.855 74.9201 137.666 75.8041H137.66ZM131.196 70.0961C131.704 69.8321 132.122 69.4781 132.452 69.0391C132.785 68.5991 133.034 68.0991 133.197 67.5371C133.364 66.9771 133.449 66.3851 133.449 65.7711C133.449 65.0671 133.379 64.4011 133.246 63.7731C133.116 63.1461 132.896 62.5901 132.586 62.1051C132.276 61.6221 131.866 61.2351 131.356 60.9511C130.852 60.6651 130.209 60.5211 129.436 60.5211C128.776 60.5211 128.206 60.6561 127.732 60.9171C127.255 61.1811 126.858 61.5411 126.538 61.9911C126.216 62.4411 125.988 62.9591 125.845 63.5411C125.701 64.1251 125.628 64.7371 125.628 65.3741C125.628 65.9911 125.688 66.6021 125.808 67.2071C125.93 67.8121 126.14 68.3571 126.438 68.8421C126.735 69.3261 127.13 69.7221 127.618 70.0321C128.102 70.3381 128.706 70.4921 129.435 70.4921C130.098 70.4921 130.685 70.3621 131.195 70.0951L131.196 70.0961ZM145.21 70.4401C145.92 71.1261 146.933 71.4701 148.258 71.4701C149.208 71.4701 150.025 71.2341 150.713 70.7641C151.393 70.2941 151.817 69.7941 151.973 69.2701H156.113C155.45 71.3201 154.433 72.7861 153.063 73.6671C151.691 74.5471 150.037 74.9871 148.093 74.9871C146.746 74.9871 145.533 74.7721 144.451 74.3411C143.371 73.9111 142.453 73.2981 141.708 72.5031C140.958 71.7071 140.381 70.7581 139.971 69.6531C139.564 68.5471 139.361 67.3331 139.361 66.0051C139.361 64.7251 139.571 63.5321 139.991 62.4251C140.409 61.3211 140.999 60.3651 141.773 59.5591C142.543 58.7521 143.463 58.1191 144.533 57.6541C145.603 57.1891 146.79 56.9561 148.095 56.9561C149.551 56.9561 150.825 57.2391 151.905 57.8021C152.987 58.3661 153.873 59.1221 154.573 60.0701C155.266 61.0201 155.769 62.1001 156.078 63.3161C156.388 64.5281 156.501 65.7981 156.411 67.1231H144.051C144.117 68.6511 144.505 69.7571 145.211 70.4431L145.21 70.4401ZM150.53 61.4441C149.964 60.8301 149.11 60.5221 147.96 60.5221C147.21 60.5221 146.585 60.6521 146.09 60.9021C145.59 61.1521 145.193 61.4651 144.896 61.8391C144.598 62.2091 144.386 62.6041 144.266 63.0211C144.143 63.4361 144.071 63.8091 144.051 64.1381H151.708C151.485 62.9531 151.095 62.0561 150.531 61.4421L150.53 61.4441Z" fill="black"/>
<path d="M145.533 31.066C146.932 31.066 148.066 29.9319 148.066 28.533C148.066 27.1341 146.932 26 145.533 26C144.134 26 143 27.1341 143 28.533C143 29.9319 144.134 31.066 145.533 31.066Z" fill="black"/>
<path d="M159.532 74.064C160.93 74.064 162.064 72.9304 162.064 71.532C162.064 70.1336 160.93 69 159.532 69C158.134 69 157 70.1336 157 71.532C157 72.9304 158.134 74.064 159.532 74.064Z" fill="black"/>
</svg>
