<svg width="200" height="100" viewBox="0 0 200 100" fill="none" xmlns="http://www.w3.org/2000/svg">
<path d="M22.51 51.1201H28.87V64.7201H36V69.2701H22.51V51.1201Z" fill="black"/>
<path d="M42 51.1201H48.36V69.2701H42V51.1201Z" fill="black"/>
<path d="M62.59 66.5101V61.4201H64.67C66.75 61.4201 67.76 62.3601 67.76 63.8701C67.76 65.6501 66.64 66.5101 64.51 66.5101H62.59ZM56.23 69.2801H68.32C71.67 69.2801 73.91 67.0701 73.91 64.1101C73.91 61.7701 72.68 60.2501 69.99 59.2901C71.88 58.4701 72.84 57.2201 72.84 55.5201C72.84 53.4101 71.38 51.1201 66.84 51.1201H56.23V69.2801ZM62.59 58.6601V53.8901H64.43C66.51 53.8901 67.3 54.8901 67.3 56.2601C67.3 57.6301 66.51 58.6601 64.43 58.6601H62.59Z" fill="black"/>
<path d="M87.4 58.8901V54.0501H89.26C91.26 54.0501 92.38 54.8501 92.38 56.4501C92.38 58.0501 91.18 58.8901 89.13 58.8901H87.4ZM81 69.2701H87.4V61.6901H89.13C90.86 61.6901 91.87 63.4701 93.2 66.5901L94.34 69.2701H100.6L98.44 64.4801C97.44 62.3301 96.77 61.0801 95.44 60.4801C96.3081 60.1741 97.058 59.603 97.5838 58.8475C98.1096 58.092 98.3846 57.1904 98.37 56.2701C98.37 53.4201 96.27 51.0801 91.37 51.0801H81V69.2701Z" fill="black"/>
<path d="M113.85 63.0501L116.65 55.8601L119.41 63.0501H113.85ZM105 69.2801H111.31L112.51 66.2801H120.71L121.9 69.2801H128.21L120 51.1201H113.35L105 69.2801Z" fill="black"/>
<path d="M140.87 58.8901V54.0501H142.73C144.73 54.0501 145.84 54.8501 145.84 56.4501C145.84 58.0501 144.65 58.8901 142.6 58.8901H140.87ZM134.51 69.2701H140.87V61.6901H142.6C144.33 61.6901 145.34 63.4701 146.67 66.5901L147.81 69.2701H154.07L151.91 64.4801C150.91 62.3301 150.24 61.0801 148.91 60.4801C149.778 60.1741 150.528 59.603 151.054 58.8475C151.58 58.092 151.855 57.1904 151.84 56.2701C151.84 53.4201 149.74 51.0801 144.84 51.0801H134.51V69.2701Z" fill="black"/>
<path d="M163.68 61.1801L156.62 51.1201H164.21L167.67 57.1201L171.05 51.1201H177.28L170 61.4201V69.2801H163.64L163.68 61.1801Z" fill="black"/>
<path d="M127.48 45.2099V43.3999H128.05C128.81 43.3999 129.05 43.7099 129.05 44.2899C129.05 44.8699 128.76 45.2099 128.05 45.2099H127.48ZM125.13 48.8499H127.48V46.4599H128.48C130.6 46.4599 131.27 45.2999 131.27 44.2599C131.27 43.2199 130.55 42.1499 128.61 42.1499H125.15L125.13 48.8499Z" fill="black"/>
<path d="M141.54 45.7699C141.54 47.7699 140.33 48.9299 138 48.9299C135.67 48.9299 134.37 47.8399 134.37 46.0199V42.1499H136.72V45.7199C136.72 46.7199 137.22 47.1199 137.94 47.1199C138.66 47.1199 139.2 46.6699 139.2 45.6099V42.1499H141.54V45.7699Z" fill="black"/>
<path d="M147.76 47.8299V45.9999H148.52C149.29 45.9999 149.66 46.3399 149.66 46.8999C149.66 47.4599 149.25 47.8999 148.47 47.8999L147.76 47.8299ZM145.41 48.8299H149.87C150.133 48.8506 150.398 48.8166 150.647 48.7299C150.896 48.6433 151.125 48.5059 151.319 48.3264C151.512 48.1469 151.666 47.9293 151.772 47.6872C151.877 47.4451 151.931 47.1838 151.93 46.9199C151.932 46.5027 151.79 46.0976 151.527 45.7733C151.265 45.4489 150.898 45.2252 150.49 45.1399C150.779 45.0391 151.031 44.8516 151.21 44.6029C151.389 44.3541 151.486 44.0563 151.49 43.7499C151.49 42.9799 150.95 42.1299 149.28 42.1299H145.36L145.41 48.8299ZM147.76 44.9099V43.1699H148.44C149.2 43.1699 149.5 43.5399 149.5 44.0499C149.5 44.5599 149.2 44.9299 148.44 44.9299L147.76 44.9099Z" fill="black"/>
<path d="M155.75 42.1499H158.09V47.1499H160.72V48.8299H155.72L155.75 42.1499Z" fill="black"/>
<path d="M164.13 42.1499H166.48V48.8499H164.13V42.1499Z" fill="black"/>
<path d="M176.59 48.3499C175.822 48.7507 174.966 48.9502 174.1 48.9299C171.3 48.9299 170.34 47.0599 170.34 45.5299C170.34 43.5299 171.77 42.0599 174.22 42.0599C175.016 42.0465 175.807 42.1997 176.54 42.5099V44.5099C175.967 44.1125 175.287 43.8965 174.59 43.8899C173.41 43.8899 172.69 44.5199 172.69 45.5399C172.69 46.5599 173.43 47.1899 174.61 47.1899C175.319 47.1852 176.012 46.9807 176.61 46.5999L176.59 48.3499Z" fill="black"/>
<path d="M107.39 34.9V33.22H113.92V34.9H111.83V39.9H109.49V34.9H107.39Z" fill="black"/>
<path d="M119.3 36.56C119.272 36.3734 119.284 36.1829 119.336 36.0015C119.388 35.82 119.478 35.652 119.601 35.5088C119.724 35.3656 119.877 35.2507 120.048 35.1719C120.22 35.0931 120.406 35.0523 120.595 35.0523C120.784 35.0523 120.97 35.0931 121.142 35.1719C121.313 35.2507 121.466 35.3656 121.589 35.5088C121.712 35.652 121.802 35.82 121.854 36.0015C121.906 36.1829 121.918 36.3734 121.89 36.56C121.89 37.47 121.39 38.04 120.6 38.04C119.81 38.04 119.3 37.47 119.3 36.56ZM116.96 36.56C116.916 37.2901 117.092 38.0166 117.466 38.6453C117.84 39.274 118.394 39.7759 119.056 40.0859C119.719 40.3959 120.459 40.4998 121.181 40.384C121.903 40.2682 122.574 39.938 123.107 39.4364C123.639 38.9348 124.008 38.2849 124.167 37.5708C124.325 36.8568 124.265 36.1116 123.995 35.4319C123.725 34.7522 123.257 34.1693 122.652 33.7589C122.046 33.3484 121.331 33.1293 120.6 33.13C120.132 33.0917 119.661 33.1528 119.218 33.3092C118.776 33.4657 118.371 33.7141 118.031 34.038C117.691 34.3619 117.424 34.7541 117.246 35.1887C117.068 35.6234 116.984 36.0907 117 36.56" fill="black"/>
<path d="M130.4 36.08V34.3H131.09C131.83 34.3 132.24 34.59 132.24 35.18C132.24 35.77 131.8 36.08 131.04 36.08H130.4ZM128.06 39.91H130.4V37.11H131C131.64 37.11 132 37.77 132.5 38.92L132.92 39.92H135.23L134.43 38.15C134.07 37.36 133.82 36.9 133.34 36.69C133.66 36.577 133.936 36.3668 134.129 36.0887C134.323 35.8107 134.425 35.4788 134.42 35.14C134.42 34.09 133.64 33.23 131.83 33.23H128.02L128.06 39.91Z" fill="black"/>
<path d="M140.58 36.5599C140.552 36.3733 140.564 36.1828 140.616 36.0013C140.668 35.8199 140.758 35.6518 140.881 35.5086C141.004 35.3655 141.157 35.2505 141.328 35.1718C141.5 35.093 141.686 35.0522 141.875 35.0522C142.064 35.0522 142.25 35.093 142.422 35.1718C142.593 35.2505 142.746 35.3655 142.869 35.5086C142.992 35.6518 143.082 35.8199 143.134 36.0013C143.186 36.1828 143.198 36.3733 143.17 36.5599C143.17 37.4699 142.67 38.0399 141.88 38.0399C141.09 38.0399 140.58 37.4699 140.58 36.5599ZM138.24 36.5599C138.196 37.29 138.372 38.0165 138.746 38.6452C139.12 39.2739 139.674 39.7758 140.336 40.0858C140.999 40.3958 141.739 40.4996 142.461 40.3838C143.183 40.268 143.854 39.9379 144.387 39.4363C144.919 38.9347 145.288 38.2847 145.447 37.5707C145.605 36.8566 145.545 36.1114 145.275 35.4317C145.005 34.752 144.537 34.1692 143.932 33.7587C143.326 33.3483 142.611 33.1292 141.88 33.1299C141.409 33.0855 140.934 33.1421 140.486 33.2959C140.038 33.4497 139.629 33.6971 139.284 34.0217C138.94 34.3463 138.669 34.7405 138.488 35.1782C138.308 35.6159 138.224 36.0869 138.24 36.5599Z" fill="black"/>
<path d="M149.36 33.22H151.36L154.75 36.65L154.62 33.22H157V39.91H155L151.61 36.48L151.74 39.91H149.37L149.36 33.22Z" fill="black"/>
<path d="M160.64 34.9V33.22H167.17V34.9H165.08V39.9H162.73V34.9H160.64Z" fill="black"/>
<path d="M172.55 36.5599C172.522 36.3733 172.534 36.1828 172.586 36.0014C172.638 35.8199 172.728 35.6519 172.851 35.5087C172.974 35.3655 173.127 35.2506 173.298 35.1718C173.47 35.093 173.656 35.0523 173.845 35.0523C174.034 35.0523 174.22 35.093 174.392 35.1718C174.563 35.2506 174.716 35.3655 174.839 35.5087C174.962 35.6519 175.052 35.8199 175.104 36.0014C175.156 36.1828 175.168 36.3733 175.14 36.5599C175.14 37.4699 174.64 38.0399 173.85 38.0399C173.06 38.0399 172.55 37.4699 172.55 36.5599ZM170.21 36.5599C170.166 37.2904 170.342 38.0174 170.717 38.6463C171.091 39.2752 171.645 39.7771 172.309 40.0869C172.972 40.3966 173.713 40.4999 174.435 40.3833C175.157 40.2666 175.828 39.9355 176.36 39.4329C176.892 38.9303 177.261 38.2793 177.418 37.5646C177.575 36.8499 177.514 36.1043 177.242 35.4248C176.971 34.7452 176.501 34.1631 175.894 33.7539C175.288 33.3446 174.572 33.1272 173.84 33.1299C173.37 33.0871 172.895 33.1448 172.449 33.2993C172.003 33.4538 171.594 33.7014 171.251 34.0258C170.908 34.3502 170.637 34.7439 170.458 35.1809C170.278 35.6178 170.194 36.0879 170.21 36.5599Z" fill="black"/>
<path d="M84.12 38.09C47.61 16.92 22.63 48.09 22.63 48.09L44.88 48.23C57 36.32 68.32 36.54 76.59 39.68C77.26 39.49 77.94 39.3 78.59 39.12C80.3967 38.6853 82.2262 38.3515 84.07 38.12" fill="black"/>
<path d="M89.91 48.71H98.4C96.4 46.89 94.4 45.23 92.47 43.71C90.4205 44.0248 88.4288 44.6415 86.56 45.54C87.7541 46.5045 88.8739 47.5574 89.91 48.69" fill="black"/>
<path d="M62.37 48.45C62.37 48.45 87.02 27.19 121.37 48.77H114.76C114.76 48.77 95.76 33.86 79.69 48.53L62.37 48.45Z" fill="black"/>
</svg>
