<svg xmlns="http://www.w3.org/2000/svg" focusable="false" role="img" viewBox="0 0 200 100" fill="currentColor">
  <path d="M42.3 41.2V36c0-.3-.3-.6-.6-.6h-3.5c-.3 0-.6.3-.6.6v2.1c0 1.7-.9 3.1-3 3.1h-.4c-.3 0-.6.3-.6.6v3.4c0 .3.3.6.6.6h2.9v9c0 3.7 2.4 6 6.2 6 1.2 0 2-.2 2.5-.3.3-.1.4-.3.4-.6v-3.2c0-.4-.3-.6-.7-.6-.3 0-.6.1-.9.1-1.5 0-2.3-.6-2.3-2.2v-8.1h6v21.5c0 .3.3.6.6.6h4c.3 0 .6-.3.6-.6v-8.8c.9 1.3 2.9 2.4 5.6 2.4 5.5 0 9.2-4.1 9.2-10 0-5.8-3.3-10.1-9-10.1-2.9 0-5.1 1.3-6 2.8 0-1.3-1.1-2.4-2.4-2.4h-8.6v-.1zm16.1 15c-2.7 0-4.9-1.9-4.9-5.3s2.2-5.4 4.9-5.4 4.8 2 4.8 5.4c0 3.5-2.1 5.3-4.8 5.3zM75.1 32.1h-4c-.3 0-.6.3-.6.6v27.4c0 .3.3.6.6.6h4c.3 0 .6-.3.6-.6V32.7c.1-.4-.2-.6-.6-.6zM83.5 41c1.9 0 3.5 1.6 3.5 3.5S85.4 48 83.5 48 80 46.4 80 44.5s1.6-3.5 3.5-3.5zM83.5 53.9c1.9 0 3.5 1.6 3.5 3.5s-1.6 3.5-3.5 3.5-3.5-1.6-3.5-3.5 1.6-3.5 3.5-3.5zM123.7 41.2h1.1c.1 0 .2.1.2.2v1.2c0 .1-.1.2-.2.2h-1.1v2.8c0 .6.3.8.8.8h.3c.1 0 .2.1.2.2v1.1c0 .1-.1.2-.1.2-.2.1-.5.1-.9.1-1.3 0-2.1-.8-2.1-2v-3.1h-1c-.1 0-.2-.1-.2-.2v-1.2c0-.1.1-.2.2-.2h.1c.7 0 1-.5 1-1v-.7c0-.1.1-.2.2-.2h1.2c.1 0 .2.1.2.2v1.6h.1zM132.2 44.5c0 2-1.5 3.5-3.5 3.5s-3.5-1.5-3.5-3.5 1.5-3.5 3.5-3.5 3.5 1.5 3.5 3.5zm-1.7 0c0-1.2-.8-1.9-1.7-1.9-.9 0-1.7.6-1.7 1.9 0 1.2.8 1.9 1.7 1.9.8 0 1.7-.6 1.7-1.9zM115.8 47.8h-1.4c-.1 0-.2-.1-.2-.2v-6.2c0-.1.1-.2.2-.2h1.3c.1 0 .2.1.2.2v.6c.4-.7 1.2-1 1.9-1 1.6 0 2.4 1.2 2.4 2.6v4c0 .1-.1.2-.2.2h-1.4c-.1 0-.2-.1-.2-.2V44c0-.7-.4-1.3-1.2-1.3-.8 0-1.2.6-1.2 1.4v3.6s-.1.1-.2.1zM113.5 44.5c0 2-1.5 3.5-3.5 3.5s-3.5-1.5-3.5-3.5S108 41 110 41s3.5 1.5 3.5 3.5zm-1.8 0c0-1.2-.8-1.9-1.7-1.9-.9 0-1.7.6-1.7 1.9 0 1.2.8 1.9 1.7 1.9.9 0 1.7-.6 1.7-1.9zM106.5 42.8c0 .1-.1.2-.2.2h-.3c-.9 0-1.7.4-1.7 1.9v2.8c0 .1-.1.2-.2.2h-1.4c-.1 0-.2-.1-.2-.2v-6.2c0-.1.1-.2.2-.2h1.3c.1 0 .2.1.2.2v.8c.4-.9 1.3-1 1.9-1h.2c.1 0 .2.1.2.2v1.3zM101.6 44.5c0 2-1.5 3.5-3.5 3.5s-3.5-1.5-3.5-3.5 1.5-3.5 3.5-3.5 3.5 1.5 3.5 3.5zm-1.7 0c0-1.2-.8-1.9-1.7-1.9-.9 0-1.7.6-1.7 1.9 0 1.2.8 1.9 1.7 1.9.9 0 1.7-.6 1.7-1.9zM93.1 41.2h1.1c.1 0 .2.1.2.2v1.2c0 .1-.1.2-.2.2h-1.1v2.8c0 .6.3.8.8.8h.3c.1 0 .2.1.2.2v1.1c0 .1-.1.2-.1.2-.2.1-.5.1-.9.1-1.3 0-2.1-.8-2.1-2v-3.1h-1c-.1 0-.2-.1-.2-.2v-1.2c0-.1.1-.2.2-.2h.1c.7 0 1-.5 1-1v-.7c0-.1.1-.2.2-.2h1.2c.1 0 .2.1.2.2v1.6h.1zM159.2 55.6c0 .1-.1.2-.2.2h-.3c-.9 0-1.7.4-1.7 1.9v2.8c0 .1-.1.2-.2.2h-1.4c-.1 0-.2-.1-.2-.2v-6.2c0-.1.1-.2.2-.2h1.3c.1 0 .2.1.2.2v.8c.4-.9 1.3-1 1.9-1h.2c.1 0 .2.1.2.2v1.3zM147 55.6c0 .1-.1.2-.2.2h-.3c-.9 0-1.7.4-1.7 1.9v2.8c0 .1-.1.2-.2.2h-1.4c-.1 0-.2-.1-.2-.2v-6.2c0-.1.1-.2.2-.2h1.3c.1 0 .2.1.2.2v.8c.4-.9 1.3-1 1.9-1h.2c.1 0 .2.1.2.2v1.3zM160.6 63l1.4-3.2-2.7-5.5c-.1-.1 0-.3.2-.3h1.5c.1 0 .2 0 .2.1L163 58l1.6-3.7c0-.1.1-.1.2-.1h1.5c.1 0 .2.2.2.3l-4 8.8c0 .1-.1.1-.2.1h-1.5c-.2-.1-.3-.2-.2-.4zM152.1 59.8c-.3.6-1 1.1-1.9 1.1-1.9 0-3.2-1.5-3.2-3.5 0-1.9 1.3-3.5 3.2-3.5 1.2 0 1.7.6 1.9 1v-.6c0-.1.1-.2.2-.2h1.3c.1 0 .2.1.2.2v6.2c0 .1-.1.2-.2.2h-1.3c-.1 0-.2-.1-.2-.2.1-.1 0-.4 0-.7zm-1.6-.4c.9 0 1.6-.8 1.6-2s-.7-1.9-1.6-1.9c-1 0-1.7.7-1.7 1.9s.7 2 1.7 2zM135.4 60.5v-9.3c0-.1.1-.2.2-.2h1.4c.1 0 .2.1.2.2v3.6c.3-.5 1-.9 2-.9 1.9 0 3 1.5 3 3.5s-1.2 3.5-3.1 3.5c-.9 0-1.6-.4-2-1v.6c0 .1-.1.2-.2.2h-1.3c-.1 0-.2-.1-.2-.2zm3.4-5c-.9 0-1.7.7-1.7 1.9s.8 1.9 1.7 1.9c.9 0 1.6-.7 1.6-1.9s-.7-1.9-1.6-1.9zM133.2 50.8c.6 0 1.1.5 1.1 1.1 0 .6-.5 1.1-1.1 1.1-.6 0-1.1-.5-1.1-1.1 0-.6.5-1.1 1.1-1.1zm-.9 9.7v-6.2c0-.1.1-.2.2-.2h1.4c.1 0 .2.1.2.2v6.2c0 .1-.1.2-.2.2h-1.4c-.1 0-.2-.1-.2-.2zM129.3 60.5v-9.3c0-.1.1-.2.2-.2h1.4c.1 0 .2.1.2.2v9.3c0 .1-.1.2-.2.2h-1.4c-.2 0-.2-.1-.2-.2zM121.1 57.4c0 1.2.8 1.9 1.7 1.9.8 0 1.3-.5 1.5-.9 0-.1.2-.2.3-.1l1.2.4c.1 0 .2.2.1.3-.4 1-1.4 2-3 2-1.9 0-3.5-1.5-3.5-3.5s1.5-3.5 3.4-3.5c1.7 0 2.7 1 3 2 0 .1 0 .2-.1.3l-1.2.4c-.1 0-.2 0-.3-.1-.2-.5-.6-.9-1.4-.9-.9-.1-1.7.5-1.7 1.7zM117.6 50.8c.6 0 1.1.5 1.1 1.1 0 .6-.5 1.1-1.1 1.1-.6 0-1.1-.5-1.1-1.1 0-.6.5-1.1 1.1-1.1zm-.9 9.7v-6.2c0-.1.1-.2.2-.2h1.4c.1 0 .2.1.2.2v6.2c0 .1-.1.2-.2.2h-1.4c-.1 0-.2-.1-.2-.2zM113.7 60.5v-9.3c0-.1.1-.2.2-.2h1.4c.1 0 .2.1.2.2v9.3c0 .1-.1.2-.2.2h-1.4c-.1 0-.2-.1-.2-.2zM106.1 60.5v-9.3c0-.1.1-.2.2-.2h1.4c.1 0 .2.1.2.2v3.6c.3-.5 1-.9 2-.9 1.9 0 3 1.5 3 3.5s-1.2 3.5-3.1 3.5c-.9 0-1.6-.4-2-1v.6c0 .1-.1.2-.2.2h-1.3c-.1 0-.2-.1-.2-.2zm3.4-5c-.9 0-1.7.7-1.7 1.9s.8 1.9 1.7 1.9c.9 0 1.6-.7 1.6-1.9s-.7-1.9-1.6-1.9zM103.1 60c-.4.6-1.1.9-1.8.9-1.6 0-2.5-1.2-2.5-2.6v-4c0-.1.1-.2.2-.2h1.4c.1 0 .2.1.2.2v3.6c0 .7.4 1.3 1.2 1.3.8 0 1.2-.5 1.2-1.3v-3.6c0-.1.1-.2.2-.2h1.4c.1 0 .2.1.2.2v6.2c0 .1-.1.2-.2.2h-1.3c-.1 0-.2-.1-.2-.2V60zM91.3 63.1v-8.8c0-.1.1-.2.2-.2h1.3c.1 0 .2.1.2.2v.6c.3-.5 1-1 2-1 1.9 0 3 1.5 3 3.4 0 2-1.2 3.5-3.1 3.5-.9 0-1.6-.4-1.9-.8v3c0 .1-.1.2-.2.2h-1.4c0 .1-.1 0-.1-.1zm3.4-7.5c-.9 0-1.7.7-1.7 1.9s.7 1.9 1.7 1.9c.9 0 1.6-.7 1.6-1.9 0-1.3-.7-1.9-1.6-1.9z"/>
</svg>
