<svg xmlns="http://www.w3.org/2000/svg" focusable="false" role="img" viewBox="0 0 200 100" fill="currentColor">
  <path fill-rule="evenodd" d="M77.687 45.423c.195-.392.386-.787.588-1.176 1.003-1.923 2.326-3.567 4.178-4.744 1.244-.79 2.605-1.264 4.06-1.466.72-.1 2.187-.09 2.187-.09v7.58s-.83-.024-1.247.003c-2.528.16-4.785.975-6.594 2.81-1.332 1.352-2.135 2.997-2.62 4.81a16.694 16.694 0 00-.556 4.322c-.005 2.613-.003 12.426-.003 12.426h-7.16V44.686H54.657c-.044.078-.022.162-.023.24v15.068c0 .665.087 1.31.34 1.934.33.815.917 1.348 1.74 1.644.766.276 1.56.27 2.356.237 1.122-.047 2.186-.34 3.216-.772.196-.083.388-.175.61-.275.003.092.01.17.01.247 0 1.014 0 4.056.002 4.564l.003.78c.002.175-.073.287-.224.37-1.296.717-2.687 1.146-4.144 1.357-1.045.152-2.1.154-3.153.093-2.195-.126-4.44-.803-5.93-2.5a6.83 6.83 0 01-1.032-1.577c-.378-.794-.604-1.632-.762-2.493-.15-.827-.185-1.66-.185-2.497.002-2.616.003-31.106.003-31.106h7.15v8.523h23.045v6.937l.01-.037c.194-.392-.004.013 0 0h-.002zm66.345-6.89h7.487c-.008.148-.084.27-.135.397-3.818 9.396-12.166 29.916-12.513 30.783-.056.14-.12.204-.286.203-1.113-.004-5.577 0-5.852 0-.107 0-.237.02-.34-.024-.074-.033-.113-.108-.143-.18-2.187-5.367-10.6-25.958-12.613-30.888-.036-.088-.07-.18-.104-.27.072-.046.14-.025.203-.025 2.42-.003 4.84 0 7.262-.006.158 0 .233.042.29.197 2.57 7.03 8.303 22.674 8.303 22.674l8.442-22.86-.001-.001zM92.464 31.08h25.247v3.505H92.465l-.001-3.505z" clip-rule="evenodd"/>
  <path fill-rule="evenodd" d="M77.687 45.423l-.008.038c-.002-.01-.002-.024-.002-.037h.01v-.001zm44.123 6.117a15.618 15.618 0 00-2.002-5.75 16.333 16.333 0 00-4.164-4.65c-1.8-1.37-3.887-2.31-6.08-2.843a17.8 17.8 0 00-7.41-.2c-2.01.37-3.96 1.063-5.71 2.12-1.75 1.06-3.258 2.467-4.49 4.095-1.272 1.68-2.245 3.582-2.786 5.62-.54 2.036-.64 4.165-.385 6.25.245 2.007.813 3.97 1.77 5.754.937 1.742 2.22 3.276 3.728 4.552a16.316 16.316 0 005.576 3.108c2.106.67 4.36.918 6.563.782 2.253-.138 4.5-.717 6.533-1.703a15.794 15.794 0 004.94-3.77c1.36-1.538 2.463-3.3 3.17-5.226.694-1.89.992-3.906.94-5.915a19.266 19.266 0 00-.193-2.225c-.532-3.697.75 5.205 0 0v.001zm-7.965 7.3c-.757 1.627-1.91 3.058-3.456 3.997-1.707 1.037-3.766 1.466-5.748 1.32-2.043-.152-4.012-.962-5.54-2.33a9.399 9.399 0 01-2.093-2.744c-.538-1.063-.883-2.232-1.07-3.405a10.776 10.776 0 01-.024-3.32c.17-1.117.53-2.198 1.04-3.203.47-.92 1.052-1.788 1.78-2.523a8.252 8.252 0 012.234-1.598 9.416 9.416 0 012.72-.823 10.428 10.428 0 013.218.005c2.088.347 4.012 1.456 5.415 3.032 1.38 1.55 2.155 3.528 2.426 5.57.272 2.055-.03 4.14-.905 6.022-1.385 2.978 1.073-2.31 0 0h.003z" clip-rule="evenodd"/>
</svg>
