<svg xmlns="http://www.w3.org/2000/svg" focusable="false" role="img" viewBox="0 0 200 100" fill="currentColor">
  <path fill-rule="evenodd" d="M60.03 17h78.87l-5.76 15h9.68l-9.53 17h49.61l-18.51 24.3h-44.85c-3.12 3.9-8 6.52-13.31 7.71a30.9 30.9 0 01-17.53-1.2 21.53 21.53 0 01-9.3-6.51H34.54L16 49h49.63L56.1 32h9.69l-5.76-15zm4.37 3l5.76 15h-8.94l9.53 17H22.06l14 18.3H80.9l.45.58a18.55 18.55 0 008.42 6.11 27.91 27.91 0 0015.82 1.08c5.09-1.14 9.46-3.66 12-7.16l.45-.62h44.86l13.94-18.3h-48.67l9.53-17h-8.93l5.76-15L64.4 20zm34 39.55c.068-.42.102-.845.1-1.27h-4.07a19.32 19.32 0 004 1.27h-.03zm.1-4.52v-9.44c-.43 0-.87.13-1.32.22v5.56c-.04 1.81.39 3 1.29 3.66h.03zm-71.55-.66l10.27 13.48h41.87l-7.55-13.48H26.95zm71.52-11.73v-1.67h-1.32v1.66h.91c.136-.015.274-.015.41 0v.01zm-7.32 8.73v-3a5.267 5.267 0 00-2.12 4c.023.91.327 1.79.87 2.52a4.38 4.38 0 001.25-3.52zm36.23 3l-7.55 13.48h41.87l10.27-13.48h-44.59zM67.9 22.45l16.82 43.92a15.78 15.78 0 0029.48 0l16.83-43.83-63.13-.09zm46.05 32.42l1.7 1.63a22.189 22.189 0 01-9.5 5.63 4.88 4.88 0 002.69.42v2.5H94.03v-2.5c.333.02.667.02 1 0-6.1-1-12.88-3.9-12.88-10.38 0-4.62 4.32-7.32 9-8.63v-2.37a7.66 7.66 0 00-3.52 2.76l-1.6-1.56 3.6-4.75h1.52v-3.57h-5.81c-2.14 0-3.79 1.42-5 3l-1.6-1.57 3.6-4.74h23.6l3.59 4.75-1.6 1.56c-1.22-1.58-2.86-3-5-3h-5.79v3.54h16.13l3.58 4.75-1.6 1.56c-1.22-1.58-2.87-3-5-3h-5.78v2.47c1.06.24 2.11.51 3.15.85.748.298 1.537.48 2.34.54a1.57 1.57 0 001.51-.83l4.37 4.95-2 1.17c-1.89-2.65-5.38-4-9.37-4.45v12.62c.003.486.047.971.13 1.45a16.661 16.661 0 009.35-4.76v-.04z" clip-rule="evenodd"/>
</svg>
