<svg width="200" height="100" viewBox="0 0 200 100" fill="none" xmlns="http://www.w3.org/2000/svg">
<path fill-rule="evenodd" clip-rule="evenodd" d="M55.72 88.6359C55.72 91.6709 54.88 95.4999 48.272 95.4999C41.664 95.4999 40.824 91.6699 40.824 88.6359V78.4099H42.552V88.6359C42.552 93.0019 45.377 93.9119 48.272 93.9119C51.169 93.9119 53.992 93.0019 53.992 88.6359V78.4099H55.722V88.6359H55.72ZM68.77 78.4099H70.85L82.5 92.6499H82.548V78.4099H84.275V95.0799H82.267L70.544 80.8349H70.498V95.0799H68.77V78.4099ZM108.462 90.0129H99.682L97.42 95.0799H95.55L103.115 78.4099H105.123L112.688 95.0799H110.68L108.462 90.0129ZM104.096 80.1369L100.384 88.4249H107.761L104.097 80.1369H104.096ZM126.557 79.9949H120.02V78.4099H134.822V79.9949H128.282V95.0799H126.557V79.9939V79.9949ZM154.95 90.0129H146.17L143.906 95.0789H142.038L149.602 78.4089H151.612L159.176 95.0789H157.166L154.95 90.0119V90.0129ZM150.583 80.1369L146.873 88.4249H154.249L150.582 80.1369H150.583ZM123.737 27.6499V48.0479L103.48 68.0239V47.8369L123.737 27.6499ZM82.223 27.6499V48.0479L102.48 68.0239V47.8369L82.223 27.6499ZM122.737 26.6499L102.48 6.46289V26.8629L112.556 36.7969L122.736 26.6499H122.737Z" fill="black"/>
</svg>
