<svg width="200" height="100" viewBox="0 0 200 100" fill="none" xmlns="http://www.w3.org/2000/svg">
<path d="M48 22.5C42.5052 22.498 37.1332 24.1256 32.5635 27.1769C27.9938 30.2282 24.4316 34.5662 22.3275 39.6421C20.2233 44.7181 19.6718 50.304 20.7425 55.6935C21.8133 61.0829 24.4583 66.0338 28.343 69.9199C32.2277 73.806 37.1776 76.4528 42.5667 77.5255C47.9557 78.5982 53.5419 78.0486 58.6186 75.9463C63.6953 73.844 68.0346 70.2834 71.0875 65.7148C74.1405 61.1462 75.77 55.7748 75.77 50.28C75.77 42.914 72.8445 35.8496 67.6369 30.6401C62.4293 25.4306 55.366 22.5027 48 22.5ZM47.35 41.24C47.35 41.24 45.15 41.24 45.15 42.06V54.06C45.15 61.06 41.79 64.06 35.41 64.06C28.73 64.06 25.67 61.06 25.67 54.06V42.06C25.67 41.3 23.47 41.21 23.47 41.21C23.47 40.67 23.39 39.93 23.39 39.39C23.39 38.85 23.39 38.11 23.47 37.57H32.59C32.7445 38.7751 32.7445 39.9949 32.59 41.2C32.59 41.2 30.5 41.33 30.5 42.05V54.05C30.5 58.22 31.74 59.81 35.5 59.81C39.26 59.81 40.56 58.23 40.56 54.05V42.05C40.56 41.22 38.47 41.23 38.47 41.23C38.3154 40.0249 38.3154 38.8051 38.47 37.6H47.36C47.5138 38.8051 47.5138 40.0249 47.36 41.23L47.35 41.24ZM65.11 63.64C64.7018 62.6197 64.2136 61.6333 63.65 60.69L59.55 54.29C59.55 54.29 55.47 60.69 55.46 60.69C54.7719 61.6161 54.2009 62.6238 53.76 63.69H47.57L56.57 50.08L48.47 37.6H54.62C54.7971 38.2575 55.0919 38.8775 55.49 39.43L59.6 45.74L63.71 39.43C64.1199 38.8761 64.4095 38.2425 64.56 37.57H71.08L62.53 50.11L71.4 63.7L65.11 63.64Z" fill="black"/>
<path d="M82.3 47.9501L82.49 49.9501C82.9808 49.2231 83.6438 48.6288 84.42 48.2201C85.2532 47.7996 86.1769 47.5901 87.11 47.6101C88.0422 47.5838 88.9623 47.8268 89.76 48.3101C90.5248 48.8088 91.1073 49.5422 91.42 50.4001C91.8787 49.5804 92.5397 48.8919 93.34 48.4001C94.1808 47.8935 95.1486 47.6369 96.13 47.6601C96.8354 47.6284 97.5389 47.7578 98.1869 48.0385C98.8349 48.3192 99.4105 48.7438 99.87 49.2801C100.89 50.7082 101.376 52.4501 101.24 54.2001V63.6801H97.71V54.1801C97.7981 53.1869 97.5479 52.1931 97 51.3601C96.7375 51.0787 96.4153 50.8599 96.0571 50.7197C95.6988 50.5795 95.3136 50.5216 94.93 50.5501C94.2388 50.526 93.5605 50.7415 93.01 51.1601C92.4854 51.5845 92.099 52.1554 91.9 52.8001C91.9 52.9501 91.9 53.0701 91.9 53.1801C91.9 53.2901 91.9 53.3901 91.9 53.4801V63.6701H88.39V54.1801C88.4766 53.201 88.23 52.2214 87.69 51.4001C87.4327 51.1098 87.1124 50.8822 86.7536 50.7348C86.3948 50.5875 86.007 50.5243 85.62 50.5501C84.9883 50.5295 84.3618 50.6706 83.8 50.9601C83.3059 51.2334 82.8974 51.6384 82.62 52.1301V63.6701H79.08V47.9501H82.3Z" fill="black"/>
<path d="M114.42 63.6701C114.293 63.2701 114.19 62.8834 114.11 62.5101C114.027 62.1378 113.971 61.7602 113.94 61.3801C113.435 62.1298 112.773 62.761 112 63.2301C111.207 63.7299 110.287 63.9903 109.35 63.9801C107.976 64.0726 106.622 63.6199 105.58 62.7201C105.13 62.2655 104.781 61.7221 104.553 61.1245C104.326 60.527 104.226 59.8885 104.26 59.2501C104.234 58.5542 104.385 57.8631 104.7 57.242C105.015 56.6209 105.483 56.0903 106.06 55.7001C107.58 54.7677 109.35 54.3244 111.13 54.4301H113.88V53.0001C113.899 52.6453 113.845 52.2903 113.719 51.958C113.593 51.6256 113.399 51.3232 113.15 51.0701C112.576 50.5714 111.828 50.3198 111.07 50.3701C110.382 50.3324 109.702 50.5377 109.15 50.9501C108.922 51.127 108.74 51.355 108.616 51.6155C108.493 51.8761 108.433 52.1619 108.44 52.4501H105.04V52.3601C105.021 51.7156 105.163 51.0765 105.453 50.5005C105.743 49.9245 106.171 49.4295 106.7 49.0601C108.016 48.0546 109.645 47.5447 111.3 47.6201C112.896 47.5461 114.466 48.0424 115.73 49.0201C116.299 49.5126 116.748 50.1295 117.041 50.8231C117.334 51.5167 117.464 52.2684 117.42 53.0201V60.0201C117.418 60.6458 117.461 61.2707 117.55 61.8901C117.637 62.485 117.777 63.0707 117.97 63.6401H114.4L114.42 63.6701ZM110.09 61.1401C110.941 61.1523 111.777 60.9198 112.5 60.4701C113.124 60.1238 113.621 59.5879 113.92 58.9401V56.6201H111.11C110.24 56.5683 109.382 56.8389 108.7 57.3801C108.43 57.5963 108.212 57.8701 108.061 58.1816C107.911 58.493 107.832 58.8342 107.83 59.1801C107.818 59.4471 107.864 59.7135 107.966 59.9605C108.068 60.2076 108.223 60.4293 108.42 60.6101C108.893 60.9916 109.493 61.1808 110.1 61.1401" fill="black"/>
<path d="M125.54 44.1201V47.9401H128.36V50.5601H125.54V59.2501C125.515 59.4981 125.539 59.7485 125.611 59.9871C125.683 60.2256 125.802 60.4476 125.96 60.6401C126.11 60.78 126.286 60.8883 126.478 60.9587C126.671 61.0292 126.875 61.0602 127.08 61.0501C127.271 61.0512 127.462 61.0345 127.65 61.0001C127.827 60.9669 128.001 60.9201 128.17 60.8601L128.55 63.4501C128.21 63.6306 127.847 63.7619 127.47 63.8401C127.046 63.9333 126.614 63.9802 126.18 63.9801C125.62 64.0115 125.06 63.9264 124.535 63.7301C124.01 63.5339 123.532 63.2308 123.13 62.8401C122.313 61.8344 121.919 60.5509 122.03 59.2601V50.5601H119.63V47.9501H122V44.1201H125.52H125.54Z" fill="black"/>
<path d="M135.89 44.1201V47.9401H138.71V50.5601H135.89V59.2501C135.865 59.4981 135.889 59.7485 135.961 59.9871C136.033 60.2256 136.152 60.4476 136.31 60.6401C136.46 60.78 136.636 60.8883 136.828 60.9587C137.021 61.0292 137.225 61.0602 137.43 61.0501C137.621 61.0513 137.812 61.0346 138 61.0001C138.177 60.9667 138.35 60.9199 138.52 60.8601L138.9 63.4501C138.56 63.6306 138.197 63.7619 137.82 63.8401C137.396 63.9333 136.964 63.9802 136.53 63.9801C135.97 64.0146 135.409 63.9309 134.884 63.7345C134.358 63.5381 133.88 63.2334 133.48 62.8401C132.663 61.8344 132.269 60.5509 132.38 59.2601V50.5601H130V47.9501H132.4V44.1201H135.92H135.89Z" fill="black"/>
<path d="M148.59 63.9999C147.596 64.0446 146.604 63.8718 145.683 63.4936C144.763 63.1153 143.936 62.5407 143.26 61.8099C141.894 60.2645 141.177 58.251 141.26 56.1899V55.6099C141.194 53.5303 141.908 51.5011 143.26 49.9199C143.859 49.1978 144.614 48.6204 145.468 48.2308C146.321 47.8412 147.252 47.6494 148.19 47.6699C149.095 47.6117 150.002 47.7546 150.846 48.0883C151.69 48.4219 152.449 48.9381 153.07 49.5999C154.256 51.0534 154.859 52.8964 154.76 54.7699V56.8499H144.95V56.9199C144.941 58.0359 145.311 59.122 146 59.9999C146.346 60.3973 146.778 60.7109 147.263 60.9171C147.748 61.1232 148.274 61.2165 148.8 61.1899C149.627 61.2077 150.451 61.0894 151.24 60.8399C151.95 60.6018 152.623 60.2652 153.24 59.8399L154.37 62.1599C153.666 62.7299 152.863 63.1639 152 63.4399C150.907 63.8185 149.756 64.0013 148.6 63.9799L148.59 63.9999ZM148.19 50.4899C147.779 50.4782 147.37 50.5624 146.997 50.736C146.624 50.9096 146.296 51.1677 146.04 51.4899C145.466 52.2588 145.119 53.1736 145.04 54.1299V54.1999H151.27V53.8399C151.309 52.9628 151.04 52.0995 150.51 51.3999C150.226 51.0756 149.87 50.8218 149.471 50.6586C149.072 50.4955 148.64 50.4274 148.21 50.4599" fill="black"/>
<path d="M165.44 51.13L163.93 51.07C163.326 51.0498 162.73 51.2025 162.21 51.51C161.74 51.8106 161.369 52.2415 161.14 52.75V63.67H157.6V47.95H160.83L161.06 50.23C161.407 49.4837 161.932 48.8345 162.59 48.34C163.217 47.8849 163.975 47.6462 164.75 47.66C164.951 47.6582 165.152 47.675 165.35 47.71C165.522 47.7397 165.693 47.7798 165.86 47.83L165.44 51.13Z" fill="black"/>
<path d="M176.74 59.4C176.745 59.1231 176.68 58.8495 176.55 58.6047C176.421 58.3599 176.232 58.1519 176 58C175.205 57.5154 174.321 57.1958 173.4 57.06C171.872 56.8096 170.416 56.2332 169.13 55.37C168.661 55.0267 168.284 54.5737 168.031 54.0507C167.778 53.5276 167.658 52.9505 167.68 52.37C167.687 51.7136 167.846 51.0677 168.144 50.483C168.443 49.8983 168.873 49.3907 169.4 49C170.652 48.0228 172.213 47.5261 173.8 47.6C175.444 47.513 177.065 48.0166 178.37 49.02C178.91 49.4364 179.341 49.9781 179.625 50.5984C179.909 51.2187 180.038 51.8988 180 52.58V52.67H176.61C176.612 52.3551 176.547 52.0433 176.42 51.7553C176.292 51.4674 176.105 51.2099 175.87 51C175.318 50.5183 174.602 50.2676 173.87 50.3C173.173 50.2504 172.481 50.4527 171.92 50.87C171.71 51.0376 171.54 51.2506 171.424 51.4931C171.308 51.7356 171.249 52.0012 171.25 52.27C171.242 52.5229 171.295 52.7742 171.404 53.0023C171.514 53.2304 171.677 53.4286 171.88 53.58C172.667 54.0357 173.538 54.3281 174.44 54.44C176.015 54.6822 177.518 55.2695 178.84 56.16C179.3 56.51 179.67 56.9649 179.919 57.4867C180.167 58.0085 180.288 58.5822 180.27 59.16C180.281 59.8327 180.128 60.4979 179.823 61.0976C179.518 61.6972 179.07 62.2131 178.52 62.6C177.164 63.5765 175.52 64.0695 173.85 64C172.091 64.0993 170.359 63.5315 169 62.41C168.457 61.9831 168.022 61.4353 167.728 60.8103C167.435 60.1852 167.292 59.5002 167.31 58.81V58.72H170.59C170.577 59.1102 170.662 59.4974 170.837 59.8465C171.012 60.1957 171.27 60.4959 171.59 60.72C172.267 61.1496 173.058 61.3656 173.86 61.34C174.6 61.3868 175.337 61.2053 175.97 60.82C176.203 60.6672 176.393 60.4575 176.523 60.2108C176.652 59.9641 176.717 59.6885 176.71 59.41" fill="black"/>
</svg>
