<svg width="200" height="100" viewBox="0 0 200 100" fill="none" xmlns="http://www.w3.org/2000/svg">
<path fill-rule="evenodd" clip-rule="evenodd" d="M37.202 52.085L24.74 28.43H33.196C34.109 28.43 34.843 28.775 35.262 29.542L44.59 48.772L49.303 33.069C50.375 30.539 52.479 28.735 55.387 28.735H65.335V35.177C63.385 35.189 61.432 35.164 59.481 35.177C58.449 35.177 57.231 35.661 56.941 36.542L50.529 55.957H42.739C40.167 55.957 38.352 54.264 37.203 52.084L37.202 52.085ZM76.094 56.003C74.884 55.958 72.606 55.705 71.027 54.536C69.447 53.366 68.642 51.28 68.664 49.516V22.87H77.464L77.502 25.976C77.524 27.776 78.332 28.956 79.828 29.54C80.726 29.89 81.935 29.997 83.196 29.98L83.099 35.33H77.5V46.565C77.96 50.06 80.314 49.655 83.145 49.44V55C80.591 55.8 78.681 56.003 76.092 56.003H76.094ZM84.467 42.563C84.411 37.791 85.597 34.379 87.98 32.027C90.496 29.545 94.418 28.4 99.81 28.315C106.368 28.349 112.61 30.525 113.89 38.283C114.178 40.033 114.233 42.266 113.927 43.953H95.03C94.233 43.953 93.94 44.058 93.84 44.986C93.698 46.301 94.055 47.48 94.755 48.4C95.715 49.662 97.315 50.44 99.151 50.43C100.395 50.422 102.016 50.096 102.791 49.076C103.897 47.62 103.955 46.656 106.161 46.679L113.546 46.755C113.024 49.935 111.311 52.242 109.031 53.722C106.279 55.508 102.699 56.13 99.389 56.149C94.139 56.177 90.181 54.797 87.529 51.775C85.595 49.569 84.513 46.448 84.469 42.561L84.467 42.563ZM120.707 52.683C117.562 49.971 116.529 46.58 116.529 42.571C116.529 38.659 117.181 35.101 120.057 32.205C122.99 29.252 127.213 28.331 131.759 28.33C135.055 28.328 138.929 29.162 141.561 31.205C143.348 32.593 144.564 34.761 145.117 37.745H137.977C136.325 37.745 135.427 37.445 134.702 36.175C133.882 34.738 132.549 34.341 131.186 34.358C128.896 34.386 127.558 35.962 126.859 37.903C126.411 39.147 126.225 40.543 126.219 41.776C126.209 43.434 126.432 45.594 127.244 47.286C127.974 48.813 129.184 49.96 131.126 50.02C133.526 50.094 134.234 49.146 135.033 47.795C135.663 46.729 136.527 46.67 137.893 46.683L145.033 46.756C144.369 50.169 142.893 52.366 140.61 53.804C137.667 55.658 134.506 56.184 131.202 56.15C127.006 56.108 123.772 55.328 120.706 52.683H120.707ZM171.893 55.803H166.531V38.625C166.531 35.457 163.744 34.5 161.763 34.461C158.303 34.394 156.053 35.775 156.053 39.164V55.801H147.293V23.95C147.289 21.204 148.911 18.5 151.94 18.5H156.053V30.73C158.621 28.775 161.749 28.095 165.073 28.307C170.233 28.635 175.26 31.421 175.26 37.809V52.966C175.26 55.019 173.575 55.801 171.893 55.801V55.803ZM105.27 39.164H95.288C94.304 39.164 93.948 38.774 94.02 37.867C94.25 34.983 96.912 33.597 99.656 33.677C102.856 33.773 104.971 35.427 105.269 39.164H105.27ZM35.674 78.123H30.96V66.003H35.522C37.632 66.003 39.096 67.21 39.096 69.237C39.096 70.514 38.33 71.517 37.309 71.893C38.465 72.318 39.283 73.323 39.283 74.77C39.283 76.965 37.819 78.123 35.673 78.123H35.674ZM35.42 67.16H32.253V71.365H35.419C36.763 71.365 37.802 70.701 37.802 69.253C37.802 67.807 36.762 67.159 35.418 67.159L35.42 67.16ZM35.556 72.522H32.253V76.965H35.556C37.053 76.965 37.99 76.098 37.99 74.735C37.99 73.373 37.053 72.522 35.556 72.522ZM46.857 78.123V77.323C46.177 78.003 45.563 78.225 44.439 78.225C43.281 78.225 42.599 78.005 42.072 77.459C41.664 77.049 41.442 76.419 41.442 75.756C41.442 74.292 42.464 73.338 44.337 73.338H46.857V72.538C46.857 71.312 46.243 70.698 44.711 70.698C43.638 70.698 43.094 70.954 42.601 71.652L41.766 70.886C42.516 69.916 43.366 69.643 44.728 69.643C46.974 69.643 48.081 70.613 48.081 72.435V78.121H46.855L46.857 78.123ZM46.857 74.259H44.507C43.247 74.259 42.635 74.769 42.635 75.739C42.635 76.709 43.231 77.169 44.559 77.169C45.273 77.169 45.903 77.119 46.429 76.607C46.719 76.335 46.856 75.857 46.856 75.16V74.26L46.857 74.259ZM53.698 78.225C52.285 78.225 51.178 77.902 50.258 77.015L51.076 76.2C51.74 76.898 52.642 77.17 53.681 77.17C55.061 77.17 55.911 76.677 55.911 75.688C55.911 74.958 55.486 74.548 54.516 74.463L53.136 74.343C51.503 74.208 50.636 73.476 50.636 72.096C50.636 70.566 51.928 69.646 53.716 69.646C54.906 69.646 55.98 69.936 56.729 70.548L55.929 71.348C55.333 70.888 54.567 70.684 53.699 70.684C52.473 70.684 51.826 71.212 51.826 72.064C51.826 72.778 52.236 73.204 53.291 73.288L54.635 73.408C56.099 73.544 57.105 74.106 57.105 75.672C57.105 77.289 55.725 78.225 53.699 78.225H53.698ZM60.266 74.26C60.266 76.098 61.136 77.152 62.736 77.152C63.706 77.152 64.266 76.864 64.931 76.2L65.766 76.93C64.916 77.783 64.132 78.225 62.702 78.225C60.49 78.225 59.042 76.898 59.042 73.935C59.042 71.229 60.354 69.645 62.482 69.645C64.644 69.645 65.922 71.212 65.922 73.697V74.259H60.268L60.266 74.26ZM64.436 71.943C64.114 71.178 63.366 70.683 62.48 70.683C61.594 70.683 60.845 71.178 60.522 71.943C60.335 72.403 60.302 72.658 60.266 73.339H64.693C64.659 72.657 64.623 72.402 64.437 71.942L64.436 71.943ZM74.157 77.493C73.714 77.936 72.965 78.225 72.114 78.225C71.194 78.225 70.428 78.005 69.748 77.119V78.122H68.522V66.002H69.748V70.716C70.428 69.849 71.195 69.644 72.114 69.644C72.964 69.644 73.714 69.934 74.157 70.377C75.007 71.227 75.177 72.623 75.177 73.934C75.177 75.244 75.007 76.641 74.157 77.492V77.493ZM71.859 70.735C70.036 70.735 69.747 72.301 69.747 73.935C69.747 75.57 70.037 77.135 71.857 77.135C73.679 77.135 73.952 75.57 73.952 73.935C73.952 72.301 73.679 70.735 71.858 70.735H71.859ZM82.547 78.123V77.323C81.867 78.003 81.253 78.225 80.129 78.225C78.971 78.225 78.289 78.005 77.762 77.459C77.354 77.049 77.132 76.419 77.132 75.756C77.132 74.292 78.154 73.338 80.027 73.338H82.547V72.538C82.547 71.312 81.933 70.698 80.401 70.698C79.328 70.698 78.784 70.954 78.291 71.652L77.456 70.886C78.206 69.916 79.056 69.643 80.418 69.643C82.664 69.643 83.771 70.613 83.771 72.435V78.121H82.545L82.547 78.123ZM82.547 74.259H80.197C78.937 74.259 78.327 74.769 78.327 75.739C78.327 76.709 78.921 77.169 80.249 77.169C80.963 77.169 81.593 77.119 82.119 76.607C82.409 76.335 82.546 75.857 82.546 75.16V74.26L82.547 74.259ZM88.843 78.123C87.379 78.123 86.715 77.17 86.715 75.893V66.003H87.941V75.843C87.941 76.659 88.215 77.067 89.066 77.067H89.73V78.123H88.843ZM93.898 78.123C92.434 78.123 91.77 77.17 91.77 75.893V66.003H92.996V75.843C92.996 76.659 93.269 77.067 94.12 77.067H94.784V78.123H93.898ZM108.332 76.83C107.482 77.75 106.34 78.225 105.097 78.225C103.907 78.225 102.817 77.783 102 76.965C100.86 75.825 100.86 74.635 100.86 72.063C100.86 69.493 100.86 68.3 102 67.159C102.816 66.342 103.89 65.899 105.097 65.899C107.413 65.899 108.979 67.397 109.337 69.525H108.043C107.703 67.993 106.613 67.057 105.097 67.057C104.297 67.057 103.531 67.38 103.003 67.925C102.238 68.708 102.153 69.525 102.153 72.062C102.153 74.598 102.238 75.432 103.003 76.215C103.531 76.76 104.297 77.065 105.097 77.065C105.983 77.065 106.834 76.709 107.397 76.028C107.889 75.432 108.077 74.768 108.077 73.831V72.911H105.097V71.771H109.371V73.695C109.371 75.091 109.081 76.027 108.333 76.827L108.332 76.83ZM112.092 67.364V65.984H113.472V67.364H112.092ZM112.162 78.124V69.748H113.386V78.123H112.161L112.162 78.124ZM119.274 78.123H118.184L115.121 69.748H116.451L118.731 76.472L121.029 69.748H122.357L119.275 78.123H119.274ZM124.67 74.26C124.67 76.098 125.538 77.152 127.138 77.152C128.108 77.152 128.67 76.864 129.334 76.2L130.168 76.93C129.318 77.783 128.534 78.225 127.104 78.225C124.891 78.225 123.444 76.898 123.444 73.935C123.444 71.229 124.754 69.645 126.884 69.645C129.044 69.645 130.321 71.212 130.321 73.697V74.259H124.671L124.67 74.26ZM128.84 71.943C128.517 71.178 127.768 70.683 126.883 70.683C125.997 70.683 125.248 71.178 124.925 71.943C124.738 72.403 124.705 72.658 124.669 73.339H129.095C129.061 72.657 129.025 72.402 128.839 71.942L128.84 71.943ZM137.673 78.123V77.323C136.993 78.003 136.38 78.225 135.256 78.225C134.099 78.225 133.418 78.005 132.89 77.459C132.48 77.049 132.26 76.419 132.26 75.756C132.26 74.292 133.28 73.338 135.155 73.338H137.673V72.538C137.673 71.312 137.061 70.698 135.529 70.698C134.455 70.698 133.911 70.954 133.417 71.652L132.583 70.886C133.333 69.916 134.183 69.643 135.543 69.643C137.793 69.643 138.899 70.613 138.899 72.435V78.121H137.672L137.673 78.123ZM137.673 74.259H135.323C134.065 74.259 133.453 74.769 133.453 75.739C133.453 76.709 134.048 77.169 135.376 77.169C136.091 77.169 136.721 77.119 137.248 76.607C137.538 76.335 137.673 75.857 137.673 75.16V74.26V74.259ZM149.843 78.123H148.703L146.507 71.62L144.327 78.123H143.187L140.531 69.748H141.861L143.783 76.472L145.98 69.748H147.034L149.247 76.472L151.154 69.748H152.482L149.842 78.123H149.843ZM158.948 78.123V77.323C158.268 78.003 157.655 78.225 156.531 78.225C155.375 78.225 154.693 78.005 154.166 77.459C153.756 77.049 153.536 76.419 153.536 75.756C153.536 74.292 154.556 73.338 156.43 73.338H158.948V72.538C158.948 71.312 158.335 70.698 156.804 70.698C155.731 70.698 155.186 70.954 154.692 71.652L153.859 70.886C154.606 69.916 155.459 69.643 156.819 69.643C159.067 69.643 160.174 70.613 160.174 72.435V78.121H158.947L158.948 78.123ZM158.948 74.259H156.598C155.34 74.259 154.728 74.769 154.728 75.739C154.728 76.709 155.323 77.169 156.65 77.169C157.366 77.169 157.996 77.119 158.523 76.607C158.813 76.335 158.948 75.857 158.948 75.16V74.26V74.259ZM165.228 80.15C165.058 80.61 164.87 80.915 164.632 81.136C164.19 81.562 163.592 81.716 162.998 81.716H162.47V80.626H162.844C163.696 80.626 163.951 80.353 164.224 79.586L164.819 77.953L161.805 69.748H163.133L165.433 76.472L167.713 69.748H169.04L165.228 80.148V80.15Z" fill="black"/>
</svg>
