<svg fill="none" height="100" viewBox="0 0 200 100" width="200" xmlns="http://www.w3.org/2000/svg" xmlns:xlink="http://www.w3.org/1999/xlink"><clipPath id="a"><path d="m18 30h164v39.1585h-164z"/></clipPath><g clip-path="url(#a)" fill="#000"><path d="m59.3377 54.944c-4.3473 0-4.9876-3.3132-4.9876-8.3911v-.2693h11.1874c0-4.5156-2.5019-7.6164-7.1774-7.6164-5.0991 0-7.8518 3.9304-7.8518 8.6605 0 4.9323 2.5834 8.6605 7.8191 8.6605 3.2399 0 5.8692-1.2243 7.2446-4.8042l-.7894-.2575c-.9502 2.236-2.5374 4.0175-5.4449 4.0175zm-4.9572-10.4663c.1835-2.5121 1.0996-4.944 3.7441-4.944 2.8155 0 3.4346 2.1998 3.4968 4.528.0054.2167.0078.9702.0078 1.1767h-7.2791c0-.2254.0138-.5248.0304-.7607z"/><path d="m69.0214 64.793c-1.177-.3774-1.547-.5886-1.547-1.2151 0-.5136.4532-.9134 1.2-.9134.7022 0 1.1925.2872 1.4713 1.0117l.4531-.2119c-.2642-.7471-.8674-1.283-1.917-1.283-1.0188 0-1.7355.6342-1.7355 1.4341 0 .9208.6112 1.2456 1.8109 1.6223 1.1847.3775 1.4638.6718 1.4638 1.2527 0 .6268-.543 1.011-1.3807 1.011-.785 0-1.3507-.3994-1.5994-1.1766l-.4758.173c.264.9063 1.004 1.4791 2.0529 1.4791 1.1168 0 1.9393-.5954 1.9393-1.524.0003-.9053-.5731-1.2902-1.7359-1.6599z"/><path d="m63.7611 63.7972c0-.9813-.6944-1.5095-1.9396-1.5095h-1.8714v5.5834h.5281v-2.5046h1.3885l1.3659 2.5046h.6035l-1.4115-2.5654c.808-.1501 1.3365-.6029 1.3365-1.5085zm-1.9775 1.0942h-1.3054v-2.1134h1.298c.9357 0 1.4486.2721 1.4486 1.0408 0 .8087-.5204 1.0726-1.4412 1.0726z"/><path d="m53.4614 32.1519v-.8262h-6.8503v.8262h3.0291l-.7921 2.7537-4.7497 14.5281h-.0683l-5.3364-14.5964-.9303-2.6854h3.4072v-.8262h-10.5352v.8262h2.9267l1.722 4.647-4.373 12.6348h-.0686l-5.2677-14.5278-.929-2.7537h3.0291v-.8265h-9.6749v.8262h2.3414l1.2388 3.2704 7.5396 20.52h.6901s4.6142-13.2217 6.0926-17.491l6.508 17.491h.7241l6.8155-20.761 1.0671-3.0291z"/><path d="m28.9262 65.9099c0 .9285-.4599 1.5773-1.4942 1.5773-1.0408 0-1.5011-.6792-1.5011-1.5926v-3.6069h-.5362v3.6972c0 1.1094.6565 1.9846 2.0298 1.9846 1.3588 0 2.0377-.8905 2.0377-1.9998v-3.682h-.536z"/><path d="m74.6187 55.0613c-3.2961 0-5.2333-2.1444-5.9541-5.2907h-.8205l1.1037 6.0385c.3571-.4176.8255-.5697 1.2955-.5697.9503 0 2.1543.7275 4.2939.7275 3.4353 0 6.0312-1.9119 6.0312-5.1684 0-6.5117-9.3427-4.7923-9.3427-9.0008 0-1.3395.9536-2.3299 2.6759-2.3299 2.7307 0 4.2574 1.9282 4.9137 4.2189h.809l-.933-5.1603c-.3126.3511-.7286.5437-1.2385.5437-1.1357 0-1.8352-.4704-3.5715-.4704-2.9719 0-5.2752 1.6152-5.2752 4.547 0 6.0018 9.1995 4.7207 9.1995 9.0335-.0007 1.9539-1.423 2.8811-3.1869 2.8811z"/><path d="m36.9555 66.8905h-.0152l-3.0791-4.6028h-.5735v5.5838h.5055v-4.7461h.0153l3.177 4.7461h.4755v-5.5838h-.5055z"/><path d="m42.1547 62.2877h-.5359v5.5834h.5359z"/><path d="m47.7391 67.1625h-.0152l-1.668-4.8748h-.5508l1.9623 5.6067h.5055l1.962-5.6067h-.5204z"/><path d="m53.7161 65.1627h2.0904v-.4832h-2.0904v-1.8934h2.8v-.4984h-3.3356v5.5838h3.4938v-.4897h-2.9582z"/><path d="m74.6819 62.2877h-.5353v5.5834h.5353z"/><path d="m125.424 62.2646-2.086 5.6068h.523l.631-1.7177h2.474l.631 1.7177h.561l-2.086-5.6068zm-.757 3.4137 1.052-2.8537h.021l1.05 2.8537z"/><path d="m77.6045 62.7861h1.8031v5.0854h.536v-5.0854h1.8034v-.4984h-4.1425z"/><path d="m124.442 40.9455c0-1.3351-.988-2.3455-2.821-2.3455-2.742 0-4.102 2.4597-4.809 4.4139h-.044v-4.55c-.545.4474-1.097.8786-2.551.8786-1.057 0-3.784 0-3.784 0v.842h2.898v14.5568h-2.898v.8428h9.132v-.8428h-2.797v-7.1773c0-3.8188 1.875-7.9657 4.284-7.9657.18 0 .301.0209.4.0672-.414.3325-.678.8418-.678 1.4135 0 1.0597.813 1.8153 1.815 1.8153 1.093-.0003 1.853-.9087 1.853-1.9488z"/><path d="m133.179 62.2877h-1.411v5.5834h1.411c1.796 0 2.777-.9576 2.777-2.7989 0-1.8414-.959-2.7845-2.777-2.7845zm.078 5.1164h-.966v-4.6335h.951c1.4 0 2.192.7137 2.192 2.3016 0 1.625-.784 2.3319-2.177 2.3319z"/><path d="m140.98 62.2646-2.085 5.6068h.522l.632-1.7177h2.473l.631 1.7177h.561l-2.086-5.6068zm-.757 3.4137 1.052-2.8537h.021l1.05 2.8537z"/><path d="m142.511 54.7413v-11.323c0-3.3693-1.651-4.8193-4.954-4.8193-2.763 0-4.784 1.3489-5.829 3.6403h-.068v-3.7093c-.454.3734-1.068.8124-2.565.8124-.976 0-3.567 0-3.567 0v.8421h2.695v14.5568h-2.897v.8427h8.997v-.8427h-2.663v-8.7612c0-3.1335 1.614-6.1677 4.663-6.1677 1.713 0 2.751.9675 2.751 3.5046v11.4246h-2.662v.8428h8.762v-.8428z"/><path d="m119.27 66.8905h-.015l-3.079-4.6028h-.574v5.5838h.506v-4.7461h.015l3.177 4.7461h.476v-5.5838h-.506z"/><path d="m90.0994 54.6375c-1.2841 0-1.816-.8052-1.816-2.7932v-11.6598h4.1466v-.8421h-4.1466v-5.5665h-.7113c-.4606 3.5934-2.2637 5.4323-5.5283 5.7452v.6627l-.0007.0007h.0007 2.7303v11.5243c0 2.1563.4197 4.2121 3.9246 4.2121 2.2093 0 3.5502-1.0191 4.2497-2.3431l.2689-.5373-.7302-.3477c-.44.9796-1.1384 1.9447-2.3877 1.9447z"/><path d="m109.27 62.2646-2.085 5.6068h.523l.631-1.7177h2.473l.631 1.7177h.561l-2.085-5.6068zm-.757 3.4137 1.052-2.8537h.021l1.05 2.8537z"/><path d="m86.3305 64.9515-1.5699-2.6638h-.5809l1.8717 3.144v2.4398h.5356v-2.4398l1.8788-3.144h-.5734z"/><path d="m93.8834 64.5372c-.3288 0-.5657.2362-.5657.5698 0 .3288.2369.5656.5657.5656.3335 0 .5701-.2368.5701-.5656-.0004-.3336-.2366-.5698-.5701-.5698z"/><path d="m101.965 67.4946c-1.087 0-1.795-.9056-1.795-2.4526 0-1.4335.7-2.3695 1.78-2.3695.852 0 1.268.4599 1.517 1.3432l.514-.128c-.264-1.0344-.891-1.7062-2.022-1.7062-1.397 0-2.325 1.1848-2.325 2.8757 0 1.7812.913 2.9199 2.325 2.9199 1.116 0 1.841-.6856 2.112-1.7879l-.513-.1128c-.241.935-.762 1.4182-1.593 1.4182z"/><path d="m109.138 51.184-.789-.2575c-.951 2.236-2.538 4.0175-5.446 4.0175-4.3465 0-4.9869-3.3132-4.9869-8.3911v-.2693h11.1869c0-4.5156-2.502-7.6164-7.177-7.6164-5.099 0-7.8517 3.9304-7.8517 8.6605 0 4.9323 2.5834 8.6605 7.8187 8.6605 3.24 0 5.87-1.2243 7.245-4.8042zm-11.1915-6.7063c.1832-2.5121 1.0996-4.944 3.7445-4.944 2.815 0 3.434 2.1998 3.496 4.528.006.2167.008.9702.008 1.1767h-7.2789c0-.2254.0135-.5248.0304-.7607z"/><path d="m181.999 46.2014-.002-14.08c-3.644-1.2881-9.362-2.1214-15.812-2.1214-6.325 0-11.956.8289-15.598 2.1211l-.002 14.2841c0 2.1056-.095 5.8328 1.819 10.295 2.377 5.5405 6.979 9.7073 13.546 12.3188l.342.1392.337-.1379c6.572-2.6128 11.174-6.7793 13.551-12.3201 1.916-4.4619 1.819-8.4797 1.819-10.4988zm-12.272 15.4037c-.071.0209-.156.0527-.223.0858-.045.0209-.071.0351-.077.0713-.004.025.024.0615.039.0784-.04.1497-.397.1314-.514.1723-.101.0345-.218.146-.285.2173-.067.074-.044.0554-.152.0774-.192.0395-.15.2152-.091.3545.058.1399.158.2521.286.3352.045.0304.249.1088.359.1088-.106.1149-.255.0865-.388.1426-.075.0304-.143.0726-.225.0912-.111.0237-.167.0166-.26.0014-.145-.0277-.258-.021-.378-.0085-.091.0092-.168-.0013-.246-.0456-.036-.0186-.104-.0693-.138-.0753-.11-.0173-.022.1446.001.2014-.149.1426-.49-.0541-.625-.1372-.119-.072-.181-.2389-.317-.2825-.01.1439-.003.2872.003.4301.017.4383.027.8759.041 1.3128.007.2575.014.514.022.7695h-.482l.057-2.5317c-.153.0098-.214.1517-.339.2065-.079.0338-.159.0179-.232.0635-.078.049-.108.1135-.197.1558-.075.0324-.169.0456-.251.0436-.104-.0007-.218-.02-.274-.0778.051-.0922 0-.1875-.065-.2223-.075-.0389-.178.0199-.242.0355-.336.0845-.729-.122-1.034-.2369 0 0 .737-.1247.737-.5552 0-.1196-.055-.2173-.146-.2937-.086-.0706-.249-.1544-.361-.1709-.184-.0264-.309.0209-.422-.0237.016-.0588-.083-.1399-.16-.1953-.074-.0514-.165-.0777-.245-.12-.148-.076-.368-.2132-.307-.4058.118.0608.233.074.34.0179.085-.0463.115-.1129.115-.2132-.002-.1352-.151-.2264-.204-.3281-.042-.0825-.08-.1606-.157-.2197-.069-.0541-.184-.072-.188-.175.142.0554.181-.0693.097-.1622-.093-.1051-.217-.1545-.288-.2852-.062-.1163-.108-.2535-.11-.3873-.001-.0388.006-.1524.062-.1629.053-.0111.071.0588.093.0923.088.1294.217.1919.349.2582.162.0811.227.1253.409.1584.357.0636.583.0112.789-.178.035-.0332.123-.0957.166-.0997.071.1017.26.2977.443.3511.137.0382.293.2328.364.295.246.2146.397.0922.396-.1136-.002-.1716-.065-.3967-.102-.5602-.06-.2673-.112-.3981-.148-.6752-.022-.1696-.116-.3129-.179-.4308-.063-.1183-.152-.4238.072-.3163.091.0436.23.1267.341.1115.262-.0362.294-.3214.344-.5346.028-.1108.029-.2014.069-.3116.023-.0645.054-.101.087-.1023.011.0331.047.0922.103.0922.101 0 .187-.1737.213-.2757.02-.0865.038-.1899.063-.268.046-.1335.057-.2903.128-.4383.027.099.071.2751.095.3359.06.1571.114.3149.208.4454.078.1115.179.146.304.0804.062.148.062.6343.189.8614.075.1344.169.1828.283.1828.103 0 .175-.0318.249-.0754.089-.0534.189-.1213.256-.1213.029 0 .048.0152.048.0436 0 .1031-.158.3768-.179.4356-.049.1334-.125.2818-.165.4156-.032.1115-.066.2521-.09.3697-.026.1314-.049.2832-.058.4896-.007.1227.003.3434.095.4086.134.0915.304-.0899.414-.1744.131-.1017.243-.2.341-.3352.074-.0997.219-.3602.358-.347-.002.1044.147.2514.368.2858.136.0206.247-.0071.326-.0659.103-.0753.11-.0713.227-.0284.253.0964.67-.2328.819-.3517.051.054.004.1524-.061.2507-.121.1801-.255.2376-.258.3724-.003.1183-.146.3393-.136.4714-.044.076-.183.1592-.246.2112-.185.1564-.297.3359-.23.5822.057.2132.233.3163.397.3163.166 0 .273-.1108.327-.0845.033.0206-.048.122-.08.1491-.091.0756-.235.1338-.337.1649zm9.378-19.9297h-25.61l-1.638-1.718 3.269 1.0878c-.269-.8141-1.016-1.0959-1.498-1.7924-.288-.4129-.384-.8201-.352-1.2435.087.1507.245.3579.492.5285.236.1629.554.2899.986.3832.771.1666 1.169.4102 1.509.7242l-1.673-2.9919 2.882 1.8578c-.12-.8566-.711-1.3006-1.005-2.0924-.175-.4714-.17-.8944-.034-1.2962.047.1673.147.4079.345.6339.188.2156.463.418.859.6164.73.3649 1.055.711 1.309 1.1158l-.888-3.3542 2.317 2.5006c.092-.8414-.363-1.4216-.45-2.2563-.052-.5004.054-.9127.285-1.2685.004.1747.043.4322.177.6998.128.2558.345.5211.68.81.638.5562.859.9813 1.004 1.4554l-.024-3.5201 1.612 2.9835c.315-.7566-.017-1.452.105-2.2772.073-.4974.291-.8752.604-1.1614-.039.1689-.066.4284-.003.7207.061.2802.205.5904.457.954.492.7123.593 1.1844.612 1.6916l.007-.0007.858-3.4488.824 3.3089c.497-.6819.369-1.4557.697-2.2296.197-.4629.498-.7383.872-.937-.081.1537-.172.3977-.184.6975-.011.2862.051.6221.203 1.0377.291.7907.274 1.2668.173 1.7494l1.669-3.0889-.024 3.3961c.647-.5096.693-1.3169 1.2-1.9806.306-.3991.673-.5896 1.087-.6893-.118.1294-.266.343-.353.6299-.081.275-.105.616-.061 1.0559.087.8584-.052 1.3213-.279 1.7724l.002.0007 2.415-2.6067-.866 3.2734c.726-.3464.989-1.0411 1.64-1.5547.394-.3113.794-.464 1.218-.4576-.145.0967-.342.2666-.497.5241-.148.2447-.255.5691-.321 1.0067-.129.8492-.375 1.2641-.706 1.6433l.015.0104 2.987-1.9268-1.65 2.9501c.804-.1146 1.193-.7573 1.945-1.0898.459-.2031.897-.2558 1.307-.145-.165.0578-.398.1734-.612.3839-.204.2014-.388.4889-.561.8958-.336.7867-.675 1.1256-1.087 1.4101l.017.0217 3.373-1.1223zm-13.277 7.248c-.045-.0771-.222-.4762-1.203-.4762h-2.868v-4.6348h.211v4.4236h2.622c.199 0 .372.0112.52.0352.53.0838.75.2943.852.4423l.672.0007c.1-.1497.312-.3592.837-.443.147-.0237.317-.0352.517-.0352h2.629v-4.4084h.211v4.6196h-2.875c-.979 0-1.143.4028-1.178.4762zm.349-.7874v.2257c-.4-.7522-2.223-.6292-3.773-.473v-4.2973c.835-.0075 1.659-.122 2.301-.122.815 0 1.375.124 1.472.5971v3.8624c-.496-.59-1.979-.5346-3.53-.3856v.1237c1.536-.148 3.157-.198 3.53.469zm-3.245-1.6919c.184-.0034.378-.0088.529-.0088.2 0 .365.0054.528.0088v-.0879h-.084c-.26 0-.279-.026-.279-.1984v-.7454c0-.2044.031-.2183.204-.2183h.16v-.0878c-.169.003-.347.0091-.528.0091-.166 0-.351-.0064-.529-.0091v.0878h.161c.172 0 .205.0139.205.2183v.7451c0 .1723-.021.1984-.282.1984h-.084v.0882zm1.847-.9114c-.201-.1203-.341-.295-.341-.5197 0-.193.14-.5373.595-.5373.362 0 .52.2281.52.4322 0 .2129-.076.3382-.379.4785.293.1493.425.3095.425.54 0 .3186-.25.5525-.632.5525-.345 0-.564-.2369-.564-.4839 0-.2724.213-.4069.376-.4623zm.512.5339c0-.1689-.079-.2774-.431-.4903-.155.0818-.235.2426-.235.392 0 .2737.192.4055.348.4055.218 0 .318-.1609.318-.3072zm-.185-.7211c.135-.1051.225-.2156.225-.4055 0-.2186-.146-.3589-.315-.3589-.193 0-.298.1545-.298.3177 0 .1723.119.2892.388.4467zm2.768-1.8761c.644 0 1.455.1206 2.308.122v4.2976c-1.55-.1561-3.372-.2791-3.773.4731v-.2261c.362-.6785 1.993-.619 3.536-.4694v-.1236c-1.557-.1494-3.048-.2122-3.536.3855v-3.8624c.097-.4714.655-.596 1.465-.5967zm-1.015 2.1224h.086l.069-.1818h.807l-.786 1.6112.145.0402.983-1.9291-.024-.0257h-1.205zm1.943-.0591c-.202-.1203-.342-.295-.342-.5197 0-.193.14-.5373.595-.5373.363 0 .52.2281.52.4322 0 .2129-.076.3382-.38.4785.295.1493.427.3095.427.54 0 .3186-.252.5525-.634.5525-.345 0-.563-.2369-.563-.4839 0-.2724.214-.4069.377-.4623zm.511.5339c0-.1689-.08-.2774-.43-.4903-.154.0818-.237.2426-.237.392 0 .2737.193.4055.348.4055.218 0 .319-.1609.319-.3072zm-.185-.7211c.134-.1051.225-.2156.225-.4055 0-.2186-.147-.3589-.315-.3589-.193 0-.298.1545-.298.3177 0 .1723.12.2892.388.4467zm6.747 15.9328-9.583-7.813-9.584 7.8123c-4.946-5.7419-4.91-12.3681-4.896-15.1018l.002-4.4984h.018l14.46 11.7879 14.459-11.7879h.019l.001 4.4984c.015 2.7337.051 9.3606-4.896 15.1025zm-17.954-4.2003c2.04.0027 3.698-1.6605 3.701-3.7151.004-2.0552-1.648-3.7242-3.689-3.7279-2.039-.0027-3.697 1.6602-3.7 3.7141-.003 2.0559 1.648 3.7245 3.688 3.7289zm2.394-5.2563c.008.1118-.048.2997-.091.3497-.04.0122-.145.022-.223.0274-.049.0013-.062.0081-.092.0585-.092.1561-.174.3007-.27.4869-.021.2183-.021.4305-.038.6893-.006.0913.006.2123-.055.3163-.081.1034-.169.1768-.24.2271-.015.0091-.035.0352.026.0166.036-.0105.208-.0963.244-.1085.121-.0392.26-.1879.452-.0017.093.0899.234.1744.402.2886.062.0409.095.0331.177.1061.067.0595.098.1899.138.2568.102.1761.114.2845.112.3254-.066.0362-.308.0382-.405.0098-.032-.0608-.03-.1517-.049-.1987-.034-.0865-.065-.128-.11-.1598-.074-.052-.129-.1122-.205-.1551-.186-.1037-.209-.1301-.348-.0622-.124.0608-.32.2376-.525.345-.161.0778-.603-.0027-.725-.1122.041.1207.289.2562.474.344-.025.0646-.092.4052-.227.6032-.009-.0476-.038-.0838-.081-.0838-.125 0-.101.266-.221.4025-.008-.0423-.036-.0858-.086-.0858-.116 0-.103.25-.234.3815-.015-.0548-.047-.0943-.1-.0943-.052 0-.1.0507-.146.099-.159.1696-.233.2673-.383.4258-.507-.0304-1.255-.3809-1.521-.7002.48-.513.911-1.0276 1.122-1.1759.102-.3028.403-.9432.514-1.2389-.014-.0297-.029-.0557-.045-.0848-.075.0426-.163.0524-.201.0321.032-.0824.034-.2132-.002-.3149-.053.0307-.13.0483-.184.0257.033-.0994.04-.2153.008-.3099 0 0-.001-.001-.002-.0024-.069.0311-.134.0416-.183.023.028-.1115.055-.2173.021-.3578-.003-.0098-.007-.02-.01-.0305-.092.047-.414.1051-.488.0761-.045-.0369.231-.3173.463-.5505-.219.0967-.505.2001-.942.2872-.249.0494-.77.142-1.14.0751-.062-.0105-.048-.092.012-.0923.194-.0007.457-.0108.649-.0588.052-.0118.133-.0564-.015-.0818-.157-.028-.446-.075-.59-.123-.051-.0172-.023-.0777.02-.0746.177.0131.387.05.538.056.088.0024.127-.0084.06-.0655-.04-.0341-.164-.1132-.291-.1886-.028-.0165-.023-.055.011-.0608.1-.0169.493.2291.757.3011.059.0169.109.027.159.0186.053-.0098.062-.0409.057-.0635-.011-.0629-.271-.1862-.397-.27-.052-.0345.002-.074.057-.0582.141.0406.462.2099.608.2281.116.0139.158-.0179.152-.0503-.014-.0784-.458-.2873-.565-.365-.025-.0199.01-.0551.04-.0503.228.028.67.3335.866.299.021-.0037.049-.0196.044-.0479-.016-.0879-.385-.2792-.476-.342-.045-.0308.007-.0622.072-.0477.134.0311.345.1372.471.2008.06.0304.109.0422.171.0317.081-.0148.151-.099.118-.274-.034-.1788-.199-.2487-.315-.2805-.129-.0355-.033-.0956.078-.0747.212.0402.367.1406.403.3288.006.0304.007.0727.009.1136.003.1037.077.0665.138-.0207.118-.1632.142-.3277.122-.4389-.035-.1926-.306-.27-.306-.3156 0-.0152.017-.0284.031-.0311.105-.0186.391.1044.432.3345.022.122-.001.1879-.021.3058-.005.025.012.0463.051.0065.137-.1369.25-.3843.211-.6066-.042-.2382-.287-.3207-.294-.3612-.002-.0102.018-.0254.037-.0294.099-.0173.37.1419.422.4044.046.2332-.064.7161-.787 1.103.304-.0672.387-.0574.42-.0209.35-.093.572-.1643.663-.144.097.1504-.109.2099-.112.3217.003.1081.244-.0716.202.0987-.074.1341-.167.1439-.275.1848-.056.0375-.271.1913-.387.2872.348.243.706.6124.729.6299.021.0541.107.2068.204.4366.003.0041.006.0091.008.0129.05-.1487.13-.3991.164-.5238.031-.1085.021-.1446.055-.2095.03-.0548.128-.145.215-.2748.078-.1155.204-.2946.248-.3625.073-.1126.146-.0896.281-.1264.051-.0139.205-.0233.265-.0196zm-2.744.0165c.018-.0165.045-.0432.072-.0574.057-.0318.135-.0483.186-.0575.025.0382.015.1031-.028.1511-.045.052-.095.0277-.141.0064-.033-.0155-.059-.0142-.072-.0149-.017.0007-.028-.0165-.017-.0277zm13.375 1.5197c.004-2.0546 1.661-3.7171 3.7-3.7148 2.041.0044 3.692 1.6727 3.688 3.7279-.004 2.0539-1.661 3.7171-3.7 3.7137-2.04-.0033-3.691-1.7146-3.688-3.7268zm5.395-2.5344c.022.0277.036.0621.037.1003.002.0916-.071.1683-.162.1703-.091.0024-.167-.0699-.17-.1618-.003-.0845.059-.1558.14-.168l-.189-.294-.325.1413c.034.0291.055.0713.056.1196.003.0916-.069.1683-.161.171-.093.002-.169-.0703-.171-.1619-.002-.0709.041-.1324.103-.1574-.097-.1041-.306-.2595-.507-.3268.154.2805.24.6295.233.9188.209-.0138.781.1622.999.3254.176-.2605.441-.5089.736-.613-.141-.0483-.417-.0922-.619-.0638zm-1.038.741c-.025-.0013-.05-.0047-.074-.0091-.024-.0047-.033-.0166-.039-.0223-.007-.0078-.028-.0341-.084-.0375-.099-.0061-.148.0682-.154.1135-.004.0345.005.0686.026.0946.019.022.044.0352.073.0372.02.002.041-.0007.063-.0091l.002-.002c.04-.022.061-.0561.075-.0919.006-.0149.052-.0342.105-.0359.009 0 .018-.006.02-.0158.002-.0112-.003-.021-.013-.0217zm-1 .0534c-.02.0352-.019.0703-.012.0997.001.0034.014.0199.016.0223-.014.0551-.01.1271.011.2271.013.0581.065.0787.163.0804.002.0243.005.0487.009.0706.001.0027.001.0065.002.0092-.058.0158-.114.025-.164.0219-.154-.0098-.25-.0946-.23-.2504.004-.0284.011-.0513.026-.0774.007-.0131 0-.0236-.012-.0283-.055-.02-.214.1108-.237.2902-.022.1724.073.268.216.2758.077.0047.184-.0061.296-.05.19-.0774.407-.1011.54.0324-.1-.0189-.359.0007-.433.0145-.111.0206-.164.2514-.042.2589.094.0054.443-.0159.463-.0102-.036.1514-.261.3423-.48.3883-.135-.0558-.523-.0416-.699.0112-.223-.2515-.385-.7171-.403-.8709-.008-.0706-.011-.1513.025-.2166.071-.1263.212-.1152.28-.2243.036-.0599.02-.1295.03-.1943.005-.0274.063-.1254-.01-.1579-.031.0389-.081.068-.146.0484-.042-.0146-.088-.0284-.133-.0085-.077.0338-.093.1294-.153.1926-.031.0345-.073.019-.064-.0361.016-.0879.059-.1703.046-.2606-.014-.0915-.082-.1615-.175-.2125-.04-.0216-.085-.0615-.13-.0727-.043-.0111-.08.0048-.082.024.021.0156.039.0396.04.0757.001.0818-.087.1261-.089.2035-.002.1179.081.2247.089.2879.007.0469-.035.0476-.063.0324-.061-.0331-.157-.0858-.245-.0879-.073-.0006-.122.0575-.184.0838-.027.0098-.144.0092-.12.0639.063.0132.11.0537.132.1132.016.045.025.0814.068.1119.071.0496.218.0375.29.0493.047.0088.1.0365.114.1325.01.0662-.014.1409-.046.1956-.056.0983-.085.2007-.057.296.026-.0358.054-.0517.084-.0517.062 0 .08.0717.035.1697-.041.0878-.066.1875-.026.3017.018-.0378.05-.0622.086-.0622.056 0 .087.0595.047.1683-.037.1004-.047.196-.007.2903.016-.0419.049-.0699.089-.0699.06 0 .085.0604.107.1128.07.171.181.2589.458.2589-.096.1824-.898.0645-1.223.0277-.07-.0081-.11-.0277-.13-.0855-.051-.1278.068-.2332-.002-.368-.033-.0666-.087-.0831-.144-.12-.025-.0165-.1-.1108-.148-.0703.02.0497.015.093-.041.1443-.037.0325-.074.0602-.081.1149-.01.0906.065.1761.089.2558.02.0575-.015.0815-.064.0446-.077-.0581-.19-.1953-.308-.1953-.081 0-.103.0487-.167.0774-.029.0122-.154.0257-.142.0872.055.0094.102.0405.117.1145.01.049.021.0977.065.1308.108.0825.278.0456.378.0666.039.0077.046.0419.008.0649-.084.0496-.204.0831-.246.1672-.034.0693-.013.148-.015.216-.001.0297-.04.1246.026.1446.034-.0443.079-.0777.156-.0673.05.0068.091.0291.141.0048.083-.0429.091-.1197.135-.1906.023-.0368.059-.0733.118-.0733.036 0 .071.0077.101.0337.064.0575.057.1933.253.2224-.01-.021-.015-.0476-.015-.0693 0-.0395.023-.0713.063-.0713.045 0 .077.0216.118.0913.052.0892.108.1155.196.126-.012-.0216-.018-.05-.018-.076 0-.0409.023-.0673.061-.0673.023 0 .065.0085.101.07.057.0963.099.1419.198.1531-.029-.0561-.006-.1315.068-.1315.075 0 .264.0652.404.1233-.005.3609.231.7485.579.9834-.013-.0679.023-.1068.074-.1068.141 0 .213.3332.529.4846-.016-.0636.018-.1044.064-.1044.037 0 .087.0236.115.0381.283.1531.584.3471.729.4738.295-.0899.775-.3775 1.089-.7008-.193-.0595-.728-.4599-.914-.6522-.334-.345-.425-.7063-.425-.9742 0-.0896.014-.1737.035-.2403.099.0585.237.05.321-.0284-.153-.1199-.13-.3565-.078-.4416.084.0699.239.0486.317-.021-.117-.0726-.18-.2619-.12-.4251.065.0673.218.0723.31-.004-.122-.1031-.185-.2667-.151-.4589.056.0773.163.0882.244.0564-.049-.1044-.052-.2754-.067-.3893-.019-.1568-.065-.3338-.117-.4291-.169-.145-.68-.3511-1-.3511-.044 0-.086.0067-.122.0145-.088.0206-.151.0514-.155.0676-.048.0747-.166.0909-.272.1193-.075.0209-.279.076-.357.1216zm.49 2.5003h-.027c-.021.2179-.141.5491-.217.669l.14-.1094.09.1094.092-.1094.13.1094c-.07-.126-.187-.4528-.208-.669zm2.466 1.0553c.03-.0436.066-.1055.066-.1055-.137-.2084-.24-.4362-.221-.6994.02-.2859.181-.3711.305-.3657.113.0041.189.0903.195.216.097-.0811.138-.1754.144-.2714.006-.074-.031-.1882-.157-.22.228-.2102.205-.6312-.028-.7924.033.3025-.192.5103-.394.7056-.272.2625-.307.5609-.26.8711-.161-.3115-.236-.6052-.215-.8958.022-.3254.187-.6613.424-.6444.077.0058.156.0443.188.1129.114-.1906.033-.4008-.149-.4163.187-.4481-.116-.8982-.366-.9959.065.1348.096.2714.085.4271-.031.4316-.407.7749-.445 1.4152-.041.6945.345 1.2963.757 1.7562 0-.001.035-.0453.071-.0973zm-1.629-.1044h-.027c-.02.2183-.143.5498-.218.6697l.139-.1101.092.1101.091-.1095.131.1095c-.072-.1267-.188-.4525-.208-.6697zm-.643-2.8095c.021-.0422.034-.1014.034-.1351 0-.0251-.003-.0588-.028-.0849-.026-.026-.093-.0392-.161-.0392-.069 0-.143.0108-.183.0369-.006.0192-.014.0439-.025.0699.127.0007.263.0314.363.1524z"/></g></svg>