<svg width="200" height="100" viewBox="0 0 200 100" fill="none" xmlns="http://www.w3.org/2000/svg">
<g clip-path="url(#clip0_2:575)">
<path fill-rule="evenodd" clip-rule="evenodd" d="M71.005 47.2459C70.839 47.2989 70.612 47.4089 70.79 47.5829C70.96 47.7429 71.184 47.7829 71.385 47.8809C71.4 47.8849 71.409 47.8959 71.422 47.9009C71.45 47.9279 71.46 47.9549 71.479 48.0039C71.571 48.2379 71.559 48.4839 71.419 48.6879C71.365 48.7699 71.277 48.8879 71.179 48.9279C69.759 49.5249 69.839 51.1599 69.839 51.1599C70.499 53.2959 72.109 52.3199 72.109 52.3199C73.422 51.5199 72.602 48.0319 72.602 48.0319C72.222 46.8519 71.004 47.2459 71.004 47.2459H71.005ZM98.673 42.2639C98.723 42.2809 98.773 42.2989 98.823 42.3119C98.928 42.3369 99.033 42.3449 99.14 42.3539C99.163 42.0009 99.18 41.6639 99.195 41.3499C98.928 41.6129 98.65 41.8759 98.369 42.1369C98.466 42.1869 98.569 42.2299 98.672 42.2639H98.673ZM99.302 38.0079C98.132 38.0079 97.177 38.9879 97.177 40.1899C97.177 40.4169 97.22 40.6339 97.285 40.8439C98.209 40.1039 98.917 39.5309 99.245 39.2639L99.27 39.0579C99.314 38.7079 99.37 38.3599 99.42 38.0099C99.384 38.0079 99.35 38.0079 99.314 38.0079H99.302ZM100.423 33.0099L100.513 32.6739L100.451 32.8439C100.431 32.8979 100.436 32.9539 100.424 33.0109L100.423 33.0099ZM100.94 41.5619C101.24 41.1859 101.426 40.7119 101.426 40.1899C101.426 40.0159 101.4 39.8479 101.363 39.6869C101.316 39.4839 101.243 39.2899 101.143 39.1069C101.106 39.5639 101.033 40.4749 100.941 41.5619H100.94ZM102.225 33.8779C102.303 33.7819 102.37 33.6739 102.415 33.5519L102.897 32.2319C102.962 32.0569 102.971 31.8779 102.951 31.7019C102.699 32.4239 102.451 33.1479 102.226 33.8779H102.225ZM93.265 30.9539C93.215 30.5759 92.88 30.2889 92.433 30.1799C92.443 30.1969 92.463 30.2099 92.465 30.2299C92.495 30.4239 92.159 30.6369 91.712 30.7059C91.332 30.7659 91.01 30.6959 90.898 30.5539C90.678 30.7639 90.562 31.0289 90.598 31.3009C90.668 31.8489 91.323 32.2109 92.058 32.1139C92.798 32.0169 93.335 31.4969 93.265 30.9539ZM128.267 65.5769C127.735 65.2839 126.767 65.0509 125.372 64.8899L124.258 64.7659C123.983 67.2559 123.708 69.7439 123.435 72.2339L124.509 72.3539C126.139 72.5409 127.326 72.4719 128.079 72.1219C129.049 71.6779 129.642 70.7019 129.855 69.1819C130.092 67.5019 129.565 66.2939 128.265 65.5769H128.267ZM124.433 73.0169C124.075 72.9749 123.719 72.9369 123.361 72.8969C123.088 75.3869 122.813 77.8769 122.538 80.3649C122.883 80.4029 123.228 80.4409 123.571 80.4809C125.137 80.6609 126.261 80.6249 126.959 80.3489C127.991 79.9349 128.629 78.9139 128.859 77.2719C129.064 75.8149 128.717 74.7119 127.803 73.9819C127.269 73.5459 126.147 73.2159 124.433 73.0189V73.0169Z" fill="black"/>
<path fill-rule="evenodd" clip-rule="evenodd" d="M164.367 80.225L166.817 70.251L162.009 68.829L160.879 69.356C160.594 69.486 160.369 69.539 160.204 69.521L159.724 69.174C158.014 67.739 156.019 66.728 153.809 66.18C149.869 65.204 146.279 65.534 143.146 67.157C143.046 67.209 142.953 67.267 142.856 67.322C145.296 60.628 146.534 53.486 146.534 45.937C146.534 35.632 144.191 26.97 142.388 21.833L148.625 19.483L145.603 13.903L138.946 1.641L134.551 2.961L122.598 6.6C116 2.412 108.338 0 100.163 0C92.153 0 84.633 2.318 78.126 6.354L62.682 1.65L60.495 5.66L52.972 19.51L59.228 21.86C57.421 27.02 55.073 35.695 55.073 45.96C55.073 52.476 55.993 58.69 57.813 64.574C56.306 64.877 54.8 65.192 53.3 65.524L53.278 65.441L50.525 66.109L48.25 66.633L48.268 66.709C44.226 67.706 40.17 68.776 36.201 69.999L33.001 70.985L35.166 77.947L38.95 76.793C39.648 76.581 39.804 76.736 40.02 76.953C44.066 80.863 47.956 84.901 51.625 88.997L52.959 90.485L57.452 89.411L57.892 87.356C58.408 84.953 59.067 82.521 59.664 80.094C61.334 82.096 63.057 84.06 64.644 86.1L65.878 87.682L70.42 86.904L70.433 86.854C80.289 97.728 92.439 100.086 101.093 100.087C109.893 99.925 122.193 97.311 131.953 85.952C132.387 85.92 132.783 85.865 133.147 85.786C135.377 85.276 137.045 84.146 138.073 82.539C138.456 83.319 138.933 84.081 139.503 84.821C141.588 87.521 144.501 89.351 148.165 90.265C151.125 91.005 153.928 90.945 156.497 90.091C157.547 89.739 158.62 89.207 159.783 88.461C160.943 87.718 161.941 86.894 162.763 86.011L165.083 83.526L163.823 82.401C164.016 81.618 164.363 80.224 164.363 80.224L164.367 80.225ZM100.163 2.778C106.938 2.778 113.336 4.558 119.003 7.698L113.016 9.522L116.318 15.508C119.446 21.18 121.854 26.995 121.878 27.053C121.918 27.148 122.033 27.418 122.194 27.833C119.358 25.466 116.79 23.513 114.494 21.973C111.85 19.846 110.048 18.44 110.048 18.44C108.544 17.064 106.668 17.38 105.536 17.77C105.5 17.765 105.461 17.755 105.416 17.743L105.306 17.658C105.051 17.474 104.801 17.28 104.551 17.076C103.591 16.298 102.827 15.496 102.218 14.631C101.988 14.301 101.771 13.961 101.563 13.614C101.495 13.501 101.42 13.384 101.343 13.266C101.191 13.032 101.033 12.79 100.958 12.589C100.904 12.449 100.858 12.307 100.808 12.166C100.658 11.716 100.486 11.208 100.15 10.743C99.415 9.703 98.677 9.62 98.19 9.733C97.97 9.783 97.683 9.863 97.463 10.033C97.203 10.21 96.847 10.668 96.663 11.197L96.627 11.34C96.591 11.59 96.493 12.273 96.394 13.02C95.956 12.223 95.524 11.42 95.362 11.062C95.172 10.652 94.762 10.369 94.592 10.265C94.008 9.913 93.152 10.113 92.692 10.505C92.308 10.832 92.082 11.282 91.952 11.585C91.607 12.348 91.566 13.142 91.554 13.825C91.54 14.705 91.544 15.745 91.684 16.78C91.768 17.408 91.894 18.006 92.061 18.56C92.167 18.904 92.287 19.214 92.425 19.496C90.877 20.812 86.128 24.926 83.821 27.813C82.383 29.297 80.591 31.133 78.878 32.873C79.523 30.581 80.273 28.398 81.078 26.379L81.428 25.472C81.43 25.47 87.493 9.312 87.493 9.312L81.854 7.49L81.75 7.457C87.31 4.465 93.56 2.777 100.163 2.777V2.778ZM124.617 36.546C124.547 36.163 124.471 35.789 124.395 35.426C124.422 35.554 124.449 35.684 124.475 35.816C124.515 36.006 124.552 36.196 124.59 36.391C124.65 36.711 124.71 37.039 124.766 37.371C124.804 37.595 124.84 37.826 124.876 38.056L124.951 38.546C124.988 38.792 125.023 39.039 125.056 39.29L125.108 39.708C125.168 40.196 125.223 40.693 125.27 41.198C125.282 41.328 125.295 41.454 125.305 41.582C125.33 41.872 125.352 42.162 125.372 42.456C125.382 42.586 125.389 42.718 125.397 42.85C125.457 43.826 125.485 44.83 125.482 45.855L125.479 46.227C125.474 46.561 125.467 46.897 125.456 47.235L125.448 47.409C125.421 48.099 125.376 48.797 125.315 49.502L125.293 49.765C125.26 50.115 125.221 50.469 125.179 50.823C125.167 50.935 125.152 51.048 125.137 51.16C124.997 52.27 124.805 53.39 124.561 54.523L124.476 54.911C124.394 55.271 124.309 55.631 124.216 55.991L124.166 56.178C123.979 56.886 123.768 57.595 123.536 58.306C123.493 58.433 123.453 58.561 123.41 58.689C123.293 59.034 123.17 59.379 123.04 59.724C122.983 59.876 122.923 60.028 122.863 60.181C122.713 60.565 122.555 60.949 122.391 61.333C119.455 61.043 116.514 60.808 113.589 60.639L113.239 60.619L113.241 60.592L111.673 60.53L110.246 60.446V60.471L109.893 60.456L109.623 60.446C109.175 57.916 108.967 57.078 108.781 56.336C108.641 55.766 108.517 55.273 108.304 54.091C107.849 51.431 106.874 49.605 105.408 48.666C104.541 48.111 103.7 48.004 103.126 48.012C105.094 45.91 105.764 43.529 105.764 43.529C107.869 28.027 105.554 21.913 105.247 21.189L105.067 22.501C104.937 23.428 104.772 24.356 104.634 25.281C104.494 26.206 104.284 27.114 104.12 28.031C104.074 28.271 103.945 28.696 103.855 29.038C103.711 29.563 103.551 30.098 103.35 30.606C103.288 30.759 103.22 30.909 103.164 31.066C103.187 31.106 103.214 31.141 103.232 31.182C103.406 31.554 103.422 31.977 103.276 32.372L102.796 33.692C102.654 34.076 102.369 34.365 102.026 34.538C101.761 35.443 101.512 36.356 101.342 37.283C101.268 37.683 101.214 38.088 101.189 38.493C101.239 38.553 101.299 38.603 101.344 38.669C101.53 38.931 101.658 39.223 101.744 39.529C101.751 39.551 101.748 39.576 101.754 39.599C101.798 39.792 101.828 39.989 101.828 40.193C101.828 41.003 101.456 41.716 100.886 42.19C100.686 44.54 100.421 47.404 100.256 48.318C100.256 48.318 100.044 50.443 98.398 50.813L96.173 51.056C96.173 51.056 98.34 49.809 98.633 48.096C98.633 48.096 98.943 45.199 99.111 42.76C98.981 42.75 98.854 42.735 98.728 42.704C98.665 42.69 98.606 42.667 98.545 42.647C98.475 42.624 98.4 42.609 98.34 42.562C98.252 42.524 98.157 42.5 98.073 42.452L98.048 42.434C93.236 46.821 86.718 50.856 86.718 50.856C87.181 51.643 87.315 54.516 87.315 54.516C88.305 53.988 92.849 51.306 92.849 51.306C93.997 50.879 96.242 50.968 96.242 50.968C95.912 51.232 88.239 55.61 88.239 55.61L87.606 56.495C86.746 57.747 85.436 56.952 85.436 56.952C85.376 56.63 85.052 55.795 85.052 55.795C84.717 55.405 84.382 55.012 84.049 54.619C83.817 54.346 83.586 54.011 83.259 53.845C82.553 53.488 81.684 53.932 81.005 54.128L80.391 54.305C80.227 54.355 80.063 54.405 79.901 54.443C79.416 54.553 79.221 54.865 79.081 55.093C78.843 55.457 78.591 55.81 78.323 56.166C77.96 56.666 77.543 57.176 77.039 57.741C76.932 57.861 76.825 57.979 76.705 58.107C70.745 58.689 68.965 56.333 68.592 55.68C68.996 53.085 67.806 51.748 67.318 51.32C67.198 51.056 67.108 50.81 67.036 50.58C66.948 50.55 66.863 50.53 66.773 50.494C66.773 50.494 65.888 49.754 66.348 48.346C66.348 48.346 68.408 45.146 71.328 41.766C71.591 40.773 71.976 40.381 72.403 40.106L72.455 40.056C72.473 40.04 72.505 40.029 72.543 40.02C72.883 39.82 73.245 39.66 73.593 39.31C74.113 38.787 74.648 38.277 75.199 37.787C75.449 37.567 75.722 37.249 76.013 37.087C76.399 36.875 76.728 37.675 76.895 37.937C77.115 38.287 77.337 38.635 77.559 38.984C78.119 39.864 78.679 40.746 79.241 41.627C80.469 43.555 81.698 45.482 82.928 47.407L83.488 48.287C83.634 48.517 83.78 48.877 83.981 49.059L84.051 49.122C85.307 49.912 85.836 49.189 85.836 49.189C87.006 48.955 93.346 43.996 96.946 41.122C96.893 40.985 96.854 40.842 96.823 40.699C96.823 40.691 96.823 40.683 96.821 40.675C96.791 40.518 96.771 40.359 96.771 40.197C96.771 38.772 97.906 37.613 99.301 37.613C99.301 37.613 99.361 37.613 99.361 37.615C99.391 37.615 99.421 37.615 99.451 37.617C99.461 37.617 99.468 37.621 99.477 37.621C99.491 37.521 99.502 37.421 99.519 37.321C99.646 36.556 99.771 35.781 99.931 35.018C100.003 34.678 100.085 34.338 100.169 33.998C100.149 33.964 100.127 33.934 100.111 33.898C99.941 33.532 99.925 33.1 100.069 32.713L100.549 31.391C100.694 30.997 100.993 30.691 101.349 30.524C101.387 30.447 101.419 30.367 101.457 30.29C101.525 30.155 101.627 29.9 101.642 29.857C101.699 29.673 101.974 28.842 102.042 28.531C102.258 27.567 102.492 26.603 102.697 25.628C102.757 25.361 102.811 25.091 102.867 24.818C102.937 24.468 102.993 24.118 103.059 23.768C102.799 23.891 102.625 23.938 102.625 23.938C96.681 25.188 97.585 19.008 97.585 19.008C95.915 20.035 94.898 20.081 94.315 19.911L94.435 19.811L94.035 19.241C93.832 18.946 93.665 18.581 93.527 18.127C93.384 17.652 93.274 17.133 93.2 16.585C93.074 15.65 93.07 14.682 93.085 13.858C93.095 13.328 93.122 12.718 93.35 12.208C93.394 12.11 93.527 11.808 93.68 11.675C93.716 11.65 93.795 11.623 93.85 11.615C93.91 11.66 93.96 11.705 93.964 11.705C94.364 12.585 96.139 15.729 96.214 15.863L97.65 18.407V15.487C97.65 15.152 97.927 13.067 98.13 11.644C98.21 11.452 98.33 11.301 98.347 11.281C98.355 11.277 98.397 11.257 98.501 11.226C98.501 11.226 98.637 11.266 98.896 11.632C99.101 11.917 99.216 12.26 99.35 12.657C99.404 12.817 99.458 12.974 99.517 13.133C99.653 13.488 99.864 13.813 100.051 14.1C100.117 14.203 100.183 14.303 100.241 14.4C100.466 14.776 100.701 15.144 100.955 15.51C101.649 16.496 102.508 17.398 103.577 18.265C103.627 18.305 103.68 18.343 103.729 18.382C103.719 18.147 103.695 17.914 103.635 17.692C103.632 17.667 103.615 17.572 103.595 17.558C103.595 17.558 105.172 18.582 105.463 19.491L105.46 19.523C107.348 20.908 109.74 22.903 109.74 22.903C109.97 25.787 111.436 26.591 111.436 26.591C111.168 26.396 111.05 24.826 111.05 24.826C111.168 24.166 111.435 24.71 111.435 24.71C111.861 26.282 113.135 27.128 113.135 27.128C113.019 26.898 113.212 26.128 113.212 26.128C113.442 25.628 113.907 26.436 113.907 26.436C114.872 28.932 119.003 31.469 119.003 31.469L118.771 29.895C118.616 28.629 119.619 30.011 119.619 30.011C121.271 32.623 122.999 34.788 124.612 36.555L124.617 36.546ZM122.741 29.342C122.789 29.482 122.836 29.617 122.885 29.766L122.935 29.922C122.959 29.992 122.983 30.069 123.005 30.142C122.915 29.858 122.825 29.59 122.742 29.342H122.741ZM123.029 30.215L123.137 30.555L123.191 30.727C123.226 30.841 123.261 30.965 123.298 31.084C123.206 30.779 123.118 30.489 123.028 30.214L123.029 30.215ZM123.319 31.153C123.357 31.285 123.396 31.41 123.435 31.547C123.459 31.627 123.482 31.711 123.505 31.792L123.601 32.138C123.506 31.795 123.411 31.466 123.318 31.153H123.319ZM123.615 32.193L123.685 32.441L123.78 32.803C123.824 32.971 123.867 33.146 123.91 33.321C123.813 32.929 123.714 32.554 123.614 32.193H123.615ZM123.915 33.333L123.963 33.521C124.006 33.694 124.048 33.869 124.09 34.047L124.15 34.319C124.073 33.981 123.994 33.652 123.914 33.333H123.915ZM124.163 34.363C124.191 34.486 124.22 34.606 124.247 34.73C124.287 34.902 124.323 35.078 124.361 35.254C124.371 35.306 124.381 35.359 124.393 35.411C124.318 35.053 124.241 34.705 124.163 34.365V34.363ZM91.954 60.5C87.964 60.66 83.944 60.896 79.961 61.27L79.957 61.233L79.797 61.251C79.363 60.241 78.982 59.225 78.653 58.206C78.983 57.814 79.293 57.433 79.56 57.066C79.84 56.692 80.113 56.311 80.367 55.921L80.385 55.891C80.538 55.853 80.69 55.806 80.842 55.761L81.422 55.593C81.892 55.461 82.366 55.33 82.826 55.191C82.933 55.161 83.041 55.124 83.146 55.088L83.266 55.048L83.366 55.158C83.419 55.216 83.466 55.268 83.506 55.308C84.111 55.908 84.433 56.433 84.536 57.026C84.566 57.196 84.636 57.549 84.971 57.798C85.354 58.088 85.878 58.188 86.538 58.086C87.266 57.968 87.928 57.503 88.562 56.674C88.634 56.584 88.694 56.488 88.752 56.394C88.782 56.342 88.828 56.27 88.824 56.266C88.939 56.202 89.054 56.14 89.172 56.079C89.318 56.002 89.464 55.925 89.604 55.845L90.174 55.519C90.884 55.112 91.594 54.705 92.322 54.311L94.325 53.175C94.698 52.967 95.07 52.755 95.443 52.543L96.505 51.943C97.315 51.926 99.701 51.743 102.905 49.547C103.165 49.513 103.852 49.484 104.58 49.95C105.654 50.636 106.42 52.157 106.795 54.353C107.018 55.591 107.153 56.13 107.295 56.703C107.465 57.39 107.657 58.159 108.059 60.393C104.381 60.277 100.677 60.253 96.997 60.317V60.283L94.804 60.351C94.08 60.371 91.956 60.424 91.956 60.424L91.958 60.5H91.954ZM75.78 61.712C75.21 61.779 74.64 61.858 74.07 61.929C73.777 61.162 73.513 60.396 73.273 59.631C74.125 59.723 75.1 59.736 76.19 59.663C76.41 60.303 76.647 60.938 76.9 61.566L75.776 61.678L75.779 61.711L75.78 61.712ZM65.523 42.957C66.14 42.942 66.651 43.427 66.667 44.041C66.669 44.151 66.672 44.261 66.677 44.371C66.694 44.983 66.209 45.495 65.593 45.513C64.976 45.531 64.461 45.048 64.443 44.435L64.433 44.095C64.419 43.483 64.906 42.973 65.523 42.958V42.957ZM65.226 32.803C65.246 32.69 65.268 32.577 65.29 32.467C65.408 31.863 65.994 31.469 66.6 31.587C67.205 31.703 67.6 32.287 67.484 32.89L67.424 33.206C67.311 33.81 66.729 34.21 66.122 34.098C65.515 33.988 65.115 33.406 65.227 32.803H65.226ZM66.466 54.357C66.696 54.319 66.923 54.355 67.12 54.447C67.14 54.797 67.13 55.184 67.042 55.643L67.002 55.855L67.078 56.055C67.093 56.095 67.188 56.32 67.396 56.635C67.253 56.75 67.09 56.843 66.896 56.877C66.286 56.981 65.71 56.577 65.606 55.97C65.586 55.86 65.566 55.747 65.548 55.634C65.448 55.029 65.858 54.456 66.466 54.357ZM71.551 23.015L71.548 23.018L71.521 23.045L71.391 23.192C70.993 23.662 70.289 23.72 69.818 23.324C69.346 22.928 69.288 22.227 69.685 21.758C69.851 21.562 69.958 21.456 69.982 21.432C70.422 21.002 71.132 21.012 71.562 21.45C71.992 21.886 71.982 22.585 71.548 23.014H71.55L71.551 23.015ZM92.36 33.6C93.612 33.6 94.37 32.914 94.55 32.73C94.97 32.46 95.045 32.44 95.18 32.41C95.3 32.38 95.45 32.344 95.76 32.212C95.882 32.159 95.968 32.047 95.987 31.915C96.007 31.783 95.954 31.651 95.85 31.565L93.666 29.792C93.091 29.245 92.459 28.968 91.789 28.968C90.529 28.968 89.429 29.958 88.736 30.774C89.282 29.191 90.776 28.044 92.552 28.044C94.786 28.044 96.602 29.849 96.602 32.074C96.602 34.299 94.786 36.104 92.552 36.104C90.43 36.104 88.709 34.474 88.535 32.409C89.523 32.463 89.995 32.839 90.065 32.889C90.85 33.359 91.622 33.599 92.359 33.599L92.36 33.6ZM90.49 31.154C90.49 30.412 91.193 29.811 92.06 29.811C92.922 29.811 93.625 30.413 93.625 31.155C93.625 31.895 92.922 32.495 92.059 32.495C91.192 32.495 90.489 31.895 90.489 31.155L90.49 31.154ZM62.814 20.24L56.947 18.033L62.957 6.973L64.05 4.973L81.04 10.146L83.858 11.056L78.8 24.536L78.482 25.353C76.937 29.231 75.802 33.016 75.067 36.693C74.051 37.695 73.304 38.407 73.05 38.597C72.974 38.631 72.38 38.924 71.787 39.482C72.922 31.084 75.707 24.886 76.173 23.596C77.931 18.716 79.257 15.24 80.223 12.803C76.578 11.696 66.155 8.521 65.413 8.293C65.013 9.03 61.469 15.549 60.923 16.558C61.94 16.938 66.563 18.68 66.563 18.68L66.263 19.275C66.168 19.472 60.657 30.839 60.657 45.961C60.657 51.426 61.38 57.381 63.335 63.471L63.182 63.497L63.192 63.559C62.322 63.711 61.452 63.884 60.582 64.047C58.78 58.337 57.865 52.3 57.865 45.962C57.865 34.117 61.143 24.415 62.813 20.242L62.814 20.24ZM68.604 84.062L68.384 84.865L66.299 85.222L65.809 84.594C63.391 81.486 60.813 78.447 58.221 75.444C57.241 79.178 56.284 82.934 55.484 86.664L55.309 87.477L53.231 87.974L52.701 87.384C48.998 83.251 45.074 79.18 41.021 75.262C40.181 74.422 39.198 74.209 37.925 74.597L36.068 75.167L35.095 72.035L36.365 71.645C40.87 70.257 45.48 69.001 50.065 67.91C50.065 67.91 50.203 67.876 50.245 67.867V67.863L50.643 67.771C50.996 67.688 51.357 67.601 51.357 67.601L51.359 67.607L51.542 67.565C55.818 66.579 60.167 65.715 64.47 64.995L65.064 64.895V64.892L65.341 64.85L65.781 64.774V64.779L66.375 64.686C69.688 64.162 73.067 63.706 76.419 63.336L77.741 63.186V63.189L78.879 63.077C83.656 62.602 88.499 62.281 93.277 62.125L93.591 62.115V62.111C93.591 62.111 93.849 62.103 94.071 62.098L94.607 62.078V62.084L94.921 62.076C99.718 61.956 104.581 61.994 109.376 62.191L110.706 62.245L110.566 65.518L108.296 65.43C106.966 65.38 106.563 65.605 106.542 65.583C106.535 65.605 106.446 65.873 106.425 66.827L106.2 76.944L106.198 77.157C106.198 77.94 106.291 78.187 106.323 78.259C106.477 78.317 106.885 78.431 107.813 78.465L110.028 78.549L109.894 81.836L108.564 81.78C104.196 81.602 99.774 81.566 95.424 81.678L94.636 81.696L93.93 81.721C89.59 81.864 85.185 82.155 80.84 82.586L79.52 82.718L79.386 81.402L79.184 79.448L81.397 79.235C82.587 79.121 82.917 78.881 82.933 78.902C82.938 78.875 82.96 78.759 82.96 78.462C82.96 78.264 82.95 77.992 82.92 77.622L82.1 67.53C82.038 66.754 81.914 66.406 81.853 66.277C81.747 66.239 81.349 66.131 80.148 66.244L77.882 66.462L77.876 66.412L76.86 66.584C74.963 66.906 73.505 68.541 72.523 71.444C71.11 75.608 69.791 79.854 68.603 84.062H68.604ZM111.564 67.824L113.174 67.924L113.889 67.969C113.809 69.011 113.623 71.369 113.459 73.477C111.992 74.564 110.399 75.427 108.679 76.065L108.865 67.718C109.029 67.723 110.448 67.778 111.565 67.822L111.564 67.824ZM106.91 89.71C106.795 89.733 106.682 89.755 106.568 89.78C105.965 89.9 105.375 89.508 105.255 88.906C105.135 88.303 105.525 87.719 106.132 87.598C106.237 87.578 106.342 87.558 106.446 87.534C107.05 87.407 107.642 87.791 107.77 88.39C107.898 88.99 107.513 89.58 106.91 89.71ZM96.367 88.576C96.217 89.171 95.612 89.533 95.013 89.384L94.678 89.299C94.08 89.143 93.723 88.535 93.878 87.942C94.034 87.348 94.644 86.992 95.242 87.147L95.555 87.227C96.155 87.377 96.517 87.979 96.367 88.575V88.576ZM85.605 84.498C85.255 84.924 84.642 85.051 84.161 84.751L83.973 84.631C84.517 84.585 85.061 84.541 85.606 84.499L85.605 84.498ZM77.512 68.878C77.554 68.868 77.592 68.846 77.634 68.838L77.734 68.822L79.842 68.61C79.842 68.61 80.314 68.563 80.566 68.54C80.626 69.262 80.813 71.585 80.984 73.702C80.894 73.596 80.802 73.498 80.714 73.389C79.504 71.903 78.452 70.395 77.512 68.877V68.878ZM76.796 77.215C76.328 77.615 75.622 77.56 75.221 77.095L75 76.833C74.602 76.363 74.664 75.663 75.135 75.267C75.607 74.872 76.311 74.931 76.708 75.402L76.918 75.648C77.32 76.115 77.266 76.816 76.798 77.215H76.796ZM101.096 97.31C92.673 97.308 80.708 94.92 71.338 83.647C71.652 82.557 71.974 81.467 72.305 80.374C72.625 80.789 72.935 81.204 73.271 81.618C81.951 92.248 93.203 94.528 101.097 94.531C107.787 94.408 116.927 92.617 124.787 85.375C125.547 85.469 126.311 85.559 127.069 85.661C127.512 85.721 127.922 85.771 128.317 85.813C119.494 94.983 108.819 97.167 101.097 97.311L101.096 97.31ZM115.869 84.475C116.666 84.535 117.464 84.611 118.262 84.682C118.176 84.885 118.048 85.072 117.846 85.2L117.556 85.382C117.03 85.704 116.342 85.544 116.016 85.022C115.91 84.852 115.874 84.662 115.868 84.475H115.869ZM137.577 71.123C137.383 72.24 136.724 73.583 135.06 74.57C136.333 75.758 136.782 77.07 136.782 78.24C136.782 78.592 136.747 78.928 136.692 79.243C136.415 80.811 135.425 82.831 132.28 83.549C131.162 83.794 129.504 83.746 126.906 83.393C121.938 82.723 116.886 82.235 111.89 81.946L110.563 81.87L110.753 78.59L112.967 78.722C114.151 78.797 114.517 78.612 114.534 78.634C114.549 78.596 114.652 78.314 114.724 77.369L115.514 67.276C115.53 67.056 115.537 66.868 115.537 66.71C115.537 66.227 115.483 66.055 115.46 65.99C115.31 65.922 114.873 65.77 113.79 65.7L112.85 65.645L111.518 65.562L111.71 62.295L113.038 62.372C118.408 62.682 123.841 63.202 129.185 63.912C131.059 64.164 132.58 64.542 133.711 65.042C136.969 66.505 137.661 68.639 137.661 70.19C137.661 70.535 137.627 70.85 137.579 71.123H137.577ZM130.755 23.173L130.61 22.883C130.334 22.337 130.554 21.669 131.103 21.391C131.655 21.115 132.328 21.336 132.603 21.881C132.656 21.984 132.708 22.086 132.759 22.191C133.029 22.744 132.803 23.408 132.249 23.681C131.695 23.951 131.026 23.725 130.755 23.173ZM135.377 34.663C134.77 34.767 134.19 34.363 134.084 33.759C134.064 33.651 134.046 33.543 134.026 33.439C133.916 32.834 134.319 32.254 134.926 32.145C135.533 32.035 136.114 32.435 136.224 33.04L136.284 33.377C136.39 33.981 135.984 34.557 135.377 34.662V34.663ZM137.129 44.646C137.129 44.759 137.127 44.873 137.125 44.986C137.112 45.599 136.605 46.086 135.987 46.076C135.369 46.064 134.88 45.556 134.891 44.942L134.897 44.615C134.905 44.001 135.413 43.511 136.03 43.52C136.647 43.528 137.14 44.033 137.13 44.646H137.129ZM135.169 54.926C135.777 55.026 136.187 55.6 136.084 56.206C136.066 56.316 136.046 56.429 136.026 56.54H136.028C135.918 57.145 135.342 57.55 134.733 57.444C134.127 57.339 133.719 56.764 133.826 56.158L133.881 55.836C133.983 55.231 134.559 54.823 135.167 54.926H135.169ZM137.677 65.181C140.079 58.489 140.951 51.921 140.951 45.938C140.951 30.818 135.441 19.448 135.345 19.254L135.045 18.657L140.685 16.535C140.14 15.525 136.595 9.008 136.198 8.27L121.211 12.835C124.541 18.871 127.041 24.945 127.041 24.945C127.041 24.945 135.183 43.477 128.133 61.978C127.173 61.858 126.216 61.74 125.253 61.633C132.203 44.205 124.573 26.26 124.458 25.998C124.435 25.938 121.973 19.99 118.764 14.172L117.112 11.179L135.375 5.614L137.571 4.954L143.143 15.217L144.655 18.007L138.802 20.212C140.472 24.339 143.742 33.952 143.742 45.936C143.742 53.738 142.362 61.086 139.637 67.928C139.277 67.008 138.67 66.058 137.675 65.178L137.677 65.181ZM161.97 79.471L161.69 80.601L160.027 80.413L159.077 80.226C159.077 80.226 158.342 77.136 158.334 77.112C158.078 76.208 157.761 75.416 157.391 74.755C156.445 73.047 155.131 72.001 153.371 71.552C152.384 71.3 151.591 71.572 150.801 72.428C149.859 73.448 149.106 75.15 148.559 77.485C147.012 84.185 149.349 84.779 150.117 84.975C151.503 85.329 152.887 85.262 154.345 84.771C155.857 84.261 157.198 83.393 158.442 82.121L159.332 81.207L161.775 83.387L160.855 84.373C160.145 85.133 159.275 85.849 158.262 86.5C157.24 87.153 156.314 87.615 155.427 87.912C153.231 88.644 150.809 88.688 148.229 88.042C144.971 87.229 142.502 85.687 140.677 83.325C138.793 80.875 138.12 78.165 138.687 75.268C139.267 72.291 140.937 70.07 143.647 68.668C146.334 67.276 149.443 67.003 152.891 67.858C154.797 68.33 156.515 69.2 157.995 70.442C158.66 70.996 159.02 71.137 159.145 71.172C159.799 71.357 160.501 71.27 161.291 70.91L161.738 70.7L163.964 71.36L161.972 79.47L161.97 79.471ZM157.53 80.885L157.426 80.991C156.41 82.031 155.33 82.734 154.128 83.139C153.038 83.505 152.06 83.559 151.051 83.299C150.348 83.121 150.311 81.027 150.961 78.209C151.541 75.729 152.241 74.583 152.723 74.059C153.048 73.707 153.129 73.727 153.303 73.772C154.509 74.079 155.383 74.786 156.056 75.999C156.356 76.532 156.61 77.179 156.824 77.932C156.841 77.992 157.304 79.936 157.304 79.936L157.53 80.886V80.885Z" fill="black"/>
<path fill-rule="evenodd" clip-rule="evenodd" d="M68.407 68.403C67.921 68.046 67.389 67.895 66.777 67.938L66.314 67.971L66.32 68.011L64.593 68.299L64.383 68.335C64.307 68.349 64.291 68.359 64.23 68.371L68.23 73.387L68.96 71.151C69.115 70.688 69.19 70.279 69.19 69.928C69.19 69.824 69.184 69.726 69.172 69.633C69.099 69.123 68.855 68.733 68.407 68.403ZM54.05 70.965C53.622 70.735 52.97 70.675 52.166 70.785L52.119 70.79V70.792L50.169 71.256C50.094 71.274 50.079 71.286 50.017 71.304C50.297 71.607 52.685 74.194 54.402 76.051L55.409 72.165C54.697 71.399 54.255 71.077 54.049 70.965H54.05ZM91.94 77.04C91.98 77.835 92.09 78.194 92.145 78.332C92.231 78.367 92.567 78.482 93.675 78.444L94.015 78.434V78.424L95.525 78.39C96.711 78.362 97.061 78.147 97.08 78.164C97.09 78.127 97.16 77.874 97.16 77.049L97.12 73.026C95.637 73.07 93.236 73.139 91.752 73.181L91.94 77.039V77.04ZM95.554 75.37L95.566 76.66L95.381 76.666C95.034 76.573 94.691 76.471 94.351 76.36L94.305 75.406C94.915 75.388 94.945 75.386 95.555 75.369L95.554 75.37ZM91.59 69.872C93.09 69.829 95.59 69.757 97.09 69.712L97.06 66.768C97.054 65.974 96.95 65.62 96.9 65.494C96.748 65.437 96.296 65.321 95.216 65.347L94.044 65.379L93.216 65.404C91.881 65.449 91.496 65.704 91.476 65.684C91.47 65.704 91.431 65.862 91.431 66.351C91.431 66.508 91.435 66.701 91.447 66.931L91.591 69.871L91.59 69.872ZM94.38 67.666L95.48 67.636C95.48 67.766 95.48 67.891 95.485 68.034L93.945 68.079L93.925 67.679C93.979 67.679 94.235 67.669 94.381 67.665L94.38 67.666Z" fill="black"/>
</g>
<defs>
<clipPath id="clip0_2:575">
<rect width="200" height="100" fill="white"/>
</clipPath>
</defs>
</svg>
