<svg xmlns="http://www.w3.org/2000/svg" focusable="false" role="img" viewBox="0 0 200 100" fill="currentColor">
  <path fill-rule="evenodd" d="M53.093 58.216c.496-.764.928-1.564 1.294-2.393a16.166 16.166 0 00-5.938-11.508A18.83 18.83 0 0150.3 50.11h.09c.16 1.015.24 2.042.24 3.07a18.94 18.94 0 01-3.09 10.387c.3-.18.593-.368.88-.567a17 17 0 004.673-4.784zM43.57 41.618A16.199 16.199 0 0145.3 62.64a15.81 15.81 0 01-2.65 2.845l-.05.01A15.91 15.91 0 0126 58.55a17.197 17.197 0 01-2.513-6.349 16.158 16.158 0 012.333-4.781 15.622 15.622 0 0117.75-5.802zm9.337 22.078a20.083 20.083 0 01-2.946 2.484 18.88 18.88 0 01-8.371 3.177 18.64 18.64 0 01-8.032 2.652 15.603 15.603 0 007.578.671 15.62 15.62 0 0010.225-6.3v-.05a16.161 16.161 0 001.546-2.634zm-25.211 4.673a16.2 16.2 0 004.835.81 15.797 15.797 0 002.416-.19c-5.043-1.184-9.161-4.382-11.726-8.609a16.161 16.161 0 004.475 7.99zM42.67 32.45c7.515 1.42 12.818 7.985 13.177 15.506a18.85 18.85 0 00-5.537-6.325 18.46 18.46 0 00-6.274-2.966 18.805 18.805 0 00-7.882-4.087 18.831 18.831 0 00-3.914-.532 16 16 0 017.43-1.875c1.006.002 2.01.095 3 .28zm-4.427 5.667a16.203 16.203 0 00-5.833-1.176 15.81 15.81 0 00-4.81.761 17.2 17.2 0 00-4.305 9.842c.33-.584.692-1.152 1.085-1.703a18.461 18.461 0 0113.863-7.724zM20.941 54.93a18.993 18.993 0 002.262 11.132A16.2 16.2 0 0119.64 43.48a15.81 15.81 0 013.232-3.31 19.822 19.822 0 00-2.192 6.08 20.19 20.19 0 00.26 8.68zm6.91 16.695A19.1 19.1 0 0116.59 41.77a18.59 18.59 0 0111.065-7.297A19.84 19.84 0 0129 33.47a18.76 18.76 0 0126.35 5.19l.02.03a20.08 20.08 0 012.607 16.046A18.8 18.8 0 0154.52 68.13a18.48 18.48 0 01-15.01 7.66 18.42 18.42 0 01-11.659-4.165zM76.8 48.12a20.205 20.205 0 00-.48-2.34l-1.43-5.16h-2l-1.4 5.19c-.207.736-.37 1.484-.49 2.24a12.497 12.497 0 00-.24-2.15l-1.25-5.28h-2L70 50.14h1.91l1.72-6.07a7.83 7.83 0 00.28-1.72 7.18 7.18 0 00.29 1.72l1.65 6.07h2l2.49-9.52h-2l-1.24 5.16a10.412 10.412 0 00-.3 2.34zm12.54-2.72a3 3 0 10-5.999 0 3 3 0 005.999 0zm.66 3.53a5.16 5.16 0 01-6.83.32 4.94 4.94 0 01-.37-7.38 5.17 5.17 0 017.2 0 4.95 4.95 0 010 7.06zm7.5-5.46c0 1.1-.74 1.21-2 1.21h-.31v-2.5h.31c1.27 0 2 .19 2 1.29zm-2.31 2.22l2.5 4.45H100l-2.55-4.33a2.42 2.42 0 002.12-2.49c0-1.8-1.14-2.7-3.46-2.7h-2.92v9.52h2v-4.45zm6.04-5.07h2.04v7.79h3.25v1.73h-5.29v-9.52zm12.83 4.8c0 2.12-.99 3-3.06 3l-1.14.07v-6.07H111c2.06 0 3.06.88 3.06 3zm-3.64-4.8h-2.59l-.03 9.52h2.81a6 6 0 003.79-.88 4.54 4.54 0 001.78-3.86 4.54 4.54 0 00-1.76-3.85 6.22 6.22 0 00-4-.93zM130 45.78c.206.77.366 1.551.48 2.34a9.83 9.83 0 01.31-2.34l1.21-5.16h2l-2.48 9.52h-2l-1.71-6.07a7.17 7.17 0 01-.29-1.72 7.83 7.83 0 01-.28 1.72l-1.72 6.07h-2l-2.49-9.52h2l1.25 5.28c.152.708.242 1.427.27 2.15.119-.755.283-1.503.49-2.24l1.4-5.19h2l1.56 5.16zm5.35-5.16h2.04v9.52h-2.04v-9.52zm7.38 7.8c2.08 0 3.06-.88 3.06-3s-1-3-3.06-3h-1.13v6.07l1.13-.07zm-3.17-7.8h2.6a6.24 6.24 0 014 .93 4.575 4.575 0 011.75 3.85 4.52 4.52 0 01-1.78 3.86 5.92 5.92 0 01-3.78.88h-2.76l-.03-9.52zm15.64 0h-5.6v9.52h5.6v-1.73h-3.57v-2.39h3.57v-1.73h-3.57v-1.95h3.57v-1.72zm14.12 5.16c.211.769.371 1.55.48 2.34.014-.79.118-1.574.31-2.34l1.24-5.16h2l-2.49 9.52h-2l-1.7-6.07a7.125 7.125 0 01-.3-1.72 7.83 7.83 0 01-.28 1.72l-1.72 6.07H163l-2.49-9.52h2l1.26 5.28c.144.709.231 1.428.26 2.15.127-.755.294-1.503.5-2.24l1.39-5.19h2l1.4 5.16zm10.97-5.16h-5.61v9.52h5.61v-1.73h-3.57v-2.39h3.57v-1.73h-3.57v-1.95h3.57v-1.72zm4.84 7.93c1 0 1.56-.46 1.56-1.31 0-.85-.52-1.24-1.53-1.24h-.83v2.55h.8zm-.35-4.12c1.13 0 1.69-.26 1.69-1.14 0-.88-.5-1.1-1.65-1.1h-.49v2.24h.45zm-2.49-3.81h1.79a6.64 6.64 0 013.13.46 2.25 2.25 0 011.16 2c0 1.14-.67 1.82-2 2 1.54.23 2.33 1 2.33 2.29a2.446 2.446 0 01-1.27 2.19 7.44 7.44 0 01-3.58.53h-1.56v-9.47zM74.45 56.61h-4.71v9.52h.87v-4.91h3.7v-.82h-3.7v-2.98h3.84v-.81zm11.08 4.78a4.18 4.18 0 10-4.19 4.22 4.2 4.2 0 004.19-4.22zM85 64.92a5.12 5.12 0 01-3.61 1.46 5.06 5.06 0 01-3.59-1.46 5 5 0 010-7.09 5.22 5.22 0 017.2 0 5 5 0 010 7.09zm4.47-2.09v-6.22h-.85v5.94c0 2.57 1.13 3.83 3.46 3.83s3.47-1.26 3.47-3.83v-5.94h-.87v6.22c0 1.86-.83 2.78-2.6 2.78s-2.61-.92-2.61-2.78zm8.71-6.62l6.73 7.96v-7.56h.82v9.8l-6.74-7.98v7.7h-.81v-9.92zm12.33 9.17H110l-.77-.02v-8h1c1.57 0 2.69 0 3.57 1a4.46 4.46 0 011 3 4.135 4.135 0 01-1.44 3.48 4.74 4.74 0 01-2.85.54zm-.67-8.77h-1.47l.03 9.52h1.88c1.54 0 2.77-.04 3.86-.88a4.691 4.691 0 001.62-3.88 4.62 4.62 0 00-2-4.14c-1.01-.62-2.28-.62-3.92-.62zm12.34 5.55L120.55 58l-1.69 4.14 3.32.02zm-1.58-5.93l4 9.9h-.94l-1.21-3.22h-3.89l-1.27 3.22h-.88l4.19-9.9zm3.7 1.19h2.63v8.71h.86v-8.71h2.62v-.81h-6.11v.81zm8.72-.81h-.87v9.52h.87v-9.52zm10.756 2.469c.464.682.716 1.486.724 2.31a4.187 4.187 0 01-1.216 2.977 4.201 4.201 0 01-2.964 1.244 4.178 4.178 0 01-4.102-4.981 4.182 4.182 0 013.262-3.294 4.181 4.181 0 014.296 1.744zm-3.456 7.3a5.121 5.121 0 003.6-1.46 4.938 4.938 0 000-7.09 5.221 5.221 0 00-7.2 0 5.003 5.003 0 00-1.091 5.465 5.003 5.003 0 002.745 2.715 5.06 5.06 0 001.946.37zm7.31-10.169l6.74 7.96v-7.56h.81v9.8l-6.74-7.98v7.7h-.81v-9.92z" clip-rule="evenodd"/>
</svg>
