<svg xmlns="http://www.w3.org/2000/svg" focusable="false" role="img" viewBox="0 0 200 100" fill="currentColor">
  <path d="M78.63 62.39H71.31L66.31 44.05L61.31 62.39H54L45.34 34.7H52.87L57.71 54.05L62.71 34.7H69.8L74.9 54.05L79.75 34.7H87.27L78.63 62.39Z"/>
  <path d="M99.47 63C92.47 63 87.2 59.31 86.36 53.34H93.54C94.54 55.72 97.37 56.56 99.47 56.56C102.32 56.56 104.47 55.72 104.47 54.09C104.47 52.46 103.47 51.89 98.67 51.14C93.87 50.39 87.12 49.04 87.12 42.87C87.14 38.53 91 34 99 34C105.33 34 110.08 37.42 111 42.64H103.64C103.2 41.35 101.64 40.34 99 40.34C95.71 40.34 94.39 41.52 94.39 42.54C94.39 44 96.39 44.47 99.88 45.01C106.76 46.13 111.71 47.66 111.71 53.66C111.64 59.17 106.59 63 99.47 63Z"/>
  <path d="M121.75 62.39H114.66V34.7H121.75V62.39Z"/>
  <path d="M141.47 63C139.887 63.0173 138.318 62.7074 136.86 62.0896C135.402 61.4719 134.088 60.5596 133 59.41V62.41H126.19V22.41H133.34V37.41C135.528 35.3129 138.45 34.1569 141.48 34.19C148.73 34.19 154.63 40.43 154.63 48.66C154.63 56.89 148.73 63 141.47 63V63ZM140.47 40.69C136.53 40.69 133.38 44.25 133.38 48.69C133.38 53.13 136.57 56.48 140.47 56.48C144.37 56.48 147.55 53.09 147.55 48.69C147.55 44.29 144.39 40.66 140.46 40.66L140.47 40.69Z"/>
  <path d="M114.12 27C114.12 26.195 114.359 25.4081 114.806 24.7388C115.253 24.0695 115.889 23.5479 116.632 23.2398C117.376 22.9318 118.195 22.8512 118.984 23.0082C119.774 23.1652 120.499 23.5529 121.068 24.1221C121.637 24.6913 122.025 25.4165 122.182 26.206C122.339 26.9955 122.258 27.8138 121.95 28.5575C121.642 29.3012 121.12 29.9369 120.451 30.3841C119.782 30.8313 118.995 31.07 118.19 31.07C117.111 31.0674 116.078 30.6377 115.315 29.875C114.552 29.1123 114.123 28.0786 114.12 27Z"/>
  <path d="M61.75 73.27C61.7128 74.0682 61.442 74.838 60.9712 75.4837C60.5004 76.1294 59.8504 76.6226 59.1018 76.9022C58.3532 77.1817 57.539 77.2353 56.7603 77.0563C55.9815 76.8772 55.2724 76.4734 54.7211 75.895C54.1698 75.3166 53.8004 74.589 53.6589 73.8025C53.5174 73.0161 53.61 72.2053 53.9251 71.471C54.2402 70.7367 54.764 70.1111 55.4316 69.6718C56.0991 69.2325 56.8809 68.9989 57.68 69C58.2293 69.0077 58.7715 69.1248 59.2749 69.3446C59.7784 69.5644 60.2329 69.8825 60.6119 70.2801C60.9909 70.6777 61.2868 71.147 61.4822 71.6604C61.6776 72.1738 61.7687 72.721 61.75 73.27ZM60.15 73.27C60.0828 72.795 59.8804 72.3493 59.5669 71.9862C59.2534 71.6231 58.842 71.3579 58.3819 71.2221C57.9217 71.0864 57.4323 71.086 56.9719 71.2208C56.5115 71.3557 56.0996 71.6202 55.7854 71.9827C55.4712 72.3452 55.268 72.7905 55.1999 73.2654C55.1318 73.7403 55.2019 74.2247 55.4016 74.6609C55.6013 75.0971 55.9224 75.4666 56.3264 75.7253C56.7304 75.984 57.2003 76.121 57.68 76.12C58.3793 76.0539 59.0262 75.7209 59.4862 75.1901C59.9463 74.6593 60.184 73.9716 60.15 73.27V73.27Z"/>
  <path d="M77.1 77.44H75.2L71.81 71.54V77.44H70.25V69.17H72.15L75.51 75.07V69.17H77.1V77.44Z"/>
  <path d="M89.07 70.63V77.44H87.51V70.63H85.27V69.17H91.27V70.63H89.07Z"/>
  <path d="M100.32 75.78L99.75 77.44H98.08L100.97 69.14H102.97L105.85 77.44H104.19L103.61 75.78H100.32ZM102 70.9L100.85 74.29H103.15L102 70.9Z"/>
  <path d="M120.56 77.44H119C118.875 77.15 118.817 76.8355 118.83 76.52V75.27C118.83 74.56 118.49 74.27 117.74 74.27H115.57V77.49H114V69.19H117.8C119.53 69.19 120.65 70.1 120.65 71.66C120.675 72.0575 120.577 72.453 120.37 72.7929C120.162 73.1329 119.855 73.4007 119.49 73.56C119.795 73.7356 120.043 73.9944 120.206 74.3061C120.369 74.6178 120.44 74.9695 120.41 75.32V76.48C120.394 76.8069 120.445 77.1335 120.56 77.44V77.44ZM117.81 72.83C117.963 72.8381 118.115 72.8152 118.259 72.7627C118.402 72.7102 118.533 72.6291 118.644 72.5245C118.756 72.4198 118.845 72.2936 118.906 72.1536C118.967 72.0137 118.999 71.8627 119 71.71C119 71.44 119 70.63 117.75 70.63H115.55V72.83H117.81Z"/>
  <path d="M130.93 77.44H129.37V69.17H130.93V77.44Z"/>
  <path d="M147.54 73.27C147.495 74.0636 147.219 74.8267 146.745 75.4651C146.271 76.1035 145.621 76.5892 144.875 76.8622C144.128 77.1353 143.318 77.1838 142.544 77.0018C141.771 76.8197 141.067 76.4151 140.521 75.8378C139.974 75.2604 139.609 74.5358 139.469 73.7532C139.33 72.9706 139.423 72.1643 139.737 71.4339C140.05 70.7035 140.571 70.081 141.235 69.6431C141.898 69.2053 142.675 68.9712 143.47 68.97C144.022 68.9761 144.568 69.0933 145.074 69.3145C145.58 69.5357 146.036 69.8564 146.416 70.2576C146.796 70.6587 147.091 71.1321 147.284 71.6496C147.477 72.1671 147.564 72.7181 147.54 73.27V73.27ZM145.95 73.27C145.883 72.7954 145.681 72.3501 145.368 71.9871C145.055 71.6242 144.644 71.3589 144.184 71.2228C143.725 71.0868 143.236 71.0857 142.775 71.2197C142.315 71.3538 141.903 71.6173 141.589 71.9789C141.274 72.3405 141.07 72.7849 141.001 73.2592C140.932 73.7335 141 74.2176 141.198 74.654C141.397 75.0904 141.716 75.4606 142.119 75.7205C142.522 75.9804 142.991 76.1191 143.47 76.12C144.182 76.0736 144.847 75.7484 145.321 75.2148C145.794 74.6812 146.038 73.9824 146 73.27H145.95Z"/>
</svg>
