<svg width="200" height="100" viewBox="0 0 200 100" fill="none" xmlns="http://www.w3.org/2000/svg">
<g clip-path="url(#clip0)">
<path d="M28 41.5699C28.1359 41.4774 28.2889 41.4128 28.45 41.3799C30.93 41.3799 33.45 41.3799 35.89 41.5099C36.8755 41.5394 37.8362 41.8263 38.6765 42.3421C39.5168 42.8578 40.2075 43.5845 40.68 44.4499C41.4105 45.7559 41.6166 47.2911 41.2562 48.7435C40.8959 50.1959 39.9963 51.4568 38.74 52.2699C38.18 52.6099 38.18 52.6399 38.55 53.1799C39.47 54.5199 40.38 55.8599 41.32 57.1799C41.4603 57.3342 41.6181 57.4718 41.79 57.5899C41.931 57.4298 42.055 57.2556 42.16 57.0699C44.16 52.0299 46.16 46.9899 48.16 41.9499C48.2055 41.7529 48.3231 41.58 48.4897 41.4652C48.6562 41.3505 48.8596 41.3022 49.06 41.3299C50.06 41.3799 51.15 41.3299 52.19 41.3299C52.3811 41.3017 52.5758 41.3454 52.7366 41.4525C52.8973 41.5597 53.0125 41.7227 53.06 41.9099C55.06 46.9966 57.06 52.0766 59.06 57.1499C59.24 57.6299 59.44 58.0999 59.61 58.5899C59.78 59.0799 59.61 59.2099 59.21 59.2099C57.89 59.2099 56.57 59.2099 55.21 59.2099C55.0958 59.1916 54.9874 59.1468 54.8936 59.0791C54.7998 59.0114 54.7232 58.9226 54.67 58.8199C54.35 58.0999 54.09 57.3499 53.82 56.6099C53.7869 56.4776 53.7066 56.362 53.5943 56.2847C53.482 56.2073 53.3454 56.1736 53.21 56.1899H47.84C47.765 56.1756 47.6879 56.1764 47.6133 56.1924C47.5387 56.2084 47.468 56.2393 47.4055 56.2831C47.343 56.3269 47.29 56.3829 47.2495 56.4476C47.2091 56.5123 47.182 56.5845 47.17 56.6599C46.92 57.3999 46.62 58.1299 46.36 58.8699C46.3313 58.9953 46.2571 59.1055 46.1518 59.1794C46.0465 59.2533 45.9176 59.2855 45.79 59.2699C43.01 59.2699 40.24 59.2699 37.46 59.2699C37.3272 59.2515 37.1995 59.2067 37.0844 59.1379C36.9693 59.0692 36.8691 58.9781 36.79 58.8699C35.7 57.2099 34.65 55.5199 33.57 53.8699C33.4067 53.7012 33.2177 53.5594 33.01 53.4499C32.8949 53.6591 32.8139 53.8852 32.77 54.1199C32.77 55.6299 32.77 57.1199 32.77 58.6399C32.77 59.2499 32.7 59.3099 32.08 59.3099C30.92 59.3099 29.75 59.3099 28.59 59.3099C28.3791 59.2792 28.1737 59.2186 27.98 59.1299L28 41.5699ZM32.79 47.5699C32.7599 48.0294 32.7599 48.4904 32.79 48.9499C32.79 49.1299 33.03 49.4099 33.17 49.4199C33.8003 49.4701 34.4342 49.45 35.06 49.3599C35.4709 49.2813 35.8428 49.0651 36.1143 48.7468C36.3859 48.4285 36.5408 48.0272 36.5536 47.609C36.5664 47.1908 36.4363 46.7807 36.1848 46.4464C35.9333 46.1121 35.5753 45.8735 35.17 45.7699C34.5595 45.6965 33.9448 45.663 33.33 45.6699C32.95 45.6699 32.8 45.8299 32.81 46.1799L32.79 47.5699ZM50.55 52.1499H51.68C52.05 52.1499 52.23 51.9899 52.09 51.5999C51.69 50.5099 51.3 49.4099 50.88 48.3299C50.83 48.1899 50.66 48.0199 50.54 48.0199C50.42 48.0199 50.25 48.1799 50.2 48.3099C49.78 49.3899 49.38 50.4799 48.98 51.5699C48.84 51.9699 48.98 52.1599 49.42 52.1499H50.55Z" fill="black"/>
<path d="M172.17 59.05C171.972 59.1375 171.764 59.198 171.55 59.23C170.29 59.23 169.02 59.23 167.75 59.23C167.607 59.244 167.464 59.2063 167.347 59.1237C167.229 59.0411 167.145 58.9192 167.11 58.78C166.87 58.07 166.57 57.37 166.32 56.66C166.289 56.5107 166.202 56.3786 166.078 56.2898C165.954 56.2009 165.801 56.1618 165.65 56.18C163.87 56.18 162.09 56.18 160.31 56.18C160.157 56.1644 160.005 56.2059 159.881 56.2964C159.757 56.3869 159.671 56.52 159.64 56.67C159.4 57.38 159.12 58.08 158.87 58.79C158.836 58.9322 158.752 59.0569 158.631 59.14C158.511 59.2231 158.365 59.2588 158.22 59.24C157.01 59.24 155.79 59.24 154.58 59.24C154.01 59.24 153.86 59.02 154.07 58.5C156.27 52.94 158.467 47.3767 160.66 41.81C160.699 41.6711 160.785 41.5502 160.904 41.468C161.023 41.3859 161.166 41.3477 161.31 41.36C162.46 41.36 163.61 41.36 164.75 41.36C164.902 41.3437 165.055 41.3834 165.18 41.4718C165.306 41.5601 165.394 41.691 165.43 41.84C167.29 46.56 169.16 51.28 171.04 56C171.4 56.92 171.79 57.83 172.17 58.74V59.05ZM162.98 52.15H164.17C164.54 52.15 164.68 51.95 164.56 51.61C164.16 50.5 163.76 49.4 163.34 48.3C163.306 48.2262 163.256 48.1609 163.194 48.109C163.132 48.057 163.059 48.0198 162.98 48C162.89 48 162.72 48.16 162.67 48.28C162.25 49.39 161.85 50.49 161.45 51.6C161.31 51.98 161.45 52.15 161.87 52.15H162.98Z" fill="black"/>
<path d="M95.7998 50.28C95.7998 47.62 95.7998 44.97 95.7998 42.28C95.7998 41.4 95.7998 41.36 96.7298 41.36C98.4298 41.36 100.12 41.36 101.82 41.36C105.95 41.46 108.97 43.28 110.66 47.14C110.735 47.2641 110.826 47.3783 110.93 47.48C111.059 47.3597 111.17 47.2217 111.26 47.07C111.794 45.5764 112.714 44.2505 113.925 43.2267C115.137 42.2029 116.598 41.5175 118.16 41.2401C119.78 40.8699 121.469 40.9409 123.052 41.4457C124.635 41.9505 126.053 42.8706 127.16 44.11C127.304 44.2368 127.462 44.3475 127.63 44.44C127.706 44.2648 127.756 44.0796 127.78 43.89C127.78 43.22 127.78 42.55 127.78 41.89C127.78 41.53 127.92 41.36 128.3 41.36C132.253 41.36 136.21 41.36 140.17 41.36C140.6 41.36 140.67 41.61 140.67 41.96C140.67 43.07 140.67 44.18 140.67 45.3C140.67 45.67 140.52 45.82 140.15 45.82H137.58C136.58 45.82 136.58 45.82 136.58 46.82V58.44C136.58 59.18 136.58 59.2 135.79 59.19H132.5C131.87 59.19 131.82 59.1901 131.82 58.5201V46.66C131.82 45.81 131.82 45.8101 130.97 45.8101H129.07C128.5 45.8101 128.47 45.8801 128.69 46.4001C129.369 47.9107 129.632 49.5756 129.45 51.2219C129.269 52.8682 128.65 54.436 127.658 55.7625C126.666 57.089 125.338 58.1259 123.81 58.7655C122.282 59.4051 120.611 59.6242 118.97 59.4001C117.243 59.2413 115.598 58.5921 114.229 57.529C112.859 56.4659 111.822 55.0332 111.24 53.4001C111.18 53.2601 111.03 53.1601 110.93 53.0401C110.826 53.1418 110.735 53.256 110.66 53.3801C110.073 54.8901 109.09 56.214 107.814 57.2119C106.538 58.2099 105.017 58.8449 103.41 59.05C102.9 59.1218 102.384 59.1486 101.87 59.1301H96.4798C95.8798 59.1301 95.7998 59.04 95.7998 58.44V50.28ZM115.56 50.28C115.545 50.8928 115.654 51.5022 115.879 52.0721C116.105 52.642 116.443 53.1606 116.873 53.5973C117.303 54.0339 117.816 54.3796 118.383 54.6137C118.949 54.8478 119.557 54.9656 120.17 54.96C121.403 54.96 122.586 54.4701 123.458 53.5981C124.33 52.7261 124.82 51.5433 124.82 50.3101C124.82 49.0768 124.33 47.894 123.458 47.022C122.586 46.15 121.403 45.66 120.17 45.66C119.561 45.6547 118.958 45.7709 118.395 46.0019C117.832 46.233 117.32 46.5741 116.891 47.0054C116.462 47.4367 116.123 47.9494 115.894 48.5134C115.665 49.0775 115.552 49.6815 115.56 50.2901V50.28ZM100.56 50.28C100.56 51.56 100.56 52.8501 100.56 54.1301C100.56 54.5601 100.72 54.77 101.16 54.76C101.6 54.75 101.91 54.76 102.29 54.76C103.035 54.7044 103.754 54.4611 104.38 54.0528C105.007 53.6444 105.519 53.0843 105.87 52.4246C106.222 51.7648 106.4 51.0269 106.39 50.2795C106.379 49.5321 106.18 48.7996 105.81 48.1501C105.349 47.3516 104.663 46.7067 103.838 46.2958C103.013 45.885 102.085 45.7265 101.17 45.84C100.71 45.84 100.52 46.01 100.53 46.48C100.57 47.75 100.55 49.0201 100.55 50.2901L100.56 50.28Z" fill="black"/>
<path d="M87.9501 41C89.1965 40.9538 90.4347 41.2195 91.5523 41.7731C92.6699 42.3267 93.6316 43.1506 94.3501 44.17C94.7301 44.69 94.6901 44.85 94.1401 45.17C93.2401 45.73 92.3301 46.27 91.4501 46.85C91.381 46.9248 91.294 46.9808 91.1973 47.0127C91.1007 47.0445 90.9975 47.0513 90.8974 47.0323C90.7974 47.0133 90.7039 46.9692 90.6256 46.904C90.5474 46.8389 90.487 46.7549 90.4501 46.66C90.1887 46.2104 89.791 45.8557 89.3146 45.6472C88.8382 45.4386 88.3078 45.3871 87.8001 45.5C87.5869 45.5299 87.389 45.6277 87.2358 45.7791C87.0827 45.9304 86.9825 46.1272 86.9501 46.34C86.9204 46.5584 86.9709 46.7801 87.0923 46.964C87.2137 47.1479 87.3977 47.2815 87.6101 47.34L90.6101 48.49C91.7886 48.8691 92.854 49.5358 93.7101 50.43C94.1612 50.9856 94.4971 51.6255 94.6983 52.3123C94.8995 52.9991 94.9619 53.7191 94.8818 54.4303C94.8017 55.1415 94.5809 55.8296 94.232 56.4545C93.8832 57.0794 93.4134 57.6286 92.8501 58.07C91.9746 58.7056 90.9778 59.1546 89.9216 59.3891C88.8653 59.6236 87.7722 59.6387 86.7099 59.4333C85.6477 59.228 84.6389 58.8067 83.7462 58.1954C82.8534 57.5842 82.0957 56.7961 81.5201 55.88C81.3001 55.49 81.3301 55.23 81.7301 55C82.7301 54.43 83.7301 53.86 84.6501 53.27C85.0601 53.02 85.3101 53.1 85.5701 53.5C85.8797 54.0287 86.3373 54.4552 86.8863 54.7271C87.4354 54.999 88.052 55.1043 88.6601 55.03C88.966 54.9975 89.2603 54.8948 89.5201 54.73C89.6355 54.6619 89.7327 54.5668 89.8033 54.453C89.874 54.3391 89.916 54.2098 89.9259 54.0762C89.9357 53.9425 89.913 53.8085 89.8598 53.6855C89.8065 53.5626 89.7243 53.4543 89.6201 53.37C89.3216 53.127 88.9833 52.9375 88.6201 52.81C87.8201 52.5 87.0101 52.25 86.2001 51.95C84.8339 51.5181 83.6399 50.6637 82.7901 49.51C82.3391 48.7712 82.0684 47.9366 82.0001 47.0737C81.9318 46.2108 82.0678 45.344 82.3969 44.5434C82.7261 43.7429 83.2393 43.0312 83.8948 42.4659C84.5504 41.9007 85.3298 41.4978 86.1701 41.29C86.756 41.1523 87.3508 41.0554 87.9501 41V41Z" fill="black"/>
<path d="M69.9602 50.2801C69.9602 47.6135 69.9602 44.9235 69.9602 42.2101C69.9602 41.4301 70.0202 41.3701 70.8002 41.3701H79.9002C80.6002 41.3701 80.6902 41.4601 80.6902 42.1701C80.6902 43.1101 80.6902 44.0501 80.6902 45.0001C80.6902 45.6501 80.5902 45.7501 79.9502 45.7501H75.4802C74.8302 45.7501 74.7902 45.7501 74.7902 46.4601V47.3901C74.7902 48.1001 74.8502 48.1601 75.5402 48.1601H79.1702C79.8102 48.1601 79.8802 48.2301 79.8802 48.8601C79.8802 49.8001 79.8802 50.7501 79.8802 51.6901C79.8802 52.1701 79.7102 52.3701 79.2202 52.3601C77.9502 52.3601 76.6802 52.3601 75.4202 52.3601C74.9302 52.3601 74.7202 52.5301 74.7502 53.0301C74.7802 53.4396 74.7802 53.8507 74.7502 54.2601C74.7502 54.7401 74.9402 54.9001 75.3902 54.8901H79.9702C80.6302 54.8901 80.7102 54.9701 80.7102 55.6201V58.4501C80.7102 59.2001 80.6502 59.2501 79.8802 59.2501H70.7802C70.0002 59.2501 69.9302 59.1801 69.9302 58.4101C69.9502 55.6601 69.9602 52.9901 69.9602 50.2801Z" fill="black"/>
<path d="M153.85 44.2101C153.85 44.6901 153.85 45.2101 153.85 45.6501C153.85 46.3901 153.36 46.6501 152.68 46.4001C151.392 45.7712 149.928 45.6018 148.53 45.9201C147.497 46.21 146.6 46.8554 145.997 47.7423C145.394 48.6292 145.124 49.7006 145.234 50.7675C145.344 51.8343 145.827 52.828 146.599 53.5731C147.37 54.3183 148.38 54.767 149.45 54.8401C150.483 54.8992 151.514 54.6998 152.45 54.2601C153.24 53.9001 153.72 54.2001 153.72 55.0701C153.72 55.9401 153.72 56.8501 153.72 57.7401C153.74 57.9891 153.676 58.2375 153.538 58.4458C153.4 58.6542 153.197 58.8106 152.96 58.8901C151.657 59.4686 150.235 59.7292 148.811 59.6505C147.387 59.5717 146.003 59.1558 144.771 58.4371C143.54 57.7184 142.497 56.7173 141.728 55.5165C140.96 54.3156 140.487 52.9493 140.35 51.5301C140.102 49.8839 140.306 48.2014 140.939 46.6618C141.572 45.1223 142.612 43.7834 143.946 42.7878C145.28 41.7923 146.859 41.1774 148.515 41.0088C150.172 40.8401 151.842 41.124 153.35 41.8301C153.517 41.8961 153.66 42.0123 153.758 42.1627C153.857 42.3131 153.906 42.4904 153.9 42.6701C153.84 43.1801 153.85 43.6601 153.85 44.2101Z" fill="black"/>
<path d="M60.2899 52.5401V46.5401C60.2899 45.9301 60.2199 45.8601 59.6099 45.8601H56.8399C56.3899 45.8601 56.2199 45.6801 56.2299 45.2501C56.2299 44.1501 56.2299 43.0601 56.2299 41.9601C56.2299 41.4901 56.4199 41.3301 56.8699 41.3301H68.5399C69.0199 41.3301 69.2199 41.5101 69.2099 42.0001C69.2099 43.0001 69.2099 44.0901 69.2099 45.1301C69.2099 45.7601 69.1199 45.8601 68.5099 45.8601H65.8199C65.1899 45.8601 65.1199 45.9301 65.1199 46.5701V58.4201C65.1199 59.1901 65.1199 59.2401 64.3099 59.2401C63.1799 59.2401 62.0499 59.2401 60.9199 59.2401C60.4599 59.2401 60.2799 59.0501 60.2799 58.5901C60.2932 56.5767 60.2966 54.5601 60.2899 52.5401Z" fill="black"/>
</g>
<defs>
<clipPath id="clip0">
<rect width="144.13" height="18.61" fill="white" transform="translate(28 41)"/>
</clipPath>
</defs>
</svg>
